%TF.GenerationSoftware,KiCad,Pcbnew,7.0.8*%
%TF.CreationDate,2023-10-11T21:33:04+02:00*%
%TF.ProjectId,LvL_shifter_shield,4c764c5f-7368-4696-9674-65725f736869,rev?*%
%TF.SameCoordinates,Original*%
%TF.FileFunction,Copper,L2,Inr*%
%TF.FilePolarity,Positive*%
%FSLAX46Y46*%
G04 Gerber Fmt 4.6, Leading zero omitted, Abs format (unit mm)*
G04 Created by KiCad (PCBNEW 7.0.8) date 2023-10-11 21:33:04*
%MOMM*%
%LPD*%
G01*
G04 APERTURE LIST*
G04 Aperture macros list*
%AMRoundRect*
0 Rectangle with rounded corners*
0 $1 Rounding radius*
0 $2 $3 $4 $5 $6 $7 $8 $9 X,Y pos of 4 corners*
0 Add a 4 corners polygon primitive as box body*
4,1,4,$2,$3,$4,$5,$6,$7,$8,$9,$2,$3,0*
0 Add four circle primitives for the rounded corners*
1,1,$1+$1,$2,$3*
1,1,$1+$1,$4,$5*
1,1,$1+$1,$6,$7*
1,1,$1+$1,$8,$9*
0 Add four rect primitives between the rounded corners*
20,1,$1+$1,$2,$3,$4,$5,0*
20,1,$1+$1,$4,$5,$6,$7,0*
20,1,$1+$1,$6,$7,$8,$9,0*
20,1,$1+$1,$8,$9,$2,$3,0*%
G04 Aperture macros list end*
%TA.AperFunction,ComponentPad*%
%ADD10RoundRect,0.250000X0.750000X-0.600000X0.750000X0.600000X-0.750000X0.600000X-0.750000X-0.600000X0*%
%TD*%
%TA.AperFunction,ComponentPad*%
%ADD11O,2.000000X1.700000*%
%TD*%
%TA.AperFunction,ComponentPad*%
%ADD12R,1.700000X1.700000*%
%TD*%
%TA.AperFunction,ComponentPad*%
%ADD13O,1.700000X1.700000*%
%TD*%
%TA.AperFunction,ViaPad*%
%ADD14C,0.800000*%
%TD*%
%TA.AperFunction,ViaPad*%
%ADD15C,0.600000*%
%TD*%
%TA.AperFunction,Conductor*%
%ADD16C,0.150000*%
%TD*%
G04 APERTURE END LIST*
D10*
%TO.N,GND*%
%TO.C,J4*%
X109067600Y-87325200D03*
D11*
%TO.N,+5V*%
X109067600Y-84825200D03*
%TD*%
D12*
%TO.N,Net-(J1-Pin_1)*%
%TO.C,J1*%
X137160000Y-86995000D03*
D13*
%TO.N,Net-(J1-Pin_2)*%
X137160000Y-84455000D03*
%TO.N,Net-(J1-Pin_3)*%
X134620000Y-86995000D03*
%TO.N,GND*%
X134620000Y-84455000D03*
%TO.N,Net-(J1-Pin_5)*%
X132080000Y-86995000D03*
%TO.N,Net-(J1-Pin_6)*%
X132080000Y-84455000D03*
%TO.N,Net-(J1-Pin_7)*%
X129540000Y-86995000D03*
%TO.N,Net-(J1-Pin_8)*%
X129540000Y-84455000D03*
%TO.N,Net-(J1-Pin_9)*%
X127000000Y-86995000D03*
%TO.N,Net-(J1-Pin_10)*%
X127000000Y-84455000D03*
%TO.N,Net-(J1-Pin_11)*%
X124460000Y-86995000D03*
%TO.N,Net-(J1-Pin_12)*%
X124460000Y-84455000D03*
%TO.N,Net-(J1-Pin_13)*%
X121920000Y-86995000D03*
%TO.N,Net-(J1-Pin_14)*%
X121920000Y-84455000D03*
%TO.N,Net-(J1-Pin_15)*%
X119380000Y-86995000D03*
%TO.N,GND*%
X119380000Y-84455000D03*
%TD*%
D12*
%TO.N,unconnected-(J3-Pin_1-Pad1)*%
%TO.C,J3*%
X141605000Y-93345000D03*
D13*
%TO.N,unconnected-(J3-Pin_2-Pad2)*%
X139065000Y-93345000D03*
%TO.N,unconnected-(J3-Pin_3-Pad3)*%
X136525000Y-93345000D03*
%TO.N,GND*%
X133985000Y-93345000D03*
%TO.N,Net-(J3-Pin_5)*%
X131445000Y-93345000D03*
%TO.N,Net-(J3-Pin_6)*%
X128905000Y-93345000D03*
%TO.N,Net-(J3-Pin_7)*%
X126365000Y-93345000D03*
%TO.N,Net-(J3-Pin_8)*%
X123825000Y-93345000D03*
%TO.N,Net-(J3-Pin_9)*%
X121285000Y-93345000D03*
%TO.N,Net-(J3-Pin_10)*%
X118745000Y-93345000D03*
%TO.N,unconnected-(J3-Pin_11-Pad11)*%
X116205000Y-93345000D03*
%TO.N,Net-(J3-Pin_12)*%
X113665000Y-93345000D03*
%TO.N,Net-(J3-Pin_13)*%
X111125000Y-93345000D03*
%TO.N,Net-(J3-Pin_14)*%
X108585000Y-93345000D03*
%TO.N,unconnected-(J3-Pin_15-Pad15)*%
X106045000Y-93345000D03*
%TD*%
D12*
%TO.N,unconnected-(J2-Pin_1-Pad1)*%
%TO.C,J2*%
X141575000Y-78105000D03*
D13*
%TO.N,+3.3V*%
X139035000Y-78105000D03*
%TO.N,unconnected-(J2-Pin_3-Pad3)*%
X136495000Y-78105000D03*
%TO.N,Net-(J2-Pin_4)*%
X133955000Y-78105000D03*
%TO.N,Net-(J2-Pin_5)*%
X131415000Y-78105000D03*
%TO.N,Net-(J2-Pin_6)*%
X128875000Y-78105000D03*
%TO.N,Net-(J2-Pin_7)*%
X126335000Y-78105000D03*
%TO.N,Net-(J2-Pin_8)*%
X123795000Y-78105000D03*
%TO.N,unconnected-(J2-Pin_9-Pad9)*%
X121255000Y-78105000D03*
%TO.N,unconnected-(J2-Pin_10-Pad10)*%
X118715000Y-78105000D03*
%TO.N,unconnected-(J2-Pin_11-Pad11)*%
X116175000Y-78105000D03*
%TO.N,unconnected-(J2-Pin_12-Pad12)*%
X113635000Y-78105000D03*
%TO.N,unconnected-(J2-Pin_13-Pad13)*%
X111095000Y-78105000D03*
%TO.N,GND*%
X108555000Y-78105000D03*
%TO.N,unconnected-(J2-Pin_15-Pad15)*%
X106015000Y-78105000D03*
%TD*%
D14*
%TO.N,+5V*%
X108966000Y-90220800D03*
X117217418Y-85805109D03*
X137845800Y-91846400D03*
%TO.N,GND*%
X137936900Y-81280000D03*
X113411000Y-88519000D03*
X107315000Y-80645000D03*
X120548400Y-81280000D03*
%TO.N,+3.3V*%
X144094200Y-85852000D03*
X111973957Y-84349500D03*
D15*
%TO.N,Net-(J1-Pin_1)*%
X141071600Y-87815900D03*
%TO.N,Net-(J1-Pin_2)*%
X139471400Y-87249000D03*
%TO.N,Net-(J1-Pin_3)*%
X141224000Y-86791800D03*
%TO.N,Net-(J1-Pin_5)*%
X139471400Y-86449500D03*
%TO.N,Net-(J1-Pin_6)*%
X139106900Y-85000500D03*
%TO.N,Net-(J1-Pin_7)*%
X139213273Y-84223994D03*
%TO.N,Net-(J1-Pin_8)*%
X139318127Y-83252300D03*
%TO.N,Net-(J1-Pin_9)*%
X140055600Y-83252300D03*
%TO.N,Net-(J1-Pin_10)*%
X116255800Y-83328500D03*
%TO.N,Net-(J1-Pin_11)*%
X118161541Y-84911459D03*
%TO.N,Net-(J1-Pin_12)*%
X123799600Y-85725000D03*
%TO.N,Net-(J1-Pin_13)*%
X118059200Y-89255600D03*
%TO.N,Net-(J1-Pin_14)*%
X117398800Y-86690200D03*
%TO.N,Net-(J1-Pin_15)*%
X117449600Y-88011000D03*
%TO.N,Net-(J2-Pin_4)*%
X141198600Y-81178400D03*
%TO.N,Net-(J2-Pin_5)*%
X114808000Y-83210400D03*
%TO.N,Net-(J2-Pin_6)*%
X113471413Y-84285500D03*
%TO.N,Net-(J2-Pin_7)*%
X112773200Y-84369864D03*
%TO.N,Net-(J2-Pin_8)*%
X141198600Y-82016600D03*
%TO.N,Net-(J3-Pin_5)*%
X142087600Y-90322400D03*
%TO.N,Net-(J3-Pin_6)*%
X143078200Y-89941400D03*
%TO.N,Net-(J3-Pin_7)*%
X143941800Y-89433400D03*
%TO.N,Net-(J3-Pin_8)*%
X144475200Y-88341200D03*
%TO.N,Net-(J3-Pin_9)*%
X143214100Y-84939103D03*
%TO.N,Net-(J3-Pin_10)*%
X143205200Y-84175600D03*
%TO.N,Net-(J3-Pin_12)*%
X115341400Y-85166200D03*
%TO.N,Net-(J3-Pin_13)*%
X112166400Y-86635500D03*
%TO.N,Net-(J3-Pin_14)*%
X115366800Y-87994500D03*
D14*
%TO.N,Net-(U1-OE)*%
X144373600Y-84963000D03*
%TO.N,Net-(U2-OE)*%
X112582201Y-85952628D03*
%TD*%
D16*
%TO.N,Net-(J1-Pin_1)*%
X141071600Y-87815900D02*
X140978100Y-87909400D01*
X140978100Y-87909400D02*
X138074400Y-87909400D01*
X138074400Y-87909400D02*
X137160000Y-86995000D01*
%TO.N,Net-(J1-Pin_2)*%
X138480800Y-86690200D02*
X138480800Y-85775800D01*
X139039600Y-87249000D02*
X138480800Y-86690200D01*
X138480800Y-85775800D02*
X137160000Y-84455000D01*
X139471400Y-87249000D02*
X139039600Y-87249000D01*
%TO.N,Net-(J1-Pin_3)*%
X141224000Y-86791800D02*
X141706600Y-87274400D01*
X141427200Y-88468200D02*
X136093200Y-88468200D01*
X141706600Y-87274400D02*
X141706600Y-88188800D01*
X141706600Y-88188800D02*
X141427200Y-88468200D01*
X136093200Y-88468200D02*
X134620000Y-86995000D01*
%TO.N,Net-(J1-Pin_5)*%
X139471400Y-86182200D02*
X138328400Y-85039200D01*
X135966200Y-85140800D02*
X135280400Y-85826600D01*
X138328400Y-83820000D02*
X137820400Y-83312000D01*
X135966200Y-83870800D02*
X135966200Y-85140800D01*
X133248400Y-85826600D02*
X132080000Y-86995000D01*
X135280400Y-85826600D02*
X133248400Y-85826600D01*
X139471400Y-86449500D02*
X139471400Y-86182200D01*
X136525000Y-83312000D02*
X135966200Y-83870800D01*
X137820400Y-83312000D02*
X136525000Y-83312000D01*
X138328400Y-85039200D02*
X138328400Y-83820000D01*
%TO.N,Net-(J1-Pin_6)*%
X138734800Y-83642200D02*
X137998200Y-82905600D01*
X138734800Y-84628400D02*
X138734800Y-83642200D01*
X133629400Y-82905600D02*
X132080000Y-84455000D01*
X137998200Y-82905600D02*
X133629400Y-82905600D01*
X139106900Y-85000500D02*
X138734800Y-84628400D01*
%TO.N,Net-(J1-Pin_7)*%
X142163800Y-88493600D02*
X141732000Y-88925400D01*
X139213273Y-84223994D02*
X139646794Y-84223994D01*
X139646794Y-84223994D02*
X142163800Y-86741000D01*
X142163800Y-86741000D02*
X142163800Y-88493600D01*
X141732000Y-88925400D02*
X131470400Y-88925400D01*
X131470400Y-88925400D02*
X129540000Y-86995000D01*
%TO.N,Net-(J1-Pin_8)*%
X139318127Y-83252300D02*
X139056100Y-83252300D01*
X139056100Y-83252300D02*
X138277600Y-82473800D01*
X131521200Y-82473800D02*
X129540000Y-84455000D01*
X138277600Y-82473800D02*
X131521200Y-82473800D01*
%TO.N,Net-(J1-Pin_9)*%
X140055600Y-83252300D02*
X138794500Y-81991200D01*
X128270000Y-83921600D02*
X128270000Y-85725000D01*
X138794500Y-81991200D02*
X130200400Y-81991200D01*
X128270000Y-85725000D02*
X127000000Y-86995000D01*
X130200400Y-81991200D02*
X128270000Y-83921600D01*
%TO.N,Net-(J2-Pin_5)*%
X129002000Y-80518000D02*
X131415000Y-78105000D01*
X114808000Y-83210400D02*
X114808000Y-82042000D01*
X114808000Y-82042000D02*
X116332000Y-80518000D01*
X116332000Y-80518000D02*
X129002000Y-80518000D01*
%TO.N,Net-(J2-Pin_6)*%
X114322257Y-81435543D02*
X115671600Y-80086200D01*
X114322257Y-83434656D02*
X114322257Y-81435543D01*
X115671600Y-80086200D02*
X126893800Y-80086200D01*
X126893800Y-80086200D02*
X128875000Y-78105000D01*
X113471413Y-84285500D02*
X114322257Y-83434656D01*
%TO.N,Net-(J2-Pin_7)*%
X112773200Y-81994000D02*
X112773200Y-84369864D01*
X126335000Y-78105000D02*
X124836400Y-79603600D01*
X124836400Y-79603600D02*
X115163600Y-79603600D01*
X115163600Y-79603600D02*
X112773200Y-81994000D01*
%TO.N,Net-(J3-Pin_12)*%
X113665000Y-93345000D02*
X114263568Y-92746432D01*
X114263568Y-86244032D02*
X115341400Y-85166200D01*
X114263568Y-92746432D02*
X114263568Y-86244032D01*
%TO.N,Net-(J3-Pin_13)*%
X112166400Y-92303600D02*
X111125000Y-93345000D01*
X112166400Y-86635500D02*
X112166400Y-92303600D01*
%TO.N,Net-(J3-Pin_14)*%
X115087400Y-84556600D02*
X114300000Y-85344000D01*
X110540800Y-86918800D02*
X110540800Y-91389200D01*
X115366800Y-87994500D02*
X115976400Y-87384900D01*
X112115600Y-85344000D02*
X110540800Y-86918800D01*
X115976400Y-87384900D02*
X115976400Y-84912200D01*
X115976400Y-84912200D02*
X115620800Y-84556600D01*
X110540800Y-91389200D02*
X108585000Y-93345000D01*
X115620800Y-84556600D02*
X115087400Y-84556600D01*
X114300000Y-85344000D02*
X112115600Y-85344000D01*
%TD*%
%TA.AperFunction,Conductor*%
%TO.N,Net-(J1-Pin_5)*%
G36*
X133292222Y-85755203D02*
G01*
X133296022Y-85763312D01*
X133296034Y-85763844D01*
X133296034Y-85892645D01*
X133292607Y-85900918D01*
X133287390Y-85903939D01*
X132993806Y-85983392D01*
X132905868Y-86203728D01*
X132925971Y-86525034D01*
X132947778Y-86908242D01*
X132947567Y-86911214D01*
X132868101Y-87306341D01*
X132863111Y-87313776D01*
X132854324Y-87315504D01*
X132852158Y-87314845D01*
X132083487Y-86996856D01*
X132077153Y-86990527D01*
X132077146Y-86990511D01*
X131759047Y-86220183D01*
X131759056Y-86211228D01*
X131765059Y-86205048D01*
X132123060Y-86043914D01*
X132386413Y-85915625D01*
X132386790Y-85915460D01*
X132619116Y-85824624D01*
X132621114Y-85824042D01*
X132897472Y-85769871D01*
X132899180Y-85769666D01*
X133283804Y-85752156D01*
X133292222Y-85755203D01*
G37*
%TD.AperFunction*%
%TD*%
%TA.AperFunction,Conductor*%
%TO.N,Net-(J1-Pin_3)*%
G36*
X141498502Y-86681791D02*
G01*
X141504814Y-86688143D01*
X141505101Y-86688918D01*
X141542639Y-86802584D01*
X141542827Y-86803302D01*
X141561537Y-86899451D01*
X141579532Y-86981592D01*
X141592193Y-87008317D01*
X141618776Y-87064431D01*
X141618778Y-87064434D01*
X141618779Y-87064435D01*
X141694424Y-87154820D01*
X141697106Y-87163364D01*
X141693725Y-87170602D01*
X141602802Y-87261525D01*
X141594529Y-87264952D01*
X141587020Y-87262224D01*
X141496635Y-87186579D01*
X141496634Y-87186578D01*
X141496631Y-87186576D01*
X141440517Y-87159993D01*
X141413792Y-87147332D01*
X141331651Y-87129337D01*
X141235502Y-87110627D01*
X141234784Y-87110439D01*
X141121118Y-87072901D01*
X141114337Y-87067052D01*
X141113677Y-87058122D01*
X141113953Y-87057374D01*
X141221436Y-86795614D01*
X141227746Y-86789264D01*
X141489549Y-86681764D01*
X141498502Y-86681791D01*
G37*
%TD.AperFunction*%
%TD*%
%TA.AperFunction,Conductor*%
%TO.N,Net-(J2-Pin_5)*%
G36*
X114880566Y-82613827D02*
G01*
X114883947Y-82621065D01*
X114894369Y-82738468D01*
X114894370Y-82738474D01*
X114925195Y-82824792D01*
X114925195Y-82824793D01*
X114970553Y-82895603D01*
X115025312Y-82976821D01*
X115025687Y-82977461D01*
X115079516Y-83084378D01*
X115080176Y-83093308D01*
X115074327Y-83100089D01*
X115073577Y-83100435D01*
X114812511Y-83209515D01*
X114803556Y-83209542D01*
X114803489Y-83209515D01*
X114542421Y-83100435D01*
X114536109Y-83094083D01*
X114536136Y-83085128D01*
X114536467Y-83084410D01*
X114590320Y-82977444D01*
X114590681Y-82976828D01*
X114645445Y-82895603D01*
X114690803Y-82824794D01*
X114721630Y-82738470D01*
X114732053Y-82621064D01*
X114736198Y-82613128D01*
X114743707Y-82610400D01*
X114872293Y-82610400D01*
X114880566Y-82613827D01*
G37*
%TD.AperFunction*%
%TD*%
%TA.AperFunction,Conductor*%
%TO.N,Net-(J3-Pin_12)*%
G36*
X114335719Y-91895734D02*
G01*
X114339131Y-91903414D01*
X114354367Y-92203852D01*
X114356916Y-92254104D01*
X114356917Y-92254122D01*
X114400672Y-92509015D01*
X114400672Y-92509016D01*
X114452854Y-92728119D01*
X114452926Y-92728474D01*
X114457291Y-92753898D01*
X114496591Y-92982845D01*
X114496668Y-92983539D01*
X114514377Y-93332721D01*
X114511374Y-93341157D01*
X114503285Y-93344999D01*
X114502706Y-93345014D01*
X113669859Y-93345994D01*
X113661583Y-93342577D01*
X113073880Y-92753897D01*
X113070461Y-92745622D01*
X113073895Y-92737352D01*
X113075523Y-92735997D01*
X113371063Y-92532525D01*
X113374030Y-92531054D01*
X113675283Y-92431854D01*
X113936347Y-92353156D01*
X114119489Y-92203851D01*
X114186535Y-91901473D01*
X114191672Y-91894139D01*
X114197958Y-91892307D01*
X114327446Y-91892307D01*
X114335719Y-91895734D01*
G37*
%TD.AperFunction*%
%TD*%
%TA.AperFunction,Conductor*%
%TO.N,Net-(J1-Pin_6)*%
G36*
X133236370Y-83207208D02*
G01*
X133327791Y-83298629D01*
X133331218Y-83306902D01*
X133328735Y-83314109D01*
X133104596Y-83600741D01*
X133018669Y-83855392D01*
X133001019Y-84110084D01*
X132975432Y-84403831D01*
X132975003Y-84406108D01*
X132868960Y-84767790D01*
X132863344Y-84774765D01*
X132854441Y-84775725D01*
X132853267Y-84775312D01*
X132083785Y-84457562D01*
X132077447Y-84451238D01*
X131759687Y-83681732D01*
X131759696Y-83672777D01*
X131766035Y-83666452D01*
X131767193Y-83666044D01*
X132128893Y-83559993D01*
X132131164Y-83559565D01*
X132424914Y-83533980D01*
X132679605Y-83516329D01*
X132934258Y-83430402D01*
X133220892Y-83206263D01*
X133229518Y-83203868D01*
X133236370Y-83207208D01*
G37*
%TD.AperFunction*%
%TD*%
%TA.AperFunction,Conductor*%
%TO.N,Net-(J3-Pin_12)*%
G36*
X115075834Y-85056157D02*
G01*
X115277076Y-85138790D01*
X115337584Y-85163636D01*
X115343936Y-85169948D01*
X115343963Y-85170015D01*
X115451435Y-85431747D01*
X115451408Y-85440702D01*
X115445056Y-85447014D01*
X115444281Y-85447301D01*
X115330613Y-85484839D01*
X115329895Y-85485027D01*
X115233747Y-85503737D01*
X115151606Y-85521732D01*
X115102487Y-85545002D01*
X115068768Y-85560976D01*
X115068766Y-85560977D01*
X115068763Y-85560979D01*
X114978379Y-85636624D01*
X114969835Y-85639306D01*
X114962597Y-85635925D01*
X114871674Y-85545002D01*
X114868247Y-85536729D01*
X114870975Y-85529220D01*
X114946620Y-85438835D01*
X114946621Y-85438833D01*
X114946620Y-85438833D01*
X114946623Y-85438831D01*
X114985865Y-85355993D01*
X115003861Y-85273851D01*
X115022572Y-85177693D01*
X115022755Y-85176992D01*
X115060298Y-85063317D01*
X115066147Y-85056537D01*
X115075077Y-85055877D01*
X115075834Y-85056157D01*
G37*
%TD.AperFunction*%
%TD*%
%TA.AperFunction,Conductor*%
%TO.N,Net-(J3-Pin_13)*%
G36*
X112237842Y-92079788D02*
G01*
X112241269Y-92088061D01*
X112241268Y-92088192D01*
X112236870Y-92482296D01*
X112236853Y-92482680D01*
X112214591Y-92772080D01*
X112214477Y-92772867D01*
X112161488Y-93018416D01*
X112161286Y-93019129D01*
X112064395Y-93293740D01*
X112064293Y-93294009D01*
X111914743Y-93659419D01*
X111908438Y-93665777D01*
X111899483Y-93665815D01*
X111883994Y-93659419D01*
X111129488Y-93347853D01*
X111123150Y-93341529D01*
X110805028Y-92572535D01*
X110805032Y-92563580D01*
X110811366Y-92557251D01*
X110813256Y-92556651D01*
X111177431Y-92474583D01*
X111179989Y-92474298D01*
X111529611Y-92474163D01*
X111820208Y-92468393D01*
X112018225Y-92366091D01*
X112089169Y-92085196D01*
X112094518Y-92078014D01*
X112100513Y-92076361D01*
X112229569Y-92076361D01*
X112237842Y-92079788D01*
G37*
%TD.AperFunction*%
%TD*%
%TA.AperFunction,Conductor*%
%TO.N,Net-(J3-Pin_14)*%
G36*
X115745602Y-87524774D02*
G01*
X115836525Y-87615697D01*
X115839952Y-87623970D01*
X115837224Y-87631479D01*
X115761579Y-87721863D01*
X115761577Y-87721866D01*
X115761576Y-87721868D01*
X115746390Y-87753923D01*
X115722332Y-87804706D01*
X115704337Y-87886847D01*
X115685627Y-87982995D01*
X115685439Y-87983713D01*
X115647901Y-88097381D01*
X115642052Y-88104162D01*
X115633122Y-88104822D01*
X115632347Y-88104535D01*
X115370615Y-87997063D01*
X115364263Y-87990751D01*
X115364236Y-87990684D01*
X115287870Y-87804706D01*
X115256764Y-87728950D01*
X115256791Y-87719997D01*
X115263143Y-87713685D01*
X115263911Y-87713400D01*
X115377592Y-87675855D01*
X115378293Y-87675672D01*
X115474451Y-87656961D01*
X115556593Y-87638965D01*
X115639431Y-87599723D01*
X115729820Y-87524075D01*
X115738364Y-87521393D01*
X115745602Y-87524774D01*
G37*
%TD.AperFunction*%
%TD*%
%TA.AperFunction,Conductor*%
%TO.N,Net-(J2-Pin_5)*%
G36*
X130641732Y-77784687D02*
G01*
X130643057Y-77785234D01*
X131411215Y-78102438D01*
X131417552Y-78108761D01*
X131417562Y-78108785D01*
X131735312Y-78878267D01*
X131735303Y-78887222D01*
X131728964Y-78893547D01*
X131727790Y-78893960D01*
X131366108Y-79000003D01*
X131363831Y-79000432D01*
X131070084Y-79026019D01*
X130815392Y-79043669D01*
X130560741Y-79129596D01*
X130274109Y-79353735D01*
X130265481Y-79356131D01*
X130258629Y-79352791D01*
X130167208Y-79261370D01*
X130163781Y-79253097D01*
X130166262Y-79245892D01*
X130390402Y-78959258D01*
X130476329Y-78704605D01*
X130493980Y-78449914D01*
X130519565Y-78156164D01*
X130519994Y-78153890D01*
X130535080Y-78102437D01*
X130626040Y-77792207D01*
X130631655Y-77785234D01*
X130640558Y-77784274D01*
X130641732Y-77784687D01*
G37*
%TD.AperFunction*%
%TD*%
%TA.AperFunction,Conductor*%
%TO.N,Net-(J2-Pin_6)*%
G36*
X113850215Y-83815774D02*
G01*
X113941138Y-83906697D01*
X113944565Y-83914970D01*
X113941837Y-83922479D01*
X113866192Y-84012863D01*
X113866190Y-84012866D01*
X113866189Y-84012868D01*
X113851003Y-84044923D01*
X113826945Y-84095706D01*
X113808950Y-84177847D01*
X113790240Y-84273995D01*
X113790052Y-84274713D01*
X113752514Y-84388381D01*
X113746665Y-84395162D01*
X113737735Y-84395822D01*
X113736960Y-84395535D01*
X113475228Y-84288063D01*
X113468876Y-84281751D01*
X113468849Y-84281684D01*
X113392483Y-84095706D01*
X113361377Y-84019950D01*
X113361404Y-84010997D01*
X113367756Y-84004685D01*
X113368524Y-84004400D01*
X113482205Y-83966855D01*
X113482906Y-83966672D01*
X113579064Y-83947961D01*
X113661206Y-83929965D01*
X113744044Y-83890723D01*
X113834433Y-83815075D01*
X113842977Y-83812393D01*
X113850215Y-83815774D01*
G37*
%TD.AperFunction*%
%TD*%
%TA.AperFunction,Conductor*%
%TO.N,Net-(J1-Pin_6)*%
G36*
X138808880Y-84558055D02*
G01*
X138811975Y-84563559D01*
X138832898Y-84649459D01*
X138895572Y-84685628D01*
X138987887Y-84691253D01*
X139098717Y-84694415D01*
X139101068Y-84694725D01*
X139188082Y-84715361D01*
X139208355Y-84720170D01*
X139215614Y-84725413D01*
X139217039Y-84734254D01*
X139216470Y-84736018D01*
X139108760Y-84996993D01*
X139102436Y-85003333D01*
X139102389Y-85003352D01*
X138840181Y-85111016D01*
X138831226Y-85110989D01*
X138825079Y-85105019D01*
X138769015Y-84981192D01*
X138721591Y-84885600D01*
X138721405Y-84885186D01*
X138687727Y-84801571D01*
X138687119Y-84799548D01*
X138666890Y-84700324D01*
X138666668Y-84698548D01*
X138666472Y-84694450D01*
X138660385Y-84566886D01*
X138663414Y-84558459D01*
X138671514Y-84554641D01*
X138672072Y-84554628D01*
X138800607Y-84554628D01*
X138808880Y-84558055D01*
G37*
%TD.AperFunction*%
%TD*%
%TA.AperFunction,Conductor*%
%TO.N,Net-(J1-Pin_2)*%
G36*
X139361049Y-86982742D02*
G01*
X139361617Y-86983918D01*
X139444417Y-87183098D01*
X139469091Y-87242451D01*
X139469102Y-87251406D01*
X139466533Y-87255243D01*
X139266977Y-87453473D01*
X139258692Y-87456872D01*
X139251061Y-87454007D01*
X139169634Y-87383313D01*
X139169632Y-87383311D01*
X139096959Y-87338811D01*
X139030169Y-87305532D01*
X139029723Y-87305285D01*
X138958093Y-87261423D01*
X138956533Y-87260280D01*
X138877112Y-87191328D01*
X138873111Y-87183316D01*
X138875947Y-87174823D01*
X138876495Y-87174234D01*
X138966946Y-87083783D01*
X138975218Y-87080357D01*
X138981665Y-87082293D01*
X138999636Y-87094159D01*
X139049819Y-87127295D01*
X139116298Y-87122533D01*
X139183006Y-87082119D01*
X139259517Y-87025647D01*
X139260142Y-87025247D01*
X139345148Y-86978174D01*
X139354044Y-86977165D01*
X139361049Y-86982742D01*
G37*
%TD.AperFunction*%
%TD*%
%TA.AperFunction,Conductor*%
%TO.N,Net-(J2-Pin_7)*%
G36*
X125561732Y-77784687D02*
G01*
X125563057Y-77785234D01*
X126331215Y-78102438D01*
X126337552Y-78108761D01*
X126337562Y-78108785D01*
X126655312Y-78878267D01*
X126655303Y-78887222D01*
X126648964Y-78893547D01*
X126647790Y-78893960D01*
X126286108Y-79000003D01*
X126283831Y-79000432D01*
X125990084Y-79026019D01*
X125735392Y-79043669D01*
X125480741Y-79129596D01*
X125194109Y-79353735D01*
X125185481Y-79356131D01*
X125178629Y-79352791D01*
X125087208Y-79261370D01*
X125083781Y-79253097D01*
X125086262Y-79245892D01*
X125310402Y-78959258D01*
X125396329Y-78704605D01*
X125413980Y-78449914D01*
X125439565Y-78156164D01*
X125439994Y-78153890D01*
X125455080Y-78102437D01*
X125546040Y-77792207D01*
X125551655Y-77785234D01*
X125560558Y-77784274D01*
X125561732Y-77784687D01*
G37*
%TD.AperFunction*%
%TD*%
%TA.AperFunction,Conductor*%
%TO.N,Net-(J1-Pin_7)*%
G36*
X139433609Y-84018970D02*
G01*
X139515050Y-84089516D01*
X139515053Y-84089518D01*
X139515056Y-84089519D01*
X139515062Y-84089525D01*
X139587875Y-84133738D01*
X139587880Y-84133740D01*
X139587881Y-84133741D01*
X139587890Y-84133746D01*
X139629620Y-84154277D01*
X139654844Y-84166688D01*
X139655292Y-84166934D01*
X139727047Y-84210504D01*
X139728629Y-84211657D01*
X139740093Y-84221587D01*
X139808045Y-84280450D01*
X139812054Y-84288457D01*
X139809227Y-84296954D01*
X139808657Y-84297566D01*
X139718225Y-84387998D01*
X139709952Y-84391425D01*
X139703513Y-84389494D01*
X139635230Y-84344483D01*
X139635229Y-84344483D01*
X139568682Y-84349503D01*
X139501925Y-84390293D01*
X139501921Y-84390295D01*
X139425336Y-84447120D01*
X139424689Y-84447537D01*
X139339531Y-84494801D01*
X139330634Y-84495820D01*
X139323623Y-84490249D01*
X139323053Y-84489071D01*
X139215580Y-84230539D01*
X139215570Y-84221587D01*
X139218136Y-84217753D01*
X139417704Y-84019511D01*
X139425988Y-84016113D01*
X139433609Y-84018970D01*
G37*
%TD.AperFunction*%
%TD*%
%TA.AperFunction,Conductor*%
%TO.N,Net-(J1-Pin_3)*%
G36*
X135402222Y-86674696D02*
G01*
X135408547Y-86681035D01*
X135408960Y-86682209D01*
X135515003Y-87043890D01*
X135515432Y-87046167D01*
X135541019Y-87339914D01*
X135558669Y-87594605D01*
X135644597Y-87849258D01*
X135868735Y-88135890D01*
X135871131Y-88144518D01*
X135867791Y-88151370D01*
X135776370Y-88242791D01*
X135768097Y-88246218D01*
X135760890Y-88243735D01*
X135634009Y-88144518D01*
X135474258Y-88019597D01*
X135219605Y-87933669D01*
X134964914Y-87916019D01*
X134671167Y-87890432D01*
X134668890Y-87890003D01*
X134307209Y-87783960D01*
X134300234Y-87778344D01*
X134299274Y-87769441D01*
X134299687Y-87768267D01*
X134371399Y-87594605D01*
X134617438Y-86998783D01*
X134623759Y-86992448D01*
X135393267Y-86674687D01*
X135402222Y-86674696D01*
G37*
%TD.AperFunction*%
%TD*%
%TA.AperFunction,Conductor*%
%TO.N,Net-(J1-Pin_8)*%
G36*
X130696370Y-83207208D02*
G01*
X130787791Y-83298629D01*
X130791218Y-83306902D01*
X130788735Y-83314109D01*
X130564596Y-83600741D01*
X130478669Y-83855392D01*
X130461019Y-84110084D01*
X130435432Y-84403831D01*
X130435003Y-84406108D01*
X130328960Y-84767790D01*
X130323344Y-84774765D01*
X130314441Y-84775725D01*
X130313267Y-84775312D01*
X129543785Y-84457562D01*
X129537447Y-84451238D01*
X129219687Y-83681732D01*
X129219696Y-83672777D01*
X129226035Y-83666452D01*
X129227193Y-83666044D01*
X129588893Y-83559993D01*
X129591164Y-83559565D01*
X129884914Y-83533980D01*
X130139605Y-83516329D01*
X130394258Y-83430402D01*
X130680892Y-83206263D01*
X130689518Y-83203868D01*
X130696370Y-83207208D01*
G37*
%TD.AperFunction*%
%TD*%
%TA.AperFunction,Conductor*%
%TO.N,Net-(J2-Pin_7)*%
G36*
X112845766Y-83773291D02*
G01*
X112849147Y-83780529D01*
X112859569Y-83897932D01*
X112859570Y-83897938D01*
X112890395Y-83984256D01*
X112890395Y-83984257D01*
X112935753Y-84055067D01*
X112990512Y-84136285D01*
X112990887Y-84136925D01*
X113044716Y-84243842D01*
X113045376Y-84252772D01*
X113039527Y-84259553D01*
X113038777Y-84259899D01*
X112777711Y-84368979D01*
X112768756Y-84369006D01*
X112768689Y-84368979D01*
X112507621Y-84259899D01*
X112501309Y-84253547D01*
X112501336Y-84244592D01*
X112501667Y-84243874D01*
X112555520Y-84136908D01*
X112555881Y-84136292D01*
X112610645Y-84055067D01*
X112656003Y-83984258D01*
X112686830Y-83897934D01*
X112697253Y-83780528D01*
X112701398Y-83772592D01*
X112708907Y-83769864D01*
X112837493Y-83769864D01*
X112845766Y-83773291D01*
G37*
%TD.AperFunction*%
%TD*%
%TA.AperFunction,Conductor*%
%TO.N,Net-(J1-Pin_2)*%
G36*
X137942222Y-84134696D02*
G01*
X137948547Y-84141035D01*
X137948960Y-84142209D01*
X138055003Y-84503890D01*
X138055432Y-84506167D01*
X138081019Y-84799914D01*
X138098669Y-85054605D01*
X138184597Y-85309258D01*
X138408735Y-85595890D01*
X138411131Y-85604518D01*
X138407791Y-85611370D01*
X138316370Y-85702791D01*
X138308097Y-85706218D01*
X138300890Y-85703735D01*
X138174009Y-85604518D01*
X138014258Y-85479597D01*
X137759605Y-85393669D01*
X137504914Y-85376019D01*
X137211167Y-85350432D01*
X137208890Y-85350003D01*
X136847209Y-85243960D01*
X136840234Y-85238344D01*
X136839274Y-85229441D01*
X136839687Y-85228267D01*
X136911399Y-85054605D01*
X137157438Y-84458783D01*
X137163759Y-84452448D01*
X137933267Y-84134687D01*
X137942222Y-84134696D01*
G37*
%TD.AperFunction*%
%TD*%
%TA.AperFunction,Conductor*%
%TO.N,Net-(J1-Pin_7)*%
G36*
X130322222Y-86674696D02*
G01*
X130328547Y-86681035D01*
X130328960Y-86682209D01*
X130435003Y-87043890D01*
X130435432Y-87046167D01*
X130461019Y-87339914D01*
X130478669Y-87594605D01*
X130564597Y-87849258D01*
X130788735Y-88135890D01*
X130791131Y-88144518D01*
X130787791Y-88151370D01*
X130696370Y-88242791D01*
X130688097Y-88246218D01*
X130680890Y-88243735D01*
X130554009Y-88144518D01*
X130394258Y-88019597D01*
X130139605Y-87933669D01*
X129884914Y-87916019D01*
X129591167Y-87890432D01*
X129588890Y-87890003D01*
X129227209Y-87783960D01*
X129220234Y-87778344D01*
X129219274Y-87769441D01*
X129219687Y-87768267D01*
X129291399Y-87594605D01*
X129537438Y-86998783D01*
X129543759Y-86992448D01*
X130313267Y-86674687D01*
X130322222Y-86674696D01*
G37*
%TD.AperFunction*%
%TD*%
%TA.AperFunction,Conductor*%
%TO.N,Net-(J1-Pin_1)*%
G36*
X140961249Y-87549698D02*
G01*
X140961988Y-87551166D01*
X141070715Y-87811389D01*
X141070742Y-87820344D01*
X141070715Y-87820411D01*
X140961316Y-88082241D01*
X140954964Y-88088553D01*
X140946010Y-88088526D01*
X140846282Y-88046562D01*
X140765936Y-88015213D01*
X140694182Y-87996248D01*
X140694178Y-87996247D01*
X140609463Y-87986900D01*
X140609462Y-87986900D01*
X140501653Y-87984640D01*
X140493453Y-87981041D01*
X140490198Y-87972943D01*
X140490198Y-87844392D01*
X140493625Y-87836119D01*
X140500065Y-87832837D01*
X140620285Y-87813797D01*
X140700266Y-87760766D01*
X140761763Y-87688586D01*
X140761972Y-87688354D01*
X140835696Y-87611223D01*
X140838167Y-87609257D01*
X140945215Y-87545619D01*
X140954076Y-87544338D01*
X140961249Y-87549698D01*
G37*
%TD.AperFunction*%
%TD*%
%TA.AperFunction,Conductor*%
%TO.N,Net-(J1-Pin_5)*%
G36*
X139293289Y-85897564D02*
G01*
X139380315Y-85979755D01*
X139452222Y-86039040D01*
X139516335Y-86088087D01*
X139588096Y-86147250D01*
X139588379Y-86147501D01*
X139674808Y-86229129D01*
X139678469Y-86237301D01*
X139675280Y-86245669D01*
X139675075Y-86245881D01*
X139475549Y-86446741D01*
X139467287Y-86450195D01*
X139467220Y-86450195D01*
X139184768Y-86449531D01*
X139176503Y-86446085D01*
X139173096Y-86437803D01*
X139173203Y-86436253D01*
X139187425Y-86331778D01*
X139187982Y-86329476D01*
X139220261Y-86238000D01*
X139245599Y-86159482D01*
X139239774Y-86082829D01*
X139184578Y-86003864D01*
X139182648Y-85995121D01*
X139185894Y-85988891D01*
X139276987Y-85897798D01*
X139285259Y-85894372D01*
X139293289Y-85897564D01*
G37*
%TD.AperFunction*%
%TD*%
%TA.AperFunction,Conductor*%
%TO.N,Net-(J2-Pin_6)*%
G36*
X128101732Y-77784687D02*
G01*
X128103057Y-77785234D01*
X128871215Y-78102438D01*
X128877552Y-78108761D01*
X128877562Y-78108785D01*
X129195312Y-78878267D01*
X129195303Y-78887222D01*
X129188964Y-78893547D01*
X129187790Y-78893960D01*
X128826108Y-79000003D01*
X128823831Y-79000432D01*
X128530084Y-79026019D01*
X128275392Y-79043669D01*
X128020741Y-79129596D01*
X127734109Y-79353735D01*
X127725481Y-79356131D01*
X127718629Y-79352791D01*
X127627208Y-79261370D01*
X127623781Y-79253097D01*
X127626262Y-79245892D01*
X127850402Y-78959258D01*
X127936329Y-78704605D01*
X127953980Y-78449914D01*
X127979565Y-78156164D01*
X127979994Y-78153890D01*
X127995080Y-78102437D01*
X128086040Y-77792207D01*
X128091655Y-77785234D01*
X128100558Y-77784274D01*
X128101732Y-77784687D01*
G37*
%TD.AperFunction*%
%TD*%
%TA.AperFunction,Conductor*%
%TO.N,Net-(J3-Pin_13)*%
G36*
X112361191Y-86715887D02*
G01*
X112431977Y-86745464D01*
X112438289Y-86751816D01*
X112438262Y-86760771D01*
X112437916Y-86761521D01*
X112384087Y-86868437D01*
X112383712Y-86869077D01*
X112328953Y-86950296D01*
X112283595Y-87021104D01*
X112283595Y-87021105D01*
X112252770Y-87107423D01*
X112252769Y-87107429D01*
X112242347Y-87224835D01*
X112238202Y-87232772D01*
X112230693Y-87235500D01*
X112102107Y-87235500D01*
X112093834Y-87232073D01*
X112090453Y-87224835D01*
X112080030Y-87107428D01*
X112049203Y-87021104D01*
X112003845Y-86950296D01*
X111949086Y-86869077D01*
X111948716Y-86868447D01*
X111894881Y-86761518D01*
X111894222Y-86752591D01*
X111900071Y-86745810D01*
X111900808Y-86745469D01*
X112161890Y-86636383D01*
X112170844Y-86636357D01*
X112361191Y-86715887D01*
G37*
%TD.AperFunction*%
%TD*%
%TA.AperFunction,Conductor*%
%TO.N,Net-(J1-Pin_9)*%
G36*
X139692579Y-82781875D02*
G01*
X139782963Y-82857520D01*
X139782965Y-82857521D01*
X139782966Y-82857521D01*
X139782968Y-82857523D01*
X139865806Y-82896765D01*
X139947947Y-82914761D01*
X140044100Y-82933471D01*
X140044809Y-82933657D01*
X140158481Y-82971198D01*
X140165262Y-82977047D01*
X140165922Y-82985977D01*
X140165635Y-82986752D01*
X140058163Y-83248484D01*
X140051851Y-83254836D01*
X140051784Y-83254863D01*
X139790052Y-83362335D01*
X139781097Y-83362308D01*
X139774785Y-83355956D01*
X139774498Y-83355181D01*
X139736958Y-83241513D01*
X139736770Y-83240795D01*
X139718061Y-83144647D01*
X139700065Y-83062506D01*
X139660823Y-82979668D01*
X139660821Y-82979666D01*
X139660821Y-82979665D01*
X139660820Y-82979663D01*
X139585175Y-82889279D01*
X139582493Y-82880735D01*
X139585873Y-82873498D01*
X139676798Y-82782573D01*
X139685070Y-82779147D01*
X139692579Y-82781875D01*
G37*
%TD.AperFunction*%
%TD*%
%TA.AperFunction,Conductor*%
%TO.N,Net-(J1-Pin_8)*%
G36*
X139313575Y-82956358D02*
G01*
X139318057Y-82964111D01*
X139318158Y-82965618D01*
X139318822Y-83248121D01*
X139315415Y-83256402D01*
X139315368Y-83256449D01*
X139114532Y-83455951D01*
X139106247Y-83459350D01*
X139097985Y-83455896D01*
X139097758Y-83455660D01*
X139015953Y-83368557D01*
X139015669Y-83368231D01*
X138956882Y-83295546D01*
X138908374Y-83230412D01*
X138849446Y-83157552D01*
X138767024Y-83069793D01*
X138763858Y-83061416D01*
X138767278Y-83053511D01*
X138858368Y-82962421D01*
X138866640Y-82958995D01*
X138873375Y-82961128D01*
X138883657Y-82968369D01*
X138952157Y-83016607D01*
X138952159Y-83016608D01*
X139028668Y-83023508D01*
X139107041Y-82999519D01*
X139198381Y-82968366D01*
X139200604Y-82967846D01*
X139304925Y-82954046D01*
X139313575Y-82956358D01*
G37*
%TD.AperFunction*%
%TD*%
%TA.AperFunction,Conductor*%
%TO.N,Net-(J1-Pin_9)*%
G36*
X128156370Y-85747208D02*
G01*
X128247791Y-85838629D01*
X128251218Y-85846902D01*
X128248735Y-85854109D01*
X128024596Y-86140741D01*
X127938669Y-86395392D01*
X127921019Y-86650084D01*
X127895432Y-86943831D01*
X127895003Y-86946108D01*
X127788960Y-87307790D01*
X127783344Y-87314765D01*
X127774441Y-87315725D01*
X127773267Y-87315312D01*
X127003785Y-86997562D01*
X126997447Y-86991238D01*
X126679687Y-86221732D01*
X126679696Y-86212777D01*
X126686035Y-86206452D01*
X126687193Y-86206044D01*
X127048893Y-86099993D01*
X127051164Y-86099565D01*
X127344914Y-86073980D01*
X127599605Y-86056329D01*
X127854258Y-85970402D01*
X128140892Y-85746263D01*
X128149518Y-85743868D01*
X128156370Y-85747208D01*
G37*
%TD.AperFunction*%
%TD*%
%TA.AperFunction,Conductor*%
%TO.N,Net-(J3-Pin_14)*%
G36*
X109741370Y-92097208D02*
G01*
X109832791Y-92188629D01*
X109836218Y-92196902D01*
X109833735Y-92204109D01*
X109609596Y-92490741D01*
X109523669Y-92745392D01*
X109506019Y-93000084D01*
X109480432Y-93293831D01*
X109480003Y-93296108D01*
X109373960Y-93657790D01*
X109368344Y-93664765D01*
X109359441Y-93665725D01*
X109358267Y-93665312D01*
X108588785Y-93347562D01*
X108582447Y-93341238D01*
X108264687Y-92571732D01*
X108264696Y-92562777D01*
X108271035Y-92556452D01*
X108272193Y-92556044D01*
X108633893Y-92449993D01*
X108636164Y-92449565D01*
X108929914Y-92423980D01*
X109184605Y-92406329D01*
X109439258Y-92320402D01*
X109725892Y-92096263D01*
X109734518Y-92093868D01*
X109741370Y-92097208D01*
G37*
%TD.AperFunction*%
%TD*%
%TA.AperFunction,Conductor*%
%TO.N,Net-(J1-Pin_1)*%
G36*
X138014817Y-86502000D02*
G01*
X138015397Y-86503111D01*
X138095606Y-86679261D01*
X138174665Y-86852885D01*
X138339330Y-87168014D01*
X138339332Y-87168017D01*
X138339331Y-87168017D01*
X138503987Y-87436632D01*
X138503990Y-87436636D01*
X138503994Y-87436642D01*
X138601828Y-87568618D01*
X138668660Y-87658773D01*
X138830160Y-87831024D01*
X138833325Y-87839026D01*
X138833325Y-87968377D01*
X138829898Y-87976650D01*
X138821625Y-87980077D01*
X138818064Y-87979522D01*
X138455060Y-87863518D01*
X138076812Y-87789141D01*
X138076802Y-87789139D01*
X138076793Y-87789138D01*
X138076791Y-87789138D01*
X137698542Y-87761259D01*
X137320273Y-87779880D01*
X137320266Y-87779881D01*
X136959803Y-87841938D01*
X136951068Y-87839965D01*
X136946288Y-87832393D01*
X136946481Y-87827517D01*
X137157800Y-86999700D01*
X137163164Y-86992535D01*
X137998791Y-86497891D01*
X138007654Y-86496626D01*
X138014817Y-86502000D01*
G37*
%TD.AperFunction*%
%TD*%
M02*
