%TF.GenerationSoftware,KiCad,Pcbnew,7.0.8*%
%TF.CreationDate,2023-10-11T21:33:04+02:00*%
%TF.ProjectId,LvL_shifter_shield,4c764c5f-7368-4696-9674-65725f736869,rev?*%
%TF.SameCoordinates,Original*%
%TF.FileFunction,Copper,L6,Bot*%
%TF.FilePolarity,Positive*%
%FSLAX46Y46*%
G04 Gerber Fmt 4.6, Leading zero omitted, Abs format (unit mm)*
G04 Created by KiCad (PCBNEW 7.0.8) date 2023-10-11 21:33:04*
%MOMM*%
%LPD*%
G01*
G04 APERTURE LIST*
G04 Aperture macros list*
%AMRoundRect*
0 Rectangle with rounded corners*
0 $1 Rounding radius*
0 $2 $3 $4 $5 $6 $7 $8 $9 X,Y pos of 4 corners*
0 Add a 4 corners polygon primitive as box body*
4,1,4,$2,$3,$4,$5,$6,$7,$8,$9,$2,$3,0*
0 Add four circle primitives for the rounded corners*
1,1,$1+$1,$2,$3*
1,1,$1+$1,$4,$5*
1,1,$1+$1,$6,$7*
1,1,$1+$1,$8,$9*
0 Add four rect primitives between the rounded corners*
20,1,$1+$1,$2,$3,$4,$5,0*
20,1,$1+$1,$4,$5,$6,$7,0*
20,1,$1+$1,$6,$7,$8,$9,0*
20,1,$1+$1,$8,$9,$2,$3,0*%
G04 Aperture macros list end*
%TA.AperFunction,ComponentPad*%
%ADD10RoundRect,0.250000X0.750000X-0.600000X0.750000X0.600000X-0.750000X0.600000X-0.750000X-0.600000X0*%
%TD*%
%TA.AperFunction,ComponentPad*%
%ADD11O,2.000000X1.700000*%
%TD*%
%TA.AperFunction,ComponentPad*%
%ADD12R,1.700000X1.700000*%
%TD*%
%TA.AperFunction,ComponentPad*%
%ADD13O,1.700000X1.700000*%
%TD*%
%TA.AperFunction,SMDPad,CuDef*%
%ADD14RoundRect,0.250000X0.400000X0.625000X-0.400000X0.625000X-0.400000X-0.625000X0.400000X-0.625000X0*%
%TD*%
%TA.AperFunction,SMDPad,CuDef*%
%ADD15RoundRect,0.250000X-0.400000X-0.625000X0.400000X-0.625000X0.400000X0.625000X-0.400000X0.625000X0*%
%TD*%
%TA.AperFunction,SMDPad,CuDef*%
%ADD16RoundRect,0.250000X-0.412500X-0.650000X0.412500X-0.650000X0.412500X0.650000X-0.412500X0.650000X0*%
%TD*%
%TA.AperFunction,ViaPad*%
%ADD17C,0.800000*%
%TD*%
%TA.AperFunction,ViaPad*%
%ADD18C,0.600000*%
%TD*%
%TA.AperFunction,Conductor*%
%ADD19C,0.250000*%
%TD*%
G04 APERTURE END LIST*
D10*
%TO.P,J4,1,Pin_1*%
%TO.N,GND*%
X109067600Y-87325200D03*
D11*
%TO.P,J4,2,Pin_2*%
%TO.N,+5V*%
X109067600Y-84825200D03*
%TD*%
D12*
%TO.P,J1,1,Pin_1*%
%TO.N,Net-(J1-Pin_1)*%
X137160000Y-86995000D03*
D13*
%TO.P,J1,2,Pin_2*%
%TO.N,Net-(J1-Pin_2)*%
X137160000Y-84455000D03*
%TO.P,J1,3,Pin_3*%
%TO.N,Net-(J1-Pin_3)*%
X134620000Y-86995000D03*
%TO.P,J1,4,Pin_4*%
%TO.N,GND*%
X134620000Y-84455000D03*
%TO.P,J1,5,Pin_5*%
%TO.N,Net-(J1-Pin_5)*%
X132080000Y-86995000D03*
%TO.P,J1,6,Pin_6*%
%TO.N,Net-(J1-Pin_6)*%
X132080000Y-84455000D03*
%TO.P,J1,7,Pin_7*%
%TO.N,Net-(J1-Pin_7)*%
X129540000Y-86995000D03*
%TO.P,J1,8,Pin_8*%
%TO.N,Net-(J1-Pin_8)*%
X129540000Y-84455000D03*
%TO.P,J1,9,Pin_9*%
%TO.N,Net-(J1-Pin_9)*%
X127000000Y-86995000D03*
%TO.P,J1,10,Pin_10*%
%TO.N,Net-(J1-Pin_10)*%
X127000000Y-84455000D03*
%TO.P,J1,11,Pin_11*%
%TO.N,Net-(J1-Pin_11)*%
X124460000Y-86995000D03*
%TO.P,J1,12,Pin_12*%
%TO.N,Net-(J1-Pin_12)*%
X124460000Y-84455000D03*
%TO.P,J1,13,Pin_13*%
%TO.N,Net-(J1-Pin_13)*%
X121920000Y-86995000D03*
%TO.P,J1,14,Pin_14*%
%TO.N,Net-(J1-Pin_14)*%
X121920000Y-84455000D03*
%TO.P,J1,15,Pin_15*%
%TO.N,Net-(J1-Pin_15)*%
X119380000Y-86995000D03*
%TO.P,J1,16,Pin_16*%
%TO.N,GND*%
X119380000Y-84455000D03*
%TD*%
D14*
%TO.P,R2,1*%
%TO.N,GND*%
X119380000Y-81280000D03*
%TO.P,R2,2*%
%TO.N,Net-(U2-OE)*%
X116280000Y-81280000D03*
%TD*%
D12*
%TO.P,J3,1,Pin_1*%
%TO.N,unconnected-(J3-Pin_1-Pad1)*%
X141605000Y-93345000D03*
D13*
%TO.P,J3,2,Pin_2*%
%TO.N,unconnected-(J3-Pin_2-Pad2)*%
X139065000Y-93345000D03*
%TO.P,J3,3,Pin_3*%
%TO.N,unconnected-(J3-Pin_3-Pad3)*%
X136525000Y-93345000D03*
%TO.P,J3,4,Pin_4*%
%TO.N,GND*%
X133985000Y-93345000D03*
%TO.P,J3,5,Pin_5*%
%TO.N,Net-(J3-Pin_5)*%
X131445000Y-93345000D03*
%TO.P,J3,6,Pin_6*%
%TO.N,Net-(J3-Pin_6)*%
X128905000Y-93345000D03*
%TO.P,J3,7,Pin_7*%
%TO.N,Net-(J3-Pin_7)*%
X126365000Y-93345000D03*
%TO.P,J3,8,Pin_8*%
%TO.N,Net-(J3-Pin_8)*%
X123825000Y-93345000D03*
%TO.P,J3,9,Pin_9*%
%TO.N,Net-(J3-Pin_9)*%
X121285000Y-93345000D03*
%TO.P,J3,10,Pin_10*%
%TO.N,Net-(J3-Pin_10)*%
X118745000Y-93345000D03*
%TO.P,J3,11,Pin_11*%
%TO.N,unconnected-(J3-Pin_11-Pad11)*%
X116205000Y-93345000D03*
%TO.P,J3,12,Pin_12*%
%TO.N,Net-(J3-Pin_12)*%
X113665000Y-93345000D03*
%TO.P,J3,13,Pin_13*%
%TO.N,Net-(J3-Pin_13)*%
X111125000Y-93345000D03*
%TO.P,J3,14,Pin_14*%
%TO.N,Net-(J3-Pin_14)*%
X108585000Y-93345000D03*
%TO.P,J3,15,Pin_15*%
%TO.N,unconnected-(J3-Pin_15-Pad15)*%
X106045000Y-93345000D03*
%TD*%
D15*
%TO.P,R1,1*%
%TO.N,GND*%
X139420000Y-81280000D03*
%TO.P,R1,2*%
%TO.N,Net-(U1-OE)*%
X142520000Y-81280000D03*
%TD*%
D16*
%TO.P,C1,1*%
%TO.N,+5V*%
X110197500Y-90170000D03*
%TO.P,C1,2*%
%TO.N,GND*%
X113322500Y-90170000D03*
%TD*%
%TO.P,C2,1*%
%TO.N,GND*%
X110197500Y-81280000D03*
%TO.P,C2,2*%
%TO.N,+3.3V*%
X113322500Y-81280000D03*
%TD*%
D12*
%TO.P,J2,1,Pin_1*%
%TO.N,unconnected-(J2-Pin_1-Pad1)*%
X141575000Y-78105000D03*
D13*
%TO.P,J2,2,Pin_2*%
%TO.N,+3.3V*%
X139035000Y-78105000D03*
%TO.P,J2,3,Pin_3*%
%TO.N,unconnected-(J2-Pin_3-Pad3)*%
X136495000Y-78105000D03*
%TO.P,J2,4,Pin_4*%
%TO.N,Net-(J2-Pin_4)*%
X133955000Y-78105000D03*
%TO.P,J2,5,Pin_5*%
%TO.N,Net-(J2-Pin_5)*%
X131415000Y-78105000D03*
%TO.P,J2,6,Pin_6*%
%TO.N,Net-(J2-Pin_6)*%
X128875000Y-78105000D03*
%TO.P,J2,7,Pin_7*%
%TO.N,Net-(J2-Pin_7)*%
X126335000Y-78105000D03*
%TO.P,J2,8,Pin_8*%
%TO.N,Net-(J2-Pin_8)*%
X123795000Y-78105000D03*
%TO.P,J2,9,Pin_9*%
%TO.N,unconnected-(J2-Pin_9-Pad9)*%
X121255000Y-78105000D03*
%TO.P,J2,10,Pin_10*%
%TO.N,unconnected-(J2-Pin_10-Pad10)*%
X118715000Y-78105000D03*
%TO.P,J2,11,Pin_11*%
%TO.N,unconnected-(J2-Pin_11-Pad11)*%
X116175000Y-78105000D03*
%TO.P,J2,12,Pin_12*%
%TO.N,unconnected-(J2-Pin_12-Pad12)*%
X113635000Y-78105000D03*
%TO.P,J2,13,Pin_13*%
%TO.N,unconnected-(J2-Pin_13-Pad13)*%
X111095000Y-78105000D03*
%TO.P,J2,14,Pin_14*%
%TO.N,GND*%
X108555000Y-78105000D03*
%TO.P,J2,15,Pin_15*%
%TO.N,unconnected-(J2-Pin_15-Pad15)*%
X106015000Y-78105000D03*
%TD*%
D17*
%TO.N,+5V*%
X108966000Y-90220800D03*
X117217418Y-85805109D03*
X137845800Y-91846400D03*
%TO.N,GND*%
X137936900Y-81280000D03*
X113411000Y-88519000D03*
X107315000Y-80645000D03*
X120548400Y-81280000D03*
%TO.N,+3.3V*%
X144094200Y-85852000D03*
X111973957Y-84349500D03*
D18*
%TO.N,Net-(J1-Pin_1)*%
X141071600Y-87815900D03*
%TO.N,Net-(J1-Pin_2)*%
X139471400Y-87249000D03*
%TO.N,Net-(J1-Pin_3)*%
X141224000Y-86791800D03*
%TO.N,Net-(J1-Pin_5)*%
X139471400Y-86449500D03*
%TO.N,Net-(J1-Pin_6)*%
X139106900Y-85000500D03*
%TO.N,Net-(J1-Pin_7)*%
X139213273Y-84223994D03*
%TO.N,Net-(J1-Pin_8)*%
X139318127Y-83252300D03*
%TO.N,Net-(J1-Pin_9)*%
X140055600Y-83252300D03*
%TO.N,Net-(J1-Pin_10)*%
X116255800Y-83328500D03*
%TO.N,Net-(J1-Pin_11)*%
X118161541Y-84911459D03*
%TO.N,Net-(J1-Pin_12)*%
X123799600Y-85725000D03*
%TO.N,Net-(J1-Pin_13)*%
X118059200Y-89255600D03*
%TO.N,Net-(J1-Pin_14)*%
X117398800Y-86690200D03*
%TO.N,Net-(J1-Pin_15)*%
X117449600Y-88011000D03*
%TO.N,Net-(J2-Pin_4)*%
X141198600Y-81178400D03*
%TO.N,Net-(J2-Pin_5)*%
X114808000Y-83210400D03*
%TO.N,Net-(J2-Pin_6)*%
X113471413Y-84285500D03*
%TO.N,Net-(J2-Pin_7)*%
X112773200Y-84369864D03*
%TO.N,Net-(J2-Pin_8)*%
X141198600Y-82016600D03*
%TO.N,Net-(J3-Pin_5)*%
X142087600Y-90322400D03*
%TO.N,Net-(J3-Pin_6)*%
X143078200Y-89941400D03*
%TO.N,Net-(J3-Pin_7)*%
X143941800Y-89433400D03*
%TO.N,Net-(J3-Pin_8)*%
X144475200Y-88341200D03*
%TO.N,Net-(J3-Pin_9)*%
X143214100Y-84939103D03*
%TO.N,Net-(J3-Pin_10)*%
X143205200Y-84175600D03*
%TO.N,Net-(J3-Pin_12)*%
X115341400Y-85166200D03*
%TO.N,Net-(J3-Pin_13)*%
X112166400Y-86635500D03*
%TO.N,Net-(J3-Pin_14)*%
X115366800Y-87994500D03*
D17*
%TO.N,Net-(U1-OE)*%
X144373600Y-84963000D03*
%TO.N,Net-(U2-OE)*%
X112582201Y-85952628D03*
%TD*%
D19*
%TO.N,+5V*%
X137820400Y-91821000D02*
X111848500Y-91821000D01*
X111848500Y-91821000D02*
X110197500Y-90170000D01*
X117217418Y-85805109D02*
X115849727Y-87172800D01*
X115849727Y-87172800D02*
X112572800Y-87172800D01*
X110197500Y-89548100D02*
X110197500Y-90170000D01*
X137845800Y-91846400D02*
X137820400Y-91821000D01*
X110146700Y-90220800D02*
X110197500Y-90170000D01*
X112572800Y-87172800D02*
X110197500Y-89548100D01*
X108966000Y-90220800D02*
X110146700Y-90220800D01*
%TO.N,GND*%
X139420000Y-81280000D02*
X137936900Y-81280000D01*
X113411000Y-90081500D02*
X113322500Y-90170000D01*
X109220000Y-81280000D02*
X110197500Y-81280000D01*
X108585000Y-80645000D02*
X109220000Y-81280000D01*
X113411000Y-88519000D02*
X113411000Y-90081500D01*
X120548400Y-81280000D02*
X119380000Y-81280000D01*
X107315000Y-80645000D02*
X108585000Y-80645000D01*
%TO.N,+3.3V*%
X115163600Y-82651600D02*
X134493000Y-82651600D01*
X111973957Y-84349500D02*
X113322500Y-83000957D01*
X113322500Y-81280000D02*
X113792000Y-81280000D01*
X143738600Y-83540600D02*
X143738600Y-85496400D01*
X113792000Y-81280000D02*
X115163600Y-82651600D01*
X113322500Y-83000957D02*
X113322500Y-81280000D01*
X137083800Y-80056200D02*
X137083800Y-80060800D01*
X139035000Y-78105000D02*
X137083800Y-80056200D01*
X143738600Y-85496400D02*
X144094200Y-85852000D01*
X142849600Y-82651600D02*
X143738600Y-83540600D01*
X134493000Y-82651600D02*
X142849600Y-82651600D01*
X137083800Y-80060800D02*
X134493000Y-82651600D01*
%TO.N,Net-(U1-OE)*%
X143078200Y-81280000D02*
X142520000Y-81280000D01*
X144373600Y-84963000D02*
X144373600Y-82575400D01*
X144373600Y-82575400D02*
X143078200Y-81280000D01*
%TO.N,Net-(U2-OE)*%
X112582201Y-85952628D02*
X111252000Y-84622427D01*
X111252000Y-84622427D02*
X111252000Y-80924400D01*
X114832200Y-79832200D02*
X116280000Y-81280000D01*
X112344200Y-79832200D02*
X114832200Y-79832200D01*
X111252000Y-80924400D02*
X112344200Y-79832200D01*
%TD*%
%TA.AperFunction,Conductor*%
%TO.N,+3.3V*%
G36*
X112458928Y-83703100D02*
G01*
X112620356Y-83864528D01*
X112623783Y-83872801D01*
X112620953Y-83880431D01*
X112517247Y-84000987D01*
X112460357Y-84107715D01*
X112457773Y-84116805D01*
X112454793Y-84121877D01*
X112445150Y-84131521D01*
X112387553Y-84244561D01*
X112367708Y-84369863D01*
X112367708Y-84369864D01*
X112374056Y-84409949D01*
X112373559Y-84415600D01*
X112347557Y-84490856D01*
X112341616Y-84497556D01*
X112332677Y-84498094D01*
X112332046Y-84497855D01*
X111977761Y-84352063D01*
X111971414Y-84345745D01*
X111971393Y-84345695D01*
X111877202Y-84116805D01*
X111825600Y-83991408D01*
X111825621Y-83982455D01*
X111831968Y-83976137D01*
X111832568Y-83975910D01*
X111985402Y-83923099D01*
X111985899Y-83922954D01*
X112110367Y-83893049D01*
X112215741Y-83863098D01*
X112322469Y-83806207D01*
X112443028Y-83702502D01*
X112451532Y-83699706D01*
X112458928Y-83703100D01*
G37*
%TD.AperFunction*%
%TD*%
%TA.AperFunction,Conductor*%
%TO.N,GND*%
G36*
X120399818Y-80921273D02*
G01*
X120400096Y-80921888D01*
X120547523Y-81275498D01*
X120547544Y-81284452D01*
X120547523Y-81284502D01*
X120400096Y-81638111D01*
X120393749Y-81644429D01*
X120384795Y-81644408D01*
X120384189Y-81644134D01*
X120238820Y-81573427D01*
X120238324Y-81573156D01*
X120129184Y-81506301D01*
X120033493Y-81452969D01*
X120033488Y-81452967D01*
X119917802Y-81417729D01*
X119917796Y-81417728D01*
X119759223Y-81405813D01*
X119751230Y-81401776D01*
X119748400Y-81394146D01*
X119748400Y-81165853D01*
X119751827Y-81157580D01*
X119759221Y-81154186D01*
X119917798Y-81142270D01*
X119917800Y-81142269D01*
X119917802Y-81142269D01*
X120033488Y-81107031D01*
X120033489Y-81107030D01*
X120033494Y-81107029D01*
X120129184Y-81053697D01*
X120238333Y-80986836D01*
X120238816Y-80986572D01*
X120384181Y-80915868D01*
X120393118Y-80915332D01*
X120399818Y-80921273D01*
G37*
%TD.AperFunction*%
%TD*%
%TA.AperFunction,Conductor*%
%TO.N,+5V*%
G36*
X110323333Y-88610927D02*
G01*
X110325656Y-88614238D01*
X110426196Y-88828920D01*
X110529889Y-89021308D01*
X110529889Y-89021307D01*
X110633576Y-89184661D01*
X110633582Y-89184670D01*
X110737273Y-89319009D01*
X110833406Y-89416647D01*
X110836769Y-89424947D01*
X110833932Y-89432494D01*
X110206363Y-90160715D01*
X110198366Y-90164745D01*
X110189862Y-90161940D01*
X110188637Y-90160715D01*
X109561066Y-89432494D01*
X109558261Y-89423990D01*
X109561590Y-89416649D01*
X109657723Y-89319012D01*
X109761417Y-89184670D01*
X109865110Y-89021307D01*
X109865110Y-89021308D01*
X109899676Y-88957174D01*
X109968806Y-88828914D01*
X110069344Y-88614237D01*
X110075957Y-88608199D01*
X110079940Y-88607500D01*
X110315060Y-88607500D01*
X110323333Y-88610927D01*
G37*
%TD.AperFunction*%
%TD*%
%TA.AperFunction,Conductor*%
%TO.N,+5V*%
G36*
X137697223Y-91487662D02*
G01*
X137697433Y-91488137D01*
X137844923Y-91841898D01*
X137844944Y-91850852D01*
X137844923Y-91850902D01*
X137697569Y-92204336D01*
X137691222Y-92210654D01*
X137682268Y-92210633D01*
X137681494Y-92210277D01*
X137536215Y-92136884D01*
X137535560Y-92136498D01*
X137428099Y-92063370D01*
X137334560Y-92002650D01*
X137220422Y-91961284D01*
X137206320Y-91960012D01*
X137061502Y-91946959D01*
X137053570Y-91942803D01*
X137050852Y-91935306D01*
X137050852Y-91706998D01*
X137054279Y-91698725D01*
X137061828Y-91695320D01*
X137217753Y-91685666D01*
X137333060Y-91656234D01*
X137333065Y-91656231D01*
X137333067Y-91656231D01*
X137429094Y-91610058D01*
X137429093Y-91610058D01*
X137429103Y-91610053D01*
X137538069Y-91549554D01*
X137538359Y-91549406D01*
X137681660Y-91482049D01*
X137690602Y-91481632D01*
X137697223Y-91487662D01*
G37*
%TD.AperFunction*%
%TD*%
%TA.AperFunction,Conductor*%
%TO.N,+5V*%
G36*
X109543466Y-89542569D02*
G01*
X109544786Y-89543661D01*
X110190087Y-90161940D01*
X110193690Y-90170138D01*
X110190476Y-90178446D01*
X109552366Y-90850191D01*
X109544183Y-90853829D01*
X109535825Y-90850616D01*
X109534631Y-90849295D01*
X109427577Y-90710850D01*
X109312183Y-90584807D01*
X109312179Y-90584803D01*
X109312175Y-90584799D01*
X109196797Y-90481958D01*
X109196791Y-90481953D01*
X109196788Y-90481951D01*
X109081397Y-90402283D01*
X109081396Y-90402282D01*
X108972556Y-90349008D01*
X108966632Y-90342293D01*
X108966000Y-90338499D01*
X108966000Y-90102625D01*
X108969427Y-90094352D01*
X108971939Y-90092442D01*
X109079800Y-90031461D01*
X109193600Y-89943140D01*
X109307399Y-89830837D01*
X109378578Y-89745593D01*
X109421200Y-89694551D01*
X109421199Y-89694551D01*
X109527153Y-89545333D01*
X109534736Y-89540574D01*
X109543466Y-89542569D01*
G37*
%TD.AperFunction*%
%TD*%
%TA.AperFunction,Conductor*%
%TO.N,GND*%
G36*
X120031713Y-80639869D02*
G01*
X120033049Y-80641456D01*
X120129696Y-80779472D01*
X120129697Y-80779472D01*
X120129701Y-80779478D01*
X120184935Y-80846619D01*
X120234362Y-80906702D01*
X120234388Y-80906731D01*
X120339048Y-81011716D01*
X120339050Y-81011718D01*
X120391387Y-81053098D01*
X120443723Y-81094477D01*
X120542556Y-81151621D01*
X120548003Y-81158729D01*
X120548400Y-81161750D01*
X120548400Y-81398249D01*
X120544973Y-81406522D01*
X120542556Y-81408378D01*
X120443723Y-81465521D01*
X120339052Y-81548279D01*
X120339048Y-81548282D01*
X120234388Y-81653267D01*
X120234362Y-81653296D01*
X120167431Y-81734657D01*
X120129701Y-81780521D01*
X120129697Y-81780527D01*
X120129696Y-81780527D01*
X120033049Y-81918543D01*
X120025496Y-81923354D01*
X120016754Y-81921416D01*
X120015170Y-81920083D01*
X119387196Y-81288246D01*
X119383795Y-81279964D01*
X119387196Y-81271753D01*
X120015169Y-80639917D01*
X120023429Y-80636467D01*
X120031713Y-80639869D01*
G37*
%TD.AperFunction*%
%TD*%
%TA.AperFunction,Conductor*%
%TO.N,Net-(U1-OE)*%
G36*
X143174915Y-80887653D02*
G01*
X143175565Y-80888856D01*
X143279597Y-81111642D01*
X143279597Y-81111643D01*
X143279601Y-81111650D01*
X143389202Y-81315615D01*
X143472979Y-81448019D01*
X143498807Y-81488839D01*
X143498808Y-81488841D01*
X143608406Y-81631307D01*
X143608410Y-81631312D01*
X143661854Y-81685791D01*
X143709892Y-81734759D01*
X143713239Y-81743063D01*
X143709813Y-81751224D01*
X143544244Y-81916793D01*
X143536984Y-81920176D01*
X143436123Y-81928942D01*
X143436119Y-81928942D01*
X143436118Y-81928943D01*
X143421039Y-81932699D01*
X143331016Y-81955123D01*
X143330998Y-81955129D01*
X143225899Y-81998357D01*
X143225897Y-81998358D01*
X143120782Y-82058640D01*
X143120778Y-82058643D01*
X143026183Y-82128235D01*
X143017489Y-82130378D01*
X143009826Y-82125744D01*
X143009132Y-82124684D01*
X142540339Y-81315615D01*
X142524993Y-81289130D01*
X142523810Y-81280253D01*
X142528962Y-81273314D01*
X143158812Y-80883854D01*
X143167650Y-80882418D01*
X143174915Y-80887653D01*
G37*
%TD.AperFunction*%
%TD*%
%TA.AperFunction,Conductor*%
%TO.N,+3.3V*%
G36*
X113989648Y-80910594D02*
G01*
X113990216Y-80911725D01*
X114096369Y-81154933D01*
X114096374Y-81154943D01*
X114207737Y-81377840D01*
X114319106Y-81568499D01*
X114430479Y-81726914D01*
X114474893Y-81777226D01*
X114534570Y-81844827D01*
X114537476Y-81853296D01*
X114534072Y-81860842D01*
X114368807Y-82026107D01*
X114360534Y-82029534D01*
X114359792Y-82029510D01*
X114258193Y-82023054D01*
X114258187Y-82023054D01*
X114158945Y-82032078D01*
X114151309Y-82032773D01*
X114116558Y-82041299D01*
X114044432Y-82058997D01*
X113937547Y-82101731D01*
X113937537Y-82101736D01*
X113840728Y-82155395D01*
X113831831Y-82156409D01*
X113824923Y-82151011D01*
X113752832Y-82026107D01*
X113327662Y-81289463D01*
X113326495Y-81280585D01*
X113331946Y-81273482D01*
X113973683Y-80906249D01*
X113982565Y-80905115D01*
X113989648Y-80910594D01*
G37*
%TD.AperFunction*%
%TD*%
%TA.AperFunction,Conductor*%
%TO.N,GND*%
G36*
X113536301Y-88610927D02*
G01*
X113538915Y-88614917D01*
X113621993Y-88826250D01*
X113707987Y-89017308D01*
X113793982Y-89180674D01*
X113825407Y-89230254D01*
X113879970Y-89316340D01*
X113959930Y-89416745D01*
X113962404Y-89425352D01*
X113959641Y-89431672D01*
X113332241Y-90159696D01*
X113324244Y-90163726D01*
X113315740Y-90160921D01*
X113313846Y-90158843D01*
X112739517Y-89352064D01*
X112737511Y-89343337D01*
X112741567Y-89336284D01*
X112843778Y-89251292D01*
X112954333Y-89131755D01*
X113064889Y-88984610D01*
X113064892Y-88984606D01*
X113175443Y-88809861D01*
X113282673Y-88613590D01*
X113289647Y-88607973D01*
X113292941Y-88607500D01*
X113528028Y-88607500D01*
X113536301Y-88610927D01*
G37*
%TD.AperFunction*%
%TD*%
%TA.AperFunction,Conductor*%
%TO.N,+5V*%
G36*
X109129604Y-89856391D02*
G01*
X109130197Y-89856658D01*
X109270360Y-89924832D01*
X109275581Y-89927372D01*
X109276078Y-89927644D01*
X109385215Y-89994497D01*
X109480905Y-90047829D01*
X109480910Y-90047831D01*
X109596596Y-90083069D01*
X109596599Y-90083069D01*
X109596601Y-90083070D01*
X109755178Y-90094986D01*
X109763170Y-90099023D01*
X109766000Y-90106653D01*
X109766000Y-90334946D01*
X109762573Y-90343219D01*
X109755177Y-90346613D01*
X109596602Y-90358528D01*
X109596596Y-90358529D01*
X109480910Y-90393767D01*
X109480905Y-90393769D01*
X109385215Y-90447101D01*
X109276078Y-90513953D01*
X109275581Y-90514225D01*
X109130220Y-90584930D01*
X109121281Y-90585467D01*
X109114581Y-90579527D01*
X109114303Y-90578911D01*
X109037114Y-90393770D01*
X108966875Y-90225299D01*
X108966855Y-90216350D01*
X109114303Y-89862687D01*
X109120650Y-89856370D01*
X109129604Y-89856391D01*
G37*
%TD.AperFunction*%
%TD*%
%TA.AperFunction,Conductor*%
%TO.N,+3.3V*%
G36*
X143862563Y-85202720D02*
G01*
X143865691Y-85208365D01*
X143895520Y-85337776D01*
X143979899Y-85401734D01*
X143979900Y-85401734D01*
X143979901Y-85401735D01*
X143979900Y-85401735D01*
X144099661Y-85433437D01*
X144236039Y-85474642D01*
X144239199Y-85476143D01*
X144365300Y-85561233D01*
X144370241Y-85568702D01*
X144368455Y-85577476D01*
X144367044Y-85579191D01*
X144097641Y-85849546D01*
X144089374Y-85852987D01*
X144089324Y-85852987D01*
X143705284Y-85852027D01*
X143697019Y-85848579D01*
X143693629Y-85840929D01*
X143685817Y-85689417D01*
X143685817Y-85689414D01*
X143665828Y-85574895D01*
X143642013Y-85476574D01*
X143641940Y-85476218D01*
X143622042Y-85362221D01*
X143621963Y-85361516D01*
X143614234Y-85211595D01*
X143617230Y-85203157D01*
X143625316Y-85199309D01*
X143625918Y-85199293D01*
X143854290Y-85199293D01*
X143862563Y-85202720D01*
G37*
%TD.AperFunction*%
%TD*%
%TA.AperFunction,Conductor*%
%TO.N,Net-(U2-OE)*%
G36*
X115270740Y-80090813D02*
G01*
X115370674Y-80150497D01*
X115475176Y-80212910D01*
X115475185Y-80212914D01*
X115687442Y-80308183D01*
X115687453Y-80308187D01*
X115899703Y-80371954D01*
X115899710Y-80371956D01*
X116111974Y-80404228D01*
X116311988Y-80404955D01*
X116320247Y-80408412D01*
X116323644Y-80416698D01*
X116323630Y-80417236D01*
X116281075Y-81273301D01*
X116277241Y-81281394D01*
X116273852Y-81283535D01*
X115641529Y-81544479D01*
X115632574Y-81544467D01*
X115626251Y-81538127D01*
X115626003Y-81537470D01*
X115521228Y-81228973D01*
X115412456Y-80940209D01*
X115303685Y-80682946D01*
X115194906Y-80457169D01*
X115090467Y-80270643D01*
X115089416Y-80261750D01*
X115092401Y-80256656D01*
X115256472Y-80092585D01*
X115264744Y-80089159D01*
X115270740Y-80090813D01*
G37*
%TD.AperFunction*%
%TD*%
%TA.AperFunction,Conductor*%
%TO.N,+5V*%
G36*
X116859317Y-85656748D02*
G01*
X117213613Y-85802545D01*
X117219960Y-85808863D01*
X117219981Y-85808913D01*
X117365774Y-86163199D01*
X117365753Y-86172153D01*
X117359406Y-86178471D01*
X117358775Y-86178709D01*
X117205994Y-86231499D01*
X117205450Y-86231658D01*
X117081006Y-86261558D01*
X116975633Y-86291509D01*
X116868905Y-86348399D01*
X116748349Y-86452105D01*
X116739842Y-86454902D01*
X116732446Y-86451508D01*
X116571018Y-86290080D01*
X116567591Y-86281807D01*
X116570419Y-86274180D01*
X116674125Y-86153621D01*
X116731016Y-86046893D01*
X116760967Y-85941519D01*
X116790872Y-85817051D01*
X116791017Y-85816554D01*
X116843818Y-85663749D01*
X116849757Y-85657051D01*
X116858696Y-85656514D01*
X116859317Y-85656748D01*
G37*
%TD.AperFunction*%
%TD*%
%TA.AperFunction,Conductor*%
%TO.N,+3.3V*%
G36*
X138261577Y-77784622D02*
G01*
X139031215Y-78102438D01*
X139037552Y-78108761D01*
X139037562Y-78108785D01*
X139355372Y-78878410D01*
X139355363Y-78887365D01*
X139349024Y-78893690D01*
X139347984Y-78894063D01*
X138992835Y-79002829D01*
X138990855Y-79003252D01*
X138704709Y-79038891D01*
X138457870Y-79068756D01*
X138457861Y-79068758D01*
X138210379Y-79163893D01*
X137929485Y-79388918D01*
X137920886Y-79391416D01*
X137913897Y-79388060D01*
X137751939Y-79226102D01*
X137748512Y-79217829D01*
X137751080Y-79210516D01*
X137976104Y-78929619D01*
X138071241Y-78682135D01*
X138101107Y-78435289D01*
X138136745Y-78149139D01*
X138137168Y-78147163D01*
X138150298Y-78104293D01*
X138245936Y-77792014D01*
X138251635Y-77785108D01*
X138260549Y-77784254D01*
X138261577Y-77784622D01*
G37*
%TD.AperFunction*%
%TD*%
%TA.AperFunction,Conductor*%
%TO.N,GND*%
G36*
X109595940Y-80492147D02*
G01*
X109598041Y-80494271D01*
X110191343Y-81271713D01*
X110193638Y-81280368D01*
X110189448Y-81287868D01*
X109545047Y-81814755D01*
X109536473Y-81817339D01*
X109528583Y-81813103D01*
X109527871Y-81812134D01*
X109471460Y-81726379D01*
X109405182Y-81625624D01*
X109405181Y-81625624D01*
X109405178Y-81625619D01*
X109347934Y-81551229D01*
X109275365Y-81456922D01*
X109275357Y-81456913D01*
X109145535Y-81316852D01*
X109015714Y-81205438D01*
X109015712Y-81205436D01*
X109015710Y-81205435D01*
X108898180Y-81130502D01*
X108893046Y-81123165D01*
X108894605Y-81114347D01*
X108896192Y-81112369D01*
X109061265Y-80947296D01*
X109064459Y-80945031D01*
X109167904Y-80895238D01*
X109273139Y-80823543D01*
X109378375Y-80730809D01*
X109483610Y-80617035D01*
X109579518Y-80494170D01*
X109587310Y-80489758D01*
X109595940Y-80492147D01*
G37*
%TD.AperFunction*%
%TD*%
%TA.AperFunction,Conductor*%
%TO.N,Net-(U2-OE)*%
G36*
X112113130Y-85305630D02*
G01*
X112233687Y-85409335D01*
X112340415Y-85466226D01*
X112445789Y-85496177D01*
X112570250Y-85526081D01*
X112570759Y-85526229D01*
X112723559Y-85579028D01*
X112730258Y-85584967D01*
X112730795Y-85593906D01*
X112730557Y-85594537D01*
X112584764Y-85948823D01*
X112578446Y-85955170D01*
X112578396Y-85955191D01*
X112224110Y-86100984D01*
X112215156Y-86100963D01*
X112208838Y-86094616D01*
X112208607Y-86094006D01*
X112155802Y-85941186D01*
X112155654Y-85940677D01*
X112125750Y-85816216D01*
X112095799Y-85710842D01*
X112038908Y-85604114D01*
X111935203Y-85483557D01*
X111932407Y-85475052D01*
X111935800Y-85467657D01*
X112097230Y-85306227D01*
X112105502Y-85302801D01*
X112113130Y-85305630D01*
G37*
%TD.AperFunction*%
%TD*%
%TA.AperFunction,Conductor*%
%TO.N,GND*%
G36*
X138783223Y-80638365D02*
G01*
X138783979Y-80639062D01*
X139412802Y-81271752D01*
X139416204Y-81280036D01*
X139412802Y-81288248D01*
X138783979Y-81920937D01*
X138775717Y-81924389D01*
X138767433Y-81920987D01*
X138766736Y-81920231D01*
X138643982Y-81774640D01*
X138643978Y-81774635D01*
X138576440Y-81707516D01*
X138512989Y-81644458D01*
X138512982Y-81644452D01*
X138480864Y-81618708D01*
X138381989Y-81539453D01*
X138381985Y-81539451D01*
X138381982Y-81539448D01*
X138250996Y-81459635D01*
X138250992Y-81459633D01*
X138127196Y-81408001D01*
X138120880Y-81401654D01*
X138120000Y-81397203D01*
X138120000Y-81162796D01*
X138123427Y-81154523D01*
X138127193Y-81151999D01*
X138250994Y-81100364D01*
X138381989Y-81020546D01*
X138512983Y-80915546D01*
X138643978Y-80785364D01*
X138766737Y-80639766D01*
X138774689Y-80635652D01*
X138783223Y-80638365D01*
G37*
%TD.AperFunction*%
%TD*%
%TA.AperFunction,Conductor*%
%TO.N,+5V*%
G36*
X110857415Y-89900355D02*
G01*
X110863739Y-89906696D01*
X110864005Y-89907405D01*
X110955272Y-90176779D01*
X110970954Y-90223065D01*
X111081908Y-90518297D01*
X111192863Y-90781280D01*
X111303817Y-91012012D01*
X111388564Y-91163613D01*
X111410454Y-91202770D01*
X111411499Y-91211664D01*
X111408514Y-91216752D01*
X111244424Y-91380842D01*
X111236151Y-91384269D01*
X111230177Y-91382629D01*
X111022511Y-91259316D01*
X111022509Y-91259315D01*
X110807023Y-91163610D01*
X110591558Y-91100161D01*
X110591554Y-91100160D01*
X110591547Y-91100158D01*
X110586571Y-91099437D01*
X110376069Y-91068954D01*
X110376065Y-91068954D01*
X110369582Y-91068985D01*
X110172822Y-91069940D01*
X110164532Y-91066553D01*
X110161065Y-91058297D01*
X110161073Y-91057798D01*
X110196492Y-90176778D01*
X110200249Y-90168650D01*
X110203720Y-90166434D01*
X110848463Y-89900344D01*
X110857415Y-89900355D01*
G37*
%TD.AperFunction*%
%TD*%
%TA.AperFunction,Conductor*%
%TO.N,Net-(U1-OE)*%
G36*
X144496019Y-84166427D02*
G01*
X144499413Y-84173823D01*
X144511328Y-84332396D01*
X144511329Y-84332402D01*
X144546567Y-84448088D01*
X144546569Y-84448093D01*
X144599901Y-84543784D01*
X144666756Y-84652924D01*
X144667028Y-84653421D01*
X144737730Y-84798779D01*
X144738267Y-84807718D01*
X144732327Y-84814418D01*
X144731711Y-84814696D01*
X144378102Y-84962123D01*
X144369148Y-84962144D01*
X144369098Y-84962123D01*
X144015488Y-84814696D01*
X144009170Y-84808349D01*
X144009191Y-84799395D01*
X144009459Y-84798801D01*
X144080172Y-84653416D01*
X144080439Y-84652928D01*
X144080442Y-84652924D01*
X144147297Y-84543784D01*
X144200629Y-84448094D01*
X144235870Y-84332398D01*
X144247787Y-84173823D01*
X144251824Y-84165830D01*
X144259454Y-84163000D01*
X144487746Y-84163000D01*
X144496019Y-84166427D01*
G37*
%TD.AperFunction*%
%TD*%
%TA.AperFunction,Conductor*%
%TO.N,GND*%
G36*
X107478604Y-80280591D02*
G01*
X107479197Y-80280858D01*
X107619360Y-80349032D01*
X107624581Y-80351572D01*
X107625078Y-80351844D01*
X107734215Y-80418697D01*
X107829905Y-80472029D01*
X107829910Y-80472031D01*
X107945596Y-80507269D01*
X107945599Y-80507269D01*
X107945601Y-80507270D01*
X108104178Y-80519186D01*
X108112170Y-80523223D01*
X108115000Y-80530853D01*
X108115000Y-80759146D01*
X108111573Y-80767419D01*
X108104177Y-80770813D01*
X107945602Y-80782728D01*
X107945596Y-80782729D01*
X107829910Y-80817967D01*
X107829905Y-80817969D01*
X107734215Y-80871301D01*
X107625078Y-80938153D01*
X107624581Y-80938425D01*
X107479220Y-81009130D01*
X107470281Y-81009667D01*
X107463581Y-81003727D01*
X107463303Y-81003111D01*
X107386114Y-80817970D01*
X107315875Y-80649499D01*
X107315855Y-80640550D01*
X107463303Y-80286887D01*
X107469650Y-80280570D01*
X107478604Y-80280591D01*
G37*
%TD.AperFunction*%
%TD*%
%TA.AperFunction,Conductor*%
%TO.N,+3.3V*%
G36*
X113330138Y-81288059D02*
G01*
X113331363Y-81289284D01*
X113958932Y-82017505D01*
X113961737Y-82026009D01*
X113958406Y-82033352D01*
X113862273Y-82130989D01*
X113758582Y-82265328D01*
X113758576Y-82265337D01*
X113654889Y-82428692D01*
X113654889Y-82428691D01*
X113551196Y-82621079D01*
X113450656Y-82835762D01*
X113444043Y-82841801D01*
X113440060Y-82842500D01*
X113204940Y-82842500D01*
X113196667Y-82839073D01*
X113194344Y-82835762D01*
X113093803Y-82621079D01*
X112990110Y-82428691D01*
X112990110Y-82428692D01*
X112886417Y-82265329D01*
X112782723Y-82130987D01*
X112686593Y-82033352D01*
X112683230Y-82025052D01*
X112686067Y-82017505D01*
X113313637Y-81289284D01*
X113321634Y-81285254D01*
X113330138Y-81288059D01*
G37*
%TD.AperFunction*%
%TD*%
%TA.AperFunction,Conductor*%
%TO.N,GND*%
G36*
X113769111Y-88667303D02*
G01*
X113775429Y-88673650D01*
X113775408Y-88682604D01*
X113775130Y-88683220D01*
X113704425Y-88828581D01*
X113704153Y-88829078D01*
X113637301Y-88938215D01*
X113583969Y-89033905D01*
X113583967Y-89033910D01*
X113548729Y-89149596D01*
X113548728Y-89149602D01*
X113536813Y-89308177D01*
X113532776Y-89316170D01*
X113525146Y-89319000D01*
X113296854Y-89319000D01*
X113288581Y-89315573D01*
X113285187Y-89308177D01*
X113273270Y-89149602D01*
X113273269Y-89149596D01*
X113238031Y-89033910D01*
X113238029Y-89033905D01*
X113184697Y-88938215D01*
X113117844Y-88829078D01*
X113117572Y-88828581D01*
X113115032Y-88823360D01*
X113046868Y-88683218D01*
X113046332Y-88674281D01*
X113052272Y-88667581D01*
X113052874Y-88667308D01*
X113406500Y-88519875D01*
X113415449Y-88519855D01*
X113769111Y-88667303D01*
G37*
%TD.AperFunction*%
%TD*%
%TA.AperFunction,Conductor*%
%TO.N,GND*%
G36*
X138100504Y-80915591D02*
G01*
X138101097Y-80915858D01*
X138241260Y-80984032D01*
X138246481Y-80986572D01*
X138246978Y-80986844D01*
X138356115Y-81053697D01*
X138451805Y-81107029D01*
X138451810Y-81107031D01*
X138567496Y-81142269D01*
X138567499Y-81142269D01*
X138567501Y-81142270D01*
X138726078Y-81154186D01*
X138734070Y-81158223D01*
X138736900Y-81165853D01*
X138736900Y-81394146D01*
X138733473Y-81402419D01*
X138726077Y-81405813D01*
X138567502Y-81417728D01*
X138567496Y-81417729D01*
X138451810Y-81452967D01*
X138451805Y-81452969D01*
X138356115Y-81506301D01*
X138246978Y-81573153D01*
X138246481Y-81573425D01*
X138101120Y-81644130D01*
X138092181Y-81644667D01*
X138085481Y-81638727D01*
X138085203Y-81638111D01*
X138008014Y-81452970D01*
X137937775Y-81284499D01*
X137937755Y-81275550D01*
X138085203Y-80921887D01*
X138091550Y-80915570D01*
X138100504Y-80915591D01*
G37*
%TD.AperFunction*%
%TD*%
M02*
