%TF.GenerationSoftware,KiCad,Pcbnew,7.0.8*%
%TF.CreationDate,2023-10-11T21:33:04+02:00*%
%TF.ProjectId,LvL_shifter_shield,4c764c5f-7368-4696-9674-65725f736869,rev?*%
%TF.SameCoordinates,Original*%
%TF.FileFunction,Copper,L4,Inr*%
%TF.FilePolarity,Positive*%
%FSLAX46Y46*%
G04 Gerber Fmt 4.6, Leading zero omitted, Abs format (unit mm)*
G04 Created by KiCad (PCBNEW 7.0.8) date 2023-10-11 21:33:04*
%MOMM*%
%LPD*%
G01*
G04 APERTURE LIST*
G04 Aperture macros list*
%AMRoundRect*
0 Rectangle with rounded corners*
0 $1 Rounding radius*
0 $2 $3 $4 $5 $6 $7 $8 $9 X,Y pos of 4 corners*
0 Add a 4 corners polygon primitive as box body*
4,1,4,$2,$3,$4,$5,$6,$7,$8,$9,$2,$3,0*
0 Add four circle primitives for the rounded corners*
1,1,$1+$1,$2,$3*
1,1,$1+$1,$4,$5*
1,1,$1+$1,$6,$7*
1,1,$1+$1,$8,$9*
0 Add four rect primitives between the rounded corners*
20,1,$1+$1,$2,$3,$4,$5,0*
20,1,$1+$1,$4,$5,$6,$7,0*
20,1,$1+$1,$6,$7,$8,$9,0*
20,1,$1+$1,$8,$9,$2,$3,0*%
G04 Aperture macros list end*
%TA.AperFunction,ComponentPad*%
%ADD10RoundRect,0.250000X0.750000X-0.600000X0.750000X0.600000X-0.750000X0.600000X-0.750000X-0.600000X0*%
%TD*%
%TA.AperFunction,ComponentPad*%
%ADD11O,2.000000X1.700000*%
%TD*%
%TA.AperFunction,ComponentPad*%
%ADD12R,1.700000X1.700000*%
%TD*%
%TA.AperFunction,ComponentPad*%
%ADD13O,1.700000X1.700000*%
%TD*%
%TA.AperFunction,ViaPad*%
%ADD14C,0.800000*%
%TD*%
%TA.AperFunction,ViaPad*%
%ADD15C,0.600000*%
%TD*%
%TA.AperFunction,Conductor*%
%ADD16C,0.150000*%
%TD*%
G04 APERTURE END LIST*
D10*
%TO.N,GND*%
%TO.C,J4*%
X109067600Y-87325200D03*
D11*
%TO.N,+5V*%
X109067600Y-84825200D03*
%TD*%
D12*
%TO.N,Net-(J1-Pin_1)*%
%TO.C,J1*%
X137160000Y-86995000D03*
D13*
%TO.N,Net-(J1-Pin_2)*%
X137160000Y-84455000D03*
%TO.N,Net-(J1-Pin_3)*%
X134620000Y-86995000D03*
%TO.N,GND*%
X134620000Y-84455000D03*
%TO.N,Net-(J1-Pin_5)*%
X132080000Y-86995000D03*
%TO.N,Net-(J1-Pin_6)*%
X132080000Y-84455000D03*
%TO.N,Net-(J1-Pin_7)*%
X129540000Y-86995000D03*
%TO.N,Net-(J1-Pin_8)*%
X129540000Y-84455000D03*
%TO.N,Net-(J1-Pin_9)*%
X127000000Y-86995000D03*
%TO.N,Net-(J1-Pin_10)*%
X127000000Y-84455000D03*
%TO.N,Net-(J1-Pin_11)*%
X124460000Y-86995000D03*
%TO.N,Net-(J1-Pin_12)*%
X124460000Y-84455000D03*
%TO.N,Net-(J1-Pin_13)*%
X121920000Y-86995000D03*
%TO.N,Net-(J1-Pin_14)*%
X121920000Y-84455000D03*
%TO.N,Net-(J1-Pin_15)*%
X119380000Y-86995000D03*
%TO.N,GND*%
X119380000Y-84455000D03*
%TD*%
D12*
%TO.N,unconnected-(J3-Pin_1-Pad1)*%
%TO.C,J3*%
X141605000Y-93345000D03*
D13*
%TO.N,unconnected-(J3-Pin_2-Pad2)*%
X139065000Y-93345000D03*
%TO.N,unconnected-(J3-Pin_3-Pad3)*%
X136525000Y-93345000D03*
%TO.N,GND*%
X133985000Y-93345000D03*
%TO.N,Net-(J3-Pin_5)*%
X131445000Y-93345000D03*
%TO.N,Net-(J3-Pin_6)*%
X128905000Y-93345000D03*
%TO.N,Net-(J3-Pin_7)*%
X126365000Y-93345000D03*
%TO.N,Net-(J3-Pin_8)*%
X123825000Y-93345000D03*
%TO.N,Net-(J3-Pin_9)*%
X121285000Y-93345000D03*
%TO.N,Net-(J3-Pin_10)*%
X118745000Y-93345000D03*
%TO.N,unconnected-(J3-Pin_11-Pad11)*%
X116205000Y-93345000D03*
%TO.N,Net-(J3-Pin_12)*%
X113665000Y-93345000D03*
%TO.N,Net-(J3-Pin_13)*%
X111125000Y-93345000D03*
%TO.N,Net-(J3-Pin_14)*%
X108585000Y-93345000D03*
%TO.N,unconnected-(J3-Pin_15-Pad15)*%
X106045000Y-93345000D03*
%TD*%
D12*
%TO.N,unconnected-(J2-Pin_1-Pad1)*%
%TO.C,J2*%
X141575000Y-78105000D03*
D13*
%TO.N,+3.3V*%
X139035000Y-78105000D03*
%TO.N,unconnected-(J2-Pin_3-Pad3)*%
X136495000Y-78105000D03*
%TO.N,Net-(J2-Pin_4)*%
X133955000Y-78105000D03*
%TO.N,Net-(J2-Pin_5)*%
X131415000Y-78105000D03*
%TO.N,Net-(J2-Pin_6)*%
X128875000Y-78105000D03*
%TO.N,Net-(J2-Pin_7)*%
X126335000Y-78105000D03*
%TO.N,Net-(J2-Pin_8)*%
X123795000Y-78105000D03*
%TO.N,unconnected-(J2-Pin_9-Pad9)*%
X121255000Y-78105000D03*
%TO.N,unconnected-(J2-Pin_10-Pad10)*%
X118715000Y-78105000D03*
%TO.N,unconnected-(J2-Pin_11-Pad11)*%
X116175000Y-78105000D03*
%TO.N,unconnected-(J2-Pin_12-Pad12)*%
X113635000Y-78105000D03*
%TO.N,unconnected-(J2-Pin_13-Pad13)*%
X111095000Y-78105000D03*
%TO.N,GND*%
X108555000Y-78105000D03*
%TO.N,unconnected-(J2-Pin_15-Pad15)*%
X106015000Y-78105000D03*
%TD*%
D14*
%TO.N,+5V*%
X108966000Y-90220800D03*
X117217418Y-85805109D03*
X137845800Y-91846400D03*
%TO.N,GND*%
X137936900Y-81280000D03*
X113411000Y-88519000D03*
X107315000Y-80645000D03*
X120548400Y-81280000D03*
%TO.N,+3.3V*%
X144094200Y-85852000D03*
X111973957Y-84349500D03*
D15*
%TO.N,Net-(J1-Pin_1)*%
X141071600Y-87815900D03*
%TO.N,Net-(J1-Pin_2)*%
X139471400Y-87249000D03*
%TO.N,Net-(J1-Pin_3)*%
X141224000Y-86791800D03*
%TO.N,Net-(J1-Pin_5)*%
X139471400Y-86449500D03*
%TO.N,Net-(J1-Pin_6)*%
X139106900Y-85000500D03*
%TO.N,Net-(J1-Pin_7)*%
X139213273Y-84223994D03*
%TO.N,Net-(J1-Pin_8)*%
X139318127Y-83252300D03*
%TO.N,Net-(J1-Pin_9)*%
X140055600Y-83252300D03*
%TO.N,Net-(J1-Pin_10)*%
X116255800Y-83328500D03*
%TO.N,Net-(J1-Pin_11)*%
X118161541Y-84911459D03*
%TO.N,Net-(J1-Pin_12)*%
X123799600Y-85725000D03*
%TO.N,Net-(J1-Pin_13)*%
X118059200Y-89255600D03*
%TO.N,Net-(J1-Pin_14)*%
X117398800Y-86690200D03*
%TO.N,Net-(J1-Pin_15)*%
X117449600Y-88011000D03*
%TO.N,Net-(J2-Pin_4)*%
X141198600Y-81178400D03*
%TO.N,Net-(J2-Pin_5)*%
X114808000Y-83210400D03*
%TO.N,Net-(J2-Pin_6)*%
X113471413Y-84285500D03*
%TO.N,Net-(J2-Pin_7)*%
X112773200Y-84369864D03*
%TO.N,Net-(J2-Pin_8)*%
X141198600Y-82016600D03*
%TO.N,Net-(J3-Pin_5)*%
X142087600Y-90322400D03*
%TO.N,Net-(J3-Pin_6)*%
X143078200Y-89941400D03*
%TO.N,Net-(J3-Pin_7)*%
X143941800Y-89433400D03*
%TO.N,Net-(J3-Pin_8)*%
X144475200Y-88341200D03*
%TO.N,Net-(J3-Pin_9)*%
X143214100Y-84939103D03*
%TO.N,Net-(J3-Pin_10)*%
X143205200Y-84175600D03*
%TO.N,Net-(J3-Pin_12)*%
X115341400Y-85166200D03*
%TO.N,Net-(J3-Pin_13)*%
X112166400Y-86635500D03*
%TO.N,Net-(J3-Pin_14)*%
X115366800Y-87994500D03*
D14*
%TO.N,Net-(U1-OE)*%
X144373600Y-84963000D03*
%TO.N,Net-(U2-OE)*%
X112582201Y-85952628D03*
%TD*%
D16*
%TO.N,Net-(J1-Pin_10)*%
X116255800Y-83328500D02*
X117059700Y-82524600D01*
X117059700Y-82524600D02*
X125069600Y-82524600D01*
X125069600Y-82524600D02*
X127000000Y-84455000D01*
%TO.N,Net-(J1-Pin_11)*%
X119989600Y-85572600D02*
X120573800Y-84988400D01*
X123190000Y-86080600D02*
X124104400Y-86995000D01*
X118822682Y-85572600D02*
X119989600Y-85572600D01*
X124104400Y-86995000D02*
X124460000Y-86995000D01*
X122428000Y-83261200D02*
X123190000Y-84023200D01*
X120573800Y-84074000D02*
X121386600Y-83261200D01*
X121386600Y-83261200D02*
X122428000Y-83261200D01*
X123190000Y-84023200D02*
X123190000Y-86080600D01*
X118161541Y-84911459D02*
X118822682Y-85572600D01*
X120573800Y-84988400D02*
X120573800Y-84074000D01*
%TO.N,Net-(J1-Pin_12)*%
X123799600Y-85725000D02*
X123799600Y-85115400D01*
X123799600Y-85115400D02*
X124460000Y-84455000D01*
%TO.N,Net-(J1-Pin_13)*%
X119659400Y-89255600D02*
X121920000Y-86995000D01*
X118059200Y-89255600D02*
X119659400Y-89255600D01*
%TO.N,Net-(J1-Pin_14)*%
X117398800Y-86690200D02*
X118160800Y-85928200D01*
X118160800Y-85928200D02*
X120446800Y-85928200D01*
X120446800Y-85928200D02*
X121920000Y-84455000D01*
%TO.N,Net-(J1-Pin_15)*%
X117449600Y-88011000D02*
X118465600Y-86995000D01*
X118465600Y-86995000D02*
X119380000Y-86995000D01*
%TO.N,Net-(J2-Pin_4)*%
X133955000Y-78105000D02*
X136555000Y-80705000D01*
X140725200Y-80705000D02*
X141198600Y-81178400D01*
X136555000Y-80705000D02*
X140725200Y-80705000D01*
%TO.N,Net-(J2-Pin_8)*%
X127706600Y-82016600D02*
X123795000Y-78105000D01*
X141198600Y-82016600D02*
X127706600Y-82016600D01*
%TO.N,Net-(J3-Pin_5)*%
X133883400Y-90906600D02*
X131445000Y-93345000D01*
X142087600Y-90322400D02*
X141503400Y-90906600D01*
X141503400Y-90906600D02*
X133883400Y-90906600D01*
%TO.N,Net-(J3-Pin_6)*%
X143078200Y-89941400D02*
X142925800Y-89789000D01*
X140944600Y-89789000D02*
X140690600Y-90043000D01*
X142925800Y-89789000D02*
X140944600Y-89789000D01*
X140690600Y-90043000D02*
X132207000Y-90043000D01*
X132207000Y-90043000D02*
X128905000Y-93345000D01*
%TO.N,Net-(J3-Pin_7)*%
X143840200Y-89331800D02*
X143941800Y-89433400D01*
X130378200Y-89331800D02*
X143840200Y-89331800D01*
X126365000Y-93345000D02*
X130378200Y-89331800D01*
%TO.N,Net-(J3-Pin_8)*%
X143967200Y-88849200D02*
X144475200Y-88341200D01*
X123825000Y-93345000D02*
X128320800Y-88849200D01*
X128320800Y-88849200D02*
X143967200Y-88849200D01*
%TO.N,Net-(J3-Pin_9)*%
X143214100Y-84939103D02*
X143214100Y-87341700D01*
X142163800Y-88392000D02*
X126238000Y-88392000D01*
X143214100Y-87341700D02*
X142163800Y-88392000D01*
X126238000Y-88392000D02*
X121285000Y-93345000D01*
%TO.N,Net-(J3-Pin_10)*%
X122224800Y-89763600D02*
X124079000Y-89763600D01*
X124079000Y-89763600D02*
X125628400Y-88214200D01*
X125628400Y-86741000D02*
X126771400Y-85598000D01*
X126771400Y-85598000D02*
X141782800Y-85598000D01*
X118745000Y-93345000D02*
X118745000Y-93243400D01*
X141782800Y-85598000D02*
X143205200Y-84175600D01*
X118745000Y-93243400D02*
X122224800Y-89763600D01*
X125628400Y-88214200D02*
X125628400Y-86741000D01*
%TD*%
%TA.AperFunction,Conductor*%
%TO.N,Net-(J1-Pin_12)*%
G36*
X124460445Y-84457426D02*
G01*
X124462993Y-84461236D01*
X124780222Y-85228069D01*
X124780218Y-85237024D01*
X124773884Y-85243353D01*
X124772525Y-85243820D01*
X124508401Y-85316759D01*
X124506718Y-85317093D01*
X124409476Y-85329073D01*
X124258849Y-85347631D01*
X124258842Y-85347632D01*
X124258837Y-85347633D01*
X124057911Y-85388399D01*
X123923561Y-85495465D01*
X123876575Y-85715741D01*
X123871497Y-85723117D01*
X123865132Y-85725000D01*
X123735867Y-85725000D01*
X123727594Y-85721573D01*
X123724175Y-85713741D01*
X123723480Y-85695357D01*
X123712681Y-85409296D01*
X123684260Y-85186148D01*
X123650363Y-84993987D01*
X123650325Y-84993747D01*
X123621949Y-84770952D01*
X123621908Y-84770448D01*
X123610457Y-84467124D01*
X123613570Y-84458730D01*
X123621708Y-84454993D01*
X123622093Y-84454985D01*
X124452168Y-84454009D01*
X124460445Y-84457426D01*
G37*
%TD.AperFunction*%
%TD*%
%TA.AperFunction,Conductor*%
%TO.N,Net-(J1-Pin_13)*%
G36*
X121146732Y-86674687D02*
G01*
X121148057Y-86675234D01*
X121916215Y-86992438D01*
X121922552Y-86998761D01*
X121922562Y-86998785D01*
X122240312Y-87768267D01*
X122240303Y-87777222D01*
X122233964Y-87783547D01*
X122232790Y-87783960D01*
X121871108Y-87890003D01*
X121868831Y-87890432D01*
X121575084Y-87916019D01*
X121320392Y-87933669D01*
X121065741Y-88019596D01*
X120779109Y-88243735D01*
X120770481Y-88246131D01*
X120763629Y-88242791D01*
X120672208Y-88151370D01*
X120668781Y-88143097D01*
X120671262Y-88135892D01*
X120895402Y-87849258D01*
X120981329Y-87594605D01*
X120998980Y-87339914D01*
X121024565Y-87046164D01*
X121024994Y-87043890D01*
X121040080Y-86992437D01*
X121131040Y-86682207D01*
X121136655Y-86675234D01*
X121145558Y-86674274D01*
X121146732Y-86674687D01*
G37*
%TD.AperFunction*%
%TD*%
%TA.AperFunction,Conductor*%
%TO.N,Net-(J3-Pin_10)*%
G36*
X119840580Y-92056628D02*
G01*
X119932018Y-92148066D01*
X119935445Y-92156339D01*
X119933090Y-92163379D01*
X119712461Y-92456273D01*
X119642069Y-92719450D01*
X119642069Y-92719452D01*
X119644161Y-92983623D01*
X119634904Y-93286235D01*
X119634495Y-93288961D01*
X119533793Y-93657489D01*
X119528307Y-93664566D01*
X119519423Y-93665691D01*
X119518041Y-93665219D01*
X118748785Y-93347562D01*
X118742447Y-93341238D01*
X118424609Y-92571543D01*
X118424618Y-92562589D01*
X118430957Y-92556264D01*
X118431940Y-92555909D01*
X118781357Y-92447482D01*
X118783233Y-92447066D01*
X119064119Y-92408800D01*
X119306017Y-92375605D01*
X119548763Y-92278705D01*
X119824959Y-92055795D01*
X119833549Y-92053267D01*
X119840580Y-92056628D01*
G37*
%TD.AperFunction*%
%TD*%
%TA.AperFunction,Conductor*%
%TO.N,Net-(J3-Pin_6)*%
G36*
X130061370Y-92097208D02*
G01*
X130152791Y-92188629D01*
X130156218Y-92196902D01*
X130153735Y-92204109D01*
X129929596Y-92490741D01*
X129843669Y-92745392D01*
X129826019Y-93000084D01*
X129800432Y-93293831D01*
X129800003Y-93296108D01*
X129693960Y-93657790D01*
X129688344Y-93664765D01*
X129679441Y-93665725D01*
X129678267Y-93665312D01*
X128908785Y-93347562D01*
X128902447Y-93341238D01*
X128584687Y-92571732D01*
X128584696Y-92562777D01*
X128591035Y-92556452D01*
X128592193Y-92556044D01*
X128953893Y-92449993D01*
X128956164Y-92449565D01*
X129249914Y-92423980D01*
X129504605Y-92406329D01*
X129759258Y-92320402D01*
X130045892Y-92096263D01*
X130054518Y-92093868D01*
X130061370Y-92097208D01*
G37*
%TD.AperFunction*%
%TD*%
%TA.AperFunction,Conductor*%
%TO.N,Net-(J2-Pin_4)*%
G36*
X134737222Y-77784696D02*
G01*
X134743547Y-77791035D01*
X134743960Y-77792209D01*
X134850003Y-78153890D01*
X134850432Y-78156167D01*
X134876019Y-78449914D01*
X134893669Y-78704605D01*
X134979597Y-78959258D01*
X135203735Y-79245890D01*
X135206131Y-79254518D01*
X135202791Y-79261370D01*
X135111370Y-79352791D01*
X135103097Y-79356218D01*
X135095890Y-79353735D01*
X134969009Y-79254518D01*
X134809258Y-79129597D01*
X134554605Y-79043669D01*
X134299914Y-79026019D01*
X134006167Y-79000432D01*
X134003890Y-79000003D01*
X133642209Y-78893960D01*
X133635234Y-78888344D01*
X133634274Y-78879441D01*
X133634687Y-78878267D01*
X133706399Y-78704605D01*
X133952438Y-78108783D01*
X133958759Y-78102448D01*
X134728267Y-77784687D01*
X134737222Y-77784696D01*
G37*
%TD.AperFunction*%
%TD*%
%TA.AperFunction,Conductor*%
%TO.N,Net-(J1-Pin_10)*%
G36*
X125859107Y-83206263D02*
G01*
X126145740Y-83430402D01*
X126400393Y-83516329D01*
X126655084Y-83533980D01*
X126948832Y-83559565D01*
X126951107Y-83559993D01*
X127312791Y-83666039D01*
X127319765Y-83671655D01*
X127320725Y-83680558D01*
X127320312Y-83681732D01*
X127002562Y-84451214D01*
X126996237Y-84457553D01*
X126996214Y-84457562D01*
X126226732Y-84775312D01*
X126217777Y-84775303D01*
X126211452Y-84768964D01*
X126211042Y-84767800D01*
X126104993Y-84406107D01*
X126104565Y-84403831D01*
X126078980Y-84110084D01*
X126061329Y-83855393D01*
X125975402Y-83600740D01*
X125751263Y-83314107D01*
X125748868Y-83305481D01*
X125752207Y-83298630D01*
X125843630Y-83207207D01*
X125851902Y-83203781D01*
X125859107Y-83206263D01*
G37*
%TD.AperFunction*%
%TD*%
%TA.AperFunction,Conductor*%
%TO.N,Net-(J3-Pin_9)*%
G36*
X122441370Y-92097208D02*
G01*
X122532791Y-92188629D01*
X122536218Y-92196902D01*
X122533735Y-92204109D01*
X122309596Y-92490741D01*
X122223669Y-92745392D01*
X122206019Y-93000084D01*
X122180432Y-93293831D01*
X122180003Y-93296108D01*
X122073960Y-93657790D01*
X122068344Y-93664765D01*
X122059441Y-93665725D01*
X122058267Y-93665312D01*
X121288785Y-93347562D01*
X121282447Y-93341238D01*
X120964687Y-92571732D01*
X120964696Y-92562777D01*
X120971035Y-92556452D01*
X120972193Y-92556044D01*
X121333893Y-92449993D01*
X121336164Y-92449565D01*
X121629914Y-92423980D01*
X121884605Y-92406329D01*
X122139258Y-92320402D01*
X122425892Y-92096263D01*
X122434518Y-92093868D01*
X122441370Y-92097208D01*
G37*
%TD.AperFunction*%
%TD*%
%TA.AperFunction,Conductor*%
%TO.N,Net-(J3-Pin_6)*%
G36*
X143074348Y-89645042D02*
G01*
X143078223Y-89653115D01*
X143078241Y-89653717D01*
X143079183Y-89936514D01*
X143075784Y-89944799D01*
X143075737Y-89944846D01*
X142875190Y-90144451D01*
X142866908Y-90147858D01*
X142858643Y-90144412D01*
X142857896Y-90143585D01*
X142791780Y-90063106D01*
X142791322Y-90062465D01*
X142742514Y-89983412D01*
X142696785Y-89920450D01*
X142632080Y-89878956D01*
X142632078Y-89878955D01*
X142632077Y-89878955D01*
X142536220Y-89865420D01*
X142528507Y-89860870D01*
X142526156Y-89853835D01*
X142526156Y-89725075D01*
X142529583Y-89716802D01*
X142537214Y-89713393D01*
X142565258Y-89711854D01*
X142663734Y-89706450D01*
X142663737Y-89706449D01*
X142663747Y-89706449D01*
X142730202Y-89694090D01*
X142760566Y-89688444D01*
X142790183Y-89680796D01*
X142843610Y-89667001D01*
X142843978Y-89666920D01*
X142940246Y-89649017D01*
X142940974Y-89648929D01*
X143065902Y-89642074D01*
X143074348Y-89645042D01*
G37*
%TD.AperFunction*%
%TD*%
%TA.AperFunction,Conductor*%
%TO.N,Net-(J2-Pin_4)*%
G36*
X140835579Y-80707975D02*
G01*
X140925963Y-80783620D01*
X140925965Y-80783621D01*
X140925966Y-80783621D01*
X140925968Y-80783623D01*
X141008806Y-80822865D01*
X141090947Y-80840861D01*
X141187100Y-80859571D01*
X141187809Y-80859757D01*
X141301481Y-80897298D01*
X141308262Y-80903147D01*
X141308922Y-80912077D01*
X141308635Y-80912852D01*
X141201163Y-81174584D01*
X141194851Y-81180936D01*
X141194784Y-81180963D01*
X140933052Y-81288435D01*
X140924097Y-81288408D01*
X140917785Y-81282056D01*
X140917498Y-81281281D01*
X140879958Y-81167613D01*
X140879770Y-81166895D01*
X140861061Y-81070747D01*
X140843065Y-80988606D01*
X140803823Y-80905768D01*
X140803821Y-80905766D01*
X140803821Y-80905765D01*
X140803820Y-80905763D01*
X140728175Y-80815379D01*
X140725493Y-80806835D01*
X140728873Y-80799598D01*
X140819798Y-80708673D01*
X140828070Y-80705247D01*
X140835579Y-80707975D01*
G37*
%TD.AperFunction*%
%TD*%
%TA.AperFunction,Conductor*%
%TO.N,Net-(J1-Pin_12)*%
G36*
X123872166Y-85128427D02*
G01*
X123875547Y-85135665D01*
X123885969Y-85253068D01*
X123885970Y-85253074D01*
X123916795Y-85339392D01*
X123916795Y-85339393D01*
X123962153Y-85410203D01*
X124016912Y-85491421D01*
X124017287Y-85492061D01*
X124071116Y-85598978D01*
X124071776Y-85607908D01*
X124065927Y-85614689D01*
X124065177Y-85615035D01*
X123804111Y-85724115D01*
X123795156Y-85724142D01*
X123795089Y-85724115D01*
X123534021Y-85615035D01*
X123527709Y-85608683D01*
X123527736Y-85599728D01*
X123528067Y-85599010D01*
X123581920Y-85492044D01*
X123582281Y-85491428D01*
X123637045Y-85410203D01*
X123682403Y-85339394D01*
X123713230Y-85253070D01*
X123723653Y-85135664D01*
X123727798Y-85127728D01*
X123735307Y-85125000D01*
X123863893Y-85125000D01*
X123872166Y-85128427D01*
G37*
%TD.AperFunction*%
%TD*%
%TA.AperFunction,Conductor*%
%TO.N,Net-(J3-Pin_8)*%
G36*
X124981370Y-92097208D02*
G01*
X125072791Y-92188629D01*
X125076218Y-92196902D01*
X125073735Y-92204109D01*
X124849596Y-92490741D01*
X124763669Y-92745392D01*
X124746019Y-93000084D01*
X124720432Y-93293831D01*
X124720003Y-93296108D01*
X124613960Y-93657790D01*
X124608344Y-93664765D01*
X124599441Y-93665725D01*
X124598267Y-93665312D01*
X123828785Y-93347562D01*
X123822447Y-93341238D01*
X123504687Y-92571732D01*
X123504696Y-92562777D01*
X123511035Y-92556452D01*
X123512193Y-92556044D01*
X123873893Y-92449993D01*
X123876164Y-92449565D01*
X124169914Y-92423980D01*
X124424605Y-92406329D01*
X124679258Y-92320402D01*
X124965892Y-92096263D01*
X124974518Y-92093868D01*
X124981370Y-92097208D01*
G37*
%TD.AperFunction*%
%TD*%
%TA.AperFunction,Conductor*%
%TO.N,Net-(J1-Pin_11)*%
G36*
X123264278Y-85978647D02*
G01*
X123267312Y-85983912D01*
X123331344Y-86224621D01*
X123511829Y-86295693D01*
X123511832Y-86295694D01*
X123778642Y-86259046D01*
X123778643Y-86259046D01*
X123778646Y-86259045D01*
X123778648Y-86259045D01*
X124103683Y-86185344D01*
X124104269Y-86185244D01*
X124446986Y-86146472D01*
X124455591Y-86148947D01*
X124459926Y-86156783D01*
X124460000Y-86158098D01*
X124460000Y-86988173D01*
X124456573Y-86996446D01*
X124452766Y-86998987D01*
X123684738Y-87316136D01*
X123675783Y-87316127D01*
X123669821Y-87310581D01*
X123509450Y-86991899D01*
X123357263Y-86765878D01*
X123232445Y-86570660D01*
X123231286Y-86568294D01*
X123146948Y-86331622D01*
X123146316Y-86328728D01*
X123116128Y-85987952D01*
X123118811Y-85979409D01*
X123126750Y-85975266D01*
X123127782Y-85975220D01*
X123256005Y-85975220D01*
X123264278Y-85978647D01*
G37*
%TD.AperFunction*%
%TD*%
%TA.AperFunction,Conductor*%
%TO.N,Net-(J1-Pin_15)*%
G36*
X117828402Y-87541274D02*
G01*
X117919325Y-87632197D01*
X117922752Y-87640470D01*
X117920024Y-87647979D01*
X117844379Y-87738363D01*
X117844377Y-87738366D01*
X117844376Y-87738368D01*
X117829190Y-87770423D01*
X117805132Y-87821206D01*
X117787137Y-87903347D01*
X117768427Y-87999495D01*
X117768239Y-88000213D01*
X117730701Y-88113881D01*
X117724852Y-88120662D01*
X117715922Y-88121322D01*
X117715147Y-88121035D01*
X117453415Y-88013563D01*
X117447063Y-88007251D01*
X117447036Y-88007184D01*
X117370670Y-87821206D01*
X117339564Y-87745450D01*
X117339591Y-87736497D01*
X117345943Y-87730185D01*
X117346711Y-87729900D01*
X117460392Y-87692355D01*
X117461093Y-87692172D01*
X117557251Y-87673461D01*
X117639393Y-87655465D01*
X117722231Y-87616223D01*
X117812620Y-87540575D01*
X117821164Y-87537893D01*
X117828402Y-87541274D01*
G37*
%TD.AperFunction*%
%TD*%
%TA.AperFunction,Conductor*%
%TO.N,Net-(J3-Pin_10)*%
G36*
X142939634Y-84065557D02*
G01*
X143140876Y-84148190D01*
X143201384Y-84173036D01*
X143207736Y-84179348D01*
X143207763Y-84179415D01*
X143315235Y-84441147D01*
X143315208Y-84450102D01*
X143308856Y-84456414D01*
X143308081Y-84456701D01*
X143194413Y-84494239D01*
X143193695Y-84494427D01*
X143097547Y-84513137D01*
X143015406Y-84531132D01*
X142966287Y-84554402D01*
X142932568Y-84570376D01*
X142932566Y-84570377D01*
X142932563Y-84570379D01*
X142842179Y-84646024D01*
X142833635Y-84648706D01*
X142826397Y-84645325D01*
X142735474Y-84554402D01*
X142732047Y-84546129D01*
X142734775Y-84538620D01*
X142810420Y-84448235D01*
X142810421Y-84448233D01*
X142810420Y-84448233D01*
X142810423Y-84448231D01*
X142849665Y-84365393D01*
X142867661Y-84283251D01*
X142886372Y-84187093D01*
X142886555Y-84186392D01*
X142924098Y-84072717D01*
X142929947Y-84065937D01*
X142938877Y-84065277D01*
X142939634Y-84065557D01*
G37*
%TD.AperFunction*%
%TD*%
%TA.AperFunction,Conductor*%
%TO.N,Net-(J3-Pin_7)*%
G36*
X143825178Y-89160694D02*
G01*
X143831487Y-89166988D01*
X143940915Y-89428889D01*
X143940942Y-89437844D01*
X143940915Y-89437911D01*
X143832218Y-89698061D01*
X143825866Y-89704373D01*
X143816911Y-89704346D01*
X143815389Y-89703574D01*
X143708201Y-89639022D01*
X143705644Y-89636940D01*
X143632584Y-89557860D01*
X143632343Y-89557583D01*
X143571761Y-89483118D01*
X143506427Y-89437911D01*
X143492377Y-89428189D01*
X143371815Y-89408408D01*
X143364205Y-89403686D01*
X143362009Y-89396862D01*
X143362009Y-89268331D01*
X143365436Y-89260058D01*
X143373537Y-89256632D01*
X143478678Y-89255108D01*
X143480612Y-89255080D01*
X143494701Y-89253836D01*
X143565151Y-89247617D01*
X143636888Y-89230958D01*
X143717083Y-89201649D01*
X143816224Y-89160686D01*
X143825178Y-89160694D01*
G37*
%TD.AperFunction*%
%TD*%
%TA.AperFunction,Conductor*%
%TO.N,Net-(J3-Pin_8)*%
G36*
X144209634Y-88231157D02*
G01*
X144410876Y-88313790D01*
X144471384Y-88338636D01*
X144477736Y-88344948D01*
X144477763Y-88345015D01*
X144585235Y-88606747D01*
X144585208Y-88615702D01*
X144578856Y-88622014D01*
X144578081Y-88622301D01*
X144464413Y-88659839D01*
X144463695Y-88660027D01*
X144367547Y-88678737D01*
X144285406Y-88696732D01*
X144236287Y-88720002D01*
X144202568Y-88735976D01*
X144202566Y-88735977D01*
X144202563Y-88735979D01*
X144112179Y-88811624D01*
X144103635Y-88814306D01*
X144096397Y-88810925D01*
X144005474Y-88720002D01*
X144002047Y-88711729D01*
X144004775Y-88704220D01*
X144080420Y-88613835D01*
X144080421Y-88613833D01*
X144080420Y-88613833D01*
X144080423Y-88613831D01*
X144119665Y-88530993D01*
X144137661Y-88448851D01*
X144156372Y-88352693D01*
X144156555Y-88351992D01*
X144194098Y-88238317D01*
X144199947Y-88231537D01*
X144208877Y-88230877D01*
X144209634Y-88231157D01*
G37*
%TD.AperFunction*%
%TD*%
%TA.AperFunction,Conductor*%
%TO.N,Net-(J3-Pin_5)*%
G36*
X132601370Y-92097208D02*
G01*
X132692791Y-92188629D01*
X132696218Y-92196902D01*
X132693735Y-92204109D01*
X132469596Y-92490741D01*
X132383669Y-92745392D01*
X132366019Y-93000084D01*
X132340432Y-93293831D01*
X132340003Y-93296108D01*
X132233960Y-93657790D01*
X132228344Y-93664765D01*
X132219441Y-93665725D01*
X132218267Y-93665312D01*
X131448785Y-93347562D01*
X131442447Y-93341238D01*
X131124687Y-92571732D01*
X131124696Y-92562777D01*
X131131035Y-92556452D01*
X131132193Y-92556044D01*
X131493893Y-92449993D01*
X131496164Y-92449565D01*
X131789914Y-92423980D01*
X132044605Y-92406329D01*
X132299258Y-92320402D01*
X132585892Y-92096263D01*
X132594518Y-92093868D01*
X132601370Y-92097208D01*
G37*
%TD.AperFunction*%
%TD*%
%TA.AperFunction,Conductor*%
%TO.N,Net-(J3-Pin_9)*%
G36*
X143408891Y-85019490D02*
G01*
X143479677Y-85049067D01*
X143485989Y-85055419D01*
X143485962Y-85064374D01*
X143485616Y-85065124D01*
X143431787Y-85172040D01*
X143431412Y-85172680D01*
X143376653Y-85253899D01*
X143331295Y-85324707D01*
X143331295Y-85324708D01*
X143300470Y-85411026D01*
X143300469Y-85411032D01*
X143290047Y-85528438D01*
X143285902Y-85536375D01*
X143278393Y-85539103D01*
X143149807Y-85539103D01*
X143141534Y-85535676D01*
X143138153Y-85528438D01*
X143127730Y-85411031D01*
X143096903Y-85324707D01*
X143051545Y-85253899D01*
X142996786Y-85172680D01*
X142996416Y-85172050D01*
X142942581Y-85065121D01*
X142941922Y-85056194D01*
X142947771Y-85049413D01*
X142948508Y-85049072D01*
X143209590Y-84939986D01*
X143218544Y-84939960D01*
X143408891Y-85019490D01*
G37*
%TD.AperFunction*%
%TD*%
%TA.AperFunction,Conductor*%
%TO.N,Net-(J2-Pin_8)*%
G36*
X141088289Y-81750271D02*
G01*
X141088635Y-81751021D01*
X141197715Y-82012089D01*
X141197742Y-82021044D01*
X141197715Y-82021111D01*
X141088635Y-82282177D01*
X141082283Y-82288489D01*
X141073328Y-82288462D01*
X141072578Y-82288116D01*
X141006795Y-82254996D01*
X140965656Y-82234284D01*
X140965021Y-82233912D01*
X140883803Y-82179153D01*
X140812993Y-82133795D01*
X140726674Y-82102970D01*
X140726671Y-82102969D01*
X140726670Y-82102969D01*
X140704216Y-82100975D01*
X140609265Y-82092546D01*
X140601328Y-82088401D01*
X140598600Y-82080892D01*
X140598600Y-81952307D01*
X140602027Y-81944034D01*
X140609264Y-81940653D01*
X140726670Y-81930230D01*
X140812994Y-81899403D01*
X140883803Y-81854045D01*
X140965028Y-81799281D01*
X140965644Y-81798920D01*
X141072581Y-81745081D01*
X141081508Y-81744422D01*
X141088289Y-81750271D01*
G37*
%TD.AperFunction*%
%TD*%
%TA.AperFunction,Conductor*%
%TO.N,Net-(J3-Pin_5)*%
G36*
X141822034Y-90212357D02*
G01*
X142023276Y-90294990D01*
X142083784Y-90319836D01*
X142090136Y-90326148D01*
X142090163Y-90326215D01*
X142197635Y-90587947D01*
X142197608Y-90596902D01*
X142191256Y-90603214D01*
X142190481Y-90603501D01*
X142076813Y-90641039D01*
X142076095Y-90641227D01*
X141979947Y-90659937D01*
X141897806Y-90677932D01*
X141848687Y-90701202D01*
X141814968Y-90717176D01*
X141814966Y-90717177D01*
X141814963Y-90717179D01*
X141724579Y-90792824D01*
X141716035Y-90795506D01*
X141708797Y-90792125D01*
X141617874Y-90701202D01*
X141614447Y-90692929D01*
X141617175Y-90685420D01*
X141692820Y-90595035D01*
X141692821Y-90595033D01*
X141692820Y-90595033D01*
X141692823Y-90595031D01*
X141732065Y-90512193D01*
X141750061Y-90430051D01*
X141768772Y-90333893D01*
X141768955Y-90333192D01*
X141806498Y-90219517D01*
X141812347Y-90212737D01*
X141821277Y-90212077D01*
X141822034Y-90212357D01*
G37*
%TD.AperFunction*%
%TD*%
%TA.AperFunction,Conductor*%
%TO.N,Net-(J1-Pin_10)*%
G36*
X116634602Y-82858774D02*
G01*
X116725525Y-82949697D01*
X116728952Y-82957970D01*
X116726224Y-82965479D01*
X116650579Y-83055863D01*
X116650577Y-83055866D01*
X116650576Y-83055868D01*
X116635390Y-83087923D01*
X116611332Y-83138706D01*
X116593337Y-83220847D01*
X116574627Y-83316995D01*
X116574439Y-83317713D01*
X116536901Y-83431381D01*
X116531052Y-83438162D01*
X116522122Y-83438822D01*
X116521347Y-83438535D01*
X116259615Y-83331063D01*
X116253263Y-83324751D01*
X116253236Y-83324684D01*
X116176870Y-83138706D01*
X116145764Y-83062950D01*
X116145791Y-83053997D01*
X116152143Y-83047685D01*
X116152911Y-83047400D01*
X116266592Y-83009855D01*
X116267293Y-83009672D01*
X116363451Y-82990961D01*
X116445593Y-82972965D01*
X116528431Y-82933723D01*
X116618820Y-82858075D01*
X116627364Y-82855393D01*
X116634602Y-82858774D01*
G37*
%TD.AperFunction*%
%TD*%
%TA.AperFunction,Conductor*%
%TO.N,Net-(J1-Pin_15)*%
G36*
X118787241Y-86402233D02*
G01*
X118787547Y-86402527D01*
X119377265Y-86990860D01*
X119380702Y-86999129D01*
X119380702Y-86999153D01*
X119380011Y-87830778D01*
X119376577Y-87839048D01*
X119368301Y-87842468D01*
X119366047Y-87842247D01*
X119007231Y-87771452D01*
X119003889Y-87770242D01*
X118717155Y-87613654D01*
X118474422Y-87469005D01*
X118236628Y-87433514D01*
X118236627Y-87433514D01*
X118236625Y-87433514D01*
X117971015Y-87598634D01*
X117962180Y-87600092D01*
X117956565Y-87596971D01*
X117865032Y-87505438D01*
X117861605Y-87497165D01*
X117864725Y-87489210D01*
X118099354Y-87236290D01*
X118254777Y-87035826D01*
X118381172Y-86855703D01*
X118381315Y-86855510D01*
X118536516Y-86655332D01*
X118536832Y-86654960D01*
X118770709Y-86402852D01*
X118778845Y-86399118D01*
X118787241Y-86402233D01*
G37*
%TD.AperFunction*%
%TD*%
%TA.AperFunction,Conductor*%
%TO.N,Net-(J2-Pin_8)*%
G36*
X124577222Y-77784696D02*
G01*
X124583547Y-77791035D01*
X124583960Y-77792209D01*
X124690003Y-78153890D01*
X124690432Y-78156167D01*
X124716019Y-78449914D01*
X124733669Y-78704605D01*
X124819597Y-78959258D01*
X125043735Y-79245890D01*
X125046131Y-79254518D01*
X125042791Y-79261370D01*
X124951370Y-79352791D01*
X124943097Y-79356218D01*
X124935890Y-79353735D01*
X124809009Y-79254518D01*
X124649258Y-79129597D01*
X124394605Y-79043669D01*
X124139914Y-79026019D01*
X123846167Y-79000432D01*
X123843890Y-79000003D01*
X123482209Y-78893960D01*
X123475234Y-78888344D01*
X123474274Y-78879441D01*
X123474687Y-78878267D01*
X123546399Y-78704605D01*
X123792438Y-78108783D01*
X123798759Y-78102448D01*
X124568267Y-77784687D01*
X124577222Y-77784696D01*
G37*
%TD.AperFunction*%
%TD*%
%TA.AperFunction,Conductor*%
%TO.N,Net-(J1-Pin_14)*%
G36*
X117777602Y-86220474D02*
G01*
X117868525Y-86311397D01*
X117871952Y-86319670D01*
X117869224Y-86327179D01*
X117793579Y-86417563D01*
X117793577Y-86417566D01*
X117793576Y-86417568D01*
X117778390Y-86449623D01*
X117754332Y-86500406D01*
X117736337Y-86582547D01*
X117717627Y-86678695D01*
X117717439Y-86679413D01*
X117679901Y-86793081D01*
X117674052Y-86799862D01*
X117665122Y-86800522D01*
X117664347Y-86800235D01*
X117402615Y-86692763D01*
X117396263Y-86686451D01*
X117396236Y-86686384D01*
X117319870Y-86500406D01*
X117288764Y-86424650D01*
X117288791Y-86415697D01*
X117295143Y-86409385D01*
X117295911Y-86409100D01*
X117409592Y-86371555D01*
X117410293Y-86371372D01*
X117506451Y-86352661D01*
X117588593Y-86334665D01*
X117671431Y-86295423D01*
X117761820Y-86219775D01*
X117770364Y-86217093D01*
X117777602Y-86220474D01*
G37*
%TD.AperFunction*%
%TD*%
%TA.AperFunction,Conductor*%
%TO.N,Net-(J3-Pin_7)*%
G36*
X127521370Y-92097208D02*
G01*
X127612791Y-92188629D01*
X127616218Y-92196902D01*
X127613735Y-92204109D01*
X127389596Y-92490741D01*
X127303669Y-92745392D01*
X127286019Y-93000084D01*
X127260432Y-93293831D01*
X127260003Y-93296108D01*
X127153960Y-93657790D01*
X127148344Y-93664765D01*
X127139441Y-93665725D01*
X127138267Y-93665312D01*
X126368785Y-93347562D01*
X126362447Y-93341238D01*
X126044687Y-92571732D01*
X126044696Y-92562777D01*
X126051035Y-92556452D01*
X126052193Y-92556044D01*
X126413893Y-92449993D01*
X126416164Y-92449565D01*
X126709914Y-92423980D01*
X126964605Y-92406329D01*
X127219258Y-92320402D01*
X127505892Y-92096263D01*
X127514518Y-92093868D01*
X127521370Y-92097208D01*
G37*
%TD.AperFunction*%
%TD*%
%TA.AperFunction,Conductor*%
%TO.N,Net-(J1-Pin_11)*%
G36*
X118436043Y-84801450D02*
G01*
X118442355Y-84807802D01*
X118442642Y-84808577D01*
X118480180Y-84922243D01*
X118480368Y-84922961D01*
X118499078Y-85019110D01*
X118517073Y-85101251D01*
X118529734Y-85127976D01*
X118556317Y-85184090D01*
X118556319Y-85184093D01*
X118556320Y-85184094D01*
X118631965Y-85274479D01*
X118634647Y-85283023D01*
X118631266Y-85290261D01*
X118540343Y-85381184D01*
X118532070Y-85384611D01*
X118524561Y-85381883D01*
X118434176Y-85306238D01*
X118434175Y-85306237D01*
X118434172Y-85306235D01*
X118378058Y-85279652D01*
X118351333Y-85266991D01*
X118269192Y-85248996D01*
X118173043Y-85230286D01*
X118172325Y-85230098D01*
X118058659Y-85192560D01*
X118051878Y-85186711D01*
X118051218Y-85177781D01*
X118051494Y-85177033D01*
X118158977Y-84915273D01*
X118165287Y-84908923D01*
X118427090Y-84801423D01*
X118436043Y-84801450D01*
G37*
%TD.AperFunction*%
%TD*%
%TA.AperFunction,Conductor*%
%TO.N,Net-(J1-Pin_13)*%
G36*
X118184471Y-88983736D02*
G01*
X118185199Y-88984072D01*
X118292147Y-89037916D01*
X118292777Y-89038286D01*
X118373996Y-89093045D01*
X118444804Y-89138403D01*
X118531128Y-89169230D01*
X118648535Y-89179653D01*
X118656472Y-89183798D01*
X118659200Y-89191307D01*
X118659200Y-89319892D01*
X118655773Y-89328165D01*
X118648535Y-89331546D01*
X118543764Y-89340847D01*
X118531128Y-89341969D01*
X118531127Y-89341969D01*
X118531123Y-89341970D01*
X118444805Y-89372795D01*
X118444804Y-89372795D01*
X118373996Y-89418153D01*
X118292777Y-89472912D01*
X118292137Y-89473287D01*
X118185221Y-89527116D01*
X118176291Y-89527776D01*
X118169510Y-89521927D01*
X118169164Y-89521177D01*
X118107167Y-89372796D01*
X118060083Y-89260109D01*
X118060057Y-89251156D01*
X118060062Y-89251142D01*
X118169164Y-88990020D01*
X118175516Y-88983709D01*
X118184471Y-88983736D01*
G37*
%TD.AperFunction*%
%TD*%
%TA.AperFunction,Conductor*%
%TO.N,Net-(J1-Pin_14)*%
G36*
X121146732Y-84134687D02*
G01*
X121148057Y-84135234D01*
X121916215Y-84452438D01*
X121922552Y-84458761D01*
X121922562Y-84458785D01*
X122240312Y-85228267D01*
X122240303Y-85237222D01*
X122233964Y-85243547D01*
X122232790Y-85243960D01*
X121871108Y-85350003D01*
X121868831Y-85350432D01*
X121575084Y-85376019D01*
X121320392Y-85393669D01*
X121065741Y-85479596D01*
X120779109Y-85703735D01*
X120770481Y-85706131D01*
X120763629Y-85702791D01*
X120672208Y-85611370D01*
X120668781Y-85603097D01*
X120671262Y-85595892D01*
X120895402Y-85309258D01*
X120981329Y-85054605D01*
X120998980Y-84799914D01*
X121024565Y-84506164D01*
X121024994Y-84503890D01*
X121040080Y-84452437D01*
X121131040Y-84142207D01*
X121136655Y-84135234D01*
X121145558Y-84134274D01*
X121146732Y-84134687D01*
G37*
%TD.AperFunction*%
%TD*%
M02*
