%TF.GenerationSoftware,KiCad,Pcbnew,7.0.8*%
%TF.CreationDate,2023-10-11T21:33:04+02:00*%
%TF.ProjectId,LvL_shifter_shield,4c764c5f-7368-4696-9674-65725f736869,rev?*%
%TF.SameCoordinates,Original*%
%TF.FileFunction,Copper,L3,Inr*%
%TF.FilePolarity,Positive*%
%FSLAX46Y46*%
G04 Gerber Fmt 4.6, Leading zero omitted, Abs format (unit mm)*
G04 Created by KiCad (PCBNEW 7.0.8) date 2023-10-11 21:33:04*
%MOMM*%
%LPD*%
G01*
G04 APERTURE LIST*
G04 Aperture macros list*
%AMRoundRect*
0 Rectangle with rounded corners*
0 $1 Rounding radius*
0 $2 $3 $4 $5 $6 $7 $8 $9 X,Y pos of 4 corners*
0 Add a 4 corners polygon primitive as box body*
4,1,4,$2,$3,$4,$5,$6,$7,$8,$9,$2,$3,0*
0 Add four circle primitives for the rounded corners*
1,1,$1+$1,$2,$3*
1,1,$1+$1,$4,$5*
1,1,$1+$1,$6,$7*
1,1,$1+$1,$8,$9*
0 Add four rect primitives between the rounded corners*
20,1,$1+$1,$2,$3,$4,$5,0*
20,1,$1+$1,$4,$5,$6,$7,0*
20,1,$1+$1,$6,$7,$8,$9,0*
20,1,$1+$1,$8,$9,$2,$3,0*%
G04 Aperture macros list end*
%TA.AperFunction,ComponentPad*%
%ADD10RoundRect,0.250000X0.750000X-0.600000X0.750000X0.600000X-0.750000X0.600000X-0.750000X-0.600000X0*%
%TD*%
%TA.AperFunction,ComponentPad*%
%ADD11O,2.000000X1.700000*%
%TD*%
%TA.AperFunction,ComponentPad*%
%ADD12R,1.700000X1.700000*%
%TD*%
%TA.AperFunction,ComponentPad*%
%ADD13O,1.700000X1.700000*%
%TD*%
%TA.AperFunction,ViaPad*%
%ADD14C,0.800000*%
%TD*%
%TA.AperFunction,ViaPad*%
%ADD15C,0.600000*%
%TD*%
G04 APERTURE END LIST*
D10*
%TO.N,GND*%
%TO.C,J4*%
X109067600Y-87325200D03*
D11*
%TO.N,+5V*%
X109067600Y-84825200D03*
%TD*%
D12*
%TO.N,Net-(J1-Pin_1)*%
%TO.C,J1*%
X137160000Y-86995000D03*
D13*
%TO.N,Net-(J1-Pin_2)*%
X137160000Y-84455000D03*
%TO.N,Net-(J1-Pin_3)*%
X134620000Y-86995000D03*
%TO.N,GND*%
X134620000Y-84455000D03*
%TO.N,Net-(J1-Pin_5)*%
X132080000Y-86995000D03*
%TO.N,Net-(J1-Pin_6)*%
X132080000Y-84455000D03*
%TO.N,Net-(J1-Pin_7)*%
X129540000Y-86995000D03*
%TO.N,Net-(J1-Pin_8)*%
X129540000Y-84455000D03*
%TO.N,Net-(J1-Pin_9)*%
X127000000Y-86995000D03*
%TO.N,Net-(J1-Pin_10)*%
X127000000Y-84455000D03*
%TO.N,Net-(J1-Pin_11)*%
X124460000Y-86995000D03*
%TO.N,Net-(J1-Pin_12)*%
X124460000Y-84455000D03*
%TO.N,Net-(J1-Pin_13)*%
X121920000Y-86995000D03*
%TO.N,Net-(J1-Pin_14)*%
X121920000Y-84455000D03*
%TO.N,Net-(J1-Pin_15)*%
X119380000Y-86995000D03*
%TO.N,GND*%
X119380000Y-84455000D03*
%TD*%
D12*
%TO.N,unconnected-(J3-Pin_1-Pad1)*%
%TO.C,J3*%
X141605000Y-93345000D03*
D13*
%TO.N,unconnected-(J3-Pin_2-Pad2)*%
X139065000Y-93345000D03*
%TO.N,unconnected-(J3-Pin_3-Pad3)*%
X136525000Y-93345000D03*
%TO.N,GND*%
X133985000Y-93345000D03*
%TO.N,Net-(J3-Pin_5)*%
X131445000Y-93345000D03*
%TO.N,Net-(J3-Pin_6)*%
X128905000Y-93345000D03*
%TO.N,Net-(J3-Pin_7)*%
X126365000Y-93345000D03*
%TO.N,Net-(J3-Pin_8)*%
X123825000Y-93345000D03*
%TO.N,Net-(J3-Pin_9)*%
X121285000Y-93345000D03*
%TO.N,Net-(J3-Pin_10)*%
X118745000Y-93345000D03*
%TO.N,unconnected-(J3-Pin_11-Pad11)*%
X116205000Y-93345000D03*
%TO.N,Net-(J3-Pin_12)*%
X113665000Y-93345000D03*
%TO.N,Net-(J3-Pin_13)*%
X111125000Y-93345000D03*
%TO.N,Net-(J3-Pin_14)*%
X108585000Y-93345000D03*
%TO.N,unconnected-(J3-Pin_15-Pad15)*%
X106045000Y-93345000D03*
%TD*%
D12*
%TO.N,unconnected-(J2-Pin_1-Pad1)*%
%TO.C,J2*%
X141575000Y-78105000D03*
D13*
%TO.N,+3.3V*%
X139035000Y-78105000D03*
%TO.N,unconnected-(J2-Pin_3-Pad3)*%
X136495000Y-78105000D03*
%TO.N,Net-(J2-Pin_4)*%
X133955000Y-78105000D03*
%TO.N,Net-(J2-Pin_5)*%
X131415000Y-78105000D03*
%TO.N,Net-(J2-Pin_6)*%
X128875000Y-78105000D03*
%TO.N,Net-(J2-Pin_7)*%
X126335000Y-78105000D03*
%TO.N,Net-(J2-Pin_8)*%
X123795000Y-78105000D03*
%TO.N,unconnected-(J2-Pin_9-Pad9)*%
X121255000Y-78105000D03*
%TO.N,unconnected-(J2-Pin_10-Pad10)*%
X118715000Y-78105000D03*
%TO.N,unconnected-(J2-Pin_11-Pad11)*%
X116175000Y-78105000D03*
%TO.N,unconnected-(J2-Pin_12-Pad12)*%
X113635000Y-78105000D03*
%TO.N,unconnected-(J2-Pin_13-Pad13)*%
X111095000Y-78105000D03*
%TO.N,GND*%
X108555000Y-78105000D03*
%TO.N,unconnected-(J2-Pin_15-Pad15)*%
X106015000Y-78105000D03*
%TD*%
D14*
%TO.N,+5V*%
X108966000Y-90220800D03*
X117217418Y-85805109D03*
X137845800Y-91846400D03*
%TO.N,GND*%
X137936900Y-81280000D03*
X113411000Y-88519000D03*
X107315000Y-80645000D03*
X120548400Y-81280000D03*
%TO.N,+3.3V*%
X144094200Y-85852000D03*
X111973957Y-84349500D03*
D15*
%TO.N,Net-(J1-Pin_1)*%
X141071600Y-87815900D03*
%TO.N,Net-(J1-Pin_2)*%
X139471400Y-87249000D03*
%TO.N,Net-(J1-Pin_3)*%
X141224000Y-86791800D03*
%TO.N,Net-(J1-Pin_5)*%
X139471400Y-86449500D03*
%TO.N,Net-(J1-Pin_6)*%
X139106900Y-85000500D03*
%TO.N,Net-(J1-Pin_7)*%
X139213273Y-84223994D03*
%TO.N,Net-(J1-Pin_8)*%
X139318127Y-83252300D03*
%TO.N,Net-(J1-Pin_9)*%
X140055600Y-83252300D03*
%TO.N,Net-(J1-Pin_10)*%
X116255800Y-83328500D03*
%TO.N,Net-(J1-Pin_11)*%
X118161541Y-84911459D03*
%TO.N,Net-(J1-Pin_12)*%
X123799600Y-85725000D03*
%TO.N,Net-(J1-Pin_13)*%
X118059200Y-89255600D03*
%TO.N,Net-(J1-Pin_14)*%
X117398800Y-86690200D03*
%TO.N,Net-(J1-Pin_15)*%
X117449600Y-88011000D03*
%TO.N,Net-(J2-Pin_4)*%
X141198600Y-81178400D03*
%TO.N,Net-(J2-Pin_5)*%
X114808000Y-83210400D03*
%TO.N,Net-(J2-Pin_6)*%
X113471413Y-84285500D03*
%TO.N,Net-(J2-Pin_7)*%
X112773200Y-84369864D03*
%TO.N,Net-(J2-Pin_8)*%
X141198600Y-82016600D03*
%TO.N,Net-(J3-Pin_5)*%
X142087600Y-90322400D03*
%TO.N,Net-(J3-Pin_6)*%
X143078200Y-89941400D03*
%TO.N,Net-(J3-Pin_7)*%
X143941800Y-89433400D03*
%TO.N,Net-(J3-Pin_8)*%
X144475200Y-88341200D03*
%TO.N,Net-(J3-Pin_9)*%
X143214100Y-84939103D03*
%TO.N,Net-(J3-Pin_10)*%
X143205200Y-84175600D03*
%TO.N,Net-(J3-Pin_12)*%
X115341400Y-85166200D03*
%TO.N,Net-(J3-Pin_13)*%
X112166400Y-86635500D03*
%TO.N,Net-(J3-Pin_14)*%
X115366800Y-87994500D03*
D14*
%TO.N,Net-(U1-OE)*%
X144373600Y-84963000D03*
%TO.N,Net-(U2-OE)*%
X112582201Y-85952628D03*
%TD*%
%TA.AperFunction,Conductor*%
%TO.N,GND*%
G36*
X105117380Y-76880085D02*
G01*
X105163135Y-76932889D01*
X105173079Y-77002047D01*
X105144054Y-77065603D01*
X105138022Y-77072081D01*
X104976505Y-77233597D01*
X104840965Y-77427169D01*
X104840964Y-77427171D01*
X104741098Y-77641335D01*
X104741094Y-77641344D01*
X104679938Y-77869586D01*
X104679936Y-77869596D01*
X104659341Y-78104999D01*
X104659341Y-78105000D01*
X104679936Y-78340403D01*
X104679938Y-78340413D01*
X104741094Y-78568655D01*
X104741096Y-78568659D01*
X104741097Y-78568663D01*
X104820801Y-78739588D01*
X104840965Y-78782830D01*
X104840967Y-78782834D01*
X104923813Y-78901149D01*
X104976505Y-78976401D01*
X105143599Y-79143495D01*
X105240384Y-79211265D01*
X105337165Y-79279032D01*
X105337167Y-79279033D01*
X105337170Y-79279035D01*
X105551337Y-79378903D01*
X105779592Y-79440063D01*
X105956034Y-79455500D01*
X106014999Y-79460659D01*
X106015000Y-79460659D01*
X106015001Y-79460659D01*
X106073966Y-79455500D01*
X106250408Y-79440063D01*
X106478663Y-79378903D01*
X106692830Y-79279035D01*
X106886401Y-79143495D01*
X107053495Y-78976401D01*
X107183730Y-78790405D01*
X107238307Y-78746781D01*
X107307805Y-78739587D01*
X107370160Y-78771110D01*
X107386879Y-78790405D01*
X107516890Y-78976078D01*
X107683917Y-79143105D01*
X107877421Y-79278600D01*
X108091507Y-79378429D01*
X108091516Y-79378433D01*
X108305000Y-79435634D01*
X108305000Y-78540501D01*
X108412685Y-78589680D01*
X108519237Y-78605000D01*
X108590763Y-78605000D01*
X108697315Y-78589680D01*
X108805000Y-78540501D01*
X108805000Y-79435633D01*
X109018483Y-79378433D01*
X109018492Y-79378429D01*
X109232578Y-79278600D01*
X109426082Y-79143105D01*
X109593105Y-78976082D01*
X109723119Y-78790405D01*
X109777696Y-78746781D01*
X109847195Y-78739588D01*
X109909549Y-78771110D01*
X109926269Y-78790405D01*
X110056505Y-78976401D01*
X110223599Y-79143495D01*
X110320384Y-79211265D01*
X110417165Y-79279032D01*
X110417167Y-79279033D01*
X110417170Y-79279035D01*
X110631337Y-79378903D01*
X110859592Y-79440063D01*
X111036034Y-79455500D01*
X111094999Y-79460659D01*
X111095000Y-79460659D01*
X111095001Y-79460659D01*
X111153966Y-79455500D01*
X111330408Y-79440063D01*
X111558663Y-79378903D01*
X111772830Y-79279035D01*
X111966401Y-79143495D01*
X112133495Y-78976401D01*
X112263425Y-78790842D01*
X112318002Y-78747217D01*
X112387500Y-78740023D01*
X112449855Y-78771546D01*
X112466575Y-78790842D01*
X112596500Y-78976395D01*
X112596505Y-78976401D01*
X112763599Y-79143495D01*
X112860384Y-79211265D01*
X112957165Y-79279032D01*
X112957167Y-79279033D01*
X112957170Y-79279035D01*
X113171337Y-79378903D01*
X113399592Y-79440063D01*
X113576034Y-79455500D01*
X113634999Y-79460659D01*
X113635000Y-79460659D01*
X113635001Y-79460659D01*
X113693966Y-79455500D01*
X113870408Y-79440063D01*
X114098663Y-79378903D01*
X114312830Y-79279035D01*
X114506401Y-79143495D01*
X114673495Y-78976401D01*
X114803425Y-78790842D01*
X114858002Y-78747217D01*
X114927500Y-78740023D01*
X114989855Y-78771546D01*
X115006575Y-78790842D01*
X115136500Y-78976395D01*
X115136505Y-78976401D01*
X115303599Y-79143495D01*
X115400384Y-79211265D01*
X115497165Y-79279032D01*
X115497167Y-79279033D01*
X115497170Y-79279035D01*
X115711337Y-79378903D01*
X115939592Y-79440063D01*
X116116034Y-79455500D01*
X116174999Y-79460659D01*
X116175000Y-79460659D01*
X116175001Y-79460659D01*
X116233966Y-79455500D01*
X116410408Y-79440063D01*
X116638663Y-79378903D01*
X116852830Y-79279035D01*
X117046401Y-79143495D01*
X117213495Y-78976401D01*
X117343425Y-78790842D01*
X117398002Y-78747217D01*
X117467500Y-78740023D01*
X117529855Y-78771546D01*
X117546575Y-78790842D01*
X117676500Y-78976395D01*
X117676505Y-78976401D01*
X117843599Y-79143495D01*
X117940384Y-79211265D01*
X118037165Y-79279032D01*
X118037167Y-79279033D01*
X118037170Y-79279035D01*
X118251337Y-79378903D01*
X118479592Y-79440063D01*
X118656034Y-79455500D01*
X118714999Y-79460659D01*
X118715000Y-79460659D01*
X118715001Y-79460659D01*
X118773966Y-79455500D01*
X118950408Y-79440063D01*
X119178663Y-79378903D01*
X119392830Y-79279035D01*
X119586401Y-79143495D01*
X119753495Y-78976401D01*
X119883425Y-78790842D01*
X119938002Y-78747217D01*
X120007500Y-78740023D01*
X120069855Y-78771546D01*
X120086575Y-78790842D01*
X120216500Y-78976395D01*
X120216505Y-78976401D01*
X120383599Y-79143495D01*
X120480384Y-79211265D01*
X120577165Y-79279032D01*
X120577167Y-79279033D01*
X120577170Y-79279035D01*
X120791337Y-79378903D01*
X121019592Y-79440063D01*
X121196034Y-79455500D01*
X121254999Y-79460659D01*
X121255000Y-79460659D01*
X121255001Y-79460659D01*
X121313966Y-79455500D01*
X121490408Y-79440063D01*
X121718663Y-79378903D01*
X121932830Y-79279035D01*
X122126401Y-79143495D01*
X122293495Y-78976401D01*
X122423425Y-78790842D01*
X122478002Y-78747217D01*
X122547500Y-78740023D01*
X122609855Y-78771546D01*
X122626575Y-78790842D01*
X122756500Y-78976395D01*
X122756505Y-78976401D01*
X122923599Y-79143495D01*
X123020384Y-79211265D01*
X123117165Y-79279032D01*
X123117167Y-79279033D01*
X123117170Y-79279035D01*
X123331337Y-79378903D01*
X123559592Y-79440063D01*
X123736034Y-79455500D01*
X123794999Y-79460659D01*
X123795000Y-79460659D01*
X123795001Y-79460659D01*
X123853966Y-79455500D01*
X124030408Y-79440063D01*
X124258663Y-79378903D01*
X124472830Y-79279035D01*
X124666401Y-79143495D01*
X124833495Y-78976401D01*
X124963425Y-78790842D01*
X125018002Y-78747217D01*
X125087500Y-78740023D01*
X125149855Y-78771546D01*
X125166575Y-78790842D01*
X125296500Y-78976395D01*
X125296505Y-78976401D01*
X125463599Y-79143495D01*
X125560384Y-79211265D01*
X125657165Y-79279032D01*
X125657167Y-79279033D01*
X125657170Y-79279035D01*
X125871337Y-79378903D01*
X126099592Y-79440063D01*
X126276034Y-79455500D01*
X126334999Y-79460659D01*
X126335000Y-79460659D01*
X126335001Y-79460659D01*
X126393966Y-79455500D01*
X126570408Y-79440063D01*
X126798663Y-79378903D01*
X127012830Y-79279035D01*
X127206401Y-79143495D01*
X127373495Y-78976401D01*
X127503425Y-78790842D01*
X127558002Y-78747217D01*
X127627500Y-78740023D01*
X127689855Y-78771546D01*
X127706575Y-78790842D01*
X127836500Y-78976395D01*
X127836505Y-78976401D01*
X128003599Y-79143495D01*
X128100384Y-79211265D01*
X128197165Y-79279032D01*
X128197167Y-79279033D01*
X128197170Y-79279035D01*
X128411337Y-79378903D01*
X128639592Y-79440063D01*
X128816034Y-79455500D01*
X128874999Y-79460659D01*
X128875000Y-79460659D01*
X128875001Y-79460659D01*
X128933966Y-79455500D01*
X129110408Y-79440063D01*
X129338663Y-79378903D01*
X129552830Y-79279035D01*
X129746401Y-79143495D01*
X129913495Y-78976401D01*
X130043425Y-78790842D01*
X130098002Y-78747217D01*
X130167500Y-78740023D01*
X130229855Y-78771546D01*
X130246575Y-78790842D01*
X130376500Y-78976395D01*
X130376505Y-78976401D01*
X130543599Y-79143495D01*
X130640384Y-79211265D01*
X130737165Y-79279032D01*
X130737167Y-79279033D01*
X130737170Y-79279035D01*
X130951337Y-79378903D01*
X131179592Y-79440063D01*
X131356034Y-79455500D01*
X131414999Y-79460659D01*
X131415000Y-79460659D01*
X131415001Y-79460659D01*
X131473966Y-79455500D01*
X131650408Y-79440063D01*
X131878663Y-79378903D01*
X132092830Y-79279035D01*
X132286401Y-79143495D01*
X132453495Y-78976401D01*
X132583425Y-78790842D01*
X132638002Y-78747217D01*
X132707500Y-78740023D01*
X132769855Y-78771546D01*
X132786575Y-78790842D01*
X132916500Y-78976395D01*
X132916505Y-78976401D01*
X133083599Y-79143495D01*
X133180384Y-79211265D01*
X133277165Y-79279032D01*
X133277167Y-79279033D01*
X133277170Y-79279035D01*
X133491337Y-79378903D01*
X133719592Y-79440063D01*
X133896034Y-79455500D01*
X133954999Y-79460659D01*
X133955000Y-79460659D01*
X133955001Y-79460659D01*
X134013966Y-79455500D01*
X134190408Y-79440063D01*
X134418663Y-79378903D01*
X134632830Y-79279035D01*
X134826401Y-79143495D01*
X134993495Y-78976401D01*
X135123425Y-78790842D01*
X135178002Y-78747217D01*
X135247500Y-78740023D01*
X135309855Y-78771546D01*
X135326575Y-78790842D01*
X135456500Y-78976395D01*
X135456505Y-78976401D01*
X135623599Y-79143495D01*
X135720384Y-79211265D01*
X135817165Y-79279032D01*
X135817167Y-79279033D01*
X135817170Y-79279035D01*
X136031337Y-79378903D01*
X136259592Y-79440063D01*
X136436034Y-79455500D01*
X136494999Y-79460659D01*
X136495000Y-79460659D01*
X136495001Y-79460659D01*
X136553966Y-79455500D01*
X136730408Y-79440063D01*
X136958663Y-79378903D01*
X137172830Y-79279035D01*
X137366401Y-79143495D01*
X137533495Y-78976401D01*
X137663425Y-78790842D01*
X137718002Y-78747217D01*
X137787500Y-78740023D01*
X137849855Y-78771546D01*
X137866575Y-78790842D01*
X137996500Y-78976395D01*
X137996505Y-78976401D01*
X138163599Y-79143495D01*
X138260384Y-79211265D01*
X138357165Y-79279032D01*
X138357167Y-79279033D01*
X138357170Y-79279035D01*
X138571337Y-79378903D01*
X138799592Y-79440063D01*
X138976034Y-79455500D01*
X139034999Y-79460659D01*
X139035000Y-79460659D01*
X139035001Y-79460659D01*
X139093966Y-79455500D01*
X139270408Y-79440063D01*
X139498663Y-79378903D01*
X139712830Y-79279035D01*
X139906401Y-79143495D01*
X140028329Y-79021566D01*
X140089648Y-78988084D01*
X140159340Y-78993068D01*
X140215274Y-79034939D01*
X140232189Y-79065917D01*
X140281202Y-79197328D01*
X140281206Y-79197335D01*
X140367452Y-79312544D01*
X140367455Y-79312547D01*
X140482664Y-79398793D01*
X140482671Y-79398797D01*
X140617517Y-79449091D01*
X140617516Y-79449091D01*
X140624444Y-79449835D01*
X140677127Y-79455500D01*
X142472872Y-79455499D01*
X142532483Y-79449091D01*
X142667331Y-79398796D01*
X142782546Y-79312546D01*
X142868796Y-79197331D01*
X142919091Y-79062483D01*
X142925500Y-79002873D01*
X142925499Y-78105000D01*
X143314953Y-78105000D01*
X143333092Y-78277576D01*
X143333093Y-78277579D01*
X143386712Y-78442608D01*
X143473477Y-78592887D01*
X143473476Y-78592887D01*
X143585879Y-78717723D01*
X143589590Y-78721845D01*
X143723364Y-78819038D01*
X143729976Y-78823842D01*
X143888495Y-78894420D01*
X143888498Y-78894421D01*
X143888499Y-78894421D01*
X143888501Y-78894422D01*
X143915933Y-78900252D01*
X143919594Y-78901149D01*
X143923628Y-78902269D01*
X143923638Y-78902273D01*
X143930096Y-78903331D01*
X143932899Y-78903859D01*
X144058236Y-78930500D01*
X144058237Y-78930500D01*
X144085723Y-78930500D01*
X144093478Y-78931130D01*
X144093493Y-78930855D01*
X144100194Y-78931217D01*
X144100204Y-78931219D01*
X144111788Y-78930590D01*
X144115142Y-78930500D01*
X144231760Y-78930500D01*
X144231764Y-78930500D01*
X144262850Y-78923892D01*
X144272231Y-78922650D01*
X144272227Y-78922620D01*
X144278854Y-78921532D01*
X144278864Y-78921532D01*
X144293099Y-78917579D01*
X144296712Y-78916694D01*
X144401499Y-78894422D01*
X144434517Y-78879721D01*
X144450197Y-78874090D01*
X144451250Y-78873669D01*
X144451264Y-78873666D01*
X144465900Y-78865905D01*
X144469679Y-78864066D01*
X144560024Y-78823842D01*
X144596399Y-78797413D01*
X144603794Y-78792799D01*
X144609344Y-78789857D01*
X144622610Y-78778587D01*
X144626269Y-78775711D01*
X144700410Y-78721845D01*
X144733395Y-78685210D01*
X144739321Y-78679453D01*
X144745712Y-78674025D01*
X144756351Y-78660029D01*
X144759572Y-78656138D01*
X144816522Y-78592889D01*
X144843415Y-78546309D01*
X144847723Y-78539830D01*
X144853991Y-78531586D01*
X144861203Y-78515995D01*
X144863741Y-78511103D01*
X144903286Y-78442611D01*
X144921330Y-78387073D01*
X144924012Y-78380238D01*
X144929119Y-78369200D01*
X144932634Y-78353229D01*
X144934215Y-78347418D01*
X144936493Y-78340408D01*
X144956908Y-78277576D01*
X144963513Y-78214731D01*
X144964614Y-78207943D01*
X144967582Y-78194461D01*
X144968188Y-78172019D01*
X144968503Y-78167256D01*
X144975047Y-78105000D01*
X144968500Y-78042717D01*
X144968188Y-78037979D01*
X144967582Y-78015539D01*
X144964615Y-78002061D01*
X144963511Y-77995245D01*
X144956908Y-77932424D01*
X144934213Y-77862577D01*
X144932630Y-77856750D01*
X144929120Y-77840804D01*
X144929119Y-77840803D01*
X144929119Y-77840800D01*
X144924018Y-77829774D01*
X144921324Y-77822907D01*
X144903286Y-77767389D01*
X144881746Y-77730082D01*
X144863761Y-77698929D01*
X144861183Y-77693959D01*
X144853991Y-77678414D01*
X144847736Y-77670186D01*
X144843404Y-77663671D01*
X144816522Y-77617111D01*
X144759592Y-77553884D01*
X144756324Y-77549935D01*
X144745712Y-77535975D01*
X144745710Y-77535973D01*
X144739330Y-77530554D01*
X144733390Y-77524782D01*
X144700411Y-77488156D01*
X144675390Y-77469977D01*
X144626285Y-77434299D01*
X144622596Y-77431399D01*
X144609347Y-77420145D01*
X144609346Y-77420144D01*
X144608308Y-77419594D01*
X144603794Y-77417200D01*
X144596401Y-77412587D01*
X144577821Y-77399088D01*
X144560028Y-77386160D01*
X144469704Y-77345945D01*
X144465880Y-77344083D01*
X144451264Y-77336334D01*
X144451261Y-77336333D01*
X144450243Y-77335927D01*
X144434503Y-77330272D01*
X144420129Y-77323872D01*
X144401498Y-77315577D01*
X144296760Y-77293315D01*
X144293066Y-77292411D01*
X144278862Y-77288467D01*
X144272229Y-77287380D01*
X144272233Y-77287350D01*
X144262849Y-77286106D01*
X144231766Y-77279500D01*
X144231764Y-77279500D01*
X144115142Y-77279500D01*
X144111788Y-77279409D01*
X144100204Y-77278781D01*
X144093493Y-77279145D01*
X144093478Y-77278869D01*
X144085723Y-77279500D01*
X144058232Y-77279500D01*
X143932932Y-77306134D01*
X143930074Y-77306671D01*
X143923632Y-77307727D01*
X143919580Y-77308852D01*
X143915897Y-77309753D01*
X143888502Y-77315577D01*
X143729977Y-77386158D01*
X143729972Y-77386160D01*
X143589591Y-77488153D01*
X143589589Y-77488155D01*
X143473477Y-77617112D01*
X143386712Y-77767391D01*
X143334695Y-77927489D01*
X143333092Y-77932424D01*
X143314953Y-78105000D01*
X142925499Y-78105000D01*
X142925499Y-77207128D01*
X142919091Y-77147517D01*
X142919091Y-77147516D01*
X142874415Y-77027733D01*
X142869431Y-76958041D01*
X142902916Y-76896718D01*
X142964240Y-76863234D01*
X142990597Y-76860400D01*
X145214800Y-76860400D01*
X145281839Y-76880085D01*
X145327594Y-76932889D01*
X145338800Y-76984400D01*
X145338800Y-84371000D01*
X145319115Y-84438039D01*
X145266311Y-84483794D01*
X145197153Y-84493738D01*
X145133597Y-84464713D01*
X145107414Y-84433003D01*
X145106132Y-84430783D01*
X145043783Y-84361537D01*
X144979471Y-84290112D01*
X144979470Y-84290111D01*
X144826334Y-84178851D01*
X144826329Y-84178848D01*
X144653407Y-84101857D01*
X144653402Y-84101855D01*
X144489685Y-84067057D01*
X144468246Y-84062500D01*
X144278954Y-84062500D01*
X144137800Y-84092503D01*
X144068133Y-84087186D01*
X144012400Y-84045048D01*
X143993002Y-84002871D01*
X143992868Y-84002918D01*
X143992372Y-84001503D01*
X143991126Y-83998792D01*
X143990567Y-83996342D01*
X143975682Y-83953804D01*
X143930989Y-83826078D01*
X143927155Y-83819977D01*
X143859725Y-83712662D01*
X143835016Y-83673338D01*
X143707462Y-83545784D01*
X143554723Y-83449811D01*
X143384454Y-83390231D01*
X143384449Y-83390230D01*
X143205204Y-83370035D01*
X143205196Y-83370035D01*
X143025950Y-83390230D01*
X143025945Y-83390231D01*
X142855676Y-83449811D01*
X142702937Y-83545784D01*
X142575384Y-83673337D01*
X142479411Y-83826076D01*
X142419831Y-83996345D01*
X142419830Y-83996350D01*
X142399635Y-84175596D01*
X142399635Y-84175603D01*
X142419830Y-84354849D01*
X142419832Y-84354857D01*
X142480807Y-84529115D01*
X142484368Y-84598894D01*
X142480807Y-84611023D01*
X142428732Y-84759845D01*
X142428730Y-84759853D01*
X142408535Y-84939099D01*
X142408535Y-84939106D01*
X142428730Y-85118352D01*
X142428731Y-85118357D01*
X142488311Y-85288626D01*
X142526889Y-85350022D01*
X142584284Y-85441365D01*
X142711838Y-85568919D01*
X142864578Y-85664892D01*
X143034845Y-85724471D01*
X143078623Y-85729403D01*
X143143035Y-85756468D01*
X143182592Y-85814061D01*
X143187617Y-85845583D01*
X143188061Y-85845537D01*
X143188740Y-85851998D01*
X143188740Y-85852000D01*
X143208526Y-86040256D01*
X143208527Y-86040259D01*
X143267018Y-86220277D01*
X143267021Y-86220284D01*
X143361667Y-86384216D01*
X143452273Y-86484844D01*
X143488329Y-86524888D01*
X143641465Y-86636148D01*
X143641470Y-86636151D01*
X143814392Y-86713142D01*
X143814397Y-86713144D01*
X143999554Y-86752500D01*
X143999555Y-86752500D01*
X144188844Y-86752500D01*
X144188846Y-86752500D01*
X144374003Y-86713144D01*
X144546930Y-86636151D01*
X144700071Y-86524888D01*
X144826733Y-86384216D01*
X144921379Y-86220284D01*
X144979874Y-86040256D01*
X144999660Y-85852000D01*
X144982980Y-85693301D01*
X144995549Y-85624575D01*
X145014149Y-85597373D01*
X145106133Y-85495216D01*
X145107411Y-85493001D01*
X145108488Y-85491974D01*
X145109955Y-85489956D01*
X145110324Y-85490224D01*
X145157977Y-85444785D01*
X145226583Y-85431560D01*
X145291449Y-85457526D01*
X145331979Y-85514439D01*
X145338800Y-85554999D01*
X145338800Y-87780589D01*
X145319115Y-87847628D01*
X145266311Y-87893383D01*
X145197153Y-87903327D01*
X145133597Y-87874302D01*
X145109808Y-87846563D01*
X145105019Y-87838942D01*
X145105015Y-87838937D01*
X144977462Y-87711384D01*
X144824723Y-87615411D01*
X144654454Y-87555831D01*
X144654449Y-87555830D01*
X144475204Y-87535635D01*
X144475196Y-87535635D01*
X144295950Y-87555830D01*
X144295945Y-87555831D01*
X144125676Y-87615411D01*
X143972937Y-87711384D01*
X143845384Y-87838937D01*
X143749411Y-87991676D01*
X143689831Y-88161945D01*
X143689830Y-88161950D01*
X143669635Y-88341196D01*
X143669635Y-88341203D01*
X143689830Y-88520449D01*
X143689833Y-88520461D01*
X143696580Y-88539743D01*
X143700141Y-88609522D01*
X143665411Y-88670149D01*
X143620496Y-88697736D01*
X143592280Y-88707610D01*
X143592275Y-88707612D01*
X143439537Y-88803584D01*
X143311984Y-88931137D01*
X143311979Y-88931143D01*
X143217863Y-89080928D01*
X143165529Y-89127219D01*
X143098990Y-89138177D01*
X143083440Y-89136425D01*
X143078200Y-89135835D01*
X143078199Y-89135835D01*
X143078196Y-89135835D01*
X142898950Y-89156030D01*
X142898945Y-89156031D01*
X142728676Y-89215611D01*
X142575937Y-89311584D01*
X142448382Y-89439139D01*
X142448378Y-89439144D01*
X142417849Y-89487730D01*
X142365514Y-89534020D01*
X142296460Y-89544667D01*
X142271906Y-89538799D01*
X142266853Y-89537031D01*
X142087604Y-89516835D01*
X142087596Y-89516835D01*
X141908350Y-89537030D01*
X141908345Y-89537031D01*
X141738076Y-89596611D01*
X141585337Y-89692584D01*
X141457784Y-89820137D01*
X141361811Y-89972876D01*
X141302231Y-90143145D01*
X141302230Y-90143150D01*
X141282035Y-90322396D01*
X141282035Y-90322403D01*
X141302230Y-90501649D01*
X141302231Y-90501654D01*
X141361811Y-90671923D01*
X141427253Y-90776072D01*
X141457784Y-90824662D01*
X141585338Y-90952216D01*
X141738078Y-91048189D01*
X141908345Y-91107768D01*
X141908350Y-91107769D01*
X142087596Y-91127965D01*
X142087600Y-91127965D01*
X142087604Y-91127965D01*
X142266849Y-91107769D01*
X142266852Y-91107768D01*
X142266855Y-91107768D01*
X142437122Y-91048189D01*
X142589862Y-90952216D01*
X142717416Y-90824662D01*
X142747947Y-90776072D01*
X142800281Y-90729780D01*
X142869334Y-90719131D01*
X142893898Y-90725002D01*
X142898945Y-90726768D01*
X142898948Y-90726768D01*
X142898950Y-90726769D01*
X143078196Y-90746965D01*
X143078200Y-90746965D01*
X143078204Y-90746965D01*
X143257449Y-90726769D01*
X143257452Y-90726768D01*
X143257455Y-90726768D01*
X143427722Y-90667189D01*
X143580462Y-90571216D01*
X143708016Y-90443662D01*
X143802136Y-90293870D01*
X143854471Y-90247580D01*
X143921014Y-90236623D01*
X143928899Y-90237511D01*
X143941799Y-90238965D01*
X143941800Y-90238965D01*
X143941804Y-90238965D01*
X144121049Y-90218769D01*
X144121052Y-90218768D01*
X144121055Y-90218768D01*
X144291322Y-90159189D01*
X144444062Y-90063216D01*
X144571616Y-89935662D01*
X144667589Y-89782922D01*
X144727168Y-89612655D01*
X144734463Y-89547911D01*
X144747365Y-89433403D01*
X144747365Y-89433396D01*
X144727169Y-89254153D01*
X144727168Y-89254151D01*
X144727168Y-89254145D01*
X144720418Y-89234857D01*
X144716856Y-89165080D01*
X144751585Y-89104452D01*
X144796505Y-89076862D01*
X144824722Y-89066989D01*
X144977462Y-88971016D01*
X145105016Y-88843462D01*
X145109806Y-88835839D01*
X145162140Y-88789547D01*
X145231193Y-88778898D01*
X145295042Y-88807273D01*
X145333414Y-88865662D01*
X145338800Y-88901810D01*
X145338800Y-94414800D01*
X145319115Y-94481839D01*
X145266311Y-94527594D01*
X145214800Y-94538800D01*
X143039544Y-94538800D01*
X142972505Y-94519115D01*
X142926750Y-94466311D01*
X142916806Y-94397153D01*
X142923362Y-94371467D01*
X142949091Y-94302482D01*
X142955500Y-94242873D01*
X142955499Y-93345000D01*
X143314953Y-93345000D01*
X143333092Y-93517576D01*
X143333093Y-93517579D01*
X143386712Y-93682608D01*
X143473477Y-93832887D01*
X143473476Y-93832887D01*
X143585879Y-93957723D01*
X143589590Y-93961845D01*
X143723364Y-94059038D01*
X143729976Y-94063842D01*
X143888495Y-94134420D01*
X143888498Y-94134421D01*
X143888499Y-94134421D01*
X143888501Y-94134422D01*
X143915933Y-94140252D01*
X143919594Y-94141149D01*
X143923628Y-94142269D01*
X143923638Y-94142273D01*
X143930096Y-94143331D01*
X143932899Y-94143859D01*
X144058236Y-94170500D01*
X144058237Y-94170500D01*
X144085723Y-94170500D01*
X144093478Y-94171130D01*
X144093493Y-94170855D01*
X144100194Y-94171217D01*
X144100204Y-94171219D01*
X144111788Y-94170590D01*
X144115142Y-94170500D01*
X144231760Y-94170500D01*
X144231764Y-94170500D01*
X144262850Y-94163892D01*
X144272231Y-94162650D01*
X144272227Y-94162620D01*
X144278854Y-94161532D01*
X144278864Y-94161532D01*
X144293099Y-94157579D01*
X144296712Y-94156694D01*
X144401499Y-94134422D01*
X144434517Y-94119721D01*
X144450197Y-94114090D01*
X144451250Y-94113669D01*
X144451264Y-94113666D01*
X144465900Y-94105905D01*
X144469679Y-94104066D01*
X144560024Y-94063842D01*
X144596399Y-94037413D01*
X144603794Y-94032799D01*
X144609344Y-94029857D01*
X144622610Y-94018587D01*
X144626269Y-94015711D01*
X144700410Y-93961845D01*
X144733395Y-93925210D01*
X144739321Y-93919453D01*
X144745712Y-93914025D01*
X144756351Y-93900029D01*
X144759572Y-93896138D01*
X144816522Y-93832889D01*
X144843415Y-93786309D01*
X144847723Y-93779830D01*
X144853991Y-93771586D01*
X144861203Y-93755995D01*
X144863741Y-93751103D01*
X144903286Y-93682611D01*
X144921330Y-93627073D01*
X144924012Y-93620238D01*
X144929119Y-93609200D01*
X144932634Y-93593229D01*
X144934215Y-93587418D01*
X144956908Y-93517576D01*
X144963513Y-93454731D01*
X144964614Y-93447943D01*
X144967582Y-93434461D01*
X144968188Y-93412019D01*
X144968503Y-93407256D01*
X144975047Y-93345000D01*
X144968500Y-93282717D01*
X144968188Y-93277979D01*
X144967582Y-93255539D01*
X144964615Y-93242061D01*
X144963511Y-93235245D01*
X144956908Y-93172424D01*
X144934213Y-93102577D01*
X144932630Y-93096750D01*
X144929120Y-93080804D01*
X144929119Y-93080803D01*
X144929119Y-93080800D01*
X144924018Y-93069774D01*
X144921324Y-93062907D01*
X144903286Y-93007389D01*
X144881746Y-92970082D01*
X144863761Y-92938929D01*
X144861183Y-92933959D01*
X144853991Y-92918414D01*
X144847736Y-92910186D01*
X144843404Y-92903671D01*
X144816522Y-92857111D01*
X144759592Y-92793884D01*
X144756324Y-92789935D01*
X144745712Y-92775975D01*
X144745710Y-92775973D01*
X144739330Y-92770554D01*
X144733390Y-92764782D01*
X144700411Y-92728156D01*
X144675390Y-92709977D01*
X144626285Y-92674299D01*
X144622596Y-92671399D01*
X144609347Y-92660145D01*
X144609346Y-92660144D01*
X144608308Y-92659594D01*
X144603794Y-92657200D01*
X144596401Y-92652587D01*
X144577821Y-92639088D01*
X144560028Y-92626160D01*
X144469704Y-92585945D01*
X144465880Y-92584083D01*
X144451264Y-92576334D01*
X144451261Y-92576333D01*
X144450243Y-92575927D01*
X144434503Y-92570272D01*
X144420129Y-92563872D01*
X144401498Y-92555577D01*
X144296760Y-92533315D01*
X144293066Y-92532411D01*
X144278862Y-92528467D01*
X144272229Y-92527380D01*
X144272233Y-92527350D01*
X144262849Y-92526106D01*
X144231766Y-92519500D01*
X144231764Y-92519500D01*
X144115142Y-92519500D01*
X144111788Y-92519409D01*
X144100204Y-92518781D01*
X144093493Y-92519145D01*
X144093478Y-92518869D01*
X144085723Y-92519500D01*
X144058232Y-92519500D01*
X143932932Y-92546134D01*
X143930074Y-92546671D01*
X143923632Y-92547727D01*
X143919580Y-92548852D01*
X143915897Y-92549753D01*
X143888502Y-92555577D01*
X143729977Y-92626158D01*
X143729972Y-92626160D01*
X143589591Y-92728153D01*
X143589589Y-92728155D01*
X143473477Y-92857112D01*
X143386712Y-93007391D01*
X143333093Y-93172420D01*
X143333092Y-93172424D01*
X143314953Y-93345000D01*
X142955499Y-93345000D01*
X142955499Y-92447128D01*
X142949091Y-92387517D01*
X142947810Y-92384083D01*
X142898797Y-92252671D01*
X142898793Y-92252664D01*
X142812547Y-92137455D01*
X142812544Y-92137452D01*
X142697335Y-92051206D01*
X142697328Y-92051202D01*
X142562482Y-92000908D01*
X142562483Y-92000908D01*
X142502883Y-91994501D01*
X142502881Y-91994500D01*
X142502873Y-91994500D01*
X142502864Y-91994500D01*
X140707129Y-91994500D01*
X140707123Y-91994501D01*
X140647516Y-92000908D01*
X140512671Y-92051202D01*
X140512664Y-92051206D01*
X140397455Y-92137452D01*
X140397452Y-92137455D01*
X140311206Y-92252664D01*
X140311203Y-92252669D01*
X140262189Y-92384083D01*
X140220317Y-92440016D01*
X140154853Y-92464433D01*
X140086580Y-92449581D01*
X140058326Y-92428430D01*
X139936402Y-92306506D01*
X139936395Y-92306501D01*
X139742834Y-92170967D01*
X139742830Y-92170965D01*
X139742828Y-92170964D01*
X139528663Y-92071097D01*
X139528659Y-92071096D01*
X139528655Y-92071094D01*
X139300413Y-92009938D01*
X139300403Y-92009936D01*
X139065001Y-91989341D01*
X139064999Y-91989341D01*
X138883037Y-92005261D01*
X138814537Y-91991494D01*
X138764353Y-91942879D01*
X138748420Y-91874851D01*
X138748905Y-91868805D01*
X138751260Y-91846400D01*
X138731474Y-91658144D01*
X138672979Y-91478116D01*
X138578333Y-91314184D01*
X138451671Y-91173512D01*
X138388981Y-91127965D01*
X138298534Y-91062251D01*
X138298529Y-91062248D01*
X138125607Y-90985257D01*
X138125602Y-90985255D01*
X137979801Y-90954265D01*
X137940446Y-90945900D01*
X137751154Y-90945900D01*
X137721444Y-90952215D01*
X137565997Y-90985255D01*
X137565992Y-90985257D01*
X137393070Y-91062248D01*
X137393065Y-91062251D01*
X137239929Y-91173511D01*
X137113266Y-91314185D01*
X137018621Y-91478115D01*
X137018618Y-91478122D01*
X136960127Y-91658140D01*
X136960126Y-91658144D01*
X136940340Y-91846398D01*
X136940340Y-91846401D01*
X136944381Y-91884855D01*
X136931810Y-91953584D01*
X136884077Y-92004607D01*
X136816337Y-92021724D01*
X136788968Y-92017589D01*
X136760416Y-92009939D01*
X136760412Y-92009938D01*
X136760408Y-92009937D01*
X136760406Y-92009936D01*
X136760403Y-92009936D01*
X136525001Y-91989341D01*
X136524999Y-91989341D01*
X136289596Y-92009936D01*
X136289586Y-92009938D01*
X136061344Y-92071094D01*
X136061335Y-92071098D01*
X135847171Y-92170964D01*
X135847169Y-92170965D01*
X135653597Y-92306505D01*
X135486508Y-92473594D01*
X135356269Y-92659595D01*
X135301692Y-92703219D01*
X135232193Y-92710412D01*
X135169839Y-92678890D01*
X135153119Y-92659594D01*
X135023113Y-92473926D01*
X135023108Y-92473920D01*
X134856082Y-92306894D01*
X134662578Y-92171399D01*
X134448492Y-92071570D01*
X134448486Y-92071567D01*
X134235000Y-92014364D01*
X134235000Y-92909498D01*
X134127315Y-92860320D01*
X134020763Y-92845000D01*
X133949237Y-92845000D01*
X133842685Y-92860320D01*
X133735000Y-92909498D01*
X133735000Y-92014364D01*
X133734999Y-92014364D01*
X133521513Y-92071567D01*
X133521507Y-92071570D01*
X133307422Y-92171399D01*
X133307420Y-92171400D01*
X133113926Y-92306886D01*
X133113920Y-92306891D01*
X132946891Y-92473920D01*
X132946890Y-92473922D01*
X132816880Y-92659595D01*
X132762303Y-92703219D01*
X132692804Y-92710412D01*
X132630450Y-92678890D01*
X132613730Y-92659594D01*
X132483494Y-92473597D01*
X132316402Y-92306506D01*
X132316395Y-92306501D01*
X132122834Y-92170967D01*
X132122830Y-92170965D01*
X132122828Y-92170964D01*
X131908663Y-92071097D01*
X131908659Y-92071096D01*
X131908655Y-92071094D01*
X131680413Y-92009938D01*
X131680403Y-92009936D01*
X131445001Y-91989341D01*
X131444999Y-91989341D01*
X131209596Y-92009936D01*
X131209586Y-92009938D01*
X130981344Y-92071094D01*
X130981335Y-92071098D01*
X130767171Y-92170964D01*
X130767169Y-92170965D01*
X130573597Y-92306505D01*
X130406505Y-92473597D01*
X130276575Y-92659158D01*
X130221998Y-92702783D01*
X130152500Y-92709977D01*
X130090145Y-92678454D01*
X130073425Y-92659158D01*
X129943494Y-92473597D01*
X129776402Y-92306506D01*
X129776395Y-92306501D01*
X129582834Y-92170967D01*
X129582830Y-92170965D01*
X129582828Y-92170964D01*
X129368663Y-92071097D01*
X129368659Y-92071096D01*
X129368655Y-92071094D01*
X129140413Y-92009938D01*
X129140403Y-92009936D01*
X128905001Y-91989341D01*
X128904999Y-91989341D01*
X128669596Y-92009936D01*
X128669586Y-92009938D01*
X128441344Y-92071094D01*
X128441335Y-92071098D01*
X128227171Y-92170964D01*
X128227169Y-92170965D01*
X128033597Y-92306505D01*
X127866505Y-92473597D01*
X127736575Y-92659158D01*
X127681998Y-92702783D01*
X127612500Y-92709977D01*
X127550145Y-92678454D01*
X127533425Y-92659158D01*
X127403494Y-92473597D01*
X127236402Y-92306506D01*
X127236395Y-92306501D01*
X127042834Y-92170967D01*
X127042830Y-92170965D01*
X127042828Y-92170964D01*
X126828663Y-92071097D01*
X126828659Y-92071096D01*
X126828655Y-92071094D01*
X126600413Y-92009938D01*
X126600403Y-92009936D01*
X126365001Y-91989341D01*
X126364999Y-91989341D01*
X126129596Y-92009936D01*
X126129586Y-92009938D01*
X125901344Y-92071094D01*
X125901335Y-92071098D01*
X125687171Y-92170964D01*
X125687169Y-92170965D01*
X125493597Y-92306505D01*
X125326505Y-92473597D01*
X125196575Y-92659158D01*
X125141998Y-92702783D01*
X125072500Y-92709977D01*
X125010145Y-92678454D01*
X124993425Y-92659158D01*
X124863494Y-92473597D01*
X124696402Y-92306506D01*
X124696395Y-92306501D01*
X124502834Y-92170967D01*
X124502830Y-92170965D01*
X124502828Y-92170964D01*
X124288663Y-92071097D01*
X124288659Y-92071096D01*
X124288655Y-92071094D01*
X124060413Y-92009938D01*
X124060403Y-92009936D01*
X123825001Y-91989341D01*
X123824999Y-91989341D01*
X123589596Y-92009936D01*
X123589586Y-92009938D01*
X123361344Y-92071094D01*
X123361335Y-92071098D01*
X123147171Y-92170964D01*
X123147169Y-92170965D01*
X122953597Y-92306505D01*
X122786505Y-92473597D01*
X122656575Y-92659158D01*
X122601998Y-92702783D01*
X122532500Y-92709977D01*
X122470145Y-92678454D01*
X122453425Y-92659158D01*
X122323494Y-92473597D01*
X122156402Y-92306506D01*
X122156395Y-92306501D01*
X121962834Y-92170967D01*
X121962830Y-92170965D01*
X121962828Y-92170964D01*
X121748663Y-92071097D01*
X121748659Y-92071096D01*
X121748655Y-92071094D01*
X121520413Y-92009938D01*
X121520403Y-92009936D01*
X121285001Y-91989341D01*
X121284999Y-91989341D01*
X121049596Y-92009936D01*
X121049586Y-92009938D01*
X120821344Y-92071094D01*
X120821335Y-92071098D01*
X120607171Y-92170964D01*
X120607169Y-92170965D01*
X120413597Y-92306505D01*
X120246505Y-92473597D01*
X120116575Y-92659158D01*
X120061998Y-92702783D01*
X119992500Y-92709977D01*
X119930145Y-92678454D01*
X119913425Y-92659158D01*
X119783494Y-92473597D01*
X119616402Y-92306506D01*
X119616395Y-92306501D01*
X119422834Y-92170967D01*
X119422830Y-92170965D01*
X119422828Y-92170964D01*
X119208663Y-92071097D01*
X119208659Y-92071096D01*
X119208655Y-92071094D01*
X118980413Y-92009938D01*
X118980403Y-92009936D01*
X118745001Y-91989341D01*
X118744999Y-91989341D01*
X118509596Y-92009936D01*
X118509586Y-92009938D01*
X118281344Y-92071094D01*
X118281335Y-92071098D01*
X118067171Y-92170964D01*
X118067169Y-92170965D01*
X117873597Y-92306505D01*
X117706505Y-92473597D01*
X117576575Y-92659158D01*
X117521998Y-92702783D01*
X117452500Y-92709977D01*
X117390145Y-92678454D01*
X117373425Y-92659158D01*
X117243494Y-92473597D01*
X117076402Y-92306506D01*
X117076395Y-92306501D01*
X116882834Y-92170967D01*
X116882830Y-92170965D01*
X116882828Y-92170964D01*
X116668663Y-92071097D01*
X116668659Y-92071096D01*
X116668655Y-92071094D01*
X116440413Y-92009938D01*
X116440403Y-92009936D01*
X116205001Y-91989341D01*
X116204999Y-91989341D01*
X115969596Y-92009936D01*
X115969586Y-92009938D01*
X115741344Y-92071094D01*
X115741335Y-92071098D01*
X115527171Y-92170964D01*
X115527169Y-92170965D01*
X115333597Y-92306505D01*
X115166505Y-92473597D01*
X115036575Y-92659158D01*
X114981998Y-92702783D01*
X114912500Y-92709977D01*
X114850145Y-92678454D01*
X114833425Y-92659158D01*
X114703494Y-92473597D01*
X114536402Y-92306506D01*
X114536395Y-92306501D01*
X114342834Y-92170967D01*
X114342830Y-92170965D01*
X114342828Y-92170964D01*
X114128663Y-92071097D01*
X114128659Y-92071096D01*
X114128655Y-92071094D01*
X113900413Y-92009938D01*
X113900403Y-92009936D01*
X113665001Y-91989341D01*
X113664999Y-91989341D01*
X113429596Y-92009936D01*
X113429586Y-92009938D01*
X113201344Y-92071094D01*
X113201335Y-92071098D01*
X112987171Y-92170964D01*
X112987169Y-92170965D01*
X112793597Y-92306505D01*
X112626505Y-92473597D01*
X112496575Y-92659158D01*
X112441998Y-92702783D01*
X112372500Y-92709977D01*
X112310145Y-92678454D01*
X112293425Y-92659158D01*
X112163494Y-92473597D01*
X111996402Y-92306506D01*
X111996395Y-92306501D01*
X111802834Y-92170967D01*
X111802830Y-92170965D01*
X111802828Y-92170964D01*
X111588663Y-92071097D01*
X111588659Y-92071096D01*
X111588655Y-92071094D01*
X111360413Y-92009938D01*
X111360403Y-92009936D01*
X111125001Y-91989341D01*
X111124999Y-91989341D01*
X110889596Y-92009936D01*
X110889586Y-92009938D01*
X110661344Y-92071094D01*
X110661335Y-92071098D01*
X110447171Y-92170964D01*
X110447169Y-92170965D01*
X110253597Y-92306505D01*
X110086505Y-92473597D01*
X109956575Y-92659158D01*
X109901998Y-92702783D01*
X109832500Y-92709977D01*
X109770145Y-92678454D01*
X109753425Y-92659158D01*
X109623494Y-92473597D01*
X109456402Y-92306506D01*
X109456395Y-92306501D01*
X109262834Y-92170967D01*
X109262830Y-92170965D01*
X109262828Y-92170964D01*
X109048663Y-92071097D01*
X109048659Y-92071096D01*
X109048655Y-92071094D01*
X108820413Y-92009938D01*
X108820403Y-92009936D01*
X108585001Y-91989341D01*
X108584999Y-91989341D01*
X108349596Y-92009936D01*
X108349586Y-92009938D01*
X108121344Y-92071094D01*
X108121335Y-92071098D01*
X107907171Y-92170964D01*
X107907169Y-92170965D01*
X107713597Y-92306505D01*
X107546505Y-92473597D01*
X107416575Y-92659158D01*
X107361998Y-92702783D01*
X107292500Y-92709977D01*
X107230145Y-92678454D01*
X107213425Y-92659158D01*
X107083494Y-92473597D01*
X106916402Y-92306506D01*
X106916395Y-92306501D01*
X106722834Y-92170967D01*
X106722830Y-92170965D01*
X106722828Y-92170964D01*
X106508663Y-92071097D01*
X106508659Y-92071096D01*
X106508655Y-92071094D01*
X106280413Y-92009938D01*
X106280403Y-92009936D01*
X106045001Y-91989341D01*
X106044999Y-91989341D01*
X105809596Y-92009936D01*
X105809586Y-92009938D01*
X105581344Y-92071094D01*
X105581335Y-92071098D01*
X105367171Y-92170964D01*
X105367169Y-92170965D01*
X105173597Y-92306505D01*
X105006505Y-92473597D01*
X104870965Y-92667169D01*
X104870964Y-92667171D01*
X104771098Y-92881335D01*
X104771094Y-92881344D01*
X104709938Y-93109586D01*
X104709936Y-93109596D01*
X104689341Y-93344999D01*
X104689341Y-93345000D01*
X104709936Y-93580403D01*
X104709938Y-93580413D01*
X104771094Y-93808655D01*
X104771096Y-93808659D01*
X104771097Y-93808663D01*
X104850801Y-93979588D01*
X104870965Y-94022830D01*
X104870967Y-94022834D01*
X104953813Y-94141149D01*
X105006504Y-94216400D01*
X105006506Y-94216402D01*
X105117223Y-94327119D01*
X105150708Y-94388442D01*
X105145724Y-94458134D01*
X105103852Y-94514067D01*
X105038388Y-94538484D01*
X105029542Y-94538800D01*
X102384400Y-94538800D01*
X102317361Y-94519115D01*
X102271606Y-94466311D01*
X102260400Y-94414800D01*
X102260400Y-93345000D01*
X102674953Y-93345000D01*
X102693092Y-93517576D01*
X102693093Y-93517579D01*
X102746712Y-93682608D01*
X102833477Y-93832887D01*
X102833476Y-93832887D01*
X102945879Y-93957723D01*
X102949590Y-93961845D01*
X103083364Y-94059038D01*
X103089976Y-94063842D01*
X103248495Y-94134420D01*
X103248498Y-94134421D01*
X103248499Y-94134421D01*
X103248501Y-94134422D01*
X103275933Y-94140252D01*
X103279594Y-94141149D01*
X103283628Y-94142269D01*
X103283638Y-94142273D01*
X103290096Y-94143331D01*
X103292899Y-94143859D01*
X103418236Y-94170500D01*
X103418237Y-94170500D01*
X103445723Y-94170500D01*
X103453478Y-94171130D01*
X103453493Y-94170855D01*
X103460194Y-94171217D01*
X103460204Y-94171219D01*
X103471788Y-94170590D01*
X103475142Y-94170500D01*
X103591760Y-94170500D01*
X103591764Y-94170500D01*
X103622850Y-94163892D01*
X103632231Y-94162650D01*
X103632227Y-94162620D01*
X103638854Y-94161532D01*
X103638864Y-94161532D01*
X103653099Y-94157579D01*
X103656712Y-94156694D01*
X103761499Y-94134422D01*
X103794517Y-94119721D01*
X103810197Y-94114090D01*
X103811250Y-94113669D01*
X103811264Y-94113666D01*
X103825900Y-94105905D01*
X103829679Y-94104066D01*
X103920024Y-94063842D01*
X103956399Y-94037413D01*
X103963794Y-94032799D01*
X103969344Y-94029857D01*
X103982610Y-94018587D01*
X103986269Y-94015711D01*
X104060410Y-93961845D01*
X104093395Y-93925210D01*
X104099321Y-93919453D01*
X104105712Y-93914025D01*
X104116351Y-93900029D01*
X104119572Y-93896138D01*
X104176522Y-93832889D01*
X104203415Y-93786309D01*
X104207723Y-93779830D01*
X104213991Y-93771586D01*
X104221203Y-93755995D01*
X104223741Y-93751103D01*
X104263286Y-93682611D01*
X104281330Y-93627073D01*
X104284012Y-93620238D01*
X104289119Y-93609200D01*
X104292634Y-93593229D01*
X104294215Y-93587418D01*
X104316908Y-93517576D01*
X104323513Y-93454731D01*
X104324614Y-93447943D01*
X104327582Y-93434461D01*
X104328188Y-93412019D01*
X104328503Y-93407256D01*
X104335047Y-93345000D01*
X104328500Y-93282717D01*
X104328188Y-93277979D01*
X104327582Y-93255539D01*
X104324615Y-93242061D01*
X104323511Y-93235245D01*
X104316908Y-93172424D01*
X104294213Y-93102577D01*
X104292630Y-93096750D01*
X104289120Y-93080804D01*
X104289119Y-93080803D01*
X104289119Y-93080800D01*
X104284018Y-93069774D01*
X104281324Y-93062907D01*
X104263286Y-93007389D01*
X104241746Y-92970082D01*
X104223761Y-92938929D01*
X104221183Y-92933959D01*
X104213991Y-92918414D01*
X104207736Y-92910186D01*
X104203404Y-92903671D01*
X104176522Y-92857111D01*
X104119592Y-92793884D01*
X104116324Y-92789935D01*
X104105712Y-92775975D01*
X104105710Y-92775973D01*
X104099330Y-92770554D01*
X104093390Y-92764782D01*
X104060411Y-92728156D01*
X104035390Y-92709977D01*
X103986285Y-92674299D01*
X103982596Y-92671399D01*
X103969347Y-92660145D01*
X103969346Y-92660144D01*
X103968308Y-92659594D01*
X103963794Y-92657200D01*
X103956401Y-92652587D01*
X103937821Y-92639088D01*
X103920028Y-92626160D01*
X103829704Y-92585945D01*
X103825880Y-92584083D01*
X103811264Y-92576334D01*
X103811261Y-92576333D01*
X103810243Y-92575927D01*
X103794503Y-92570272D01*
X103780129Y-92563872D01*
X103761498Y-92555577D01*
X103656760Y-92533315D01*
X103653066Y-92532411D01*
X103638862Y-92528467D01*
X103632229Y-92527380D01*
X103632233Y-92527350D01*
X103622849Y-92526106D01*
X103591766Y-92519500D01*
X103591764Y-92519500D01*
X103475142Y-92519500D01*
X103471788Y-92519409D01*
X103460204Y-92518781D01*
X103453493Y-92519145D01*
X103453478Y-92518869D01*
X103445723Y-92519500D01*
X103418232Y-92519500D01*
X103292932Y-92546134D01*
X103290074Y-92546671D01*
X103283632Y-92547727D01*
X103279580Y-92548852D01*
X103275897Y-92549753D01*
X103248502Y-92555577D01*
X103089977Y-92626158D01*
X103089972Y-92626160D01*
X102949591Y-92728153D01*
X102949589Y-92728155D01*
X102833477Y-92857112D01*
X102746712Y-93007391D01*
X102693093Y-93172420D01*
X102693092Y-93172424D01*
X102674953Y-93345000D01*
X102260400Y-93345000D01*
X102260400Y-90220800D01*
X108060540Y-90220800D01*
X108080326Y-90409056D01*
X108080327Y-90409059D01*
X108138818Y-90589077D01*
X108138821Y-90589084D01*
X108233467Y-90753016D01*
X108254227Y-90776072D01*
X108360129Y-90893688D01*
X108513265Y-91004948D01*
X108513270Y-91004951D01*
X108686192Y-91081942D01*
X108686197Y-91081944D01*
X108871354Y-91121300D01*
X108871355Y-91121300D01*
X109060644Y-91121300D01*
X109060646Y-91121300D01*
X109245803Y-91081944D01*
X109418730Y-91004951D01*
X109571871Y-90893688D01*
X109698533Y-90753016D01*
X109793179Y-90589084D01*
X109851674Y-90409056D01*
X109871460Y-90220800D01*
X109851674Y-90032544D01*
X109793179Y-89852516D01*
X109698533Y-89688584D01*
X109571871Y-89547912D01*
X109556895Y-89537031D01*
X109418734Y-89436651D01*
X109418729Y-89436648D01*
X109245807Y-89359657D01*
X109245802Y-89359655D01*
X109100001Y-89328665D01*
X109060646Y-89320300D01*
X108871354Y-89320300D01*
X108838897Y-89327198D01*
X108686197Y-89359655D01*
X108686192Y-89359657D01*
X108513270Y-89436648D01*
X108513265Y-89436651D01*
X108360129Y-89547911D01*
X108233466Y-89688585D01*
X108138821Y-89852515D01*
X108138818Y-89852522D01*
X108096947Y-89981389D01*
X108080326Y-90032544D01*
X108060540Y-90220800D01*
X102260400Y-90220800D01*
X102260400Y-84825200D01*
X107561941Y-84825200D01*
X107582536Y-85060603D01*
X107582538Y-85060613D01*
X107643694Y-85288855D01*
X107643696Y-85288859D01*
X107643697Y-85288863D01*
X107670661Y-85346687D01*
X107743564Y-85503028D01*
X107743565Y-85503030D01*
X107879105Y-85696602D01*
X108026667Y-85844164D01*
X108060152Y-85905487D01*
X108055168Y-85975179D01*
X108013296Y-86031112D01*
X108004083Y-86037383D01*
X107849259Y-86132880D01*
X107849255Y-86132883D01*
X107725284Y-86256854D01*
X107633243Y-86406075D01*
X107633241Y-86406080D01*
X107578094Y-86572502D01*
X107578093Y-86572509D01*
X107567600Y-86675213D01*
X107567600Y-87075200D01*
X108633914Y-87075200D01*
X108608107Y-87115356D01*
X108567600Y-87253311D01*
X108567600Y-87397089D01*
X108608107Y-87535044D01*
X108633914Y-87575200D01*
X107567601Y-87575200D01*
X107567601Y-87975186D01*
X107578094Y-88077897D01*
X107633241Y-88244319D01*
X107633243Y-88244324D01*
X107725284Y-88393545D01*
X107849254Y-88517515D01*
X107998475Y-88609556D01*
X107998480Y-88609558D01*
X108164902Y-88664705D01*
X108164909Y-88664706D01*
X108267619Y-88675199D01*
X108817599Y-88675199D01*
X108817600Y-88675198D01*
X108817600Y-87760701D01*
X108925285Y-87809880D01*
X109031837Y-87825200D01*
X109103363Y-87825200D01*
X109209915Y-87809880D01*
X109317600Y-87760701D01*
X109317600Y-88675199D01*
X109867572Y-88675199D01*
X109867586Y-88675198D01*
X109970297Y-88664705D01*
X110136719Y-88609558D01*
X110136724Y-88609556D01*
X110285945Y-88517515D01*
X110409915Y-88393545D01*
X110501956Y-88244324D01*
X110501958Y-88244319D01*
X110557105Y-88077897D01*
X110557106Y-88077890D01*
X110565625Y-87994503D01*
X114561235Y-87994503D01*
X114581430Y-88173749D01*
X114581431Y-88173754D01*
X114641011Y-88344023D01*
X114711586Y-88456342D01*
X114736984Y-88496762D01*
X114864538Y-88624316D01*
X114890796Y-88640815D01*
X114997102Y-88707612D01*
X115017278Y-88720289D01*
X115111724Y-88753337D01*
X115187545Y-88779868D01*
X115187550Y-88779869D01*
X115366796Y-88800065D01*
X115366800Y-88800065D01*
X115366804Y-88800065D01*
X115546049Y-88779869D01*
X115546052Y-88779868D01*
X115546055Y-88779868D01*
X115716322Y-88720289D01*
X115869062Y-88624316D01*
X115996616Y-88496762D01*
X116092589Y-88344022D01*
X116152168Y-88173755D01*
X116162969Y-88077897D01*
X116172365Y-87994503D01*
X116172365Y-87994496D01*
X116152169Y-87815250D01*
X116152168Y-87815245D01*
X116098386Y-87661546D01*
X116092589Y-87644978D01*
X116089249Y-87639663D01*
X116036574Y-87555831D01*
X115996616Y-87492238D01*
X115869062Y-87364684D01*
X115845121Y-87349641D01*
X115716323Y-87268711D01*
X115546054Y-87209131D01*
X115546049Y-87209130D01*
X115366804Y-87188935D01*
X115366796Y-87188935D01*
X115187550Y-87209130D01*
X115187545Y-87209131D01*
X115017276Y-87268711D01*
X114864537Y-87364684D01*
X114736984Y-87492237D01*
X114641011Y-87644976D01*
X114581431Y-87815245D01*
X114581430Y-87815250D01*
X114561235Y-87994496D01*
X114561235Y-87994503D01*
X110565625Y-87994503D01*
X110567599Y-87975186D01*
X110567600Y-87975173D01*
X110567600Y-87575200D01*
X109501286Y-87575200D01*
X109527093Y-87535044D01*
X109567600Y-87397089D01*
X109567600Y-87253311D01*
X109527093Y-87115356D01*
X109501286Y-87075200D01*
X110567599Y-87075200D01*
X110567599Y-86675228D01*
X110567598Y-86675213D01*
X110557105Y-86572502D01*
X110501958Y-86406080D01*
X110501956Y-86406075D01*
X110409915Y-86256854D01*
X110285944Y-86132883D01*
X110285940Y-86132880D01*
X110131116Y-86037383D01*
X110084391Y-85985435D01*
X110073170Y-85916473D01*
X110101013Y-85852391D01*
X110108532Y-85844164D01*
X110181004Y-85771692D01*
X110256095Y-85696601D01*
X110391635Y-85503030D01*
X110491503Y-85288863D01*
X110552663Y-85060608D01*
X110573259Y-84825200D01*
X110552663Y-84589792D01*
X110496673Y-84380831D01*
X110491505Y-84361544D01*
X110491504Y-84361543D01*
X110491503Y-84361537D01*
X110485890Y-84349500D01*
X111068497Y-84349500D01*
X111088283Y-84537756D01*
X111088284Y-84537759D01*
X111146775Y-84717777D01*
X111146778Y-84717784D01*
X111241424Y-84881716D01*
X111358092Y-85011289D01*
X111368086Y-85022388D01*
X111521222Y-85133648D01*
X111521227Y-85133651D01*
X111694149Y-85210642D01*
X111694150Y-85210642D01*
X111694154Y-85210644D01*
X111774110Y-85227639D01*
X111835592Y-85260831D01*
X111869369Y-85321994D01*
X111864717Y-85391708D01*
X111852523Y-85414556D01*
X111852917Y-85414784D01*
X111755022Y-85584343D01*
X111755019Y-85584350D01*
X111702109Y-85747192D01*
X111696527Y-85764372D01*
X111688141Y-85844164D01*
X111676579Y-85954163D01*
X111649994Y-86018778D01*
X111640940Y-86028882D01*
X111536583Y-86133239D01*
X111440611Y-86285976D01*
X111381031Y-86456245D01*
X111381030Y-86456250D01*
X111360835Y-86635496D01*
X111360835Y-86635503D01*
X111381030Y-86814749D01*
X111381031Y-86814754D01*
X111440611Y-86985023D01*
X111522505Y-87115356D01*
X111536584Y-87137762D01*
X111664138Y-87265316D01*
X111816878Y-87361289D01*
X111982758Y-87419333D01*
X111987145Y-87420868D01*
X111987150Y-87420869D01*
X112166396Y-87441065D01*
X112166400Y-87441065D01*
X112166404Y-87441065D01*
X112345649Y-87420869D01*
X112345652Y-87420868D01*
X112345655Y-87420868D01*
X112515922Y-87361289D01*
X112668662Y-87265316D01*
X112796216Y-87137762D01*
X112892189Y-86985022D01*
X112951055Y-86816790D01*
X112991776Y-86760017D01*
X113017657Y-86744469D01*
X113034931Y-86736779D01*
X113188072Y-86625516D01*
X113314734Y-86484844D01*
X113409380Y-86320912D01*
X113467875Y-86140884D01*
X113487661Y-85952628D01*
X113467875Y-85764372D01*
X113409380Y-85584344D01*
X113326831Y-85441365D01*
X113314736Y-85420415D01*
X113314735Y-85420414D01*
X113314734Y-85420412D01*
X113188072Y-85279740D01*
X113188067Y-85279736D01*
X113185606Y-85277003D01*
X113155376Y-85214011D01*
X113161323Y-85166203D01*
X114535835Y-85166203D01*
X114556030Y-85345449D01*
X114556031Y-85345454D01*
X114615611Y-85515723D01*
X114691116Y-85635888D01*
X114711584Y-85668462D01*
X114839138Y-85796016D01*
X114915765Y-85844164D01*
X114944346Y-85862123D01*
X114991878Y-85891989D01*
X115103208Y-85930945D01*
X115162145Y-85951568D01*
X115162150Y-85951569D01*
X115341396Y-85971765D01*
X115341400Y-85971765D01*
X115341404Y-85971765D01*
X115520649Y-85951569D01*
X115520652Y-85951568D01*
X115520655Y-85951568D01*
X115690922Y-85891989D01*
X115829191Y-85805109D01*
X116311958Y-85805109D01*
X116331744Y-85993365D01*
X116331745Y-85993368D01*
X116390236Y-86173386D01*
X116390239Y-86173393D01*
X116484885Y-86337325D01*
X116565580Y-86426946D01*
X116579207Y-86442080D01*
X116609437Y-86505071D01*
X116610277Y-86538935D01*
X116593235Y-86690195D01*
X116593235Y-86690203D01*
X116613430Y-86869449D01*
X116613431Y-86869454D01*
X116673011Y-87039723D01*
X116768984Y-87192462D01*
X116864840Y-87288318D01*
X116898325Y-87349641D01*
X116893341Y-87419333D01*
X116864842Y-87463678D01*
X116819785Y-87508736D01*
X116819784Y-87508737D01*
X116723811Y-87661476D01*
X116664231Y-87831745D01*
X116664230Y-87831750D01*
X116644035Y-88010996D01*
X116644035Y-88011003D01*
X116664230Y-88190249D01*
X116664231Y-88190254D01*
X116723811Y-88360523D01*
X116777341Y-88445715D01*
X116819784Y-88513262D01*
X116947338Y-88640816D01*
X117100078Y-88736789D01*
X117243690Y-88787041D01*
X117300466Y-88827763D01*
X117326214Y-88892716D01*
X117319778Y-88945037D01*
X117273832Y-89076342D01*
X117273830Y-89076350D01*
X117253635Y-89255596D01*
X117253635Y-89255603D01*
X117273830Y-89434849D01*
X117273831Y-89434854D01*
X117333411Y-89605123D01*
X117385854Y-89688585D01*
X117429384Y-89757862D01*
X117556938Y-89885416D01*
X117636904Y-89935662D01*
X117696129Y-89972876D01*
X117709678Y-89981389D01*
X117855859Y-90032540D01*
X117879945Y-90040968D01*
X117879950Y-90040969D01*
X118059196Y-90061165D01*
X118059200Y-90061165D01*
X118059204Y-90061165D01*
X118238449Y-90040969D01*
X118238452Y-90040968D01*
X118238455Y-90040968D01*
X118408722Y-89981389D01*
X118561462Y-89885416D01*
X118689016Y-89757862D01*
X118784989Y-89605122D01*
X118844568Y-89434855D01*
X118844732Y-89433400D01*
X118864765Y-89255603D01*
X118864765Y-89255596D01*
X118844569Y-89076350D01*
X118844568Y-89076345D01*
X118798621Y-88945037D01*
X118784989Y-88906078D01*
X118689016Y-88753338D01*
X118561462Y-88625784D01*
X118554588Y-88621465D01*
X118408721Y-88529810D01*
X118314273Y-88496762D01*
X118265106Y-88479557D01*
X118208332Y-88438837D01*
X118182584Y-88373885D01*
X118189020Y-88321565D01*
X118234968Y-88190255D01*
X118236828Y-88173754D01*
X118249721Y-88059316D01*
X118276787Y-87994902D01*
X118334382Y-87955347D01*
X118404219Y-87953209D01*
X118460622Y-87985518D01*
X118508599Y-88033495D01*
X118605384Y-88101265D01*
X118702165Y-88169032D01*
X118702167Y-88169033D01*
X118702170Y-88169035D01*
X118916337Y-88268903D01*
X119144592Y-88330063D01*
X119321034Y-88345500D01*
X119379999Y-88350659D01*
X119380000Y-88350659D01*
X119380001Y-88350659D01*
X119438966Y-88345500D01*
X119615408Y-88330063D01*
X119843663Y-88268903D01*
X120057830Y-88169035D01*
X120251401Y-88033495D01*
X120418495Y-87866401D01*
X120548425Y-87680842D01*
X120603002Y-87637217D01*
X120672500Y-87630023D01*
X120734855Y-87661546D01*
X120751575Y-87680842D01*
X120857238Y-87831745D01*
X120881505Y-87866401D01*
X121048599Y-88033495D01*
X121145384Y-88101265D01*
X121242165Y-88169032D01*
X121242167Y-88169033D01*
X121242170Y-88169035D01*
X121456337Y-88268903D01*
X121684592Y-88330063D01*
X121861034Y-88345500D01*
X121919999Y-88350659D01*
X121920000Y-88350659D01*
X121920001Y-88350659D01*
X121978966Y-88345500D01*
X122155408Y-88330063D01*
X122383663Y-88268903D01*
X122597830Y-88169035D01*
X122791401Y-88033495D01*
X122958495Y-87866401D01*
X123088425Y-87680842D01*
X123143002Y-87637217D01*
X123212500Y-87630023D01*
X123274855Y-87661546D01*
X123291575Y-87680842D01*
X123397238Y-87831745D01*
X123421505Y-87866401D01*
X123588599Y-88033495D01*
X123685384Y-88101265D01*
X123782165Y-88169032D01*
X123782167Y-88169033D01*
X123782170Y-88169035D01*
X123996337Y-88268903D01*
X124224592Y-88330063D01*
X124401034Y-88345500D01*
X124459999Y-88350659D01*
X124460000Y-88350659D01*
X124460001Y-88350659D01*
X124518966Y-88345500D01*
X124695408Y-88330063D01*
X124923663Y-88268903D01*
X125137830Y-88169035D01*
X125331401Y-88033495D01*
X125498495Y-87866401D01*
X125628425Y-87680842D01*
X125683002Y-87637217D01*
X125752500Y-87630023D01*
X125814855Y-87661546D01*
X125831575Y-87680842D01*
X125937238Y-87831745D01*
X125961505Y-87866401D01*
X126128599Y-88033495D01*
X126225384Y-88101265D01*
X126322165Y-88169032D01*
X126322167Y-88169033D01*
X126322170Y-88169035D01*
X126536337Y-88268903D01*
X126764592Y-88330063D01*
X126941034Y-88345500D01*
X126999999Y-88350659D01*
X127000000Y-88350659D01*
X127000001Y-88350659D01*
X127058966Y-88345500D01*
X127235408Y-88330063D01*
X127463663Y-88268903D01*
X127677830Y-88169035D01*
X127871401Y-88033495D01*
X128038495Y-87866401D01*
X128168425Y-87680842D01*
X128223002Y-87637217D01*
X128292500Y-87630023D01*
X128354855Y-87661546D01*
X128371575Y-87680842D01*
X128477238Y-87831745D01*
X128501505Y-87866401D01*
X128668599Y-88033495D01*
X128765384Y-88101265D01*
X128862165Y-88169032D01*
X128862167Y-88169033D01*
X128862170Y-88169035D01*
X129076337Y-88268903D01*
X129304592Y-88330063D01*
X129481034Y-88345500D01*
X129539999Y-88350659D01*
X129540000Y-88350659D01*
X129540001Y-88350659D01*
X129598966Y-88345500D01*
X129775408Y-88330063D01*
X130003663Y-88268903D01*
X130217830Y-88169035D01*
X130411401Y-88033495D01*
X130578495Y-87866401D01*
X130708425Y-87680842D01*
X130763002Y-87637217D01*
X130832500Y-87630023D01*
X130894855Y-87661546D01*
X130911575Y-87680842D01*
X131017238Y-87831745D01*
X131041505Y-87866401D01*
X131208599Y-88033495D01*
X131305384Y-88101265D01*
X131402165Y-88169032D01*
X131402167Y-88169033D01*
X131402170Y-88169035D01*
X131616337Y-88268903D01*
X131844592Y-88330063D01*
X132021034Y-88345500D01*
X132079999Y-88350659D01*
X132080000Y-88350659D01*
X132080001Y-88350659D01*
X132138966Y-88345500D01*
X132315408Y-88330063D01*
X132543663Y-88268903D01*
X132757830Y-88169035D01*
X132951401Y-88033495D01*
X133118495Y-87866401D01*
X133248425Y-87680842D01*
X133303002Y-87637217D01*
X133372500Y-87630023D01*
X133434855Y-87661546D01*
X133451575Y-87680842D01*
X133557238Y-87831745D01*
X133581505Y-87866401D01*
X133748599Y-88033495D01*
X133845384Y-88101265D01*
X133942165Y-88169032D01*
X133942167Y-88169033D01*
X133942170Y-88169035D01*
X134156337Y-88268903D01*
X134384592Y-88330063D01*
X134561034Y-88345500D01*
X134619999Y-88350659D01*
X134620000Y-88350659D01*
X134620001Y-88350659D01*
X134678966Y-88345500D01*
X134855408Y-88330063D01*
X135083663Y-88268903D01*
X135297830Y-88169035D01*
X135491401Y-88033495D01*
X135613329Y-87911566D01*
X135674648Y-87878084D01*
X135744340Y-87883068D01*
X135800274Y-87924939D01*
X135817189Y-87955917D01*
X135866202Y-88087328D01*
X135866206Y-88087335D01*
X135952452Y-88202544D01*
X135952455Y-88202547D01*
X136067664Y-88288793D01*
X136067671Y-88288797D01*
X136202517Y-88339091D01*
X136202516Y-88339091D01*
X136209444Y-88339835D01*
X136262127Y-88345500D01*
X138057872Y-88345499D01*
X138117483Y-88339091D01*
X138252331Y-88288796D01*
X138367546Y-88202546D01*
X138453796Y-88087331D01*
X138504091Y-87952483D01*
X138510500Y-87892873D01*
X138510499Y-87653587D01*
X138530183Y-87586550D01*
X138582987Y-87540795D01*
X138652146Y-87530851D01*
X138715701Y-87559876D01*
X138741122Y-87593118D01*
X138741906Y-87592626D01*
X138792302Y-87672830D01*
X138841584Y-87751262D01*
X138969138Y-87878816D01*
X139008147Y-87903327D01*
X139087533Y-87953209D01*
X139121878Y-87974789D01*
X139180078Y-87995154D01*
X139292145Y-88034368D01*
X139292150Y-88034369D01*
X139471396Y-88054565D01*
X139471400Y-88054565D01*
X139471404Y-88054565D01*
X139650649Y-88034369D01*
X139650652Y-88034368D01*
X139650655Y-88034368D01*
X139820922Y-87974789D01*
X139973662Y-87878816D01*
X140060730Y-87791747D01*
X140122049Y-87758265D01*
X140191741Y-87763249D01*
X140247675Y-87805120D01*
X140271628Y-87865547D01*
X140286230Y-87995150D01*
X140286231Y-87995154D01*
X140345811Y-88165423D01*
X140369138Y-88202547D01*
X140441784Y-88318162D01*
X140569338Y-88445716D01*
X140608355Y-88470232D01*
X140703172Y-88529810D01*
X140722078Y-88541689D01*
X140892345Y-88601268D01*
X140892350Y-88601269D01*
X141071596Y-88621465D01*
X141071600Y-88621465D01*
X141071604Y-88621465D01*
X141250849Y-88601269D01*
X141250852Y-88601268D01*
X141250855Y-88601268D01*
X141421122Y-88541689D01*
X141573862Y-88445716D01*
X141701416Y-88318162D01*
X141797389Y-88165422D01*
X141856968Y-87995155D01*
X141856997Y-87994902D01*
X141877165Y-87815903D01*
X141877165Y-87815896D01*
X141856969Y-87636650D01*
X141856966Y-87636637D01*
X141795089Y-87459805D01*
X141796555Y-87459291D01*
X141786541Y-87398491D01*
X141814261Y-87334356D01*
X141821934Y-87325944D01*
X141853813Y-87294065D01*
X141853813Y-87294064D01*
X141853816Y-87294062D01*
X141949789Y-87141322D01*
X142009368Y-86971055D01*
X142017433Y-86899478D01*
X142029565Y-86791803D01*
X142029565Y-86791796D01*
X142009369Y-86612550D01*
X142009368Y-86612545D01*
X141978023Y-86522967D01*
X141949789Y-86442278D01*
X141949546Y-86441892D01*
X141898076Y-86359977D01*
X141853816Y-86289538D01*
X141726262Y-86161984D01*
X141708853Y-86151045D01*
X141573523Y-86066011D01*
X141403254Y-86006431D01*
X141403249Y-86006430D01*
X141224004Y-85986235D01*
X141223996Y-85986235D01*
X141044750Y-86006430D01*
X141044745Y-86006431D01*
X140874476Y-86066011D01*
X140721737Y-86161984D01*
X140594182Y-86289539D01*
X140498452Y-86441892D01*
X140446117Y-86488182D01*
X140377064Y-86498830D01*
X140313216Y-86470455D01*
X140274844Y-86412065D01*
X140270239Y-86389802D01*
X140256769Y-86270250D01*
X140256768Y-86270245D01*
X140222878Y-86173393D01*
X140197189Y-86099978D01*
X140190929Y-86090016D01*
X140130200Y-85993366D01*
X140101216Y-85947238D01*
X139973662Y-85819684D01*
X139922370Y-85787455D01*
X139820920Y-85723709D01*
X139781136Y-85709788D01*
X139724360Y-85669066D01*
X139698614Y-85604113D01*
X139712071Y-85535551D01*
X139734414Y-85505063D01*
X139736716Y-85502762D01*
X139832689Y-85350022D01*
X139892268Y-85179755D01*
X139893795Y-85166203D01*
X139912465Y-85000503D01*
X139912465Y-85000496D01*
X139892269Y-84821248D01*
X139873050Y-84766324D01*
X139869488Y-84696545D01*
X139885095Y-84659401D01*
X139939062Y-84573516D01*
X139977119Y-84464755D01*
X139998639Y-84403256D01*
X139998642Y-84403243D01*
X140018838Y-84223997D01*
X140018838Y-84223991D01*
X140014699Y-84187258D01*
X140026753Y-84118436D01*
X140074102Y-84067057D01*
X140124035Y-84050154D01*
X140157189Y-84046418D01*
X140234850Y-84037669D01*
X140234853Y-84037668D01*
X140234855Y-84037668D01*
X140405122Y-83978089D01*
X140557862Y-83882116D01*
X140685416Y-83754562D01*
X140781389Y-83601822D01*
X140840968Y-83431555D01*
X140842620Y-83416894D01*
X140861165Y-83252303D01*
X140861165Y-83252296D01*
X140840969Y-83073050D01*
X140840966Y-83073037D01*
X140793036Y-82936061D01*
X140789474Y-82866282D01*
X140824202Y-82805655D01*
X140886196Y-82773427D01*
X140951032Y-82778065D01*
X141019337Y-82801966D01*
X141019343Y-82801967D01*
X141019345Y-82801968D01*
X141019346Y-82801968D01*
X141019350Y-82801969D01*
X141198596Y-82822165D01*
X141198600Y-82822165D01*
X141198604Y-82822165D01*
X141377849Y-82801969D01*
X141377852Y-82801968D01*
X141377855Y-82801968D01*
X141548122Y-82742389D01*
X141700862Y-82646416D01*
X141828416Y-82518862D01*
X141924389Y-82366122D01*
X141983968Y-82195855D01*
X142004165Y-82016600D01*
X141983968Y-81837345D01*
X141924389Y-81667078D01*
X141922126Y-81663476D01*
X141921374Y-81660815D01*
X141921369Y-81660805D01*
X141921370Y-81660804D01*
X141903123Y-81596240D01*
X141922126Y-81531524D01*
X141924388Y-81527923D01*
X141924389Y-81527922D01*
X141983968Y-81357655D01*
X142004165Y-81178400D01*
X141983968Y-80999145D01*
X141924389Y-80828878D01*
X141828416Y-80676138D01*
X141700862Y-80548584D01*
X141548123Y-80452611D01*
X141377854Y-80393031D01*
X141377849Y-80393030D01*
X141198604Y-80372835D01*
X141198596Y-80372835D01*
X141019350Y-80393030D01*
X141019345Y-80393031D01*
X140849076Y-80452611D01*
X140696337Y-80548584D01*
X140568784Y-80676137D01*
X140472811Y-80828876D01*
X140413231Y-80999145D01*
X140413230Y-80999150D01*
X140393035Y-81178396D01*
X140393035Y-81178403D01*
X140413230Y-81357649D01*
X140413233Y-81357662D01*
X140472809Y-81527921D01*
X140475077Y-81531529D01*
X140475828Y-81534189D01*
X140475831Y-81534194D01*
X140475830Y-81534194D01*
X140494077Y-81598766D01*
X140475077Y-81663471D01*
X140472809Y-81667078D01*
X140413233Y-81837337D01*
X140413230Y-81837350D01*
X140393035Y-82016596D01*
X140393035Y-82016603D01*
X140413230Y-82195849D01*
X140413232Y-82195857D01*
X140461164Y-82332839D01*
X140464725Y-82402618D01*
X140429996Y-82463245D01*
X140368003Y-82495472D01*
X140303168Y-82490835D01*
X140234857Y-82466932D01*
X140234849Y-82466930D01*
X140055604Y-82446735D01*
X140055596Y-82446735D01*
X139876350Y-82466930D01*
X139876342Y-82466932D01*
X139727817Y-82518903D01*
X139658038Y-82522464D01*
X139645909Y-82518903D01*
X139497384Y-82466932D01*
X139497376Y-82466930D01*
X139318131Y-82446735D01*
X139318123Y-82446735D01*
X139138877Y-82466930D01*
X139138872Y-82466931D01*
X138968603Y-82526511D01*
X138815864Y-82622484D01*
X138688311Y-82750037D01*
X138592338Y-82902776D01*
X138532758Y-83073045D01*
X138532757Y-83073050D01*
X138512562Y-83252296D01*
X138512562Y-83252303D01*
X138532757Y-83431549D01*
X138532760Y-83431562D01*
X138594637Y-83608394D01*
X138592927Y-83608992D01*
X138602793Y-83668893D01*
X138584713Y-83719732D01*
X138546276Y-83780903D01*
X138493941Y-83827194D01*
X138424888Y-83837841D01*
X138361040Y-83809466D01*
X138337554Y-83781315D01*
X138337140Y-83781605D01*
X138198494Y-83583597D01*
X138031402Y-83416506D01*
X138031395Y-83416501D01*
X137837834Y-83280967D01*
X137837830Y-83280965D01*
X137776349Y-83252296D01*
X137623663Y-83181097D01*
X137623659Y-83181096D01*
X137623655Y-83181094D01*
X137395413Y-83119938D01*
X137395403Y-83119936D01*
X137160001Y-83099341D01*
X137159999Y-83099341D01*
X136924596Y-83119936D01*
X136924586Y-83119938D01*
X136696344Y-83181094D01*
X136696335Y-83181098D01*
X136482171Y-83280964D01*
X136482169Y-83280965D01*
X136288597Y-83416505D01*
X136121508Y-83583594D01*
X135991269Y-83769595D01*
X135936692Y-83813219D01*
X135867193Y-83820412D01*
X135804839Y-83788890D01*
X135788119Y-83769594D01*
X135658113Y-83583926D01*
X135658108Y-83583920D01*
X135491082Y-83416894D01*
X135297578Y-83281399D01*
X135083492Y-83181570D01*
X135083486Y-83181567D01*
X134870000Y-83124364D01*
X134870000Y-84019498D01*
X134762315Y-83970320D01*
X134655763Y-83955000D01*
X134584237Y-83955000D01*
X134477685Y-83970320D01*
X134370000Y-84019498D01*
X134370000Y-83124364D01*
X134369999Y-83124364D01*
X134156513Y-83181567D01*
X134156507Y-83181570D01*
X133942422Y-83281399D01*
X133942420Y-83281400D01*
X133748926Y-83416886D01*
X133748920Y-83416891D01*
X133581891Y-83583920D01*
X133581890Y-83583922D01*
X133451880Y-83769595D01*
X133397303Y-83813219D01*
X133327804Y-83820412D01*
X133265450Y-83788890D01*
X133248730Y-83769594D01*
X133118494Y-83583597D01*
X132951402Y-83416506D01*
X132951395Y-83416501D01*
X132757834Y-83280967D01*
X132757830Y-83280965D01*
X132696349Y-83252296D01*
X132543663Y-83181097D01*
X132543659Y-83181096D01*
X132543655Y-83181094D01*
X132315413Y-83119938D01*
X132315403Y-83119936D01*
X132080001Y-83099341D01*
X132079999Y-83099341D01*
X131844596Y-83119936D01*
X131844586Y-83119938D01*
X131616344Y-83181094D01*
X131616335Y-83181098D01*
X131402171Y-83280964D01*
X131402169Y-83280965D01*
X131208597Y-83416505D01*
X131041505Y-83583597D01*
X130911575Y-83769158D01*
X130856998Y-83812783D01*
X130787500Y-83819977D01*
X130725145Y-83788454D01*
X130708425Y-83769158D01*
X130578494Y-83583597D01*
X130411402Y-83416506D01*
X130411395Y-83416501D01*
X130217834Y-83280967D01*
X130217830Y-83280965D01*
X130156349Y-83252296D01*
X130003663Y-83181097D01*
X130003659Y-83181096D01*
X130003655Y-83181094D01*
X129775413Y-83119938D01*
X129775403Y-83119936D01*
X129540001Y-83099341D01*
X129539999Y-83099341D01*
X129304596Y-83119936D01*
X129304586Y-83119938D01*
X129076344Y-83181094D01*
X129076335Y-83181098D01*
X128862171Y-83280964D01*
X128862169Y-83280965D01*
X128668597Y-83416505D01*
X128501505Y-83583597D01*
X128371575Y-83769158D01*
X128316998Y-83812783D01*
X128247500Y-83819977D01*
X128185145Y-83788454D01*
X128168425Y-83769158D01*
X128038494Y-83583597D01*
X127871402Y-83416506D01*
X127871395Y-83416501D01*
X127677834Y-83280967D01*
X127677830Y-83280965D01*
X127616349Y-83252296D01*
X127463663Y-83181097D01*
X127463659Y-83181096D01*
X127463655Y-83181094D01*
X127235413Y-83119938D01*
X127235403Y-83119936D01*
X127000001Y-83099341D01*
X126999999Y-83099341D01*
X126764596Y-83119936D01*
X126764586Y-83119938D01*
X126536344Y-83181094D01*
X126536335Y-83181098D01*
X126322171Y-83280964D01*
X126322169Y-83280965D01*
X126128597Y-83416505D01*
X125961505Y-83583597D01*
X125831575Y-83769158D01*
X125776998Y-83812783D01*
X125707500Y-83819977D01*
X125645145Y-83788454D01*
X125628425Y-83769158D01*
X125498494Y-83583597D01*
X125331402Y-83416506D01*
X125331395Y-83416501D01*
X125137834Y-83280967D01*
X125137830Y-83280965D01*
X125076349Y-83252296D01*
X124923663Y-83181097D01*
X124923659Y-83181096D01*
X124923655Y-83181094D01*
X124695413Y-83119938D01*
X124695403Y-83119936D01*
X124460001Y-83099341D01*
X124459999Y-83099341D01*
X124224596Y-83119936D01*
X124224586Y-83119938D01*
X123996344Y-83181094D01*
X123996335Y-83181098D01*
X123782171Y-83280964D01*
X123782169Y-83280965D01*
X123588597Y-83416505D01*
X123421505Y-83583597D01*
X123291575Y-83769158D01*
X123236998Y-83812783D01*
X123167500Y-83819977D01*
X123105145Y-83788454D01*
X123088425Y-83769158D01*
X122958494Y-83583597D01*
X122791402Y-83416506D01*
X122791395Y-83416501D01*
X122597834Y-83280967D01*
X122597830Y-83280965D01*
X122536349Y-83252296D01*
X122383663Y-83181097D01*
X122383659Y-83181096D01*
X122383655Y-83181094D01*
X122155413Y-83119938D01*
X122155403Y-83119936D01*
X121920001Y-83099341D01*
X121919999Y-83099341D01*
X121684596Y-83119936D01*
X121684586Y-83119938D01*
X121456344Y-83181094D01*
X121456335Y-83181098D01*
X121242171Y-83280964D01*
X121242169Y-83280965D01*
X121048597Y-83416505D01*
X120881508Y-83583594D01*
X120751269Y-83769595D01*
X120696692Y-83813219D01*
X120627193Y-83820412D01*
X120564839Y-83788890D01*
X120548119Y-83769594D01*
X120418113Y-83583926D01*
X120418108Y-83583920D01*
X120251082Y-83416894D01*
X120057578Y-83281399D01*
X119843492Y-83181570D01*
X119843486Y-83181567D01*
X119630000Y-83124364D01*
X119630000Y-84019498D01*
X119522315Y-83970320D01*
X119415763Y-83955000D01*
X119344237Y-83955000D01*
X119237685Y-83970320D01*
X119130000Y-84019498D01*
X119130000Y-83124364D01*
X119129999Y-83124364D01*
X118916513Y-83181567D01*
X118916507Y-83181570D01*
X118702422Y-83281399D01*
X118702420Y-83281400D01*
X118508926Y-83416886D01*
X118508920Y-83416891D01*
X118341891Y-83583920D01*
X118341886Y-83583926D01*
X118206400Y-83777420D01*
X118206399Y-83777422D01*
X118106569Y-83991508D01*
X118095134Y-84034182D01*
X118058768Y-84093842D01*
X117995920Y-84124370D01*
X117989246Y-84125306D01*
X117982291Y-84126089D01*
X117812019Y-84185669D01*
X117659278Y-84281643D01*
X117531725Y-84409196D01*
X117435752Y-84561935D01*
X117376172Y-84732204D01*
X117376171Y-84732208D01*
X117369154Y-84794493D01*
X117342087Y-84858907D01*
X117284492Y-84898462D01*
X117245934Y-84904609D01*
X117122772Y-84904609D01*
X117090545Y-84911459D01*
X116937615Y-84943964D01*
X116937610Y-84943966D01*
X116764688Y-85020957D01*
X116764683Y-85020960D01*
X116611547Y-85132220D01*
X116484884Y-85272894D01*
X116390239Y-85436824D01*
X116390236Y-85436831D01*
X116331745Y-85616849D01*
X116331744Y-85616853D01*
X116311958Y-85805109D01*
X115829191Y-85805109D01*
X115843662Y-85796016D01*
X115971216Y-85668462D01*
X116067189Y-85515722D01*
X116126768Y-85345455D01*
X116128915Y-85326400D01*
X116146965Y-85166203D01*
X116146965Y-85166196D01*
X116126769Y-84986950D01*
X116126768Y-84986945D01*
X116110026Y-84939099D01*
X116067189Y-84816678D01*
X116035549Y-84766324D01*
X116005045Y-84717777D01*
X115971216Y-84663938D01*
X115843662Y-84536384D01*
X115690923Y-84440411D01*
X115520654Y-84380831D01*
X115520649Y-84380830D01*
X115341404Y-84360635D01*
X115341396Y-84360635D01*
X115162150Y-84380830D01*
X115162145Y-84380831D01*
X114991876Y-84440411D01*
X114839137Y-84536384D01*
X114711584Y-84663937D01*
X114615611Y-84816676D01*
X114556031Y-84986945D01*
X114556030Y-84986950D01*
X114535835Y-85166196D01*
X114535835Y-85166203D01*
X113161323Y-85166203D01*
X113164001Y-85144676D01*
X113208742Y-85091010D01*
X113275395Y-85070052D01*
X113291639Y-85070810D01*
X113471409Y-85091065D01*
X113471413Y-85091065D01*
X113471417Y-85091065D01*
X113650662Y-85070869D01*
X113650665Y-85070868D01*
X113650668Y-85070868D01*
X113820935Y-85011289D01*
X113973675Y-84915316D01*
X114101229Y-84787762D01*
X114197202Y-84635022D01*
X114256781Y-84464755D01*
X114263041Y-84409196D01*
X114276978Y-84285503D01*
X114276978Y-84285496D01*
X114256782Y-84106250D01*
X114256780Y-84106240D01*
X114240703Y-84060297D01*
X114237140Y-83990518D01*
X114271868Y-83929891D01*
X114333861Y-83897663D01*
X114403437Y-83904067D01*
X114423716Y-83914347D01*
X114458142Y-83935978D01*
X114458478Y-83936189D01*
X114587155Y-83981215D01*
X114628745Y-83995768D01*
X114628750Y-83995769D01*
X114807996Y-84015965D01*
X114808000Y-84015965D01*
X114808004Y-84015965D01*
X114987249Y-83995769D01*
X114987252Y-83995768D01*
X114987255Y-83995768D01*
X115157522Y-83936189D01*
X115310262Y-83840216D01*
X115397855Y-83752622D01*
X115459174Y-83719140D01*
X115528866Y-83724124D01*
X115584800Y-83765995D01*
X115590526Y-83774333D01*
X115623041Y-83826078D01*
X115625984Y-83830762D01*
X115753538Y-83958316D01*
X115813144Y-83995769D01*
X115901891Y-84051533D01*
X115906278Y-84054289D01*
X116054760Y-84106245D01*
X116076545Y-84113868D01*
X116076550Y-84113869D01*
X116255796Y-84134065D01*
X116255800Y-84134065D01*
X116255804Y-84134065D01*
X116435049Y-84113869D01*
X116435052Y-84113868D01*
X116435055Y-84113868D01*
X116605322Y-84054289D01*
X116758062Y-83958316D01*
X116885616Y-83830762D01*
X116981589Y-83678022D01*
X117041168Y-83507755D01*
X117041169Y-83507749D01*
X117061365Y-83328503D01*
X117061365Y-83328496D01*
X117041169Y-83149250D01*
X117041168Y-83149245D01*
X116981588Y-82978976D01*
X116907382Y-82860878D01*
X116885616Y-82826238D01*
X116758062Y-82698684D01*
X116758060Y-82698683D01*
X116605323Y-82602711D01*
X116435054Y-82543131D01*
X116435049Y-82543130D01*
X116255804Y-82522935D01*
X116255796Y-82522935D01*
X116076550Y-82543130D01*
X116076545Y-82543131D01*
X115906276Y-82602711D01*
X115753539Y-82698683D01*
X115665946Y-82786276D01*
X115604622Y-82819760D01*
X115534931Y-82814776D01*
X115478997Y-82772904D01*
X115473271Y-82764565D01*
X115464143Y-82750038D01*
X115437816Y-82708138D01*
X115310262Y-82580584D01*
X115250656Y-82543131D01*
X115157523Y-82484611D01*
X114987254Y-82425031D01*
X114987249Y-82425030D01*
X114808004Y-82404835D01*
X114807996Y-82404835D01*
X114628750Y-82425030D01*
X114628745Y-82425031D01*
X114458476Y-82484611D01*
X114305737Y-82580584D01*
X114178184Y-82708137D01*
X114082211Y-82860876D01*
X114022631Y-83031145D01*
X114022630Y-83031150D01*
X114002435Y-83210396D01*
X114002435Y-83210403D01*
X114022630Y-83389649D01*
X114022633Y-83389662D01*
X114038709Y-83435603D01*
X114042271Y-83505382D01*
X114007543Y-83566009D01*
X113945549Y-83598237D01*
X113875974Y-83591832D01*
X113855697Y-83581552D01*
X113820938Y-83559712D01*
X113650667Y-83500131D01*
X113650662Y-83500130D01*
X113471417Y-83479935D01*
X113471409Y-83479935D01*
X113292163Y-83500130D01*
X113292150Y-83500133D01*
X113121893Y-83559709D01*
X113086509Y-83581942D01*
X113019272Y-83600941D01*
X112979585Y-83593989D01*
X112973420Y-83591832D01*
X112952455Y-83584496D01*
X112952454Y-83584495D01*
X112952452Y-83584495D01*
X112773204Y-83564299D01*
X112773196Y-83564299D01*
X112593946Y-83584495D01*
X112593945Y-83584495D01*
X112560140Y-83596324D01*
X112490361Y-83599885D01*
X112446301Y-83579599D01*
X112426687Y-83565349D01*
X112426686Y-83565348D01*
X112253764Y-83488357D01*
X112253759Y-83488355D01*
X112072418Y-83449811D01*
X112068603Y-83449000D01*
X111879311Y-83449000D01*
X111875496Y-83449811D01*
X111694154Y-83488355D01*
X111694149Y-83488357D01*
X111521227Y-83565348D01*
X111521222Y-83565351D01*
X111368086Y-83676611D01*
X111241423Y-83817285D01*
X111146778Y-83981215D01*
X111146775Y-83981222D01*
X111088284Y-84161240D01*
X111088283Y-84161244D01*
X111068497Y-84349500D01*
X110485890Y-84349500D01*
X110391635Y-84147371D01*
X110391634Y-84147369D01*
X110256094Y-83953797D01*
X110089002Y-83786705D01*
X109895430Y-83651165D01*
X109895428Y-83651164D01*
X109787724Y-83600941D01*
X109681263Y-83551297D01*
X109681259Y-83551296D01*
X109681255Y-83551294D01*
X109453013Y-83490138D01*
X109453003Y-83490136D01*
X109276566Y-83474700D01*
X108858634Y-83474700D01*
X108682196Y-83490136D01*
X108682186Y-83490138D01*
X108453944Y-83551294D01*
X108453935Y-83551298D01*
X108239771Y-83651164D01*
X108239769Y-83651165D01*
X108046197Y-83786705D01*
X107879106Y-83953797D01*
X107879101Y-83953804D01*
X107743567Y-84147365D01*
X107743565Y-84147369D01*
X107643698Y-84361535D01*
X107643694Y-84361544D01*
X107582538Y-84589786D01*
X107582536Y-84589796D01*
X107561941Y-84825199D01*
X107561941Y-84825200D01*
X102260400Y-84825200D01*
X102260400Y-78105000D01*
X102674953Y-78105000D01*
X102693092Y-78277576D01*
X102693093Y-78277579D01*
X102746712Y-78442608D01*
X102833477Y-78592887D01*
X102833476Y-78592887D01*
X102945879Y-78717723D01*
X102949590Y-78721845D01*
X103083364Y-78819038D01*
X103089976Y-78823842D01*
X103248495Y-78894420D01*
X103248498Y-78894421D01*
X103248499Y-78894421D01*
X103248501Y-78894422D01*
X103275933Y-78900252D01*
X103279594Y-78901149D01*
X103283628Y-78902269D01*
X103283638Y-78902273D01*
X103290096Y-78903331D01*
X103292899Y-78903859D01*
X103418236Y-78930500D01*
X103418237Y-78930500D01*
X103445723Y-78930500D01*
X103453478Y-78931130D01*
X103453493Y-78930855D01*
X103460194Y-78931217D01*
X103460204Y-78931219D01*
X103471788Y-78930590D01*
X103475142Y-78930500D01*
X103591760Y-78930500D01*
X103591764Y-78930500D01*
X103622850Y-78923892D01*
X103632231Y-78922650D01*
X103632227Y-78922620D01*
X103638854Y-78921532D01*
X103638864Y-78921532D01*
X103653099Y-78917579D01*
X103656712Y-78916694D01*
X103761499Y-78894422D01*
X103794517Y-78879721D01*
X103810197Y-78874090D01*
X103811250Y-78873669D01*
X103811264Y-78873666D01*
X103825900Y-78865905D01*
X103829679Y-78864066D01*
X103920024Y-78823842D01*
X103956399Y-78797413D01*
X103963794Y-78792799D01*
X103969344Y-78789857D01*
X103982610Y-78778587D01*
X103986269Y-78775711D01*
X104060410Y-78721845D01*
X104093395Y-78685210D01*
X104099321Y-78679453D01*
X104105712Y-78674025D01*
X104116351Y-78660029D01*
X104119572Y-78656138D01*
X104176522Y-78592889D01*
X104203415Y-78546309D01*
X104207723Y-78539830D01*
X104213991Y-78531586D01*
X104221203Y-78515995D01*
X104223741Y-78511103D01*
X104263286Y-78442611D01*
X104281330Y-78387073D01*
X104284012Y-78380238D01*
X104289119Y-78369200D01*
X104292634Y-78353229D01*
X104294215Y-78347418D01*
X104296493Y-78340408D01*
X104316908Y-78277576D01*
X104323513Y-78214731D01*
X104324614Y-78207943D01*
X104327582Y-78194461D01*
X104328188Y-78172019D01*
X104328503Y-78167256D01*
X104335047Y-78105000D01*
X104328500Y-78042717D01*
X104328188Y-78037979D01*
X104327582Y-78015539D01*
X104324615Y-78002061D01*
X104323511Y-77995245D01*
X104316908Y-77932424D01*
X104294213Y-77862577D01*
X104292630Y-77856750D01*
X104289120Y-77840804D01*
X104289119Y-77840803D01*
X104289119Y-77840800D01*
X104284018Y-77829774D01*
X104281324Y-77822907D01*
X104263286Y-77767389D01*
X104241746Y-77730082D01*
X104223761Y-77698929D01*
X104221183Y-77693959D01*
X104213991Y-77678414D01*
X104207736Y-77670186D01*
X104203404Y-77663671D01*
X104176522Y-77617111D01*
X104119592Y-77553884D01*
X104116324Y-77549935D01*
X104105712Y-77535975D01*
X104105710Y-77535973D01*
X104099330Y-77530554D01*
X104093390Y-77524782D01*
X104060411Y-77488156D01*
X104035390Y-77469977D01*
X103986285Y-77434299D01*
X103982596Y-77431399D01*
X103969347Y-77420145D01*
X103969346Y-77420144D01*
X103968308Y-77419594D01*
X103963794Y-77417200D01*
X103956401Y-77412587D01*
X103937821Y-77399088D01*
X103920028Y-77386160D01*
X103829704Y-77345945D01*
X103825880Y-77344083D01*
X103811264Y-77336334D01*
X103811261Y-77336333D01*
X103810243Y-77335927D01*
X103794503Y-77330272D01*
X103780129Y-77323872D01*
X103761498Y-77315577D01*
X103656760Y-77293315D01*
X103653066Y-77292411D01*
X103638862Y-77288467D01*
X103632229Y-77287380D01*
X103632233Y-77287350D01*
X103622849Y-77286106D01*
X103591766Y-77279500D01*
X103591764Y-77279500D01*
X103475142Y-77279500D01*
X103471788Y-77279409D01*
X103460204Y-77278781D01*
X103453493Y-77279145D01*
X103453478Y-77278869D01*
X103445723Y-77279500D01*
X103418232Y-77279500D01*
X103292932Y-77306134D01*
X103290074Y-77306671D01*
X103283632Y-77307727D01*
X103279580Y-77308852D01*
X103275897Y-77309753D01*
X103248502Y-77315577D01*
X103089977Y-77386158D01*
X103089972Y-77386160D01*
X102949591Y-77488153D01*
X102949589Y-77488155D01*
X102833477Y-77617112D01*
X102746712Y-77767391D01*
X102694695Y-77927489D01*
X102693092Y-77932424D01*
X102674953Y-78105000D01*
X102260400Y-78105000D01*
X102260400Y-76984400D01*
X102280085Y-76917361D01*
X102332889Y-76871606D01*
X102384400Y-76860400D01*
X105050341Y-76860400D01*
X105117380Y-76880085D01*
G37*
%TD.AperFunction*%
%TD*%
%TA.AperFunction,NonConductor*%
G36*
X140226442Y-76880085D02*
G01*
X140272197Y-76932889D01*
X140282141Y-77002047D01*
X140275585Y-77027734D01*
X140232189Y-77144083D01*
X140190317Y-77200016D01*
X140124853Y-77224433D01*
X140056580Y-77209581D01*
X140028326Y-77188430D01*
X139911977Y-77072081D01*
X139878492Y-77010758D01*
X139883476Y-76941066D01*
X139925348Y-76885133D01*
X139990812Y-76860716D01*
X139999658Y-76860400D01*
X140159403Y-76860400D01*
X140226442Y-76880085D01*
G37*
%TD.AperFunction*%
%TA.AperFunction,NonConductor*%
G36*
X138137380Y-76880085D02*
G01*
X138183135Y-76932889D01*
X138193079Y-77002047D01*
X138164054Y-77065603D01*
X138158022Y-77072081D01*
X137996505Y-77233597D01*
X137866575Y-77419158D01*
X137811998Y-77462783D01*
X137742500Y-77469977D01*
X137680145Y-77438454D01*
X137663425Y-77419158D01*
X137533496Y-77233600D01*
X137488326Y-77188430D01*
X137371975Y-77072079D01*
X137338492Y-77010758D01*
X137343476Y-76941067D01*
X137385347Y-76885133D01*
X137450812Y-76860716D01*
X137459658Y-76860400D01*
X138070341Y-76860400D01*
X138137380Y-76880085D01*
G37*
%TD.AperFunction*%
%TA.AperFunction,NonConductor*%
G36*
X135597380Y-76880085D02*
G01*
X135643135Y-76932889D01*
X135653079Y-77002047D01*
X135624054Y-77065603D01*
X135618022Y-77072081D01*
X135456505Y-77233597D01*
X135326575Y-77419158D01*
X135271998Y-77462783D01*
X135202500Y-77469977D01*
X135140145Y-77438454D01*
X135123425Y-77419158D01*
X134993496Y-77233600D01*
X134948326Y-77188430D01*
X134831975Y-77072079D01*
X134798492Y-77010758D01*
X134803476Y-76941067D01*
X134845347Y-76885133D01*
X134910812Y-76860716D01*
X134919658Y-76860400D01*
X135530341Y-76860400D01*
X135597380Y-76880085D01*
G37*
%TD.AperFunction*%
%TA.AperFunction,NonConductor*%
G36*
X133057380Y-76880085D02*
G01*
X133103135Y-76932889D01*
X133113079Y-77002047D01*
X133084054Y-77065603D01*
X133078022Y-77072081D01*
X132916505Y-77233597D01*
X132786575Y-77419158D01*
X132731998Y-77462783D01*
X132662500Y-77469977D01*
X132600145Y-77438454D01*
X132583425Y-77419158D01*
X132453496Y-77233600D01*
X132408326Y-77188430D01*
X132291975Y-77072079D01*
X132258492Y-77010758D01*
X132263476Y-76941067D01*
X132305347Y-76885133D01*
X132370812Y-76860716D01*
X132379658Y-76860400D01*
X132990341Y-76860400D01*
X133057380Y-76880085D01*
G37*
%TD.AperFunction*%
%TA.AperFunction,NonConductor*%
G36*
X130517380Y-76880085D02*
G01*
X130563135Y-76932889D01*
X130573079Y-77002047D01*
X130544054Y-77065603D01*
X130538022Y-77072081D01*
X130376505Y-77233597D01*
X130246575Y-77419158D01*
X130191998Y-77462783D01*
X130122500Y-77469977D01*
X130060145Y-77438454D01*
X130043425Y-77419158D01*
X129913496Y-77233600D01*
X129868326Y-77188430D01*
X129751975Y-77072079D01*
X129718492Y-77010758D01*
X129723476Y-76941067D01*
X129765347Y-76885133D01*
X129830812Y-76860716D01*
X129839658Y-76860400D01*
X130450341Y-76860400D01*
X130517380Y-76880085D01*
G37*
%TD.AperFunction*%
%TA.AperFunction,NonConductor*%
G36*
X127977380Y-76880085D02*
G01*
X128023135Y-76932889D01*
X128033079Y-77002047D01*
X128004054Y-77065603D01*
X127998022Y-77072081D01*
X127836505Y-77233597D01*
X127706575Y-77419158D01*
X127651998Y-77462783D01*
X127582500Y-77469977D01*
X127520145Y-77438454D01*
X127503425Y-77419158D01*
X127373496Y-77233600D01*
X127328326Y-77188430D01*
X127211975Y-77072079D01*
X127178492Y-77010758D01*
X127183476Y-76941067D01*
X127225347Y-76885133D01*
X127290812Y-76860716D01*
X127299658Y-76860400D01*
X127910341Y-76860400D01*
X127977380Y-76880085D01*
G37*
%TD.AperFunction*%
%TA.AperFunction,NonConductor*%
G36*
X125437380Y-76880085D02*
G01*
X125483135Y-76932889D01*
X125493079Y-77002047D01*
X125464054Y-77065603D01*
X125458022Y-77072081D01*
X125296505Y-77233597D01*
X125166575Y-77419158D01*
X125111998Y-77462783D01*
X125042500Y-77469977D01*
X124980145Y-77438454D01*
X124963425Y-77419158D01*
X124833496Y-77233600D01*
X124788326Y-77188430D01*
X124671975Y-77072079D01*
X124638492Y-77010758D01*
X124643476Y-76941067D01*
X124685347Y-76885133D01*
X124750812Y-76860716D01*
X124759658Y-76860400D01*
X125370341Y-76860400D01*
X125437380Y-76880085D01*
G37*
%TD.AperFunction*%
%TA.AperFunction,NonConductor*%
G36*
X122897380Y-76880085D02*
G01*
X122943135Y-76932889D01*
X122953079Y-77002047D01*
X122924054Y-77065603D01*
X122918022Y-77072081D01*
X122756505Y-77233597D01*
X122626575Y-77419158D01*
X122571998Y-77462783D01*
X122502500Y-77469977D01*
X122440145Y-77438454D01*
X122423425Y-77419158D01*
X122293496Y-77233600D01*
X122248326Y-77188430D01*
X122131975Y-77072079D01*
X122098492Y-77010758D01*
X122103476Y-76941067D01*
X122145347Y-76885133D01*
X122210812Y-76860716D01*
X122219658Y-76860400D01*
X122830341Y-76860400D01*
X122897380Y-76880085D01*
G37*
%TD.AperFunction*%
%TA.AperFunction,NonConductor*%
G36*
X120357380Y-76880085D02*
G01*
X120403135Y-76932889D01*
X120413079Y-77002047D01*
X120384054Y-77065603D01*
X120378022Y-77072081D01*
X120216505Y-77233597D01*
X120086575Y-77419158D01*
X120031998Y-77462783D01*
X119962500Y-77469977D01*
X119900145Y-77438454D01*
X119883425Y-77419158D01*
X119753496Y-77233600D01*
X119708326Y-77188430D01*
X119591975Y-77072079D01*
X119558492Y-77010758D01*
X119563476Y-76941067D01*
X119605347Y-76885133D01*
X119670812Y-76860716D01*
X119679658Y-76860400D01*
X120290341Y-76860400D01*
X120357380Y-76880085D01*
G37*
%TD.AperFunction*%
%TA.AperFunction,NonConductor*%
G36*
X117817380Y-76880085D02*
G01*
X117863135Y-76932889D01*
X117873079Y-77002047D01*
X117844054Y-77065603D01*
X117838022Y-77072081D01*
X117676505Y-77233597D01*
X117546575Y-77419158D01*
X117491998Y-77462783D01*
X117422500Y-77469977D01*
X117360145Y-77438454D01*
X117343425Y-77419158D01*
X117213496Y-77233600D01*
X117168326Y-77188430D01*
X117051975Y-77072079D01*
X117018492Y-77010758D01*
X117023476Y-76941067D01*
X117065347Y-76885133D01*
X117130812Y-76860716D01*
X117139658Y-76860400D01*
X117750341Y-76860400D01*
X117817380Y-76880085D01*
G37*
%TD.AperFunction*%
%TA.AperFunction,NonConductor*%
G36*
X115277380Y-76880085D02*
G01*
X115323135Y-76932889D01*
X115333079Y-77002047D01*
X115304054Y-77065603D01*
X115298022Y-77072081D01*
X115136505Y-77233597D01*
X115006575Y-77419158D01*
X114951998Y-77462783D01*
X114882500Y-77469977D01*
X114820145Y-77438454D01*
X114803425Y-77419158D01*
X114673496Y-77233600D01*
X114628326Y-77188430D01*
X114511975Y-77072079D01*
X114478492Y-77010758D01*
X114483476Y-76941067D01*
X114525347Y-76885133D01*
X114590812Y-76860716D01*
X114599658Y-76860400D01*
X115210341Y-76860400D01*
X115277380Y-76880085D01*
G37*
%TD.AperFunction*%
%TA.AperFunction,NonConductor*%
G36*
X112737380Y-76880085D02*
G01*
X112783135Y-76932889D01*
X112793079Y-77002047D01*
X112764054Y-77065603D01*
X112758022Y-77072081D01*
X112596505Y-77233597D01*
X112466575Y-77419158D01*
X112411998Y-77462783D01*
X112342500Y-77469977D01*
X112280145Y-77438454D01*
X112263425Y-77419158D01*
X112133496Y-77233600D01*
X112088326Y-77188430D01*
X111971975Y-77072079D01*
X111938492Y-77010758D01*
X111943476Y-76941067D01*
X111985347Y-76885133D01*
X112050812Y-76860716D01*
X112059658Y-76860400D01*
X112670341Y-76860400D01*
X112737380Y-76880085D01*
G37*
%TD.AperFunction*%
%TA.AperFunction,NonConductor*%
G36*
X110197380Y-76880085D02*
G01*
X110243135Y-76932889D01*
X110253079Y-77002047D01*
X110224054Y-77065603D01*
X110218022Y-77072081D01*
X110056508Y-77233594D01*
X109926269Y-77419595D01*
X109871692Y-77463219D01*
X109802193Y-77470412D01*
X109739839Y-77438890D01*
X109723119Y-77419594D01*
X109593113Y-77233926D01*
X109593108Y-77233920D01*
X109431269Y-77072081D01*
X109397784Y-77010758D01*
X109402768Y-76941066D01*
X109444640Y-76885133D01*
X109510104Y-76860716D01*
X109518950Y-76860400D01*
X110130341Y-76860400D01*
X110197380Y-76880085D01*
G37*
%TD.AperFunction*%
%TA.AperFunction,NonConductor*%
G36*
X107658089Y-76880085D02*
G01*
X107703844Y-76932889D01*
X107713788Y-77002047D01*
X107684763Y-77065603D01*
X107678731Y-77072081D01*
X107516891Y-77233920D01*
X107516890Y-77233922D01*
X107386880Y-77419595D01*
X107332303Y-77463219D01*
X107262804Y-77470412D01*
X107200450Y-77438890D01*
X107183730Y-77419594D01*
X107053496Y-77233600D01*
X107008326Y-77188430D01*
X106891975Y-77072079D01*
X106858492Y-77010758D01*
X106863476Y-76941067D01*
X106905347Y-76885133D01*
X106970812Y-76860716D01*
X106979658Y-76860400D01*
X107591050Y-76860400D01*
X107658089Y-76880085D01*
G37*
%TD.AperFunction*%
%TA.AperFunction,NonConductor*%
G36*
X137879855Y-94011546D02*
G01*
X137896575Y-94030842D01*
X138026501Y-94216396D01*
X138026506Y-94216402D01*
X138137223Y-94327119D01*
X138170708Y-94388442D01*
X138165724Y-94458134D01*
X138123852Y-94514067D01*
X138058388Y-94538484D01*
X138049542Y-94538800D01*
X137540458Y-94538800D01*
X137473419Y-94519115D01*
X137427664Y-94466311D01*
X137417720Y-94397153D01*
X137446745Y-94333597D01*
X137452777Y-94327119D01*
X137477414Y-94302482D01*
X137563495Y-94216401D01*
X137693425Y-94030842D01*
X137748002Y-93987217D01*
X137817500Y-93980023D01*
X137879855Y-94011546D01*
G37*
%TD.AperFunction*%
%TA.AperFunction,NonConductor*%
G36*
X135339549Y-94011110D02*
G01*
X135356269Y-94030405D01*
X135486505Y-94216401D01*
X135486506Y-94216402D01*
X135597223Y-94327119D01*
X135630708Y-94388442D01*
X135625724Y-94458134D01*
X135583852Y-94514067D01*
X135518388Y-94538484D01*
X135509542Y-94538800D01*
X134999750Y-94538800D01*
X134932711Y-94519115D01*
X134886956Y-94466311D01*
X134877012Y-94397153D01*
X134906037Y-94333597D01*
X134912069Y-94327119D01*
X135023105Y-94216082D01*
X135153119Y-94030405D01*
X135207696Y-93986781D01*
X135277195Y-93979588D01*
X135339549Y-94011110D01*
G37*
%TD.AperFunction*%
%TA.AperFunction,NonConductor*%
G36*
X132800160Y-94011110D02*
G01*
X132816879Y-94030405D01*
X132946890Y-94216078D01*
X133057931Y-94327119D01*
X133091416Y-94388442D01*
X133086432Y-94458134D01*
X133044560Y-94514067D01*
X132979096Y-94538484D01*
X132970250Y-94538800D01*
X132460458Y-94538800D01*
X132393419Y-94519115D01*
X132347664Y-94466311D01*
X132337720Y-94397153D01*
X132366745Y-94333597D01*
X132372777Y-94327119D01*
X132397414Y-94302482D01*
X132483495Y-94216401D01*
X132613730Y-94030405D01*
X132668307Y-93986781D01*
X132737805Y-93979587D01*
X132800160Y-94011110D01*
G37*
%TD.AperFunction*%
%TA.AperFunction,NonConductor*%
G36*
X130259855Y-94011546D02*
G01*
X130276575Y-94030842D01*
X130406501Y-94216396D01*
X130406506Y-94216402D01*
X130517223Y-94327119D01*
X130550708Y-94388442D01*
X130545724Y-94458134D01*
X130503852Y-94514067D01*
X130438388Y-94538484D01*
X130429542Y-94538800D01*
X129920458Y-94538800D01*
X129853419Y-94519115D01*
X129807664Y-94466311D01*
X129797720Y-94397153D01*
X129826745Y-94333597D01*
X129832777Y-94327119D01*
X129857414Y-94302482D01*
X129943495Y-94216401D01*
X130073425Y-94030842D01*
X130128002Y-93987217D01*
X130197500Y-93980023D01*
X130259855Y-94011546D01*
G37*
%TD.AperFunction*%
%TA.AperFunction,NonConductor*%
G36*
X127719855Y-94011546D02*
G01*
X127736575Y-94030842D01*
X127866501Y-94216396D01*
X127866506Y-94216402D01*
X127977223Y-94327119D01*
X128010708Y-94388442D01*
X128005724Y-94458134D01*
X127963852Y-94514067D01*
X127898388Y-94538484D01*
X127889542Y-94538800D01*
X127380458Y-94538800D01*
X127313419Y-94519115D01*
X127267664Y-94466311D01*
X127257720Y-94397153D01*
X127286745Y-94333597D01*
X127292777Y-94327119D01*
X127317414Y-94302482D01*
X127403495Y-94216401D01*
X127533425Y-94030842D01*
X127588002Y-93987217D01*
X127657500Y-93980023D01*
X127719855Y-94011546D01*
G37*
%TD.AperFunction*%
%TA.AperFunction,NonConductor*%
G36*
X125179855Y-94011546D02*
G01*
X125196575Y-94030842D01*
X125326501Y-94216396D01*
X125326506Y-94216402D01*
X125437223Y-94327119D01*
X125470708Y-94388442D01*
X125465724Y-94458134D01*
X125423852Y-94514067D01*
X125358388Y-94538484D01*
X125349542Y-94538800D01*
X124840458Y-94538800D01*
X124773419Y-94519115D01*
X124727664Y-94466311D01*
X124717720Y-94397153D01*
X124746745Y-94333597D01*
X124752777Y-94327119D01*
X124777414Y-94302482D01*
X124863495Y-94216401D01*
X124993425Y-94030842D01*
X125048002Y-93987217D01*
X125117500Y-93980023D01*
X125179855Y-94011546D01*
G37*
%TD.AperFunction*%
%TA.AperFunction,NonConductor*%
G36*
X122639855Y-94011546D02*
G01*
X122656575Y-94030842D01*
X122786501Y-94216396D01*
X122786506Y-94216402D01*
X122897223Y-94327119D01*
X122930708Y-94388442D01*
X122925724Y-94458134D01*
X122883852Y-94514067D01*
X122818388Y-94538484D01*
X122809542Y-94538800D01*
X122300458Y-94538800D01*
X122233419Y-94519115D01*
X122187664Y-94466311D01*
X122177720Y-94397153D01*
X122206745Y-94333597D01*
X122212777Y-94327119D01*
X122237414Y-94302482D01*
X122323495Y-94216401D01*
X122453425Y-94030842D01*
X122508002Y-93987217D01*
X122577500Y-93980023D01*
X122639855Y-94011546D01*
G37*
%TD.AperFunction*%
%TA.AperFunction,NonConductor*%
G36*
X120099855Y-94011546D02*
G01*
X120116575Y-94030842D01*
X120246501Y-94216396D01*
X120246506Y-94216402D01*
X120357223Y-94327119D01*
X120390708Y-94388442D01*
X120385724Y-94458134D01*
X120343852Y-94514067D01*
X120278388Y-94538484D01*
X120269542Y-94538800D01*
X119760458Y-94538800D01*
X119693419Y-94519115D01*
X119647664Y-94466311D01*
X119637720Y-94397153D01*
X119666745Y-94333597D01*
X119672777Y-94327119D01*
X119697414Y-94302482D01*
X119783495Y-94216401D01*
X119913425Y-94030842D01*
X119968002Y-93987217D01*
X120037500Y-93980023D01*
X120099855Y-94011546D01*
G37*
%TD.AperFunction*%
%TA.AperFunction,NonConductor*%
G36*
X117559855Y-94011546D02*
G01*
X117576575Y-94030842D01*
X117706501Y-94216396D01*
X117706506Y-94216402D01*
X117817223Y-94327119D01*
X117850708Y-94388442D01*
X117845724Y-94458134D01*
X117803852Y-94514067D01*
X117738388Y-94538484D01*
X117729542Y-94538800D01*
X117220458Y-94538800D01*
X117153419Y-94519115D01*
X117107664Y-94466311D01*
X117097720Y-94397153D01*
X117126745Y-94333597D01*
X117132777Y-94327119D01*
X117157414Y-94302482D01*
X117243495Y-94216401D01*
X117373425Y-94030842D01*
X117428002Y-93987217D01*
X117497500Y-93980023D01*
X117559855Y-94011546D01*
G37*
%TD.AperFunction*%
%TA.AperFunction,NonConductor*%
G36*
X115019855Y-94011546D02*
G01*
X115036575Y-94030842D01*
X115166501Y-94216396D01*
X115166506Y-94216402D01*
X115277223Y-94327119D01*
X115310708Y-94388442D01*
X115305724Y-94458134D01*
X115263852Y-94514067D01*
X115198388Y-94538484D01*
X115189542Y-94538800D01*
X114680458Y-94538800D01*
X114613419Y-94519115D01*
X114567664Y-94466311D01*
X114557720Y-94397153D01*
X114586745Y-94333597D01*
X114592777Y-94327119D01*
X114617414Y-94302482D01*
X114703495Y-94216401D01*
X114833425Y-94030842D01*
X114888002Y-93987217D01*
X114957500Y-93980023D01*
X115019855Y-94011546D01*
G37*
%TD.AperFunction*%
%TA.AperFunction,NonConductor*%
G36*
X112479855Y-94011546D02*
G01*
X112496575Y-94030842D01*
X112626501Y-94216396D01*
X112626506Y-94216402D01*
X112737223Y-94327119D01*
X112770708Y-94388442D01*
X112765724Y-94458134D01*
X112723852Y-94514067D01*
X112658388Y-94538484D01*
X112649542Y-94538800D01*
X112140458Y-94538800D01*
X112073419Y-94519115D01*
X112027664Y-94466311D01*
X112017720Y-94397153D01*
X112046745Y-94333597D01*
X112052777Y-94327119D01*
X112077414Y-94302482D01*
X112163495Y-94216401D01*
X112293425Y-94030842D01*
X112348002Y-93987217D01*
X112417500Y-93980023D01*
X112479855Y-94011546D01*
G37*
%TD.AperFunction*%
%TA.AperFunction,NonConductor*%
G36*
X109939855Y-94011546D02*
G01*
X109956575Y-94030842D01*
X110086501Y-94216396D01*
X110086506Y-94216402D01*
X110197223Y-94327119D01*
X110230708Y-94388442D01*
X110225724Y-94458134D01*
X110183852Y-94514067D01*
X110118388Y-94538484D01*
X110109542Y-94538800D01*
X109600458Y-94538800D01*
X109533419Y-94519115D01*
X109487664Y-94466311D01*
X109477720Y-94397153D01*
X109506745Y-94333597D01*
X109512777Y-94327119D01*
X109537414Y-94302482D01*
X109623495Y-94216401D01*
X109753425Y-94030842D01*
X109808002Y-93987217D01*
X109877500Y-93980023D01*
X109939855Y-94011546D01*
G37*
%TD.AperFunction*%
%TA.AperFunction,NonConductor*%
G36*
X107399855Y-94011546D02*
G01*
X107416575Y-94030842D01*
X107546501Y-94216396D01*
X107546506Y-94216402D01*
X107657223Y-94327119D01*
X107690708Y-94388442D01*
X107685724Y-94458134D01*
X107643852Y-94514067D01*
X107578388Y-94538484D01*
X107569542Y-94538800D01*
X107060458Y-94538800D01*
X106993419Y-94519115D01*
X106947664Y-94466311D01*
X106937720Y-94397153D01*
X106966745Y-94333597D01*
X106972777Y-94327119D01*
X106997414Y-94302482D01*
X107083495Y-94216401D01*
X107213425Y-94030842D01*
X107268002Y-93987217D01*
X107337500Y-93980023D01*
X107399855Y-94011546D01*
G37*
%TD.AperFunction*%
%TA.AperFunction,NonConductor*%
G36*
X122929592Y-85457809D02*
G01*
X122985528Y-85499678D01*
X123009948Y-85565141D01*
X123009484Y-85587876D01*
X122994035Y-85724995D01*
X122994035Y-85725003D01*
X123009484Y-85862123D01*
X122997429Y-85930945D01*
X122950080Y-85982324D01*
X122882470Y-85999948D01*
X122816064Y-85978221D01*
X122798583Y-85963687D01*
X122791402Y-85956506D01*
X122791396Y-85956501D01*
X122605842Y-85826575D01*
X122562217Y-85771998D01*
X122555023Y-85702500D01*
X122586546Y-85640145D01*
X122605842Y-85623425D01*
X122723164Y-85541275D01*
X122791401Y-85493495D01*
X122798581Y-85486314D01*
X122859900Y-85452828D01*
X122929592Y-85457809D01*
G37*
%TD.AperFunction*%
%TA.AperFunction,NonConductor*%
G36*
X135974549Y-85121110D02*
G01*
X135991269Y-85140405D01*
X136121505Y-85326401D01*
X136121506Y-85326402D01*
X136243430Y-85448326D01*
X136276915Y-85509649D01*
X136271931Y-85579341D01*
X136230059Y-85635274D01*
X136199083Y-85652189D01*
X136067669Y-85701203D01*
X136067664Y-85701206D01*
X135952455Y-85787452D01*
X135952452Y-85787455D01*
X135866206Y-85902664D01*
X135866203Y-85902669D01*
X135817189Y-86034083D01*
X135775317Y-86090016D01*
X135709853Y-86114433D01*
X135641580Y-86099581D01*
X135613326Y-86078430D01*
X135491402Y-85956506D01*
X135491401Y-85956505D01*
X135305405Y-85826269D01*
X135261781Y-85771692D01*
X135254588Y-85702193D01*
X135286110Y-85639839D01*
X135305405Y-85623119D01*
X135491082Y-85493105D01*
X135658105Y-85326082D01*
X135788119Y-85140405D01*
X135842696Y-85096781D01*
X135912195Y-85089588D01*
X135974549Y-85121110D01*
G37*
%TD.AperFunction*%
%TA.AperFunction,NonConductor*%
G36*
X138322594Y-85304815D02*
G01*
X138378527Y-85346687D01*
X138384253Y-85355025D01*
X138477079Y-85502756D01*
X138477084Y-85502762D01*
X138604638Y-85630316D01*
X138665347Y-85668462D01*
X138755326Y-85725000D01*
X138757378Y-85726289D01*
X138797162Y-85740210D01*
X138853938Y-85780932D01*
X138879685Y-85845885D01*
X138866229Y-85914446D01*
X138843894Y-85944927D01*
X138841587Y-85947233D01*
X138841584Y-85947237D01*
X138745607Y-86099983D01*
X138742588Y-86106253D01*
X138739980Y-86104997D01*
X138706774Y-86151232D01*
X138641804Y-86176936D01*
X138573252Y-86163435D01*
X138522880Y-86115015D01*
X138507228Y-86066702D01*
X138504091Y-86037516D01*
X138453797Y-85902671D01*
X138453793Y-85902664D01*
X138367547Y-85787455D01*
X138367544Y-85787452D01*
X138252335Y-85701206D01*
X138252328Y-85701202D01*
X138120917Y-85652189D01*
X138064983Y-85610318D01*
X138040566Y-85544853D01*
X138055418Y-85476580D01*
X138076566Y-85448329D01*
X138191581Y-85333314D01*
X138252902Y-85299831D01*
X138322594Y-85304815D01*
G37*
%TD.AperFunction*%
%TA.AperFunction,NonConductor*%
G36*
X118682815Y-85614937D02*
G01*
X118685837Y-85616987D01*
X118694592Y-85623117D01*
X118738218Y-85677693D01*
X118745413Y-85747192D01*
X118713892Y-85809547D01*
X118694595Y-85826269D01*
X118508594Y-85956508D01*
X118341504Y-86123598D01*
X118293622Y-86191981D01*
X118239045Y-86235606D01*
X118169547Y-86242798D01*
X118107192Y-86211276D01*
X118071779Y-86151045D01*
X118074116Y-86082540D01*
X118103092Y-85993365D01*
X118121367Y-85819476D01*
X118147951Y-85754864D01*
X118205249Y-85714879D01*
X118230805Y-85709220D01*
X118340790Y-85696828D01*
X118340793Y-85696827D01*
X118340796Y-85696827D01*
X118511063Y-85637248D01*
X118548746Y-85613570D01*
X118615979Y-85594570D01*
X118682815Y-85614937D01*
G37*
%TD.AperFunction*%
%TA.AperFunction,NonConductor*%
G36*
X133435160Y-85121110D02*
G01*
X133451879Y-85140405D01*
X133581890Y-85326078D01*
X133748917Y-85493105D01*
X133934595Y-85623119D01*
X133978219Y-85677696D01*
X133985412Y-85747195D01*
X133953890Y-85809549D01*
X133934595Y-85826269D01*
X133748594Y-85956508D01*
X133581505Y-86123597D01*
X133451575Y-86309158D01*
X133396998Y-86352783D01*
X133327500Y-86359977D01*
X133265145Y-86328454D01*
X133248425Y-86309158D01*
X133118494Y-86123597D01*
X132951402Y-85956506D01*
X132951396Y-85956501D01*
X132765842Y-85826575D01*
X132722217Y-85771998D01*
X132715023Y-85702500D01*
X132746546Y-85640145D01*
X132765842Y-85623425D01*
X132883164Y-85541275D01*
X132951401Y-85493495D01*
X133118495Y-85326401D01*
X133248730Y-85140405D01*
X133303307Y-85096781D01*
X133372805Y-85089587D01*
X133435160Y-85121110D01*
G37*
%TD.AperFunction*%
%TA.AperFunction,NonConductor*%
G36*
X130894855Y-85121546D02*
G01*
X130911575Y-85140842D01*
X131041501Y-85326396D01*
X131041506Y-85326402D01*
X131208597Y-85493493D01*
X131208603Y-85493498D01*
X131394158Y-85623425D01*
X131437783Y-85678002D01*
X131444977Y-85747500D01*
X131413454Y-85809855D01*
X131394158Y-85826575D01*
X131208597Y-85956505D01*
X131041505Y-86123597D01*
X130911575Y-86309158D01*
X130856998Y-86352783D01*
X130787500Y-86359977D01*
X130725145Y-86328454D01*
X130708425Y-86309158D01*
X130578494Y-86123597D01*
X130411402Y-85956506D01*
X130411396Y-85956501D01*
X130225842Y-85826575D01*
X130182217Y-85771998D01*
X130175023Y-85702500D01*
X130206546Y-85640145D01*
X130225842Y-85623425D01*
X130343164Y-85541275D01*
X130411401Y-85493495D01*
X130578495Y-85326401D01*
X130708425Y-85140842D01*
X130763002Y-85097217D01*
X130832500Y-85090023D01*
X130894855Y-85121546D01*
G37*
%TD.AperFunction*%
%TA.AperFunction,NonConductor*%
G36*
X128354855Y-85121546D02*
G01*
X128371575Y-85140842D01*
X128501501Y-85326396D01*
X128501506Y-85326402D01*
X128668597Y-85493493D01*
X128668603Y-85493498D01*
X128854158Y-85623425D01*
X128897783Y-85678002D01*
X128904977Y-85747500D01*
X128873454Y-85809855D01*
X128854158Y-85826575D01*
X128668597Y-85956505D01*
X128501505Y-86123597D01*
X128371575Y-86309158D01*
X128316998Y-86352783D01*
X128247500Y-86359977D01*
X128185145Y-86328454D01*
X128168425Y-86309158D01*
X128038494Y-86123597D01*
X127871402Y-85956506D01*
X127871396Y-85956501D01*
X127685842Y-85826575D01*
X127642217Y-85771998D01*
X127635023Y-85702500D01*
X127666546Y-85640145D01*
X127685842Y-85623425D01*
X127803164Y-85541275D01*
X127871401Y-85493495D01*
X128038495Y-85326401D01*
X128168425Y-85140842D01*
X128223002Y-85097217D01*
X128292500Y-85090023D01*
X128354855Y-85121546D01*
G37*
%TD.AperFunction*%
%TA.AperFunction,NonConductor*%
G36*
X125814855Y-85121546D02*
G01*
X125831575Y-85140842D01*
X125961501Y-85326396D01*
X125961506Y-85326402D01*
X126128597Y-85493493D01*
X126128603Y-85493498D01*
X126314158Y-85623425D01*
X126357783Y-85678002D01*
X126364977Y-85747500D01*
X126333454Y-85809855D01*
X126314158Y-85826575D01*
X126128597Y-85956505D01*
X125961505Y-86123597D01*
X125831575Y-86309158D01*
X125776998Y-86352783D01*
X125707500Y-86359977D01*
X125645145Y-86328454D01*
X125628425Y-86309158D01*
X125498494Y-86123597D01*
X125331402Y-85956506D01*
X125331396Y-85956501D01*
X125145842Y-85826575D01*
X125102217Y-85771998D01*
X125095023Y-85702500D01*
X125126546Y-85640145D01*
X125145842Y-85623425D01*
X125263164Y-85541275D01*
X125331401Y-85493495D01*
X125498495Y-85326401D01*
X125628425Y-85140842D01*
X125683002Y-85097217D01*
X125752500Y-85090023D01*
X125814855Y-85121546D01*
G37*
%TD.AperFunction*%
%TA.AperFunction,NonConductor*%
G36*
X120734549Y-85121110D02*
G01*
X120751269Y-85140405D01*
X120881505Y-85326401D01*
X120881506Y-85326402D01*
X121048597Y-85493493D01*
X121048603Y-85493498D01*
X121234158Y-85623425D01*
X121277783Y-85678002D01*
X121284977Y-85747500D01*
X121253454Y-85809855D01*
X121234158Y-85826575D01*
X121048597Y-85956505D01*
X120881505Y-86123597D01*
X120751575Y-86309158D01*
X120696998Y-86352783D01*
X120627500Y-86359977D01*
X120565145Y-86328454D01*
X120548425Y-86309158D01*
X120418494Y-86123597D01*
X120251402Y-85956506D01*
X120251401Y-85956505D01*
X120065405Y-85826269D01*
X120021781Y-85771692D01*
X120014588Y-85702193D01*
X120046110Y-85639839D01*
X120065405Y-85623119D01*
X120251082Y-85493105D01*
X120418105Y-85326082D01*
X120548119Y-85140405D01*
X120602696Y-85096781D01*
X120672195Y-85089588D01*
X120734549Y-85121110D01*
G37*
%TD.AperFunction*%
M02*
