%TF.GenerationSoftware,KiCad,Pcbnew,7.0.8*%
%TF.CreationDate,2023-10-11T21:33:04+02:00*%
%TF.ProjectId,LvL_shifter_shield,4c764c5f-7368-4696-9674-65725f736869,rev?*%
%TF.SameCoordinates,Original*%
%TF.FileFunction,Legend,Bot*%
%TF.FilePolarity,Positive*%
%FSLAX46Y46*%
G04 Gerber Fmt 4.6, Leading zero omitted, Abs format (unit mm)*
G04 Created by KiCad (PCBNEW 7.0.8) date 2023-10-11 21:33:04*
%MOMM*%
%LPD*%
G01*
G04 APERTURE LIST*
%ADD10C,0.150000*%
%ADD11C,0.120000*%
G04 APERTURE END LIST*
D10*
X117996666Y-83639819D02*
X118329999Y-83163628D01*
X118568094Y-83639819D02*
X118568094Y-82639819D01*
X118568094Y-82639819D02*
X118187142Y-82639819D01*
X118187142Y-82639819D02*
X118091904Y-82687438D01*
X118091904Y-82687438D02*
X118044285Y-82735057D01*
X118044285Y-82735057D02*
X117996666Y-82830295D01*
X117996666Y-82830295D02*
X117996666Y-82973152D01*
X117996666Y-82973152D02*
X118044285Y-83068390D01*
X118044285Y-83068390D02*
X118091904Y-83116009D01*
X118091904Y-83116009D02*
X118187142Y-83163628D01*
X118187142Y-83163628D02*
X118568094Y-83163628D01*
X117615713Y-82735057D02*
X117568094Y-82687438D01*
X117568094Y-82687438D02*
X117472856Y-82639819D01*
X117472856Y-82639819D02*
X117234761Y-82639819D01*
X117234761Y-82639819D02*
X117139523Y-82687438D01*
X117139523Y-82687438D02*
X117091904Y-82735057D01*
X117091904Y-82735057D02*
X117044285Y-82830295D01*
X117044285Y-82830295D02*
X117044285Y-82925533D01*
X117044285Y-82925533D02*
X117091904Y-83068390D01*
X117091904Y-83068390D02*
X117663332Y-83639819D01*
X117663332Y-83639819D02*
X117044285Y-83639819D01*
X104229819Y-90471666D02*
X104944104Y-90471666D01*
X104944104Y-90471666D02*
X105086961Y-90424047D01*
X105086961Y-90424047D02*
X105182200Y-90328809D01*
X105182200Y-90328809D02*
X105229819Y-90185952D01*
X105229819Y-90185952D02*
X105229819Y-90090714D01*
X104229819Y-90852619D02*
X104229819Y-91471666D01*
X104229819Y-91471666D02*
X104610771Y-91138333D01*
X104610771Y-91138333D02*
X104610771Y-91281190D01*
X104610771Y-91281190D02*
X104658390Y-91376428D01*
X104658390Y-91376428D02*
X104706009Y-91424047D01*
X104706009Y-91424047D02*
X104801247Y-91471666D01*
X104801247Y-91471666D02*
X105039342Y-91471666D01*
X105039342Y-91471666D02*
X105134580Y-91424047D01*
X105134580Y-91424047D02*
X105182200Y-91376428D01*
X105182200Y-91376428D02*
X105229819Y-91281190D01*
X105229819Y-91281190D02*
X105229819Y-90995476D01*
X105229819Y-90995476D02*
X105182200Y-90900238D01*
X105182200Y-90900238D02*
X105134580Y-90852619D01*
X141136666Y-83554819D02*
X141469999Y-83078628D01*
X141708094Y-83554819D02*
X141708094Y-82554819D01*
X141708094Y-82554819D02*
X141327142Y-82554819D01*
X141327142Y-82554819D02*
X141231904Y-82602438D01*
X141231904Y-82602438D02*
X141184285Y-82650057D01*
X141184285Y-82650057D02*
X141136666Y-82745295D01*
X141136666Y-82745295D02*
X141136666Y-82888152D01*
X141136666Y-82888152D02*
X141184285Y-82983390D01*
X141184285Y-82983390D02*
X141231904Y-83031009D01*
X141231904Y-83031009D02*
X141327142Y-83078628D01*
X141327142Y-83078628D02*
X141708094Y-83078628D01*
X140184285Y-83554819D02*
X140755713Y-83554819D01*
X140469999Y-83554819D02*
X140469999Y-82554819D01*
X140469999Y-82554819D02*
X140565237Y-82697676D01*
X140565237Y-82697676D02*
X140660475Y-82792914D01*
X140660475Y-82792914D02*
X140755713Y-82840533D01*
X111926666Y-88624580D02*
X111974285Y-88672200D01*
X111974285Y-88672200D02*
X112117142Y-88719819D01*
X112117142Y-88719819D02*
X112212380Y-88719819D01*
X112212380Y-88719819D02*
X112355237Y-88672200D01*
X112355237Y-88672200D02*
X112450475Y-88576961D01*
X112450475Y-88576961D02*
X112498094Y-88481723D01*
X112498094Y-88481723D02*
X112545713Y-88291247D01*
X112545713Y-88291247D02*
X112545713Y-88148390D01*
X112545713Y-88148390D02*
X112498094Y-87957914D01*
X112498094Y-87957914D02*
X112450475Y-87862676D01*
X112450475Y-87862676D02*
X112355237Y-87767438D01*
X112355237Y-87767438D02*
X112212380Y-87719819D01*
X112212380Y-87719819D02*
X112117142Y-87719819D01*
X112117142Y-87719819D02*
X111974285Y-87767438D01*
X111974285Y-87767438D02*
X111926666Y-87815057D01*
X110974285Y-88719819D02*
X111545713Y-88719819D01*
X111259999Y-88719819D02*
X111259999Y-87719819D01*
X111259999Y-87719819D02*
X111355237Y-87862676D01*
X111355237Y-87862676D02*
X111450475Y-87957914D01*
X111450475Y-87957914D02*
X111545713Y-88005533D01*
X111926666Y-83544580D02*
X111974285Y-83592200D01*
X111974285Y-83592200D02*
X112117142Y-83639819D01*
X112117142Y-83639819D02*
X112212380Y-83639819D01*
X112212380Y-83639819D02*
X112355237Y-83592200D01*
X112355237Y-83592200D02*
X112450475Y-83496961D01*
X112450475Y-83496961D02*
X112498094Y-83401723D01*
X112498094Y-83401723D02*
X112545713Y-83211247D01*
X112545713Y-83211247D02*
X112545713Y-83068390D01*
X112545713Y-83068390D02*
X112498094Y-82877914D01*
X112498094Y-82877914D02*
X112450475Y-82782676D01*
X112450475Y-82782676D02*
X112355237Y-82687438D01*
X112355237Y-82687438D02*
X112212380Y-82639819D01*
X112212380Y-82639819D02*
X112117142Y-82639819D01*
X112117142Y-82639819D02*
X111974285Y-82687438D01*
X111974285Y-82687438D02*
X111926666Y-82735057D01*
X111545713Y-82735057D02*
X111498094Y-82687438D01*
X111498094Y-82687438D02*
X111402856Y-82639819D01*
X111402856Y-82639819D02*
X111164761Y-82639819D01*
X111164761Y-82639819D02*
X111069523Y-82687438D01*
X111069523Y-82687438D02*
X111021904Y-82735057D01*
X111021904Y-82735057D02*
X110974285Y-82830295D01*
X110974285Y-82830295D02*
X110974285Y-82925533D01*
X110974285Y-82925533D02*
X111021904Y-83068390D01*
X111021904Y-83068390D02*
X111593332Y-83639819D01*
X111593332Y-83639819D02*
X110974285Y-83639819D01*
X104229819Y-80946666D02*
X104944104Y-80946666D01*
X104944104Y-80946666D02*
X105086961Y-80899047D01*
X105086961Y-80899047D02*
X105182200Y-80803809D01*
X105182200Y-80803809D02*
X105229819Y-80660952D01*
X105229819Y-80660952D02*
X105229819Y-80565714D01*
X104325057Y-81375238D02*
X104277438Y-81422857D01*
X104277438Y-81422857D02*
X104229819Y-81518095D01*
X104229819Y-81518095D02*
X104229819Y-81756190D01*
X104229819Y-81756190D02*
X104277438Y-81851428D01*
X104277438Y-81851428D02*
X104325057Y-81899047D01*
X104325057Y-81899047D02*
X104420295Y-81946666D01*
X104420295Y-81946666D02*
X104515533Y-81946666D01*
X104515533Y-81946666D02*
X104658390Y-81899047D01*
X104658390Y-81899047D02*
X105229819Y-81327619D01*
X105229819Y-81327619D02*
X105229819Y-81946666D01*
D11*
%TO.C,R2*%
X118557064Y-82190000D02*
X117102936Y-82190000D01*
X118557064Y-80370000D02*
X117102936Y-80370000D01*
%TO.C,J3*%
X104715000Y-94675000D02*
X104715000Y-92015000D01*
X140335000Y-94675000D02*
X104715000Y-94675000D01*
X140335000Y-94675000D02*
X140335000Y-92015000D01*
X142935000Y-93345000D02*
X142935000Y-92015000D01*
X140335000Y-92015000D02*
X104715000Y-92015000D01*
X142935000Y-92015000D02*
X141605000Y-92015000D01*
%TO.C,R1*%
X140242936Y-80370000D02*
X141697064Y-80370000D01*
X140242936Y-82190000D02*
X141697064Y-82190000D01*
%TO.C,C1*%
X111048748Y-89260000D02*
X112471252Y-89260000D01*
X111048748Y-91080000D02*
X112471252Y-91080000D01*
%TO.C,C2*%
X111048748Y-80370000D02*
X112471252Y-80370000D01*
X111048748Y-82190000D02*
X112471252Y-82190000D01*
%TO.C,J2*%
X104685000Y-79435000D02*
X104685000Y-76775000D01*
X140305000Y-79435000D02*
X104685000Y-79435000D01*
X140305000Y-79435000D02*
X140305000Y-76775000D01*
X142905000Y-78105000D02*
X142905000Y-76775000D01*
X140305000Y-76775000D02*
X104685000Y-76775000D01*
X142905000Y-76775000D02*
X141575000Y-76775000D01*
%TD*%
M02*
