%TF.GenerationSoftware,KiCad,Pcbnew,7.0.8*%
%TF.CreationDate,2023-11-27T23:44:53+01:00*%
%TF.ProjectId,LvL_shifter_shield,4c764c5f-7368-4696-9674-65725f736869,rev?*%
%TF.SameCoordinates,Original*%
%TF.FileFunction,Legend,Top*%
%TF.FilePolarity,Positive*%
%FSLAX46Y46*%
G04 Gerber Fmt 4.6, Leading zero omitted, Abs format (unit mm)*
G04 Created by KiCad (PCBNEW 7.0.8) date 2023-11-27 23:44:53*
%MOMM*%
%LPD*%
G01*
G04 APERTURE LIST*
%ADD10C,0.150000*%
%ADD11C,0.120000*%
G04 APERTURE END LIST*
D10*
X143119241Y-88265000D02*
G75*
G03*
X143119241Y-88265000I-193441J0D01*
G01*
X114256315Y-83159600D02*
G75*
G03*
X114256315Y-83159600I-184915J0D01*
G01*
X105872150Y-91803733D02*
X105638817Y-91470400D01*
X105472150Y-91803733D02*
X105472150Y-91103733D01*
X105472150Y-91103733D02*
X105738817Y-91103733D01*
X105738817Y-91103733D02*
X105805484Y-91137066D01*
X105805484Y-91137066D02*
X105838817Y-91170400D01*
X105838817Y-91170400D02*
X105872150Y-91237066D01*
X105872150Y-91237066D02*
X105872150Y-91337066D01*
X105872150Y-91337066D02*
X105838817Y-91403733D01*
X105838817Y-91403733D02*
X105805484Y-91437066D01*
X105805484Y-91437066D02*
X105738817Y-91470400D01*
X105738817Y-91470400D02*
X105472150Y-91470400D01*
X106138817Y-91170400D02*
X106172150Y-91137066D01*
X106172150Y-91137066D02*
X106238817Y-91103733D01*
X106238817Y-91103733D02*
X106405484Y-91103733D01*
X106405484Y-91103733D02*
X106472150Y-91137066D01*
X106472150Y-91137066D02*
X106505484Y-91170400D01*
X106505484Y-91170400D02*
X106538817Y-91237066D01*
X106538817Y-91237066D02*
X106538817Y-91303733D01*
X106538817Y-91303733D02*
X106505484Y-91403733D01*
X106505484Y-91403733D02*
X106105484Y-91803733D01*
X106105484Y-91803733D02*
X106538817Y-91803733D01*
X124058550Y-91813266D02*
X124025217Y-91846600D01*
X124025217Y-91846600D02*
X123925217Y-91879933D01*
X123925217Y-91879933D02*
X123858550Y-91879933D01*
X123858550Y-91879933D02*
X123758550Y-91846600D01*
X123758550Y-91846600D02*
X123691884Y-91779933D01*
X123691884Y-91779933D02*
X123658550Y-91713266D01*
X123658550Y-91713266D02*
X123625217Y-91579933D01*
X123625217Y-91579933D02*
X123625217Y-91479933D01*
X123625217Y-91479933D02*
X123658550Y-91346600D01*
X123658550Y-91346600D02*
X123691884Y-91279933D01*
X123691884Y-91279933D02*
X123758550Y-91213266D01*
X123758550Y-91213266D02*
X123858550Y-91179933D01*
X123858550Y-91179933D02*
X123925217Y-91179933D01*
X123925217Y-91179933D02*
X124025217Y-91213266D01*
X124025217Y-91213266D02*
X124058550Y-91246600D01*
X124050419Y-82442207D02*
X124002800Y-82394588D01*
X124002800Y-82394588D02*
X123955180Y-82251731D01*
X123955180Y-82251731D02*
X123955180Y-82156493D01*
X123955180Y-82156493D02*
X124002800Y-82013636D01*
X124002800Y-82013636D02*
X124098038Y-81918398D01*
X124098038Y-81918398D02*
X124193276Y-81870779D01*
X124193276Y-81870779D02*
X124383752Y-81823160D01*
X124383752Y-81823160D02*
X124526609Y-81823160D01*
X124526609Y-81823160D02*
X124717085Y-81870779D01*
X124717085Y-81870779D02*
X124812323Y-81918398D01*
X124812323Y-81918398D02*
X124907561Y-82013636D01*
X124907561Y-82013636D02*
X124955180Y-82156493D01*
X124955180Y-82156493D02*
X124955180Y-82251731D01*
X124955180Y-82251731D02*
X124907561Y-82394588D01*
X124907561Y-82394588D02*
X124859942Y-82442207D01*
X119954561Y-89481188D02*
X120002180Y-89385950D01*
X120002180Y-89385950D02*
X120002180Y-89243093D01*
X120002180Y-89243093D02*
X119954561Y-89100236D01*
X119954561Y-89100236D02*
X119859323Y-89004998D01*
X119859323Y-89004998D02*
X119764085Y-88957379D01*
X119764085Y-88957379D02*
X119573609Y-88909760D01*
X119573609Y-88909760D02*
X119430752Y-88909760D01*
X119430752Y-88909760D02*
X119240276Y-88957379D01*
X119240276Y-88957379D02*
X119145038Y-89004998D01*
X119145038Y-89004998D02*
X119049800Y-89100236D01*
X119049800Y-89100236D02*
X119002180Y-89243093D01*
X119002180Y-89243093D02*
X119002180Y-89338331D01*
X119002180Y-89338331D02*
X119049800Y-89481188D01*
X119049800Y-89481188D02*
X119097419Y-89528807D01*
X119097419Y-89528807D02*
X119430752Y-89528807D01*
X119430752Y-89528807D02*
X119430752Y-89338331D01*
X119002180Y-89957379D02*
X120002180Y-89957379D01*
X120002180Y-89957379D02*
X119002180Y-90528807D01*
X119002180Y-90528807D02*
X120002180Y-90528807D01*
X119002180Y-91004998D02*
X120002180Y-91004998D01*
X120002180Y-91004998D02*
X120002180Y-91243093D01*
X120002180Y-91243093D02*
X119954561Y-91385950D01*
X119954561Y-91385950D02*
X119859323Y-91481188D01*
X119859323Y-91481188D02*
X119764085Y-91528807D01*
X119764085Y-91528807D02*
X119573609Y-91576426D01*
X119573609Y-91576426D02*
X119430752Y-91576426D01*
X119430752Y-91576426D02*
X119240276Y-91528807D01*
X119240276Y-91528807D02*
X119145038Y-91481188D01*
X119145038Y-91481188D02*
X119049800Y-91385950D01*
X119049800Y-91385950D02*
X119002180Y-91243093D01*
X119002180Y-91243093D02*
X119002180Y-91004998D01*
X120464484Y-79597533D02*
X120597817Y-79597533D01*
X120597817Y-79597533D02*
X120664484Y-79630866D01*
X120664484Y-79630866D02*
X120731150Y-79697533D01*
X120731150Y-79697533D02*
X120764484Y-79830866D01*
X120764484Y-79830866D02*
X120764484Y-80064200D01*
X120764484Y-80064200D02*
X120731150Y-80197533D01*
X120731150Y-80197533D02*
X120664484Y-80264200D01*
X120664484Y-80264200D02*
X120597817Y-80297533D01*
X120597817Y-80297533D02*
X120464484Y-80297533D01*
X120464484Y-80297533D02*
X120397817Y-80264200D01*
X120397817Y-80264200D02*
X120331150Y-80197533D01*
X120331150Y-80197533D02*
X120297817Y-80064200D01*
X120297817Y-80064200D02*
X120297817Y-79830866D01*
X120297817Y-79830866D02*
X120331150Y-79697533D01*
X120331150Y-79697533D02*
X120397817Y-79630866D01*
X120397817Y-79630866D02*
X120464484Y-79597533D01*
X121064483Y-79930866D02*
X121297817Y-79930866D01*
X121397817Y-80297533D02*
X121064483Y-80297533D01*
X121064483Y-80297533D02*
X121064483Y-79597533D01*
X121064483Y-79597533D02*
X121397817Y-79597533D01*
X138350817Y-79681666D02*
X138284150Y-79648333D01*
X138284150Y-79648333D02*
X138184150Y-79648333D01*
X138184150Y-79648333D02*
X138084150Y-79681666D01*
X138084150Y-79681666D02*
X138017484Y-79748333D01*
X138017484Y-79748333D02*
X137984150Y-79815000D01*
X137984150Y-79815000D02*
X137950817Y-79948333D01*
X137950817Y-79948333D02*
X137950817Y-80048333D01*
X137950817Y-80048333D02*
X137984150Y-80181666D01*
X137984150Y-80181666D02*
X138017484Y-80248333D01*
X138017484Y-80248333D02*
X138084150Y-80315000D01*
X138084150Y-80315000D02*
X138184150Y-80348333D01*
X138184150Y-80348333D02*
X138250817Y-80348333D01*
X138250817Y-80348333D02*
X138350817Y-80315000D01*
X138350817Y-80315000D02*
X138384150Y-80281666D01*
X138384150Y-80281666D02*
X138384150Y-80048333D01*
X138384150Y-80048333D02*
X138250817Y-80048333D01*
X138684150Y-80348333D02*
X138684150Y-79648333D01*
X138684150Y-79648333D02*
X139084150Y-80348333D01*
X139084150Y-80348333D02*
X139084150Y-79648333D01*
X139417483Y-80348333D02*
X139417483Y-79648333D01*
X139417483Y-79648333D02*
X139584150Y-79648333D01*
X139584150Y-79648333D02*
X139684150Y-79681666D01*
X139684150Y-79681666D02*
X139750817Y-79748333D01*
X139750817Y-79748333D02*
X139784150Y-79815000D01*
X139784150Y-79815000D02*
X139817483Y-79948333D01*
X139817483Y-79948333D02*
X139817483Y-80048333D01*
X139817483Y-80048333D02*
X139784150Y-80181666D01*
X139784150Y-80181666D02*
X139750817Y-80248333D01*
X139750817Y-80248333D02*
X139684150Y-80315000D01*
X139684150Y-80315000D02*
X139584150Y-80348333D01*
X139584150Y-80348333D02*
X139417483Y-80348333D01*
X111268084Y-91513266D02*
X111368084Y-91546600D01*
X111368084Y-91546600D02*
X111401417Y-91579933D01*
X111401417Y-91579933D02*
X111434750Y-91646600D01*
X111434750Y-91646600D02*
X111434750Y-91746600D01*
X111434750Y-91746600D02*
X111401417Y-91813266D01*
X111401417Y-91813266D02*
X111368084Y-91846600D01*
X111368084Y-91846600D02*
X111301417Y-91879933D01*
X111301417Y-91879933D02*
X111034750Y-91879933D01*
X111034750Y-91879933D02*
X111034750Y-91179933D01*
X111034750Y-91179933D02*
X111268084Y-91179933D01*
X111268084Y-91179933D02*
X111334750Y-91213266D01*
X111334750Y-91213266D02*
X111368084Y-91246600D01*
X111368084Y-91246600D02*
X111401417Y-91313266D01*
X111401417Y-91313266D02*
X111401417Y-91379933D01*
X111401417Y-91379933D02*
X111368084Y-91446600D01*
X111368084Y-91446600D02*
X111334750Y-91479933D01*
X111334750Y-91479933D02*
X111268084Y-91513266D01*
X111268084Y-91513266D02*
X111034750Y-91513266D01*
X111701417Y-91246600D02*
X111734750Y-91213266D01*
X111734750Y-91213266D02*
X111801417Y-91179933D01*
X111801417Y-91179933D02*
X111968084Y-91179933D01*
X111968084Y-91179933D02*
X112034750Y-91213266D01*
X112034750Y-91213266D02*
X112068084Y-91246600D01*
X112068084Y-91246600D02*
X112101417Y-91313266D01*
X112101417Y-91313266D02*
X112101417Y-91379933D01*
X112101417Y-91379933D02*
X112068084Y-91479933D01*
X112068084Y-91479933D02*
X111668084Y-91879933D01*
X111668084Y-91879933D02*
X112101417Y-91879933D01*
X131829180Y-81553207D02*
X132305371Y-81219874D01*
X131829180Y-80981779D02*
X132829180Y-80981779D01*
X132829180Y-80981779D02*
X132829180Y-81362731D01*
X132829180Y-81362731D02*
X132781561Y-81457969D01*
X132781561Y-81457969D02*
X132733942Y-81505588D01*
X132733942Y-81505588D02*
X132638704Y-81553207D01*
X132638704Y-81553207D02*
X132495847Y-81553207D01*
X132495847Y-81553207D02*
X132400609Y-81505588D01*
X132400609Y-81505588D02*
X132352990Y-81457969D01*
X132352990Y-81457969D02*
X132305371Y-81362731D01*
X132305371Y-81362731D02*
X132305371Y-80981779D01*
X132733942Y-81934160D02*
X132781561Y-81981779D01*
X132781561Y-81981779D02*
X132829180Y-82077017D01*
X132829180Y-82077017D02*
X132829180Y-82315112D01*
X132829180Y-82315112D02*
X132781561Y-82410350D01*
X132781561Y-82410350D02*
X132733942Y-82457969D01*
X132733942Y-82457969D02*
X132638704Y-82505588D01*
X132638704Y-82505588D02*
X132543466Y-82505588D01*
X132543466Y-82505588D02*
X132400609Y-82457969D01*
X132400609Y-82457969D02*
X131829180Y-81886541D01*
X131829180Y-81886541D02*
X131829180Y-82505588D01*
X126907895Y-81823160D02*
X126907895Y-82299350D01*
X126622180Y-81727922D02*
X127622180Y-82061255D01*
X127622180Y-82061255D02*
X126622180Y-82394588D01*
X126274750Y-91487866D02*
X126508084Y-91487866D01*
X126608084Y-91854533D02*
X126274750Y-91854533D01*
X126274750Y-91854533D02*
X126274750Y-91154533D01*
X126274750Y-91154533D02*
X126608084Y-91154533D01*
X119875180Y-81172255D02*
X119875180Y-81362731D01*
X119875180Y-81362731D02*
X119827561Y-81457969D01*
X119827561Y-81457969D02*
X119732323Y-81553207D01*
X119732323Y-81553207D02*
X119541847Y-81600826D01*
X119541847Y-81600826D02*
X119208514Y-81600826D01*
X119208514Y-81600826D02*
X119018038Y-81553207D01*
X119018038Y-81553207D02*
X118922800Y-81457969D01*
X118922800Y-81457969D02*
X118875180Y-81362731D01*
X118875180Y-81362731D02*
X118875180Y-81172255D01*
X118875180Y-81172255D02*
X118922800Y-81077017D01*
X118922800Y-81077017D02*
X119018038Y-80981779D01*
X119018038Y-80981779D02*
X119208514Y-80934160D01*
X119208514Y-80934160D02*
X119541847Y-80934160D01*
X119541847Y-80934160D02*
X119732323Y-80981779D01*
X119732323Y-80981779D02*
X119827561Y-81077017D01*
X119827561Y-81077017D02*
X119875180Y-81172255D01*
X119398990Y-82029398D02*
X119398990Y-82362731D01*
X118875180Y-82505588D02*
X118875180Y-82029398D01*
X118875180Y-82029398D02*
X119875180Y-82029398D01*
X119875180Y-82029398D02*
X119875180Y-82505588D01*
X132751750Y-80056266D02*
X133285084Y-80056266D01*
X133018417Y-80322933D02*
X133018417Y-79789600D01*
X133951751Y-79622933D02*
X133618417Y-79622933D01*
X133618417Y-79622933D02*
X133585084Y-79956266D01*
X133585084Y-79956266D02*
X133618417Y-79922933D01*
X133618417Y-79922933D02*
X133685084Y-79889600D01*
X133685084Y-79889600D02*
X133851751Y-79889600D01*
X133851751Y-79889600D02*
X133918417Y-79922933D01*
X133918417Y-79922933D02*
X133951751Y-79956266D01*
X133951751Y-79956266D02*
X133985084Y-80022933D01*
X133985084Y-80022933D02*
X133985084Y-80189600D01*
X133985084Y-80189600D02*
X133951751Y-80256266D01*
X133951751Y-80256266D02*
X133918417Y-80289600D01*
X133918417Y-80289600D02*
X133851751Y-80322933D01*
X133851751Y-80322933D02*
X133685084Y-80322933D01*
X133685084Y-80322933D02*
X133618417Y-80289600D01*
X133618417Y-80289600D02*
X133585084Y-80256266D01*
X134185084Y-79622933D02*
X134418418Y-80322933D01*
X134418418Y-80322933D02*
X134651751Y-79622933D01*
X113865217Y-91213266D02*
X113798550Y-91179933D01*
X113798550Y-91179933D02*
X113698550Y-91179933D01*
X113698550Y-91179933D02*
X113598550Y-91213266D01*
X113598550Y-91213266D02*
X113531884Y-91279933D01*
X113531884Y-91279933D02*
X113498550Y-91346600D01*
X113498550Y-91346600D02*
X113465217Y-91479933D01*
X113465217Y-91479933D02*
X113465217Y-91579933D01*
X113465217Y-91579933D02*
X113498550Y-91713266D01*
X113498550Y-91713266D02*
X113531884Y-91779933D01*
X113531884Y-91779933D02*
X113598550Y-91846600D01*
X113598550Y-91846600D02*
X113698550Y-91879933D01*
X113698550Y-91879933D02*
X113765217Y-91879933D01*
X113765217Y-91879933D02*
X113865217Y-91846600D01*
X113865217Y-91846600D02*
X113898550Y-91813266D01*
X113898550Y-91813266D02*
X113898550Y-91579933D01*
X113898550Y-91579933D02*
X113765217Y-91579933D01*
X114165217Y-91246600D02*
X114198550Y-91213266D01*
X114198550Y-91213266D02*
X114265217Y-91179933D01*
X114265217Y-91179933D02*
X114431884Y-91179933D01*
X114431884Y-91179933D02*
X114498550Y-91213266D01*
X114498550Y-91213266D02*
X114531884Y-91246600D01*
X114531884Y-91246600D02*
X114565217Y-91313266D01*
X114565217Y-91313266D02*
X114565217Y-91379933D01*
X114565217Y-91379933D02*
X114531884Y-91479933D01*
X114531884Y-91479933D02*
X114131884Y-91879933D01*
X114131884Y-91879933D02*
X114565217Y-91879933D01*
X110852179Y-84832866D02*
X111614084Y-84832866D01*
X111233131Y-85213819D02*
X111233131Y-84451914D01*
X112566464Y-84213819D02*
X112090274Y-84213819D01*
X112090274Y-84213819D02*
X112042655Y-84690009D01*
X112042655Y-84690009D02*
X112090274Y-84642390D01*
X112090274Y-84642390D02*
X112185512Y-84594771D01*
X112185512Y-84594771D02*
X112423607Y-84594771D01*
X112423607Y-84594771D02*
X112518845Y-84642390D01*
X112518845Y-84642390D02*
X112566464Y-84690009D01*
X112566464Y-84690009D02*
X112614083Y-84785247D01*
X112614083Y-84785247D02*
X112614083Y-85023342D01*
X112614083Y-85023342D02*
X112566464Y-85118580D01*
X112566464Y-85118580D02*
X112518845Y-85166200D01*
X112518845Y-85166200D02*
X112423607Y-85213819D01*
X112423607Y-85213819D02*
X112185512Y-85213819D01*
X112185512Y-85213819D02*
X112090274Y-85166200D01*
X112090274Y-85166200D02*
X112042655Y-85118580D01*
X112899798Y-84213819D02*
X113233131Y-85213819D01*
X113233131Y-85213819D02*
X113566464Y-84213819D01*
X132527561Y-89506588D02*
X132575180Y-89411350D01*
X132575180Y-89411350D02*
X132575180Y-89268493D01*
X132575180Y-89268493D02*
X132527561Y-89125636D01*
X132527561Y-89125636D02*
X132432323Y-89030398D01*
X132432323Y-89030398D02*
X132337085Y-88982779D01*
X132337085Y-88982779D02*
X132146609Y-88935160D01*
X132146609Y-88935160D02*
X132003752Y-88935160D01*
X132003752Y-88935160D02*
X131813276Y-88982779D01*
X131813276Y-88982779D02*
X131718038Y-89030398D01*
X131718038Y-89030398D02*
X131622800Y-89125636D01*
X131622800Y-89125636D02*
X131575180Y-89268493D01*
X131575180Y-89268493D02*
X131575180Y-89363731D01*
X131575180Y-89363731D02*
X131622800Y-89506588D01*
X131622800Y-89506588D02*
X131670419Y-89554207D01*
X131670419Y-89554207D02*
X132003752Y-89554207D01*
X132003752Y-89554207D02*
X132003752Y-89363731D01*
X132479942Y-89935160D02*
X132527561Y-89982779D01*
X132527561Y-89982779D02*
X132575180Y-90078017D01*
X132575180Y-90078017D02*
X132575180Y-90316112D01*
X132575180Y-90316112D02*
X132527561Y-90411350D01*
X132527561Y-90411350D02*
X132479942Y-90458969D01*
X132479942Y-90458969D02*
X132384704Y-90506588D01*
X132384704Y-90506588D02*
X132289466Y-90506588D01*
X132289466Y-90506588D02*
X132146609Y-90458969D01*
X132146609Y-90458969D02*
X131575180Y-89887541D01*
X131575180Y-89887541D02*
X131575180Y-90506588D01*
X121688219Y-80664207D02*
X121640600Y-80616588D01*
X121640600Y-80616588D02*
X121592980Y-80473731D01*
X121592980Y-80473731D02*
X121592980Y-80378493D01*
X121592980Y-80378493D02*
X121640600Y-80235636D01*
X121640600Y-80235636D02*
X121735838Y-80140398D01*
X121735838Y-80140398D02*
X121831076Y-80092779D01*
X121831076Y-80092779D02*
X122021552Y-80045160D01*
X122021552Y-80045160D02*
X122164409Y-80045160D01*
X122164409Y-80045160D02*
X122354885Y-80092779D01*
X122354885Y-80092779D02*
X122450123Y-80140398D01*
X122450123Y-80140398D02*
X122545361Y-80235636D01*
X122545361Y-80235636D02*
X122592980Y-80378493D01*
X122592980Y-80378493D02*
X122592980Y-80473731D01*
X122592980Y-80473731D02*
X122545361Y-80616588D01*
X122545361Y-80616588D02*
X122497742Y-80664207D01*
X121592980Y-81568969D02*
X121592980Y-81092779D01*
X121592980Y-81092779D02*
X122592980Y-81092779D01*
X121592980Y-81902303D02*
X122592980Y-81902303D01*
X121592980Y-82473731D02*
X122164409Y-82045160D01*
X122592980Y-82473731D02*
X122021552Y-81902303D01*
X106919950Y-80030866D02*
X107453284Y-80030866D01*
X107186617Y-80297533D02*
X107186617Y-79764200D01*
X107719951Y-79597533D02*
X108153284Y-79597533D01*
X108153284Y-79597533D02*
X107919951Y-79864200D01*
X107919951Y-79864200D02*
X108019951Y-79864200D01*
X108019951Y-79864200D02*
X108086617Y-79897533D01*
X108086617Y-79897533D02*
X108119951Y-79930866D01*
X108119951Y-79930866D02*
X108153284Y-79997533D01*
X108153284Y-79997533D02*
X108153284Y-80164200D01*
X108153284Y-80164200D02*
X108119951Y-80230866D01*
X108119951Y-80230866D02*
X108086617Y-80264200D01*
X108086617Y-80264200D02*
X108019951Y-80297533D01*
X108019951Y-80297533D02*
X107819951Y-80297533D01*
X107819951Y-80297533D02*
X107753284Y-80264200D01*
X107753284Y-80264200D02*
X107719951Y-80230866D01*
X108453284Y-80230866D02*
X108486618Y-80264200D01*
X108486618Y-80264200D02*
X108453284Y-80297533D01*
X108453284Y-80297533D02*
X108419951Y-80264200D01*
X108419951Y-80264200D02*
X108453284Y-80230866D01*
X108453284Y-80230866D02*
X108453284Y-80297533D01*
X108719951Y-79597533D02*
X109153284Y-79597533D01*
X109153284Y-79597533D02*
X108919951Y-79864200D01*
X108919951Y-79864200D02*
X109019951Y-79864200D01*
X109019951Y-79864200D02*
X109086617Y-79897533D01*
X109086617Y-79897533D02*
X109119951Y-79930866D01*
X109119951Y-79930866D02*
X109153284Y-79997533D01*
X109153284Y-79997533D02*
X109153284Y-80164200D01*
X109153284Y-80164200D02*
X109119951Y-80230866D01*
X109119951Y-80230866D02*
X109086617Y-80264200D01*
X109086617Y-80264200D02*
X109019951Y-80297533D01*
X109019951Y-80297533D02*
X108819951Y-80297533D01*
X108819951Y-80297533D02*
X108753284Y-80264200D01*
X108753284Y-80264200D02*
X108719951Y-80230866D01*
X109353284Y-79597533D02*
X109586618Y-80297533D01*
X109586618Y-80297533D02*
X109819951Y-79597533D01*
X105381617Y-79656266D02*
X105314950Y-79622933D01*
X105314950Y-79622933D02*
X105214950Y-79622933D01*
X105214950Y-79622933D02*
X105114950Y-79656266D01*
X105114950Y-79656266D02*
X105048284Y-79722933D01*
X105048284Y-79722933D02*
X105014950Y-79789600D01*
X105014950Y-79789600D02*
X104981617Y-79922933D01*
X104981617Y-79922933D02*
X104981617Y-80022933D01*
X104981617Y-80022933D02*
X105014950Y-80156266D01*
X105014950Y-80156266D02*
X105048284Y-80222933D01*
X105048284Y-80222933D02*
X105114950Y-80289600D01*
X105114950Y-80289600D02*
X105214950Y-80322933D01*
X105214950Y-80322933D02*
X105281617Y-80322933D01*
X105281617Y-80322933D02*
X105381617Y-80289600D01*
X105381617Y-80289600D02*
X105414950Y-80256266D01*
X105414950Y-80256266D02*
X105414950Y-80022933D01*
X105414950Y-80022933D02*
X105281617Y-80022933D01*
X106081617Y-80322933D02*
X105681617Y-80322933D01*
X105881617Y-80322933D02*
X105881617Y-79622933D01*
X105881617Y-79622933D02*
X105814950Y-79722933D01*
X105814950Y-79722933D02*
X105748284Y-79789600D01*
X105748284Y-79789600D02*
X105681617Y-79822933D01*
X115890884Y-91487866D02*
X115990884Y-91521200D01*
X115990884Y-91521200D02*
X116024217Y-91554533D01*
X116024217Y-91554533D02*
X116057550Y-91621200D01*
X116057550Y-91621200D02*
X116057550Y-91721200D01*
X116057550Y-91721200D02*
X116024217Y-91787866D01*
X116024217Y-91787866D02*
X115990884Y-91821200D01*
X115990884Y-91821200D02*
X115924217Y-91854533D01*
X115924217Y-91854533D02*
X115657550Y-91854533D01*
X115657550Y-91854533D02*
X115657550Y-91154533D01*
X115657550Y-91154533D02*
X115890884Y-91154533D01*
X115890884Y-91154533D02*
X115957550Y-91187866D01*
X115957550Y-91187866D02*
X115990884Y-91221200D01*
X115990884Y-91221200D02*
X116024217Y-91287866D01*
X116024217Y-91287866D02*
X116024217Y-91354533D01*
X116024217Y-91354533D02*
X115990884Y-91421200D01*
X115990884Y-91421200D02*
X115957550Y-91454533D01*
X115957550Y-91454533D02*
X115890884Y-91487866D01*
X115890884Y-91487866D02*
X115657550Y-91487866D01*
X116724217Y-91854533D02*
X116324217Y-91854533D01*
X116524217Y-91854533D02*
X116524217Y-91154533D01*
X116524217Y-91154533D02*
X116457550Y-91254533D01*
X116457550Y-91254533D02*
X116390884Y-91321200D01*
X116390884Y-91321200D02*
X116324217Y-91354533D01*
X129558990Y-88982779D02*
X129558990Y-89316112D01*
X129035180Y-89458969D02*
X129035180Y-88982779D01*
X129035180Y-88982779D02*
X130035180Y-88982779D01*
X130035180Y-88982779D02*
X130035180Y-89458969D01*
X127018990Y-89316112D02*
X126971371Y-89458969D01*
X126971371Y-89458969D02*
X126923752Y-89506588D01*
X126923752Y-89506588D02*
X126828514Y-89554207D01*
X126828514Y-89554207D02*
X126685657Y-89554207D01*
X126685657Y-89554207D02*
X126590419Y-89506588D01*
X126590419Y-89506588D02*
X126542800Y-89458969D01*
X126542800Y-89458969D02*
X126495180Y-89363731D01*
X126495180Y-89363731D02*
X126495180Y-88982779D01*
X126495180Y-88982779D02*
X127495180Y-88982779D01*
X127495180Y-88982779D02*
X127495180Y-89316112D01*
X127495180Y-89316112D02*
X127447561Y-89411350D01*
X127447561Y-89411350D02*
X127399942Y-89458969D01*
X127399942Y-89458969D02*
X127304704Y-89506588D01*
X127304704Y-89506588D02*
X127209466Y-89506588D01*
X127209466Y-89506588D02*
X127114228Y-89458969D01*
X127114228Y-89458969D02*
X127066609Y-89411350D01*
X127066609Y-89411350D02*
X127018990Y-89316112D01*
X127018990Y-89316112D02*
X127018990Y-88982779D01*
X113465217Y-80072133D02*
X113798550Y-80072133D01*
X113398550Y-80272133D02*
X113631884Y-79572133D01*
X113631884Y-79572133D02*
X113865217Y-80272133D01*
X118378484Y-80322933D02*
X118045150Y-80322933D01*
X118045150Y-80322933D02*
X118045150Y-79622933D01*
X118578484Y-80122933D02*
X118911817Y-80122933D01*
X118511817Y-80322933D02*
X118745151Y-79622933D01*
X118745151Y-79622933D02*
X118978484Y-80322933D01*
X119111817Y-79622933D02*
X119511817Y-79622933D01*
X119311817Y-80322933D02*
X119311817Y-79622933D01*
X132813617Y-91187866D02*
X132746950Y-91154533D01*
X132746950Y-91154533D02*
X132646950Y-91154533D01*
X132646950Y-91154533D02*
X132546950Y-91187866D01*
X132546950Y-91187866D02*
X132480284Y-91254533D01*
X132480284Y-91254533D02*
X132446950Y-91321200D01*
X132446950Y-91321200D02*
X132413617Y-91454533D01*
X132413617Y-91454533D02*
X132413617Y-91554533D01*
X132413617Y-91554533D02*
X132446950Y-91687866D01*
X132446950Y-91687866D02*
X132480284Y-91754533D01*
X132480284Y-91754533D02*
X132546950Y-91821200D01*
X132546950Y-91821200D02*
X132646950Y-91854533D01*
X132646950Y-91854533D02*
X132713617Y-91854533D01*
X132713617Y-91854533D02*
X132813617Y-91821200D01*
X132813617Y-91821200D02*
X132846950Y-91787866D01*
X132846950Y-91787866D02*
X132846950Y-91554533D01*
X132846950Y-91554533D02*
X132713617Y-91554533D01*
X133146950Y-91854533D02*
X133146950Y-91154533D01*
X133146950Y-91154533D02*
X133546950Y-91854533D01*
X133546950Y-91854533D02*
X133546950Y-91154533D01*
X133880283Y-91854533D02*
X133880283Y-91154533D01*
X133880283Y-91154533D02*
X134046950Y-91154533D01*
X134046950Y-91154533D02*
X134146950Y-91187866D01*
X134146950Y-91187866D02*
X134213617Y-91254533D01*
X134213617Y-91254533D02*
X134246950Y-91321200D01*
X134246950Y-91321200D02*
X134280283Y-91454533D01*
X134280283Y-91454533D02*
X134280283Y-91554533D01*
X134280283Y-91554533D02*
X134246950Y-91687866D01*
X134246950Y-91687866D02*
X134213617Y-91754533D01*
X134213617Y-91754533D02*
X134146950Y-91821200D01*
X134146950Y-91821200D02*
X134046950Y-91854533D01*
X134046950Y-91854533D02*
X133880283Y-91854533D01*
X136578980Y-81553207D02*
X137055171Y-81219874D01*
X136578980Y-80981779D02*
X137578980Y-80981779D01*
X137578980Y-80981779D02*
X137578980Y-81362731D01*
X137578980Y-81362731D02*
X137531361Y-81457969D01*
X137531361Y-81457969D02*
X137483742Y-81505588D01*
X137483742Y-81505588D02*
X137388504Y-81553207D01*
X137388504Y-81553207D02*
X137245647Y-81553207D01*
X137245647Y-81553207D02*
X137150409Y-81505588D01*
X137150409Y-81505588D02*
X137102790Y-81457969D01*
X137102790Y-81457969D02*
X137055171Y-81362731D01*
X137055171Y-81362731D02*
X137055171Y-80981779D01*
X136578980Y-82505588D02*
X136578980Y-81934160D01*
X136578980Y-82219874D02*
X137578980Y-82219874D01*
X137578980Y-82219874D02*
X137436123Y-82124636D01*
X137436123Y-82124636D02*
X137340885Y-82029398D01*
X137340885Y-82029398D02*
X137293266Y-81934160D01*
X121415180Y-89458969D02*
X121415180Y-88982779D01*
X121415180Y-88982779D02*
X122415180Y-88982779D01*
X121700895Y-89744684D02*
X121700895Y-90220874D01*
X121415180Y-89649446D02*
X122415180Y-89982779D01*
X122415180Y-89982779D02*
X121415180Y-90316112D01*
X122415180Y-90506589D02*
X122415180Y-91078017D01*
X121415180Y-90792303D02*
X122415180Y-90792303D01*
X118476950Y-91854533D02*
X118476950Y-91154533D01*
X118476950Y-91154533D02*
X118643617Y-91154533D01*
X118643617Y-91154533D02*
X118743617Y-91187866D01*
X118743617Y-91187866D02*
X118810284Y-91254533D01*
X118810284Y-91254533D02*
X118843617Y-91321200D01*
X118843617Y-91321200D02*
X118876950Y-91454533D01*
X118876950Y-91454533D02*
X118876950Y-91554533D01*
X118876950Y-91554533D02*
X118843617Y-91687866D01*
X118843617Y-91687866D02*
X118810284Y-91754533D01*
X118810284Y-91754533D02*
X118743617Y-91821200D01*
X118743617Y-91821200D02*
X118643617Y-91854533D01*
X118643617Y-91854533D02*
X118476950Y-91854533D01*
X121377284Y-91538666D02*
X121477284Y-91572000D01*
X121477284Y-91572000D02*
X121510617Y-91605333D01*
X121510617Y-91605333D02*
X121543950Y-91672000D01*
X121543950Y-91672000D02*
X121543950Y-91772000D01*
X121543950Y-91772000D02*
X121510617Y-91838666D01*
X121510617Y-91838666D02*
X121477284Y-91872000D01*
X121477284Y-91872000D02*
X121410617Y-91905333D01*
X121410617Y-91905333D02*
X121143950Y-91905333D01*
X121143950Y-91905333D02*
X121143950Y-91205333D01*
X121143950Y-91205333D02*
X121377284Y-91205333D01*
X121377284Y-91205333D02*
X121443950Y-91238666D01*
X121443950Y-91238666D02*
X121477284Y-91272000D01*
X121477284Y-91272000D02*
X121510617Y-91338666D01*
X121510617Y-91338666D02*
X121510617Y-91405333D01*
X121510617Y-91405333D02*
X121477284Y-91472000D01*
X121477284Y-91472000D02*
X121443950Y-91505333D01*
X121443950Y-91505333D02*
X121377284Y-91538666D01*
X121377284Y-91538666D02*
X121143950Y-91538666D01*
X134842190Y-81315112D02*
X134794571Y-81457969D01*
X134794571Y-81457969D02*
X134746952Y-81505588D01*
X134746952Y-81505588D02*
X134651714Y-81553207D01*
X134651714Y-81553207D02*
X134508857Y-81553207D01*
X134508857Y-81553207D02*
X134413619Y-81505588D01*
X134413619Y-81505588D02*
X134366000Y-81457969D01*
X134366000Y-81457969D02*
X134318380Y-81362731D01*
X134318380Y-81362731D02*
X134318380Y-80981779D01*
X134318380Y-80981779D02*
X135318380Y-80981779D01*
X135318380Y-80981779D02*
X135318380Y-81315112D01*
X135318380Y-81315112D02*
X135270761Y-81410350D01*
X135270761Y-81410350D02*
X135223142Y-81457969D01*
X135223142Y-81457969D02*
X135127904Y-81505588D01*
X135127904Y-81505588D02*
X135032666Y-81505588D01*
X135032666Y-81505588D02*
X134937428Y-81457969D01*
X134937428Y-81457969D02*
X134889809Y-81410350D01*
X134889809Y-81410350D02*
X134842190Y-81315112D01*
X134842190Y-81315112D02*
X134842190Y-80981779D01*
X134318380Y-82505588D02*
X134318380Y-81934160D01*
X134318380Y-82219874D02*
X135318380Y-82219874D01*
X135318380Y-82219874D02*
X135175523Y-82124636D01*
X135175523Y-82124636D02*
X135080285Y-82029398D01*
X135080285Y-82029398D02*
X135032666Y-81934160D01*
X128427350Y-80256266D02*
X128394017Y-80289600D01*
X128394017Y-80289600D02*
X128294017Y-80322933D01*
X128294017Y-80322933D02*
X128227350Y-80322933D01*
X128227350Y-80322933D02*
X128127350Y-80289600D01*
X128127350Y-80289600D02*
X128060684Y-80222933D01*
X128060684Y-80222933D02*
X128027350Y-80156266D01*
X128027350Y-80156266D02*
X127994017Y-80022933D01*
X127994017Y-80022933D02*
X127994017Y-79922933D01*
X127994017Y-79922933D02*
X128027350Y-79789600D01*
X128027350Y-79789600D02*
X128060684Y-79722933D01*
X128060684Y-79722933D02*
X128127350Y-79656266D01*
X128127350Y-79656266D02*
X128227350Y-79622933D01*
X128227350Y-79622933D02*
X128294017Y-79622933D01*
X128294017Y-79622933D02*
X128394017Y-79656266D01*
X128394017Y-79656266D02*
X128427350Y-79689600D01*
X129060684Y-80322933D02*
X128727350Y-80322933D01*
X128727350Y-80322933D02*
X128727350Y-79622933D01*
X129294017Y-80322933D02*
X129294017Y-79622933D01*
X129694017Y-80322933D02*
X129394017Y-79922933D01*
X129694017Y-79622933D02*
X129294017Y-80022933D01*
X137607561Y-89506588D02*
X137655180Y-89411350D01*
X137655180Y-89411350D02*
X137655180Y-89268493D01*
X137655180Y-89268493D02*
X137607561Y-89125636D01*
X137607561Y-89125636D02*
X137512323Y-89030398D01*
X137512323Y-89030398D02*
X137417085Y-88982779D01*
X137417085Y-88982779D02*
X137226609Y-88935160D01*
X137226609Y-88935160D02*
X137083752Y-88935160D01*
X137083752Y-88935160D02*
X136893276Y-88982779D01*
X136893276Y-88982779D02*
X136798038Y-89030398D01*
X136798038Y-89030398D02*
X136702800Y-89125636D01*
X136702800Y-89125636D02*
X136655180Y-89268493D01*
X136655180Y-89268493D02*
X136655180Y-89363731D01*
X136655180Y-89363731D02*
X136702800Y-89506588D01*
X136702800Y-89506588D02*
X136750419Y-89554207D01*
X136750419Y-89554207D02*
X137083752Y-89554207D01*
X137083752Y-89554207D02*
X137083752Y-89363731D01*
X136655180Y-90506588D02*
X136655180Y-89935160D01*
X136655180Y-90220874D02*
X137655180Y-90220874D01*
X137655180Y-90220874D02*
X137512323Y-90125636D01*
X137512323Y-90125636D02*
X137417085Y-90030398D01*
X137417085Y-90030398D02*
X137369466Y-89935160D01*
X135397761Y-89455788D02*
X135445380Y-89360550D01*
X135445380Y-89360550D02*
X135445380Y-89217693D01*
X135445380Y-89217693D02*
X135397761Y-89074836D01*
X135397761Y-89074836D02*
X135302523Y-88979598D01*
X135302523Y-88979598D02*
X135207285Y-88931979D01*
X135207285Y-88931979D02*
X135016809Y-88884360D01*
X135016809Y-88884360D02*
X134873952Y-88884360D01*
X134873952Y-88884360D02*
X134683476Y-88931979D01*
X134683476Y-88931979D02*
X134588238Y-88979598D01*
X134588238Y-88979598D02*
X134493000Y-89074836D01*
X134493000Y-89074836D02*
X134445380Y-89217693D01*
X134445380Y-89217693D02*
X134445380Y-89312931D01*
X134445380Y-89312931D02*
X134493000Y-89455788D01*
X134493000Y-89455788D02*
X134540619Y-89503407D01*
X134540619Y-89503407D02*
X134873952Y-89503407D01*
X134873952Y-89503407D02*
X134873952Y-89312931D01*
X134445380Y-89931979D02*
X135445380Y-89931979D01*
X135445380Y-89931979D02*
X134445380Y-90503407D01*
X134445380Y-90503407D02*
X135445380Y-90503407D01*
X134445380Y-90979598D02*
X135445380Y-90979598D01*
X135445380Y-90979598D02*
X135445380Y-91217693D01*
X135445380Y-91217693D02*
X135397761Y-91360550D01*
X135397761Y-91360550D02*
X135302523Y-91455788D01*
X135302523Y-91455788D02*
X135207285Y-91503407D01*
X135207285Y-91503407D02*
X135016809Y-91551026D01*
X135016809Y-91551026D02*
X134873952Y-91551026D01*
X134873952Y-91551026D02*
X134683476Y-91503407D01*
X134683476Y-91503407D02*
X134588238Y-91455788D01*
X134588238Y-91455788D02*
X134493000Y-91360550D01*
X134493000Y-91360550D02*
X134445380Y-91217693D01*
X134445380Y-91217693D02*
X134445380Y-90979598D01*
X112033255Y-86753819D02*
X112128493Y-86753819D01*
X112128493Y-86753819D02*
X112223731Y-86801438D01*
X112223731Y-86801438D02*
X112271350Y-86849057D01*
X112271350Y-86849057D02*
X112318969Y-86944295D01*
X112318969Y-86944295D02*
X112366588Y-87134771D01*
X112366588Y-87134771D02*
X112366588Y-87372866D01*
X112366588Y-87372866D02*
X112318969Y-87563342D01*
X112318969Y-87563342D02*
X112271350Y-87658580D01*
X112271350Y-87658580D02*
X112223731Y-87706200D01*
X112223731Y-87706200D02*
X112128493Y-87753819D01*
X112128493Y-87753819D02*
X112033255Y-87753819D01*
X112033255Y-87753819D02*
X111938017Y-87706200D01*
X111938017Y-87706200D02*
X111890398Y-87658580D01*
X111890398Y-87658580D02*
X111842779Y-87563342D01*
X111842779Y-87563342D02*
X111795160Y-87372866D01*
X111795160Y-87372866D02*
X111795160Y-87134771D01*
X111795160Y-87134771D02*
X111842779Y-86944295D01*
X111842779Y-86944295D02*
X111890398Y-86849057D01*
X111890398Y-86849057D02*
X111938017Y-86801438D01*
X111938017Y-86801438D02*
X112033255Y-86753819D01*
X112652303Y-86753819D02*
X112985636Y-87753819D01*
X112985636Y-87753819D02*
X113318969Y-86753819D01*
X123955180Y-88982779D02*
X124955180Y-88982779D01*
X124955180Y-88982779D02*
X124955180Y-89220874D01*
X124955180Y-89220874D02*
X124907561Y-89363731D01*
X124907561Y-89363731D02*
X124812323Y-89458969D01*
X124812323Y-89458969D02*
X124717085Y-89506588D01*
X124717085Y-89506588D02*
X124526609Y-89554207D01*
X124526609Y-89554207D02*
X124383752Y-89554207D01*
X124383752Y-89554207D02*
X124193276Y-89506588D01*
X124193276Y-89506588D02*
X124098038Y-89458969D01*
X124098038Y-89458969D02*
X124002800Y-89363731D01*
X124002800Y-89363731D02*
X123955180Y-89220874D01*
X123955180Y-89220874D02*
X123955180Y-88982779D01*
X108742350Y-91854533D02*
X108509017Y-91521200D01*
X108342350Y-91854533D02*
X108342350Y-91154533D01*
X108342350Y-91154533D02*
X108609017Y-91154533D01*
X108609017Y-91154533D02*
X108675684Y-91187866D01*
X108675684Y-91187866D02*
X108709017Y-91221200D01*
X108709017Y-91221200D02*
X108742350Y-91287866D01*
X108742350Y-91287866D02*
X108742350Y-91387866D01*
X108742350Y-91387866D02*
X108709017Y-91454533D01*
X108709017Y-91454533D02*
X108675684Y-91487866D01*
X108675684Y-91487866D02*
X108609017Y-91521200D01*
X108609017Y-91521200D02*
X108342350Y-91521200D01*
X109409017Y-91854533D02*
X109009017Y-91854533D01*
X109209017Y-91854533D02*
X109209017Y-91154533D01*
X109209017Y-91154533D02*
X109142350Y-91254533D01*
X109142350Y-91254533D02*
X109075684Y-91321200D01*
X109075684Y-91321200D02*
X109009017Y-91354533D01*
X129558990Y-81315112D02*
X129511371Y-81457969D01*
X129511371Y-81457969D02*
X129463752Y-81505588D01*
X129463752Y-81505588D02*
X129368514Y-81553207D01*
X129368514Y-81553207D02*
X129225657Y-81553207D01*
X129225657Y-81553207D02*
X129130419Y-81505588D01*
X129130419Y-81505588D02*
X129082800Y-81457969D01*
X129082800Y-81457969D02*
X129035180Y-81362731D01*
X129035180Y-81362731D02*
X129035180Y-80981779D01*
X129035180Y-80981779D02*
X130035180Y-80981779D01*
X130035180Y-80981779D02*
X130035180Y-81315112D01*
X130035180Y-81315112D02*
X129987561Y-81410350D01*
X129987561Y-81410350D02*
X129939942Y-81457969D01*
X129939942Y-81457969D02*
X129844704Y-81505588D01*
X129844704Y-81505588D02*
X129749466Y-81505588D01*
X129749466Y-81505588D02*
X129654228Y-81457969D01*
X129654228Y-81457969D02*
X129606609Y-81410350D01*
X129606609Y-81410350D02*
X129558990Y-81315112D01*
X129558990Y-81315112D02*
X129558990Y-80981779D01*
X129939942Y-81934160D02*
X129987561Y-81981779D01*
X129987561Y-81981779D02*
X130035180Y-82077017D01*
X130035180Y-82077017D02*
X130035180Y-82315112D01*
X130035180Y-82315112D02*
X129987561Y-82410350D01*
X129987561Y-82410350D02*
X129939942Y-82457969D01*
X129939942Y-82457969D02*
X129844704Y-82505588D01*
X129844704Y-82505588D02*
X129749466Y-82505588D01*
X129749466Y-82505588D02*
X129606609Y-82457969D01*
X129606609Y-82457969D02*
X129035180Y-81886541D01*
X129035180Y-81886541D02*
X129035180Y-82505588D01*
X140473095Y-88679819D02*
X140473095Y-89489342D01*
X140473095Y-89489342D02*
X140520714Y-89584580D01*
X140520714Y-89584580D02*
X140568333Y-89632200D01*
X140568333Y-89632200D02*
X140663571Y-89679819D01*
X140663571Y-89679819D02*
X140854047Y-89679819D01*
X140854047Y-89679819D02*
X140949285Y-89632200D01*
X140949285Y-89632200D02*
X140996904Y-89584580D01*
X140996904Y-89584580D02*
X141044523Y-89489342D01*
X141044523Y-89489342D02*
X141044523Y-88679819D01*
X141473095Y-88775057D02*
X141520714Y-88727438D01*
X141520714Y-88727438D02*
X141615952Y-88679819D01*
X141615952Y-88679819D02*
X141854047Y-88679819D01*
X141854047Y-88679819D02*
X141949285Y-88727438D01*
X141949285Y-88727438D02*
X141996904Y-88775057D01*
X141996904Y-88775057D02*
X142044523Y-88870295D01*
X142044523Y-88870295D02*
X142044523Y-88965533D01*
X142044523Y-88965533D02*
X141996904Y-89108390D01*
X141996904Y-89108390D02*
X141425476Y-89679819D01*
X141425476Y-89679819D02*
X142044523Y-89679819D01*
X102223219Y-91301533D02*
X102937504Y-91301533D01*
X102937504Y-91301533D02*
X103080361Y-91349152D01*
X103080361Y-91349152D02*
X103175600Y-91444390D01*
X103175600Y-91444390D02*
X103223219Y-91587247D01*
X103223219Y-91587247D02*
X103223219Y-91682485D01*
X103223219Y-90301533D02*
X103223219Y-90872961D01*
X103223219Y-90587247D02*
X102223219Y-90587247D01*
X102223219Y-90587247D02*
X102366076Y-90682485D01*
X102366076Y-90682485D02*
X102461314Y-90777723D01*
X102461314Y-90777723D02*
X102508933Y-90872961D01*
X138392819Y-89792133D02*
X139107104Y-89792133D01*
X139107104Y-89792133D02*
X139249961Y-89839752D01*
X139249961Y-89839752D02*
X139345200Y-89934990D01*
X139345200Y-89934990D02*
X139392819Y-90077847D01*
X139392819Y-90077847D02*
X139392819Y-90173085D01*
X138488057Y-89363561D02*
X138440438Y-89315942D01*
X138440438Y-89315942D02*
X138392819Y-89220704D01*
X138392819Y-89220704D02*
X138392819Y-88982609D01*
X138392819Y-88982609D02*
X138440438Y-88887371D01*
X138440438Y-88887371D02*
X138488057Y-88839752D01*
X138488057Y-88839752D02*
X138583295Y-88792133D01*
X138583295Y-88792133D02*
X138678533Y-88792133D01*
X138678533Y-88792133D02*
X138821390Y-88839752D01*
X138821390Y-88839752D02*
X139392819Y-89411180D01*
X139392819Y-89411180D02*
X139392819Y-88792133D01*
X114593095Y-88837419D02*
X114593095Y-89646942D01*
X114593095Y-89646942D02*
X114640714Y-89742180D01*
X114640714Y-89742180D02*
X114688333Y-89789800D01*
X114688333Y-89789800D02*
X114783571Y-89837419D01*
X114783571Y-89837419D02*
X114974047Y-89837419D01*
X114974047Y-89837419D02*
X115069285Y-89789800D01*
X115069285Y-89789800D02*
X115116904Y-89742180D01*
X115116904Y-89742180D02*
X115164523Y-89646942D01*
X115164523Y-89646942D02*
X115164523Y-88837419D01*
X116164523Y-89837419D02*
X115593095Y-89837419D01*
X115878809Y-89837419D02*
X115878809Y-88837419D01*
X115878809Y-88837419D02*
X115783571Y-88980276D01*
X115783571Y-88980276D02*
X115688333Y-89075514D01*
X115688333Y-89075514D02*
X115593095Y-89123133D01*
D11*
%TO.C,U2*%
X140235000Y-87825000D02*
X142735000Y-87825000D01*
X140235000Y-83625000D02*
X142235000Y-83625000D01*
%TO.C,J1*%
X102486200Y-89920600D02*
X102486200Y-82200600D01*
X103706200Y-89920600D02*
X103706200Y-88700600D01*
X110906200Y-89920600D02*
X102486200Y-89920600D01*
X103706200Y-88700600D02*
X108706200Y-88700600D01*
X107706200Y-88700600D02*
X107706200Y-83420600D01*
X108706200Y-88700600D02*
X108706200Y-89920600D01*
X108706200Y-88700600D02*
X110906200Y-88700600D01*
X110906200Y-88700600D02*
X110906200Y-89920600D01*
X104286200Y-87630600D02*
X104206200Y-87310600D01*
X107706200Y-87630600D02*
X104286200Y-87630600D01*
X111396200Y-87610600D02*
X111396200Y-87010600D01*
X104206200Y-87310600D02*
X104286200Y-86990600D01*
X107706200Y-87310600D02*
X107706200Y-87630600D01*
X110796200Y-87310600D02*
X111396200Y-87610600D01*
X111396200Y-87010600D02*
X110796200Y-87310600D01*
X104286200Y-86990600D02*
X107706200Y-86990600D01*
X107706200Y-86990600D02*
X107706200Y-87310600D01*
X108706200Y-86140600D02*
X108706200Y-85980600D01*
X104286200Y-85130600D02*
X104206200Y-84810600D01*
X107706200Y-85130600D02*
X104286200Y-85130600D01*
X104206200Y-84810600D02*
X104286200Y-84490600D01*
X107706200Y-84810600D02*
X107706200Y-85130600D01*
X104286200Y-84490600D02*
X107706200Y-84490600D01*
X107706200Y-84490600D02*
X107706200Y-84810600D01*
X103706200Y-83420600D02*
X108706200Y-83420600D01*
X108706200Y-83420600D02*
X108706200Y-82200600D01*
X110906200Y-83420600D02*
X108706200Y-83420600D01*
X102486200Y-82200600D02*
X110906200Y-82200600D01*
X103706200Y-82200600D02*
X103706200Y-83420600D01*
X110906200Y-82200600D02*
X110906200Y-83420600D01*
%TO.C,J2*%
X138490000Y-83125000D02*
X118050000Y-83125000D01*
X138490000Y-83125000D02*
X138490000Y-85725000D01*
X118050000Y-83125000D02*
X118050000Y-88325000D01*
X138490000Y-85725000D02*
X135890000Y-85725000D01*
X135890000Y-85725000D02*
X135890000Y-88325000D01*
X138490000Y-86995000D02*
X138490000Y-88325000D01*
X138490000Y-88325000D02*
X137160000Y-88325000D01*
X135890000Y-88325000D02*
X118050000Y-88325000D01*
%TO.C,U1*%
X116355000Y-83660000D02*
X113855000Y-83660000D01*
X116355000Y-87860000D02*
X114355000Y-87860000D01*
%TD*%
M02*
