%TF.GenerationSoftware,KiCad,Pcbnew,7.0.8*%
%TF.CreationDate,2023-11-27T23:44:53+01:00*%
%TF.ProjectId,LvL_shifter_shield,4c764c5f-7368-4696-9674-65725f736869,rev?*%
%TF.SameCoordinates,Original*%
%TF.FileFunction,Copper,L1,Top*%
%TF.FilePolarity,Positive*%
%FSLAX46Y46*%
G04 Gerber Fmt 4.6, Leading zero omitted, Abs format (unit mm)*
G04 Created by KiCad (PCBNEW 7.0.8) date 2023-11-27 23:44:53*
%MOMM*%
%LPD*%
G01*
G04 APERTURE LIST*
G04 Aperture macros list*
%AMRoundRect*
0 Rectangle with rounded corners*
0 $1 Rounding radius*
0 $2 $3 $4 $5 $6 $7 $8 $9 X,Y pos of 4 corners*
0 Add a 4 corners polygon primitive as box body*
4,1,4,$2,$3,$4,$5,$6,$7,$8,$9,$2,$3,0*
0 Add four circle primitives for the rounded corners*
1,1,$1+$1,$2,$3*
1,1,$1+$1,$4,$5*
1,1,$1+$1,$6,$7*
1,1,$1+$1,$8,$9*
0 Add four rect primitives between the rounded corners*
20,1,$1+$1,$2,$3,$4,$5,0*
20,1,$1+$1,$4,$5,$6,$7,0*
20,1,$1+$1,$6,$7,$8,$9,0*
20,1,$1+$1,$8,$9,$2,$3,0*%
G04 Aperture macros list end*
%TA.AperFunction,SMDPad,CuDef*%
%ADD10R,1.100000X0.200000*%
%TD*%
%TA.AperFunction,SMDPad,CuDef*%
%ADD11R,1.000000X0.200000*%
%TD*%
%TA.AperFunction,ComponentPad*%
%ADD12RoundRect,0.250000X0.750000X-0.600000X0.750000X0.600000X-0.750000X0.600000X-0.750000X-0.600000X0*%
%TD*%
%TA.AperFunction,ComponentPad*%
%ADD13O,2.000000X1.700000*%
%TD*%
%TA.AperFunction,ComponentPad*%
%ADD14R,1.700000X1.700000*%
%TD*%
%TA.AperFunction,ComponentPad*%
%ADD15O,1.700000X1.700000*%
%TD*%
%TA.AperFunction,ViaPad*%
%ADD16C,0.800000*%
%TD*%
%TA.AperFunction,ViaPad*%
%ADD17C,0.600000*%
%TD*%
%TA.AperFunction,Conductor*%
%ADD18C,0.250000*%
%TD*%
%TA.AperFunction,Conductor*%
%ADD19C,0.150000*%
%TD*%
G04 APERTURE END LIST*
D10*
%TO.P,U2,1,A1*%
%TO.N,/PA04*%
X142085000Y-87525000D03*
D11*
%TO.P,U2,2,A2*%
%TO.N,/PA07*%
X142135000Y-87125000D03*
%TO.P,U2,3,A3*%
%TO.N,/PA20*%
X142135000Y-86725000D03*
%TO.P,U2,4,A4*%
%TO.N,/PA17*%
X142135000Y-86325000D03*
%TO.P,U2,5,VCCA*%
%TO.N,+3.3V*%
X142135000Y-85925000D03*
%TO.P,U2,6,OE*%
X142135000Y-85525000D03*
%TO.P,U2,7,A5*%
%TO.N,/PA16*%
X142135000Y-85125000D03*
%TO.P,U2,8,A6*%
%TO.N,/PA18*%
X142135000Y-84725000D03*
%TO.P,U2,9,A7*%
%TO.N,/PA19*%
X142135000Y-84325000D03*
%TO.P,U2,10,A8*%
%TO.N,/PA21*%
X142135000Y-83925000D03*
%TO.P,U2,11,B8*%
%TO.N,/B2*%
X140335000Y-83925000D03*
%TO.P,U2,12,B7*%
%TO.N,/R2*%
X140335000Y-84325000D03*
%TO.P,U2,13,B6*%
%TO.N,/B1*%
X140335000Y-84725000D03*
%TO.P,U2,14,B5*%
%TO.N,/R1*%
X140335000Y-85125000D03*
%TO.P,U2,15,GND*%
%TO.N,GND*%
X140335000Y-85525000D03*
%TO.P,U2,16,VCCB*%
%TO.N,+5V*%
X140335000Y-85925000D03*
%TO.P,U2,17,B4*%
%TO.N,/G1*%
X140335000Y-86325000D03*
%TO.P,U2,18,B3*%
%TO.N,/G2*%
X140335000Y-86725000D03*
%TO.P,U2,19,B2*%
%TO.N,/E*%
X140335000Y-87125000D03*
%TO.P,U2,20,B1*%
%TO.N,/B*%
X140335000Y-87525000D03*
%TD*%
D12*
%TO.P,J1,1,Pin_1*%
%TO.N,GND*%
X109296200Y-87310600D03*
D13*
%TO.P,J1,2,Pin_2*%
%TO.N,Net-(J1-Pin_2)*%
X109296200Y-84810600D03*
%TD*%
D14*
%TO.P,J2,1,Pin_1*%
%TO.N,/G1*%
X137160000Y-86995000D03*
D15*
%TO.P,J2,2,Pin_2*%
%TO.N,/R1*%
X137160000Y-84455000D03*
%TO.P,J2,3,Pin_3*%
%TO.N,GND*%
X134620000Y-86995000D03*
%TO.P,J2,4,Pin_4*%
%TO.N,/B1*%
X134620000Y-84455000D03*
%TO.P,J2,5,Pin_5*%
%TO.N,/G2*%
X132080000Y-86995000D03*
%TO.P,J2,6,Pin_6*%
%TO.N,/R2*%
X132080000Y-84455000D03*
%TO.P,J2,7,Pin_7*%
%TO.N,/E*%
X129540000Y-86995000D03*
%TO.P,J2,8,Pin_8*%
%TO.N,/B2*%
X129540000Y-84455000D03*
%TO.P,J2,9,Pin_9*%
%TO.N,/B*%
X127000000Y-86995000D03*
%TO.P,J2,10,Pin_10*%
%TO.N,/A*%
X127000000Y-84455000D03*
%TO.P,J2,11,Pin_11*%
%TO.N,/D*%
X124460000Y-86995000D03*
%TO.P,J2,12,Pin_12*%
%TO.N,/C*%
X124460000Y-84455000D03*
%TO.P,J2,13,Pin_13*%
%TO.N,/LAT*%
X121920000Y-86995000D03*
%TO.P,J2,14,Pin_14*%
%TO.N,/CLK*%
X121920000Y-84455000D03*
%TO.P,J2,15,Pin_15*%
%TO.N,GND*%
X119380000Y-86995000D03*
%TO.P,J2,16,Pin_16*%
%TO.N,/OE*%
X119380000Y-84455000D03*
%TD*%
D10*
%TO.P,U1,1,A1*%
%TO.N,/PA02*%
X114505000Y-83960000D03*
D11*
%TO.P,U1,2,A2*%
%TO.N,/PA05*%
X114455000Y-84360000D03*
%TO.P,U1,3,A3*%
%TO.N,/PA09*%
X114455000Y-84760000D03*
%TO.P,U1,4,A4*%
%TO.N,/PA10*%
X114455000Y-85160000D03*
%TO.P,U1,5,VCCA*%
%TO.N,+3.3V*%
X114455000Y-85560000D03*
%TO.P,U1,6,OE*%
X114455000Y-85960000D03*
%TO.P,U1,7,A5*%
%TO.N,/PA11*%
X114455000Y-86360000D03*
%TO.P,U1,8,A6*%
%TO.N,/PA06*%
X114455000Y-86760000D03*
%TO.P,U1,9,A7*%
%TO.N,GND*%
X114455000Y-87160000D03*
%TO.P,U1,10,A8*%
X114455000Y-87560000D03*
%TO.P,U1,11,B8*%
X116255000Y-87560000D03*
%TO.P,U1,12,B7*%
X116255000Y-87160000D03*
%TO.P,U1,13,B6*%
%TO.N,/D*%
X116255000Y-86760000D03*
%TO.P,U1,14,B5*%
%TO.N,/LAT*%
X116255000Y-86360000D03*
%TO.P,U1,15,GND*%
%TO.N,GND*%
X116255000Y-85960000D03*
%TO.P,U1,16,VCCB*%
%TO.N,+5V*%
X116255000Y-85560000D03*
%TO.P,U1,17,B4*%
%TO.N,/OE*%
X116255000Y-85160000D03*
%TO.P,U1,18,B3*%
%TO.N,/CLK*%
X116255000Y-84760000D03*
%TO.P,U1,19,B2*%
%TO.N,/C*%
X116255000Y-84360000D03*
%TO.P,U1,20,B1*%
%TO.N,/A*%
X116255000Y-83960000D03*
%TD*%
D14*
%TO.P,J4,1,Pin_1*%
%TO.N,/PB22*%
X141605000Y-93345000D03*
D15*
%TO.P,J4,2,Pin_2*%
%TO.N,/PB23*%
X139065000Y-93345000D03*
%TO.P,J4,3,Pin_3*%
%TO.N,/RESET2*%
X136525000Y-93345000D03*
%TO.P,J4,4,Pin_4*%
%TO.N,GND*%
X133985000Y-93345000D03*
%TO.P,J4,5,Pin_5*%
%TO.N,/PB10*%
X131445000Y-93345000D03*
%TO.P,J4,6,Pin_6*%
%TO.N,/PB11*%
X128905000Y-93345000D03*
%TO.P,J4,7,Pin_7*%
%TO.N,/PA07*%
X126365000Y-93345000D03*
%TO.P,J4,8,Pin_8*%
%TO.N,/PA05*%
X123825000Y-93345000D03*
%TO.P,J4,9,Pin_9*%
%TO.N,/PA04*%
X121285000Y-93345000D03*
%TO.P,J4,10,Pin_10*%
%TO.N,/PA06*%
X118745000Y-93345000D03*
%TO.P,J4,11,Pin_11*%
%TO.N,/PA18*%
X116205000Y-93345000D03*
%TO.P,J4,12,Pin_12*%
%TO.N,/PA20*%
X113665000Y-93345000D03*
%TO.P,J4,13,Pin_13*%
%TO.N,/PA21*%
X111125000Y-93345000D03*
%TO.P,J4,14,Pin_14*%
%TO.N,/PA16*%
X108585000Y-93345000D03*
%TO.P,J4,15,Pin_15*%
%TO.N,/PA19*%
X106045000Y-93345000D03*
%TD*%
D14*
%TO.P,J3,1,Pin_1*%
%TO.N,/PA17*%
X106019600Y-78105000D03*
D15*
%TO.P,J3,2,Pin_2*%
%TO.N,+3.3V*%
X108559600Y-78105000D03*
%TO.P,J3,3,Pin_3*%
%TO.N,/PA03*%
X111099600Y-78105000D03*
%TO.P,J3,4,Pin_4*%
%TO.N,/PA02*%
X113639600Y-78105000D03*
%TO.P,J3,5,Pin_5*%
%TO.N,/PB02*%
X116179600Y-78105000D03*
%TO.P,J3,6,Pin_6*%
%TO.N,/PA11*%
X118719600Y-78105000D03*
%TO.P,J3,7,Pin_7*%
%TO.N,/PA10*%
X121259600Y-78105000D03*
%TO.P,J3,8,Pin_8*%
%TO.N,/PB08*%
X123799600Y-78105000D03*
%TO.P,J3,9,Pin_9*%
%TO.N,/PB09*%
X126339600Y-78105000D03*
%TO.P,J3,10,Pin_10*%
%TO.N,/PA09*%
X128879600Y-78105000D03*
%TO.P,J3,11,Pin_11*%
%TO.N,/PB03*%
X131419600Y-78105000D03*
%TO.P,J3,12,Pin_12*%
%TO.N,+5V*%
X133959600Y-78105000D03*
%TO.P,J3,13,Pin_13*%
%TO.N,/RESET*%
X136499600Y-78105000D03*
%TO.P,J3,14,Pin_14*%
%TO.N,GND*%
X139039600Y-78105000D03*
%TO.P,J3,15,Pin_15*%
%TO.N,/VIN*%
X141579600Y-78105000D03*
%TD*%
D16*
%TO.N,+5V*%
X117300798Y-85887100D03*
X140919200Y-81686400D03*
X141198600Y-88798400D03*
%TO.N,GND*%
X129336800Y-81000600D03*
X137936900Y-81280000D03*
X108839000Y-81280000D03*
X115976400Y-81305400D03*
X118541800Y-89789000D03*
X138607800Y-90703400D03*
X133985000Y-90855800D03*
X133477000Y-81026000D03*
%TO.N,+3.3V*%
X109448600Y-82931000D03*
D17*
X144094200Y-82473800D03*
D16*
X144094200Y-85852000D03*
X106502200Y-80213200D03*
X111658400Y-85699600D03*
D17*
%TO.N,/R1*%
X139014200Y-84963000D03*
%TO.N,/G1*%
X138988800Y-86049500D03*
%TO.N,/B1*%
X138988800Y-84201000D03*
%TO.N,/R2*%
X139014200Y-83489800D03*
%TO.N,/G2*%
X139014200Y-86791800D03*
%TO.N,/B2*%
X140462000Y-83176100D03*
%TO.N,/E*%
X138988800Y-88265000D03*
%TO.N,/A*%
X117144800Y-83312000D03*
%TO.N,/B*%
X139928600Y-88468200D03*
%TO.N,/C*%
X118160800Y-83185000D03*
%TO.N,/D*%
X117348000Y-87122000D03*
%TO.N,/CLK*%
X117584700Y-84685500D03*
%TO.N,/PA17*%
X144754600Y-86461600D03*
X112242600Y-80086200D03*
%TO.N,/PA02*%
X113436400Y-83032600D03*
X111601107Y-79578700D03*
%TO.N,/PA11*%
X116281200Y-83176100D03*
X113389665Y-86364065D03*
X118211600Y-81254600D03*
%TO.N,/PA10*%
X119913400Y-80195900D03*
X111963200Y-84886800D03*
%TO.N,/PA09*%
X127609600Y-80238600D03*
X112598200Y-84404200D03*
%TO.N,/PA07*%
X143256000Y-87706200D03*
%TO.N,/PA05*%
X116027200Y-89992200D03*
X113182400Y-83896200D03*
X112445800Y-86461600D03*
%TO.N,/PA04*%
X129870200Y-90830400D03*
X127939800Y-90830400D03*
X142753323Y-88879923D03*
%TO.N,/PA06*%
X119405400Y-90838500D03*
X113021900Y-87096600D03*
X116840000Y-89281000D03*
%TO.N,/PA18*%
X143560800Y-84302600D03*
X122097800Y-90297000D03*
%TO.N,/PA20*%
X143408400Y-86995000D03*
%TO.N,/PA21*%
X114833400Y-91033600D03*
X142138400Y-83261200D03*
%TO.N,/PA16*%
X143390377Y-85021177D03*
X115468400Y-90678000D03*
%TO.N,/PA19*%
X143078200Y-83540600D03*
X143510000Y-88493600D03*
%TD*%
D18*
%TO.N,+5V*%
X117300798Y-85887100D02*
X116973698Y-85560000D01*
X141017600Y-85925000D02*
X140335000Y-85925000D01*
X141198600Y-86106000D02*
X141017600Y-85925000D01*
X141173200Y-85586800D02*
X140835000Y-85925000D01*
X141173200Y-81940400D02*
X141173200Y-85586800D01*
X140919200Y-81686400D02*
X141173200Y-81940400D01*
X116973698Y-85560000D02*
X116255000Y-85560000D01*
X141198600Y-88798400D02*
X141198600Y-86106000D01*
X140835000Y-85925000D02*
X140335000Y-85925000D01*
%TO.N,GND*%
X137936900Y-79207700D02*
X137936900Y-81280000D01*
X137591800Y-89738200D02*
X138430000Y-88900000D01*
X137642600Y-89738200D02*
X137591800Y-89738200D01*
X114455000Y-87160000D02*
X115366800Y-87160000D01*
X129336800Y-81000600D02*
X129336800Y-81965800D01*
X110032800Y-87706200D02*
X109626400Y-87299800D01*
X116001800Y-81991200D02*
X111760000Y-81991200D01*
X110896400Y-83362800D02*
X110642400Y-83108800D01*
X139039600Y-78105000D02*
X137936900Y-79207700D01*
X129336800Y-81965800D02*
X129311400Y-81991200D01*
X133477000Y-81026000D02*
X133477000Y-81965800D01*
X137225700Y-81991200D02*
X133502400Y-81991200D01*
X109644300Y-88054300D02*
X109644300Y-87305200D01*
X114455000Y-87560000D02*
X115366800Y-87560000D01*
X138430000Y-85525000D02*
X140335000Y-85525000D01*
X115366800Y-87909400D02*
X114757200Y-88519000D01*
X110896400Y-86029800D02*
X110896400Y-83362800D01*
X129311400Y-81991200D02*
X116001800Y-81991200D01*
X108839000Y-81305400D02*
X110642400Y-83108800D01*
X137936900Y-81280000D02*
X137795000Y-81280000D01*
X109609207Y-87293693D02*
X110879207Y-86023693D01*
X108839000Y-81280000D02*
X108839000Y-81305400D01*
X115366800Y-86182200D02*
X115366800Y-87160000D01*
X134620000Y-86995000D02*
X136525000Y-88900000D01*
X110109000Y-88519000D02*
X117856000Y-88519000D01*
X137936900Y-81280000D02*
X137225700Y-81991200D01*
X115366800Y-87560000D02*
X116255000Y-87560000D01*
X138430000Y-81773100D02*
X138430000Y-88900000D01*
X138430000Y-81773100D02*
X137936900Y-81280000D01*
X133985000Y-93345000D02*
X137591800Y-89738200D01*
X115589000Y-85960000D02*
X115366800Y-86182200D01*
X115976400Y-81305400D02*
X115976400Y-81965800D01*
X133502400Y-81991200D02*
X129311400Y-81991200D01*
X133477000Y-81965800D02*
X133502400Y-81991200D01*
X111760000Y-81991200D02*
X110642400Y-83108800D01*
X109067600Y-87325200D02*
X109499400Y-87325200D01*
X115366800Y-87160000D02*
X115366800Y-87560000D01*
X115366800Y-87909400D02*
X115366800Y-87560000D01*
X138607800Y-90703400D02*
X137642600Y-89738200D01*
X136525000Y-88900000D02*
X138430000Y-88900000D01*
X109651800Y-87325200D02*
X109067600Y-87325200D01*
X117856000Y-88519000D02*
X119380000Y-86995000D01*
X138430000Y-88900000D02*
X138430000Y-85525000D01*
X110109000Y-88519000D02*
X109644300Y-88054300D01*
X133985000Y-90855800D02*
X133985000Y-93345000D01*
X115976400Y-81965800D02*
X116001800Y-81991200D01*
X116255000Y-85960000D02*
X115589000Y-85960000D01*
X115366800Y-87160000D02*
X116255000Y-87160000D01*
D19*
%TO.N,+3.3V*%
X144094200Y-84988400D02*
X143557600Y-85525000D01*
D18*
X106502200Y-80213200D02*
X108153200Y-80213200D01*
X111658400Y-85699600D02*
X111798000Y-85560000D01*
X109448600Y-82931000D02*
X108153200Y-81635600D01*
D19*
X114455000Y-85960000D02*
X114455000Y-85560000D01*
D18*
X144094200Y-85852000D02*
X144021200Y-85925000D01*
X108153200Y-78511400D02*
X108559600Y-78105000D01*
X144021200Y-85925000D02*
X142135000Y-85925000D01*
X108153200Y-80213200D02*
X108153200Y-78511400D01*
D19*
X143557600Y-85525000D02*
X142135000Y-85525000D01*
X142135000Y-85525000D02*
X142135000Y-85925000D01*
X144094200Y-82473800D02*
X144094200Y-84988400D01*
D18*
X111798000Y-85560000D02*
X114455000Y-85560000D01*
X108153200Y-81635600D02*
X108153200Y-80213200D01*
D19*
%TO.N,/R1*%
X139176200Y-85125000D02*
X139014200Y-84963000D01*
X140335000Y-85125000D02*
X139176200Y-85125000D01*
%TO.N,/G1*%
X139264300Y-86325000D02*
X138988800Y-86049500D01*
X140335000Y-86325000D02*
X139264300Y-86325000D01*
%TO.N,/B1*%
X139639800Y-84725000D02*
X139115800Y-84201000D01*
X139115800Y-84201000D02*
X138988800Y-84201000D01*
X140335000Y-84725000D02*
X139639800Y-84725000D01*
%TO.N,/R2*%
X140335000Y-84325000D02*
X139849400Y-84325000D01*
X139849400Y-84325000D02*
X139014200Y-83489800D01*
%TO.N,/G2*%
X140335000Y-86725000D02*
X139081000Y-86725000D01*
X139081000Y-86725000D02*
X139014200Y-86791800D01*
%TO.N,/B2*%
X140462000Y-83176100D02*
X140335000Y-83303100D01*
X140335000Y-83303100D02*
X140335000Y-83925000D01*
%TO.N,/E*%
X139849400Y-87125000D02*
X138988800Y-87985600D01*
X138988800Y-87985600D02*
X138988800Y-88265000D01*
X140335000Y-87125000D02*
X139849400Y-87125000D01*
%TO.N,/A*%
X116255000Y-83960000D02*
X116496800Y-83960000D01*
X116496800Y-83960000D02*
X117144800Y-83312000D01*
%TO.N,/B*%
X140335000Y-87525000D02*
X140335000Y-88061800D01*
X140335000Y-88061800D02*
X139928600Y-88468200D01*
%TO.N,/C*%
X116255000Y-84360000D02*
X116985800Y-84360000D01*
X116985800Y-84360000D02*
X118160800Y-83185000D01*
%TO.N,/D*%
X116986000Y-86760000D02*
X117348000Y-87122000D01*
X116255000Y-86760000D02*
X116986000Y-86760000D01*
%TO.N,/CLK*%
X117510200Y-84760000D02*
X117584700Y-84685500D01*
X116255000Y-84760000D02*
X117510200Y-84760000D01*
%TO.N,/LAT*%
X116992400Y-86487000D02*
X117805200Y-86487000D01*
X116865400Y-86360000D02*
X116992400Y-86487000D01*
X118491000Y-85801200D02*
X120726200Y-85801200D01*
X116255000Y-86360000D02*
X116865400Y-86360000D01*
X117805200Y-86487000D02*
X118491000Y-85801200D01*
X120726200Y-85801200D02*
X121920000Y-86995000D01*
%TO.N,/OE*%
X116255000Y-85160000D02*
X118675000Y-85160000D01*
X118675000Y-85160000D02*
X119380000Y-84455000D01*
D18*
X119380000Y-84455000D02*
X119380000Y-84277200D01*
D19*
%TO.N,/PA17*%
X143637000Y-86461600D02*
X144754600Y-86461600D01*
X142135000Y-86325000D02*
X143500400Y-86325000D01*
X143500400Y-86325000D02*
X143637000Y-86461600D01*
%TO.N,/PA02*%
X114505000Y-83960000D02*
X114363800Y-83960000D01*
X114363800Y-83960000D02*
X113436400Y-83032600D01*
%TO.N,/PA11*%
X113393730Y-86360000D02*
X114455000Y-86360000D01*
X113389665Y-86364065D02*
X113393730Y-86360000D01*
%TO.N,/PA10*%
X114455000Y-85160000D02*
X112185600Y-85160000D01*
X111963200Y-84937600D02*
X111963200Y-84886800D01*
X112185600Y-85160000D02*
X111963200Y-84937600D01*
%TO.N,/PA09*%
X112954000Y-84760000D02*
X112598200Y-84404200D01*
X114455000Y-84760000D02*
X112954000Y-84760000D01*
%TO.N,/PA07*%
X142725600Y-87125000D02*
X142135000Y-87125000D01*
X143256000Y-87706200D02*
X143256000Y-87655400D01*
X143256000Y-87655400D02*
X142725600Y-87125000D01*
%TO.N,/PA05*%
X116027200Y-91338400D02*
X116027200Y-89992200D01*
X123825000Y-93345000D02*
X122148600Y-91668600D01*
X122148600Y-91668600D02*
X116357400Y-91668600D01*
X114455000Y-84360000D02*
X113646200Y-84360000D01*
X113646200Y-84360000D02*
X113182400Y-83896200D01*
X116357400Y-91668600D02*
X116027200Y-91338400D01*
%TO.N,/PA04*%
X142085000Y-88211600D02*
X142085000Y-87525000D01*
X142753323Y-88879923D02*
X142085000Y-88211600D01*
%TO.N,/PA06*%
X113849200Y-86760000D02*
X114455000Y-86760000D01*
X113512600Y-87096600D02*
X113849200Y-86760000D01*
X113021900Y-87096600D02*
X113512600Y-87096600D01*
%TO.N,/PA18*%
X143014802Y-84725000D02*
X143437202Y-84302600D01*
X143437202Y-84302600D02*
X143560800Y-84302600D01*
X142135000Y-84725000D02*
X143014802Y-84725000D01*
%TO.N,/PA20*%
X143408400Y-86995000D02*
X143138400Y-86725000D01*
X143138400Y-86725000D02*
X142135000Y-86725000D01*
%TO.N,/PA21*%
X142135000Y-83264600D02*
X142138400Y-83261200D01*
X142135000Y-83925000D02*
X142135000Y-83264600D01*
%TO.N,/PA16*%
X143286554Y-85125000D02*
X143390377Y-85021177D01*
X142135000Y-85125000D02*
X143286554Y-85125000D01*
%TO.N,/PA19*%
X143078200Y-83881800D02*
X143078200Y-83540600D01*
X142635000Y-84325000D02*
X143078200Y-83881800D01*
X142135000Y-84325000D02*
X142635000Y-84325000D01*
%TD*%
%TA.AperFunction,Conductor*%
%TO.N,/PA16*%
G36*
X143280020Y-84754994D02*
G01*
X143280803Y-84756535D01*
X143389492Y-85016666D01*
X143389519Y-85025621D01*
X143389492Y-85025688D01*
X143280056Y-85287607D01*
X143273704Y-85293919D01*
X143264812Y-85293917D01*
X143165818Y-85253222D01*
X143085674Y-85224475D01*
X143085673Y-85224474D01*
X143085671Y-85224474D01*
X143013941Y-85208449D01*
X143013935Y-85208448D01*
X143013933Y-85208448D01*
X142989374Y-85206429D01*
X142929453Y-85201505D01*
X142870651Y-85200757D01*
X142822580Y-85200146D01*
X142814351Y-85196614D01*
X142811029Y-85188447D01*
X142811029Y-85059921D01*
X142814456Y-85051648D01*
X142820814Y-85048379D01*
X142941475Y-85028395D01*
X143020696Y-84972946D01*
X143081036Y-84897838D01*
X143081261Y-84897574D01*
X143088568Y-84889592D01*
X143094396Y-84886133D01*
X143098802Y-84885048D01*
X143101101Y-84883010D01*
X143105378Y-84880598D01*
X143108312Y-84879685D01*
X143135060Y-84852934D01*
X143135251Y-84852754D01*
X143163558Y-84827679D01*
X143164647Y-84824806D01*
X143167311Y-84820684D01*
X143194734Y-84793261D01*
X143196937Y-84791535D01*
X143263956Y-84751032D01*
X143272809Y-84749686D01*
X143280020Y-84754994D01*
G37*
%TD.AperFunction*%
%TD*%
%TA.AperFunction,Conductor*%
%TO.N,/PA19*%
G36*
X142655832Y-84204458D02*
G01*
X142656471Y-84205051D01*
X142745392Y-84293972D01*
X142748819Y-84302245D01*
X142745392Y-84310518D01*
X142740847Y-84313335D01*
X142734007Y-84315634D01*
X142733994Y-84315639D01*
X142709245Y-84325455D01*
X142709241Y-84325456D01*
X142709233Y-84325460D01*
X142684510Y-84336766D01*
X142684497Y-84336772D01*
X142663781Y-84347499D01*
X142659740Y-84349592D01*
X142638136Y-84362090D01*
X142631387Y-84363629D01*
X142145042Y-84326527D01*
X142137054Y-84322481D01*
X142134232Y-84314927D01*
X142133791Y-84236569D01*
X142137171Y-84228277D01*
X142145293Y-84224805D01*
X142237516Y-84223251D01*
X142341306Y-84220002D01*
X142445096Y-84215254D01*
X142548886Y-84209005D01*
X142647327Y-84201656D01*
X142655832Y-84204458D01*
G37*
%TD.AperFunction*%
%TD*%
%TA.AperFunction,Conductor*%
%TO.N,/PA21*%
G36*
X142208843Y-83728427D02*
G01*
X142212003Y-83734215D01*
X142214999Y-83747999D01*
X142219999Y-83769499D01*
X142225000Y-83789500D01*
X142230000Y-83808000D01*
X142233051Y-83818374D01*
X142232097Y-83827278D01*
X142230140Y-83829907D01*
X142143314Y-83917602D01*
X142135058Y-83921070D01*
X142126768Y-83917684D01*
X142126686Y-83917602D01*
X142039859Y-83829907D01*
X142036473Y-83821617D01*
X142036948Y-83818374D01*
X142039999Y-83808000D01*
X142044999Y-83789500D01*
X142050000Y-83769499D01*
X142055000Y-83747999D01*
X142057997Y-83734214D01*
X142063103Y-83726858D01*
X142069430Y-83725000D01*
X142200570Y-83725000D01*
X142208843Y-83728427D01*
G37*
%TD.AperFunction*%
%TD*%
%TA.AperFunction,Conductor*%
%TO.N,/PA05*%
G36*
X122684107Y-92096263D02*
G01*
X122970740Y-92320402D01*
X123225393Y-92406329D01*
X123480084Y-92423980D01*
X123773832Y-92449565D01*
X123776107Y-92449993D01*
X124137791Y-92556039D01*
X124144765Y-92561655D01*
X124145725Y-92570558D01*
X124145312Y-92571732D01*
X123827562Y-93341214D01*
X123821237Y-93347553D01*
X123821214Y-93347562D01*
X123051732Y-93665312D01*
X123042777Y-93665303D01*
X123036452Y-93658964D01*
X123036042Y-93657800D01*
X122929993Y-93296107D01*
X122929565Y-93293831D01*
X122903980Y-93000084D01*
X122886329Y-92745393D01*
X122800402Y-92490740D01*
X122576263Y-92204107D01*
X122573868Y-92195481D01*
X122577207Y-92188630D01*
X122668630Y-92097207D01*
X122676902Y-92093781D01*
X122684107Y-92096263D01*
G37*
%TD.AperFunction*%
%TD*%
%TA.AperFunction,Conductor*%
%TO.N,/PA04*%
G36*
X142390302Y-88409498D02*
G01*
X142480686Y-88485143D01*
X142480688Y-88485144D01*
X142480689Y-88485144D01*
X142480691Y-88485146D01*
X142563529Y-88524388D01*
X142645670Y-88542384D01*
X142741823Y-88561094D01*
X142742532Y-88561280D01*
X142856204Y-88598821D01*
X142862985Y-88604670D01*
X142863645Y-88613600D01*
X142863358Y-88614375D01*
X142755886Y-88876107D01*
X142749574Y-88882459D01*
X142749507Y-88882486D01*
X142487775Y-88989958D01*
X142478820Y-88989931D01*
X142472508Y-88983579D01*
X142472221Y-88982804D01*
X142434681Y-88869136D01*
X142434493Y-88868418D01*
X142415784Y-88772270D01*
X142397788Y-88690129D01*
X142358546Y-88607291D01*
X142358544Y-88607289D01*
X142358544Y-88607288D01*
X142358543Y-88607286D01*
X142282898Y-88516902D01*
X142280216Y-88508358D01*
X142283596Y-88501121D01*
X142374521Y-88410196D01*
X142382793Y-88406770D01*
X142390302Y-88409498D01*
G37*
%TD.AperFunction*%
%TD*%
%TA.AperFunction,Conductor*%
%TO.N,/PA04*%
G36*
X142093232Y-87532315D02*
G01*
X142093314Y-87532397D01*
X142180140Y-87620091D01*
X142183526Y-87628381D01*
X142183051Y-87631623D01*
X142180000Y-87641999D01*
X142175000Y-87660499D01*
X142169999Y-87680500D01*
X142164999Y-87702000D01*
X142162003Y-87715785D01*
X142156897Y-87723141D01*
X142150570Y-87725000D01*
X142019430Y-87725000D01*
X142011157Y-87721573D01*
X142007997Y-87715786D01*
X142005000Y-87702000D01*
X142000000Y-87680500D01*
X141994999Y-87660499D01*
X141989999Y-87641999D01*
X141986948Y-87631625D01*
X141987902Y-87622721D01*
X141989859Y-87620092D01*
X142076686Y-87532397D01*
X142084942Y-87528929D01*
X142093232Y-87532315D01*
G37*
%TD.AperFunction*%
%TD*%
%TA.AperFunction,Conductor*%
%TO.N,/G2*%
G36*
X139139695Y-86519400D02*
G01*
X139139942Y-86519507D01*
X139241603Y-86564785D01*
X139322391Y-86602864D01*
X139394072Y-86629405D01*
X139479345Y-86644940D01*
X139589700Y-86649533D01*
X139597823Y-86653301D01*
X139600913Y-86661223D01*
X139600913Y-86789815D01*
X139597486Y-86798088D01*
X139590826Y-86801403D01*
X139471635Y-86817993D01*
X139471628Y-86817995D01*
X139389738Y-86864741D01*
X139389735Y-86864743D01*
X139325293Y-86929390D01*
X139249361Y-87000148D01*
X139247169Y-87001758D01*
X139140491Y-87062431D01*
X139131606Y-87063542D01*
X139124537Y-87058045D01*
X139123911Y-87056772D01*
X139043677Y-86864743D01*
X139015083Y-86796309D01*
X139015057Y-86787356D01*
X139015062Y-86787342D01*
X139124388Y-86525684D01*
X139130740Y-86519373D01*
X139139695Y-86519400D01*
G37*
%TD.AperFunction*%
%TD*%
%TA.AperFunction,Conductor*%
%TO.N,/PA06*%
G36*
X114080250Y-86685000D02*
G01*
X114398515Y-86748526D01*
X114405957Y-86753506D01*
X114407699Y-86762290D01*
X114402719Y-86769732D01*
X114398515Y-86771474D01*
X113958407Y-86859319D01*
X113951772Y-86858708D01*
X113934997Y-86851999D01*
X113915009Y-86845503D01*
X113915010Y-86845503D01*
X113915006Y-86845502D01*
X113915000Y-86845500D01*
X113894999Y-86840499D01*
X113894995Y-86840498D01*
X113894986Y-86840496D01*
X113874994Y-86836998D01*
X113865535Y-86836052D01*
X113857644Y-86831819D01*
X113855000Y-86824410D01*
X113855000Y-86695588D01*
X113858427Y-86687315D01*
X113865536Y-86683946D01*
X113868666Y-86683633D01*
X113874994Y-86683001D01*
X113894986Y-86679503D01*
X113894995Y-86679500D01*
X113894999Y-86679500D01*
X113915000Y-86674499D01*
X113915006Y-86674496D01*
X113915009Y-86674496D01*
X113934997Y-86668000D01*
X113951772Y-86661291D01*
X113958407Y-86660680D01*
X114080250Y-86685000D01*
G37*
%TD.AperFunction*%
%TD*%
%TA.AperFunction,Conductor*%
%TO.N,+3.3V*%
G36*
X142143232Y-85532315D02*
G01*
X142143314Y-85532397D01*
X142230140Y-85620091D01*
X142233526Y-85628381D01*
X142233051Y-85631623D01*
X142230000Y-85641999D01*
X142225000Y-85660499D01*
X142219999Y-85680500D01*
X142214999Y-85702000D01*
X142212003Y-85715785D01*
X142206897Y-85723141D01*
X142200570Y-85725000D01*
X142069430Y-85725000D01*
X142061157Y-85721573D01*
X142057997Y-85715786D01*
X142055000Y-85702000D01*
X142050000Y-85680500D01*
X142044999Y-85660499D01*
X142039999Y-85641999D01*
X142036948Y-85631625D01*
X142037902Y-85622721D01*
X142039859Y-85620092D01*
X142126686Y-85532397D01*
X142134942Y-85528929D01*
X142143232Y-85532315D01*
G37*
%TD.AperFunction*%
%TD*%
%TA.AperFunction,Conductor*%
%TO.N,/B*%
G36*
X140405680Y-88039963D02*
G01*
X140409107Y-88048236D01*
X140409075Y-88049095D01*
X140399568Y-88178235D01*
X140399110Y-88180726D01*
X140370611Y-88276103D01*
X140369660Y-88278378D01*
X140325877Y-88358235D01*
X140269874Y-88450679D01*
X140269862Y-88450700D01*
X140210560Y-88573104D01*
X140203869Y-88579056D01*
X140195587Y-88578826D01*
X139933110Y-88471052D01*
X139926760Y-88464742D01*
X139819138Y-88203981D01*
X139819149Y-88195027D01*
X139825489Y-88188703D01*
X139827484Y-88188081D01*
X139861556Y-88180726D01*
X139942618Y-88163227D01*
X139945337Y-88162968D01*
X140065089Y-88165616D01*
X140165754Y-88166893D01*
X140165754Y-88166892D01*
X140165756Y-88166893D01*
X140234534Y-88134591D01*
X140257725Y-88045294D01*
X140263121Y-88038149D01*
X140269049Y-88036536D01*
X140397407Y-88036536D01*
X140405680Y-88039963D01*
G37*
%TD.AperFunction*%
%TD*%
%TA.AperFunction,Conductor*%
%TO.N,+3.3V*%
G36*
X142208843Y-85728427D02*
G01*
X142212003Y-85734215D01*
X142214999Y-85747999D01*
X142219999Y-85769499D01*
X142225000Y-85789500D01*
X142230000Y-85808000D01*
X142233051Y-85818374D01*
X142232097Y-85827278D01*
X142230140Y-85829907D01*
X142143314Y-85917602D01*
X142135058Y-85921070D01*
X142126768Y-85917684D01*
X142126686Y-85917602D01*
X142039859Y-85829907D01*
X142036473Y-85821617D01*
X142036948Y-85818374D01*
X142039999Y-85808000D01*
X142044999Y-85789500D01*
X142050000Y-85769499D01*
X142055000Y-85747999D01*
X142057997Y-85734214D01*
X142063103Y-85726858D01*
X142069430Y-85725000D01*
X142200570Y-85725000D01*
X142208843Y-85728427D01*
G37*
%TD.AperFunction*%
%TD*%
%TA.AperFunction,Conductor*%
%TO.N,/PA09*%
G36*
X112871770Y-84294584D02*
G01*
X112878094Y-84300924D01*
X112878634Y-84302569D01*
X112904369Y-84406231D01*
X112904696Y-84408405D01*
X112910578Y-84515017D01*
X112910578Y-84515018D01*
X112919431Y-84603322D01*
X112919431Y-84603323D01*
X112957430Y-84663046D01*
X112957431Y-84663047D01*
X112957432Y-84663048D01*
X113041800Y-84682879D01*
X113049070Y-84688108D01*
X113050823Y-84694269D01*
X113050823Y-84822876D01*
X113047396Y-84831149D01*
X113039123Y-84834576D01*
X113038708Y-84834569D01*
X112905372Y-84829832D01*
X112904651Y-84829761D01*
X112803283Y-84813469D01*
X112801390Y-84813000D01*
X112716050Y-84784123D01*
X112715538Y-84783922D01*
X112618467Y-84740534D01*
X112493864Y-84685950D01*
X112487661Y-84679491D01*
X112487735Y-84670791D01*
X112595348Y-84408707D01*
X112601656Y-84402360D01*
X112862818Y-84294573D01*
X112871770Y-84294584D01*
G37*
%TD.AperFunction*%
%TD*%
%TA.AperFunction,Conductor*%
%TO.N,+3.3V*%
G36*
X111670909Y-85300511D02*
G01*
X111850612Y-85313608D01*
X111852581Y-85313922D01*
X111986431Y-85347199D01*
X111986917Y-85347344D01*
X112102357Y-85387339D01*
X112102360Y-85387339D01*
X112102361Y-85387340D01*
X112102368Y-85387342D01*
X112172081Y-85404673D01*
X112237422Y-85420918D01*
X112419782Y-85434209D01*
X112427785Y-85438228D01*
X112430632Y-85445878D01*
X112430632Y-85674968D01*
X112427205Y-85683241D01*
X112420718Y-85686531D01*
X112258651Y-85711567D01*
X112152237Y-85780067D01*
X112070001Y-85873583D01*
X112069790Y-85873811D01*
X111971226Y-85974552D01*
X111968803Y-85976450D01*
X111823044Y-86062334D01*
X111814176Y-86063582D01*
X111807024Y-86058194D01*
X111806305Y-86056756D01*
X111772495Y-85975662D01*
X111658305Y-85701771D01*
X111657405Y-85697248D01*
X111658368Y-85312150D01*
X111661816Y-85303887D01*
X111670097Y-85300481D01*
X111670909Y-85300511D01*
G37*
%TD.AperFunction*%
%TD*%
%TA.AperFunction,Conductor*%
%TO.N,/A*%
G36*
X116616408Y-83739199D02*
G01*
X116619761Y-83741541D01*
X116714467Y-83836247D01*
X116717894Y-83844520D01*
X116716882Y-83849279D01*
X116714656Y-83854277D01*
X116714651Y-83854288D01*
X116714651Y-83854290D01*
X116711715Y-83862136D01*
X116711716Y-83862136D01*
X116708769Y-83871273D01*
X116707828Y-83874591D01*
X116702274Y-83881616D01*
X116698590Y-83882924D01*
X116265753Y-83958700D01*
X116257012Y-83956751D01*
X116252222Y-83949257D01*
X116238117Y-83871273D01*
X116237960Y-83870405D01*
X116239859Y-83861655D01*
X116246240Y-83857079D01*
X116311757Y-83838251D01*
X116387437Y-83815002D01*
X116463117Y-83790254D01*
X116538797Y-83764005D01*
X116607461Y-83738829D01*
X116616408Y-83739199D01*
G37*
%TD.AperFunction*%
%TD*%
%TA.AperFunction,Conductor*%
%TO.N,/PA11*%
G36*
X113514949Y-86092170D02*
G01*
X113515659Y-86092496D01*
X113622241Y-86145796D01*
X113622847Y-86146147D01*
X113704048Y-86199889D01*
X113774936Y-86244107D01*
X113861208Y-86274010D01*
X113978160Y-86284079D01*
X113986108Y-86288203D01*
X113988856Y-86295736D01*
X113988856Y-86424326D01*
X113985429Y-86432599D01*
X113978227Y-86435977D01*
X113860746Y-86446776D01*
X113774676Y-86478581D01*
X113704222Y-86525119D01*
X113623283Y-86580876D01*
X113622611Y-86581276D01*
X113515704Y-86635527D01*
X113506775Y-86636215D01*
X113499976Y-86630389D01*
X113499613Y-86629605D01*
X113479253Y-86580876D01*
X113390548Y-86368574D01*
X113390522Y-86359621D01*
X113390527Y-86359607D01*
X113499642Y-86098454D01*
X113505994Y-86092143D01*
X113514949Y-86092170D01*
G37*
%TD.AperFunction*%
%TD*%
%TA.AperFunction,Conductor*%
%TO.N,/PA20*%
G36*
X142638227Y-86626291D02*
G01*
X142655002Y-86633000D01*
X142674990Y-86639496D01*
X142674992Y-86639496D01*
X142674999Y-86639499D01*
X142695000Y-86644500D01*
X142695003Y-86644500D01*
X142695013Y-86644503D01*
X142715005Y-86648001D01*
X142720916Y-86648591D01*
X142724463Y-86648946D01*
X142732355Y-86653178D01*
X142735000Y-86660588D01*
X142735000Y-86789410D01*
X142731573Y-86797683D01*
X142724464Y-86801052D01*
X142715005Y-86801998D01*
X142695013Y-86805496D01*
X142695003Y-86805498D01*
X142695000Y-86805499D01*
X142674999Y-86810500D01*
X142674992Y-86810502D01*
X142674989Y-86810503D01*
X142674990Y-86810503D01*
X142655002Y-86816999D01*
X142638227Y-86823708D01*
X142631592Y-86824319D01*
X142263062Y-86750760D01*
X142191483Y-86736473D01*
X142184042Y-86731494D01*
X142182300Y-86722710D01*
X142187280Y-86715268D01*
X142191483Y-86713526D01*
X142631592Y-86625680D01*
X142638227Y-86626291D01*
G37*
%TD.AperFunction*%
%TD*%
%TA.AperFunction,Conductor*%
%TO.N,/PA07*%
G36*
X142638234Y-87031802D02*
G01*
X142665055Y-87043077D01*
X142695111Y-87054211D01*
X142725169Y-87063846D01*
X142755207Y-87071975D01*
X142755213Y-87071976D01*
X142755223Y-87071979D01*
X142764433Y-87074012D01*
X142771772Y-87079140D01*
X142773335Y-87087958D01*
X142770183Y-87093709D01*
X142680318Y-87183574D01*
X142677860Y-87185454D01*
X142670375Y-87189740D01*
X142670368Y-87189745D01*
X142661533Y-87196302D01*
X142661519Y-87196314D01*
X142652687Y-87204368D01*
X142647504Y-87209973D01*
X142643842Y-87213935D01*
X142643837Y-87213941D01*
X142643837Y-87213940D01*
X142639452Y-87219427D01*
X142631610Y-87223751D01*
X142628005Y-87223593D01*
X142419863Y-87181729D01*
X142193333Y-87136167D01*
X142185899Y-87131177D01*
X142184171Y-87122391D01*
X142189162Y-87114956D01*
X142193485Y-87113198D01*
X142631551Y-87031089D01*
X142638234Y-87031802D01*
G37*
%TD.AperFunction*%
%TD*%
%TA.AperFunction,Conductor*%
%TO.N,/C*%
G36*
X117895234Y-83074957D02*
G01*
X118096476Y-83157590D01*
X118156984Y-83182436D01*
X118163336Y-83188748D01*
X118163363Y-83188815D01*
X118270835Y-83450547D01*
X118270808Y-83459502D01*
X118264456Y-83465814D01*
X118263681Y-83466101D01*
X118150013Y-83503639D01*
X118149295Y-83503827D01*
X118053147Y-83522537D01*
X117971006Y-83540532D01*
X117921887Y-83563802D01*
X117888168Y-83579776D01*
X117888166Y-83579777D01*
X117888163Y-83579779D01*
X117797779Y-83655424D01*
X117789235Y-83658106D01*
X117781997Y-83654725D01*
X117691074Y-83563802D01*
X117687647Y-83555529D01*
X117690375Y-83548020D01*
X117766020Y-83457635D01*
X117766021Y-83457633D01*
X117766020Y-83457633D01*
X117766023Y-83457631D01*
X117805265Y-83374793D01*
X117823261Y-83292651D01*
X117841972Y-83196493D01*
X117842155Y-83195792D01*
X117879698Y-83082117D01*
X117885547Y-83075337D01*
X117894477Y-83074677D01*
X117895234Y-83074957D01*
G37*
%TD.AperFunction*%
%TD*%
%TA.AperFunction,Conductor*%
%TO.N,/D*%
G36*
X116910085Y-86685487D02*
G01*
X117042976Y-86690823D01*
X117043754Y-86690907D01*
X117144490Y-86708737D01*
X117146420Y-86709254D01*
X117231133Y-86739967D01*
X117231572Y-86740148D01*
X117328105Y-86785080D01*
X117452404Y-86840222D01*
X117458577Y-86846709D01*
X117458483Y-86855361D01*
X117350852Y-87117489D01*
X117344540Y-87123840D01*
X117344510Y-87123852D01*
X117344493Y-87123860D01*
X117083436Y-87231604D01*
X117074481Y-87231593D01*
X117068157Y-87225253D01*
X117067605Y-87223562D01*
X117041979Y-87118524D01*
X117041660Y-87116288D01*
X117036809Y-87008078D01*
X117029180Y-86918241D01*
X116991875Y-86857389D01*
X116991874Y-86857388D01*
X116906932Y-86837142D01*
X116899679Y-86831891D01*
X116897945Y-86825761D01*
X116897945Y-86697179D01*
X116901372Y-86688906D01*
X116909645Y-86685479D01*
X116910085Y-86685487D01*
G37*
%TD.AperFunction*%
%TD*%
%TA.AperFunction,Conductor*%
%TO.N,/PA18*%
G36*
X143481553Y-84269062D02*
G01*
X143556984Y-84300036D01*
X143563336Y-84306348D01*
X143563363Y-84306415D01*
X143670510Y-84567356D01*
X143670483Y-84576311D01*
X143664131Y-84582623D01*
X143662620Y-84583126D01*
X143542486Y-84614234D01*
X143539440Y-84614607D01*
X143433479Y-84613587D01*
X143433171Y-84613576D01*
X143339412Y-84607724D01*
X143339411Y-84607724D01*
X143246052Y-84628108D01*
X143170255Y-84683671D01*
X143168650Y-84684659D01*
X143152036Y-84693125D01*
X143152032Y-84693128D01*
X143147981Y-84697179D01*
X143139708Y-84700605D01*
X143131436Y-84697178D01*
X143042059Y-84607801D01*
X143038632Y-84599528D01*
X143041847Y-84591473D01*
X143116506Y-84512862D01*
X143168895Y-84445247D01*
X143204993Y-84379875D01*
X143238630Y-84299731D01*
X143279240Y-84198727D01*
X143285504Y-84192332D01*
X143294459Y-84192239D01*
X143481553Y-84269062D01*
G37*
%TD.AperFunction*%
%TD*%
%TA.AperFunction,Conductor*%
%TO.N,/B*%
G36*
X140343232Y-87532315D02*
G01*
X140343314Y-87532397D01*
X140430140Y-87620091D01*
X140433526Y-87628381D01*
X140433051Y-87631623D01*
X140430000Y-87641999D01*
X140425000Y-87660499D01*
X140419999Y-87680500D01*
X140414999Y-87702000D01*
X140412003Y-87715785D01*
X140406897Y-87723141D01*
X140400570Y-87725000D01*
X140269430Y-87725000D01*
X140261157Y-87721573D01*
X140257997Y-87715786D01*
X140255000Y-87702000D01*
X140250000Y-87680500D01*
X140244999Y-87660499D01*
X140239999Y-87641999D01*
X140236948Y-87631625D01*
X140237902Y-87622721D01*
X140239859Y-87620092D01*
X140326686Y-87532397D01*
X140334942Y-87528929D01*
X140343232Y-87532315D01*
G37*
%TD.AperFunction*%
%TD*%
%TA.AperFunction,Conductor*%
%TO.N,/LAT*%
G36*
X120726791Y-85726845D02*
G01*
X121109765Y-85746945D01*
X121111665Y-85747204D01*
X121385430Y-85807690D01*
X121387515Y-85808360D01*
X121617060Y-85906730D01*
X121617437Y-85906908D01*
X121878367Y-86041463D01*
X122235046Y-86205009D01*
X122241138Y-86211572D01*
X122240983Y-86220110D01*
X121922853Y-86990511D01*
X121916528Y-86996850D01*
X121916512Y-86996856D01*
X121147898Y-87314821D01*
X121138943Y-87314817D01*
X121132614Y-87308483D01*
X121131946Y-87306274D01*
X121052981Y-86904822D01*
X121052788Y-86901779D01*
X121079040Y-86511833D01*
X121104383Y-86184430D01*
X121104383Y-86184429D01*
X121019326Y-85959688D01*
X121019325Y-85959687D01*
X120723096Y-85878557D01*
X120716022Y-85873067D01*
X120714487Y-85867273D01*
X120714487Y-85738530D01*
X120717914Y-85730257D01*
X120726187Y-85726830D01*
X120726791Y-85726845D01*
G37*
%TD.AperFunction*%
%TD*%
%TA.AperFunction,Conductor*%
%TO.N,/PA02*%
G36*
X113710902Y-82922591D02*
G01*
X113717214Y-82928943D01*
X113717501Y-82929718D01*
X113755039Y-83043384D01*
X113755227Y-83044102D01*
X113773937Y-83140251D01*
X113791932Y-83222392D01*
X113804593Y-83249117D01*
X113831176Y-83305231D01*
X113831178Y-83305234D01*
X113831179Y-83305235D01*
X113906824Y-83395620D01*
X113909506Y-83404164D01*
X113906125Y-83411402D01*
X113815202Y-83502325D01*
X113806929Y-83505752D01*
X113799420Y-83503024D01*
X113709035Y-83427379D01*
X113709034Y-83427378D01*
X113709031Y-83427376D01*
X113652917Y-83400793D01*
X113626192Y-83388132D01*
X113544051Y-83370137D01*
X113447902Y-83351427D01*
X113447184Y-83351239D01*
X113333518Y-83313701D01*
X113326737Y-83307852D01*
X113326077Y-83298922D01*
X113326353Y-83298174D01*
X113433836Y-83036414D01*
X113440146Y-83030064D01*
X113701949Y-82922564D01*
X113710902Y-82922591D01*
G37*
%TD.AperFunction*%
%TD*%
%TA.AperFunction,Conductor*%
%TO.N,/R1*%
G36*
X139233664Y-84760078D02*
G01*
X139234485Y-84760996D01*
X139299767Y-84842096D01*
X139300781Y-84843574D01*
X139347644Y-84924599D01*
X139370856Y-84959553D01*
X139391287Y-84990321D01*
X139454335Y-85034095D01*
X139549875Y-85048499D01*
X139557543Y-85053120D01*
X139559829Y-85060067D01*
X139559829Y-85188851D01*
X139556402Y-85197124D01*
X139548693Y-85200537D01*
X139423997Y-85206551D01*
X139423975Y-85206553D01*
X139328220Y-85222176D01*
X139328219Y-85222176D01*
X139245968Y-85240787D01*
X139245623Y-85240853D01*
X139150358Y-85256395D01*
X139149703Y-85256464D01*
X139026423Y-85262410D01*
X139017994Y-85259386D01*
X139014173Y-85251288D01*
X139014159Y-85250763D01*
X139013953Y-85188851D01*
X139013216Y-84967884D01*
X139016614Y-84959601D01*
X139217118Y-84760038D01*
X139225399Y-84756632D01*
X139233664Y-84760078D01*
G37*
%TD.AperFunction*%
%TD*%
%TA.AperFunction,Conductor*%
%TO.N,+5V*%
G36*
X116648336Y-85435395D02*
G01*
X116750362Y-85438743D01*
X116801156Y-85440411D01*
X116801598Y-85440442D01*
X116918185Y-85453339D01*
X117018897Y-85468760D01*
X117135702Y-85481681D01*
X117135701Y-85481681D01*
X117168545Y-85482758D01*
X117289511Y-85486729D01*
X117297666Y-85490426D01*
X117300826Y-85498394D01*
X117301785Y-85882224D01*
X117298379Y-85890505D01*
X117298344Y-85890541D01*
X117027820Y-86160112D01*
X117019540Y-86163524D01*
X117011273Y-86160083D01*
X117009973Y-86158529D01*
X116925019Y-86037041D01*
X116923567Y-86034210D01*
X116878216Y-85904986D01*
X116841094Y-85792864D01*
X116841092Y-85792861D01*
X116773521Y-85714488D01*
X116730531Y-85705250D01*
X116645528Y-85686985D01*
X116638159Y-85681896D01*
X116636286Y-85675546D01*
X116636286Y-85447090D01*
X116639713Y-85438817D01*
X116647986Y-85435390D01*
X116648336Y-85435395D01*
G37*
%TD.AperFunction*%
%TD*%
%TA.AperFunction,Conductor*%
%TO.N,/PA17*%
G36*
X144644289Y-86195271D02*
G01*
X144644635Y-86196021D01*
X144753715Y-86457089D01*
X144753742Y-86466044D01*
X144753715Y-86466111D01*
X144644635Y-86727177D01*
X144638283Y-86733489D01*
X144629328Y-86733462D01*
X144628578Y-86733116D01*
X144562795Y-86699996D01*
X144521656Y-86679284D01*
X144521021Y-86678912D01*
X144439803Y-86624153D01*
X144368993Y-86578795D01*
X144282674Y-86547970D01*
X144282671Y-86547969D01*
X144282670Y-86547969D01*
X144260216Y-86545975D01*
X144165265Y-86537546D01*
X144157328Y-86533401D01*
X144154600Y-86525892D01*
X144154600Y-86397307D01*
X144158027Y-86389034D01*
X144165264Y-86385653D01*
X144282670Y-86375230D01*
X144368994Y-86344403D01*
X144439803Y-86299045D01*
X144521028Y-86244281D01*
X144521644Y-86243920D01*
X144628581Y-86190081D01*
X144637508Y-86189422D01*
X144644289Y-86195271D01*
G37*
%TD.AperFunction*%
%TD*%
%TA.AperFunction,Conductor*%
%TO.N,/B2*%
G36*
X140408843Y-83728427D02*
G01*
X140412003Y-83734215D01*
X140414999Y-83747999D01*
X140419999Y-83769499D01*
X140425000Y-83789500D01*
X140430000Y-83808000D01*
X140433051Y-83818374D01*
X140432097Y-83827278D01*
X140430140Y-83829907D01*
X140343314Y-83917602D01*
X140335058Y-83921070D01*
X140326768Y-83917684D01*
X140326686Y-83917602D01*
X140239859Y-83829907D01*
X140236473Y-83821617D01*
X140236948Y-83818374D01*
X140239999Y-83808000D01*
X140244999Y-83789500D01*
X140250000Y-83769499D01*
X140255000Y-83747999D01*
X140257997Y-83734214D01*
X140263103Y-83726858D01*
X140269430Y-83725000D01*
X140400570Y-83725000D01*
X140408843Y-83728427D01*
G37*
%TD.AperFunction*%
%TD*%
%TA.AperFunction,Conductor*%
%TO.N,/LAT*%
G36*
X116758227Y-86261291D02*
G01*
X116775002Y-86268000D01*
X116794990Y-86274496D01*
X116794992Y-86274496D01*
X116794999Y-86274499D01*
X116815000Y-86279500D01*
X116815003Y-86279500D01*
X116815013Y-86279503D01*
X116835005Y-86283001D01*
X116840916Y-86283591D01*
X116844463Y-86283946D01*
X116852355Y-86288178D01*
X116855000Y-86295588D01*
X116855000Y-86424410D01*
X116851573Y-86432683D01*
X116844464Y-86436052D01*
X116835005Y-86436998D01*
X116815013Y-86440496D01*
X116815003Y-86440498D01*
X116815000Y-86440499D01*
X116794999Y-86445500D01*
X116794992Y-86445502D01*
X116794989Y-86445503D01*
X116794990Y-86445503D01*
X116775002Y-86451999D01*
X116758227Y-86458708D01*
X116751592Y-86459319D01*
X116383062Y-86385760D01*
X116311483Y-86371473D01*
X116304042Y-86366494D01*
X116302300Y-86357710D01*
X116307280Y-86350268D01*
X116311483Y-86348526D01*
X116751592Y-86260680D01*
X116758227Y-86261291D01*
G37*
%TD.AperFunction*%
%TD*%
%TA.AperFunction,Conductor*%
%TO.N,/PA21*%
G36*
X142341879Y-83345217D02*
G01*
X142403946Y-83371151D01*
X142410258Y-83377503D01*
X142410231Y-83386458D01*
X142409871Y-83387236D01*
X142355690Y-83494142D01*
X142355294Y-83494809D01*
X142317804Y-83549422D01*
X142299699Y-83575797D01*
X142282072Y-83602614D01*
X142253355Y-83646304D01*
X142253355Y-83646306D01*
X142253354Y-83646308D01*
X142244010Y-83671735D01*
X142221709Y-83732421D01*
X142210972Y-83849889D01*
X142206807Y-83857816D01*
X142199321Y-83860524D01*
X142070731Y-83860524D01*
X142062458Y-83857097D01*
X142059075Y-83849833D01*
X142048949Y-83732812D01*
X142048948Y-83732808D01*
X142048948Y-83732807D01*
X142018894Y-83646525D01*
X141974489Y-83575651D01*
X141920582Y-83494449D01*
X141920225Y-83493832D01*
X141866845Y-83387208D01*
X141866206Y-83378276D01*
X141872069Y-83371508D01*
X141872772Y-83371184D01*
X142133890Y-83262083D01*
X142142844Y-83262057D01*
X142341879Y-83345217D01*
G37*
%TD.AperFunction*%
%TD*%
%TA.AperFunction,Conductor*%
%TO.N,/PA10*%
G36*
X112237322Y-84776957D02*
G01*
X112243646Y-84783297D01*
X112244049Y-84784439D01*
X112269078Y-84868953D01*
X112269233Y-84869616D01*
X112284029Y-84954999D01*
X112303242Y-85023372D01*
X112345132Y-85068631D01*
X112418581Y-85083137D01*
X112426033Y-85088102D01*
X112428014Y-85094615D01*
X112428014Y-85222781D01*
X112424587Y-85231054D01*
X112416314Y-85234481D01*
X112415807Y-85234470D01*
X112312684Y-85230000D01*
X112312089Y-85229944D01*
X112230899Y-85218053D01*
X112230583Y-85217998D01*
X112191377Y-85210041D01*
X112160460Y-85203766D01*
X112114697Y-85197064D01*
X112078835Y-85191812D01*
X112078825Y-85191811D01*
X111974355Y-85187283D01*
X111966238Y-85183501D01*
X111963162Y-85175635D01*
X111962226Y-84894655D01*
X111965625Y-84886371D01*
X111969458Y-84883804D01*
X112228368Y-84776946D01*
X112237322Y-84776957D01*
G37*
%TD.AperFunction*%
%TD*%
%TA.AperFunction,Conductor*%
%TO.N,/G1*%
G36*
X139960250Y-86250000D02*
G01*
X140278515Y-86313526D01*
X140285957Y-86318506D01*
X140287699Y-86327290D01*
X140282719Y-86334732D01*
X140278515Y-86336474D01*
X139838407Y-86424319D01*
X139831772Y-86423708D01*
X139814997Y-86416999D01*
X139795009Y-86410503D01*
X139795010Y-86410503D01*
X139795006Y-86410502D01*
X139795000Y-86410500D01*
X139774999Y-86405499D01*
X139774995Y-86405498D01*
X139774986Y-86405496D01*
X139754994Y-86401998D01*
X139745535Y-86401052D01*
X139737644Y-86396819D01*
X139735000Y-86389410D01*
X139735000Y-86260588D01*
X139738427Y-86252315D01*
X139745536Y-86248946D01*
X139748666Y-86248633D01*
X139754994Y-86248001D01*
X139774986Y-86244503D01*
X139774995Y-86244500D01*
X139774999Y-86244500D01*
X139795000Y-86239499D01*
X139795006Y-86239496D01*
X139795009Y-86239496D01*
X139814997Y-86233000D01*
X139831772Y-86226291D01*
X139838407Y-86225680D01*
X139960250Y-86250000D01*
G37*
%TD.AperFunction*%
%TD*%
%TA.AperFunction,Conductor*%
%TO.N,/E*%
G36*
X139173173Y-87711345D02*
G01*
X139264266Y-87802438D01*
X139267693Y-87810711D01*
X139265635Y-87817338D01*
X139211070Y-87896729D01*
X139211070Y-87896731D01*
X139207708Y-87973701D01*
X139236152Y-88052533D01*
X139271028Y-88144327D01*
X139271670Y-88146804D01*
X139286865Y-88251653D01*
X139284660Y-88260332D01*
X139276964Y-88264910D01*
X139275314Y-88265031D01*
X138992979Y-88265695D01*
X138984697Y-88262288D01*
X138984650Y-88262241D01*
X138974132Y-88251653D01*
X138785067Y-88061323D01*
X138781669Y-88053040D01*
X138785123Y-88044778D01*
X138785178Y-88044724D01*
X138870185Y-87963380D01*
X138870356Y-87963225D01*
X138939994Y-87903197D01*
X139001753Y-87852922D01*
X139071474Y-87792824D01*
X139156813Y-87711164D01*
X139165158Y-87707921D01*
X139173173Y-87711345D01*
G37*
%TD.AperFunction*%
%TD*%
%TA.AperFunction,Conductor*%
%TO.N,/PA16*%
G36*
X142638227Y-85026291D02*
G01*
X142655002Y-85033000D01*
X142674990Y-85039496D01*
X142674992Y-85039496D01*
X142674999Y-85039499D01*
X142695000Y-85044500D01*
X142695003Y-85044500D01*
X142695013Y-85044503D01*
X142715005Y-85048001D01*
X142720916Y-85048591D01*
X142724463Y-85048946D01*
X142732355Y-85053178D01*
X142735000Y-85060588D01*
X142735000Y-85189410D01*
X142731573Y-85197683D01*
X142724464Y-85201052D01*
X142715005Y-85201998D01*
X142695013Y-85205496D01*
X142695003Y-85205498D01*
X142695000Y-85205499D01*
X142674999Y-85210500D01*
X142674992Y-85210502D01*
X142674989Y-85210503D01*
X142674990Y-85210503D01*
X142655002Y-85216999D01*
X142638227Y-85223708D01*
X142631592Y-85224319D01*
X142263062Y-85150760D01*
X142191483Y-85136473D01*
X142184042Y-85131494D01*
X142182300Y-85122710D01*
X142187280Y-85115268D01*
X142191483Y-85113526D01*
X142631592Y-85025680D01*
X142638227Y-85026291D01*
G37*
%TD.AperFunction*%
%TD*%
%TA.AperFunction,Conductor*%
%TO.N,+3.3V*%
G36*
X106665804Y-79848791D02*
G01*
X106666397Y-79849058D01*
X106806560Y-79917232D01*
X106811781Y-79919772D01*
X106812278Y-79920044D01*
X106921415Y-79986897D01*
X107017105Y-80040229D01*
X107017110Y-80040231D01*
X107132796Y-80075469D01*
X107132799Y-80075469D01*
X107132801Y-80075470D01*
X107291378Y-80087386D01*
X107299370Y-80091423D01*
X107302200Y-80099053D01*
X107302200Y-80327346D01*
X107298773Y-80335619D01*
X107291377Y-80339013D01*
X107132802Y-80350928D01*
X107132796Y-80350929D01*
X107017110Y-80386167D01*
X107017105Y-80386169D01*
X106921415Y-80439501D01*
X106812278Y-80506353D01*
X106811781Y-80506625D01*
X106666420Y-80577330D01*
X106657481Y-80577867D01*
X106650781Y-80571927D01*
X106650503Y-80571311D01*
X106573314Y-80386170D01*
X106503075Y-80217699D01*
X106503055Y-80208750D01*
X106650503Y-79855087D01*
X106656850Y-79848770D01*
X106665804Y-79848791D01*
G37*
%TD.AperFunction*%
%TD*%
%TA.AperFunction,Conductor*%
%TO.N,/PA02*%
G36*
X114253623Y-83739922D02*
G01*
X114302905Y-83764005D01*
X114359688Y-83790254D01*
X114416469Y-83815002D01*
X114473252Y-83838251D01*
X114483884Y-83842323D01*
X114520434Y-83856322D01*
X114526933Y-83862480D01*
X114527621Y-83869994D01*
X114508430Y-83949434D01*
X114503156Y-83956672D01*
X114494411Y-83958084D01*
X114153090Y-83878848D01*
X114145806Y-83873639D01*
X114144106Y-83868725D01*
X114144020Y-83867942D01*
X114143910Y-83867060D01*
X114143029Y-83859963D01*
X114142508Y-83856321D01*
X114142039Y-83853033D01*
X114141583Y-83850333D01*
X114141210Y-83848122D01*
X114143212Y-83839397D01*
X114144468Y-83837911D01*
X114240218Y-83742161D01*
X114248490Y-83738735D01*
X114253623Y-83739922D01*
G37*
%TD.AperFunction*%
%TD*%
%TA.AperFunction,Conductor*%
%TO.N,/B1*%
G36*
X139264037Y-84090690D02*
G01*
X139270349Y-84097042D01*
X139270373Y-84097101D01*
X139311070Y-84197770D01*
X139345105Y-84277457D01*
X139381688Y-84342347D01*
X139434439Y-84409534D01*
X139509083Y-84487831D01*
X139512312Y-84496183D01*
X139508888Y-84504177D01*
X139417984Y-84595081D01*
X139409711Y-84598508D01*
X139402810Y-84596256D01*
X139304685Y-84524579D01*
X139211055Y-84504719D01*
X139117003Y-84511240D01*
X139116685Y-84511253D01*
X139010439Y-84512820D01*
X139007353Y-84512452D01*
X138887007Y-84481509D01*
X138879848Y-84476130D01*
X138878590Y-84467264D01*
X138879094Y-84465746D01*
X138986236Y-84204814D01*
X138992546Y-84198464D01*
X139255082Y-84090663D01*
X139264037Y-84090690D01*
G37*
%TD.AperFunction*%
%TD*%
%TA.AperFunction,Conductor*%
%TO.N,+5V*%
G36*
X141307382Y-81686370D02*
G01*
X141315646Y-81689818D01*
X141319052Y-81698099D01*
X141319051Y-81698217D01*
X141317016Y-81860569D01*
X141311808Y-81984119D01*
X141305592Y-82090795D01*
X141300384Y-82214345D01*
X141298345Y-82376962D01*
X141294815Y-82385191D01*
X141286646Y-82388515D01*
X141058102Y-82388515D01*
X141049829Y-82385088D01*
X141046563Y-82378750D01*
X141025315Y-82252017D01*
X140963071Y-82173826D01*
X140871089Y-82121960D01*
X140759947Y-82064924D01*
X140758115Y-82063757D01*
X140646818Y-81977363D01*
X140642384Y-81969583D01*
X140644750Y-81960947D01*
X140645696Y-81959870D01*
X140915759Y-81688852D01*
X140924024Y-81685412D01*
X141307382Y-81686370D01*
G37*
%TD.AperFunction*%
%TD*%
%TA.AperFunction,Conductor*%
%TO.N,/CLK*%
G36*
X117474359Y-84419267D02*
G01*
X117475017Y-84420597D01*
X117583815Y-84680989D01*
X117583842Y-84689944D01*
X117583815Y-84690011D01*
X117474484Y-84951679D01*
X117468132Y-84957991D01*
X117459177Y-84957964D01*
X117458991Y-84957884D01*
X117357914Y-84913575D01*
X117277244Y-84877438D01*
X117205528Y-84853079D01*
X117205524Y-84853078D01*
X117120405Y-84839324D01*
X117120400Y-84839323D01*
X117010801Y-84835403D01*
X117002655Y-84831682D01*
X116999519Y-84823710D01*
X116999519Y-84695127D01*
X117002946Y-84686854D01*
X117009539Y-84683549D01*
X117129013Y-84666250D01*
X117210363Y-84617686D01*
X117274004Y-84550829D01*
X117349338Y-84478197D01*
X117351610Y-84476488D01*
X117458381Y-84414969D01*
X117467259Y-84413809D01*
X117474359Y-84419267D01*
G37*
%TD.AperFunction*%
%TD*%
%TA.AperFunction,Conductor*%
%TO.N,/C*%
G36*
X116758227Y-84261291D02*
G01*
X116775002Y-84268000D01*
X116794990Y-84274496D01*
X116794992Y-84274496D01*
X116794999Y-84274499D01*
X116815000Y-84279500D01*
X116815003Y-84279500D01*
X116815013Y-84279503D01*
X116835005Y-84283001D01*
X116840916Y-84283591D01*
X116844463Y-84283946D01*
X116852355Y-84288178D01*
X116855000Y-84295588D01*
X116855000Y-84424410D01*
X116851573Y-84432683D01*
X116844464Y-84436052D01*
X116835005Y-84436998D01*
X116815013Y-84440496D01*
X116815003Y-84440498D01*
X116815000Y-84440499D01*
X116794999Y-84445500D01*
X116794992Y-84445502D01*
X116794989Y-84445503D01*
X116794990Y-84445503D01*
X116775002Y-84451999D01*
X116758227Y-84458708D01*
X116751592Y-84459319D01*
X116383062Y-84385760D01*
X116311483Y-84371473D01*
X116304042Y-84366494D01*
X116302300Y-84357710D01*
X116307280Y-84350268D01*
X116311483Y-84348526D01*
X116751592Y-84260680D01*
X116758227Y-84261291D01*
G37*
%TD.AperFunction*%
%TD*%
%TA.AperFunction,Conductor*%
%TO.N,/G1*%
G36*
X139263115Y-85939577D02*
G01*
X139269439Y-85945917D01*
X139269787Y-85946878D01*
X139297223Y-86034307D01*
X139297356Y-86034809D01*
X139316237Y-86121138D01*
X139340376Y-86189318D01*
X139340375Y-86189318D01*
X139385033Y-86231798D01*
X139387322Y-86233976D01*
X139465096Y-86248241D01*
X139472615Y-86253104D01*
X139474685Y-86259749D01*
X139474685Y-86387780D01*
X139471258Y-86396053D01*
X139462985Y-86399480D01*
X139462477Y-86399469D01*
X139354107Y-86394760D01*
X139353511Y-86394703D01*
X139287288Y-86384984D01*
X139268621Y-86382244D01*
X139268323Y-86382192D01*
X139232678Y-86374940D01*
X139194994Y-86367274D01*
X139194993Y-86367274D01*
X139140003Y-86359203D01*
X139109676Y-86354752D01*
X139109673Y-86354751D01*
X139109669Y-86354751D01*
X138999954Y-86349984D01*
X138991837Y-86346201D01*
X138988762Y-86338336D01*
X138987826Y-86057355D01*
X138991225Y-86049071D01*
X138995058Y-86046504D01*
X139254161Y-85939566D01*
X139263115Y-85939577D01*
G37*
%TD.AperFunction*%
%TD*%
%TA.AperFunction,Conductor*%
%TO.N,/R2*%
G36*
X139822836Y-84187419D02*
G01*
X139921551Y-84197485D01*
X140025780Y-84206614D01*
X140130009Y-84214242D01*
X140234238Y-84220371D01*
X140326975Y-84224489D01*
X140335087Y-84228279D01*
X140338151Y-84236497D01*
X140336003Y-84314901D01*
X140332350Y-84323078D01*
X140324912Y-84326265D01*
X139838544Y-84351446D01*
X139831951Y-84349814D01*
X139810254Y-84336890D01*
X139810251Y-84336888D01*
X139785502Y-84323647D01*
X139760754Y-84311905D01*
X139748379Y-84306784D01*
X139736001Y-84301662D01*
X139736000Y-84301662D01*
X139728756Y-84299103D01*
X139722097Y-84293116D01*
X139721622Y-84284173D01*
X139724379Y-84279800D01*
X139813393Y-84190786D01*
X139821665Y-84187360D01*
X139822836Y-84187419D01*
G37*
%TD.AperFunction*%
%TD*%
%TA.AperFunction,Conductor*%
%TO.N,/R2*%
G36*
X139288702Y-83379791D02*
G01*
X139295014Y-83386143D01*
X139295301Y-83386918D01*
X139332839Y-83500584D01*
X139333027Y-83501302D01*
X139351737Y-83597451D01*
X139369732Y-83679592D01*
X139382393Y-83706317D01*
X139408976Y-83762431D01*
X139408978Y-83762434D01*
X139408979Y-83762435D01*
X139484624Y-83852820D01*
X139487306Y-83861364D01*
X139483925Y-83868602D01*
X139393002Y-83959525D01*
X139384729Y-83962952D01*
X139377220Y-83960224D01*
X139286835Y-83884579D01*
X139286834Y-83884578D01*
X139286831Y-83884576D01*
X139230717Y-83857993D01*
X139203992Y-83845332D01*
X139150986Y-83833719D01*
X139148179Y-83832715D01*
X139114104Y-83815353D01*
X138988800Y-83795508D01*
X138987881Y-83795508D01*
X138987881Y-83795249D01*
X138984096Y-83794936D01*
X138911318Y-83770901D01*
X138904537Y-83765052D01*
X138903877Y-83756122D01*
X138904153Y-83755374D01*
X139011636Y-83493614D01*
X139017946Y-83487264D01*
X139279749Y-83379764D01*
X139288702Y-83379791D01*
G37*
%TD.AperFunction*%
%TD*%
%TA.AperFunction,Conductor*%
%TO.N,/G2*%
G36*
X139960250Y-86650000D02*
G01*
X140278515Y-86713526D01*
X140285957Y-86718506D01*
X140287699Y-86727290D01*
X140282719Y-86734732D01*
X140278515Y-86736474D01*
X139838407Y-86824319D01*
X139831772Y-86823708D01*
X139814997Y-86816999D01*
X139795009Y-86810503D01*
X139795010Y-86810503D01*
X139795006Y-86810502D01*
X139795000Y-86810500D01*
X139774999Y-86805499D01*
X139774995Y-86805498D01*
X139774986Y-86805496D01*
X139754994Y-86801998D01*
X139745535Y-86801052D01*
X139737644Y-86796819D01*
X139735000Y-86789410D01*
X139735000Y-86660588D01*
X139738427Y-86652315D01*
X139745536Y-86648946D01*
X139748666Y-86648633D01*
X139754994Y-86648001D01*
X139774986Y-86644503D01*
X139774995Y-86644500D01*
X139774999Y-86644500D01*
X139795000Y-86639499D01*
X139795006Y-86639496D01*
X139795009Y-86639496D01*
X139814997Y-86633000D01*
X139831772Y-86626291D01*
X139838407Y-86625680D01*
X139960250Y-86650000D01*
G37*
%TD.AperFunction*%
%TD*%
%TA.AperFunction,Conductor*%
%TO.N,+5V*%
G36*
X141321019Y-88001827D02*
G01*
X141324413Y-88009223D01*
X141336328Y-88167796D01*
X141336329Y-88167802D01*
X141371567Y-88283488D01*
X141371569Y-88283493D01*
X141424901Y-88379184D01*
X141491756Y-88488324D01*
X141492028Y-88488821D01*
X141562730Y-88634179D01*
X141563267Y-88643118D01*
X141557327Y-88649818D01*
X141556711Y-88650096D01*
X141203102Y-88797523D01*
X141194148Y-88797544D01*
X141194098Y-88797523D01*
X140840488Y-88650096D01*
X140834170Y-88643749D01*
X140834191Y-88634795D01*
X140834459Y-88634201D01*
X140905172Y-88488816D01*
X140905439Y-88488328D01*
X140905442Y-88488324D01*
X140972297Y-88379184D01*
X141025629Y-88283494D01*
X141060870Y-88167798D01*
X141072787Y-88009223D01*
X141076824Y-88001230D01*
X141084454Y-87998400D01*
X141312746Y-87998400D01*
X141321019Y-88001827D01*
G37*
%TD.AperFunction*%
%TD*%
%TA.AperFunction,Conductor*%
%TO.N,/A*%
G36*
X116879234Y-83201957D02*
G01*
X117080476Y-83284590D01*
X117140984Y-83309436D01*
X117147336Y-83315748D01*
X117147363Y-83315815D01*
X117254835Y-83577547D01*
X117254808Y-83586502D01*
X117248456Y-83592814D01*
X117247681Y-83593101D01*
X117134013Y-83630639D01*
X117133295Y-83630827D01*
X117037147Y-83649537D01*
X116955006Y-83667532D01*
X116905887Y-83690802D01*
X116872168Y-83706776D01*
X116872166Y-83706777D01*
X116872163Y-83706779D01*
X116781779Y-83782424D01*
X116773235Y-83785106D01*
X116765997Y-83781725D01*
X116675074Y-83690802D01*
X116671647Y-83682529D01*
X116674375Y-83675020D01*
X116750020Y-83584635D01*
X116750021Y-83584633D01*
X116750020Y-83584633D01*
X116750023Y-83584631D01*
X116789265Y-83501793D01*
X116807261Y-83419651D01*
X116825972Y-83323493D01*
X116826155Y-83322792D01*
X116863698Y-83209117D01*
X116869547Y-83202337D01*
X116878477Y-83201677D01*
X116879234Y-83201957D01*
G37*
%TD.AperFunction*%
%TD*%
%TA.AperFunction,Conductor*%
%TO.N,/B2*%
G36*
X140465399Y-83178515D02*
G01*
X140465446Y-83178562D01*
X140665290Y-83379348D01*
X140668697Y-83387630D01*
X140665251Y-83395895D01*
X140664662Y-83396442D01*
X140586564Y-83464155D01*
X140586186Y-83464457D01*
X140513347Y-83517729D01*
X140513343Y-83517732D01*
X140457765Y-83568798D01*
X140422400Y-83637821D01*
X140411197Y-83734759D01*
X140406843Y-83742584D01*
X140399574Y-83745116D01*
X140270892Y-83745116D01*
X140262619Y-83741689D01*
X140259222Y-83734252D01*
X140249808Y-83602791D01*
X140225504Y-83503250D01*
X140225504Y-83503249D01*
X140196573Y-83418191D01*
X140196439Y-83417734D01*
X140172423Y-83319371D01*
X140172122Y-83317447D01*
X140162894Y-83188592D01*
X140165721Y-83180097D01*
X140173728Y-83176088D01*
X140174517Y-83176058D01*
X140457114Y-83175116D01*
X140465399Y-83178515D01*
G37*
%TD.AperFunction*%
%TD*%
%TA.AperFunction,Conductor*%
%TO.N,/PA05*%
G36*
X114080250Y-84285000D02*
G01*
X114398515Y-84348526D01*
X114405957Y-84353506D01*
X114407699Y-84362290D01*
X114402719Y-84369732D01*
X114398515Y-84371474D01*
X113958407Y-84459319D01*
X113951772Y-84458708D01*
X113934997Y-84451999D01*
X113915009Y-84445503D01*
X113915010Y-84445503D01*
X113915006Y-84445502D01*
X113915000Y-84445500D01*
X113894999Y-84440499D01*
X113894995Y-84440498D01*
X113894986Y-84440496D01*
X113874994Y-84436998D01*
X113865535Y-84436052D01*
X113857644Y-84431819D01*
X113855000Y-84424410D01*
X113855000Y-84295588D01*
X113858427Y-84287315D01*
X113865536Y-84283946D01*
X113868666Y-84283633D01*
X113874994Y-84283001D01*
X113894986Y-84279503D01*
X113894995Y-84279500D01*
X113894999Y-84279500D01*
X113915000Y-84274499D01*
X113915006Y-84274496D01*
X113915009Y-84274496D01*
X113934997Y-84268000D01*
X113951772Y-84261291D01*
X113958407Y-84260680D01*
X114080250Y-84285000D01*
G37*
%TD.AperFunction*%
%TD*%
%TA.AperFunction,Conductor*%
%TO.N,+3.3V*%
G36*
X142638227Y-85426291D02*
G01*
X142655002Y-85433000D01*
X142674990Y-85439496D01*
X142674992Y-85439496D01*
X142674999Y-85439499D01*
X142695000Y-85444500D01*
X142695003Y-85444500D01*
X142695013Y-85444503D01*
X142715005Y-85448001D01*
X142720916Y-85448591D01*
X142724463Y-85448946D01*
X142732355Y-85453178D01*
X142735000Y-85460588D01*
X142735000Y-85589410D01*
X142731573Y-85597683D01*
X142724464Y-85601052D01*
X142715005Y-85601998D01*
X142695013Y-85605496D01*
X142695003Y-85605498D01*
X142695000Y-85605499D01*
X142674999Y-85610500D01*
X142674992Y-85610502D01*
X142674989Y-85610503D01*
X142674990Y-85610503D01*
X142655002Y-85616999D01*
X142638227Y-85623708D01*
X142631592Y-85624319D01*
X142263062Y-85550760D01*
X142191483Y-85536473D01*
X142184042Y-85531494D01*
X142182300Y-85522710D01*
X142187280Y-85515268D01*
X142191483Y-85513526D01*
X142631592Y-85425680D01*
X142638227Y-85426291D01*
G37*
%TD.AperFunction*%
%TD*%
%TA.AperFunction,Conductor*%
%TO.N,/CLK*%
G36*
X116758227Y-84661291D02*
G01*
X116775002Y-84668000D01*
X116794990Y-84674496D01*
X116794992Y-84674496D01*
X116794999Y-84674499D01*
X116815000Y-84679500D01*
X116815003Y-84679500D01*
X116815013Y-84679503D01*
X116835005Y-84683001D01*
X116840916Y-84683591D01*
X116844463Y-84683946D01*
X116852355Y-84688178D01*
X116855000Y-84695588D01*
X116855000Y-84824410D01*
X116851573Y-84832683D01*
X116844464Y-84836052D01*
X116835005Y-84836998D01*
X116815013Y-84840496D01*
X116815003Y-84840498D01*
X116815000Y-84840499D01*
X116794999Y-84845500D01*
X116794992Y-84845502D01*
X116794989Y-84845503D01*
X116794990Y-84845503D01*
X116775002Y-84851999D01*
X116758227Y-84858708D01*
X116751592Y-84859319D01*
X116383062Y-84785760D01*
X116311483Y-84771473D01*
X116304042Y-84766494D01*
X116302300Y-84757710D01*
X116307280Y-84750268D01*
X116311483Y-84748526D01*
X116751592Y-84660680D01*
X116758227Y-84661291D01*
G37*
%TD.AperFunction*%
%TD*%
%TA.AperFunction,Conductor*%
%TO.N,GND*%
G36*
X104671042Y-76880085D02*
G01*
X104716797Y-76932889D01*
X104726741Y-77002047D01*
X104720185Y-77027733D01*
X104675508Y-77147517D01*
X104669101Y-77207116D01*
X104669100Y-77207135D01*
X104669100Y-79002870D01*
X104669101Y-79002876D01*
X104675508Y-79062483D01*
X104725802Y-79197328D01*
X104725806Y-79197335D01*
X104812052Y-79312544D01*
X104812055Y-79312547D01*
X104927264Y-79398793D01*
X104927271Y-79398797D01*
X105062117Y-79449091D01*
X105062116Y-79449091D01*
X105069044Y-79449835D01*
X105121727Y-79455500D01*
X105694186Y-79455499D01*
X105761224Y-79475183D01*
X105806979Y-79527987D01*
X105816923Y-79597146D01*
X105787898Y-79660702D01*
X105786337Y-79662469D01*
X105769666Y-79680984D01*
X105675021Y-79844915D01*
X105675018Y-79844922D01*
X105619221Y-80016650D01*
X105616526Y-80024944D01*
X105596740Y-80213200D01*
X105616526Y-80401456D01*
X105616527Y-80401459D01*
X105675018Y-80581477D01*
X105675021Y-80581484D01*
X105769667Y-80745416D01*
X105896329Y-80886088D01*
X106049465Y-80997348D01*
X106049470Y-80997351D01*
X106222392Y-81074342D01*
X106222397Y-81074344D01*
X106407554Y-81113700D01*
X106407555Y-81113700D01*
X106596844Y-81113700D01*
X106596846Y-81113700D01*
X106782003Y-81074344D01*
X106848065Y-81044930D01*
X106854347Y-81042533D01*
X106887531Y-81031907D01*
X107038351Y-80958546D01*
X107045386Y-80954913D01*
X107049141Y-80952975D01*
X107055292Y-80949607D01*
X107060377Y-80946824D01*
X107071059Y-80940635D01*
X107176593Y-80875990D01*
X107197178Y-80864516D01*
X107248250Y-80849178D01*
X107329254Y-80843092D01*
X107364232Y-80839235D01*
X107364232Y-80839234D01*
X107365692Y-80839074D01*
X107372493Y-80838700D01*
X107403700Y-80838700D01*
X107470739Y-80858385D01*
X107516494Y-80911189D01*
X107527700Y-80962700D01*
X107527700Y-81552855D01*
X107525975Y-81568472D01*
X107526261Y-81568499D01*
X107525526Y-81576265D01*
X107527700Y-81645414D01*
X107527700Y-81674943D01*
X107527701Y-81674960D01*
X107528568Y-81681831D01*
X107529026Y-81687650D01*
X107530490Y-81734224D01*
X107530491Y-81734227D01*
X107536080Y-81753467D01*
X107540024Y-81772511D01*
X107542536Y-81792391D01*
X107559690Y-81835719D01*
X107561582Y-81841247D01*
X107574124Y-81884416D01*
X107574582Y-81885990D01*
X107583328Y-81900780D01*
X107584780Y-81903234D01*
X107593338Y-81920703D01*
X107600714Y-81939332D01*
X107628098Y-81977023D01*
X107631306Y-81981907D01*
X107655027Y-82022016D01*
X107655033Y-82022024D01*
X107669190Y-82036180D01*
X107681827Y-82050975D01*
X107693606Y-82067187D01*
X107728279Y-82095871D01*
X107729509Y-82096888D01*
X107733820Y-82100810D01*
X108234177Y-82601168D01*
X108397865Y-82764856D01*
X108414735Y-82785866D01*
X108418380Y-82791582D01*
X108471352Y-82853162D01*
X108496622Y-82900122D01*
X108503066Y-82922793D01*
X108531934Y-83042939D01*
X108534991Y-83054462D01*
X108538558Y-83066730D01*
X108542367Y-83078709D01*
X108590765Y-83218775D01*
X108599645Y-83244473D01*
X108602498Y-83252010D01*
X108613238Y-83275442D01*
X108615844Y-83282121D01*
X108621418Y-83299277D01*
X108621421Y-83299284D01*
X108674719Y-83391599D01*
X108691192Y-83459500D01*
X108668339Y-83525526D01*
X108619737Y-83565981D01*
X108468371Y-83636564D01*
X108468369Y-83636565D01*
X108274797Y-83772105D01*
X108107706Y-83939197D01*
X108107701Y-83939204D01*
X107972167Y-84132765D01*
X107972165Y-84132769D01*
X107872298Y-84346935D01*
X107872294Y-84346944D01*
X107811138Y-84575186D01*
X107811136Y-84575196D01*
X107790541Y-84810599D01*
X107790541Y-84810600D01*
X107811136Y-85046003D01*
X107811138Y-85046013D01*
X107872294Y-85274255D01*
X107872296Y-85274259D01*
X107872297Y-85274263D01*
X107922231Y-85381346D01*
X107972164Y-85488428D01*
X107972165Y-85488430D01*
X108107705Y-85682002D01*
X108255267Y-85829564D01*
X108288752Y-85890887D01*
X108283768Y-85960579D01*
X108241896Y-86016512D01*
X108232683Y-86022783D01*
X108077859Y-86118280D01*
X108077855Y-86118283D01*
X107953884Y-86242254D01*
X107861843Y-86391475D01*
X107861841Y-86391480D01*
X107806694Y-86557902D01*
X107806693Y-86557909D01*
X107796200Y-86660613D01*
X107796200Y-87060600D01*
X108862514Y-87060600D01*
X108836707Y-87100756D01*
X108796200Y-87238711D01*
X108796200Y-87382489D01*
X108836707Y-87520444D01*
X108862514Y-87560600D01*
X107796201Y-87560600D01*
X107796201Y-87960586D01*
X107806694Y-88063297D01*
X107861841Y-88229719D01*
X107861843Y-88229724D01*
X107953884Y-88378945D01*
X108077854Y-88502915D01*
X108227075Y-88594956D01*
X108227080Y-88594958D01*
X108393502Y-88650105D01*
X108393509Y-88650106D01*
X108496219Y-88660599D01*
X109046199Y-88660599D01*
X109046200Y-88660598D01*
X109046200Y-87746101D01*
X109153885Y-87795280D01*
X109260437Y-87810600D01*
X109331963Y-87810600D01*
X109438515Y-87795280D01*
X109546200Y-87746101D01*
X109546200Y-88660599D01*
X110096172Y-88660599D01*
X110096186Y-88660598D01*
X110198897Y-88650105D01*
X110365319Y-88594958D01*
X110365324Y-88594956D01*
X110514545Y-88502915D01*
X110638515Y-88378945D01*
X110730556Y-88229724D01*
X110730558Y-88229719D01*
X110785705Y-88063297D01*
X110785706Y-88063290D01*
X110796199Y-87960586D01*
X110796200Y-87960573D01*
X110796200Y-87560600D01*
X109729886Y-87560600D01*
X109755693Y-87520444D01*
X109796200Y-87382489D01*
X109796200Y-87238711D01*
X109755693Y-87100756D01*
X109729886Y-87060600D01*
X110796199Y-87060600D01*
X110796199Y-86660628D01*
X110796198Y-86660613D01*
X110785705Y-86557902D01*
X110730558Y-86391480D01*
X110730556Y-86391475D01*
X110638515Y-86242254D01*
X110514544Y-86118283D01*
X110514540Y-86118280D01*
X110359716Y-86022783D01*
X110312991Y-85970835D01*
X110301770Y-85901873D01*
X110329613Y-85837791D01*
X110337132Y-85829564D01*
X110404813Y-85761883D01*
X110484695Y-85682001D01*
X110527478Y-85620899D01*
X110582054Y-85577275D01*
X110651552Y-85570081D01*
X110713907Y-85601603D01*
X110749322Y-85661833D01*
X110751540Y-85693102D01*
X110752940Y-85693102D01*
X110752940Y-85699597D01*
X110752940Y-85699600D01*
X110772726Y-85887856D01*
X110772727Y-85887859D01*
X110831218Y-86067877D01*
X110831221Y-86067884D01*
X110925867Y-86231816D01*
X111035179Y-86353219D01*
X111052529Y-86372488D01*
X111205665Y-86483748D01*
X111205670Y-86483751D01*
X111378592Y-86560742D01*
X111378597Y-86560744D01*
X111563754Y-86600100D01*
X111563755Y-86600100D01*
X111570222Y-86600780D01*
X111569930Y-86603547D01*
X111625228Y-86619785D01*
X111670983Y-86672589D01*
X111675225Y-86683131D01*
X111696874Y-86745000D01*
X111720010Y-86811121D01*
X111729309Y-86825920D01*
X111815984Y-86963862D01*
X111943538Y-87091416D01*
X112096278Y-87187389D01*
X112164461Y-87211247D01*
X112221237Y-87251968D01*
X112240549Y-87287335D01*
X112296110Y-87446121D01*
X112361739Y-87550568D01*
X112392084Y-87598862D01*
X112519638Y-87726416D01*
X112672378Y-87822389D01*
X112830071Y-87877568D01*
X112842645Y-87881968D01*
X112842650Y-87881969D01*
X113021896Y-87902165D01*
X113021900Y-87902165D01*
X113021904Y-87902165D01*
X113201147Y-87881969D01*
X113201147Y-87881968D01*
X113201155Y-87881968D01*
X113296766Y-87848510D01*
X113302702Y-87846762D01*
X113334475Y-87839113D01*
X113350505Y-87832726D01*
X113420069Y-87826202D01*
X113482117Y-87858323D01*
X113506227Y-87894942D01*
X113507396Y-87894304D01*
X113511649Y-87902093D01*
X113597809Y-88017187D01*
X113597812Y-88017190D01*
X113712906Y-88103350D01*
X113712913Y-88103354D01*
X113847620Y-88153596D01*
X113847627Y-88153598D01*
X113907155Y-88159999D01*
X113907172Y-88160000D01*
X115002828Y-88160000D01*
X115002844Y-88159999D01*
X115062372Y-88153598D01*
X115062379Y-88153596D01*
X115197086Y-88103354D01*
X115197089Y-88103352D01*
X115280688Y-88040770D01*
X115346152Y-88016352D01*
X115414425Y-88031203D01*
X115429312Y-88040770D01*
X115512910Y-88103352D01*
X115512913Y-88103354D01*
X115647620Y-88153596D01*
X115647627Y-88153598D01*
X115707155Y-88159999D01*
X115707172Y-88160000D01*
X116802828Y-88160000D01*
X116802844Y-88159999D01*
X116862372Y-88153598D01*
X116862379Y-88153596D01*
X116997086Y-88103354D01*
X116997088Y-88103352D01*
X117112186Y-88017190D01*
X117112189Y-88017188D01*
X117149836Y-87966897D01*
X117205769Y-87925025D01*
X117262986Y-87917986D01*
X117325457Y-87925025D01*
X117347999Y-87927565D01*
X117348000Y-87927565D01*
X117348003Y-87927565D01*
X117527249Y-87907369D01*
X117527252Y-87907368D01*
X117527255Y-87907368D01*
X117697522Y-87847789D01*
X117850262Y-87751816D01*
X117977816Y-87624262D01*
X117977819Y-87624256D01*
X117982159Y-87618816D01*
X117984323Y-87620542D01*
X118027248Y-87582550D01*
X118096298Y-87571880D01*
X118160155Y-87600236D01*
X118192324Y-87642393D01*
X118206398Y-87672575D01*
X118206399Y-87672577D01*
X118341894Y-87866082D01*
X118508917Y-88033105D01*
X118702421Y-88168600D01*
X118916507Y-88268429D01*
X118916516Y-88268433D01*
X119130000Y-88325634D01*
X119130000Y-87430501D01*
X119237685Y-87479680D01*
X119344237Y-87495000D01*
X119415763Y-87495000D01*
X119522315Y-87479680D01*
X119630000Y-87430501D01*
X119630000Y-88325633D01*
X119843483Y-88268433D01*
X119843492Y-88268429D01*
X120057578Y-88168600D01*
X120251082Y-88033105D01*
X120418105Y-87866082D01*
X120548119Y-87680405D01*
X120602696Y-87636781D01*
X120672195Y-87629588D01*
X120734549Y-87661110D01*
X120751269Y-87680405D01*
X120881505Y-87866401D01*
X121048599Y-88033495D01*
X121145384Y-88101265D01*
X121242165Y-88169032D01*
X121242167Y-88169033D01*
X121242170Y-88169035D01*
X121456337Y-88268903D01*
X121684592Y-88330063D01*
X121861034Y-88345500D01*
X121919999Y-88350659D01*
X121920000Y-88350659D01*
X121920001Y-88350659D01*
X121978966Y-88345500D01*
X122155408Y-88330063D01*
X122383663Y-88268903D01*
X122597830Y-88169035D01*
X122791401Y-88033495D01*
X122958495Y-87866401D01*
X123088425Y-87680842D01*
X123143002Y-87637217D01*
X123212500Y-87630023D01*
X123274855Y-87661546D01*
X123291575Y-87680842D01*
X123421281Y-87866082D01*
X123421505Y-87866401D01*
X123588599Y-88033495D01*
X123685384Y-88101265D01*
X123782165Y-88169032D01*
X123782167Y-88169033D01*
X123782170Y-88169035D01*
X123996337Y-88268903D01*
X124224592Y-88330063D01*
X124401034Y-88345500D01*
X124459999Y-88350659D01*
X124460000Y-88350659D01*
X124460001Y-88350659D01*
X124518966Y-88345500D01*
X124695408Y-88330063D01*
X124923663Y-88268903D01*
X125137830Y-88169035D01*
X125331401Y-88033495D01*
X125498495Y-87866401D01*
X125628425Y-87680842D01*
X125683002Y-87637217D01*
X125752500Y-87630023D01*
X125814855Y-87661546D01*
X125831575Y-87680842D01*
X125961281Y-87866082D01*
X125961505Y-87866401D01*
X126128599Y-88033495D01*
X126225384Y-88101265D01*
X126322165Y-88169032D01*
X126322167Y-88169033D01*
X126322170Y-88169035D01*
X126536337Y-88268903D01*
X126764592Y-88330063D01*
X126941034Y-88345500D01*
X126999999Y-88350659D01*
X127000000Y-88350659D01*
X127000001Y-88350659D01*
X127058966Y-88345500D01*
X127235408Y-88330063D01*
X127463663Y-88268903D01*
X127677830Y-88169035D01*
X127871401Y-88033495D01*
X128038495Y-87866401D01*
X128168425Y-87680842D01*
X128223002Y-87637217D01*
X128292500Y-87630023D01*
X128354855Y-87661546D01*
X128371575Y-87680842D01*
X128501281Y-87866082D01*
X128501505Y-87866401D01*
X128668599Y-88033495D01*
X128765384Y-88101265D01*
X128862165Y-88169032D01*
X128862167Y-88169033D01*
X128862170Y-88169035D01*
X129076337Y-88268903D01*
X129304592Y-88330063D01*
X129481034Y-88345500D01*
X129539999Y-88350659D01*
X129540000Y-88350659D01*
X129540001Y-88350659D01*
X129598966Y-88345500D01*
X129775408Y-88330063D01*
X130003663Y-88268903D01*
X130217830Y-88169035D01*
X130411401Y-88033495D01*
X130578495Y-87866401D01*
X130708425Y-87680842D01*
X130763002Y-87637217D01*
X130832500Y-87630023D01*
X130894855Y-87661546D01*
X130911575Y-87680842D01*
X131041281Y-87866082D01*
X131041505Y-87866401D01*
X131208599Y-88033495D01*
X131305384Y-88101265D01*
X131402165Y-88169032D01*
X131402167Y-88169033D01*
X131402170Y-88169035D01*
X131616337Y-88268903D01*
X131844592Y-88330063D01*
X132021034Y-88345500D01*
X132079999Y-88350659D01*
X132080000Y-88350659D01*
X132080001Y-88350659D01*
X132138966Y-88345500D01*
X132315408Y-88330063D01*
X132543663Y-88268903D01*
X132757830Y-88169035D01*
X132951401Y-88033495D01*
X133118495Y-87866401D01*
X133248730Y-87680405D01*
X133303307Y-87636781D01*
X133372805Y-87629587D01*
X133435160Y-87661110D01*
X133451879Y-87680405D01*
X133581890Y-87866078D01*
X133748917Y-88033105D01*
X133942421Y-88168600D01*
X134156507Y-88268429D01*
X134156516Y-88268433D01*
X134370000Y-88325634D01*
X134370000Y-87430501D01*
X134477685Y-87479680D01*
X134584237Y-87495000D01*
X134655763Y-87495000D01*
X134762315Y-87479680D01*
X134870000Y-87430501D01*
X134870000Y-88325633D01*
X135083483Y-88268433D01*
X135083492Y-88268429D01*
X135297578Y-88168600D01*
X135491078Y-88033108D01*
X135613133Y-87911053D01*
X135674456Y-87877568D01*
X135744148Y-87882552D01*
X135800082Y-87924423D01*
X135816997Y-87955401D01*
X135866202Y-88087328D01*
X135866206Y-88087335D01*
X135952452Y-88202544D01*
X135952455Y-88202547D01*
X136067664Y-88288793D01*
X136067671Y-88288797D01*
X136202517Y-88339091D01*
X136202516Y-88339091D01*
X136209444Y-88339835D01*
X136262127Y-88345500D01*
X138057872Y-88345499D01*
X138068326Y-88344375D01*
X138137085Y-88356778D01*
X138188224Y-88404386D01*
X138202473Y-88440056D01*
X138203430Y-88444249D01*
X138263010Y-88614521D01*
X138263011Y-88614522D01*
X138358984Y-88767262D01*
X138486538Y-88894816D01*
X138639278Y-88990789D01*
X138727048Y-89021501D01*
X138809545Y-89050368D01*
X138809550Y-89050369D01*
X138988796Y-89070565D01*
X138988800Y-89070565D01*
X138988804Y-89070565D01*
X139168048Y-89050369D01*
X139168048Y-89050368D01*
X139168055Y-89050368D01*
X139250551Y-89021500D01*
X139320324Y-89017938D01*
X139379183Y-89050861D01*
X139426338Y-89098016D01*
X139466762Y-89123416D01*
X139578721Y-89193765D01*
X139579078Y-89193989D01*
X139742618Y-89251214D01*
X139749345Y-89253568D01*
X139749350Y-89253569D01*
X139928596Y-89273765D01*
X139928600Y-89273765D01*
X139928604Y-89273765D01*
X140107849Y-89253569D01*
X140107851Y-89253568D01*
X140107855Y-89253568D01*
X140107858Y-89253566D01*
X140107862Y-89253566D01*
X140271882Y-89196173D01*
X140341661Y-89192611D01*
X140402288Y-89227339D01*
X140420224Y-89251214D01*
X140466065Y-89330614D01*
X140592729Y-89471288D01*
X140745865Y-89582548D01*
X140745870Y-89582551D01*
X140918792Y-89659542D01*
X140918797Y-89659544D01*
X141103954Y-89698900D01*
X141103955Y-89698900D01*
X141293244Y-89698900D01*
X141293246Y-89698900D01*
X141478403Y-89659544D01*
X141651330Y-89582551D01*
X141804471Y-89471288D01*
X141915531Y-89347942D01*
X141975016Y-89311295D01*
X142044873Y-89312625D01*
X142102922Y-89351512D01*
X142112672Y-89364941D01*
X142123507Y-89382185D01*
X142251061Y-89509739D01*
X142254074Y-89511632D01*
X142366940Y-89582551D01*
X142403801Y-89605712D01*
X142474704Y-89630522D01*
X142574068Y-89665291D01*
X142574073Y-89665292D01*
X142753319Y-89685488D01*
X142753323Y-89685488D01*
X142753327Y-89685488D01*
X142932572Y-89665292D01*
X142932575Y-89665291D01*
X142932578Y-89665291D01*
X143102845Y-89605712D01*
X143255585Y-89509739D01*
X143383139Y-89382185D01*
X143398842Y-89357194D01*
X143451176Y-89310902D01*
X143503836Y-89299165D01*
X143510004Y-89299165D01*
X143689249Y-89278969D01*
X143689252Y-89278968D01*
X143689255Y-89278968D01*
X143859522Y-89219389D01*
X144012262Y-89123416D01*
X144139816Y-88995862D01*
X144235789Y-88843122D01*
X144295368Y-88672855D01*
X144297931Y-88650106D01*
X144315565Y-88493603D01*
X144315565Y-88493596D01*
X144295369Y-88314350D01*
X144295368Y-88314345D01*
X144244521Y-88169032D01*
X144235789Y-88144078D01*
X144139816Y-87991338D01*
X144082840Y-87934362D01*
X144049355Y-87873039D01*
X144047301Y-87832797D01*
X144061565Y-87706202D01*
X144061565Y-87706197D01*
X144042911Y-87540638D01*
X144054965Y-87471816D01*
X144061133Y-87460789D01*
X144134189Y-87344522D01*
X144175114Y-87227564D01*
X144215834Y-87170790D01*
X144280787Y-87145042D01*
X144347915Y-87157765D01*
X144395683Y-87181814D01*
X144400787Y-87184692D01*
X144405078Y-87187389D01*
X144407806Y-87188343D01*
X144408393Y-87188549D01*
X144413882Y-87190769D01*
X144417572Y-87192471D01*
X144417579Y-87192473D01*
X144417581Y-87192474D01*
X144485450Y-87218054D01*
X144486112Y-87218151D01*
X144486219Y-87218167D01*
X144509164Y-87223811D01*
X144575337Y-87246966D01*
X144575343Y-87246967D01*
X144575345Y-87246968D01*
X144575346Y-87246968D01*
X144575350Y-87246969D01*
X144754596Y-87267165D01*
X144754600Y-87267165D01*
X144754604Y-87267165D01*
X144933849Y-87246969D01*
X144933852Y-87246968D01*
X144933855Y-87246968D01*
X145104122Y-87187389D01*
X145148827Y-87159299D01*
X145216064Y-87140298D01*
X145282899Y-87160665D01*
X145328113Y-87213933D01*
X145338800Y-87264292D01*
X145338800Y-94414800D01*
X145319115Y-94481839D01*
X145266311Y-94527594D01*
X145214800Y-94538800D01*
X143039544Y-94538800D01*
X142972505Y-94519115D01*
X142926750Y-94466311D01*
X142916806Y-94397153D01*
X142923362Y-94371467D01*
X142949091Y-94302482D01*
X142955500Y-94242873D01*
X142955499Y-93345000D01*
X143314953Y-93345000D01*
X143333092Y-93517576D01*
X143333093Y-93517579D01*
X143386712Y-93682608D01*
X143473477Y-93832887D01*
X143473476Y-93832887D01*
X143585879Y-93957723D01*
X143589590Y-93961845D01*
X143723364Y-94059038D01*
X143729976Y-94063842D01*
X143888495Y-94134420D01*
X143888498Y-94134421D01*
X143888499Y-94134421D01*
X143888501Y-94134422D01*
X143915933Y-94140252D01*
X143919594Y-94141149D01*
X143923628Y-94142269D01*
X143923638Y-94142273D01*
X143930096Y-94143331D01*
X143932899Y-94143859D01*
X144058236Y-94170500D01*
X144058237Y-94170500D01*
X144085723Y-94170500D01*
X144093478Y-94171130D01*
X144093493Y-94170855D01*
X144100194Y-94171217D01*
X144100204Y-94171219D01*
X144111788Y-94170590D01*
X144115142Y-94170500D01*
X144231760Y-94170500D01*
X144231764Y-94170500D01*
X144262850Y-94163892D01*
X144272231Y-94162650D01*
X144272227Y-94162620D01*
X144278854Y-94161532D01*
X144278864Y-94161532D01*
X144293099Y-94157579D01*
X144296712Y-94156694D01*
X144401499Y-94134422D01*
X144434517Y-94119721D01*
X144450197Y-94114090D01*
X144451250Y-94113669D01*
X144451264Y-94113666D01*
X144465900Y-94105905D01*
X144469679Y-94104066D01*
X144560024Y-94063842D01*
X144596399Y-94037413D01*
X144603794Y-94032799D01*
X144609344Y-94029857D01*
X144622610Y-94018587D01*
X144626269Y-94015711D01*
X144700410Y-93961845D01*
X144733395Y-93925210D01*
X144739321Y-93919453D01*
X144745712Y-93914025D01*
X144756351Y-93900029D01*
X144759572Y-93896138D01*
X144816522Y-93832889D01*
X144843415Y-93786309D01*
X144847723Y-93779830D01*
X144853991Y-93771586D01*
X144861203Y-93755995D01*
X144863741Y-93751103D01*
X144903286Y-93682611D01*
X144921330Y-93627073D01*
X144924012Y-93620238D01*
X144929119Y-93609200D01*
X144932634Y-93593229D01*
X144934215Y-93587418D01*
X144956908Y-93517576D01*
X144963513Y-93454731D01*
X144964614Y-93447943D01*
X144967582Y-93434461D01*
X144968188Y-93412019D01*
X144968503Y-93407256D01*
X144975047Y-93345000D01*
X144968500Y-93282717D01*
X144968188Y-93277979D01*
X144967582Y-93255539D01*
X144964615Y-93242061D01*
X144963511Y-93235245D01*
X144956908Y-93172424D01*
X144934213Y-93102577D01*
X144932630Y-93096750D01*
X144929120Y-93080804D01*
X144929119Y-93080803D01*
X144929119Y-93080800D01*
X144924018Y-93069774D01*
X144921324Y-93062907D01*
X144903286Y-93007389D01*
X144881746Y-92970082D01*
X144863761Y-92938929D01*
X144861183Y-92933959D01*
X144853991Y-92918414D01*
X144847736Y-92910186D01*
X144843404Y-92903671D01*
X144816522Y-92857111D01*
X144759592Y-92793884D01*
X144756324Y-92789935D01*
X144745712Y-92775975D01*
X144745710Y-92775973D01*
X144739330Y-92770554D01*
X144733390Y-92764782D01*
X144700411Y-92728156D01*
X144675390Y-92709977D01*
X144626285Y-92674299D01*
X144622596Y-92671399D01*
X144609347Y-92660145D01*
X144609346Y-92660144D01*
X144608308Y-92659594D01*
X144603794Y-92657200D01*
X144596401Y-92652587D01*
X144577821Y-92639088D01*
X144560028Y-92626160D01*
X144469704Y-92585945D01*
X144465880Y-92584083D01*
X144451264Y-92576334D01*
X144451261Y-92576333D01*
X144450243Y-92575927D01*
X144434503Y-92570272D01*
X144420129Y-92563872D01*
X144401498Y-92555577D01*
X144296760Y-92533315D01*
X144293066Y-92532411D01*
X144278862Y-92528467D01*
X144272229Y-92527380D01*
X144272233Y-92527350D01*
X144262849Y-92526106D01*
X144231766Y-92519500D01*
X144231764Y-92519500D01*
X144115142Y-92519500D01*
X144111788Y-92519409D01*
X144100204Y-92518781D01*
X144093493Y-92519145D01*
X144093478Y-92518869D01*
X144085723Y-92519500D01*
X144058232Y-92519500D01*
X143932932Y-92546134D01*
X143930074Y-92546671D01*
X143923632Y-92547727D01*
X143919580Y-92548852D01*
X143915897Y-92549753D01*
X143888502Y-92555577D01*
X143729977Y-92626158D01*
X143729972Y-92626160D01*
X143589591Y-92728153D01*
X143589589Y-92728155D01*
X143473477Y-92857112D01*
X143386712Y-93007391D01*
X143333093Y-93172420D01*
X143333092Y-93172424D01*
X143314953Y-93345000D01*
X142955499Y-93345000D01*
X142955499Y-92447128D01*
X142949091Y-92387517D01*
X142947810Y-92384083D01*
X142898797Y-92252671D01*
X142898793Y-92252664D01*
X142812547Y-92137455D01*
X142812544Y-92137452D01*
X142697335Y-92051206D01*
X142697328Y-92051202D01*
X142562482Y-92000908D01*
X142562483Y-92000908D01*
X142502883Y-91994501D01*
X142502881Y-91994500D01*
X142502873Y-91994500D01*
X142502864Y-91994500D01*
X140707129Y-91994500D01*
X140707123Y-91994501D01*
X140647516Y-92000908D01*
X140512671Y-92051202D01*
X140512664Y-92051206D01*
X140397455Y-92137452D01*
X140397452Y-92137455D01*
X140311206Y-92252664D01*
X140311203Y-92252669D01*
X140262189Y-92384083D01*
X140220317Y-92440016D01*
X140154853Y-92464433D01*
X140086580Y-92449581D01*
X140058326Y-92428430D01*
X139936402Y-92306506D01*
X139936395Y-92306501D01*
X139742834Y-92170967D01*
X139742830Y-92170965D01*
X139742828Y-92170964D01*
X139528663Y-92071097D01*
X139528659Y-92071096D01*
X139528655Y-92071094D01*
X139300413Y-92009938D01*
X139300403Y-92009936D01*
X139065001Y-91989341D01*
X139064999Y-91989341D01*
X138829596Y-92009936D01*
X138829586Y-92009938D01*
X138601344Y-92071094D01*
X138601335Y-92071098D01*
X138387171Y-92170964D01*
X138387169Y-92170965D01*
X138193597Y-92306505D01*
X138026505Y-92473597D01*
X137896575Y-92659158D01*
X137841998Y-92702783D01*
X137772500Y-92709977D01*
X137710145Y-92678454D01*
X137693425Y-92659158D01*
X137563494Y-92473597D01*
X137396402Y-92306506D01*
X137396395Y-92306501D01*
X137202834Y-92170967D01*
X137202830Y-92170965D01*
X137202828Y-92170964D01*
X136988663Y-92071097D01*
X136988659Y-92071096D01*
X136988655Y-92071094D01*
X136760413Y-92009938D01*
X136760403Y-92009936D01*
X136525001Y-91989341D01*
X136524999Y-91989341D01*
X136289596Y-92009936D01*
X136289586Y-92009938D01*
X136061344Y-92071094D01*
X136061335Y-92071098D01*
X135847171Y-92170964D01*
X135847169Y-92170965D01*
X135653597Y-92306505D01*
X135486508Y-92473594D01*
X135356269Y-92659595D01*
X135301692Y-92703219D01*
X135232193Y-92710412D01*
X135169839Y-92678890D01*
X135153119Y-92659594D01*
X135023113Y-92473926D01*
X135023108Y-92473920D01*
X134856082Y-92306894D01*
X134662578Y-92171399D01*
X134448492Y-92071570D01*
X134448486Y-92071567D01*
X134235000Y-92014364D01*
X134235000Y-92909498D01*
X134127315Y-92860320D01*
X134020763Y-92845000D01*
X133949237Y-92845000D01*
X133842685Y-92860320D01*
X133735000Y-92909498D01*
X133735000Y-92014364D01*
X133734999Y-92014364D01*
X133521513Y-92071567D01*
X133521507Y-92071570D01*
X133307422Y-92171399D01*
X133307420Y-92171400D01*
X133113926Y-92306886D01*
X133113920Y-92306891D01*
X132946891Y-92473920D01*
X132946890Y-92473922D01*
X132816880Y-92659595D01*
X132762303Y-92703219D01*
X132692804Y-92710412D01*
X132630450Y-92678890D01*
X132613730Y-92659594D01*
X132483494Y-92473597D01*
X132316402Y-92306506D01*
X132316395Y-92306501D01*
X132122834Y-92170967D01*
X132122830Y-92170965D01*
X132122828Y-92170964D01*
X131908663Y-92071097D01*
X131908659Y-92071096D01*
X131908655Y-92071094D01*
X131680413Y-92009938D01*
X131680403Y-92009936D01*
X131445001Y-91989341D01*
X131444999Y-91989341D01*
X131209596Y-92009936D01*
X131209586Y-92009938D01*
X130981344Y-92071094D01*
X130981335Y-92071098D01*
X130767171Y-92170964D01*
X130767169Y-92170965D01*
X130573597Y-92306505D01*
X130406505Y-92473597D01*
X130276575Y-92659158D01*
X130221998Y-92702783D01*
X130152500Y-92709977D01*
X130090145Y-92678454D01*
X130073425Y-92659158D01*
X129943494Y-92473597D01*
X129776402Y-92306506D01*
X129776395Y-92306501D01*
X129582834Y-92170967D01*
X129582830Y-92170965D01*
X129582828Y-92170964D01*
X129368663Y-92071097D01*
X129368659Y-92071096D01*
X129368655Y-92071094D01*
X129140413Y-92009938D01*
X129140403Y-92009936D01*
X128905001Y-91989341D01*
X128904999Y-91989341D01*
X128669596Y-92009936D01*
X128669586Y-92009938D01*
X128441344Y-92071094D01*
X128441335Y-92071098D01*
X128227171Y-92170964D01*
X128227169Y-92170965D01*
X128033597Y-92306505D01*
X127866505Y-92473597D01*
X127736575Y-92659158D01*
X127681998Y-92702783D01*
X127612500Y-92709977D01*
X127550145Y-92678454D01*
X127533425Y-92659158D01*
X127403494Y-92473597D01*
X127236402Y-92306506D01*
X127236395Y-92306501D01*
X127042834Y-92170967D01*
X127042830Y-92170965D01*
X127042828Y-92170964D01*
X126828663Y-92071097D01*
X126828659Y-92071096D01*
X126828655Y-92071094D01*
X126600413Y-92009938D01*
X126600403Y-92009936D01*
X126365001Y-91989341D01*
X126364999Y-91989341D01*
X126129596Y-92009936D01*
X126129586Y-92009938D01*
X125901344Y-92071094D01*
X125901335Y-92071098D01*
X125687171Y-92170964D01*
X125687169Y-92170965D01*
X125493597Y-92306505D01*
X125326505Y-92473597D01*
X125196575Y-92659158D01*
X125141998Y-92702783D01*
X125072500Y-92709977D01*
X125010145Y-92678454D01*
X124993425Y-92659158D01*
X124863494Y-92473597D01*
X124696402Y-92306506D01*
X124696395Y-92306501D01*
X124502834Y-92170967D01*
X124502830Y-92170965D01*
X124502828Y-92170964D01*
X124288663Y-92071097D01*
X124288660Y-92071096D01*
X124288653Y-92071093D01*
X124193711Y-92045655D01*
X123906302Y-91961386D01*
X123881889Y-91955526D01*
X123854980Y-91950464D01*
X123854979Y-91950464D01*
X123830182Y-91947059D01*
X123519493Y-91919999D01*
X123341243Y-91907645D01*
X123310172Y-91901433D01*
X123234198Y-91875797D01*
X123197460Y-91855987D01*
X123073928Y-91759389D01*
X122995494Y-91698056D01*
X122988736Y-91693019D01*
X122975160Y-91681280D01*
X122585089Y-91291209D01*
X122579736Y-91285106D01*
X122577086Y-91281653D01*
X122559051Y-91258149D01*
X122559049Y-91258147D01*
X122559048Y-91258146D01*
X122530563Y-91236289D01*
X122530552Y-91236280D01*
X122481546Y-91198676D01*
X122440343Y-91142248D01*
X122436188Y-91072502D01*
X122470400Y-91011582D01*
X122491056Y-90995308D01*
X122600062Y-90926816D01*
X122696475Y-90830403D01*
X127134235Y-90830403D01*
X127154430Y-91009649D01*
X127154431Y-91009654D01*
X127214011Y-91179923D01*
X127282128Y-91288329D01*
X127309984Y-91332662D01*
X127437538Y-91460216D01*
X127590278Y-91556189D01*
X127738228Y-91607959D01*
X127760545Y-91615768D01*
X127760550Y-91615769D01*
X127939796Y-91635965D01*
X127939800Y-91635965D01*
X127939804Y-91635965D01*
X128119049Y-91615769D01*
X128119052Y-91615768D01*
X128119055Y-91615768D01*
X128289322Y-91556189D01*
X128442062Y-91460216D01*
X128569616Y-91332662D01*
X128665589Y-91179922D01*
X128725168Y-91009655D01*
X128726785Y-90995306D01*
X128745365Y-90830403D01*
X129064635Y-90830403D01*
X129084830Y-91009649D01*
X129084831Y-91009654D01*
X129144411Y-91179923D01*
X129212528Y-91288329D01*
X129240384Y-91332662D01*
X129367938Y-91460216D01*
X129520678Y-91556189D01*
X129668628Y-91607959D01*
X129690945Y-91615768D01*
X129690950Y-91615769D01*
X129870196Y-91635965D01*
X129870200Y-91635965D01*
X129870204Y-91635965D01*
X130049449Y-91615769D01*
X130049452Y-91615768D01*
X130049455Y-91615768D01*
X130219722Y-91556189D01*
X130372462Y-91460216D01*
X130500016Y-91332662D01*
X130595989Y-91179922D01*
X130655568Y-91009655D01*
X130657185Y-90995306D01*
X130675765Y-90830403D01*
X130675765Y-90830396D01*
X130655569Y-90651150D01*
X130655568Y-90651145D01*
X130613645Y-90531337D01*
X130595989Y-90480878D01*
X130593080Y-90476249D01*
X130511245Y-90346009D01*
X130500016Y-90328138D01*
X130372462Y-90200584D01*
X130341035Y-90180837D01*
X130219723Y-90104611D01*
X130049454Y-90045031D01*
X130049449Y-90045030D01*
X129870204Y-90024835D01*
X129870196Y-90024835D01*
X129690950Y-90045030D01*
X129690945Y-90045031D01*
X129520676Y-90104611D01*
X129367937Y-90200584D01*
X129240384Y-90328137D01*
X129144411Y-90480876D01*
X129084831Y-90651145D01*
X129084830Y-90651150D01*
X129064635Y-90830396D01*
X129064635Y-90830403D01*
X128745365Y-90830403D01*
X128745365Y-90830396D01*
X128725169Y-90651150D01*
X128725168Y-90651145D01*
X128683245Y-90531337D01*
X128665589Y-90480878D01*
X128662680Y-90476249D01*
X128580845Y-90346009D01*
X128569616Y-90328138D01*
X128442062Y-90200584D01*
X128410635Y-90180837D01*
X128289323Y-90104611D01*
X128119054Y-90045031D01*
X128119049Y-90045030D01*
X127939804Y-90024835D01*
X127939796Y-90024835D01*
X127760550Y-90045030D01*
X127760545Y-90045031D01*
X127590276Y-90104611D01*
X127437537Y-90200584D01*
X127309984Y-90328137D01*
X127214011Y-90480876D01*
X127154431Y-90651145D01*
X127154430Y-90651150D01*
X127134235Y-90830396D01*
X127134235Y-90830403D01*
X122696475Y-90830403D01*
X122727616Y-90799262D01*
X122823589Y-90646522D01*
X122883168Y-90476255D01*
X122883450Y-90473756D01*
X122903365Y-90297003D01*
X122903365Y-90296996D01*
X122883169Y-90117750D01*
X122883168Y-90117745D01*
X122860559Y-90053132D01*
X122823589Y-89947478D01*
X122727616Y-89794738D01*
X122600062Y-89667184D01*
X122561061Y-89642678D01*
X122447323Y-89571211D01*
X122277054Y-89511631D01*
X122277049Y-89511630D01*
X122097804Y-89491435D01*
X122097796Y-89491435D01*
X121918550Y-89511630D01*
X121918545Y-89511631D01*
X121748276Y-89571211D01*
X121595537Y-89667184D01*
X121467984Y-89794737D01*
X121372011Y-89947476D01*
X121312431Y-90117745D01*
X121312430Y-90117750D01*
X121292235Y-90296996D01*
X121292235Y-90297003D01*
X121312430Y-90476249D01*
X121312431Y-90476254D01*
X121372011Y-90646523D01*
X121467984Y-90799262D01*
X121550141Y-90881419D01*
X121583626Y-90942742D01*
X121578642Y-91012434D01*
X121536770Y-91068367D01*
X121471306Y-91092784D01*
X121462460Y-91093100D01*
X120321035Y-91093100D01*
X120253996Y-91073415D01*
X120208241Y-91020611D01*
X120197815Y-90955217D01*
X120210965Y-90838503D01*
X120210965Y-90838496D01*
X120190769Y-90659250D01*
X120190768Y-90659245D01*
X120165843Y-90588013D01*
X120131189Y-90488978D01*
X120130713Y-90488221D01*
X120042919Y-90348497D01*
X120035216Y-90336238D01*
X119907662Y-90208684D01*
X119863344Y-90180837D01*
X119754923Y-90112711D01*
X119584654Y-90053131D01*
X119584649Y-90053130D01*
X119405404Y-90032935D01*
X119405396Y-90032935D01*
X119226150Y-90053130D01*
X119226145Y-90053131D01*
X119055876Y-90112711D01*
X118903137Y-90208684D01*
X118775584Y-90336237D01*
X118679611Y-90488976D01*
X118620031Y-90659245D01*
X118620030Y-90659250D01*
X118599835Y-90838496D01*
X118599835Y-90838503D01*
X118612985Y-90955217D01*
X118600930Y-91024039D01*
X118553581Y-91075418D01*
X118489765Y-91093100D01*
X116726700Y-91093100D01*
X116659661Y-91073415D01*
X116613906Y-91020611D01*
X116602700Y-90969100D01*
X116602700Y-90657479D01*
X116606005Y-90629041D01*
X116606667Y-90626232D01*
X116607249Y-90619667D01*
X116627948Y-90561314D01*
X116668113Y-90501742D01*
X116676619Y-90488222D01*
X116685095Y-90473756D01*
X116692777Y-90459635D01*
X116747416Y-90351108D01*
X116750288Y-90346019D01*
X116752989Y-90341722D01*
X116754152Y-90338394D01*
X116756367Y-90332918D01*
X116758071Y-90329227D01*
X116758076Y-90329215D01*
X116758074Y-90329221D01*
X116770219Y-90296996D01*
X116783654Y-90261349D01*
X116783766Y-90260581D01*
X116789410Y-90237632D01*
X116812568Y-90171455D01*
X116812567Y-90171455D01*
X116814869Y-90164880D01*
X116816527Y-90165460D01*
X116846247Y-90112309D01*
X116907903Y-90079441D01*
X116919160Y-90077646D01*
X117019249Y-90066369D01*
X117019252Y-90066368D01*
X117019255Y-90066368D01*
X117189522Y-90006789D01*
X117342262Y-89910816D01*
X117469816Y-89783262D01*
X117565789Y-89630522D01*
X117625368Y-89460255D01*
X117625369Y-89460249D01*
X117645565Y-89281003D01*
X117645565Y-89280996D01*
X117625369Y-89101750D01*
X117625368Y-89101745D01*
X117565788Y-88931476D01*
X117469815Y-88778737D01*
X117342262Y-88651184D01*
X117189523Y-88555211D01*
X117019254Y-88495631D01*
X117019249Y-88495630D01*
X116840004Y-88475435D01*
X116839996Y-88475435D01*
X116660750Y-88495630D01*
X116660745Y-88495631D01*
X116490476Y-88555211D01*
X116337737Y-88651184D01*
X116210184Y-88778737D01*
X116114210Y-88931478D01*
X116076531Y-89039158D01*
X116054632Y-89101745D01*
X116054631Y-89101747D01*
X116052333Y-89108317D01*
X116050680Y-89107738D01*
X116020928Y-89160914D01*
X115959262Y-89193765D01*
X115948040Y-89195553D01*
X115847949Y-89206830D01*
X115847945Y-89206831D01*
X115677676Y-89266411D01*
X115524937Y-89362384D01*
X115397384Y-89489937D01*
X115301410Y-89642678D01*
X115241830Y-89812950D01*
X115239266Y-89835712D01*
X115212200Y-89900126D01*
X115157003Y-89938870D01*
X115118875Y-89952212D01*
X114966139Y-90048183D01*
X114838582Y-90175739D01*
X114835379Y-90180837D01*
X114783040Y-90227123D01*
X114744276Y-90238075D01*
X114654150Y-90248230D01*
X114483878Y-90307810D01*
X114331137Y-90403784D01*
X114203584Y-90531337D01*
X114107611Y-90684076D01*
X114048031Y-90854345D01*
X114048030Y-90854350D01*
X114027835Y-91033596D01*
X114027835Y-91033603D01*
X114048030Y-91212849D01*
X114048031Y-91212854D01*
X114107611Y-91383123D01*
X114156052Y-91460216D01*
X114203584Y-91535862D01*
X114331138Y-91663416D01*
X114483878Y-91759389D01*
X114654145Y-91818968D01*
X114654150Y-91818969D01*
X114833396Y-91839165D01*
X114833400Y-91839165D01*
X114833404Y-91839165D01*
X115012649Y-91818969D01*
X115012652Y-91818968D01*
X115012655Y-91818968D01*
X115182922Y-91759389D01*
X115335662Y-91663416D01*
X115357635Y-91641442D01*
X115418954Y-91607959D01*
X115488645Y-91612942D01*
X115543689Y-91653639D01*
X115551191Y-91663415D01*
X115594880Y-91720353D01*
X115594889Y-91720363D01*
X115616746Y-91748848D01*
X115616747Y-91748849D01*
X115616749Y-91748851D01*
X115640253Y-91766886D01*
X115643706Y-91769536D01*
X115649809Y-91774889D01*
X115755704Y-91880784D01*
X115789189Y-91942107D01*
X115784205Y-92011799D01*
X115742333Y-92067732D01*
X115720428Y-92080847D01*
X115527171Y-92170964D01*
X115527169Y-92170965D01*
X115333597Y-92306505D01*
X115166505Y-92473597D01*
X115036575Y-92659158D01*
X114981998Y-92702783D01*
X114912500Y-92709977D01*
X114850145Y-92678454D01*
X114833425Y-92659158D01*
X114703494Y-92473597D01*
X114536402Y-92306506D01*
X114536395Y-92306501D01*
X114342834Y-92170967D01*
X114342830Y-92170965D01*
X114342828Y-92170964D01*
X114128663Y-92071097D01*
X114128659Y-92071096D01*
X114128655Y-92071094D01*
X113900413Y-92009938D01*
X113900403Y-92009936D01*
X113665001Y-91989341D01*
X113664999Y-91989341D01*
X113429596Y-92009936D01*
X113429586Y-92009938D01*
X113201344Y-92071094D01*
X113201335Y-92071098D01*
X112987171Y-92170964D01*
X112987169Y-92170965D01*
X112793597Y-92306505D01*
X112626505Y-92473597D01*
X112496575Y-92659158D01*
X112441998Y-92702783D01*
X112372500Y-92709977D01*
X112310145Y-92678454D01*
X112293425Y-92659158D01*
X112163494Y-92473597D01*
X111996402Y-92306506D01*
X111996395Y-92306501D01*
X111802834Y-92170967D01*
X111802830Y-92170965D01*
X111802828Y-92170964D01*
X111588663Y-92071097D01*
X111588659Y-92071096D01*
X111588655Y-92071094D01*
X111360413Y-92009938D01*
X111360403Y-92009936D01*
X111125001Y-91989341D01*
X111124999Y-91989341D01*
X110889596Y-92009936D01*
X110889586Y-92009938D01*
X110661344Y-92071094D01*
X110661335Y-92071098D01*
X110447171Y-92170964D01*
X110447169Y-92170965D01*
X110253597Y-92306505D01*
X110086505Y-92473597D01*
X109956575Y-92659158D01*
X109901998Y-92702783D01*
X109832500Y-92709977D01*
X109770145Y-92678454D01*
X109753425Y-92659158D01*
X109623494Y-92473597D01*
X109456402Y-92306506D01*
X109456395Y-92306501D01*
X109262834Y-92170967D01*
X109262830Y-92170965D01*
X109262828Y-92170964D01*
X109048663Y-92071097D01*
X109048659Y-92071096D01*
X109048655Y-92071094D01*
X108820413Y-92009938D01*
X108820403Y-92009936D01*
X108585001Y-91989341D01*
X108584999Y-91989341D01*
X108349596Y-92009936D01*
X108349586Y-92009938D01*
X108121344Y-92071094D01*
X108121335Y-92071098D01*
X107907171Y-92170964D01*
X107907169Y-92170965D01*
X107713597Y-92306505D01*
X107546505Y-92473597D01*
X107416575Y-92659158D01*
X107361998Y-92702783D01*
X107292500Y-92709977D01*
X107230145Y-92678454D01*
X107213425Y-92659158D01*
X107083494Y-92473597D01*
X106916402Y-92306506D01*
X106916395Y-92306501D01*
X106722834Y-92170967D01*
X106722830Y-92170965D01*
X106722828Y-92170964D01*
X106508663Y-92071097D01*
X106508659Y-92071096D01*
X106508655Y-92071094D01*
X106280413Y-92009938D01*
X106280403Y-92009936D01*
X106045001Y-91989341D01*
X106044999Y-91989341D01*
X105809596Y-92009936D01*
X105809586Y-92009938D01*
X105581344Y-92071094D01*
X105581335Y-92071098D01*
X105367171Y-92170964D01*
X105367169Y-92170965D01*
X105173597Y-92306505D01*
X105006505Y-92473597D01*
X104870965Y-92667169D01*
X104870964Y-92667171D01*
X104771098Y-92881335D01*
X104771094Y-92881344D01*
X104709938Y-93109586D01*
X104709936Y-93109596D01*
X104689341Y-93344999D01*
X104689341Y-93345000D01*
X104709936Y-93580403D01*
X104709938Y-93580413D01*
X104771094Y-93808655D01*
X104771096Y-93808659D01*
X104771097Y-93808663D01*
X104850801Y-93979588D01*
X104870965Y-94022830D01*
X104870967Y-94022834D01*
X104953813Y-94141149D01*
X105006504Y-94216400D01*
X105006506Y-94216402D01*
X105117223Y-94327119D01*
X105150708Y-94388442D01*
X105145724Y-94458134D01*
X105103852Y-94514067D01*
X105038388Y-94538484D01*
X105029542Y-94538800D01*
X102384400Y-94538800D01*
X102317361Y-94519115D01*
X102271606Y-94466311D01*
X102260400Y-94414800D01*
X102260400Y-93345000D01*
X102674953Y-93345000D01*
X102693092Y-93517576D01*
X102693093Y-93517579D01*
X102746712Y-93682608D01*
X102833477Y-93832887D01*
X102833476Y-93832887D01*
X102945879Y-93957723D01*
X102949590Y-93961845D01*
X103083364Y-94059038D01*
X103089976Y-94063842D01*
X103248495Y-94134420D01*
X103248498Y-94134421D01*
X103248499Y-94134421D01*
X103248501Y-94134422D01*
X103275933Y-94140252D01*
X103279594Y-94141149D01*
X103283628Y-94142269D01*
X103283638Y-94142273D01*
X103290096Y-94143331D01*
X103292899Y-94143859D01*
X103418236Y-94170500D01*
X103418237Y-94170500D01*
X103445723Y-94170500D01*
X103453478Y-94171130D01*
X103453493Y-94170855D01*
X103460194Y-94171217D01*
X103460204Y-94171219D01*
X103471788Y-94170590D01*
X103475142Y-94170500D01*
X103591760Y-94170500D01*
X103591764Y-94170500D01*
X103622850Y-94163892D01*
X103632231Y-94162650D01*
X103632227Y-94162620D01*
X103638854Y-94161532D01*
X103638864Y-94161532D01*
X103653099Y-94157579D01*
X103656712Y-94156694D01*
X103761499Y-94134422D01*
X103794517Y-94119721D01*
X103810197Y-94114090D01*
X103811250Y-94113669D01*
X103811264Y-94113666D01*
X103825900Y-94105905D01*
X103829679Y-94104066D01*
X103920024Y-94063842D01*
X103956399Y-94037413D01*
X103963794Y-94032799D01*
X103969344Y-94029857D01*
X103982610Y-94018587D01*
X103986269Y-94015711D01*
X104060410Y-93961845D01*
X104093395Y-93925210D01*
X104099321Y-93919453D01*
X104105712Y-93914025D01*
X104116351Y-93900029D01*
X104119572Y-93896138D01*
X104176522Y-93832889D01*
X104203415Y-93786309D01*
X104207723Y-93779830D01*
X104213991Y-93771586D01*
X104221203Y-93755995D01*
X104223741Y-93751103D01*
X104263286Y-93682611D01*
X104281330Y-93627073D01*
X104284012Y-93620238D01*
X104289119Y-93609200D01*
X104292634Y-93593229D01*
X104294215Y-93587418D01*
X104316908Y-93517576D01*
X104323513Y-93454731D01*
X104324614Y-93447943D01*
X104327582Y-93434461D01*
X104328188Y-93412019D01*
X104328503Y-93407256D01*
X104335047Y-93345000D01*
X104328500Y-93282717D01*
X104328188Y-93277979D01*
X104327582Y-93255539D01*
X104324615Y-93242061D01*
X104323511Y-93235245D01*
X104316908Y-93172424D01*
X104294213Y-93102577D01*
X104292630Y-93096750D01*
X104289120Y-93080804D01*
X104289119Y-93080803D01*
X104289119Y-93080800D01*
X104284018Y-93069774D01*
X104281324Y-93062907D01*
X104263286Y-93007389D01*
X104241746Y-92970082D01*
X104223761Y-92938929D01*
X104221183Y-92933959D01*
X104213991Y-92918414D01*
X104207736Y-92910186D01*
X104203404Y-92903671D01*
X104176522Y-92857111D01*
X104119592Y-92793884D01*
X104116324Y-92789935D01*
X104105712Y-92775975D01*
X104105710Y-92775973D01*
X104099330Y-92770554D01*
X104093390Y-92764782D01*
X104060411Y-92728156D01*
X104035390Y-92709977D01*
X103986285Y-92674299D01*
X103982596Y-92671399D01*
X103969347Y-92660145D01*
X103969346Y-92660144D01*
X103968308Y-92659594D01*
X103963794Y-92657200D01*
X103956401Y-92652587D01*
X103937821Y-92639088D01*
X103920028Y-92626160D01*
X103829704Y-92585945D01*
X103825880Y-92584083D01*
X103811264Y-92576334D01*
X103811261Y-92576333D01*
X103810243Y-92575927D01*
X103794503Y-92570272D01*
X103780129Y-92563872D01*
X103761498Y-92555577D01*
X103656760Y-92533315D01*
X103653066Y-92532411D01*
X103638862Y-92528467D01*
X103632229Y-92527380D01*
X103632233Y-92527350D01*
X103622849Y-92526106D01*
X103591766Y-92519500D01*
X103591764Y-92519500D01*
X103475142Y-92519500D01*
X103471788Y-92519409D01*
X103460204Y-92518781D01*
X103453493Y-92519145D01*
X103453478Y-92518869D01*
X103445723Y-92519500D01*
X103418232Y-92519500D01*
X103292932Y-92546134D01*
X103290074Y-92546671D01*
X103283632Y-92547727D01*
X103279580Y-92548852D01*
X103275897Y-92549753D01*
X103248502Y-92555577D01*
X103089977Y-92626158D01*
X103089972Y-92626160D01*
X102949591Y-92728153D01*
X102949589Y-92728155D01*
X102833477Y-92857112D01*
X102746712Y-93007391D01*
X102693093Y-93172420D01*
X102693092Y-93172424D01*
X102674953Y-93345000D01*
X102260400Y-93345000D01*
X102260400Y-78105000D01*
X102674953Y-78105000D01*
X102693092Y-78277576D01*
X102693093Y-78277579D01*
X102746712Y-78442608D01*
X102833477Y-78592887D01*
X102833476Y-78592887D01*
X102945879Y-78717723D01*
X102949590Y-78721845D01*
X103083364Y-78819038D01*
X103089976Y-78823842D01*
X103248495Y-78894420D01*
X103248498Y-78894421D01*
X103248499Y-78894421D01*
X103248501Y-78894422D01*
X103275933Y-78900252D01*
X103279594Y-78901149D01*
X103283628Y-78902269D01*
X103283638Y-78902273D01*
X103290096Y-78903331D01*
X103292899Y-78903859D01*
X103418236Y-78930500D01*
X103418237Y-78930500D01*
X103445723Y-78930500D01*
X103453478Y-78931130D01*
X103453493Y-78930855D01*
X103460194Y-78931217D01*
X103460204Y-78931219D01*
X103471788Y-78930590D01*
X103475142Y-78930500D01*
X103591760Y-78930500D01*
X103591764Y-78930500D01*
X103622850Y-78923892D01*
X103632231Y-78922650D01*
X103632227Y-78922620D01*
X103638854Y-78921532D01*
X103638864Y-78921532D01*
X103653099Y-78917579D01*
X103656712Y-78916694D01*
X103761499Y-78894422D01*
X103794517Y-78879721D01*
X103810197Y-78874090D01*
X103811250Y-78873669D01*
X103811264Y-78873666D01*
X103825900Y-78865905D01*
X103829679Y-78864066D01*
X103920024Y-78823842D01*
X103956399Y-78797413D01*
X103963794Y-78792799D01*
X103969344Y-78789857D01*
X103982610Y-78778587D01*
X103986269Y-78775711D01*
X104060410Y-78721845D01*
X104093395Y-78685210D01*
X104099321Y-78679453D01*
X104105712Y-78674025D01*
X104116351Y-78660029D01*
X104119572Y-78656138D01*
X104176522Y-78592889D01*
X104203415Y-78546309D01*
X104207723Y-78539830D01*
X104213991Y-78531586D01*
X104221203Y-78515995D01*
X104223741Y-78511103D01*
X104263286Y-78442611D01*
X104281330Y-78387073D01*
X104284012Y-78380238D01*
X104289119Y-78369200D01*
X104292634Y-78353229D01*
X104294215Y-78347418D01*
X104296493Y-78340408D01*
X104316908Y-78277576D01*
X104323513Y-78214731D01*
X104324614Y-78207943D01*
X104327582Y-78194461D01*
X104328188Y-78172019D01*
X104328503Y-78167256D01*
X104335047Y-78105000D01*
X104328500Y-78042717D01*
X104328188Y-78037979D01*
X104327582Y-78015539D01*
X104324615Y-78002061D01*
X104323511Y-77995245D01*
X104316908Y-77932424D01*
X104294213Y-77862577D01*
X104292630Y-77856750D01*
X104289120Y-77840804D01*
X104289119Y-77840803D01*
X104289119Y-77840800D01*
X104284018Y-77829774D01*
X104281324Y-77822907D01*
X104263286Y-77767389D01*
X104241746Y-77730082D01*
X104223761Y-77698929D01*
X104221183Y-77693959D01*
X104213991Y-77678414D01*
X104207736Y-77670186D01*
X104203404Y-77663671D01*
X104176522Y-77617111D01*
X104119592Y-77553884D01*
X104116324Y-77549935D01*
X104105712Y-77535975D01*
X104105710Y-77535973D01*
X104099330Y-77530554D01*
X104093390Y-77524782D01*
X104060411Y-77488156D01*
X104035390Y-77469977D01*
X103986285Y-77434299D01*
X103982596Y-77431399D01*
X103969347Y-77420145D01*
X103969346Y-77420144D01*
X103968308Y-77419594D01*
X103963794Y-77417200D01*
X103956401Y-77412587D01*
X103937821Y-77399088D01*
X103920028Y-77386160D01*
X103829704Y-77345945D01*
X103825880Y-77344083D01*
X103811264Y-77336334D01*
X103811261Y-77336333D01*
X103810243Y-77335927D01*
X103794503Y-77330272D01*
X103780129Y-77323872D01*
X103761498Y-77315577D01*
X103656760Y-77293315D01*
X103653066Y-77292411D01*
X103638862Y-77288467D01*
X103632229Y-77287380D01*
X103632233Y-77287350D01*
X103622849Y-77286106D01*
X103591766Y-77279500D01*
X103591764Y-77279500D01*
X103475142Y-77279500D01*
X103471788Y-77279409D01*
X103460204Y-77278781D01*
X103453493Y-77279145D01*
X103453478Y-77278869D01*
X103445723Y-77279500D01*
X103418232Y-77279500D01*
X103292932Y-77306134D01*
X103290074Y-77306671D01*
X103283632Y-77307727D01*
X103279580Y-77308852D01*
X103275897Y-77309753D01*
X103248502Y-77315577D01*
X103089977Y-77386158D01*
X103089972Y-77386160D01*
X102949591Y-77488153D01*
X102949589Y-77488155D01*
X102833477Y-77617112D01*
X102746712Y-77767391D01*
X102694695Y-77927489D01*
X102693092Y-77932424D01*
X102674953Y-78105000D01*
X102260400Y-78105000D01*
X102260400Y-76984400D01*
X102280085Y-76917361D01*
X102332889Y-76871606D01*
X102384400Y-76860400D01*
X104604003Y-76860400D01*
X104671042Y-76880085D01*
G37*
%TD.AperFunction*%
%TA.AperFunction,Conductor*%
G36*
X145281839Y-76880085D02*
G01*
X145327594Y-76932889D01*
X145338800Y-76984400D01*
X145338800Y-85658907D01*
X145319115Y-85725946D01*
X145266311Y-85771701D01*
X145197153Y-85781645D01*
X145148829Y-85763901D01*
X145104124Y-85735811D01*
X145048346Y-85716294D01*
X144991570Y-85675572D01*
X144971369Y-85637570D01*
X144966872Y-85623730D01*
X144929805Y-85509649D01*
X144921381Y-85483721D01*
X144921378Y-85483715D01*
X144826733Y-85319784D01*
X144700071Y-85179112D01*
X144700070Y-85179111D01*
X144695722Y-85174282D01*
X144697556Y-85172629D01*
X144666745Y-85122618D01*
X144663427Y-85073768D01*
X144667081Y-85046013D01*
X144669700Y-85026120D01*
X144669700Y-85026114D01*
X144674665Y-84988400D01*
X144670230Y-84954716D01*
X144669700Y-84946619D01*
X144669700Y-83139079D01*
X144673005Y-83110641D01*
X144673667Y-83107832D01*
X144674249Y-83101267D01*
X144694948Y-83042914D01*
X144735113Y-82983342D01*
X144743619Y-82969822D01*
X144752095Y-82955356D01*
X144759777Y-82941235D01*
X144814416Y-82832708D01*
X144817288Y-82827619D01*
X144819989Y-82823322D01*
X144821152Y-82819994D01*
X144823367Y-82814518D01*
X144825071Y-82810827D01*
X144825076Y-82810815D01*
X144825074Y-82810821D01*
X144842397Y-82764856D01*
X144850654Y-82742949D01*
X144850766Y-82742181D01*
X144856410Y-82719232D01*
X144879568Y-82653055D01*
X144885414Y-82601168D01*
X144899765Y-82473803D01*
X144899765Y-82473796D01*
X144879569Y-82294550D01*
X144879568Y-82294545D01*
X144819989Y-82124278D01*
X144724016Y-81971538D01*
X144596462Y-81843984D01*
X144514354Y-81792392D01*
X144443723Y-81748011D01*
X144273454Y-81688431D01*
X144273449Y-81688430D01*
X144094204Y-81668235D01*
X144094196Y-81668235D01*
X143914950Y-81688430D01*
X143914945Y-81688431D01*
X143744676Y-81748011D01*
X143591937Y-81843984D01*
X143464384Y-81971537D01*
X143368411Y-82124276D01*
X143308831Y-82294545D01*
X143308830Y-82294550D01*
X143288635Y-82473796D01*
X143288635Y-82473803D01*
X143303743Y-82607896D01*
X143291688Y-82676718D01*
X143244339Y-82728097D01*
X143176729Y-82745721D01*
X143166640Y-82744999D01*
X143078204Y-82735035D01*
X143078196Y-82735035D01*
X142898947Y-82755231D01*
X142872898Y-82764346D01*
X142803119Y-82767907D01*
X142744263Y-82734985D01*
X142640662Y-82631384D01*
X142487923Y-82535411D01*
X142317654Y-82475831D01*
X142317649Y-82475830D01*
X142138404Y-82455635D01*
X142138396Y-82455635D01*
X141959147Y-82475831D01*
X141955742Y-82476608D01*
X141953482Y-82476469D01*
X141952225Y-82476611D01*
X141952200Y-82476390D01*
X141886003Y-82472328D01*
X141829649Y-82431024D01*
X141804572Y-82365810D01*
X141804170Y-82354159D01*
X141804855Y-82299580D01*
X141805750Y-82228162D01*
X141810472Y-82116144D01*
X141814911Y-82039968D01*
X141816688Y-82009469D01*
X141822383Y-81874384D01*
X141824512Y-81704450D01*
X141824511Y-81704446D01*
X141824512Y-81704433D01*
X141824411Y-81702253D01*
X141824686Y-81692903D01*
X141824660Y-81692903D01*
X141824660Y-81686401D01*
X141824179Y-81681831D01*
X141823106Y-81671629D01*
X141822832Y-81667998D01*
X141821788Y-81645314D01*
X141821484Y-81644110D01*
X141818386Y-81626706D01*
X141804874Y-81498144D01*
X141746379Y-81318116D01*
X141651733Y-81154184D01*
X141525071Y-81013512D01*
X141508490Y-81001465D01*
X141371934Y-80902251D01*
X141371929Y-80902248D01*
X141199007Y-80825257D01*
X141199002Y-80825255D01*
X141053201Y-80794265D01*
X141013846Y-80785900D01*
X140824554Y-80785900D01*
X140792097Y-80792798D01*
X140639397Y-80825255D01*
X140639392Y-80825257D01*
X140466470Y-80902248D01*
X140466465Y-80902251D01*
X140313329Y-81013511D01*
X140186666Y-81154185D01*
X140092021Y-81318115D01*
X140092018Y-81318122D01*
X140033527Y-81498140D01*
X140033526Y-81498144D01*
X140013740Y-81686400D01*
X140033526Y-81874656D01*
X140033527Y-81874659D01*
X140092018Y-82054677D01*
X140092021Y-82054684D01*
X140186667Y-82218616D01*
X140200929Y-82234456D01*
X140202849Y-82236588D01*
X140233079Y-82299580D01*
X140224454Y-82368915D01*
X140179712Y-82422580D01*
X140151655Y-82436601D01*
X140112479Y-82450309D01*
X139959737Y-82546284D01*
X139832184Y-82673837D01*
X139736209Y-82826580D01*
X139735763Y-82827855D01*
X139735251Y-82828567D01*
X139733188Y-82832853D01*
X139732436Y-82832491D01*
X139695034Y-82884626D01*
X139630078Y-82910365D01*
X139561518Y-82896901D01*
X139531045Y-82874567D01*
X139516462Y-82859984D01*
X139363723Y-82764011D01*
X139193454Y-82704431D01*
X139193449Y-82704430D01*
X139014204Y-82684235D01*
X139014196Y-82684235D01*
X138834950Y-82704430D01*
X138834945Y-82704431D01*
X138664676Y-82764011D01*
X138511937Y-82859984D01*
X138384384Y-82987537D01*
X138288411Y-83140276D01*
X138228831Y-83310545D01*
X138228831Y-83310547D01*
X138226697Y-83329485D01*
X138199628Y-83393898D01*
X138142032Y-83433451D01*
X138072195Y-83435586D01*
X138032353Y-83417172D01*
X138031402Y-83416506D01*
X138031401Y-83416505D01*
X137837830Y-83280965D01*
X137623663Y-83181097D01*
X137623659Y-83181096D01*
X137623655Y-83181094D01*
X137395413Y-83119938D01*
X137395403Y-83119936D01*
X137160001Y-83099341D01*
X137159999Y-83099341D01*
X136924596Y-83119936D01*
X136924586Y-83119938D01*
X136696344Y-83181094D01*
X136696335Y-83181098D01*
X136482171Y-83280964D01*
X136482169Y-83280965D01*
X136288597Y-83416505D01*
X136121505Y-83583597D01*
X135991575Y-83769158D01*
X135936998Y-83812783D01*
X135867500Y-83819977D01*
X135805145Y-83788454D01*
X135788425Y-83769158D01*
X135658494Y-83583597D01*
X135491402Y-83416506D01*
X135491395Y-83416501D01*
X135297834Y-83280967D01*
X135297830Y-83280965D01*
X135235734Y-83252009D01*
X135083663Y-83181097D01*
X135083659Y-83181096D01*
X135083655Y-83181094D01*
X134855413Y-83119938D01*
X134855403Y-83119936D01*
X134620001Y-83099341D01*
X134619999Y-83099341D01*
X134384596Y-83119936D01*
X134384586Y-83119938D01*
X134156344Y-83181094D01*
X134156335Y-83181098D01*
X133942171Y-83280964D01*
X133942169Y-83280965D01*
X133748597Y-83416505D01*
X133581505Y-83583597D01*
X133451575Y-83769158D01*
X133396998Y-83812783D01*
X133327500Y-83819977D01*
X133265145Y-83788454D01*
X133248425Y-83769158D01*
X133118494Y-83583597D01*
X132951402Y-83416506D01*
X132951395Y-83416501D01*
X132757834Y-83280967D01*
X132757830Y-83280965D01*
X132695734Y-83252009D01*
X132543663Y-83181097D01*
X132543659Y-83181096D01*
X132543655Y-83181094D01*
X132315413Y-83119938D01*
X132315403Y-83119936D01*
X132080001Y-83099341D01*
X132079999Y-83099341D01*
X131844596Y-83119936D01*
X131844586Y-83119938D01*
X131616344Y-83181094D01*
X131616335Y-83181098D01*
X131402171Y-83280964D01*
X131402169Y-83280965D01*
X131208597Y-83416505D01*
X131041505Y-83583597D01*
X130911575Y-83769158D01*
X130856998Y-83812783D01*
X130787500Y-83819977D01*
X130725145Y-83788454D01*
X130708425Y-83769158D01*
X130578494Y-83583597D01*
X130411402Y-83416506D01*
X130411395Y-83416501D01*
X130217834Y-83280967D01*
X130217830Y-83280965D01*
X130155734Y-83252009D01*
X130003663Y-83181097D01*
X130003659Y-83181096D01*
X130003655Y-83181094D01*
X129775413Y-83119938D01*
X129775403Y-83119936D01*
X129540001Y-83099341D01*
X129539999Y-83099341D01*
X129304596Y-83119936D01*
X129304586Y-83119938D01*
X129076344Y-83181094D01*
X129076335Y-83181098D01*
X128862171Y-83280964D01*
X128862169Y-83280965D01*
X128668597Y-83416505D01*
X128501505Y-83583597D01*
X128371575Y-83769158D01*
X128316998Y-83812783D01*
X128247500Y-83819977D01*
X128185145Y-83788454D01*
X128168425Y-83769158D01*
X128038494Y-83583597D01*
X127871402Y-83416506D01*
X127871395Y-83416501D01*
X127677834Y-83280967D01*
X127677830Y-83280965D01*
X127615734Y-83252009D01*
X127463663Y-83181097D01*
X127463659Y-83181096D01*
X127463655Y-83181094D01*
X127235413Y-83119938D01*
X127235403Y-83119936D01*
X127000001Y-83099341D01*
X126999999Y-83099341D01*
X126764596Y-83119936D01*
X126764586Y-83119938D01*
X126536344Y-83181094D01*
X126536335Y-83181098D01*
X126322171Y-83280964D01*
X126322169Y-83280965D01*
X126128597Y-83416505D01*
X125961505Y-83583597D01*
X125831575Y-83769158D01*
X125776998Y-83812783D01*
X125707500Y-83819977D01*
X125645145Y-83788454D01*
X125628425Y-83769158D01*
X125498494Y-83583597D01*
X125331402Y-83416506D01*
X125331395Y-83416501D01*
X125137834Y-83280967D01*
X125137830Y-83280965D01*
X125075734Y-83252009D01*
X124923663Y-83181097D01*
X124923659Y-83181096D01*
X124923655Y-83181094D01*
X124695413Y-83119938D01*
X124695403Y-83119936D01*
X124460001Y-83099341D01*
X124459999Y-83099341D01*
X124224596Y-83119936D01*
X124224586Y-83119938D01*
X123996344Y-83181094D01*
X123996335Y-83181098D01*
X123782171Y-83280964D01*
X123782169Y-83280965D01*
X123588597Y-83416505D01*
X123421505Y-83583597D01*
X123291575Y-83769158D01*
X123236998Y-83812783D01*
X123167500Y-83819977D01*
X123105145Y-83788454D01*
X123088425Y-83769158D01*
X122958494Y-83583597D01*
X122791402Y-83416506D01*
X122791395Y-83416501D01*
X122597834Y-83280967D01*
X122597830Y-83280965D01*
X122535734Y-83252009D01*
X122383663Y-83181097D01*
X122383659Y-83181096D01*
X122383655Y-83181094D01*
X122155413Y-83119938D01*
X122155403Y-83119936D01*
X121920001Y-83099341D01*
X121919999Y-83099341D01*
X121684596Y-83119936D01*
X121684586Y-83119938D01*
X121456344Y-83181094D01*
X121456335Y-83181098D01*
X121242171Y-83280964D01*
X121242169Y-83280965D01*
X121048597Y-83416505D01*
X120881505Y-83583597D01*
X120751575Y-83769158D01*
X120696998Y-83812783D01*
X120627500Y-83819977D01*
X120565145Y-83788454D01*
X120548425Y-83769158D01*
X120418494Y-83583597D01*
X120251402Y-83416506D01*
X120251395Y-83416501D01*
X120057834Y-83280967D01*
X120057830Y-83280965D01*
X119995734Y-83252009D01*
X119843663Y-83181097D01*
X119843659Y-83181096D01*
X119843655Y-83181094D01*
X119615413Y-83119938D01*
X119615403Y-83119936D01*
X119380001Y-83099341D01*
X119379999Y-83099341D01*
X119144596Y-83119936D01*
X119144580Y-83119939D01*
X119103650Y-83130906D01*
X119033800Y-83129242D01*
X118975939Y-83090079D01*
X118948436Y-83025850D01*
X118948358Y-83025189D01*
X118946168Y-83005745D01*
X118886589Y-82835478D01*
X118880995Y-82826576D01*
X118809512Y-82712811D01*
X118790616Y-82682738D01*
X118663062Y-82555184D01*
X118643375Y-82542814D01*
X118510323Y-82459211D01*
X118340054Y-82399631D01*
X118340049Y-82399630D01*
X118160804Y-82379435D01*
X118160796Y-82379435D01*
X117981550Y-82399630D01*
X117981545Y-82399631D01*
X117811276Y-82459211D01*
X117658534Y-82555186D01*
X117658531Y-82555188D01*
X117646033Y-82567686D01*
X117584708Y-82601168D01*
X117515017Y-82596179D01*
X117500663Y-82589086D01*
X117500594Y-82589231D01*
X117494321Y-82586210D01*
X117324062Y-82526633D01*
X117324049Y-82526630D01*
X117144804Y-82506435D01*
X117144796Y-82506435D01*
X116965547Y-82526631D01*
X116884866Y-82554862D01*
X116815087Y-82558423D01*
X116777940Y-82542814D01*
X116630723Y-82450311D01*
X116460454Y-82390731D01*
X116460449Y-82390730D01*
X116281204Y-82370535D01*
X116281196Y-82370535D01*
X116101950Y-82390730D01*
X116101945Y-82390731D01*
X115931676Y-82450311D01*
X115778937Y-82546284D01*
X115651384Y-82673837D01*
X115555411Y-82826576D01*
X115495831Y-82996845D01*
X115495830Y-82996850D01*
X115475635Y-83176096D01*
X115475635Y-83176103D01*
X115495830Y-83355345D01*
X115496931Y-83360168D01*
X115492659Y-83429907D01*
X115451361Y-83486266D01*
X115386150Y-83511350D01*
X115375772Y-83511763D01*
X114938658Y-83510818D01*
X114871661Y-83490988D01*
X114858578Y-83481264D01*
X114826913Y-83454325D01*
X114826896Y-83454314D01*
X114701240Y-83384264D01*
X114701238Y-83384263D01*
X114701236Y-83384262D01*
X114659446Y-83368256D01*
X114613248Y-83349341D01*
X114566753Y-83329075D01*
X114549602Y-83321147D01*
X114513952Y-83296272D01*
X114313763Y-83096083D01*
X114295991Y-83073637D01*
X114294476Y-83071189D01*
X114294475Y-83071187D01*
X114290240Y-83066127D01*
X114263617Y-83010232D01*
X114249877Y-82939619D01*
X114246287Y-82923872D01*
X114242041Y-82907653D01*
X114237533Y-82892411D01*
X114194674Y-82762631D01*
X114191253Y-82753396D01*
X114172849Y-82712802D01*
X114170799Y-82707684D01*
X114162190Y-82683080D01*
X114162189Y-82683078D01*
X114066216Y-82530338D01*
X113938662Y-82402784D01*
X113908172Y-82383626D01*
X113785923Y-82306811D01*
X113615654Y-82247231D01*
X113615649Y-82247230D01*
X113436404Y-82227035D01*
X113436396Y-82227035D01*
X113257150Y-82247230D01*
X113257145Y-82247231D01*
X113086876Y-82306811D01*
X112934137Y-82402784D01*
X112806584Y-82530337D01*
X112710611Y-82683076D01*
X112651031Y-82853345D01*
X112651030Y-82853350D01*
X112630835Y-83032596D01*
X112630835Y-83032603D01*
X112651030Y-83211851D01*
X112651325Y-83213140D01*
X112651272Y-83213995D01*
X112651811Y-83218775D01*
X112650973Y-83218869D01*
X112647047Y-83282879D01*
X112618114Y-83328407D01*
X112552584Y-83393936D01*
X112456611Y-83546678D01*
X112456607Y-83546685D01*
X112452815Y-83557523D01*
X112412089Y-83614297D01*
X112376731Y-83633602D01*
X112248680Y-83678409D01*
X112095937Y-83774384D01*
X111968384Y-83901937D01*
X111879306Y-84043704D01*
X111826971Y-84089995D01*
X111788199Y-84100952D01*
X111783949Y-84101430D01*
X111613678Y-84161010D01*
X111460937Y-84256984D01*
X111333384Y-84384537D01*
X111237411Y-84537276D01*
X111177831Y-84707545D01*
X111177830Y-84707550D01*
X111157635Y-84886796D01*
X111157635Y-84887166D01*
X111157567Y-84887396D01*
X111156855Y-84893719D01*
X111155747Y-84893594D01*
X111137950Y-84954205D01*
X111106522Y-84987483D01*
X111052528Y-85026712D01*
X111052523Y-85026716D01*
X111001916Y-85082922D01*
X110942429Y-85119571D01*
X110872572Y-85118240D01*
X110814524Y-85079354D01*
X110786714Y-85015257D01*
X110786238Y-84989142D01*
X110789959Y-84946619D01*
X110801859Y-84810600D01*
X110781263Y-84575192D01*
X110720103Y-84346937D01*
X110620235Y-84132771D01*
X110620234Y-84132769D01*
X110484694Y-83939197D01*
X110317603Y-83772106D01*
X110178132Y-83674448D01*
X110134507Y-83619871D01*
X110127313Y-83550373D01*
X110157105Y-83489901D01*
X110181133Y-83463216D01*
X110275779Y-83299284D01*
X110334274Y-83119256D01*
X110354060Y-82931000D01*
X110334274Y-82742744D01*
X110275779Y-82562716D01*
X110181133Y-82398784D01*
X110054471Y-82258112D01*
X110000106Y-82218614D01*
X109901330Y-82146849D01*
X109786814Y-82095862D01*
X109783667Y-82094353D01*
X109755052Y-82079619D01*
X109755048Y-82079617D01*
X109755047Y-82079617D01*
X109755043Y-82079615D01*
X109736495Y-82073206D01*
X109731528Y-82071247D01*
X109728403Y-82069856D01*
X109728400Y-82069855D01*
X109727971Y-82069764D01*
X109720614Y-82067719D01*
X109640303Y-82039969D01*
X109596311Y-82024768D01*
X109584331Y-82020959D01*
X109572062Y-82017391D01*
X109565946Y-82015768D01*
X109560537Y-82014333D01*
X109478389Y-81994595D01*
X109440393Y-81985466D01*
X109433237Y-81983432D01*
X109417724Y-81979022D01*
X109370763Y-81953752D01*
X109309183Y-81900780D01*
X109280579Y-81877859D01*
X109275513Y-81873322D01*
X108815019Y-81412828D01*
X108781534Y-81351505D01*
X108778700Y-81325147D01*
X108778700Y-81254603D01*
X117406035Y-81254603D01*
X117426230Y-81433849D01*
X117426231Y-81433854D01*
X117485811Y-81604123D01*
X117567561Y-81734227D01*
X117581784Y-81756862D01*
X117709338Y-81884416D01*
X117796736Y-81939332D01*
X117860497Y-81979396D01*
X117862078Y-81980389D01*
X117981041Y-82022016D01*
X118032345Y-82039968D01*
X118032350Y-82039969D01*
X118211596Y-82060165D01*
X118211600Y-82060165D01*
X118211604Y-82060165D01*
X118390849Y-82039969D01*
X118390852Y-82039968D01*
X118390855Y-82039968D01*
X118561122Y-81980389D01*
X118713862Y-81884416D01*
X118841416Y-81756862D01*
X118937389Y-81604122D01*
X118996968Y-81433855D01*
X118999337Y-81412828D01*
X119017165Y-81254603D01*
X119017165Y-81254596D01*
X118996969Y-81075350D01*
X118996968Y-81075345D01*
X118956098Y-80958546D01*
X118937389Y-80905078D01*
X118935611Y-80902249D01*
X118878897Y-80811989D01*
X118841416Y-80752338D01*
X118713862Y-80624784D01*
X118656056Y-80588462D01*
X118561123Y-80528811D01*
X118390854Y-80469231D01*
X118390849Y-80469230D01*
X118211604Y-80449035D01*
X118211596Y-80449035D01*
X118032350Y-80469230D01*
X118032345Y-80469231D01*
X117862076Y-80528811D01*
X117709337Y-80624784D01*
X117581784Y-80752337D01*
X117485811Y-80905076D01*
X117426231Y-81075345D01*
X117426230Y-81075350D01*
X117406035Y-81254596D01*
X117406035Y-81254603D01*
X108778700Y-81254603D01*
X108778700Y-80284044D01*
X108780897Y-80260806D01*
X108782427Y-80252788D01*
X108778821Y-80195475D01*
X108778700Y-80191603D01*
X108778700Y-79766508D01*
X108780097Y-79747945D01*
X108799866Y-79617426D01*
X108829367Y-79554093D01*
X108854186Y-79532491D01*
X108912550Y-79493995D01*
X108915710Y-79492047D01*
X109149646Y-79357413D01*
X109166187Y-79347023D01*
X109183834Y-79334963D01*
X109199571Y-79323288D01*
X109369384Y-79186802D01*
X109372632Y-79184364D01*
X109431001Y-79143495D01*
X109446218Y-79128276D01*
X109460295Y-79114201D01*
X109465295Y-79109714D01*
X109472521Y-79103908D01*
X109482996Y-79095009D01*
X109483687Y-79094388D01*
X109489049Y-79089577D01*
X109489049Y-79089576D01*
X109522611Y-79054214D01*
X109544745Y-79030893D01*
X109544756Y-79030873D01*
X109545704Y-79029622D01*
X109551308Y-79023186D01*
X109598095Y-78976401D01*
X109728026Y-78790840D01*
X109782601Y-78747217D01*
X109852099Y-78740023D01*
X109914454Y-78771546D01*
X109931174Y-78790841D01*
X109954282Y-78823842D01*
X110061105Y-78976401D01*
X110228199Y-79143495D01*
X110318022Y-79206390D01*
X110421765Y-79279032D01*
X110421767Y-79279033D01*
X110421770Y-79279035D01*
X110635937Y-79378903D01*
X110635942Y-79378904D01*
X110635946Y-79378906D01*
X110683171Y-79391559D01*
X110709640Y-79398651D01*
X110769301Y-79435015D01*
X110799831Y-79497861D01*
X110800768Y-79532308D01*
X110795542Y-79578695D01*
X110795542Y-79578703D01*
X110815737Y-79757949D01*
X110815738Y-79757954D01*
X110875318Y-79928223D01*
X110957708Y-80059345D01*
X110971291Y-80080962D01*
X111098845Y-80208516D01*
X111251585Y-80304489D01*
X111421852Y-80364068D01*
X111428639Y-80365617D01*
X111428098Y-80367983D01*
X111482067Y-80390649D01*
X111513027Y-80429875D01*
X111513106Y-80429826D01*
X111513562Y-80430551D01*
X111515507Y-80433016D01*
X111516808Y-80435717D01*
X111516810Y-80435721D01*
X111516811Y-80435722D01*
X111612784Y-80588462D01*
X111740338Y-80716016D01*
X111798144Y-80752338D01*
X111851557Y-80785900D01*
X111893078Y-80811989D01*
X112025670Y-80858385D01*
X112063345Y-80871568D01*
X112063350Y-80871569D01*
X112242596Y-80891765D01*
X112242600Y-80891765D01*
X112242604Y-80891765D01*
X112421849Y-80871569D01*
X112421852Y-80871568D01*
X112421855Y-80871568D01*
X112592122Y-80811989D01*
X112744862Y-80716016D01*
X112872416Y-80588462D01*
X112968389Y-80435722D01*
X113027968Y-80265455D01*
X113028492Y-80260806D01*
X113035805Y-80195903D01*
X119107835Y-80195903D01*
X119128030Y-80375149D01*
X119128031Y-80375154D01*
X119187611Y-80545423D01*
X119283584Y-80698162D01*
X119411138Y-80825716D01*
X119472893Y-80864519D01*
X119537438Y-80905076D01*
X119563878Y-80921689D01*
X119681081Y-80962700D01*
X119734145Y-80981268D01*
X119734150Y-80981269D01*
X119913396Y-81001465D01*
X119913400Y-81001465D01*
X119913404Y-81001465D01*
X120092649Y-80981269D01*
X120092652Y-80981268D01*
X120092655Y-80981268D01*
X120262922Y-80921689D01*
X120415662Y-80825716D01*
X120543216Y-80698162D01*
X120639189Y-80545422D01*
X120698768Y-80375155D01*
X120699843Y-80365617D01*
X120714154Y-80238603D01*
X126804035Y-80238603D01*
X126824230Y-80417849D01*
X126824231Y-80417854D01*
X126883811Y-80588123D01*
X126964172Y-80716016D01*
X126979784Y-80740862D01*
X127107338Y-80868416D01*
X127161183Y-80902249D01*
X127250775Y-80958544D01*
X127260078Y-80964389D01*
X127430345Y-81023968D01*
X127430350Y-81023969D01*
X127609596Y-81044165D01*
X127609600Y-81044165D01*
X127609604Y-81044165D01*
X127788849Y-81023969D01*
X127788852Y-81023968D01*
X127788855Y-81023968D01*
X127959122Y-80964389D01*
X128111862Y-80868416D01*
X128239416Y-80740862D01*
X128335389Y-80588122D01*
X128394968Y-80417855D01*
X128394969Y-80417849D01*
X128415165Y-80238603D01*
X128415165Y-80238596D01*
X128394969Y-80059350D01*
X128394968Y-80059345D01*
X128349086Y-79928222D01*
X128335389Y-79889078D01*
X128239416Y-79736338D01*
X128111862Y-79608784D01*
X128072320Y-79583938D01*
X127959123Y-79512811D01*
X127788854Y-79453231D01*
X127788849Y-79453230D01*
X127609604Y-79433035D01*
X127609596Y-79433035D01*
X127430350Y-79453230D01*
X127430345Y-79453231D01*
X127260076Y-79512811D01*
X127107337Y-79608784D01*
X126979784Y-79736337D01*
X126883811Y-79889076D01*
X126824231Y-80059345D01*
X126824230Y-80059350D01*
X126804035Y-80238596D01*
X126804035Y-80238603D01*
X120714154Y-80238603D01*
X120718965Y-80195903D01*
X120718965Y-80195896D01*
X120698769Y-80016650D01*
X120698768Y-80016645D01*
X120654130Y-79889078D01*
X120639189Y-79846378D01*
X120638270Y-79844916D01*
X120579794Y-79751851D01*
X120543216Y-79693638D01*
X120415662Y-79566084D01*
X120408978Y-79561884D01*
X120262923Y-79470111D01*
X120092654Y-79410531D01*
X120092649Y-79410530D01*
X119913404Y-79390335D01*
X119913396Y-79390335D01*
X119734150Y-79410530D01*
X119734145Y-79410531D01*
X119563876Y-79470111D01*
X119411137Y-79566084D01*
X119283584Y-79693637D01*
X119187611Y-79846376D01*
X119128031Y-80016645D01*
X119128030Y-80016650D01*
X119107835Y-80195896D01*
X119107835Y-80195903D01*
X113035805Y-80195903D01*
X113048165Y-80086203D01*
X113048165Y-80086196D01*
X113027969Y-79906950D01*
X113027968Y-79906945D01*
X112975832Y-79757949D01*
X112968389Y-79736678D01*
X112968175Y-79736338D01*
X112880715Y-79597146D01*
X112872416Y-79583938D01*
X112744862Y-79456384D01*
X112718884Y-79440061D01*
X112592121Y-79360410D01*
X112421846Y-79300829D01*
X112415059Y-79299280D01*
X112415597Y-79296919D01*
X112361612Y-79274228D01*
X112330679Y-79235024D01*
X112330601Y-79235074D01*
X112330144Y-79234347D01*
X112328196Y-79231878D01*
X112326897Y-79229182D01*
X112326896Y-79229178D01*
X112230923Y-79076438D01*
X112208699Y-79054214D01*
X112175214Y-78992891D01*
X112180198Y-78923199D01*
X112194803Y-78895413D01*
X112268026Y-78790840D01*
X112322601Y-78747217D01*
X112392099Y-78740023D01*
X112454454Y-78771546D01*
X112471174Y-78790841D01*
X112494282Y-78823842D01*
X112601105Y-78976401D01*
X112768199Y-79143495D01*
X112858022Y-79206390D01*
X112961765Y-79279032D01*
X112961767Y-79279033D01*
X112961770Y-79279035D01*
X113175937Y-79378903D01*
X113404192Y-79440063D01*
X113580634Y-79455500D01*
X113639599Y-79460659D01*
X113639600Y-79460659D01*
X113639601Y-79460659D01*
X113698566Y-79455500D01*
X113875008Y-79440063D01*
X114103263Y-79378903D01*
X114317430Y-79279035D01*
X114511001Y-79143495D01*
X114678095Y-78976401D01*
X114808026Y-78790841D01*
X114862602Y-78747217D01*
X114932100Y-78740023D01*
X114994455Y-78771546D01*
X115011175Y-78790842D01*
X115141100Y-78976395D01*
X115141105Y-78976401D01*
X115308199Y-79143495D01*
X115398022Y-79206390D01*
X115501765Y-79279032D01*
X115501767Y-79279033D01*
X115501770Y-79279035D01*
X115715937Y-79378903D01*
X115944192Y-79440063D01*
X116120634Y-79455500D01*
X116179599Y-79460659D01*
X116179600Y-79460659D01*
X116179601Y-79460659D01*
X116238566Y-79455500D01*
X116415008Y-79440063D01*
X116643263Y-79378903D01*
X116857430Y-79279035D01*
X117051001Y-79143495D01*
X117218095Y-78976401D01*
X117348026Y-78790841D01*
X117402602Y-78747217D01*
X117472100Y-78740023D01*
X117534455Y-78771546D01*
X117551175Y-78790842D01*
X117681100Y-78976395D01*
X117681105Y-78976401D01*
X117848199Y-79143495D01*
X117938022Y-79206390D01*
X118041765Y-79279032D01*
X118041767Y-79279033D01*
X118041770Y-79279035D01*
X118255937Y-79378903D01*
X118484192Y-79440063D01*
X118660634Y-79455500D01*
X118719599Y-79460659D01*
X118719600Y-79460659D01*
X118719601Y-79460659D01*
X118778566Y-79455500D01*
X118955008Y-79440063D01*
X119183263Y-79378903D01*
X119397430Y-79279035D01*
X119591001Y-79143495D01*
X119758095Y-78976401D01*
X119888026Y-78790841D01*
X119942602Y-78747217D01*
X120012100Y-78740023D01*
X120074455Y-78771546D01*
X120091175Y-78790842D01*
X120221100Y-78976395D01*
X120221105Y-78976401D01*
X120388199Y-79143495D01*
X120478022Y-79206390D01*
X120581765Y-79279032D01*
X120581767Y-79279033D01*
X120581770Y-79279035D01*
X120795937Y-79378903D01*
X121024192Y-79440063D01*
X121200634Y-79455500D01*
X121259599Y-79460659D01*
X121259600Y-79460659D01*
X121259601Y-79460659D01*
X121318566Y-79455500D01*
X121495008Y-79440063D01*
X121723263Y-79378903D01*
X121937430Y-79279035D01*
X122131001Y-79143495D01*
X122298095Y-78976401D01*
X122428026Y-78790841D01*
X122482602Y-78747217D01*
X122552100Y-78740023D01*
X122614455Y-78771546D01*
X122631175Y-78790842D01*
X122761100Y-78976395D01*
X122761105Y-78976401D01*
X122928199Y-79143495D01*
X123018022Y-79206390D01*
X123121765Y-79279032D01*
X123121767Y-79279033D01*
X123121770Y-79279035D01*
X123335937Y-79378903D01*
X123564192Y-79440063D01*
X123740634Y-79455500D01*
X123799599Y-79460659D01*
X123799600Y-79460659D01*
X123799601Y-79460659D01*
X123858566Y-79455500D01*
X124035008Y-79440063D01*
X124263263Y-79378903D01*
X124477430Y-79279035D01*
X124671001Y-79143495D01*
X124838095Y-78976401D01*
X124968026Y-78790841D01*
X125022602Y-78747217D01*
X125092100Y-78740023D01*
X125154455Y-78771546D01*
X125171175Y-78790842D01*
X125301100Y-78976395D01*
X125301105Y-78976401D01*
X125468199Y-79143495D01*
X125558022Y-79206390D01*
X125661765Y-79279032D01*
X125661767Y-79279033D01*
X125661770Y-79279035D01*
X125875937Y-79378903D01*
X126104192Y-79440063D01*
X126280634Y-79455500D01*
X126339599Y-79460659D01*
X126339600Y-79460659D01*
X126339601Y-79460659D01*
X126398566Y-79455500D01*
X126575008Y-79440063D01*
X126803263Y-79378903D01*
X127017430Y-79279035D01*
X127211001Y-79143495D01*
X127378095Y-78976401D01*
X127508026Y-78790841D01*
X127562602Y-78747217D01*
X127632100Y-78740023D01*
X127694455Y-78771546D01*
X127711175Y-78790842D01*
X127841100Y-78976395D01*
X127841105Y-78976401D01*
X128008199Y-79143495D01*
X128098022Y-79206390D01*
X128201765Y-79279032D01*
X128201767Y-79279033D01*
X128201770Y-79279035D01*
X128415937Y-79378903D01*
X128644192Y-79440063D01*
X128820634Y-79455500D01*
X128879599Y-79460659D01*
X128879600Y-79460659D01*
X128879601Y-79460659D01*
X128938566Y-79455500D01*
X129115008Y-79440063D01*
X129343263Y-79378903D01*
X129557430Y-79279035D01*
X129751001Y-79143495D01*
X129918095Y-78976401D01*
X130048026Y-78790841D01*
X130102602Y-78747217D01*
X130172100Y-78740023D01*
X130234455Y-78771546D01*
X130251175Y-78790842D01*
X130381100Y-78976395D01*
X130381105Y-78976401D01*
X130548199Y-79143495D01*
X130638022Y-79206390D01*
X130741765Y-79279032D01*
X130741767Y-79279033D01*
X130741770Y-79279035D01*
X130955937Y-79378903D01*
X131184192Y-79440063D01*
X131360634Y-79455500D01*
X131419599Y-79460659D01*
X131419600Y-79460659D01*
X131419601Y-79460659D01*
X131478566Y-79455500D01*
X131655008Y-79440063D01*
X131883263Y-79378903D01*
X132097430Y-79279035D01*
X132291001Y-79143495D01*
X132458095Y-78976401D01*
X132588026Y-78790841D01*
X132642602Y-78747217D01*
X132712100Y-78740023D01*
X132774455Y-78771546D01*
X132791175Y-78790842D01*
X132921100Y-78976395D01*
X132921105Y-78976401D01*
X133088199Y-79143495D01*
X133178022Y-79206390D01*
X133281765Y-79279032D01*
X133281767Y-79279033D01*
X133281770Y-79279035D01*
X133495937Y-79378903D01*
X133724192Y-79440063D01*
X133900634Y-79455500D01*
X133959599Y-79460659D01*
X133959600Y-79460659D01*
X133959601Y-79460659D01*
X134018566Y-79455500D01*
X134195008Y-79440063D01*
X134423263Y-79378903D01*
X134637430Y-79279035D01*
X134831001Y-79143495D01*
X134998095Y-78976401D01*
X135128026Y-78790841D01*
X135182602Y-78747217D01*
X135252100Y-78740023D01*
X135314455Y-78771546D01*
X135331175Y-78790842D01*
X135461100Y-78976395D01*
X135461105Y-78976401D01*
X135628199Y-79143495D01*
X135718022Y-79206390D01*
X135821765Y-79279032D01*
X135821767Y-79279033D01*
X135821770Y-79279035D01*
X136035937Y-79378903D01*
X136264192Y-79440063D01*
X136440634Y-79455500D01*
X136499599Y-79460659D01*
X136499600Y-79460659D01*
X136499601Y-79460659D01*
X136558566Y-79455500D01*
X136735008Y-79440063D01*
X136963263Y-79378903D01*
X137177430Y-79279035D01*
X137371001Y-79143495D01*
X137538095Y-78976401D01*
X137668330Y-78790405D01*
X137722907Y-78746781D01*
X137792405Y-78739587D01*
X137854760Y-78771110D01*
X137871479Y-78790405D01*
X138001490Y-78976078D01*
X138168517Y-79143105D01*
X138362021Y-79278600D01*
X138576107Y-79378429D01*
X138576116Y-79378433D01*
X138789600Y-79435634D01*
X138789600Y-78540501D01*
X138897285Y-78589680D01*
X139003837Y-78605000D01*
X139075363Y-78605000D01*
X139181915Y-78589680D01*
X139289600Y-78540501D01*
X139289600Y-79435633D01*
X139503083Y-79378433D01*
X139503092Y-79378429D01*
X139717178Y-79278600D01*
X139910682Y-79143105D01*
X140077705Y-78976082D01*
X140207719Y-78790405D01*
X140262296Y-78746781D01*
X140331795Y-78739588D01*
X140394149Y-78771110D01*
X140410869Y-78790405D01*
X140541105Y-78976401D01*
X140708199Y-79143495D01*
X140798022Y-79206390D01*
X140901765Y-79279032D01*
X140901767Y-79279033D01*
X140901770Y-79279035D01*
X141115937Y-79378903D01*
X141344192Y-79440063D01*
X141520634Y-79455500D01*
X141579599Y-79460659D01*
X141579600Y-79460659D01*
X141579601Y-79460659D01*
X141638566Y-79455500D01*
X141815008Y-79440063D01*
X142043263Y-79378903D01*
X142257430Y-79279035D01*
X142451001Y-79143495D01*
X142618095Y-78976401D01*
X142753635Y-78782830D01*
X142853503Y-78568663D01*
X142914663Y-78340408D01*
X142935259Y-78105000D01*
X143314953Y-78105000D01*
X143333092Y-78277576D01*
X143333093Y-78277579D01*
X143386712Y-78442608D01*
X143473477Y-78592887D01*
X143473476Y-78592887D01*
X143585879Y-78717723D01*
X143589590Y-78721845D01*
X143723364Y-78819038D01*
X143729976Y-78823842D01*
X143888495Y-78894420D01*
X143888498Y-78894421D01*
X143888499Y-78894421D01*
X143888501Y-78894422D01*
X143915933Y-78900252D01*
X143919594Y-78901149D01*
X143923628Y-78902269D01*
X143923638Y-78902273D01*
X143930096Y-78903331D01*
X143932899Y-78903859D01*
X144058236Y-78930500D01*
X144058237Y-78930500D01*
X144085723Y-78930500D01*
X144093478Y-78931130D01*
X144093493Y-78930855D01*
X144100194Y-78931217D01*
X144100204Y-78931219D01*
X144111788Y-78930590D01*
X144115142Y-78930500D01*
X144231760Y-78930500D01*
X144231764Y-78930500D01*
X144262850Y-78923892D01*
X144272231Y-78922650D01*
X144272227Y-78922620D01*
X144278854Y-78921532D01*
X144278864Y-78921532D01*
X144293099Y-78917579D01*
X144296712Y-78916694D01*
X144401499Y-78894422D01*
X144434517Y-78879721D01*
X144450197Y-78874090D01*
X144451250Y-78873669D01*
X144451264Y-78873666D01*
X144465900Y-78865905D01*
X144469679Y-78864066D01*
X144560024Y-78823842D01*
X144596399Y-78797413D01*
X144603794Y-78792799D01*
X144609344Y-78789857D01*
X144622610Y-78778587D01*
X144626269Y-78775711D01*
X144700410Y-78721845D01*
X144733395Y-78685210D01*
X144739321Y-78679453D01*
X144745712Y-78674025D01*
X144756351Y-78660029D01*
X144759572Y-78656138D01*
X144816522Y-78592889D01*
X144843415Y-78546309D01*
X144847723Y-78539830D01*
X144853991Y-78531586D01*
X144861203Y-78515995D01*
X144863741Y-78511103D01*
X144903286Y-78442611D01*
X144921330Y-78387073D01*
X144924012Y-78380238D01*
X144929119Y-78369200D01*
X144932634Y-78353229D01*
X144934215Y-78347418D01*
X144936493Y-78340408D01*
X144956908Y-78277576D01*
X144963513Y-78214731D01*
X144964614Y-78207943D01*
X144967582Y-78194461D01*
X144968188Y-78172019D01*
X144968503Y-78167256D01*
X144975047Y-78105000D01*
X144968500Y-78042717D01*
X144968188Y-78037979D01*
X144967582Y-78015539D01*
X144964615Y-78002061D01*
X144963511Y-77995245D01*
X144956908Y-77932424D01*
X144934213Y-77862577D01*
X144932630Y-77856750D01*
X144929120Y-77840804D01*
X144929119Y-77840803D01*
X144929119Y-77840800D01*
X144924018Y-77829774D01*
X144921324Y-77822907D01*
X144903286Y-77767389D01*
X144881746Y-77730082D01*
X144863761Y-77698929D01*
X144861183Y-77693959D01*
X144853991Y-77678414D01*
X144847736Y-77670186D01*
X144843404Y-77663671D01*
X144816522Y-77617111D01*
X144759592Y-77553884D01*
X144756324Y-77549935D01*
X144745712Y-77535975D01*
X144745710Y-77535973D01*
X144739330Y-77530554D01*
X144733390Y-77524782D01*
X144700411Y-77488156D01*
X144675390Y-77469977D01*
X144626285Y-77434299D01*
X144622596Y-77431399D01*
X144609347Y-77420145D01*
X144609346Y-77420144D01*
X144608308Y-77419594D01*
X144603794Y-77417200D01*
X144596401Y-77412587D01*
X144577821Y-77399088D01*
X144560028Y-77386160D01*
X144469704Y-77345945D01*
X144465880Y-77344083D01*
X144451264Y-77336334D01*
X144451261Y-77336333D01*
X144450243Y-77335927D01*
X144434503Y-77330272D01*
X144420129Y-77323872D01*
X144401498Y-77315577D01*
X144296760Y-77293315D01*
X144293066Y-77292411D01*
X144278862Y-77288467D01*
X144272229Y-77287380D01*
X144272233Y-77287350D01*
X144262849Y-77286106D01*
X144231766Y-77279500D01*
X144231764Y-77279500D01*
X144115142Y-77279500D01*
X144111788Y-77279409D01*
X144100204Y-77278781D01*
X144093493Y-77279145D01*
X144093478Y-77278869D01*
X144085723Y-77279500D01*
X144058232Y-77279500D01*
X143932932Y-77306134D01*
X143930074Y-77306671D01*
X143923632Y-77307727D01*
X143919580Y-77308852D01*
X143915897Y-77309753D01*
X143888502Y-77315577D01*
X143729977Y-77386158D01*
X143729972Y-77386160D01*
X143589591Y-77488153D01*
X143589589Y-77488155D01*
X143473477Y-77617112D01*
X143386712Y-77767391D01*
X143334695Y-77927489D01*
X143333092Y-77932424D01*
X143314953Y-78105000D01*
X142935259Y-78105000D01*
X142914663Y-77869592D01*
X142853503Y-77641337D01*
X142753635Y-77427171D01*
X142748715Y-77420145D01*
X142618096Y-77233600D01*
X142559554Y-77175058D01*
X142456575Y-77072079D01*
X142423092Y-77010758D01*
X142428076Y-76941067D01*
X142469947Y-76885133D01*
X142535412Y-76860716D01*
X142544258Y-76860400D01*
X145214800Y-76860400D01*
X145281839Y-76880085D01*
G37*
%TD.AperFunction*%
%TD*%
%TA.AperFunction,Conductor*%
%TO.N,/PA09*%
G36*
X114080250Y-84685000D02*
G01*
X114398515Y-84748526D01*
X114405957Y-84753506D01*
X114407699Y-84762290D01*
X114402719Y-84769732D01*
X114398515Y-84771474D01*
X113958407Y-84859319D01*
X113951772Y-84858708D01*
X113934997Y-84851999D01*
X113915009Y-84845503D01*
X113915010Y-84845503D01*
X113915006Y-84845502D01*
X113915000Y-84845500D01*
X113894999Y-84840499D01*
X113894995Y-84840498D01*
X113894986Y-84840496D01*
X113874994Y-84836998D01*
X113865535Y-84836052D01*
X113857644Y-84831819D01*
X113855000Y-84824410D01*
X113855000Y-84695588D01*
X113858427Y-84687315D01*
X113865536Y-84683946D01*
X113868666Y-84683633D01*
X113874994Y-84683001D01*
X113894986Y-84679503D01*
X113894995Y-84679500D01*
X113894999Y-84679500D01*
X113915000Y-84674499D01*
X113915006Y-84674496D01*
X113915009Y-84674496D01*
X113934997Y-84668000D01*
X113951772Y-84661291D01*
X113958407Y-84660680D01*
X114080250Y-84685000D01*
G37*
%TD.AperFunction*%
%TD*%
%TA.AperFunction,Conductor*%
%TO.N,/PA11*%
G36*
X114080250Y-86285000D02*
G01*
X114398515Y-86348526D01*
X114405957Y-86353506D01*
X114407699Y-86362290D01*
X114402719Y-86369732D01*
X114398515Y-86371474D01*
X113958407Y-86459319D01*
X113951772Y-86458708D01*
X113934997Y-86451999D01*
X113915009Y-86445503D01*
X113915010Y-86445503D01*
X113915006Y-86445502D01*
X113915000Y-86445500D01*
X113894999Y-86440499D01*
X113894995Y-86440498D01*
X113894986Y-86440496D01*
X113874994Y-86436998D01*
X113865535Y-86436052D01*
X113857644Y-86431819D01*
X113855000Y-86424410D01*
X113855000Y-86295588D01*
X113858427Y-86287315D01*
X113865536Y-86283946D01*
X113868666Y-86283633D01*
X113874994Y-86283001D01*
X113894986Y-86279503D01*
X113894995Y-86279500D01*
X113894999Y-86279500D01*
X113915000Y-86274499D01*
X113915006Y-86274496D01*
X113915009Y-86274496D01*
X113934997Y-86268000D01*
X113951772Y-86261291D01*
X113958407Y-86260680D01*
X114080250Y-86285000D01*
G37*
%TD.AperFunction*%
%TD*%
%TA.AperFunction,Conductor*%
%TO.N,/OE*%
G36*
X118606542Y-84134617D02*
G01*
X119373763Y-84452006D01*
X119380097Y-84458335D01*
X119380990Y-84462831D01*
X119380014Y-85293068D01*
X119376577Y-85301337D01*
X119368300Y-85304754D01*
X119368070Y-85304751D01*
X119030715Y-85297723D01*
X119030427Y-85297710D01*
X118964198Y-85293068D01*
X118782890Y-85280360D01*
X118569128Y-85259640D01*
X118321449Y-85242280D01*
X118121290Y-85238109D01*
X117983476Y-85235238D01*
X117975276Y-85231640D01*
X117972020Y-85223541D01*
X117972020Y-85094727D01*
X117975447Y-85086454D01*
X117981582Y-85083224D01*
X118234771Y-85036218D01*
X118374671Y-84900445D01*
X118445464Y-84693534D01*
X118500839Y-84431590D01*
X118500974Y-84431079D01*
X118590897Y-84141953D01*
X118596626Y-84135071D01*
X118605544Y-84134256D01*
X118606542Y-84134617D01*
G37*
%TD.AperFunction*%
%TD*%
%TA.AperFunction,Conductor*%
%TO.N,/PA20*%
G36*
X142932357Y-86650467D02*
G01*
X143041345Y-86654670D01*
X143041858Y-86654713D01*
X143127249Y-86665824D01*
X143127487Y-86665861D01*
X143201269Y-86679160D01*
X143201275Y-86679161D01*
X143201274Y-86679161D01*
X143235724Y-86683643D01*
X143287037Y-86690320D01*
X143397189Y-86694567D01*
X143405323Y-86698310D01*
X143408437Y-86706219D01*
X143409383Y-86990114D01*
X143405984Y-86998399D01*
X143405937Y-86998446D01*
X143206416Y-87197031D01*
X143198134Y-87200438D01*
X143189869Y-87196992D01*
X143188391Y-87195174D01*
X143125422Y-87099576D01*
X143123899Y-87096196D01*
X143097434Y-86998399D01*
X143094840Y-86988814D01*
X143094785Y-86988593D01*
X143073561Y-86893225D01*
X143026690Y-86825646D01*
X142998351Y-86818818D01*
X142929197Y-86802158D01*
X142921956Y-86796888D01*
X142920237Y-86790783D01*
X142920237Y-86662159D01*
X142923664Y-86653886D01*
X142931937Y-86650459D01*
X142932357Y-86650467D01*
G37*
%TD.AperFunction*%
%TD*%
%TA.AperFunction,Conductor*%
%TO.N,/PA18*%
G36*
X142638227Y-84626291D02*
G01*
X142655002Y-84633000D01*
X142674990Y-84639496D01*
X142674992Y-84639496D01*
X142674999Y-84639499D01*
X142695000Y-84644500D01*
X142695003Y-84644500D01*
X142695013Y-84644503D01*
X142715005Y-84648001D01*
X142720916Y-84648591D01*
X142724463Y-84648946D01*
X142732355Y-84653178D01*
X142735000Y-84660588D01*
X142735000Y-84789410D01*
X142731573Y-84797683D01*
X142724464Y-84801052D01*
X142715005Y-84801998D01*
X142695013Y-84805496D01*
X142695003Y-84805498D01*
X142695000Y-84805499D01*
X142674999Y-84810500D01*
X142674992Y-84810502D01*
X142674989Y-84810503D01*
X142674990Y-84810503D01*
X142655002Y-84816999D01*
X142638227Y-84823708D01*
X142631592Y-84824319D01*
X142263062Y-84750760D01*
X142191483Y-84736473D01*
X142184042Y-84731494D01*
X142182300Y-84722710D01*
X142187280Y-84715268D01*
X142191483Y-84713526D01*
X142631592Y-84625680D01*
X142638227Y-84626291D01*
G37*
%TD.AperFunction*%
%TD*%
%TA.AperFunction,Conductor*%
%TO.N,/PA06*%
G36*
X113146820Y-86825583D02*
G01*
X113148306Y-86826329D01*
X113238556Y-86879954D01*
X113240250Y-86881177D01*
X113319215Y-86949759D01*
X113387605Y-87003181D01*
X113410493Y-87007689D01*
X113456269Y-87016706D01*
X113456270Y-87016706D01*
X113456270Y-87016705D01*
X113456271Y-87016706D01*
X113528961Y-86971219D01*
X113537788Y-86969736D01*
X113543437Y-86972865D01*
X113634402Y-87063830D01*
X113637829Y-87072103D01*
X113634402Y-87080376D01*
X113634159Y-87080612D01*
X113536642Y-87172640D01*
X113536160Y-87173049D01*
X113453871Y-87235398D01*
X113452308Y-87236398D01*
X113372738Y-87278811D01*
X113372193Y-87279067D01*
X113273861Y-87319124D01*
X113147395Y-87369505D01*
X113138441Y-87369384D01*
X113132269Y-87363147D01*
X113079309Y-87236398D01*
X113023071Y-87101804D01*
X113023045Y-87092851D01*
X113131525Y-86831895D01*
X113137865Y-86825572D01*
X113146820Y-86825583D01*
G37*
%TD.AperFunction*%
%TD*%
%TA.AperFunction,Conductor*%
%TO.N,/OE*%
G36*
X116758227Y-85061291D02*
G01*
X116775002Y-85068000D01*
X116794990Y-85074496D01*
X116794992Y-85074496D01*
X116794999Y-85074499D01*
X116815000Y-85079500D01*
X116815003Y-85079500D01*
X116815013Y-85079503D01*
X116835005Y-85083001D01*
X116840916Y-85083591D01*
X116844463Y-85083946D01*
X116852355Y-85088178D01*
X116855000Y-85095588D01*
X116855000Y-85224410D01*
X116851573Y-85232683D01*
X116844464Y-85236052D01*
X116835005Y-85236998D01*
X116815013Y-85240496D01*
X116815003Y-85240498D01*
X116815000Y-85240499D01*
X116794999Y-85245500D01*
X116794992Y-85245502D01*
X116794989Y-85245503D01*
X116794990Y-85245503D01*
X116775002Y-85251999D01*
X116758227Y-85258708D01*
X116751592Y-85259319D01*
X116383062Y-85185760D01*
X116311483Y-85171473D01*
X116304042Y-85166494D01*
X116302300Y-85157710D01*
X116307280Y-85150268D01*
X116311483Y-85148526D01*
X116751592Y-85060680D01*
X116758227Y-85061291D01*
G37*
%TD.AperFunction*%
%TD*%
%TA.AperFunction,Conductor*%
%TO.N,/PA05*%
G36*
X116221991Y-90072587D02*
G01*
X116292777Y-90102164D01*
X116299089Y-90108516D01*
X116299062Y-90117471D01*
X116298716Y-90118221D01*
X116244887Y-90225137D01*
X116244512Y-90225777D01*
X116189753Y-90306996D01*
X116144395Y-90377804D01*
X116144395Y-90377805D01*
X116113570Y-90464123D01*
X116113569Y-90464129D01*
X116103147Y-90581535D01*
X116099002Y-90589472D01*
X116091493Y-90592200D01*
X115962907Y-90592200D01*
X115954634Y-90588773D01*
X115951253Y-90581535D01*
X115940830Y-90464128D01*
X115910003Y-90377804D01*
X115864645Y-90306996D01*
X115809886Y-90225777D01*
X115809516Y-90225147D01*
X115755681Y-90118218D01*
X115755022Y-90109291D01*
X115760871Y-90102510D01*
X115761608Y-90102169D01*
X116022690Y-89993083D01*
X116031644Y-89993057D01*
X116221991Y-90072587D01*
G37*
%TD.AperFunction*%
%TD*%
%TA.AperFunction,Conductor*%
%TO.N,+3.3V*%
G36*
X143945599Y-85493329D02*
G01*
X143946105Y-85494389D01*
X144093323Y-85847498D01*
X144093344Y-85856452D01*
X144093323Y-85856502D01*
X143945711Y-86210555D01*
X143939364Y-86216873D01*
X143930410Y-86216852D01*
X143930215Y-86216769D01*
X143790575Y-86155565D01*
X143682123Y-86107004D01*
X143682119Y-86107002D01*
X143585694Y-86074278D01*
X143585691Y-86074277D01*
X143514220Y-86062741D01*
X143471242Y-86055805D01*
X143471239Y-86055804D01*
X143471234Y-86055804D01*
X143320003Y-86050402D01*
X143311858Y-86046682D01*
X143308721Y-86038709D01*
X143308721Y-85810404D01*
X143312148Y-85802131D01*
X143319052Y-85798784D01*
X143478978Y-85779973D01*
X143590035Y-85727217D01*
X143679203Y-85652720D01*
X143782944Y-85568161D01*
X143784764Y-85566944D01*
X143929746Y-85488597D01*
X143938651Y-85487679D01*
X143945599Y-85493329D01*
G37*
%TD.AperFunction*%
%TD*%
%TA.AperFunction,Conductor*%
%TO.N,+3.3V*%
G36*
X114463232Y-85567315D02*
G01*
X114463314Y-85567397D01*
X114550140Y-85655091D01*
X114553526Y-85663381D01*
X114553051Y-85666623D01*
X114550000Y-85676999D01*
X114545000Y-85695499D01*
X114539999Y-85715500D01*
X114534999Y-85737000D01*
X114532003Y-85750785D01*
X114526897Y-85758141D01*
X114520570Y-85760000D01*
X114389430Y-85760000D01*
X114381157Y-85756573D01*
X114377997Y-85750786D01*
X114375000Y-85737000D01*
X114370000Y-85715500D01*
X114364999Y-85695499D01*
X114359999Y-85676999D01*
X114356948Y-85666625D01*
X114357902Y-85657721D01*
X114359859Y-85655092D01*
X114446686Y-85567397D01*
X114454942Y-85563929D01*
X114463232Y-85567315D01*
G37*
%TD.AperFunction*%
%TD*%
%TA.AperFunction,Conductor*%
%TO.N,/PA10*%
G36*
X114080250Y-85085000D02*
G01*
X114398515Y-85148526D01*
X114405957Y-85153506D01*
X114407699Y-85162290D01*
X114402719Y-85169732D01*
X114398515Y-85171474D01*
X113958407Y-85259319D01*
X113951772Y-85258708D01*
X113934997Y-85251999D01*
X113915009Y-85245503D01*
X113915010Y-85245503D01*
X113915006Y-85245502D01*
X113915000Y-85245500D01*
X113894999Y-85240499D01*
X113894995Y-85240498D01*
X113894986Y-85240496D01*
X113874994Y-85236998D01*
X113865535Y-85236052D01*
X113857644Y-85231819D01*
X113855000Y-85224410D01*
X113855000Y-85095588D01*
X113858427Y-85087315D01*
X113865536Y-85083946D01*
X113868666Y-85083633D01*
X113874994Y-85083001D01*
X113894986Y-85079503D01*
X113894995Y-85079500D01*
X113894999Y-85079500D01*
X113915000Y-85074499D01*
X113915006Y-85074496D01*
X113915009Y-85074496D01*
X113934997Y-85068000D01*
X113951772Y-85061291D01*
X113958407Y-85060680D01*
X114080250Y-85085000D01*
G37*
%TD.AperFunction*%
%TD*%
%TA.AperFunction,Conductor*%
%TO.N,/PA07*%
G36*
X142923460Y-87215799D02*
G01*
X142924044Y-87216313D01*
X143008867Y-87290899D01*
X143008868Y-87290900D01*
X143008871Y-87290902D01*
X143085555Y-87335577D01*
X143085558Y-87335578D01*
X143085560Y-87335579D01*
X143160959Y-87361121D01*
X143160965Y-87361122D01*
X143160972Y-87361125D01*
X143250640Y-87386045D01*
X143251016Y-87386165D01*
X143316336Y-87409542D01*
X143359270Y-87424908D01*
X143365905Y-87430922D01*
X143366344Y-87439866D01*
X143366151Y-87440368D01*
X143258563Y-87702384D01*
X143252251Y-87708736D01*
X143252184Y-87708763D01*
X142990778Y-87816101D01*
X142981823Y-87816074D01*
X142975511Y-87809722D01*
X142975132Y-87808654D01*
X142940387Y-87692776D01*
X142939960Y-87690651D01*
X142929342Y-87590561D01*
X142921021Y-87503386D01*
X142889497Y-87416107D01*
X142889496Y-87416106D01*
X142889496Y-87416105D01*
X142837543Y-87350480D01*
X142815620Y-87322788D01*
X142813172Y-87314176D01*
X142816520Y-87307255D01*
X142907463Y-87216312D01*
X142915735Y-87212886D01*
X142923460Y-87215799D01*
G37*
%TD.AperFunction*%
%TD*%
%TA.AperFunction,Conductor*%
%TO.N,/PA17*%
G36*
X142638227Y-86226291D02*
G01*
X142655002Y-86233000D01*
X142674990Y-86239496D01*
X142674992Y-86239496D01*
X142674999Y-86239499D01*
X142695000Y-86244500D01*
X142695003Y-86244500D01*
X142695013Y-86244503D01*
X142715005Y-86248001D01*
X142720916Y-86248591D01*
X142724463Y-86248946D01*
X142732355Y-86253178D01*
X142735000Y-86260588D01*
X142735000Y-86389410D01*
X142731573Y-86397683D01*
X142724464Y-86401052D01*
X142715005Y-86401998D01*
X142695013Y-86405496D01*
X142695003Y-86405498D01*
X142695000Y-86405499D01*
X142674999Y-86410500D01*
X142674992Y-86410502D01*
X142674989Y-86410503D01*
X142674990Y-86410503D01*
X142655002Y-86416999D01*
X142638227Y-86423708D01*
X142631592Y-86424319D01*
X142263062Y-86350760D01*
X142191483Y-86336473D01*
X142184042Y-86331494D01*
X142182300Y-86322710D01*
X142187280Y-86315268D01*
X142191483Y-86313526D01*
X142631592Y-86225680D01*
X142638227Y-86226291D01*
G37*
%TD.AperFunction*%
%TD*%
%TA.AperFunction,Conductor*%
%TO.N,+3.3V*%
G36*
X144288991Y-82554187D02*
G01*
X144359777Y-82583764D01*
X144366089Y-82590116D01*
X144366062Y-82599071D01*
X144365716Y-82599821D01*
X144311887Y-82706737D01*
X144311512Y-82707377D01*
X144256753Y-82788596D01*
X144211395Y-82859404D01*
X144211395Y-82859405D01*
X144180570Y-82945723D01*
X144180569Y-82945729D01*
X144170147Y-83063135D01*
X144166002Y-83071072D01*
X144158493Y-83073800D01*
X144029907Y-83073800D01*
X144021634Y-83070373D01*
X144018253Y-83063135D01*
X144007830Y-82945728D01*
X143977003Y-82859404D01*
X143931645Y-82788596D01*
X143876886Y-82707377D01*
X143876516Y-82706747D01*
X143822681Y-82599818D01*
X143822022Y-82590891D01*
X143827871Y-82584110D01*
X143828608Y-82583769D01*
X144089690Y-82474683D01*
X144098644Y-82474657D01*
X144288991Y-82554187D01*
G37*
%TD.AperFunction*%
%TD*%
%TA.AperFunction,Conductor*%
%TO.N,/PA05*%
G36*
X113456902Y-83786191D02*
G01*
X113463214Y-83792543D01*
X113463501Y-83793318D01*
X113501039Y-83906984D01*
X113501227Y-83907702D01*
X113519937Y-84003851D01*
X113537932Y-84085992D01*
X113550593Y-84112717D01*
X113577176Y-84168831D01*
X113577178Y-84168834D01*
X113577179Y-84168835D01*
X113652824Y-84259220D01*
X113655506Y-84267764D01*
X113652125Y-84275002D01*
X113561202Y-84365925D01*
X113552929Y-84369352D01*
X113545420Y-84366624D01*
X113455035Y-84290979D01*
X113455034Y-84290978D01*
X113455031Y-84290976D01*
X113398917Y-84264393D01*
X113372192Y-84251732D01*
X113290051Y-84233737D01*
X113193902Y-84215027D01*
X113193184Y-84214839D01*
X113079518Y-84177301D01*
X113072737Y-84171452D01*
X113072077Y-84162522D01*
X113072353Y-84161774D01*
X113179836Y-83900014D01*
X113186146Y-83893664D01*
X113447949Y-83786164D01*
X113456902Y-83786191D01*
G37*
%TD.AperFunction*%
%TD*%
%TA.AperFunction,Conductor*%
%TO.N,/E*%
G36*
X140324912Y-87123734D02*
G01*
X140332997Y-87127584D01*
X140336003Y-87135098D01*
X140338151Y-87213502D01*
X140334952Y-87221865D01*
X140326974Y-87225510D01*
X140234238Y-87229628D01*
X140130009Y-87235757D01*
X140025780Y-87243385D01*
X139921551Y-87252514D01*
X139822852Y-87262579D01*
X139814274Y-87260009D01*
X139813392Y-87259212D01*
X139724380Y-87170200D01*
X139720953Y-87161927D01*
X139724380Y-87153654D01*
X139728753Y-87150896D01*
X139736005Y-87148335D01*
X139736012Y-87148332D01*
X139736011Y-87148333D01*
X139752504Y-87141507D01*
X139760754Y-87138093D01*
X139785502Y-87126352D01*
X139810251Y-87113110D01*
X139831954Y-87100183D01*
X139838542Y-87098552D01*
X140324912Y-87123734D01*
G37*
%TD.AperFunction*%
%TD*%
%TA.AperFunction,Conductor*%
%TO.N,/R1*%
G36*
X139960250Y-85050000D02*
G01*
X140278515Y-85113526D01*
X140285957Y-85118506D01*
X140287699Y-85127290D01*
X140282719Y-85134732D01*
X140278515Y-85136474D01*
X139838407Y-85224319D01*
X139831772Y-85223708D01*
X139814997Y-85216999D01*
X139795009Y-85210503D01*
X139795010Y-85210503D01*
X139795006Y-85210502D01*
X139795000Y-85210500D01*
X139774999Y-85205499D01*
X139774995Y-85205498D01*
X139774986Y-85205496D01*
X139754994Y-85201998D01*
X139745535Y-85201052D01*
X139737644Y-85196819D01*
X139735000Y-85189410D01*
X139735000Y-85060588D01*
X139738427Y-85052315D01*
X139745536Y-85048946D01*
X139748666Y-85048633D01*
X139754994Y-85048001D01*
X139774986Y-85044503D01*
X139774995Y-85044500D01*
X139774999Y-85044500D01*
X139795000Y-85039499D01*
X139795006Y-85039496D01*
X139795009Y-85039496D01*
X139814997Y-85033000D01*
X139831772Y-85026291D01*
X139838407Y-85025680D01*
X139960250Y-85050000D01*
G37*
%TD.AperFunction*%
%TD*%
%TA.AperFunction,Conductor*%
%TO.N,/D*%
G36*
X116758227Y-86661291D02*
G01*
X116775002Y-86668000D01*
X116794990Y-86674496D01*
X116794992Y-86674496D01*
X116794999Y-86674499D01*
X116815000Y-86679500D01*
X116815003Y-86679500D01*
X116815013Y-86679503D01*
X116835005Y-86683001D01*
X116840916Y-86683591D01*
X116844463Y-86683946D01*
X116852355Y-86688178D01*
X116855000Y-86695588D01*
X116855000Y-86824410D01*
X116851573Y-86832683D01*
X116844464Y-86836052D01*
X116835005Y-86836998D01*
X116815013Y-86840496D01*
X116815003Y-86840498D01*
X116815000Y-86840499D01*
X116794999Y-86845500D01*
X116794992Y-86845502D01*
X116794989Y-86845503D01*
X116794990Y-86845503D01*
X116775002Y-86851999D01*
X116758227Y-86858708D01*
X116751592Y-86859319D01*
X116383062Y-86785760D01*
X116311483Y-86771473D01*
X116304042Y-86766494D01*
X116302300Y-86757710D01*
X116307280Y-86750268D01*
X116311483Y-86748526D01*
X116751592Y-86660680D01*
X116758227Y-86661291D01*
G37*
%TD.AperFunction*%
%TD*%
%TA.AperFunction,Conductor*%
%TO.N,/B1*%
G36*
X139960250Y-84650000D02*
G01*
X140278515Y-84713526D01*
X140285957Y-84718506D01*
X140287699Y-84727290D01*
X140282719Y-84734732D01*
X140278515Y-84736474D01*
X139838407Y-84824319D01*
X139831772Y-84823708D01*
X139814997Y-84816999D01*
X139795009Y-84810503D01*
X139795010Y-84810503D01*
X139795006Y-84810502D01*
X139795000Y-84810500D01*
X139774999Y-84805499D01*
X139774995Y-84805498D01*
X139774986Y-84805496D01*
X139754994Y-84801998D01*
X139745535Y-84801052D01*
X139737644Y-84796819D01*
X139735000Y-84789410D01*
X139735000Y-84660588D01*
X139738427Y-84652315D01*
X139745536Y-84648946D01*
X139748666Y-84648633D01*
X139754994Y-84648001D01*
X139774986Y-84644503D01*
X139774995Y-84644500D01*
X139774999Y-84644500D01*
X139795000Y-84639499D01*
X139795006Y-84639496D01*
X139795009Y-84639496D01*
X139814997Y-84633000D01*
X139831772Y-84626291D01*
X139838407Y-84625680D01*
X139960250Y-84650000D01*
G37*
%TD.AperFunction*%
%TD*%
%TA.AperFunction,Conductor*%
%TO.N,+3.3V*%
G36*
X114528843Y-85763427D02*
G01*
X114532003Y-85769215D01*
X114534999Y-85782999D01*
X114539999Y-85804499D01*
X114545000Y-85824500D01*
X114550000Y-85843000D01*
X114553051Y-85853374D01*
X114552097Y-85862278D01*
X114550140Y-85864907D01*
X114463314Y-85952602D01*
X114455058Y-85956070D01*
X114446768Y-85952684D01*
X114446686Y-85952602D01*
X114359859Y-85864907D01*
X114356473Y-85856617D01*
X114356948Y-85853374D01*
X114359999Y-85843000D01*
X114364999Y-85824500D01*
X114370000Y-85804499D01*
X114375000Y-85782999D01*
X114377997Y-85769214D01*
X114383103Y-85761858D01*
X114389430Y-85760000D01*
X114520570Y-85760000D01*
X114528843Y-85763427D01*
G37*
%TD.AperFunction*%
%TD*%
%TA.AperFunction,Conductor*%
%TO.N,/PA19*%
G36*
X143082302Y-83543311D02*
G01*
X143082349Y-83543358D01*
X143282224Y-83744570D01*
X143285623Y-83752855D01*
X143282308Y-83760976D01*
X143203808Y-83841647D01*
X143144440Y-83906719D01*
X143094124Y-83963843D01*
X143034755Y-84028916D01*
X142956505Y-84109331D01*
X142948280Y-84112871D01*
X142939961Y-84109557D01*
X142939847Y-84109445D01*
X142848813Y-84018411D01*
X142845386Y-84010138D01*
X142847223Y-84003844D01*
X142900069Y-83921033D01*
X142892274Y-83841761D01*
X142892273Y-83841759D01*
X142892273Y-83841758D01*
X142849132Y-83760739D01*
X142801740Y-83666249D01*
X142800690Y-83663116D01*
X142780729Y-83554379D01*
X142782606Y-83545624D01*
X142790125Y-83540759D01*
X142792208Y-83540567D01*
X143074021Y-83539904D01*
X143082302Y-83543311D01*
G37*
%TD.AperFunction*%
%TD*%
%TA.AperFunction,Conductor*%
%TO.N,+3.3V*%
G36*
X108979529Y-82284002D02*
G01*
X109100086Y-82387707D01*
X109206814Y-82444598D01*
X109312188Y-82474549D01*
X109436649Y-82504453D01*
X109437158Y-82504601D01*
X109589958Y-82557400D01*
X109596657Y-82563339D01*
X109597194Y-82572278D01*
X109596956Y-82572909D01*
X109451163Y-82927195D01*
X109444845Y-82933542D01*
X109444795Y-82933563D01*
X109090509Y-83079356D01*
X109081555Y-83079335D01*
X109075237Y-83072988D01*
X109075006Y-83072378D01*
X109022201Y-82919558D01*
X109022053Y-82919049D01*
X108992149Y-82794588D01*
X108962198Y-82689214D01*
X108905307Y-82582486D01*
X108801602Y-82461929D01*
X108798806Y-82453424D01*
X108802199Y-82446029D01*
X108963629Y-82284599D01*
X108971901Y-82281173D01*
X108979529Y-82284002D01*
G37*
%TD.AperFunction*%
%TD*%
%TA.AperFunction,Conductor*%
%TO.N,+3.3V*%
G36*
X108565135Y-78109544D02*
G01*
X109151433Y-78696818D01*
X109154853Y-78705094D01*
X109151419Y-78713364D01*
X109150483Y-78714204D01*
X108890527Y-78923141D01*
X108889033Y-78924162D01*
X108648597Y-79062538D01*
X108454535Y-79190540D01*
X108454534Y-79190541D01*
X108325213Y-79375719D01*
X108325211Y-79375724D01*
X108279707Y-79676148D01*
X108275080Y-79683815D01*
X108268139Y-79686096D01*
X108039796Y-79686096D01*
X108031523Y-79682669D01*
X108028096Y-79674501D01*
X108025329Y-79366315D01*
X108025329Y-79366313D01*
X108009431Y-79137756D01*
X107969579Y-78943509D01*
X107894845Y-78726656D01*
X107889780Y-78714204D01*
X107778677Y-78441038D01*
X107778735Y-78432083D01*
X107785025Y-78425825D01*
X108552367Y-78107004D01*
X108561321Y-78106996D01*
X108565135Y-78109544D01*
G37*
%TD.AperFunction*%
%TD*%
M02*
