%TF.GenerationSoftware,KiCad,Pcbnew,7.0.8*%
%TF.CreationDate,2023-11-27T23:44:53+01:00*%
%TF.ProjectId,LvL_shifter_shield,4c764c5f-7368-4696-9674-65725f736869,rev?*%
%TF.SameCoordinates,Original*%
%TF.FileFunction,Copper,L4,Bot*%
%TF.FilePolarity,Positive*%
%FSLAX46Y46*%
G04 Gerber Fmt 4.6, Leading zero omitted, Abs format (unit mm)*
G04 Created by KiCad (PCBNEW 7.0.8) date 2023-11-27 23:44:53*
%MOMM*%
%LPD*%
G01*
G04 APERTURE LIST*
G04 Aperture macros list*
%AMRoundRect*
0 Rectangle with rounded corners*
0 $1 Rounding radius*
0 $2 $3 $4 $5 $6 $7 $8 $9 X,Y pos of 4 corners*
0 Add a 4 corners polygon primitive as box body*
4,1,4,$2,$3,$4,$5,$6,$7,$8,$9,$2,$3,0*
0 Add four circle primitives for the rounded corners*
1,1,$1+$1,$2,$3*
1,1,$1+$1,$4,$5*
1,1,$1+$1,$6,$7*
1,1,$1+$1,$8,$9*
0 Add four rect primitives between the rounded corners*
20,1,$1+$1,$2,$3,$4,$5,0*
20,1,$1+$1,$4,$5,$6,$7,0*
20,1,$1+$1,$6,$7,$8,$9,0*
20,1,$1+$1,$8,$9,$2,$3,0*%
G04 Aperture macros list end*
%TA.AperFunction,ComponentPad*%
%ADD10RoundRect,0.250000X0.750000X-0.600000X0.750000X0.600000X-0.750000X0.600000X-0.750000X-0.600000X0*%
%TD*%
%TA.AperFunction,ComponentPad*%
%ADD11O,2.000000X1.700000*%
%TD*%
%TA.AperFunction,ComponentPad*%
%ADD12R,1.700000X1.700000*%
%TD*%
%TA.AperFunction,ComponentPad*%
%ADD13O,1.700000X1.700000*%
%TD*%
%TA.AperFunction,SMDPad,CuDef*%
%ADD14R,0.400000X0.650000*%
%TD*%
%TA.AperFunction,SMDPad,CuDef*%
%ADD15R,0.760000X1.600000*%
%TD*%
%TA.AperFunction,SMDPad,CuDef*%
%ADD16RoundRect,0.250000X0.400000X0.625000X-0.400000X0.625000X-0.400000X-0.625000X0.400000X-0.625000X0*%
%TD*%
%TA.AperFunction,SMDPad,CuDef*%
%ADD17RoundRect,0.250001X-0.849999X0.462499X-0.849999X-0.462499X0.849999X-0.462499X0.849999X0.462499X0*%
%TD*%
%TA.AperFunction,SMDPad,CuDef*%
%ADD18RoundRect,0.250000X0.412500X0.650000X-0.412500X0.650000X-0.412500X-0.650000X0.412500X-0.650000X0*%
%TD*%
%TA.AperFunction,SMDPad,CuDef*%
%ADD19RoundRect,0.250000X-0.412500X-0.650000X0.412500X-0.650000X0.412500X0.650000X-0.412500X0.650000X0*%
%TD*%
%TA.AperFunction,ViaPad*%
%ADD20C,0.800000*%
%TD*%
%TA.AperFunction,ViaPad*%
%ADD21C,0.600000*%
%TD*%
%TA.AperFunction,Conductor*%
%ADD22C,0.250000*%
%TD*%
%TA.AperFunction,Conductor*%
%ADD23C,0.150000*%
%TD*%
G04 APERTURE END LIST*
D10*
%TO.P,J1,1,Pin_1*%
%TO.N,GND*%
X109296200Y-87310600D03*
D11*
%TO.P,J1,2,Pin_2*%
%TO.N,Net-(J1-Pin_2)*%
X109296200Y-84810600D03*
%TD*%
D12*
%TO.P,J2,1,Pin_1*%
%TO.N,/G1*%
X137160000Y-86995000D03*
D13*
%TO.P,J2,2,Pin_2*%
%TO.N,/R1*%
X137160000Y-84455000D03*
%TO.P,J2,3,Pin_3*%
%TO.N,GND*%
X134620000Y-86995000D03*
%TO.P,J2,4,Pin_4*%
%TO.N,/B1*%
X134620000Y-84455000D03*
%TO.P,J2,5,Pin_5*%
%TO.N,/G2*%
X132080000Y-86995000D03*
%TO.P,J2,6,Pin_6*%
%TO.N,/R2*%
X132080000Y-84455000D03*
%TO.P,J2,7,Pin_7*%
%TO.N,/E*%
X129540000Y-86995000D03*
%TO.P,J2,8,Pin_8*%
%TO.N,/B2*%
X129540000Y-84455000D03*
%TO.P,J2,9,Pin_9*%
%TO.N,/B*%
X127000000Y-86995000D03*
%TO.P,J2,10,Pin_10*%
%TO.N,/A*%
X127000000Y-84455000D03*
%TO.P,J2,11,Pin_11*%
%TO.N,/D*%
X124460000Y-86995000D03*
%TO.P,J2,12,Pin_12*%
%TO.N,/C*%
X124460000Y-84455000D03*
%TO.P,J2,13,Pin_13*%
%TO.N,/LAT*%
X121920000Y-86995000D03*
%TO.P,J2,14,Pin_14*%
%TO.N,/CLK*%
X121920000Y-84455000D03*
%TO.P,J2,15,Pin_15*%
%TO.N,GND*%
X119380000Y-86995000D03*
%TO.P,J2,16,Pin_16*%
%TO.N,/OE*%
X119380000Y-84455000D03*
%TD*%
D12*
%TO.P,J4,1,Pin_1*%
%TO.N,/PB22*%
X141605000Y-93345000D03*
D13*
%TO.P,J4,2,Pin_2*%
%TO.N,/PB23*%
X139065000Y-93345000D03*
%TO.P,J4,3,Pin_3*%
%TO.N,/RESET2*%
X136525000Y-93345000D03*
%TO.P,J4,4,Pin_4*%
%TO.N,GND*%
X133985000Y-93345000D03*
%TO.P,J4,5,Pin_5*%
%TO.N,/PB10*%
X131445000Y-93345000D03*
%TO.P,J4,6,Pin_6*%
%TO.N,/PB11*%
X128905000Y-93345000D03*
%TO.P,J4,7,Pin_7*%
%TO.N,/PA07*%
X126365000Y-93345000D03*
%TO.P,J4,8,Pin_8*%
%TO.N,/PA05*%
X123825000Y-93345000D03*
%TO.P,J4,9,Pin_9*%
%TO.N,/PA04*%
X121285000Y-93345000D03*
%TO.P,J4,10,Pin_10*%
%TO.N,/PA06*%
X118745000Y-93345000D03*
%TO.P,J4,11,Pin_11*%
%TO.N,/PA18*%
X116205000Y-93345000D03*
%TO.P,J4,12,Pin_12*%
%TO.N,/PA20*%
X113665000Y-93345000D03*
%TO.P,J4,13,Pin_13*%
%TO.N,/PA21*%
X111125000Y-93345000D03*
%TO.P,J4,14,Pin_14*%
%TO.N,/PA16*%
X108585000Y-93345000D03*
%TO.P,J4,15,Pin_15*%
%TO.N,/PA19*%
X106045000Y-93345000D03*
%TD*%
D14*
%TO.P,U3,1,~{SHDN}*%
%TO.N,+3.3V*%
X105903000Y-81208800D03*
%TO.P,U3,2,GND*%
%TO.N,GND*%
X106553000Y-81208800D03*
%TO.P,U3,3,VIN*%
%TO.N,+3.3V*%
X107203000Y-81208800D03*
%TO.P,U3,4,VOUT*%
%TO.N,Net-(U3-VOUT)*%
X107203000Y-83108800D03*
%TO.P,U3,5,GND*%
%TO.N,GND*%
X106553000Y-83108800D03*
%TO.P,U3,6,SW*%
%TO.N,Net-(U3-SW)*%
X105903000Y-83108800D03*
%TD*%
D15*
%TO.P,SW1,1*%
%TO.N,Net-(J1-Pin_2)*%
X105435400Y-85369400D03*
%TO.P,SW1,2*%
%TO.N,Net-(U3-VOUT)*%
X106705400Y-85369400D03*
%TO.P,SW1,3*%
%TO.N,+5V*%
X106705400Y-90449400D03*
%TO.P,SW1,4*%
X105435400Y-90449400D03*
%TD*%
D16*
%TO.P,R1,1*%
%TO.N,+3.3V*%
X142520000Y-81280000D03*
%TO.P,R1,2*%
%TO.N,GND*%
X139420000Y-81280000D03*
%TD*%
D17*
%TO.P,L1,1,1*%
%TO.N,+3.3V*%
X103682800Y-80930300D03*
%TO.P,L1,2,2*%
%TO.N,Net-(U3-SW)*%
X103682800Y-83255300D03*
%TD*%
D18*
%TO.P,C2,1*%
%TO.N,+5V*%
X113322500Y-90170000D03*
%TO.P,C2,2*%
%TO.N,GND*%
X110197500Y-90170000D03*
%TD*%
D19*
%TO.P,C1,1*%
%TO.N,GND*%
X110197500Y-81280000D03*
%TO.P,C1,2*%
%TO.N,+3.3V*%
X113322500Y-81280000D03*
%TD*%
D12*
%TO.P,J3,1,Pin_1*%
%TO.N,/PA17*%
X106019600Y-78105000D03*
D13*
%TO.P,J3,2,Pin_2*%
%TO.N,+3.3V*%
X108559600Y-78105000D03*
%TO.P,J3,3,Pin_3*%
%TO.N,/PA03*%
X111099600Y-78105000D03*
%TO.P,J3,4,Pin_4*%
%TO.N,/PA02*%
X113639600Y-78105000D03*
%TO.P,J3,5,Pin_5*%
%TO.N,/PB02*%
X116179600Y-78105000D03*
%TO.P,J3,6,Pin_6*%
%TO.N,/PA11*%
X118719600Y-78105000D03*
%TO.P,J3,7,Pin_7*%
%TO.N,/PA10*%
X121259600Y-78105000D03*
%TO.P,J3,8,Pin_8*%
%TO.N,/PB08*%
X123799600Y-78105000D03*
%TO.P,J3,9,Pin_9*%
%TO.N,/PB09*%
X126339600Y-78105000D03*
%TO.P,J3,10,Pin_10*%
%TO.N,/PA09*%
X128879600Y-78105000D03*
%TO.P,J3,11,Pin_11*%
%TO.N,/PB03*%
X131419600Y-78105000D03*
%TO.P,J3,12,Pin_12*%
%TO.N,+5V*%
X133959600Y-78105000D03*
%TO.P,J3,13,Pin_13*%
%TO.N,/RESET*%
X136499600Y-78105000D03*
%TO.P,J3,14,Pin_14*%
%TO.N,GND*%
X139039600Y-78105000D03*
%TO.P,J3,15,Pin_15*%
%TO.N,/VIN*%
X141579600Y-78105000D03*
%TD*%
D20*
%TO.N,+5V*%
X117300798Y-85887100D03*
X140919200Y-81686400D03*
X141198600Y-88798400D03*
%TO.N,GND*%
X129336800Y-81000600D03*
X137936900Y-81280000D03*
X108839000Y-81280000D03*
X115976400Y-81305400D03*
X118541800Y-89789000D03*
X138607800Y-90703400D03*
X133985000Y-90855800D03*
X133477000Y-81026000D03*
%TO.N,+3.3V*%
X109448600Y-82931000D03*
D21*
X144094200Y-82473800D03*
D20*
X144094200Y-85852000D03*
X106502200Y-80213200D03*
X111658400Y-85699600D03*
D21*
%TO.N,/R1*%
X139014200Y-84963000D03*
%TO.N,/G1*%
X138988800Y-86049500D03*
%TO.N,/B1*%
X138988800Y-84201000D03*
%TO.N,/R2*%
X139014200Y-83489800D03*
%TO.N,/G2*%
X139014200Y-86791800D03*
%TO.N,/B2*%
X140462000Y-83176100D03*
%TO.N,/E*%
X138988800Y-88265000D03*
%TO.N,/A*%
X117144800Y-83312000D03*
%TO.N,/B*%
X139928600Y-88468200D03*
%TO.N,/C*%
X118160800Y-83185000D03*
%TO.N,/D*%
X117348000Y-87122000D03*
%TO.N,/CLK*%
X117584700Y-84685500D03*
%TO.N,/PA17*%
X144754600Y-86461600D03*
X112242600Y-80086200D03*
%TO.N,/PA02*%
X113436400Y-83032600D03*
X111601107Y-79578700D03*
%TO.N,/PA11*%
X116281200Y-83176100D03*
X113389665Y-86364065D03*
X118211600Y-81254600D03*
%TO.N,/PA10*%
X119913400Y-80195900D03*
X111963200Y-84886800D03*
%TO.N,/PA09*%
X127609600Y-80238600D03*
X112598200Y-84404200D03*
%TO.N,/PA07*%
X143256000Y-87706200D03*
%TO.N,/PA05*%
X116027200Y-89992200D03*
X113182400Y-83896200D03*
X112445800Y-86461600D03*
%TO.N,/PA04*%
X129870200Y-90830400D03*
X127939800Y-90830400D03*
X142753323Y-88879923D03*
%TO.N,/PA06*%
X119405400Y-90838500D03*
X113021900Y-87096600D03*
X116840000Y-89281000D03*
%TO.N,/PA18*%
X143560800Y-84302600D03*
X122097800Y-90297000D03*
%TO.N,/PA20*%
X143408400Y-86995000D03*
%TO.N,/PA21*%
X114833400Y-91033600D03*
X142138400Y-83261200D03*
%TO.N,/PA16*%
X143390377Y-85021177D03*
X115468400Y-90678000D03*
%TO.N,/PA19*%
X143078200Y-83540600D03*
X143510000Y-88493600D03*
%TD*%
D22*
%TO.N,+5V*%
X113322500Y-90170000D02*
X113322500Y-89865398D01*
X106705400Y-90449400D02*
X108000800Y-91744800D01*
X113322500Y-90170000D02*
X113322500Y-91070000D01*
X139750800Y-91744800D02*
X141198600Y-90297000D01*
X140919200Y-81686400D02*
X140919200Y-80975200D01*
X113997300Y-91744800D02*
X114071400Y-91744800D01*
X140919200Y-80975200D02*
X139757317Y-79813317D01*
X133959600Y-78105000D02*
X135667917Y-79813317D01*
X106705400Y-90449400D02*
X105435400Y-90449400D01*
X113322500Y-91070000D02*
X113997300Y-91744800D01*
X135667917Y-79813317D02*
X137007600Y-79813317D01*
X114071400Y-91744800D02*
X139750800Y-91744800D01*
X141198600Y-90297000D02*
X141198600Y-88798400D01*
X108000800Y-91744800D02*
X114071400Y-91744800D01*
X113322500Y-89865398D02*
X117300798Y-85887100D01*
X139757317Y-79813317D02*
X137007600Y-79813317D01*
%TO.N,GND*%
X108051600Y-82067400D02*
X108839000Y-81280000D01*
X106553000Y-82067400D02*
X106553000Y-83108800D01*
X139420000Y-81280000D02*
X137936900Y-81280000D01*
X109644300Y-88206700D02*
X109644300Y-87305200D01*
X139420000Y-78485400D02*
X139039600Y-78105000D01*
X106553000Y-81208800D02*
X106553000Y-82067400D01*
X108839000Y-81280000D02*
X110197500Y-81280000D01*
X110032800Y-88595200D02*
X109644300Y-88206700D01*
X110032800Y-88595200D02*
X110032800Y-90005300D01*
X110032800Y-90005300D02*
X110197500Y-90170000D01*
X106553000Y-82067400D02*
X108051600Y-82067400D01*
%TO.N,+3.3V*%
X105903000Y-80812400D02*
X106502200Y-80213200D01*
D23*
X144094200Y-82473800D02*
X144094200Y-82067400D01*
D22*
X115163600Y-82651600D02*
X134493000Y-82651600D01*
X103682800Y-80930300D02*
X105785100Y-80930300D01*
X143154400Y-82651600D02*
X144094200Y-83591400D01*
X111429800Y-83172700D02*
X111417500Y-83172700D01*
X113322500Y-81280000D02*
X113792000Y-81280000D01*
X111175800Y-82931000D02*
X109448600Y-82931000D01*
X103682800Y-80930300D02*
X105624500Y-80930300D01*
X105624500Y-80930300D02*
X105903000Y-81208800D01*
X144094200Y-83591400D02*
X144094200Y-85852000D01*
X105785100Y-80930300D02*
X106502200Y-80213200D01*
X113792000Y-81280000D02*
X115163600Y-82651600D01*
D23*
X143306800Y-81280000D02*
X142520000Y-81280000D01*
D22*
X111658400Y-85699600D02*
X111429800Y-85471000D01*
X107203000Y-80914000D02*
X106502200Y-80213200D01*
X111429800Y-83172700D02*
X113322500Y-81280000D01*
X111429800Y-85471000D02*
X111429800Y-83172700D01*
X134493000Y-82651600D02*
X143154400Y-82651600D01*
X105903000Y-81208800D02*
X105903000Y-80812400D01*
X107203000Y-81208800D02*
X107203000Y-80914000D01*
X111417500Y-83172700D02*
X111175800Y-82931000D01*
D23*
X144094200Y-82067400D02*
X143306800Y-81280000D01*
%TO.N,/PA17*%
X112242600Y-80086200D02*
X112209600Y-80053200D01*
X107967800Y-80053200D02*
X106019600Y-78105000D01*
X112209600Y-80053200D02*
X107967800Y-80053200D01*
%TO.N,/PA02*%
X111601107Y-79559293D02*
X113055400Y-78105000D01*
X113055400Y-78105000D02*
X113639600Y-78105000D01*
X111601107Y-79578700D02*
X111601107Y-79559293D01*
%TO.N,/PA11*%
X118211600Y-81254600D02*
X118211600Y-78613000D01*
X116281200Y-83472529D02*
X116281200Y-83176100D01*
X113389665Y-86364065D02*
X116281200Y-83472529D01*
X118211600Y-78613000D02*
X118719600Y-78105000D01*
%TO.N,/PA10*%
X119913400Y-80195900D02*
X121259600Y-78849700D01*
X121259600Y-78849700D02*
X121259600Y-78105000D01*
%TO.N,/PA09*%
X127609600Y-79375000D02*
X128879600Y-78105000D01*
X127609600Y-80238600D02*
X127609600Y-79375000D01*
%TO.N,/PA05*%
X112445800Y-85318600D02*
X113182400Y-84582000D01*
X112445800Y-86461600D02*
X112445800Y-85318600D01*
X113182400Y-84582000D02*
X113182400Y-83896200D01*
%TO.N,/PA04*%
X129870200Y-90830400D02*
X127939800Y-90830400D01*
%TO.N,/PA06*%
X118397500Y-90838500D02*
X116840000Y-89281000D01*
X119405400Y-90838500D02*
X118397500Y-90838500D01*
%TO.N,/PA18*%
X140690600Y-84302600D02*
X143560800Y-84302600D01*
X135890000Y-85928200D02*
X136093200Y-85725000D01*
X122910600Y-89484200D02*
X135128000Y-89484200D01*
X136093200Y-85725000D02*
X138099800Y-85725000D01*
X135890000Y-88722200D02*
X135890000Y-85928200D01*
X122097800Y-90297000D02*
X122910600Y-89484200D01*
X135128000Y-89484200D02*
X135890000Y-88722200D01*
X138099800Y-85725000D02*
X138379200Y-85445600D01*
X138379200Y-85445600D02*
X139547600Y-85445600D01*
X139547600Y-85445600D02*
X140690600Y-84302600D01*
%TO.N,/PA21*%
X118059200Y-87082552D02*
X117544752Y-87597000D01*
X118059200Y-84023200D02*
X118059200Y-87082552D01*
X140039100Y-83651100D02*
X139395200Y-83007200D01*
X119075200Y-83007200D02*
X118059200Y-84023200D01*
X141748500Y-83651100D02*
X140039100Y-83651100D01*
X114833400Y-90373200D02*
X114833400Y-91033600D01*
X139395200Y-83007200D02*
X119075200Y-83007200D01*
X142138400Y-83261200D02*
X141748500Y-83651100D01*
X117544752Y-87661848D02*
X114833400Y-90373200D01*
X117544752Y-87597000D02*
X117544752Y-87661848D01*
%TO.N,/PA16*%
X116103400Y-91313000D02*
X126607648Y-91313000D01*
X115468400Y-90678000D02*
X116103400Y-91313000D01*
X127826848Y-90093800D02*
X136474200Y-90093800D01*
X140993500Y-85574500D02*
X142837054Y-85574500D01*
X126607648Y-91313000D02*
X127826848Y-90093800D01*
X142837054Y-85574500D02*
X143390377Y-85021177D01*
X136474200Y-90093800D02*
X140993500Y-85574500D01*
%TO.N,/PA19*%
X143510000Y-90170000D02*
X141503400Y-92176600D01*
X143510000Y-88493600D02*
X143510000Y-90170000D01*
X141503400Y-92176600D02*
X107213400Y-92176600D01*
X107213400Y-92176600D02*
X106045000Y-93345000D01*
D22*
%TO.N,Net-(J1-Pin_2)*%
X107304200Y-87122000D02*
X109626400Y-84799800D01*
X105435400Y-85369400D02*
X105435400Y-86741000D01*
X105435400Y-86741000D02*
X105816400Y-87122000D01*
X105816400Y-87122000D02*
X107304200Y-87122000D01*
%TO.N,Net-(U3-VOUT)*%
X107203000Y-84871800D02*
X107203000Y-83108800D01*
X106705400Y-85369400D02*
X107203000Y-84871800D01*
%TO.N,Net-(U3-SW)*%
X105756500Y-83255300D02*
X105903000Y-83108800D01*
X103682800Y-83255300D02*
X105756500Y-83255300D01*
%TD*%
%TA.AperFunction,Conductor*%
%TO.N,+3.3V*%
G36*
X143175299Y-80813882D02*
G01*
X143176261Y-80815440D01*
X143280541Y-81018257D01*
X143391082Y-81204414D01*
X143391087Y-81204421D01*
X143501632Y-81361740D01*
X143501634Y-81361742D01*
X143501638Y-81361748D01*
X143612179Y-81490221D01*
X143713566Y-81581603D01*
X143717417Y-81589688D01*
X143714424Y-81598127D01*
X143714006Y-81598567D01*
X143618471Y-81694102D01*
X143614245Y-81696807D01*
X143512679Y-81734245D01*
X143512670Y-81734250D01*
X143408702Y-81791995D01*
X143304735Y-81869159D01*
X143304723Y-81869169D01*
X143200756Y-81965755D01*
X143106487Y-82070941D01*
X143098413Y-82074815D01*
X143089965Y-82071845D01*
X143088279Y-82069969D01*
X142526072Y-81288714D01*
X142524022Y-81279998D01*
X142528660Y-81272439D01*
X143158950Y-80811346D01*
X143167648Y-80809228D01*
X143175299Y-80813882D01*
G37*
%TD.AperFunction*%
%TD*%
%TA.AperFunction,Conductor*%
%TO.N,GND*%
G36*
X109305052Y-87316735D02*
G01*
X109305964Y-87317321D01*
X110269290Y-88000681D01*
X110274055Y-88008263D01*
X110273173Y-88015064D01*
X110255661Y-88053601D01*
X110245973Y-88074921D01*
X110245970Y-88074929D01*
X110245969Y-88074929D01*
X110214778Y-88159294D01*
X110214778Y-88159295D01*
X110214776Y-88159301D01*
X110205242Y-88189897D01*
X110183580Y-88259409D01*
X110152383Y-88375245D01*
X110121952Y-88503581D01*
X110118841Y-88509155D01*
X109951762Y-88676234D01*
X109943489Y-88679661D01*
X109936245Y-88677149D01*
X109887629Y-88638818D01*
X109716242Y-88503689D01*
X109488074Y-88361442D01*
X109320640Y-88284686D01*
X109259902Y-88256842D01*
X109031739Y-88189897D01*
X108821012Y-88162839D01*
X108813243Y-88158386D01*
X108810897Y-88149744D01*
X108812371Y-88145379D01*
X109289066Y-87321006D01*
X109296174Y-87315561D01*
X109305052Y-87316735D01*
G37*
%TD.AperFunction*%
%TD*%
%TA.AperFunction,Conductor*%
%TO.N,+5V*%
G36*
X113330405Y-90178826D02*
G01*
X113333933Y-90181204D01*
X113980266Y-90815355D01*
X113983771Y-90823595D01*
X113983446Y-90826447D01*
X113963869Y-90907681D01*
X113942738Y-91014529D01*
X113921607Y-91140543D01*
X113900476Y-91285723D01*
X113879854Y-91446110D01*
X113876523Y-91452891D01*
X113711208Y-91618206D01*
X113702935Y-91621633D01*
X113694662Y-91618206D01*
X113694332Y-91617862D01*
X113603641Y-91518945D01*
X113548085Y-91458349D01*
X113548081Y-91458345D01*
X113548078Y-91458342D01*
X113393588Y-91318406D01*
X113239098Y-91207037D01*
X113239097Y-91207036D01*
X113239095Y-91207035D01*
X113084614Y-91124237D01*
X113084610Y-91124235D01*
X113006911Y-91096959D01*
X112941987Y-91074167D01*
X112935318Y-91068194D01*
X112934824Y-91059253D01*
X112935135Y-91058462D01*
X113315011Y-90184887D01*
X113321451Y-90178669D01*
X113330405Y-90178826D01*
G37*
%TD.AperFunction*%
%TD*%
%TA.AperFunction,Conductor*%
%TO.N,GND*%
G36*
X138100504Y-80915591D02*
G01*
X138101097Y-80915858D01*
X138241260Y-80984032D01*
X138246481Y-80986572D01*
X138246978Y-80986844D01*
X138356115Y-81053697D01*
X138451805Y-81107029D01*
X138451810Y-81107031D01*
X138567496Y-81142269D01*
X138567499Y-81142269D01*
X138567501Y-81142270D01*
X138726078Y-81154186D01*
X138734070Y-81158223D01*
X138736900Y-81165853D01*
X138736900Y-81394146D01*
X138733473Y-81402419D01*
X138726077Y-81405813D01*
X138567502Y-81417728D01*
X138567496Y-81417729D01*
X138451810Y-81452967D01*
X138451805Y-81452969D01*
X138356115Y-81506301D01*
X138246978Y-81573153D01*
X138246481Y-81573425D01*
X138101120Y-81644130D01*
X138092181Y-81644667D01*
X138085481Y-81638727D01*
X138085203Y-81638111D01*
X138008014Y-81452970D01*
X137937775Y-81284499D01*
X137937755Y-81275550D01*
X138085203Y-80921887D01*
X138091550Y-80915570D01*
X138100504Y-80915591D01*
G37*
%TD.AperFunction*%
%TD*%
%TA.AperFunction,Conductor*%
%TO.N,+3.3V*%
G36*
X105913993Y-80642407D02*
G01*
X105917098Y-80644631D01*
X106079873Y-80807406D01*
X106083043Y-80813239D01*
X106086457Y-80829249D01*
X106090593Y-80846342D01*
X106094725Y-80861124D01*
X106094725Y-80861123D01*
X106098865Y-80873621D01*
X106100768Y-80878307D01*
X106100706Y-80887261D01*
X106099889Y-80888847D01*
X105914022Y-81190473D01*
X105906764Y-81195718D01*
X105897923Y-81194296D01*
X105893340Y-81189020D01*
X105891640Y-81185131D01*
X105762599Y-80889850D01*
X105762427Y-80880899D01*
X105763768Y-80878412D01*
X105789073Y-80842655D01*
X105818191Y-80797011D01*
X105847309Y-80746866D01*
X105876427Y-80692222D01*
X105898328Y-80647735D01*
X105905057Y-80641827D01*
X105913993Y-80642407D01*
G37*
%TD.AperFunction*%
%TD*%
%TA.AperFunction,Conductor*%
%TO.N,/PA02*%
G36*
X113519864Y-78054557D02*
G01*
X113633066Y-78101303D01*
X113639405Y-78107628D01*
X113640300Y-78112127D01*
X113639610Y-78941797D01*
X113636176Y-78950067D01*
X113627900Y-78953487D01*
X113626493Y-78953401D01*
X113285796Y-78911844D01*
X113283754Y-78911407D01*
X113008411Y-78826187D01*
X112774095Y-78764874D01*
X112545343Y-78794247D01*
X112545340Y-78794248D01*
X112293763Y-78974975D01*
X112285045Y-78977019D01*
X112278664Y-78973746D01*
X112187712Y-78882794D01*
X112184285Y-78874521D01*
X112187524Y-78866441D01*
X112400780Y-78643251D01*
X112542676Y-78463939D01*
X112641463Y-78290856D01*
X112733288Y-78078088D01*
X112849877Y-77790627D01*
X112856161Y-77784250D01*
X112865115Y-77784184D01*
X113519864Y-78054557D01*
G37*
%TD.AperFunction*%
%TD*%
%TA.AperFunction,Conductor*%
%TO.N,/PA17*%
G36*
X112132298Y-79819850D02*
G01*
X112132527Y-79820363D01*
X112241715Y-80081689D01*
X112241742Y-80090644D01*
X112241715Y-80090711D01*
X112132761Y-80351477D01*
X112126409Y-80357789D01*
X112117454Y-80357762D01*
X112116439Y-80357279D01*
X112009953Y-80300224D01*
X112008187Y-80299061D01*
X111929688Y-80236504D01*
X111861883Y-80181590D01*
X111777682Y-80142861D01*
X111753313Y-80140081D01*
X111659538Y-80129383D01*
X111651706Y-80125040D01*
X111649164Y-80117758D01*
X111649164Y-79989149D01*
X111652591Y-79980876D01*
X111660088Y-79977475D01*
X111773897Y-79969931D01*
X111859756Y-79946628D01*
X111931112Y-79910543D01*
X112012139Y-79864040D01*
X112012528Y-79863836D01*
X112116708Y-79814306D01*
X112125651Y-79813850D01*
X112132298Y-79819850D01*
G37*
%TD.AperFunction*%
%TD*%
%TA.AperFunction,Conductor*%
%TO.N,GND*%
G36*
X109545752Y-80625851D02*
G01*
X109546522Y-80626557D01*
X110190254Y-81271736D01*
X110193672Y-81280013D01*
X110190254Y-81288264D01*
X109546522Y-81933442D01*
X109538253Y-81936878D01*
X109529976Y-81933460D01*
X109529270Y-81932690D01*
X109404489Y-81783698D01*
X109271496Y-81650550D01*
X109271484Y-81650539D01*
X109138495Y-81543046D01*
X109138488Y-81543041D01*
X109005507Y-81461202D01*
X109005491Y-81461194D01*
X108879646Y-81408019D01*
X108873359Y-81401643D01*
X108872500Y-81397242D01*
X108872500Y-81162757D01*
X108875927Y-81154484D01*
X108879644Y-81151981D01*
X109005497Y-81098802D01*
X109138494Y-81016954D01*
X109271491Y-80909454D01*
X109404488Y-80776302D01*
X109529271Y-80627308D01*
X109537209Y-80623166D01*
X109545752Y-80625851D01*
G37*
%TD.AperFunction*%
%TD*%
%TA.AperFunction,Conductor*%
%TO.N,/PA11*%
G36*
X118284166Y-80658027D02*
G01*
X118287547Y-80665265D01*
X118297969Y-80782668D01*
X118297970Y-80782674D01*
X118328795Y-80868992D01*
X118328795Y-80868993D01*
X118374153Y-80939803D01*
X118428912Y-81021021D01*
X118429287Y-81021661D01*
X118483116Y-81128578D01*
X118483776Y-81137508D01*
X118477927Y-81144289D01*
X118477177Y-81144635D01*
X118216111Y-81253715D01*
X118207156Y-81253742D01*
X118207089Y-81253715D01*
X117946021Y-81144635D01*
X117939709Y-81138283D01*
X117939736Y-81129328D01*
X117940067Y-81128610D01*
X117993920Y-81021644D01*
X117994281Y-81021028D01*
X118049045Y-80939803D01*
X118094403Y-80868994D01*
X118125230Y-80782670D01*
X118135653Y-80665264D01*
X118139798Y-80657328D01*
X118147307Y-80654600D01*
X118275893Y-80654600D01*
X118284166Y-80658027D01*
G37*
%TD.AperFunction*%
%TD*%
%TA.AperFunction,Conductor*%
%TO.N,GND*%
G36*
X106559118Y-81220200D02*
G01*
X106562971Y-81224053D01*
X106678481Y-81412334D01*
X106749653Y-81528345D01*
X106751058Y-81537189D01*
X106750212Y-81539559D01*
X106738005Y-81564788D01*
X106723000Y-81600300D01*
X106708000Y-81640299D01*
X106692999Y-81684799D01*
X106680533Y-81725525D01*
X106674834Y-81732432D01*
X106669345Y-81733800D01*
X106436655Y-81733800D01*
X106428382Y-81730373D01*
X106425467Y-81725525D01*
X106413001Y-81684799D01*
X106398000Y-81640299D01*
X106383000Y-81600300D01*
X106367995Y-81564788D01*
X106355787Y-81539559D01*
X106355268Y-81530619D01*
X106356343Y-81528349D01*
X106543028Y-81224054D01*
X106550274Y-81218795D01*
X106559118Y-81220200D01*
G37*
%TD.AperFunction*%
%TD*%
%TA.AperFunction,Conductor*%
%TO.N,GND*%
G36*
X108480899Y-81131639D02*
G01*
X108835195Y-81277436D01*
X108841542Y-81283754D01*
X108841563Y-81283804D01*
X108987356Y-81638090D01*
X108987335Y-81647044D01*
X108980988Y-81653362D01*
X108980357Y-81653600D01*
X108827576Y-81706390D01*
X108827032Y-81706549D01*
X108702588Y-81736449D01*
X108597215Y-81766400D01*
X108490487Y-81823290D01*
X108369931Y-81926996D01*
X108361424Y-81929793D01*
X108354028Y-81926399D01*
X108192600Y-81764971D01*
X108189173Y-81756698D01*
X108192001Y-81749071D01*
X108295707Y-81628512D01*
X108352598Y-81521784D01*
X108382549Y-81416410D01*
X108412454Y-81291942D01*
X108412599Y-81291445D01*
X108465400Y-81138640D01*
X108471339Y-81131942D01*
X108480278Y-81131405D01*
X108480899Y-81131639D01*
G37*
%TD.AperFunction*%
%TD*%
%TA.AperFunction,Conductor*%
%TO.N,/PA10*%
G36*
X121263722Y-78107717D02*
G01*
X121263739Y-78107734D01*
X121851799Y-78697178D01*
X121855216Y-78705455D01*
X121851779Y-78713724D01*
X121851201Y-78714263D01*
X121577825Y-78952411D01*
X121576305Y-78953533D01*
X121348025Y-79095072D01*
X121347591Y-79095317D01*
X121136599Y-79202433D01*
X121136599Y-79202432D01*
X120907289Y-79344611D01*
X120907282Y-79344616D01*
X120631998Y-79584429D01*
X120623509Y-79587279D01*
X120616040Y-79583880D01*
X120524479Y-79492319D01*
X120521052Y-79484046D01*
X120523015Y-79477560D01*
X120694456Y-79220427D01*
X120691148Y-78987491D01*
X120588651Y-78749056D01*
X120468410Y-78468774D01*
X120467613Y-78466027D01*
X120411776Y-78118543D01*
X120413847Y-78109832D01*
X120421472Y-78105136D01*
X120423310Y-78104988D01*
X121255446Y-78104297D01*
X121263722Y-78107717D01*
G37*
%TD.AperFunction*%
%TD*%
%TA.AperFunction,Conductor*%
%TO.N,/PA11*%
G36*
X113768464Y-85894337D02*
G01*
X113843409Y-85969281D01*
X113859390Y-85985262D01*
X113862817Y-85993535D01*
X113860089Y-86001044D01*
X113784444Y-86091428D01*
X113784442Y-86091431D01*
X113784441Y-86091433D01*
X113769255Y-86123488D01*
X113745197Y-86174271D01*
X113727202Y-86256412D01*
X113708492Y-86352560D01*
X113708304Y-86353278D01*
X113670766Y-86466946D01*
X113664917Y-86473727D01*
X113655987Y-86474387D01*
X113655212Y-86474100D01*
X113393480Y-86366628D01*
X113387128Y-86360316D01*
X113387101Y-86360249D01*
X113310735Y-86174271D01*
X113279629Y-86098515D01*
X113279656Y-86089562D01*
X113286008Y-86083250D01*
X113286776Y-86082965D01*
X113400457Y-86045420D01*
X113401158Y-86045237D01*
X113497315Y-86026526D01*
X113579457Y-86008530D01*
X113579460Y-86008528D01*
X113579462Y-86008528D01*
X113611110Y-85993535D01*
X113662295Y-85969287D01*
X113752685Y-85893638D01*
X113761228Y-85890957D01*
X113768464Y-85894337D01*
G37*
%TD.AperFunction*%
%TD*%
%TA.AperFunction,Conductor*%
%TO.N,+3.3V*%
G36*
X104635563Y-80244026D02*
G01*
X104801835Y-80412720D01*
X104975201Y-80557512D01*
X105148567Y-80671206D01*
X105321933Y-80753802D01*
X105486931Y-80802814D01*
X105493885Y-80808455D01*
X105495299Y-80814030D01*
X105495299Y-81046569D01*
X105491872Y-81054842D01*
X105486931Y-81057785D01*
X105321933Y-81106798D01*
X105148565Y-81189394D01*
X104975206Y-81303084D01*
X104801830Y-81447884D01*
X104635564Y-81616572D01*
X104627316Y-81620059D01*
X104620317Y-81617798D01*
X103694684Y-80939738D01*
X103690036Y-80932085D01*
X103692160Y-80923386D01*
X103694685Y-80920861D01*
X104620319Y-80242800D01*
X104629016Y-80240677D01*
X104635563Y-80244026D01*
G37*
%TD.AperFunction*%
%TD*%
%TA.AperFunction,Conductor*%
%TO.N,+3.3V*%
G36*
X113989648Y-80910594D02*
G01*
X113990216Y-80911725D01*
X114096369Y-81154933D01*
X114096374Y-81154943D01*
X114207737Y-81377840D01*
X114319106Y-81568499D01*
X114430479Y-81726914D01*
X114474893Y-81777226D01*
X114534570Y-81844827D01*
X114537476Y-81853296D01*
X114534072Y-81860842D01*
X114368807Y-82026107D01*
X114360534Y-82029534D01*
X114359792Y-82029510D01*
X114258193Y-82023054D01*
X114258187Y-82023054D01*
X114158945Y-82032078D01*
X114151309Y-82032773D01*
X114116558Y-82041299D01*
X114044432Y-82058997D01*
X113937547Y-82101731D01*
X113937537Y-82101736D01*
X113840728Y-82155395D01*
X113831831Y-82156409D01*
X113824923Y-82151011D01*
X113752832Y-82026107D01*
X113327662Y-81289463D01*
X113326495Y-81280585D01*
X113331946Y-81273482D01*
X113973683Y-80906249D01*
X113982565Y-80905115D01*
X113989648Y-80910594D01*
G37*
%TD.AperFunction*%
%TD*%
%TA.AperFunction,Conductor*%
%TO.N,/PA16*%
G36*
X143124811Y-84911134D02*
G01*
X143326053Y-84993767D01*
X143386561Y-85018613D01*
X143392913Y-85024925D01*
X143392940Y-85024992D01*
X143500412Y-85286724D01*
X143500385Y-85295679D01*
X143494033Y-85301991D01*
X143493258Y-85302278D01*
X143379590Y-85339816D01*
X143378872Y-85340004D01*
X143282724Y-85358714D01*
X143200583Y-85376709D01*
X143151464Y-85399979D01*
X143117745Y-85415953D01*
X143117743Y-85415954D01*
X143117740Y-85415956D01*
X143027356Y-85491601D01*
X143018812Y-85494283D01*
X143011574Y-85490902D01*
X142920651Y-85399979D01*
X142917224Y-85391706D01*
X142919952Y-85384197D01*
X142995597Y-85293812D01*
X142995598Y-85293810D01*
X142995597Y-85293810D01*
X142995600Y-85293808D01*
X143034842Y-85210970D01*
X143052838Y-85128828D01*
X143071549Y-85032670D01*
X143071732Y-85031969D01*
X143109275Y-84918294D01*
X143115124Y-84911514D01*
X143124054Y-84910854D01*
X143124811Y-84911134D01*
G37*
%TD.AperFunction*%
%TD*%
%TA.AperFunction,Conductor*%
%TO.N,/PA09*%
G36*
X127682166Y-79642027D02*
G01*
X127685547Y-79649265D01*
X127695969Y-79766668D01*
X127695970Y-79766674D01*
X127726795Y-79852992D01*
X127726795Y-79852993D01*
X127772153Y-79923803D01*
X127826912Y-80005021D01*
X127827287Y-80005661D01*
X127881116Y-80112578D01*
X127881776Y-80121508D01*
X127875927Y-80128289D01*
X127875177Y-80128635D01*
X127614111Y-80237715D01*
X127605156Y-80237742D01*
X127605089Y-80237715D01*
X127344021Y-80128635D01*
X127337709Y-80122283D01*
X127337736Y-80113328D01*
X127338067Y-80112610D01*
X127391920Y-80005644D01*
X127392281Y-80005028D01*
X127447045Y-79923803D01*
X127492403Y-79852994D01*
X127523230Y-79766670D01*
X127533653Y-79649264D01*
X127537798Y-79641328D01*
X127545307Y-79638600D01*
X127673893Y-79638600D01*
X127682166Y-79642027D01*
G37*
%TD.AperFunction*%
%TD*%
%TA.AperFunction,Conductor*%
%TO.N,+3.3V*%
G36*
X144018151Y-81886204D02*
G01*
X144018572Y-81886649D01*
X144090255Y-81966533D01*
X144090716Y-81967118D01*
X144139105Y-82037235D01*
X144139312Y-82037557D01*
X144151354Y-82057822D01*
X144177444Y-82101729D01*
X144177448Y-82101735D01*
X144177450Y-82101738D01*
X144226164Y-82172327D01*
X144226169Y-82172333D01*
X144226171Y-82172335D01*
X144298953Y-82253445D01*
X144301928Y-82261891D01*
X144298546Y-82269505D01*
X144100443Y-82468933D01*
X144092181Y-82472387D01*
X144087652Y-82471491D01*
X143828946Y-82363946D01*
X143822622Y-82357606D01*
X143822633Y-82348651D01*
X143823121Y-82347622D01*
X143867373Y-82264914D01*
X143867679Y-82264408D01*
X143918853Y-82189160D01*
X143953678Y-82123290D01*
X143954610Y-82057823D01*
X143909692Y-81991537D01*
X143907889Y-81982768D01*
X143911104Y-81976705D01*
X144001606Y-81886203D01*
X144009878Y-81882777D01*
X144018151Y-81886204D01*
G37*
%TD.AperFunction*%
%TD*%
%TA.AperFunction,Conductor*%
%TO.N,/PA11*%
G36*
X118723015Y-78107421D02*
G01*
X119099589Y-78484621D01*
X119311008Y-78696392D01*
X119314428Y-78704668D01*
X119310994Y-78712938D01*
X119309641Y-78714097D01*
X119027013Y-78921104D01*
X119024621Y-78922456D01*
X118746055Y-79039168D01*
X118510181Y-79139689D01*
X118510179Y-79139691D01*
X118347338Y-79305400D01*
X118288439Y-79608739D01*
X118283499Y-79616207D01*
X118276954Y-79618209D01*
X118147474Y-79618209D01*
X118139201Y-79614782D01*
X118135805Y-79607365D01*
X118130019Y-79528480D01*
X118108832Y-79239567D01*
X118042616Y-78974925D01*
X117963664Y-78748513D01*
X117963522Y-78748036D01*
X117897612Y-78484618D01*
X117897294Y-78482637D01*
X117870519Y-78117539D01*
X117873332Y-78109039D01*
X117881332Y-78105016D01*
X117882168Y-78104985D01*
X118714741Y-78104005D01*
X118723015Y-78107421D01*
G37*
%TD.AperFunction*%
%TD*%
%TA.AperFunction,Conductor*%
%TO.N,Net-(U3-SW)*%
G36*
X104635563Y-82569026D02*
G01*
X104801835Y-82737720D01*
X104975201Y-82882512D01*
X105148567Y-82996206D01*
X105321933Y-83078802D01*
X105486931Y-83127814D01*
X105493885Y-83133455D01*
X105495299Y-83139030D01*
X105495299Y-83371569D01*
X105491872Y-83379842D01*
X105486931Y-83382785D01*
X105321933Y-83431798D01*
X105148565Y-83514394D01*
X104975206Y-83628084D01*
X104801830Y-83772884D01*
X104635564Y-83941572D01*
X104627316Y-83945059D01*
X104620317Y-83942798D01*
X103694684Y-83264738D01*
X103690036Y-83257085D01*
X103692160Y-83248386D01*
X103694685Y-83245861D01*
X104620319Y-82567800D01*
X104629016Y-82565677D01*
X104635563Y-82569026D01*
G37*
%TD.AperFunction*%
%TD*%
%TA.AperFunction,Conductor*%
%TO.N,GND*%
G36*
X106677618Y-82587227D02*
G01*
X106680532Y-82592075D01*
X106693000Y-82632800D01*
X106708000Y-82677300D01*
X106723000Y-82717299D01*
X106738005Y-82752811D01*
X106750212Y-82778040D01*
X106750730Y-82786980D01*
X106749653Y-82789254D01*
X106562973Y-83093544D01*
X106555726Y-83098804D01*
X106546882Y-83097399D01*
X106543027Y-83093544D01*
X106356346Y-82789254D01*
X106354941Y-82780410D01*
X106355787Y-82778040D01*
X106367995Y-82752811D01*
X106383000Y-82717299D01*
X106398000Y-82677300D01*
X106413000Y-82632800D01*
X106425468Y-82592075D01*
X106431166Y-82585167D01*
X106436655Y-82583800D01*
X106669345Y-82583800D01*
X106677618Y-82587227D01*
G37*
%TD.AperFunction*%
%TD*%
%TA.AperFunction,Conductor*%
%TO.N,Net-(J1-Pin_2)*%
G36*
X109298506Y-84813318D02*
G01*
X109300307Y-84815637D01*
X109754589Y-85582988D01*
X109755855Y-85591853D01*
X109750481Y-85599016D01*
X109746546Y-85600471D01*
X109473787Y-85648409D01*
X109290695Y-85708108D01*
X109184360Y-85742779D01*
X109184357Y-85742780D01*
X109184355Y-85742781D01*
X108894938Y-85880647D01*
X108605516Y-86062013D01*
X108605512Y-86062016D01*
X108324244Y-86280550D01*
X108315609Y-86282920D01*
X108308793Y-86279584D01*
X108143606Y-86114397D01*
X108140179Y-86106124D01*
X108140350Y-86104130D01*
X108170692Y-85928741D01*
X108202069Y-85708108D01*
X108233446Y-85448207D01*
X108264823Y-85149037D01*
X108295216Y-84821212D01*
X108299392Y-84813290D01*
X108306856Y-84810592D01*
X109290232Y-84809897D01*
X109298506Y-84813318D01*
G37*
%TD.AperFunction*%
%TD*%
%TA.AperFunction,Conductor*%
%TO.N,/PA16*%
G36*
X115742902Y-90567991D02*
G01*
X115749214Y-90574343D01*
X115749501Y-90575118D01*
X115787039Y-90688784D01*
X115787227Y-90689502D01*
X115805937Y-90785651D01*
X115823932Y-90867792D01*
X115836593Y-90894517D01*
X115863176Y-90950631D01*
X115863178Y-90950634D01*
X115863179Y-90950635D01*
X115938824Y-91041020D01*
X115941506Y-91049564D01*
X115938125Y-91056802D01*
X115847202Y-91147725D01*
X115838929Y-91151152D01*
X115831420Y-91148424D01*
X115741035Y-91072779D01*
X115741034Y-91072778D01*
X115741031Y-91072776D01*
X115684917Y-91046193D01*
X115658192Y-91033532D01*
X115576051Y-91015537D01*
X115479902Y-90996827D01*
X115479184Y-90996639D01*
X115365518Y-90959101D01*
X115358737Y-90953252D01*
X115358077Y-90944322D01*
X115358353Y-90943574D01*
X115465836Y-90681814D01*
X115472146Y-90675464D01*
X115733949Y-90567964D01*
X115742902Y-90567991D01*
G37*
%TD.AperFunction*%
%TD*%
%TA.AperFunction,Conductor*%
%TO.N,+3.3V*%
G36*
X107126056Y-80664247D02*
G01*
X107127620Y-80666186D01*
X107155158Y-80708952D01*
X107190550Y-80759414D01*
X107225949Y-80805385D01*
X107225949Y-80805384D01*
X107261334Y-80846838D01*
X107292083Y-80878951D01*
X107295329Y-80887297D01*
X107294882Y-80890256D01*
X107205734Y-81202407D01*
X107200167Y-81209421D01*
X107196427Y-81210732D01*
X107014966Y-81241289D01*
X107006239Y-81239283D01*
X107001485Y-81231694D01*
X107001422Y-81231273D01*
X106990998Y-81151797D01*
X106978996Y-81064789D01*
X106966994Y-80982282D01*
X106954992Y-80904274D01*
X106943957Y-80836684D01*
X106946006Y-80827967D01*
X106947225Y-80826532D01*
X107109511Y-80664246D01*
X107117783Y-80660820D01*
X107126056Y-80664247D01*
G37*
%TD.AperFunction*%
%TD*%
%TA.AperFunction,Conductor*%
%TO.N,/PA09*%
G36*
X128106332Y-77784687D02*
G01*
X128107657Y-77785234D01*
X128875815Y-78102438D01*
X128882152Y-78108761D01*
X128882162Y-78108785D01*
X129199912Y-78878267D01*
X129199903Y-78887222D01*
X129193564Y-78893547D01*
X129192390Y-78893960D01*
X128830708Y-79000003D01*
X128828431Y-79000432D01*
X128534684Y-79026019D01*
X128279992Y-79043669D01*
X128025341Y-79129596D01*
X127738709Y-79353735D01*
X127730081Y-79356131D01*
X127723229Y-79352791D01*
X127631808Y-79261370D01*
X127628381Y-79253097D01*
X127630862Y-79245892D01*
X127855002Y-78959258D01*
X127940929Y-78704605D01*
X127958580Y-78449914D01*
X127984165Y-78156164D01*
X127984594Y-78153890D01*
X127999680Y-78102437D01*
X128090640Y-77792207D01*
X128096255Y-77785234D01*
X128105158Y-77784274D01*
X128106332Y-77784687D01*
G37*
%TD.AperFunction*%
%TD*%
%TA.AperFunction,Conductor*%
%TO.N,/PA18*%
G36*
X143450489Y-84036271D02*
G01*
X143450835Y-84037021D01*
X143559915Y-84298089D01*
X143559942Y-84307044D01*
X143559915Y-84307111D01*
X143450835Y-84568177D01*
X143444483Y-84574489D01*
X143435528Y-84574462D01*
X143434778Y-84574116D01*
X143368995Y-84540996D01*
X143327856Y-84520284D01*
X143327221Y-84519912D01*
X143246003Y-84465153D01*
X143175193Y-84419795D01*
X143088874Y-84388970D01*
X143088871Y-84388969D01*
X143088870Y-84388969D01*
X143066416Y-84386975D01*
X142971465Y-84378546D01*
X142963528Y-84374401D01*
X142960800Y-84366892D01*
X142960800Y-84238307D01*
X142964227Y-84230034D01*
X142971464Y-84226653D01*
X143088870Y-84216230D01*
X143175194Y-84185403D01*
X143246003Y-84140045D01*
X143327228Y-84085281D01*
X143327844Y-84084920D01*
X143434781Y-84031081D01*
X143443708Y-84030422D01*
X143450489Y-84036271D01*
G37*
%TD.AperFunction*%
%TD*%
%TA.AperFunction,Conductor*%
%TO.N,+3.3V*%
G36*
X105893080Y-80663319D02*
G01*
X105896185Y-80665543D01*
X106060289Y-80829647D01*
X106062190Y-80832143D01*
X106069727Y-80845418D01*
X106069728Y-80845418D01*
X106072566Y-80849728D01*
X106078045Y-80858046D01*
X106086357Y-80868645D01*
X106086359Y-80868647D01*
X106086363Y-80868652D01*
X106094681Y-80877236D01*
X106094684Y-80877238D01*
X106094819Y-80877345D01*
X106094836Y-80877376D01*
X106094970Y-80877497D01*
X106094929Y-80877542D01*
X106099192Y-80885159D01*
X106097534Y-80892669D01*
X105913645Y-81191084D01*
X105906387Y-81196329D01*
X105897546Y-81194907D01*
X105893094Y-81189920D01*
X105752278Y-80890081D01*
X105751864Y-80881137D01*
X105753423Y-80878206D01*
X105776389Y-80846838D01*
X105787609Y-80829647D01*
X105803444Y-80805386D01*
X105830511Y-80759414D01*
X105857572Y-80708952D01*
X105877417Y-80668645D01*
X105884144Y-80662739D01*
X105893080Y-80663319D01*
G37*
%TD.AperFunction*%
%TD*%
%TA.AperFunction,Conductor*%
%TO.N,/PA11*%
G36*
X116285302Y-83178811D02*
G01*
X116285349Y-83178858D01*
X116485009Y-83379854D01*
X116488408Y-83388139D01*
X116484954Y-83396401D01*
X116484877Y-83396476D01*
X116410305Y-83469197D01*
X116402071Y-83477227D01*
X116335439Y-83538461D01*
X116277015Y-83590442D01*
X116228956Y-83634607D01*
X116210382Y-83651676D01*
X116127395Y-83732606D01*
X116119079Y-83735929D01*
X116110953Y-83732503D01*
X116019860Y-83641411D01*
X116016433Y-83633138D01*
X116018419Y-83626617D01*
X116072141Y-83546584D01*
X116072041Y-83469197D01*
X116039212Y-83389971D01*
X116000653Y-83297724D01*
X115999893Y-83295040D01*
X115983319Y-83189582D01*
X115985420Y-83180879D01*
X115993061Y-83176209D01*
X115994838Y-83176067D01*
X116277022Y-83175404D01*
X116285302Y-83178811D01*
G37*
%TD.AperFunction*%
%TD*%
%TA.AperFunction,Conductor*%
%TO.N,+5V*%
G36*
X114258919Y-88766798D02*
G01*
X114422992Y-88930871D01*
X114426419Y-88939144D01*
X114425619Y-88943397D01*
X114339718Y-89163568D01*
X114251038Y-89423110D01*
X114162359Y-89714901D01*
X114073679Y-90038944D01*
X113988069Y-90382903D01*
X113982745Y-90390103D01*
X113973889Y-90391431D01*
X113972963Y-90391159D01*
X113328490Y-90172974D01*
X113321753Y-90167075D01*
X113320686Y-90163723D01*
X113180864Y-89281367D01*
X113182954Y-89272660D01*
X113190398Y-89268013D01*
X113365497Y-89237320D01*
X113393569Y-89232400D01*
X113393569Y-89232399D01*
X113393574Y-89232399D01*
X113608086Y-89162549D01*
X113822597Y-89060450D01*
X114037109Y-88926100D01*
X114243469Y-88765830D01*
X114252105Y-88763462D01*
X114258919Y-88766798D01*
G37*
%TD.AperFunction*%
%TD*%
%TA.AperFunction,Conductor*%
%TO.N,/PA21*%
G36*
X114905966Y-90437027D02*
G01*
X114909347Y-90444265D01*
X114919769Y-90561668D01*
X114919770Y-90561674D01*
X114950595Y-90647992D01*
X114950595Y-90647993D01*
X114995953Y-90718803D01*
X115050712Y-90800021D01*
X115051087Y-90800661D01*
X115104916Y-90907578D01*
X115105576Y-90916508D01*
X115099727Y-90923289D01*
X115098977Y-90923635D01*
X114837911Y-91032715D01*
X114828956Y-91032742D01*
X114828889Y-91032715D01*
X114567821Y-90923635D01*
X114561509Y-90917283D01*
X114561536Y-90908328D01*
X114561867Y-90907610D01*
X114615720Y-90800644D01*
X114616081Y-90800028D01*
X114670845Y-90718803D01*
X114716203Y-90647994D01*
X114747030Y-90561670D01*
X114757453Y-90444264D01*
X114761598Y-90436328D01*
X114769107Y-90433600D01*
X114897693Y-90433600D01*
X114905966Y-90437027D01*
G37*
%TD.AperFunction*%
%TD*%
%TA.AperFunction,Conductor*%
%TO.N,/PA19*%
G36*
X143704791Y-88573987D02*
G01*
X143775577Y-88603564D01*
X143781889Y-88609916D01*
X143781862Y-88618871D01*
X143781516Y-88619621D01*
X143727687Y-88726537D01*
X143727312Y-88727177D01*
X143672553Y-88808396D01*
X143627195Y-88879204D01*
X143627195Y-88879205D01*
X143596370Y-88965523D01*
X143596369Y-88965529D01*
X143585947Y-89082935D01*
X143581802Y-89090872D01*
X143574293Y-89093600D01*
X143445707Y-89093600D01*
X143437434Y-89090173D01*
X143434053Y-89082935D01*
X143423630Y-88965528D01*
X143392803Y-88879204D01*
X143347445Y-88808396D01*
X143292686Y-88727177D01*
X143292316Y-88726547D01*
X143238481Y-88619618D01*
X143237822Y-88610691D01*
X143243671Y-88603910D01*
X143244408Y-88603569D01*
X143505490Y-88494483D01*
X143514444Y-88494457D01*
X143704791Y-88573987D01*
G37*
%TD.AperFunction*%
%TD*%
%TA.AperFunction,Conductor*%
%TO.N,+3.3V*%
G36*
X106869244Y-80064864D02*
G01*
X106875562Y-80071211D01*
X106875798Y-80071838D01*
X106923757Y-80210636D01*
X106928590Y-80224621D01*
X106928748Y-80225161D01*
X106958649Y-80349610D01*
X106988601Y-80454984D01*
X107045491Y-80561712D01*
X107149196Y-80682269D01*
X107151993Y-80690775D01*
X107148599Y-80698171D01*
X106987171Y-80859599D01*
X106978898Y-80863026D01*
X106971269Y-80860196D01*
X106850712Y-80756491D01*
X106743984Y-80699601D01*
X106743983Y-80699600D01*
X106743982Y-80699600D01*
X106638610Y-80669649D01*
X106514161Y-80639748D01*
X106513626Y-80639591D01*
X106360841Y-80586799D01*
X106354142Y-80580860D01*
X106353605Y-80571921D01*
X106353834Y-80571311D01*
X106499637Y-80217002D01*
X106505953Y-80210657D01*
X106860291Y-80064843D01*
X106869244Y-80064864D01*
G37*
%TD.AperFunction*%
%TD*%
%TA.AperFunction,Conductor*%
%TO.N,+5V*%
G36*
X134741965Y-77784636D02*
G01*
X134748290Y-77790975D01*
X134748663Y-77792015D01*
X134857429Y-78147163D01*
X134857852Y-78149143D01*
X134893491Y-78435289D01*
X134923356Y-78682127D01*
X134923358Y-78682136D01*
X135018493Y-78929618D01*
X135243518Y-79210514D01*
X135246016Y-79219113D01*
X135242660Y-79226102D01*
X135080702Y-79388060D01*
X135072429Y-79391487D01*
X135065114Y-79388918D01*
X134784218Y-79163893D01*
X134536736Y-79068758D01*
X134536727Y-79068756D01*
X134289889Y-79038891D01*
X134003743Y-79003252D01*
X134001763Y-79002829D01*
X133646615Y-78894063D01*
X133639708Y-78888364D01*
X133638854Y-78879450D01*
X133639220Y-78878429D01*
X133957038Y-78108783D01*
X133963359Y-78102448D01*
X134733012Y-77784627D01*
X134741965Y-77784636D01*
G37*
%TD.AperFunction*%
%TD*%
%TA.AperFunction,Conductor*%
%TO.N,/PA18*%
G36*
X122476602Y-89827274D02*
G01*
X122567525Y-89918197D01*
X122570952Y-89926470D01*
X122568224Y-89933979D01*
X122492579Y-90024363D01*
X122492577Y-90024366D01*
X122492576Y-90024368D01*
X122477390Y-90056423D01*
X122453332Y-90107206D01*
X122435337Y-90189347D01*
X122416627Y-90285495D01*
X122416439Y-90286213D01*
X122378901Y-90399881D01*
X122373052Y-90406662D01*
X122364122Y-90407322D01*
X122363347Y-90407035D01*
X122101615Y-90299563D01*
X122095263Y-90293251D01*
X122095236Y-90293184D01*
X122018870Y-90107206D01*
X121987764Y-90031450D01*
X121987791Y-90022497D01*
X121994143Y-90016185D01*
X121994911Y-90015900D01*
X122108592Y-89978355D01*
X122109293Y-89978172D01*
X122205451Y-89959461D01*
X122287593Y-89941465D01*
X122370431Y-89902223D01*
X122460820Y-89826575D01*
X122469364Y-89823893D01*
X122476602Y-89827274D01*
G37*
%TD.AperFunction*%
%TD*%
%TA.AperFunction,Conductor*%
%TO.N,+5V*%
G36*
X116942697Y-85738739D02*
G01*
X117296993Y-85884536D01*
X117303340Y-85890854D01*
X117303361Y-85890904D01*
X117449154Y-86245190D01*
X117449133Y-86254144D01*
X117442786Y-86260462D01*
X117442155Y-86260700D01*
X117289374Y-86313490D01*
X117288830Y-86313649D01*
X117164386Y-86343549D01*
X117059013Y-86373500D01*
X116952285Y-86430390D01*
X116831729Y-86534096D01*
X116823222Y-86536893D01*
X116815826Y-86533499D01*
X116654398Y-86372071D01*
X116650971Y-86363798D01*
X116653799Y-86356171D01*
X116757505Y-86235612D01*
X116814396Y-86128884D01*
X116844347Y-86023510D01*
X116874252Y-85899042D01*
X116874397Y-85898545D01*
X116927198Y-85745740D01*
X116933137Y-85739042D01*
X116942076Y-85738505D01*
X116942697Y-85738739D01*
G37*
%TD.AperFunction*%
%TD*%
%TA.AperFunction,Conductor*%
%TO.N,/PA19*%
G36*
X107257222Y-92105203D02*
G01*
X107261022Y-92113312D01*
X107261034Y-92113844D01*
X107261034Y-92242645D01*
X107257607Y-92250918D01*
X107252390Y-92253939D01*
X106958806Y-92333392D01*
X106870868Y-92553728D01*
X106890971Y-92875034D01*
X106912778Y-93258242D01*
X106912567Y-93261214D01*
X106833101Y-93656341D01*
X106828111Y-93663776D01*
X106819324Y-93665504D01*
X106817158Y-93664845D01*
X106048487Y-93346856D01*
X106042153Y-93340527D01*
X106042146Y-93340511D01*
X105724047Y-92570183D01*
X105724056Y-92561228D01*
X105730059Y-92555048D01*
X106088060Y-92393914D01*
X106351413Y-92265625D01*
X106351790Y-92265460D01*
X106584116Y-92174624D01*
X106586114Y-92174042D01*
X106862472Y-92119871D01*
X106864180Y-92119666D01*
X107248804Y-92102156D01*
X107257222Y-92105203D01*
G37*
%TD.AperFunction*%
%TD*%
%TA.AperFunction,Conductor*%
%TO.N,/PA21*%
G36*
X141874058Y-83151687D02*
G01*
X142134894Y-83259340D01*
X142141233Y-83265663D01*
X142141252Y-83265710D01*
X142248973Y-83528058D01*
X142248946Y-83537013D01*
X142243119Y-83543095D01*
X142120071Y-83600814D01*
X142120068Y-83600815D01*
X142120063Y-83600818D01*
X142026131Y-83652658D01*
X142025828Y-83652814D01*
X141944180Y-83691715D01*
X141942011Y-83692497D01*
X141844775Y-83717040D01*
X141842626Y-83717374D01*
X141712315Y-83725341D01*
X141703848Y-83722426D01*
X141699923Y-83714377D01*
X141699901Y-83713663D01*
X141699901Y-83585215D01*
X141703328Y-83576942D01*
X141708736Y-83573871D01*
X141796375Y-83551765D01*
X141830539Y-83485907D01*
X141832600Y-83389246D01*
X141832761Y-83273797D01*
X141833048Y-83271238D01*
X141834297Y-83265710D01*
X141858181Y-83159924D01*
X141863346Y-83152610D01*
X141872171Y-83151089D01*
X141874058Y-83151687D01*
G37*
%TD.AperFunction*%
%TD*%
%TA.AperFunction,Conductor*%
%TO.N,+3.3V*%
G36*
X105552075Y-80812870D02*
G01*
X105589549Y-80830000D01*
X105589556Y-80830002D01*
X105589557Y-80830003D01*
X105589558Y-80830004D01*
X105623575Y-80842720D01*
X105643584Y-80850200D01*
X105697620Y-80865899D01*
X105697625Y-80865900D01*
X105751650Y-80877098D01*
X105751650Y-80877099D01*
X105798134Y-80882863D01*
X105805922Y-80887282D01*
X105807893Y-80891086D01*
X105901124Y-81199293D01*
X105900239Y-81208204D01*
X105895085Y-81213181D01*
X105712925Y-81302703D01*
X105703989Y-81303277D01*
X105697571Y-81297946D01*
X105669503Y-81248125D01*
X105636006Y-81193169D01*
X105602508Y-81142712D01*
X105569008Y-81096752D01*
X105538114Y-81058516D01*
X105535515Y-81051163D01*
X105535515Y-80823512D01*
X105538942Y-80815239D01*
X105547215Y-80811812D01*
X105552075Y-80812870D01*
G37*
%TD.AperFunction*%
%TD*%
%TA.AperFunction,Conductor*%
%TO.N,/PA06*%
G36*
X117114502Y-89170991D02*
G01*
X117120814Y-89177343D01*
X117121101Y-89178118D01*
X117158639Y-89291784D01*
X117158827Y-89292502D01*
X117177537Y-89388651D01*
X117195532Y-89470792D01*
X117208193Y-89497517D01*
X117234776Y-89553631D01*
X117234778Y-89553634D01*
X117234779Y-89553635D01*
X117310424Y-89644020D01*
X117313106Y-89652564D01*
X117309725Y-89659802D01*
X117218802Y-89750725D01*
X117210529Y-89754152D01*
X117203020Y-89751424D01*
X117112635Y-89675779D01*
X117112634Y-89675778D01*
X117112631Y-89675776D01*
X117056517Y-89649193D01*
X117029792Y-89636532D01*
X116947651Y-89618537D01*
X116851502Y-89599827D01*
X116850784Y-89599639D01*
X116737118Y-89562101D01*
X116730337Y-89556252D01*
X116729677Y-89547322D01*
X116729953Y-89546574D01*
X116837436Y-89284814D01*
X116843746Y-89278464D01*
X117105549Y-89170964D01*
X117114502Y-89170991D01*
G37*
%TD.AperFunction*%
%TD*%
%TA.AperFunction,Conductor*%
%TO.N,+3.3V*%
G36*
X106144099Y-80064839D02*
G01*
X106498395Y-80210636D01*
X106504742Y-80216954D01*
X106504763Y-80217004D01*
X106650556Y-80571290D01*
X106650535Y-80580244D01*
X106644188Y-80586562D01*
X106643557Y-80586800D01*
X106490776Y-80639590D01*
X106490232Y-80639749D01*
X106365788Y-80669649D01*
X106260415Y-80699600D01*
X106153687Y-80756490D01*
X106033131Y-80860196D01*
X106024624Y-80862993D01*
X106017228Y-80859599D01*
X105855800Y-80698171D01*
X105852373Y-80689898D01*
X105855201Y-80682271D01*
X105958907Y-80561712D01*
X106015798Y-80454984D01*
X106045749Y-80349610D01*
X106075654Y-80225142D01*
X106075799Y-80224645D01*
X106128600Y-80071840D01*
X106134539Y-80065142D01*
X106143478Y-80064605D01*
X106144099Y-80064839D01*
G37*
%TD.AperFunction*%
%TD*%
%TA.AperFunction,Conductor*%
%TO.N,/PA17*%
G36*
X106866546Y-77757886D02*
G01*
X106872872Y-77764224D01*
X106873279Y-77765378D01*
X107000414Y-78195935D01*
X107131229Y-78592453D01*
X107262045Y-78942477D01*
X107392858Y-79245990D01*
X107392859Y-79245991D01*
X107519819Y-79495434D01*
X107520518Y-79504361D01*
X107517665Y-79509014D01*
X107424258Y-79602421D01*
X107415985Y-79605848D01*
X107409682Y-79604005D01*
X107067596Y-79385262D01*
X107067578Y-79385252D01*
X106717571Y-79207943D01*
X106367551Y-79077128D01*
X106017536Y-78992814D01*
X106017525Y-78992812D01*
X105683032Y-78956676D01*
X105675175Y-78952381D01*
X105672657Y-78943787D01*
X105673475Y-78940577D01*
X106017038Y-78108782D01*
X106023361Y-78102447D01*
X106857593Y-77757877D01*
X106866546Y-77757886D01*
G37*
%TD.AperFunction*%
%TD*%
%TA.AperFunction,Conductor*%
%TO.N,/PA05*%
G36*
X113377191Y-83976587D02*
G01*
X113447977Y-84006164D01*
X113454289Y-84012516D01*
X113454262Y-84021471D01*
X113453916Y-84022221D01*
X113400087Y-84129137D01*
X113399712Y-84129777D01*
X113344953Y-84210996D01*
X113299595Y-84281804D01*
X113299595Y-84281805D01*
X113268770Y-84368123D01*
X113268769Y-84368129D01*
X113258347Y-84485535D01*
X113254202Y-84493472D01*
X113246693Y-84496200D01*
X113118107Y-84496200D01*
X113109834Y-84492773D01*
X113106453Y-84485535D01*
X113096030Y-84368128D01*
X113065203Y-84281804D01*
X113019845Y-84210996D01*
X112965086Y-84129777D01*
X112964716Y-84129147D01*
X112910881Y-84022218D01*
X112910222Y-84013291D01*
X112916071Y-84006510D01*
X112916808Y-84006169D01*
X113177890Y-83897083D01*
X113186844Y-83897057D01*
X113377191Y-83976587D01*
G37*
%TD.AperFunction*%
%TD*%
%TA.AperFunction,Conductor*%
%TO.N,+5V*%
G36*
X141556711Y-88946703D02*
G01*
X141563029Y-88953050D01*
X141563008Y-88962004D01*
X141562730Y-88962620D01*
X141492025Y-89107981D01*
X141491753Y-89108478D01*
X141424901Y-89217615D01*
X141371569Y-89313305D01*
X141371567Y-89313310D01*
X141336329Y-89428996D01*
X141336328Y-89429002D01*
X141324413Y-89587577D01*
X141320376Y-89595570D01*
X141312746Y-89598400D01*
X141084454Y-89598400D01*
X141076181Y-89594973D01*
X141072787Y-89587577D01*
X141060870Y-89429002D01*
X141060869Y-89428996D01*
X141025631Y-89313310D01*
X141025629Y-89313305D01*
X140972297Y-89217615D01*
X140905444Y-89108478D01*
X140905172Y-89107981D01*
X140902632Y-89102760D01*
X140834468Y-88962618D01*
X140833932Y-88953681D01*
X140839872Y-88946981D01*
X140840474Y-88946708D01*
X141194100Y-88799275D01*
X141203049Y-88799255D01*
X141556711Y-88946703D01*
G37*
%TD.AperFunction*%
%TD*%
%TA.AperFunction,Conductor*%
%TO.N,GND*%
G36*
X109002604Y-80915591D02*
G01*
X109003197Y-80915858D01*
X109143360Y-80984032D01*
X109148581Y-80986572D01*
X109149078Y-80986844D01*
X109258215Y-81053697D01*
X109353905Y-81107029D01*
X109353910Y-81107031D01*
X109469596Y-81142269D01*
X109469599Y-81142269D01*
X109469601Y-81142270D01*
X109628178Y-81154186D01*
X109636170Y-81158223D01*
X109639000Y-81165853D01*
X109639000Y-81394146D01*
X109635573Y-81402419D01*
X109628177Y-81405813D01*
X109469602Y-81417728D01*
X109469596Y-81417729D01*
X109353910Y-81452967D01*
X109353905Y-81452969D01*
X109258215Y-81506301D01*
X109149078Y-81573153D01*
X109148581Y-81573425D01*
X109003220Y-81644130D01*
X108994281Y-81644667D01*
X108987581Y-81638727D01*
X108987303Y-81638111D01*
X108910114Y-81452970D01*
X108839875Y-81284499D01*
X108839855Y-81275550D01*
X108987303Y-80921887D01*
X108993650Y-80915570D01*
X109002604Y-80915591D01*
G37*
%TD.AperFunction*%
%TD*%
%TA.AperFunction,Conductor*%
%TO.N,/PA02*%
G36*
X111968344Y-79101270D02*
G01*
X112059278Y-79192204D01*
X112062705Y-79200477D01*
X112060056Y-79207891D01*
X111985113Y-79299372D01*
X111985110Y-79299377D01*
X111948814Y-79383926D01*
X111934493Y-79468024D01*
X111918909Y-79565464D01*
X111918504Y-79567166D01*
X111882122Y-79681411D01*
X111876347Y-79688254D01*
X111867424Y-79689009D01*
X111866530Y-79688684D01*
X111604922Y-79581263D01*
X111598570Y-79574951D01*
X111598543Y-79574884D01*
X111520133Y-79383927D01*
X111491027Y-79313043D01*
X111491054Y-79304089D01*
X111497406Y-79297777D01*
X111498057Y-79297532D01*
X111609656Y-79259531D01*
X111610221Y-79259371D01*
X111703913Y-79238278D01*
X111783507Y-79217381D01*
X111783508Y-79217381D01*
X111783508Y-79217380D01*
X111783511Y-79217380D01*
X111864014Y-79176058D01*
X111952483Y-79100638D01*
X111961000Y-79097880D01*
X111968344Y-79101270D01*
G37*
%TD.AperFunction*%
%TD*%
%TA.AperFunction,Conductor*%
%TO.N,/PA10*%
G36*
X120292202Y-79726174D02*
G01*
X120383125Y-79817097D01*
X120386552Y-79825370D01*
X120383824Y-79832879D01*
X120308179Y-79923263D01*
X120308177Y-79923266D01*
X120308176Y-79923268D01*
X120292990Y-79955323D01*
X120268932Y-80006106D01*
X120250937Y-80088247D01*
X120232227Y-80184395D01*
X120232039Y-80185113D01*
X120194501Y-80298781D01*
X120188652Y-80305562D01*
X120179722Y-80306222D01*
X120178947Y-80305935D01*
X119917215Y-80198463D01*
X119910863Y-80192151D01*
X119910836Y-80192084D01*
X119834470Y-80006106D01*
X119803364Y-79930350D01*
X119803391Y-79921397D01*
X119809743Y-79915085D01*
X119810511Y-79914800D01*
X119924192Y-79877255D01*
X119924893Y-79877072D01*
X120021051Y-79858361D01*
X120103193Y-79840365D01*
X120186031Y-79801123D01*
X120276420Y-79725475D01*
X120284964Y-79722793D01*
X120292202Y-79726174D01*
G37*
%TD.AperFunction*%
%TD*%
%TA.AperFunction,Conductor*%
%TO.N,+3.3V*%
G36*
X106144099Y-80064839D02*
G01*
X106498395Y-80210636D01*
X106504742Y-80216954D01*
X106504763Y-80217004D01*
X106650556Y-80571290D01*
X106650535Y-80580244D01*
X106644188Y-80586562D01*
X106643557Y-80586800D01*
X106490776Y-80639590D01*
X106490232Y-80639749D01*
X106365788Y-80669649D01*
X106260415Y-80699600D01*
X106153687Y-80756490D01*
X106033131Y-80860196D01*
X106024624Y-80862993D01*
X106017228Y-80859599D01*
X105855800Y-80698171D01*
X105852373Y-80689898D01*
X105855201Y-80682271D01*
X105958907Y-80561712D01*
X106015798Y-80454984D01*
X106045749Y-80349610D01*
X106075654Y-80225142D01*
X106075799Y-80224645D01*
X106128600Y-80071840D01*
X106134539Y-80065142D01*
X106143478Y-80064605D01*
X106144099Y-80064839D01*
G37*
%TD.AperFunction*%
%TD*%
%TA.AperFunction,Conductor*%
%TO.N,+3.3V*%
G36*
X111552982Y-84983940D02*
G01*
X111556282Y-84990495D01*
X111575208Y-85117995D01*
X111575208Y-85117996D01*
X111631485Y-85200611D01*
X111716202Y-85258108D01*
X111716201Y-85258107D01*
X111821181Y-85319798D01*
X111822607Y-85320786D01*
X111931152Y-85408594D01*
X111935429Y-85416461D01*
X111932890Y-85425048D01*
X111932082Y-85425949D01*
X111661841Y-85697146D01*
X111653574Y-85700587D01*
X111653524Y-85700587D01*
X111270390Y-85699629D01*
X111262125Y-85696181D01*
X111258719Y-85687900D01*
X111258722Y-85687684D01*
X111263220Y-85521202D01*
X111263238Y-85520899D01*
X111274732Y-85394599D01*
X111288467Y-85285513D01*
X111299974Y-85159061D01*
X111304492Y-84991896D01*
X111308141Y-84983719D01*
X111316188Y-84980513D01*
X111544709Y-84980513D01*
X111552982Y-84983940D01*
G37*
%TD.AperFunction*%
%TD*%
%TA.AperFunction,Conductor*%
%TO.N,Net-(U3-VOUT)*%
G36*
X107209118Y-83120200D02*
G01*
X107212971Y-83124053D01*
X107328481Y-83312334D01*
X107399653Y-83428345D01*
X107401058Y-83437189D01*
X107400212Y-83439559D01*
X107388005Y-83464788D01*
X107373000Y-83500300D01*
X107358000Y-83540299D01*
X107342999Y-83584799D01*
X107330533Y-83625525D01*
X107324834Y-83632432D01*
X107319345Y-83633800D01*
X107086655Y-83633800D01*
X107078382Y-83630373D01*
X107075467Y-83625525D01*
X107063001Y-83584799D01*
X107048000Y-83540299D01*
X107033000Y-83500300D01*
X107017995Y-83464788D01*
X107005787Y-83439559D01*
X107005268Y-83430619D01*
X107006343Y-83428349D01*
X107193028Y-83124054D01*
X107200274Y-83118795D01*
X107209118Y-83120200D01*
G37*
%TD.AperFunction*%
%TD*%
%TA.AperFunction,Conductor*%
%TO.N,+3.3V*%
G36*
X144216619Y-85055427D02*
G01*
X144220013Y-85062823D01*
X144231928Y-85221396D01*
X144231929Y-85221402D01*
X144267167Y-85337088D01*
X144267169Y-85337093D01*
X144320501Y-85432784D01*
X144387356Y-85541924D01*
X144387628Y-85542421D01*
X144458330Y-85687779D01*
X144458867Y-85696718D01*
X144452927Y-85703418D01*
X144452311Y-85703696D01*
X144098702Y-85851123D01*
X144089748Y-85851144D01*
X144089698Y-85851123D01*
X143736088Y-85703696D01*
X143729770Y-85697349D01*
X143729791Y-85688395D01*
X143730059Y-85687801D01*
X143800772Y-85542416D01*
X143801039Y-85541928D01*
X143801042Y-85541924D01*
X143867897Y-85432784D01*
X143921229Y-85337094D01*
X143956470Y-85221398D01*
X143968387Y-85062823D01*
X143972424Y-85054830D01*
X143980054Y-85052000D01*
X144208346Y-85052000D01*
X144216619Y-85055427D01*
G37*
%TD.AperFunction*%
%TD*%
%TA.AperFunction,Conductor*%
%TO.N,+3.3V*%
G36*
X104635563Y-80244026D02*
G01*
X104801835Y-80412720D01*
X104975201Y-80557512D01*
X105148567Y-80671206D01*
X105321933Y-80753802D01*
X105486931Y-80802814D01*
X105493885Y-80808455D01*
X105495299Y-80814030D01*
X105495299Y-81046569D01*
X105491872Y-81054842D01*
X105486931Y-81057785D01*
X105321933Y-81106798D01*
X105148565Y-81189394D01*
X104975206Y-81303084D01*
X104801830Y-81447884D01*
X104635564Y-81616572D01*
X104627316Y-81620059D01*
X104620317Y-81617798D01*
X103694684Y-80939738D01*
X103690036Y-80932085D01*
X103692160Y-80923386D01*
X103694685Y-80920861D01*
X104620319Y-80242800D01*
X104629016Y-80240677D01*
X104635563Y-80244026D01*
G37*
%TD.AperFunction*%
%TD*%
%TA.AperFunction,Conductor*%
%TO.N,+5V*%
G36*
X105823539Y-90077805D02*
G01*
X105823658Y-90077925D01*
X105891400Y-90147857D01*
X105967400Y-90212586D01*
X105967407Y-90212591D01*
X105967419Y-90212600D01*
X106043393Y-90263582D01*
X106043399Y-90263586D01*
X106119399Y-90300857D01*
X106187162Y-90321848D01*
X106194051Y-90327569D01*
X106195400Y-90333024D01*
X106195400Y-90565775D01*
X106191973Y-90574048D01*
X106187162Y-90576951D01*
X106119403Y-90597940D01*
X106119398Y-90597942D01*
X106043396Y-90635214D01*
X106043393Y-90635216D01*
X105967419Y-90686198D01*
X105967396Y-90686216D01*
X105891397Y-90750943D01*
X105823660Y-90820872D01*
X105815442Y-90824431D01*
X105807116Y-90821136D01*
X105806994Y-90821016D01*
X105780338Y-90794430D01*
X105442704Y-90457682D01*
X105439267Y-90449415D01*
X105442682Y-90441139D01*
X105806996Y-90077781D01*
X105815270Y-90074367D01*
X105823539Y-90077805D01*
G37*
%TD.AperFunction*%
%TD*%
%TA.AperFunction,Conductor*%
%TO.N,/PA04*%
G36*
X128065071Y-90558536D02*
G01*
X128065799Y-90558872D01*
X128172747Y-90612716D01*
X128173377Y-90613086D01*
X128254596Y-90667845D01*
X128325404Y-90713203D01*
X128411728Y-90744030D01*
X128529135Y-90754453D01*
X128537072Y-90758598D01*
X128539800Y-90766107D01*
X128539800Y-90894692D01*
X128536373Y-90902965D01*
X128529135Y-90906346D01*
X128424364Y-90915647D01*
X128411728Y-90916769D01*
X128411727Y-90916769D01*
X128411723Y-90916770D01*
X128325405Y-90947595D01*
X128325404Y-90947595D01*
X128254596Y-90992953D01*
X128173377Y-91047712D01*
X128172737Y-91048087D01*
X128065821Y-91101916D01*
X128056891Y-91102576D01*
X128050110Y-91096727D01*
X128049764Y-91095977D01*
X127987767Y-90947596D01*
X127940683Y-90834909D01*
X127940657Y-90825956D01*
X127940662Y-90825942D01*
X128049764Y-90564820D01*
X128056116Y-90558509D01*
X128065071Y-90558536D01*
G37*
%TD.AperFunction*%
%TD*%
%TA.AperFunction,Conductor*%
%TO.N,/PA06*%
G36*
X119295089Y-90572171D02*
G01*
X119295435Y-90572921D01*
X119404515Y-90833989D01*
X119404542Y-90842944D01*
X119404515Y-90843011D01*
X119295435Y-91104077D01*
X119289083Y-91110389D01*
X119280128Y-91110362D01*
X119279378Y-91110016D01*
X119213595Y-91076896D01*
X119172456Y-91056184D01*
X119171821Y-91055812D01*
X119090603Y-91001053D01*
X119019793Y-90955695D01*
X118933474Y-90924870D01*
X118933471Y-90924869D01*
X118933470Y-90924869D01*
X118911016Y-90922875D01*
X118816065Y-90914446D01*
X118808128Y-90910301D01*
X118805400Y-90902792D01*
X118805400Y-90774207D01*
X118808827Y-90765934D01*
X118816064Y-90762553D01*
X118933470Y-90752130D01*
X119019794Y-90721303D01*
X119090603Y-90675945D01*
X119171828Y-90621181D01*
X119172444Y-90620820D01*
X119279381Y-90566981D01*
X119288308Y-90566322D01*
X119295089Y-90572171D01*
G37*
%TD.AperFunction*%
%TD*%
%TA.AperFunction,Conductor*%
%TO.N,GND*%
G36*
X138783223Y-80638365D02*
G01*
X138783979Y-80639062D01*
X139412802Y-81271752D01*
X139416204Y-81280036D01*
X139412802Y-81288248D01*
X138783979Y-81920937D01*
X138775717Y-81924389D01*
X138767433Y-81920987D01*
X138766736Y-81920231D01*
X138643982Y-81774640D01*
X138643978Y-81774635D01*
X138576440Y-81707516D01*
X138512989Y-81644458D01*
X138512982Y-81644452D01*
X138480864Y-81618708D01*
X138381989Y-81539453D01*
X138381985Y-81539451D01*
X138381982Y-81539448D01*
X138250996Y-81459635D01*
X138250992Y-81459633D01*
X138127196Y-81408001D01*
X138120880Y-81401654D01*
X138120000Y-81397203D01*
X138120000Y-81162796D01*
X138123427Y-81154523D01*
X138127193Y-81151999D01*
X138250994Y-81100364D01*
X138381989Y-81020546D01*
X138512983Y-80915546D01*
X138643978Y-80785364D01*
X138766737Y-80639766D01*
X138774689Y-80635652D01*
X138783223Y-80638365D01*
G37*
%TD.AperFunction*%
%TD*%
%TA.AperFunction,Conductor*%
%TO.N,Net-(J1-Pin_2)*%
G36*
X105440415Y-85385126D02*
G01*
X105445971Y-85390682D01*
X105811770Y-86161748D01*
X105812220Y-86170692D01*
X105809265Y-86175238D01*
X105764401Y-86217940D01*
X105764399Y-86217942D01*
X105713400Y-86280212D01*
X105713391Y-86280224D01*
X105662395Y-86356220D01*
X105662395Y-86356221D01*
X105611401Y-86445940D01*
X105563617Y-86542873D01*
X105556886Y-86548779D01*
X105553123Y-86549400D01*
X105317677Y-86549400D01*
X105309404Y-86545973D01*
X105307183Y-86542873D01*
X105259399Y-86445940D01*
X105208405Y-86356221D01*
X105208405Y-86356220D01*
X105157408Y-86280224D01*
X105157399Y-86280212D01*
X105106400Y-86217942D01*
X105106398Y-86217940D01*
X105061534Y-86175238D01*
X105057904Y-86167052D01*
X105059028Y-86161752D01*
X105424829Y-85390681D01*
X105431471Y-85384676D01*
X105440415Y-85385126D01*
G37*
%TD.AperFunction*%
%TD*%
%TA.AperFunction,Conductor*%
%TO.N,GND*%
G36*
X110159499Y-88610927D02*
G01*
X110161219Y-88613116D01*
X110281377Y-88810468D01*
X110404954Y-88984783D01*
X110528531Y-89130445D01*
X110652108Y-89247455D01*
X110745677Y-89314356D01*
X110766311Y-89329109D01*
X110771048Y-89336709D01*
X110769126Y-89345287D01*
X110206108Y-90158564D01*
X110198581Y-90163415D01*
X110189828Y-90161524D01*
X110187627Y-90159544D01*
X109559733Y-89430947D01*
X109556929Y-89422444D01*
X109558756Y-89416983D01*
X109624783Y-89314371D01*
X109695535Y-89177713D01*
X109695536Y-89177713D01*
X109766290Y-89014348D01*
X109766292Y-89014344D01*
X109837046Y-88824274D01*
X109905166Y-88615570D01*
X109910991Y-88608768D01*
X109916289Y-88607500D01*
X110151226Y-88607500D01*
X110159499Y-88610927D01*
G37*
%TD.AperFunction*%
%TD*%
%TA.AperFunction,Conductor*%
%TO.N,+5V*%
G36*
X107083522Y-90296476D02*
G01*
X107089839Y-90302822D01*
X107089845Y-90302836D01*
X107156817Y-90466140D01*
X107228235Y-90624983D01*
X107299651Y-90768525D01*
X107299652Y-90768526D01*
X107371070Y-90896769D01*
X107371073Y-90896773D01*
X107437486Y-91001803D01*
X107439011Y-91010627D01*
X107435870Y-91016329D01*
X107268988Y-91183211D01*
X107261080Y-91186632D01*
X107229650Y-91187611D01*
X107229645Y-91187612D01*
X107193588Y-91194464D01*
X107157531Y-91207044D01*
X107157518Y-91207050D01*
X107121471Y-91225353D01*
X107121457Y-91225362D01*
X107096650Y-91241900D01*
X107087865Y-91243638D01*
X107080425Y-91238655D01*
X107079594Y-91237189D01*
X107073966Y-91225353D01*
X106709991Y-90459837D01*
X106709534Y-90450895D01*
X106715534Y-90444248D01*
X106716075Y-90444008D01*
X107074568Y-90296456D01*
X107083522Y-90296476D01*
G37*
%TD.AperFunction*%
%TD*%
%TA.AperFunction,Conductor*%
%TO.N,+5V*%
G36*
X140952524Y-80832839D02*
G01*
X140953025Y-80833372D01*
X141054615Y-80948831D01*
X141072363Y-80969003D01*
X141073682Y-80970831D01*
X141142235Y-81088205D01*
X141143208Y-81090336D01*
X141164882Y-81154010D01*
X141180395Y-81199583D01*
X141182730Y-81206441D01*
X141182826Y-81206754D01*
X141205950Y-81289623D01*
X141221815Y-81346481D01*
X141239026Y-81394522D01*
X141285002Y-81522860D01*
X141284566Y-81531804D01*
X141278489Y-81537605D01*
X140924400Y-81685233D01*
X140915446Y-81685254D01*
X140915410Y-81685239D01*
X140562286Y-81538576D01*
X140555960Y-81532238D01*
X140555969Y-81523283D01*
X140556793Y-81521667D01*
X140633572Y-81396377D01*
X140634978Y-81394528D01*
X140732696Y-81289623D01*
X140810779Y-81199583D01*
X140834023Y-81108796D01*
X140822741Y-81090336D01*
X140815779Y-81078943D01*
X140772823Y-81008655D01*
X140771434Y-80999811D01*
X140774532Y-80994285D01*
X140935979Y-80832838D01*
X140944251Y-80829412D01*
X140952524Y-80832839D01*
G37*
%TD.AperFunction*%
%TD*%
%TA.AperFunction,Conductor*%
%TO.N,+3.3V*%
G36*
X109612204Y-82566591D02*
G01*
X109612797Y-82566858D01*
X109752960Y-82635032D01*
X109758181Y-82637572D01*
X109758678Y-82637844D01*
X109867815Y-82704697D01*
X109963505Y-82758029D01*
X109963510Y-82758031D01*
X110079196Y-82793269D01*
X110079199Y-82793269D01*
X110079201Y-82793270D01*
X110237778Y-82805186D01*
X110245770Y-82809223D01*
X110248600Y-82816853D01*
X110248600Y-83045146D01*
X110245173Y-83053419D01*
X110237777Y-83056813D01*
X110079202Y-83068728D01*
X110079196Y-83068729D01*
X109963510Y-83103967D01*
X109963505Y-83103969D01*
X109867815Y-83157301D01*
X109758678Y-83224153D01*
X109758181Y-83224425D01*
X109612820Y-83295130D01*
X109603881Y-83295667D01*
X109597181Y-83289727D01*
X109596903Y-83289111D01*
X109519714Y-83103970D01*
X109449475Y-82935499D01*
X109449455Y-82926550D01*
X109596903Y-82572887D01*
X109603250Y-82566570D01*
X109612204Y-82566591D01*
G37*
%TD.AperFunction*%
%TD*%
%TA.AperFunction,Conductor*%
%TO.N,/PA05*%
G36*
X112518366Y-85865027D02*
G01*
X112521747Y-85872265D01*
X112532169Y-85989668D01*
X112532170Y-85989674D01*
X112562995Y-86075992D01*
X112562995Y-86075993D01*
X112608353Y-86146803D01*
X112663112Y-86228021D01*
X112663487Y-86228661D01*
X112717316Y-86335578D01*
X112717976Y-86344508D01*
X112712127Y-86351289D01*
X112711377Y-86351635D01*
X112450311Y-86460715D01*
X112441356Y-86460742D01*
X112441289Y-86460715D01*
X112180221Y-86351635D01*
X112173909Y-86345283D01*
X112173936Y-86336328D01*
X112174267Y-86335610D01*
X112228120Y-86228644D01*
X112228481Y-86228028D01*
X112283245Y-86146803D01*
X112328603Y-86075994D01*
X112359430Y-85989670D01*
X112369853Y-85872264D01*
X112373998Y-85864328D01*
X112381507Y-85861600D01*
X112510093Y-85861600D01*
X112518366Y-85865027D01*
G37*
%TD.AperFunction*%
%TD*%
%TA.AperFunction,Conductor*%
%TO.N,+5V*%
G36*
X106333683Y-90077663D02*
G01*
X106333805Y-90077783D01*
X106698094Y-90441116D01*
X106701532Y-90449385D01*
X106698116Y-90457662D01*
X106698094Y-90457684D01*
X106333806Y-90821016D01*
X106325529Y-90824432D01*
X106317260Y-90820994D01*
X106317140Y-90820873D01*
X106249399Y-90750942D01*
X106173399Y-90686213D01*
X106173393Y-90686209D01*
X106173379Y-90686198D01*
X106097405Y-90635216D01*
X106097402Y-90635214D01*
X106021400Y-90597942D01*
X106021395Y-90597940D01*
X105953638Y-90576951D01*
X105946749Y-90571230D01*
X105945400Y-90565775D01*
X105945400Y-90333024D01*
X105948827Y-90324751D01*
X105953638Y-90321848D01*
X106021400Y-90300857D01*
X106097400Y-90263586D01*
X106137438Y-90236717D01*
X106173379Y-90212600D01*
X106173384Y-90212595D01*
X106173399Y-90212586D01*
X106249399Y-90147857D01*
X106317140Y-90077926D01*
X106325357Y-90074368D01*
X106333683Y-90077663D01*
G37*
%TD.AperFunction*%
%TD*%
%TA.AperFunction,Conductor*%
%TO.N,/PA04*%
G36*
X129759889Y-90564071D02*
G01*
X129760235Y-90564821D01*
X129869315Y-90825889D01*
X129869342Y-90834844D01*
X129869315Y-90834911D01*
X129760235Y-91095977D01*
X129753883Y-91102289D01*
X129744928Y-91102262D01*
X129744178Y-91101916D01*
X129678395Y-91068796D01*
X129637256Y-91048084D01*
X129636621Y-91047712D01*
X129555403Y-90992953D01*
X129484593Y-90947595D01*
X129398274Y-90916770D01*
X129398271Y-90916769D01*
X129398270Y-90916769D01*
X129375816Y-90914775D01*
X129280865Y-90906346D01*
X129272928Y-90902201D01*
X129270200Y-90894692D01*
X129270200Y-90766107D01*
X129273627Y-90757834D01*
X129280864Y-90754453D01*
X129398270Y-90744030D01*
X129484594Y-90713203D01*
X129555403Y-90667845D01*
X129636628Y-90613081D01*
X129637244Y-90612720D01*
X129744181Y-90558881D01*
X129753108Y-90558222D01*
X129759889Y-90564071D01*
G37*
%TD.AperFunction*%
%TD*%
%TA.AperFunction,Conductor*%
%TO.N,+3.3V*%
G36*
X112671516Y-81010335D02*
G01*
X113172634Y-81217150D01*
X113316279Y-81276434D01*
X113322620Y-81282758D01*
X113323507Y-81286779D01*
X113358924Y-82167770D01*
X113355832Y-82176174D01*
X113347703Y-82179931D01*
X113347176Y-82179940D01*
X113152031Y-82178993D01*
X113143933Y-82178954D01*
X113143932Y-82178954D01*
X113143928Y-82178954D01*
X112928457Y-82210157D01*
X112928455Y-82210157D01*
X112928451Y-82210158D01*
X112928446Y-82210159D01*
X112928439Y-82210161D01*
X112712975Y-82273610D01*
X112497489Y-82369315D01*
X112497487Y-82369316D01*
X112289822Y-82492629D01*
X112280958Y-82493907D01*
X112275575Y-82490842D01*
X112111485Y-82326752D01*
X112108058Y-82318479D01*
X112109543Y-82312774D01*
X112216182Y-82122012D01*
X112327136Y-81891280D01*
X112438091Y-81628297D01*
X112549045Y-81333065D01*
X112655994Y-81017403D01*
X112661894Y-81010669D01*
X112670829Y-81010078D01*
X112671516Y-81010335D01*
G37*
%TD.AperFunction*%
%TD*%
M02*
