%TF.GenerationSoftware,KiCad,Pcbnew,7.0.8*%
%TF.CreationDate,2023-10-16T17:27:27+02:00*%
%TF.ProjectId,LvL_shifter_shield,4c764c5f-7368-4696-9674-65725f736869,rev?*%
%TF.SameCoordinates,Original*%
%TF.FileFunction,Copper,L4,Bot*%
%TF.FilePolarity,Positive*%
%FSLAX46Y46*%
G04 Gerber Fmt 4.6, Leading zero omitted, Abs format (unit mm)*
G04 Created by KiCad (PCBNEW 7.0.8) date 2023-10-16 17:27:27*
%MOMM*%
%LPD*%
G01*
G04 APERTURE LIST*
G04 Aperture macros list*
%AMRoundRect*
0 Rectangle with rounded corners*
0 $1 Rounding radius*
0 $2 $3 $4 $5 $6 $7 $8 $9 X,Y pos of 4 corners*
0 Add a 4 corners polygon primitive as box body*
4,1,4,$2,$3,$4,$5,$6,$7,$8,$9,$2,$3,0*
0 Add four circle primitives for the rounded corners*
1,1,$1+$1,$2,$3*
1,1,$1+$1,$4,$5*
1,1,$1+$1,$6,$7*
1,1,$1+$1,$8,$9*
0 Add four rect primitives between the rounded corners*
20,1,$1+$1,$2,$3,$4,$5,0*
20,1,$1+$1,$4,$5,$6,$7,0*
20,1,$1+$1,$6,$7,$8,$9,0*
20,1,$1+$1,$8,$9,$2,$3,0*%
G04 Aperture macros list end*
%TA.AperFunction,ComponentPad*%
%ADD10RoundRect,0.250000X0.750000X-0.600000X0.750000X0.600000X-0.750000X0.600000X-0.750000X-0.600000X0*%
%TD*%
%TA.AperFunction,ComponentPad*%
%ADD11O,2.000000X1.700000*%
%TD*%
%TA.AperFunction,ComponentPad*%
%ADD12R,1.700000X1.700000*%
%TD*%
%TA.AperFunction,ComponentPad*%
%ADD13O,1.700000X1.700000*%
%TD*%
%TA.AperFunction,SMDPad,CuDef*%
%ADD14RoundRect,0.250000X0.400000X0.625000X-0.400000X0.625000X-0.400000X-0.625000X0.400000X-0.625000X0*%
%TD*%
%TA.AperFunction,SMDPad,CuDef*%
%ADD15RoundRect,0.250000X-0.400000X-0.625000X0.400000X-0.625000X0.400000X0.625000X-0.400000X0.625000X0*%
%TD*%
%TA.AperFunction,SMDPad,CuDef*%
%ADD16RoundRect,0.250000X-0.412500X-0.650000X0.412500X-0.650000X0.412500X0.650000X-0.412500X0.650000X0*%
%TD*%
%TA.AperFunction,ViaPad*%
%ADD17C,0.600000*%
%TD*%
%TA.AperFunction,ViaPad*%
%ADD18C,0.800000*%
%TD*%
%TA.AperFunction,Conductor*%
%ADD19C,0.150000*%
%TD*%
%TA.AperFunction,Conductor*%
%ADD20C,0.250000*%
%TD*%
G04 APERTURE END LIST*
D10*
%TO.P,J4,1,Pin_1*%
%TO.N,GND*%
X109067600Y-87325200D03*
D11*
%TO.P,J4,2,Pin_2*%
%TO.N,+5V*%
X109067600Y-84825200D03*
%TD*%
D12*
%TO.P,J1,1,Pin_1*%
%TO.N,/G1*%
X137160000Y-86995000D03*
D13*
%TO.P,J1,2,Pin_2*%
%TO.N,/R1*%
X137160000Y-84455000D03*
%TO.P,J1,3,Pin_3*%
%TO.N,GND*%
X134620000Y-86995000D03*
%TO.P,J1,4,Pin_4*%
%TO.N,/B1*%
X134620000Y-84455000D03*
%TO.P,J1,5,Pin_5*%
%TO.N,/G2*%
X132080000Y-86995000D03*
%TO.P,J1,6,Pin_6*%
%TO.N,/R2*%
X132080000Y-84455000D03*
%TO.P,J1,7,Pin_7*%
%TO.N,/E*%
X129540000Y-86995000D03*
%TO.P,J1,8,Pin_8*%
%TO.N,/B2*%
X129540000Y-84455000D03*
%TO.P,J1,9,Pin_9*%
%TO.N,/B*%
X127000000Y-86995000D03*
%TO.P,J1,10,Pin_10*%
%TO.N,/A*%
X127000000Y-84455000D03*
%TO.P,J1,11,Pin_11*%
%TO.N,/D*%
X124460000Y-86995000D03*
%TO.P,J1,12,Pin_12*%
%TO.N,/C*%
X124460000Y-84455000D03*
%TO.P,J1,13,Pin_13*%
%TO.N,/LAT*%
X121920000Y-86995000D03*
%TO.P,J1,14,Pin_14*%
%TO.N,/CLK*%
X121920000Y-84455000D03*
%TO.P,J1,15,Pin_15*%
%TO.N,GND*%
X119380000Y-86995000D03*
%TO.P,J1,16,Pin_16*%
%TO.N,/OE*%
X119380000Y-84455000D03*
%TD*%
D14*
%TO.P,R2,1*%
%TO.N,GND*%
X119380000Y-81280000D03*
%TO.P,R2,2*%
%TO.N,Net-(U2-OE)*%
X116280000Y-81280000D03*
%TD*%
D12*
%TO.P,J3,1,Pin_1*%
%TO.N,/PB22*%
X141605000Y-93345000D03*
D13*
%TO.P,J3,2,Pin_2*%
%TO.N,/PB23*%
X139065000Y-93345000D03*
%TO.P,J3,3,Pin_3*%
%TO.N,/RESET2*%
X136525000Y-93345000D03*
%TO.P,J3,4,Pin_4*%
%TO.N,GND*%
X133985000Y-93345000D03*
%TO.P,J3,5,Pin_5*%
%TO.N,/PB10*%
X131445000Y-93345000D03*
%TO.P,J3,6,Pin_6*%
%TO.N,/PB11*%
X128905000Y-93345000D03*
%TO.P,J3,7,Pin_7*%
%TO.N,/PA07*%
X126365000Y-93345000D03*
%TO.P,J3,8,Pin_8*%
%TO.N,/PA05*%
X123825000Y-93345000D03*
%TO.P,J3,9,Pin_9*%
%TO.N,/PA04*%
X121285000Y-93345000D03*
%TO.P,J3,10,Pin_10*%
%TO.N,/PA06*%
X118745000Y-93345000D03*
%TO.P,J3,11,Pin_11*%
%TO.N,/PA18*%
X116205000Y-93345000D03*
%TO.P,J3,12,Pin_12*%
%TO.N,/PA20*%
X113665000Y-93345000D03*
%TO.P,J3,13,Pin_13*%
%TO.N,/PA21*%
X111125000Y-93345000D03*
%TO.P,J3,14,Pin_14*%
%TO.N,/PA16*%
X108585000Y-93345000D03*
%TO.P,J3,15,Pin_15*%
%TO.N,/PA19*%
X106045000Y-93345000D03*
%TD*%
D15*
%TO.P,R1,1*%
%TO.N,GND*%
X139420000Y-81280000D03*
%TO.P,R1,2*%
%TO.N,Net-(U1-OE)*%
X142520000Y-81280000D03*
%TD*%
D16*
%TO.P,C1,1*%
%TO.N,+5V*%
X110197500Y-90170000D03*
%TO.P,C1,2*%
%TO.N,GND*%
X113322500Y-90170000D03*
%TD*%
%TO.P,C2,1*%
%TO.N,GND*%
X110197500Y-81280000D03*
%TO.P,C2,2*%
%TO.N,+3.3V*%
X113322500Y-81280000D03*
%TD*%
D12*
%TO.P,J2,1,Pin_1*%
%TO.N,/PA17*%
X106019600Y-78105000D03*
D13*
%TO.P,J2,2,Pin_2*%
%TO.N,+3.3V*%
X108559600Y-78105000D03*
%TO.P,J2,3,Pin_3*%
%TO.N,/PA03*%
X111099600Y-78105000D03*
%TO.P,J2,4,Pin_4*%
%TO.N,/PA02*%
X113639600Y-78105000D03*
%TO.P,J2,5,Pin_5*%
%TO.N,/PB02*%
X116179600Y-78105000D03*
%TO.P,J2,6,Pin_6*%
%TO.N,/PA11*%
X118719600Y-78105000D03*
%TO.P,J2,7,Pin_7*%
%TO.N,/PA10*%
X121259600Y-78105000D03*
%TO.P,J2,8,Pin_8*%
%TO.N,/PB08*%
X123799600Y-78105000D03*
%TO.P,J2,9,Pin_9*%
%TO.N,/PB09*%
X126339600Y-78105000D03*
%TO.P,J2,10,Pin_10*%
%TO.N,/PA09*%
X128879600Y-78105000D03*
%TO.P,J2,11,Pin_11*%
%TO.N,/PB03*%
X131419600Y-78105000D03*
%TO.P,J2,12,Pin_12*%
%TO.N,/+5V2*%
X133959600Y-78105000D03*
%TO.P,J2,13,Pin_13*%
%TO.N,/RESET*%
X136499600Y-78105000D03*
%TO.P,J2,14,Pin_14*%
%TO.N,GND*%
X139039600Y-78105000D03*
%TO.P,J2,15,Pin_15*%
%TO.N,/VIN*%
X141579600Y-78105000D03*
%TD*%
D17*
%TO.N,/PA11*%
X118211600Y-81254600D03*
%TO.N,/PA10*%
X121005600Y-80195900D03*
%TO.N,/PA09*%
X127609600Y-80238600D03*
%TO.N,/PA17*%
X111302800Y-80264000D03*
%TO.N,/PA03*%
X111099600Y-79578200D03*
D18*
%TO.N,+3.3V*%
X108737400Y-82880200D03*
%TO.N,+5V*%
X107238800Y-85547200D03*
X117300798Y-85887100D03*
X141198600Y-88798400D03*
%TO.N,GND*%
X137936900Y-81280000D03*
X111582200Y-90144600D03*
X108839000Y-81280000D03*
X120548400Y-81280000D03*
%TO.N,+3.3V*%
X144094200Y-85852000D03*
X111328200Y-85496400D03*
D17*
%TO.N,/R1*%
X139014200Y-84963000D03*
%TO.N,/G1*%
X138988800Y-86049500D03*
%TO.N,/B1*%
X138988800Y-84201000D03*
%TO.N,/R2*%
X139014200Y-83489800D03*
%TO.N,/G2*%
X139014200Y-86791800D03*
%TO.N,/B2*%
X140462000Y-83176100D03*
%TO.N,/E*%
X138988800Y-88265000D03*
%TO.N,/A*%
X117144800Y-83312000D03*
%TO.N,/B*%
X139928600Y-88468200D03*
%TO.N,/C*%
X118160800Y-83185000D03*
%TO.N,/D*%
X117348000Y-87122000D03*
%TO.N,/CLK*%
X117584700Y-84685500D03*
%TO.N,/PA17*%
X144754600Y-86461600D03*
%TO.N,/PA03*%
X113436400Y-83032600D03*
%TO.N,/PA11*%
X116281200Y-83176100D03*
X112734972Y-87018757D03*
%TO.N,/PA10*%
X111963200Y-84886800D03*
%TO.N,/PA09*%
X112598200Y-84404200D03*
%TO.N,/PA07*%
X143256000Y-87706200D03*
%TO.N,/PA05*%
X116027200Y-89992200D03*
X113182400Y-83896200D03*
X112445800Y-88188800D03*
%TO.N,/PA04*%
X129463800Y-91109800D03*
X127482600Y-91109800D03*
X142753323Y-88879923D03*
%TO.N,/PA06*%
X119405400Y-90838500D03*
X113284000Y-87452200D03*
X116840000Y-89281000D03*
%TO.N,/PA18*%
X143560800Y-84302600D03*
X122097800Y-90297000D03*
%TO.N,/PA20*%
X143408400Y-86995000D03*
%TO.N,/PA21*%
X114833400Y-91033600D03*
X142138400Y-83261200D03*
%TO.N,/PA16*%
X143390377Y-85021177D03*
X115468400Y-90678000D03*
%TO.N,/PA19*%
X143078200Y-83540600D03*
X144348200Y-88874600D03*
%TO.N,Net-(U1-OE)*%
X144094200Y-82473800D03*
%TO.N,Net-(U2-OE)*%
X117368077Y-81223877D03*
X112318800Y-86258400D03*
%TD*%
D19*
%TO.N,/PA11*%
X118211600Y-78613000D02*
X118719600Y-78105000D01*
X118211600Y-81254600D02*
X118211600Y-78613000D01*
%TO.N,/PA09*%
X127609600Y-79375000D02*
X128879600Y-78105000D01*
X127609600Y-80238600D02*
X127609600Y-79375000D01*
%TO.N,/PA10*%
X121005600Y-80195900D02*
X121259600Y-79941900D01*
X121259600Y-79941900D02*
X121259600Y-78105000D01*
%TO.N,Net-(U2-OE)*%
X117311954Y-81280000D02*
X116280000Y-81280000D01*
X117368077Y-81223877D02*
X117311954Y-81280000D01*
%TO.N,/PA17*%
X107967800Y-80053200D02*
X106019600Y-78105000D01*
X111092000Y-80053200D02*
X107967800Y-80053200D01*
X111302800Y-80264000D02*
X111092000Y-80053200D01*
D20*
%TO.N,GND*%
X139420000Y-78485400D02*
X139039600Y-78105000D01*
%TO.N,+3.3V*%
X108737400Y-82880200D02*
X111023400Y-82880200D01*
X111023400Y-82880200D02*
X111328200Y-83185000D01*
%TO.N,GND*%
X108839000Y-81280000D02*
X110197500Y-81280000D01*
%TO.N,+5V*%
X107238800Y-85547200D02*
X107238800Y-88747600D01*
X110566200Y-89179400D02*
X110197500Y-89548100D01*
X115646200Y-85953600D02*
X112420400Y-89179400D01*
X141198600Y-90297000D02*
X139852400Y-91643200D01*
X111670700Y-91643200D02*
X110197500Y-90170000D01*
X117300798Y-85887100D02*
X117234298Y-85953600D01*
X117234298Y-85953600D02*
X115646200Y-85953600D01*
X112420400Y-89179400D02*
X110566200Y-89179400D01*
X107238800Y-88747600D02*
X108661200Y-90170000D01*
X108661200Y-90170000D02*
X110197500Y-90170000D01*
X110197500Y-89548100D02*
X110197500Y-90170000D01*
X141198600Y-88798400D02*
X141198600Y-90297000D01*
X139852400Y-91643200D02*
X111670700Y-91643200D01*
%TO.N,GND*%
X139420000Y-81280000D02*
X137936900Y-81280000D01*
X111582200Y-90144600D02*
X111607600Y-90170000D01*
X120548400Y-81280000D02*
X119380000Y-81280000D01*
X111607600Y-90170000D02*
X113322500Y-90170000D01*
%TO.N,+3.3V*%
X115163600Y-82651600D02*
X134493000Y-82651600D01*
X111328200Y-85496400D02*
X111328200Y-83185000D01*
X111328200Y-83185000D02*
X113233200Y-81280000D01*
X143154400Y-82651600D02*
X144094200Y-83591400D01*
X113233200Y-81280000D02*
X113322500Y-81280000D01*
X113322500Y-81280000D02*
X113792000Y-81280000D01*
X144094200Y-83591400D02*
X144094200Y-85852000D01*
X113792000Y-81280000D02*
X115163600Y-82651600D01*
X134493000Y-82651600D02*
X143154400Y-82651600D01*
D19*
%TO.N,/PA11*%
X112734972Y-87018757D02*
X116281200Y-83472529D01*
X116281200Y-83472529D02*
X116281200Y-83176100D01*
%TO.N,/PA05*%
X111843800Y-85830352D02*
X111843800Y-87586800D01*
X113182400Y-84491752D02*
X111843800Y-85830352D01*
X111843800Y-87586800D02*
X112445800Y-88188800D01*
X113182400Y-83896200D02*
X113182400Y-84491752D01*
%TO.N,/PA04*%
X129463800Y-91109800D02*
X127482600Y-91109800D01*
%TO.N,/PA06*%
X118397500Y-90838500D02*
X116840000Y-89281000D01*
X119405400Y-90838500D02*
X118397500Y-90838500D01*
%TO.N,/PA18*%
X140690600Y-84302600D02*
X143560800Y-84302600D01*
X135890000Y-85928200D02*
X136093200Y-85725000D01*
X122910600Y-89484200D02*
X135128000Y-89484200D01*
X136093200Y-85725000D02*
X138099800Y-85725000D01*
X135890000Y-88722200D02*
X135890000Y-85928200D01*
X122097800Y-90297000D02*
X122910600Y-89484200D01*
X135128000Y-89484200D02*
X135890000Y-88722200D01*
X138099800Y-85725000D02*
X138379200Y-85445600D01*
X138379200Y-85445600D02*
X139547600Y-85445600D01*
X139547600Y-85445600D02*
X140690600Y-84302600D01*
%TO.N,/PA21*%
X118059200Y-87082552D02*
X117544752Y-87597000D01*
X118059200Y-84023200D02*
X118059200Y-87082552D01*
X140039100Y-83651100D02*
X139395200Y-83007200D01*
X119075200Y-83007200D02*
X118059200Y-84023200D01*
X141748500Y-83651100D02*
X140039100Y-83651100D01*
X114833400Y-90373200D02*
X114833400Y-91033600D01*
X139395200Y-83007200D02*
X119075200Y-83007200D01*
X142138400Y-83261200D02*
X141748500Y-83651100D01*
X117544752Y-87661848D02*
X114833400Y-90373200D01*
X117544752Y-87597000D02*
X117544752Y-87661848D01*
%TO.N,/PA16*%
X116103400Y-91313000D02*
X126607648Y-91313000D01*
X115468400Y-90678000D02*
X116103400Y-91313000D01*
X127826848Y-90093800D02*
X136474200Y-90093800D01*
X140993500Y-85574500D02*
X142837054Y-85574500D01*
X126607648Y-91313000D02*
X127826848Y-90093800D01*
X142837054Y-85574500D02*
X143390377Y-85021177D01*
X136474200Y-90093800D02*
X140993500Y-85574500D01*
%TO.N,/PA19*%
X107213400Y-92176600D02*
X106045000Y-93345000D01*
X141503400Y-92176600D02*
X107213400Y-92176600D01*
X144348200Y-89331800D02*
X141503400Y-92176600D01*
X144348200Y-88874600D02*
X144348200Y-89331800D01*
%TO.N,Net-(U1-OE)*%
X144094200Y-82473800D02*
X144094200Y-82067400D01*
X143306800Y-81280000D02*
X142520000Y-81280000D01*
X144094200Y-82067400D02*
X143306800Y-81280000D01*
%TD*%
M02*
