%TF.GenerationSoftware,KiCad,Pcbnew,7.0.8*%
%TF.CreationDate,2023-11-27T23:44:53+01:00*%
%TF.ProjectId,LvL_shifter_shield,4c764c5f-7368-4696-9674-65725f736869,rev?*%
%TF.SameCoordinates,Original*%
%TF.FileFunction,Copper,L2,Inr*%
%TF.FilePolarity,Positive*%
%FSLAX46Y46*%
G04 Gerber Fmt 4.6, Leading zero omitted, Abs format (unit mm)*
G04 Created by KiCad (PCBNEW 7.0.8) date 2023-11-27 23:44:53*
%MOMM*%
%LPD*%
G01*
G04 APERTURE LIST*
G04 Aperture macros list*
%AMRoundRect*
0 Rectangle with rounded corners*
0 $1 Rounding radius*
0 $2 $3 $4 $5 $6 $7 $8 $9 X,Y pos of 4 corners*
0 Add a 4 corners polygon primitive as box body*
4,1,4,$2,$3,$4,$5,$6,$7,$8,$9,$2,$3,0*
0 Add four circle primitives for the rounded corners*
1,1,$1+$1,$2,$3*
1,1,$1+$1,$4,$5*
1,1,$1+$1,$6,$7*
1,1,$1+$1,$8,$9*
0 Add four rect primitives between the rounded corners*
20,1,$1+$1,$2,$3,$4,$5,0*
20,1,$1+$1,$4,$5,$6,$7,0*
20,1,$1+$1,$6,$7,$8,$9,0*
20,1,$1+$1,$8,$9,$2,$3,0*%
G04 Aperture macros list end*
%TA.AperFunction,ComponentPad*%
%ADD10RoundRect,0.250000X0.750000X-0.600000X0.750000X0.600000X-0.750000X0.600000X-0.750000X-0.600000X0*%
%TD*%
%TA.AperFunction,ComponentPad*%
%ADD11O,2.000000X1.700000*%
%TD*%
%TA.AperFunction,ComponentPad*%
%ADD12R,1.700000X1.700000*%
%TD*%
%TA.AperFunction,ComponentPad*%
%ADD13O,1.700000X1.700000*%
%TD*%
%TA.AperFunction,ViaPad*%
%ADD14C,0.800000*%
%TD*%
%TA.AperFunction,ViaPad*%
%ADD15C,0.600000*%
%TD*%
%TA.AperFunction,Conductor*%
%ADD16C,0.150000*%
%TD*%
G04 APERTURE END LIST*
D10*
%TO.N,GND*%
%TO.C,J1*%
X109296200Y-87310600D03*
D11*
%TO.N,Net-(J1-Pin_2)*%
X109296200Y-84810600D03*
%TD*%
D12*
%TO.N,/G1*%
%TO.C,J2*%
X137160000Y-86995000D03*
D13*
%TO.N,/R1*%
X137160000Y-84455000D03*
%TO.N,GND*%
X134620000Y-86995000D03*
%TO.N,/B1*%
X134620000Y-84455000D03*
%TO.N,/G2*%
X132080000Y-86995000D03*
%TO.N,/R2*%
X132080000Y-84455000D03*
%TO.N,/E*%
X129540000Y-86995000D03*
%TO.N,/B2*%
X129540000Y-84455000D03*
%TO.N,/B*%
X127000000Y-86995000D03*
%TO.N,/A*%
X127000000Y-84455000D03*
%TO.N,/D*%
X124460000Y-86995000D03*
%TO.N,/C*%
X124460000Y-84455000D03*
%TO.N,/LAT*%
X121920000Y-86995000D03*
%TO.N,/CLK*%
X121920000Y-84455000D03*
%TO.N,GND*%
X119380000Y-86995000D03*
%TO.N,/OE*%
X119380000Y-84455000D03*
%TD*%
D12*
%TO.N,/PB22*%
%TO.C,J4*%
X141605000Y-93345000D03*
D13*
%TO.N,/PB23*%
X139065000Y-93345000D03*
%TO.N,/RESET2*%
X136525000Y-93345000D03*
%TO.N,GND*%
X133985000Y-93345000D03*
%TO.N,/PB10*%
X131445000Y-93345000D03*
%TO.N,/PB11*%
X128905000Y-93345000D03*
%TO.N,/PA07*%
X126365000Y-93345000D03*
%TO.N,/PA05*%
X123825000Y-93345000D03*
%TO.N,/PA04*%
X121285000Y-93345000D03*
%TO.N,/PA06*%
X118745000Y-93345000D03*
%TO.N,/PA18*%
X116205000Y-93345000D03*
%TO.N,/PA20*%
X113665000Y-93345000D03*
%TO.N,/PA21*%
X111125000Y-93345000D03*
%TO.N,/PA16*%
X108585000Y-93345000D03*
%TO.N,/PA19*%
X106045000Y-93345000D03*
%TD*%
D12*
%TO.N,/PA17*%
%TO.C,J3*%
X106019600Y-78105000D03*
D13*
%TO.N,+3.3V*%
X108559600Y-78105000D03*
%TO.N,/PA03*%
X111099600Y-78105000D03*
%TO.N,/PA02*%
X113639600Y-78105000D03*
%TO.N,/PB02*%
X116179600Y-78105000D03*
%TO.N,/PA11*%
X118719600Y-78105000D03*
%TO.N,/PA10*%
X121259600Y-78105000D03*
%TO.N,/PB08*%
X123799600Y-78105000D03*
%TO.N,/PB09*%
X126339600Y-78105000D03*
%TO.N,/PA09*%
X128879600Y-78105000D03*
%TO.N,/PB03*%
X131419600Y-78105000D03*
%TO.N,+5V*%
X133959600Y-78105000D03*
%TO.N,/RESET*%
X136499600Y-78105000D03*
%TO.N,GND*%
X139039600Y-78105000D03*
%TO.N,/VIN*%
X141579600Y-78105000D03*
%TD*%
D14*
%TO.N,+5V*%
X117300798Y-85887100D03*
X140919200Y-81686400D03*
X141198600Y-88798400D03*
%TO.N,GND*%
X129336800Y-81000600D03*
X137936900Y-81280000D03*
X108839000Y-81280000D03*
X115976400Y-81305400D03*
X118541800Y-89789000D03*
X138607800Y-90703400D03*
X133985000Y-90855800D03*
X133477000Y-81026000D03*
%TO.N,+3.3V*%
X109448600Y-82931000D03*
D15*
X144094200Y-82473800D03*
D14*
X144094200Y-85852000D03*
X106502200Y-80213200D03*
X111658400Y-85699600D03*
D15*
%TO.N,/R1*%
X139014200Y-84963000D03*
%TO.N,/G1*%
X138988800Y-86049500D03*
%TO.N,/B1*%
X138988800Y-84201000D03*
%TO.N,/R2*%
X139014200Y-83489800D03*
%TO.N,/G2*%
X139014200Y-86791800D03*
%TO.N,/B2*%
X140462000Y-83176100D03*
%TO.N,/E*%
X138988800Y-88265000D03*
%TO.N,/A*%
X117144800Y-83312000D03*
%TO.N,/B*%
X139928600Y-88468200D03*
%TO.N,/C*%
X118160800Y-83185000D03*
%TO.N,/D*%
X117348000Y-87122000D03*
%TO.N,/CLK*%
X117584700Y-84685500D03*
%TO.N,/PA17*%
X144754600Y-86461600D03*
X112242600Y-80086200D03*
%TO.N,/PA02*%
X113436400Y-83032600D03*
X111601107Y-79578700D03*
%TO.N,/PA11*%
X116281200Y-83176100D03*
X113389665Y-86364065D03*
X118211600Y-81254600D03*
%TO.N,/PA10*%
X119913400Y-80195900D03*
X111963200Y-84886800D03*
%TO.N,/PA09*%
X127609600Y-80238600D03*
X112598200Y-84404200D03*
%TO.N,/PA07*%
X143256000Y-87706200D03*
%TO.N,/PA05*%
X116027200Y-89992200D03*
X113182400Y-83896200D03*
X112445800Y-86461600D03*
%TO.N,/PA04*%
X129870200Y-90830400D03*
X127939800Y-90830400D03*
X142753323Y-88879923D03*
%TO.N,/PA06*%
X119405400Y-90838500D03*
X113021900Y-87096600D03*
X116840000Y-89281000D03*
%TO.N,/PA18*%
X143560800Y-84302600D03*
X122097800Y-90297000D03*
%TO.N,/PA20*%
X143408400Y-86995000D03*
%TO.N,/PA21*%
X114833400Y-91033600D03*
X142138400Y-83261200D03*
%TO.N,/PA16*%
X143390377Y-85021177D03*
X115468400Y-90678000D03*
%TO.N,/PA19*%
X143078200Y-83540600D03*
X143510000Y-88493600D03*
%TD*%
D16*
%TO.N,GND*%
X119380000Y-86385400D02*
X119380000Y-86995000D01*
%TO.N,/R1*%
X138506200Y-84455000D02*
X137160000Y-84455000D01*
X139014200Y-84963000D02*
X138506200Y-84455000D01*
%TO.N,/G1*%
X138043300Y-86995000D02*
X137160000Y-86995000D01*
X138988800Y-86049500D02*
X138043300Y-86995000D01*
%TO.N,/B1*%
X135813800Y-83261200D02*
X134620000Y-84455000D01*
X138988800Y-84201000D02*
X138049000Y-83261200D01*
X138049000Y-83261200D02*
X135813800Y-83261200D01*
%TO.N,/R2*%
X139014200Y-83489800D02*
X138353800Y-82829400D01*
X133705600Y-82829400D02*
X132080000Y-84455000D01*
X138353800Y-82829400D02*
X133705600Y-82829400D01*
%TO.N,/G2*%
X139014200Y-86791800D02*
X139522200Y-86283800D01*
X139522200Y-86283800D02*
X139522200Y-85801200D01*
X137363200Y-85852000D02*
X133223000Y-85852000D01*
X139522200Y-85801200D02*
X139242800Y-85521800D01*
X137693400Y-85521800D02*
X137363200Y-85852000D01*
X133223000Y-85852000D02*
X132080000Y-86995000D01*
X139242800Y-85521800D02*
X137693400Y-85521800D01*
%TO.N,/B2*%
X140462000Y-83176100D02*
X139658100Y-82372200D01*
X131622800Y-82372200D02*
X129540000Y-84455000D01*
X139658100Y-82372200D02*
X131622800Y-82372200D01*
%TO.N,/E*%
X130810000Y-88265000D02*
X129540000Y-86995000D01*
X138988800Y-88265000D02*
X130810000Y-88265000D01*
%TO.N,/A*%
X117144800Y-83312000D02*
X118110000Y-82346800D01*
X124891800Y-82346800D02*
X127000000Y-84455000D01*
X118110000Y-82346800D02*
X124891800Y-82346800D01*
%TO.N,/B*%
X128803400Y-88798400D02*
X127000000Y-86995000D01*
X139598400Y-88798400D02*
X128803400Y-88798400D01*
X139928600Y-88468200D02*
X139598400Y-88798400D01*
%TO.N,/C*%
X118160800Y-83185000D02*
X118541800Y-82804000D01*
X122809000Y-82804000D02*
X124460000Y-84455000D01*
X118541800Y-82804000D02*
X122809000Y-82804000D01*
%TO.N,/D*%
X123342400Y-85877400D02*
X124460000Y-86995000D01*
X117348000Y-87122000D02*
X118592600Y-85877400D01*
X118592600Y-85877400D02*
X123342400Y-85877400D01*
%TO.N,/CLK*%
X117584700Y-84573900D02*
X118948200Y-83210400D01*
X120675400Y-83210400D02*
X121920000Y-84455000D01*
X117584700Y-84685500D02*
X117584700Y-84573900D01*
X118948200Y-83210400D02*
X120675400Y-83210400D01*
%TO.N,/PA17*%
X144754600Y-84213700D02*
X144754600Y-86461600D01*
X140144500Y-79603600D02*
X144754600Y-84213700D01*
X112725200Y-79603600D02*
X140144500Y-79603600D01*
X112242600Y-80086200D02*
X112725200Y-79603600D01*
%TO.N,/PA02*%
X113657400Y-84589600D02*
X113657400Y-83253600D01*
X111023400Y-86360000D02*
X111150400Y-86487000D01*
X111150400Y-86487000D02*
X111748648Y-86487000D01*
X112260400Y-85986600D02*
X113657400Y-84589600D01*
X111601107Y-79578700D02*
X111023400Y-80156407D01*
X113657400Y-83253600D02*
X113436400Y-83032600D01*
X111023400Y-80156407D02*
X111023400Y-86360000D01*
X112249048Y-85986600D02*
X112260400Y-85986600D01*
X111748648Y-86487000D02*
X112249048Y-85986600D01*
%TO.N,/PA11*%
X116290100Y-83176100D02*
X118211600Y-81254600D01*
X116281200Y-83176100D02*
X116290100Y-83176100D01*
X118331000Y-78493600D02*
X118719600Y-78105000D01*
X116366300Y-83176100D02*
X116281200Y-83176100D01*
X116281200Y-83176100D02*
X116281200Y-83159600D01*
%TO.N,/PA10*%
X111963200Y-82499200D02*
X111963200Y-84886800D01*
X119913400Y-80195900D02*
X119829100Y-80111600D01*
X119829100Y-80111600D02*
X114350800Y-80111600D01*
X114350800Y-80111600D02*
X111963200Y-82499200D01*
%TO.N,/PA09*%
X127177800Y-80670400D02*
X114858800Y-80670400D01*
X114858800Y-80670400D02*
X112598200Y-82931000D01*
X127609600Y-80238600D02*
X127177800Y-80670400D01*
X112598200Y-82931000D02*
X112598200Y-84404200D01*
%TO.N,/PA07*%
X130251200Y-89458800D02*
X126365000Y-93345000D01*
X141503400Y-89458800D02*
X130251200Y-89458800D01*
X143256000Y-87706200D02*
X141503400Y-89458800D01*
%TO.N,/PA05*%
X112445800Y-87325200D02*
X115112800Y-89992200D01*
X112445800Y-86461600D02*
X112445800Y-87325200D01*
X115112800Y-89992200D02*
X116027200Y-89992200D01*
%TO.N,/PA04*%
X123799600Y-90830400D02*
X121285000Y-93345000D01*
X127939800Y-90830400D02*
X123799600Y-90830400D01*
X141844246Y-89789000D02*
X142753323Y-88879923D01*
X129870200Y-90830400D02*
X130911600Y-89789000D01*
X130911600Y-89789000D02*
X141844246Y-89789000D01*
%TO.N,/PA06*%
X119405400Y-90838500D02*
X119405400Y-92684600D01*
X119405400Y-92684600D02*
X118745000Y-93345000D01*
X113021900Y-87096600D02*
X115206300Y-89281000D01*
X115206300Y-89281000D02*
X116840000Y-89281000D01*
%TO.N,/PA18*%
X119253000Y-90297000D02*
X116205000Y-93345000D01*
X122097800Y-90297000D02*
X119253000Y-90297000D01*
%TO.N,/PA20*%
X140512800Y-88747600D02*
X140157200Y-89103200D01*
X140157200Y-89103200D02*
X117906800Y-89103200D01*
X140512800Y-88290400D02*
X140512800Y-88747600D01*
X117906800Y-89103200D02*
X113665000Y-93345000D01*
X141808200Y-86995000D02*
X140512800Y-88290400D01*
X143408400Y-86995000D02*
X141808200Y-86995000D01*
%TO.N,/PA21*%
X114833400Y-91033600D02*
X113842800Y-92024200D01*
X112445800Y-92024200D02*
X111125000Y-93345000D01*
X113842800Y-92024200D02*
X112445800Y-92024200D01*
%TO.N,/PA16*%
X115349000Y-90558600D02*
X112158800Y-90558600D01*
X110642400Y-92075000D02*
X109855000Y-92075000D01*
X109855000Y-92075000D02*
X108585000Y-93345000D01*
X112158800Y-90558600D02*
X110642400Y-92075000D01*
X115468400Y-90678000D02*
X115349000Y-90558600D01*
%TO.N,/PA19*%
X142915377Y-85790777D02*
X142915377Y-83703423D01*
X142915377Y-83703423D02*
X143078200Y-83540600D01*
X143883400Y-88120200D02*
X143883400Y-86758800D01*
X143883400Y-86758800D02*
X142915377Y-85790777D01*
X143510000Y-88493600D02*
X143883400Y-88120200D01*
%TD*%
%TA.AperFunction,Conductor*%
%TO.N,/PA07*%
G36*
X127521370Y-92097208D02*
G01*
X127612791Y-92188629D01*
X127616218Y-92196902D01*
X127613735Y-92204109D01*
X127389596Y-92490741D01*
X127303669Y-92745392D01*
X127286019Y-93000084D01*
X127260432Y-93293831D01*
X127260003Y-93296108D01*
X127153960Y-93657790D01*
X127148344Y-93664765D01*
X127139441Y-93665725D01*
X127138267Y-93665312D01*
X126368785Y-93347562D01*
X126362447Y-93341238D01*
X126044687Y-92571732D01*
X126044696Y-92562777D01*
X126051035Y-92556452D01*
X126052193Y-92556044D01*
X126413893Y-92449993D01*
X126416164Y-92449565D01*
X126709914Y-92423980D01*
X126964605Y-92406329D01*
X127219258Y-92320402D01*
X127505892Y-92096263D01*
X127514518Y-92093868D01*
X127521370Y-92097208D01*
G37*
%TD.AperFunction*%
%TD*%
%TA.AperFunction,Conductor*%
%TO.N,/PA06*%
G36*
X119600191Y-90918887D02*
G01*
X119670977Y-90948464D01*
X119677289Y-90954816D01*
X119677262Y-90963771D01*
X119676916Y-90964521D01*
X119623087Y-91071437D01*
X119622712Y-91072077D01*
X119567953Y-91153296D01*
X119522595Y-91224104D01*
X119522595Y-91224105D01*
X119491770Y-91310423D01*
X119491769Y-91310429D01*
X119481347Y-91427835D01*
X119477202Y-91435772D01*
X119469693Y-91438500D01*
X119341107Y-91438500D01*
X119332834Y-91435073D01*
X119329453Y-91427835D01*
X119319030Y-91310428D01*
X119288203Y-91224104D01*
X119242845Y-91153296D01*
X119188086Y-91072077D01*
X119187716Y-91071447D01*
X119133881Y-90964518D01*
X119133222Y-90955591D01*
X119139071Y-90948810D01*
X119139808Y-90948469D01*
X119400890Y-90839383D01*
X119409844Y-90839357D01*
X119600191Y-90918887D01*
G37*
%TD.AperFunction*%
%TD*%
%TA.AperFunction,Conductor*%
%TO.N,/G1*%
G36*
X138018063Y-86150772D02*
G01*
X138121552Y-86224857D01*
X138121558Y-86224860D01*
X138121559Y-86224861D01*
X138233096Y-86286729D01*
X138233102Y-86286732D01*
X138233104Y-86286733D01*
X138258515Y-86296732D01*
X138344644Y-86330624D01*
X138344648Y-86330625D01*
X138344656Y-86330628D01*
X138456208Y-86356541D01*
X138563406Y-86364163D01*
X138570849Y-86367561D01*
X138665864Y-86462576D01*
X138669291Y-86470849D01*
X138666174Y-86478800D01*
X138541063Y-86613851D01*
X138541057Y-86613859D01*
X138408297Y-86795781D01*
X138275530Y-87016326D01*
X138142765Y-87275482D01*
X138142761Y-87275491D01*
X138015692Y-87560484D01*
X138009193Y-87566644D01*
X138000241Y-87566405D01*
X137998434Y-87565399D01*
X137991194Y-87560484D01*
X137189669Y-87016329D01*
X137170999Y-87003654D01*
X137166079Y-86996172D01*
X137167891Y-86987402D01*
X137169293Y-86985706D01*
X138002985Y-86152014D01*
X138011257Y-86148588D01*
X138018063Y-86150772D01*
G37*
%TD.AperFunction*%
%TD*%
%TA.AperFunction,Conductor*%
%TO.N,/B1*%
G36*
X135821641Y-83189835D02*
G01*
X135825497Y-83197917D01*
X135825513Y-83198530D01*
X135825513Y-83327273D01*
X135822086Y-83335546D01*
X135816904Y-83338557D01*
X135520673Y-83419687D01*
X135520673Y-83419688D01*
X135435615Y-83644430D01*
X135460958Y-83971833D01*
X135487210Y-84361779D01*
X135487016Y-84364823D01*
X135408054Y-84766268D01*
X135403095Y-84773724D01*
X135394316Y-84775490D01*
X135392101Y-84774821D01*
X134623487Y-84456856D01*
X134617153Y-84450527D01*
X134617146Y-84450511D01*
X134581762Y-84364823D01*
X134299016Y-83680107D01*
X134299025Y-83671155D01*
X134304952Y-83665009D01*
X134519348Y-83566703D01*
X134661632Y-83501463D01*
X134922561Y-83366908D01*
X134922938Y-83366730D01*
X135152486Y-83268358D01*
X135154565Y-83267690D01*
X135428334Y-83207203D01*
X135430231Y-83206945D01*
X135813200Y-83186846D01*
X135821641Y-83189835D01*
G37*
%TD.AperFunction*%
%TD*%
%TA.AperFunction,Conductor*%
%TO.N,/PA02*%
G36*
X113724700Y-83032561D02*
G01*
X113732962Y-83036015D01*
X113736361Y-83044300D01*
X113735984Y-83158699D01*
X113734992Y-83248187D01*
X113733808Y-83325471D01*
X113732816Y-83414959D01*
X113732438Y-83529398D01*
X113728984Y-83537659D01*
X113720738Y-83541059D01*
X113591937Y-83541059D01*
X113583664Y-83537632D01*
X113580477Y-83531718D01*
X113579999Y-83529398D01*
X113560931Y-83436770D01*
X113503668Y-83383678D01*
X113503666Y-83383677D01*
X113503665Y-83383676D01*
X113421326Y-83353099D01*
X113326030Y-83316880D01*
X113323391Y-83315467D01*
X113235489Y-83252739D01*
X113230745Y-83245144D01*
X113232761Y-83236419D01*
X113233985Y-83234968D01*
X113432955Y-83035061D01*
X113441217Y-83031616D01*
X113724700Y-83032561D01*
G37*
%TD.AperFunction*%
%TD*%
%TA.AperFunction,Conductor*%
%TO.N,/PA05*%
G36*
X115916889Y-89725871D02*
G01*
X115917235Y-89726621D01*
X116026315Y-89987689D01*
X116026342Y-89996644D01*
X116026315Y-89996711D01*
X115917235Y-90257777D01*
X115910883Y-90264089D01*
X115901928Y-90264062D01*
X115901178Y-90263716D01*
X115835395Y-90230596D01*
X115794256Y-90209884D01*
X115793621Y-90209512D01*
X115712403Y-90154753D01*
X115641593Y-90109395D01*
X115555274Y-90078570D01*
X115555271Y-90078569D01*
X115555270Y-90078569D01*
X115532816Y-90076575D01*
X115437865Y-90068146D01*
X115429928Y-90064001D01*
X115427200Y-90056492D01*
X115427200Y-89927907D01*
X115430627Y-89919634D01*
X115437864Y-89916253D01*
X115555270Y-89905830D01*
X115641594Y-89875003D01*
X115712403Y-89829645D01*
X115793628Y-89774881D01*
X115794244Y-89774520D01*
X115901181Y-89720681D01*
X115910108Y-89720022D01*
X115916889Y-89725871D01*
G37*
%TD.AperFunction*%
%TD*%
%TA.AperFunction,Conductor*%
%TO.N,/PA10*%
G36*
X112035766Y-84290227D02*
G01*
X112039147Y-84297465D01*
X112049569Y-84414868D01*
X112049570Y-84414874D01*
X112080395Y-84501192D01*
X112080395Y-84501193D01*
X112125753Y-84572003D01*
X112180512Y-84653221D01*
X112180887Y-84653861D01*
X112234716Y-84760778D01*
X112235376Y-84769708D01*
X112229527Y-84776489D01*
X112228777Y-84776835D01*
X111967711Y-84885915D01*
X111958756Y-84885942D01*
X111958689Y-84885915D01*
X111697621Y-84776835D01*
X111691309Y-84770483D01*
X111691336Y-84761528D01*
X111691667Y-84760810D01*
X111745520Y-84653844D01*
X111745881Y-84653228D01*
X111800645Y-84572003D01*
X111846003Y-84501194D01*
X111876830Y-84414870D01*
X111887253Y-84297464D01*
X111891398Y-84289528D01*
X111898907Y-84286800D01*
X112027493Y-84286800D01*
X112035766Y-84290227D01*
G37*
%TD.AperFunction*%
%TD*%
%TA.AperFunction,Conductor*%
%TO.N,/E*%
G36*
X138878489Y-87998671D02*
G01*
X138878835Y-87999421D01*
X138987915Y-88260489D01*
X138987942Y-88269444D01*
X138987915Y-88269511D01*
X138878835Y-88530577D01*
X138872483Y-88536889D01*
X138863528Y-88536862D01*
X138862778Y-88536516D01*
X138796995Y-88503396D01*
X138755856Y-88482684D01*
X138755221Y-88482312D01*
X138674003Y-88427553D01*
X138603193Y-88382195D01*
X138516874Y-88351370D01*
X138516871Y-88351369D01*
X138516870Y-88351369D01*
X138494416Y-88349375D01*
X138399465Y-88340946D01*
X138391528Y-88336801D01*
X138388800Y-88329292D01*
X138388800Y-88200707D01*
X138392227Y-88192434D01*
X138399464Y-88189053D01*
X138516870Y-88178630D01*
X138603194Y-88147803D01*
X138674003Y-88102445D01*
X138755228Y-88047681D01*
X138755844Y-88047320D01*
X138862781Y-87993481D01*
X138871708Y-87992822D01*
X138878489Y-87998671D01*
G37*
%TD.AperFunction*%
%TD*%
%TA.AperFunction,Conductor*%
%TO.N,/A*%
G36*
X117523602Y-82842274D02*
G01*
X117614525Y-82933197D01*
X117617952Y-82941470D01*
X117615224Y-82948979D01*
X117539579Y-83039363D01*
X117539577Y-83039366D01*
X117539576Y-83039368D01*
X117524390Y-83071423D01*
X117500332Y-83122206D01*
X117482337Y-83204347D01*
X117463627Y-83300495D01*
X117463439Y-83301213D01*
X117425901Y-83414881D01*
X117420052Y-83421662D01*
X117411122Y-83422322D01*
X117410347Y-83422035D01*
X117148615Y-83314563D01*
X117142263Y-83308251D01*
X117142236Y-83308184D01*
X117065870Y-83122206D01*
X117034764Y-83046450D01*
X117034791Y-83037497D01*
X117041143Y-83031185D01*
X117041911Y-83030900D01*
X117155592Y-82993355D01*
X117156293Y-82993172D01*
X117252451Y-82974461D01*
X117334593Y-82956465D01*
X117417431Y-82917223D01*
X117507820Y-82841575D01*
X117516364Y-82838893D01*
X117523602Y-82842274D01*
G37*
%TD.AperFunction*%
%TD*%
%TA.AperFunction,Conductor*%
%TO.N,/C*%
G36*
X118599096Y-82732644D02*
G01*
X118602968Y-82740718D01*
X118602985Y-82741354D01*
X118602985Y-82869847D01*
X118599558Y-82878120D01*
X118594101Y-82881203D01*
X118507339Y-82902718D01*
X118472172Y-82966985D01*
X118472172Y-82966988D01*
X118468324Y-83061480D01*
X118466658Y-83174614D01*
X118466358Y-83177079D01*
X118441073Y-83286363D01*
X118435869Y-83293651D01*
X118427037Y-83295125D01*
X118425210Y-83294541D01*
X118345671Y-83261713D01*
X118164305Y-83186859D01*
X118157967Y-83180537D01*
X118050255Y-82918210D01*
X118050282Y-82909256D01*
X118056180Y-82903141D01*
X118128421Y-82869847D01*
X118179601Y-82846259D01*
X118274378Y-82796623D01*
X118274740Y-82796449D01*
X118357380Y-82760157D01*
X118359470Y-82759467D01*
X118457708Y-82737074D01*
X118459667Y-82736799D01*
X118590649Y-82729671D01*
X118599096Y-82732644D01*
G37*
%TD.AperFunction*%
%TD*%
%TA.AperFunction,Conductor*%
%TO.N,/PA18*%
G36*
X121987489Y-90030671D02*
G01*
X121987835Y-90031421D01*
X122096915Y-90292489D01*
X122096942Y-90301444D01*
X122096915Y-90301511D01*
X121987835Y-90562577D01*
X121981483Y-90568889D01*
X121972528Y-90568862D01*
X121971778Y-90568516D01*
X121905995Y-90535396D01*
X121864856Y-90514684D01*
X121864221Y-90514312D01*
X121783003Y-90459553D01*
X121712193Y-90414195D01*
X121625874Y-90383370D01*
X121625871Y-90383369D01*
X121625870Y-90383369D01*
X121603416Y-90381375D01*
X121508465Y-90372946D01*
X121500528Y-90368801D01*
X121497800Y-90361292D01*
X121497800Y-90232707D01*
X121501227Y-90224434D01*
X121508464Y-90221053D01*
X121625870Y-90210630D01*
X121712194Y-90179803D01*
X121783003Y-90134445D01*
X121864228Y-90079681D01*
X121864844Y-90079320D01*
X121971781Y-90025481D01*
X121980708Y-90024822D01*
X121987489Y-90030671D01*
G37*
%TD.AperFunction*%
%TD*%
%TA.AperFunction,Conductor*%
%TO.N,/PA06*%
G36*
X113296402Y-86986591D02*
G01*
X113302714Y-86992943D01*
X113303001Y-86993718D01*
X113340539Y-87107384D01*
X113340727Y-87108102D01*
X113359437Y-87204251D01*
X113377432Y-87286392D01*
X113390093Y-87313117D01*
X113416676Y-87369231D01*
X113416678Y-87369234D01*
X113416679Y-87369235D01*
X113492324Y-87459620D01*
X113495006Y-87468164D01*
X113491625Y-87475402D01*
X113400702Y-87566325D01*
X113392429Y-87569752D01*
X113384920Y-87567024D01*
X113294535Y-87491379D01*
X113294534Y-87491378D01*
X113294531Y-87491376D01*
X113238417Y-87464793D01*
X113211692Y-87452132D01*
X113129551Y-87434137D01*
X113033402Y-87415427D01*
X113032684Y-87415239D01*
X112919018Y-87377701D01*
X112912237Y-87371852D01*
X112911577Y-87362922D01*
X112911853Y-87362174D01*
X113019336Y-87100414D01*
X113025646Y-87094064D01*
X113287449Y-86986564D01*
X113296402Y-86986591D01*
G37*
%TD.AperFunction*%
%TD*%
%TA.AperFunction,Conductor*%
%TO.N,/R1*%
G36*
X138651179Y-84492575D02*
G01*
X138741563Y-84568220D01*
X138741565Y-84568221D01*
X138741566Y-84568221D01*
X138741568Y-84568223D01*
X138824406Y-84607465D01*
X138906547Y-84625461D01*
X139002700Y-84644171D01*
X139003409Y-84644357D01*
X139117081Y-84681898D01*
X139123862Y-84687747D01*
X139124522Y-84696677D01*
X139124235Y-84697452D01*
X139016763Y-84959184D01*
X139010451Y-84965536D01*
X139010384Y-84965563D01*
X138748652Y-85073035D01*
X138739697Y-85073008D01*
X138733385Y-85066656D01*
X138733098Y-85065881D01*
X138695558Y-84952213D01*
X138695370Y-84951495D01*
X138676661Y-84855347D01*
X138658665Y-84773206D01*
X138619423Y-84690368D01*
X138619421Y-84690366D01*
X138619421Y-84690365D01*
X138619420Y-84690363D01*
X138543775Y-84599979D01*
X138541093Y-84591435D01*
X138544473Y-84584198D01*
X138635398Y-84493273D01*
X138643670Y-84489847D01*
X138651179Y-84492575D01*
G37*
%TD.AperFunction*%
%TD*%
%TA.AperFunction,Conductor*%
%TO.N,/E*%
G36*
X130322222Y-86674696D02*
G01*
X130328547Y-86681035D01*
X130328960Y-86682209D01*
X130435003Y-87043890D01*
X130435432Y-87046167D01*
X130461019Y-87339914D01*
X130478669Y-87594605D01*
X130564597Y-87849258D01*
X130788735Y-88135890D01*
X130791131Y-88144518D01*
X130787791Y-88151370D01*
X130696370Y-88242791D01*
X130688097Y-88246218D01*
X130680890Y-88243735D01*
X130554009Y-88144518D01*
X130394258Y-88019597D01*
X130139605Y-87933669D01*
X129884914Y-87916019D01*
X129591167Y-87890432D01*
X129588890Y-87890003D01*
X129227209Y-87783960D01*
X129220234Y-87778344D01*
X129219274Y-87769441D01*
X129219687Y-87768267D01*
X129291399Y-87594605D01*
X129537438Y-86998783D01*
X129543759Y-86992448D01*
X130313267Y-86674687D01*
X130322222Y-86674696D01*
G37*
%TD.AperFunction*%
%TD*%
%TA.AperFunction,Conductor*%
%TO.N,/PA20*%
G36*
X114821370Y-92097208D02*
G01*
X114912791Y-92188629D01*
X114916218Y-92196902D01*
X114913735Y-92204109D01*
X114689596Y-92490741D01*
X114603669Y-92745392D01*
X114586019Y-93000084D01*
X114560432Y-93293831D01*
X114560003Y-93296108D01*
X114453960Y-93657790D01*
X114448344Y-93664765D01*
X114439441Y-93665725D01*
X114438267Y-93665312D01*
X113668785Y-93347562D01*
X113662447Y-93341238D01*
X113344687Y-92571732D01*
X113344696Y-92562777D01*
X113351035Y-92556452D01*
X113352193Y-92556044D01*
X113713893Y-92449993D01*
X113716164Y-92449565D01*
X114009914Y-92423980D01*
X114264605Y-92406329D01*
X114519258Y-92320402D01*
X114805892Y-92096263D01*
X114814518Y-92093868D01*
X114821370Y-92097208D01*
G37*
%TD.AperFunction*%
%TD*%
%TA.AperFunction,Conductor*%
%TO.N,/PA05*%
G36*
X112640591Y-86541987D02*
G01*
X112711377Y-86571564D01*
X112717689Y-86577916D01*
X112717662Y-86586871D01*
X112717316Y-86587621D01*
X112663487Y-86694537D01*
X112663112Y-86695177D01*
X112608353Y-86776396D01*
X112562995Y-86847204D01*
X112562995Y-86847205D01*
X112532170Y-86933523D01*
X112532169Y-86933529D01*
X112521747Y-87050935D01*
X112517602Y-87058872D01*
X112510093Y-87061600D01*
X112381507Y-87061600D01*
X112373234Y-87058173D01*
X112369853Y-87050935D01*
X112359430Y-86933528D01*
X112328603Y-86847204D01*
X112283245Y-86776396D01*
X112228486Y-86695177D01*
X112228116Y-86694547D01*
X112174281Y-86587618D01*
X112173622Y-86578691D01*
X112179471Y-86571910D01*
X112180208Y-86571569D01*
X112441290Y-86462483D01*
X112450244Y-86462457D01*
X112640591Y-86541987D01*
G37*
%TD.AperFunction*%
%TD*%
%TA.AperFunction,Conductor*%
%TO.N,/PA04*%
G36*
X122441370Y-92097208D02*
G01*
X122532791Y-92188629D01*
X122536218Y-92196902D01*
X122533735Y-92204109D01*
X122309596Y-92490741D01*
X122223669Y-92745392D01*
X122206019Y-93000084D01*
X122180432Y-93293831D01*
X122180003Y-93296108D01*
X122073960Y-93657790D01*
X122068344Y-93664765D01*
X122059441Y-93665725D01*
X122058267Y-93665312D01*
X121288785Y-93347562D01*
X121282447Y-93341238D01*
X120964687Y-92571732D01*
X120964696Y-92562777D01*
X120971035Y-92556452D01*
X120972193Y-92556044D01*
X121333893Y-92449993D01*
X121336164Y-92449565D01*
X121629914Y-92423980D01*
X121884605Y-92406329D01*
X122139258Y-92320402D01*
X122425892Y-92096263D01*
X122434518Y-92093868D01*
X122441370Y-92097208D01*
G37*
%TD.AperFunction*%
%TD*%
%TA.AperFunction,Conductor*%
%TO.N,/D*%
G36*
X123234967Y-85802781D02*
G01*
X123623493Y-85815091D01*
X123624122Y-85815147D01*
X123905883Y-85856658D01*
X123907721Y-85857083D01*
X124145366Y-85932787D01*
X124145887Y-85932983D01*
X124413894Y-86048711D01*
X124774732Y-86205129D01*
X124780959Y-86211563D01*
X124780892Y-86220329D01*
X124462853Y-86990511D01*
X124456528Y-86996850D01*
X124456512Y-86996856D01*
X123687723Y-87314894D01*
X123678768Y-87314890D01*
X123672439Y-87308556D01*
X123671801Y-87306492D01*
X123591310Y-86923877D01*
X123591067Y-86921073D01*
X123604040Y-86551312D01*
X123613725Y-86242244D01*
X123599307Y-86209702D01*
X123520034Y-86030776D01*
X123231640Y-85954699D01*
X123224514Y-85949275D01*
X123222924Y-85943386D01*
X123222924Y-85814476D01*
X123226351Y-85806203D01*
X123234624Y-85802776D01*
X123234967Y-85802781D01*
G37*
%TD.AperFunction*%
%TD*%
%TA.AperFunction,Conductor*%
%TO.N,/PA04*%
G36*
X127829489Y-90564071D02*
G01*
X127829835Y-90564821D01*
X127938915Y-90825889D01*
X127938942Y-90834844D01*
X127938915Y-90834911D01*
X127829835Y-91095977D01*
X127823483Y-91102289D01*
X127814528Y-91102262D01*
X127813778Y-91101916D01*
X127747995Y-91068796D01*
X127706856Y-91048084D01*
X127706221Y-91047712D01*
X127625003Y-90992953D01*
X127554193Y-90947595D01*
X127467874Y-90916770D01*
X127467871Y-90916769D01*
X127467870Y-90916769D01*
X127445416Y-90914775D01*
X127350465Y-90906346D01*
X127342528Y-90902201D01*
X127339800Y-90894692D01*
X127339800Y-90766107D01*
X127343227Y-90757834D01*
X127350464Y-90754453D01*
X127467870Y-90744030D01*
X127554194Y-90713203D01*
X127625003Y-90667845D01*
X127706228Y-90613081D01*
X127706844Y-90612720D01*
X127813781Y-90558881D01*
X127822708Y-90558222D01*
X127829489Y-90564071D01*
G37*
%TD.AperFunction*%
%TD*%
%TA.AperFunction,Conductor*%
%TO.N,/D*%
G36*
X117726802Y-86652274D02*
G01*
X117817725Y-86743197D01*
X117821152Y-86751470D01*
X117818424Y-86758979D01*
X117742779Y-86849363D01*
X117742777Y-86849366D01*
X117742776Y-86849368D01*
X117727590Y-86881423D01*
X117703532Y-86932206D01*
X117685537Y-87014347D01*
X117666827Y-87110495D01*
X117666639Y-87111213D01*
X117629101Y-87224881D01*
X117623252Y-87231662D01*
X117614322Y-87232322D01*
X117613547Y-87232035D01*
X117351815Y-87124563D01*
X117345463Y-87118251D01*
X117345436Y-87118184D01*
X117269070Y-86932206D01*
X117237964Y-86856450D01*
X117237991Y-86847497D01*
X117244343Y-86841185D01*
X117245111Y-86840900D01*
X117358792Y-86803355D01*
X117359493Y-86803172D01*
X117455651Y-86784461D01*
X117537793Y-86766465D01*
X117620631Y-86727223D01*
X117711020Y-86651575D01*
X117719564Y-86648893D01*
X117726802Y-86652274D01*
G37*
%TD.AperFunction*%
%TD*%
%TA.AperFunction,Conductor*%
%TO.N,/PA10*%
G36*
X119803104Y-79929532D02*
G01*
X119803149Y-79929637D01*
X119912515Y-80191389D01*
X119912542Y-80200344D01*
X119912515Y-80200411D01*
X119803754Y-80460715D01*
X119797402Y-80467027D01*
X119788447Y-80467000D01*
X119787045Y-80466300D01*
X119680147Y-80403695D01*
X119677762Y-80401847D01*
X119603310Y-80326950D01*
X119603108Y-80326736D01*
X119585700Y-80307363D01*
X119540606Y-80257177D01*
X119459957Y-80206306D01*
X119459956Y-80206305D01*
X119459955Y-80206305D01*
X119340112Y-80188109D01*
X119332447Y-80183480D01*
X119330168Y-80176542D01*
X119330168Y-80047974D01*
X119333595Y-80039701D01*
X119341537Y-80036279D01*
X119450204Y-80033214D01*
X119513171Y-80024698D01*
X119535120Y-80021730D01*
X119535121Y-80021730D01*
X119535122Y-80021729D01*
X119535126Y-80021729D01*
X119606872Y-80000150D01*
X119687381Y-79966484D01*
X119787738Y-79923396D01*
X119796691Y-79923282D01*
X119803104Y-79929532D01*
G37*
%TD.AperFunction*%
%TD*%
%TA.AperFunction,Conductor*%
%TO.N,/PA04*%
G36*
X142487757Y-88769880D02*
G01*
X142688999Y-88852513D01*
X142749507Y-88877359D01*
X142755859Y-88883671D01*
X142755886Y-88883738D01*
X142863358Y-89145470D01*
X142863331Y-89154425D01*
X142856979Y-89160737D01*
X142856204Y-89161024D01*
X142742536Y-89198562D01*
X142741818Y-89198750D01*
X142645670Y-89217460D01*
X142563529Y-89235455D01*
X142514410Y-89258725D01*
X142480691Y-89274699D01*
X142480689Y-89274700D01*
X142480686Y-89274702D01*
X142390302Y-89350347D01*
X142381758Y-89353029D01*
X142374520Y-89349648D01*
X142283597Y-89258725D01*
X142280170Y-89250452D01*
X142282898Y-89242943D01*
X142358543Y-89152558D01*
X142358544Y-89152556D01*
X142358543Y-89152556D01*
X142358546Y-89152554D01*
X142397788Y-89069716D01*
X142415784Y-88987574D01*
X142434495Y-88891416D01*
X142434678Y-88890715D01*
X142472221Y-88777040D01*
X142478070Y-88770260D01*
X142487000Y-88769600D01*
X142487757Y-88769880D01*
G37*
%TD.AperFunction*%
%TD*%
%TA.AperFunction,Conductor*%
%TO.N,/PA21*%
G36*
X114567834Y-90923557D02*
G01*
X114769076Y-91006190D01*
X114829584Y-91031036D01*
X114835936Y-91037348D01*
X114835963Y-91037415D01*
X114943435Y-91299147D01*
X114943408Y-91308102D01*
X114937056Y-91314414D01*
X114936281Y-91314701D01*
X114822613Y-91352239D01*
X114821895Y-91352427D01*
X114725747Y-91371137D01*
X114643606Y-91389132D01*
X114594487Y-91412402D01*
X114560768Y-91428376D01*
X114560766Y-91428377D01*
X114560763Y-91428379D01*
X114470379Y-91504024D01*
X114461835Y-91506706D01*
X114454597Y-91503325D01*
X114363674Y-91412402D01*
X114360247Y-91404129D01*
X114362975Y-91396620D01*
X114438620Y-91306235D01*
X114438621Y-91306233D01*
X114438620Y-91306233D01*
X114438623Y-91306231D01*
X114477865Y-91223393D01*
X114495861Y-91141251D01*
X114514572Y-91045093D01*
X114514755Y-91044392D01*
X114552298Y-90930717D01*
X114558147Y-90923937D01*
X114567077Y-90923277D01*
X114567834Y-90923557D01*
G37*
%TD.AperFunction*%
%TD*%
%TA.AperFunction,Conductor*%
%TO.N,/B2*%
G36*
X140098979Y-82705675D02*
G01*
X140189363Y-82781320D01*
X140189365Y-82781321D01*
X140189366Y-82781321D01*
X140189368Y-82781323D01*
X140272206Y-82820565D01*
X140354347Y-82838561D01*
X140450500Y-82857271D01*
X140451209Y-82857457D01*
X140564881Y-82894998D01*
X140571662Y-82900847D01*
X140572322Y-82909777D01*
X140572035Y-82910552D01*
X140464563Y-83172284D01*
X140458251Y-83178636D01*
X140458184Y-83178663D01*
X140196452Y-83286135D01*
X140187497Y-83286108D01*
X140181185Y-83279756D01*
X140180898Y-83278981D01*
X140143358Y-83165313D01*
X140143170Y-83164595D01*
X140124461Y-83068447D01*
X140106465Y-82986306D01*
X140067223Y-82903468D01*
X140067221Y-82903466D01*
X140067221Y-82903465D01*
X140067220Y-82903463D01*
X139991575Y-82813079D01*
X139988893Y-82804535D01*
X139992273Y-82797298D01*
X140083198Y-82706373D01*
X140091470Y-82702947D01*
X140098979Y-82705675D01*
G37*
%TD.AperFunction*%
%TD*%
%TA.AperFunction,Conductor*%
%TO.N,/R1*%
G36*
X137769278Y-83861315D02*
G01*
X138004237Y-84071136D01*
X138004238Y-84071137D01*
X138197144Y-84201999D01*
X138373127Y-84303998D01*
X138373456Y-84304204D01*
X138565892Y-84434747D01*
X138566494Y-84435216D01*
X138800173Y-84643895D01*
X138804061Y-84651961D01*
X138801107Y-84660414D01*
X138800653Y-84660894D01*
X138709878Y-84751669D01*
X138701605Y-84755096D01*
X138695469Y-84753358D01*
X138456905Y-84606430D01*
X138456903Y-84606429D01*
X138248781Y-84655631D01*
X138042069Y-84828930D01*
X137800708Y-85048680D01*
X137798900Y-85050032D01*
X137496934Y-85233227D01*
X137488083Y-85234588D01*
X137480862Y-85229293D01*
X137480061Y-85227712D01*
X137162293Y-84461526D01*
X137162289Y-84452571D01*
X137164834Y-84448764D01*
X137753223Y-83861758D01*
X137761499Y-83858342D01*
X137769278Y-83861315D01*
G37*
%TD.AperFunction*%
%TD*%
%TA.AperFunction,Conductor*%
%TO.N,/CLK*%
G36*
X117897041Y-84171511D02*
G01*
X117987958Y-84262428D01*
X117991385Y-84270701D01*
X117989080Y-84277674D01*
X117917002Y-84374786D01*
X117917001Y-84374789D01*
X117894776Y-84467162D01*
X117898269Y-84559866D01*
X117898273Y-84560137D01*
X117897365Y-84665142D01*
X117896973Y-84668043D01*
X117865284Y-84787420D01*
X117859850Y-84794537D01*
X117850974Y-84795726D01*
X117849532Y-84795241D01*
X117588515Y-84688063D01*
X117582163Y-84681751D01*
X117582136Y-84681684D01*
X117532115Y-84559866D01*
X117474401Y-84419309D01*
X117474428Y-84410356D01*
X117480780Y-84404044D01*
X117480897Y-84403996D01*
X117505795Y-84394176D01*
X117583113Y-84363683D01*
X117616452Y-84350540D01*
X117664872Y-84331456D01*
X117731934Y-84297072D01*
X117801066Y-84245948D01*
X117880769Y-84171246D01*
X117889147Y-84168090D01*
X117897041Y-84171511D01*
G37*
%TD.AperFunction*%
%TD*%
%TA.AperFunction,Conductor*%
%TO.N,/PA06*%
G36*
X116729689Y-89014671D02*
G01*
X116730035Y-89015421D01*
X116839115Y-89276489D01*
X116839142Y-89285444D01*
X116839115Y-89285511D01*
X116730035Y-89546577D01*
X116723683Y-89552889D01*
X116714728Y-89552862D01*
X116713978Y-89552516D01*
X116648195Y-89519396D01*
X116607056Y-89498684D01*
X116606421Y-89498312D01*
X116525203Y-89443553D01*
X116454393Y-89398195D01*
X116368074Y-89367370D01*
X116368071Y-89367369D01*
X116368070Y-89367369D01*
X116345616Y-89365375D01*
X116250665Y-89356946D01*
X116242728Y-89352801D01*
X116240000Y-89345292D01*
X116240000Y-89216707D01*
X116243427Y-89208434D01*
X116250664Y-89205053D01*
X116368070Y-89194630D01*
X116454394Y-89163803D01*
X116525203Y-89118445D01*
X116606428Y-89063681D01*
X116607044Y-89063320D01*
X116713981Y-89009481D01*
X116722908Y-89008822D01*
X116729689Y-89014671D01*
G37*
%TD.AperFunction*%
%TD*%
%TA.AperFunction,Conductor*%
%TO.N,/PA17*%
G36*
X144827166Y-85865027D02*
G01*
X144830547Y-85872265D01*
X144840969Y-85989668D01*
X144840970Y-85989674D01*
X144871795Y-86075992D01*
X144871795Y-86075993D01*
X144917153Y-86146803D01*
X144971912Y-86228021D01*
X144972287Y-86228661D01*
X145026116Y-86335578D01*
X145026776Y-86344508D01*
X145020927Y-86351289D01*
X145020177Y-86351635D01*
X144759111Y-86460715D01*
X144750156Y-86460742D01*
X144750089Y-86460715D01*
X144489021Y-86351635D01*
X144482709Y-86345283D01*
X144482736Y-86336328D01*
X144483067Y-86335610D01*
X144536920Y-86228644D01*
X144537281Y-86228028D01*
X144592045Y-86146803D01*
X144637403Y-86075994D01*
X144668230Y-85989670D01*
X144678653Y-85872264D01*
X144682798Y-85864328D01*
X144690307Y-85861600D01*
X144818893Y-85861600D01*
X144827166Y-85865027D01*
G37*
%TD.AperFunction*%
%TD*%
%TA.AperFunction,Conductor*%
%TO.N,/PA16*%
G36*
X115464360Y-90381745D02*
G01*
X115468407Y-90389733D01*
X115468441Y-90390585D01*
X115469383Y-90673114D01*
X115465984Y-90681399D01*
X115465937Y-90681446D01*
X115265080Y-90881361D01*
X115256798Y-90884768D01*
X115248533Y-90881322D01*
X115248048Y-90880803D01*
X115243355Y-90875477D01*
X115179801Y-90803349D01*
X115179583Y-90803085D01*
X115124981Y-90732071D01*
X115072370Y-90678725D01*
X115002072Y-90645221D01*
X115002070Y-90645220D01*
X114904752Y-90634726D01*
X114896894Y-90630431D01*
X114894306Y-90623093D01*
X114894306Y-90494440D01*
X114897733Y-90486167D01*
X114905114Y-90482774D01*
X115038067Y-90472617D01*
X115138414Y-90446428D01*
X115224047Y-90415259D01*
X115224527Y-90415108D01*
X115323631Y-90389244D01*
X115325676Y-90388902D01*
X115455851Y-90378958D01*
X115464360Y-90381745D01*
G37*
%TD.AperFunction*%
%TD*%
%TA.AperFunction,Conductor*%
%TO.N,/PA06*%
G36*
X119477360Y-91921973D02*
G01*
X119480780Y-91929853D01*
X119492318Y-92272967D01*
X119492318Y-92272966D01*
X119520739Y-92523693D01*
X119554660Y-92739852D01*
X119583055Y-92990357D01*
X119583089Y-92990819D01*
X119594593Y-93332921D01*
X119591447Y-93341304D01*
X119583293Y-93345007D01*
X119582914Y-93345014D01*
X118749859Y-93345994D01*
X118741583Y-93342577D01*
X118154040Y-92754057D01*
X118150621Y-92745782D01*
X118154055Y-92737512D01*
X118155830Y-92736058D01*
X118462052Y-92532278D01*
X118465325Y-92530769D01*
X118782336Y-92440788D01*
X119059939Y-92374112D01*
X119256065Y-92232834D01*
X119328270Y-91927553D01*
X119333509Y-91920291D01*
X119339656Y-91918546D01*
X119469087Y-91918546D01*
X119477360Y-91921973D01*
G37*
%TD.AperFunction*%
%TD*%
%TA.AperFunction,Conductor*%
%TO.N,/R2*%
G36*
X138651179Y-83019375D02*
G01*
X138741563Y-83095020D01*
X138741565Y-83095021D01*
X138741566Y-83095021D01*
X138741568Y-83095023D01*
X138824406Y-83134265D01*
X138906547Y-83152261D01*
X139002700Y-83170971D01*
X139003409Y-83171157D01*
X139117081Y-83208698D01*
X139123862Y-83214547D01*
X139124522Y-83223477D01*
X139124235Y-83224252D01*
X139016763Y-83485984D01*
X139010451Y-83492336D01*
X139010384Y-83492363D01*
X138748652Y-83599835D01*
X138739697Y-83599808D01*
X138733385Y-83593456D01*
X138733098Y-83592681D01*
X138695558Y-83479013D01*
X138695370Y-83478295D01*
X138676661Y-83382147D01*
X138658665Y-83300006D01*
X138619423Y-83217168D01*
X138619421Y-83217166D01*
X138619421Y-83217165D01*
X138619420Y-83217163D01*
X138543775Y-83126779D01*
X138541093Y-83118235D01*
X138544473Y-83110998D01*
X138635398Y-83020073D01*
X138643670Y-83016647D01*
X138651179Y-83019375D01*
G37*
%TD.AperFunction*%
%TD*%
%TA.AperFunction,Conductor*%
%TO.N,/B1*%
G36*
X138625779Y-83730575D02*
G01*
X138716163Y-83806220D01*
X138716165Y-83806221D01*
X138716166Y-83806221D01*
X138716168Y-83806223D01*
X138799006Y-83845465D01*
X138852010Y-83857077D01*
X138854812Y-83858079D01*
X138888896Y-83875446D01*
X139014200Y-83895292D01*
X139014200Y-83895291D01*
X139014201Y-83895292D01*
X139015123Y-83895292D01*
X139015123Y-83895568D01*
X139018903Y-83895862D01*
X139091681Y-83919898D01*
X139098462Y-83925747D01*
X139099122Y-83934677D01*
X139098835Y-83935452D01*
X138991363Y-84197184D01*
X138985051Y-84203536D01*
X138984984Y-84203563D01*
X138723252Y-84311035D01*
X138714297Y-84311008D01*
X138707985Y-84304656D01*
X138707698Y-84303881D01*
X138670158Y-84190213D01*
X138669970Y-84189495D01*
X138651261Y-84093347D01*
X138633265Y-84011206D01*
X138594023Y-83928368D01*
X138594021Y-83928366D01*
X138594021Y-83928365D01*
X138594020Y-83928363D01*
X138518375Y-83837979D01*
X138515693Y-83829435D01*
X138519073Y-83822198D01*
X138609998Y-83731273D01*
X138618270Y-83727847D01*
X138625779Y-83730575D01*
G37*
%TD.AperFunction*%
%TD*%
%TA.AperFunction,Conductor*%
%TO.N,/PA16*%
G36*
X109741370Y-92097208D02*
G01*
X109832791Y-92188629D01*
X109836218Y-92196902D01*
X109833735Y-92204109D01*
X109609596Y-92490741D01*
X109523669Y-92745392D01*
X109506019Y-93000084D01*
X109480432Y-93293831D01*
X109480003Y-93296108D01*
X109373960Y-93657790D01*
X109368344Y-93664765D01*
X109359441Y-93665725D01*
X109358267Y-93665312D01*
X108588785Y-93347562D01*
X108582447Y-93341238D01*
X108264687Y-92571732D01*
X108264696Y-92562777D01*
X108271035Y-92556452D01*
X108272193Y-92556044D01*
X108633893Y-92449993D01*
X108636164Y-92449565D01*
X108929914Y-92423980D01*
X109184605Y-92406329D01*
X109439258Y-92320402D01*
X109725892Y-92096263D01*
X109734518Y-92093868D01*
X109741370Y-92097208D01*
G37*
%TD.AperFunction*%
%TD*%
%TA.AperFunction,Conductor*%
%TO.N,/B2*%
G36*
X130696370Y-83207208D02*
G01*
X130787791Y-83298629D01*
X130791218Y-83306902D01*
X130788735Y-83314109D01*
X130564596Y-83600741D01*
X130478669Y-83855392D01*
X130461019Y-84110084D01*
X130435432Y-84403831D01*
X130435003Y-84406108D01*
X130328960Y-84767790D01*
X130323344Y-84774765D01*
X130314441Y-84775725D01*
X130313267Y-84775312D01*
X129543785Y-84457562D01*
X129537447Y-84451238D01*
X129219687Y-83681732D01*
X129219696Y-83672777D01*
X129226035Y-83666452D01*
X129227193Y-83666044D01*
X129588893Y-83559993D01*
X129591164Y-83559565D01*
X129884914Y-83533980D01*
X130139605Y-83516329D01*
X130394258Y-83430402D01*
X130680892Y-83206263D01*
X130689518Y-83203868D01*
X130696370Y-83207208D01*
G37*
%TD.AperFunction*%
%TD*%
%TA.AperFunction,Conductor*%
%TO.N,/PA11*%
G36*
X116663530Y-82711672D02*
G01*
X116754459Y-82802601D01*
X116757886Y-82810874D01*
X116755127Y-82818420D01*
X116679589Y-82907920D01*
X116639390Y-82989693D01*
X116639387Y-82989700D01*
X116620060Y-83070672D01*
X116600258Y-83165687D01*
X116600078Y-83166352D01*
X116562334Y-83279048D01*
X116556458Y-83285804D01*
X116547524Y-83286426D01*
X116546796Y-83286155D01*
X116285015Y-83178663D01*
X116278663Y-83172351D01*
X116278636Y-83172284D01*
X116171188Y-82910609D01*
X116171215Y-82901654D01*
X116177567Y-82895342D01*
X116178385Y-82895041D01*
X116292517Y-82857968D01*
X116293296Y-82857774D01*
X116390233Y-82840464D01*
X116473277Y-82824149D01*
X116556906Y-82786255D01*
X116647794Y-82710935D01*
X116656348Y-82708296D01*
X116663530Y-82711672D01*
G37*
%TD.AperFunction*%
%TD*%
%TA.AperFunction,Conductor*%
%TO.N,/PA04*%
G36*
X130249002Y-90360674D02*
G01*
X130339925Y-90451597D01*
X130343352Y-90459870D01*
X130340624Y-90467379D01*
X130264979Y-90557763D01*
X130264977Y-90557766D01*
X130264976Y-90557768D01*
X130249790Y-90589823D01*
X130225732Y-90640606D01*
X130207737Y-90722747D01*
X130189027Y-90818895D01*
X130188839Y-90819613D01*
X130151301Y-90933281D01*
X130145452Y-90940062D01*
X130136522Y-90940722D01*
X130135747Y-90940435D01*
X129874015Y-90832963D01*
X129867663Y-90826651D01*
X129867636Y-90826584D01*
X129791270Y-90640606D01*
X129760164Y-90564850D01*
X129760191Y-90555897D01*
X129766543Y-90549585D01*
X129767311Y-90549300D01*
X129880992Y-90511755D01*
X129881693Y-90511572D01*
X129977851Y-90492861D01*
X130059993Y-90474865D01*
X130142831Y-90435623D01*
X130233220Y-90359975D01*
X130241764Y-90357293D01*
X130249002Y-90360674D01*
G37*
%TD.AperFunction*%
%TD*%
%TA.AperFunction,Conductor*%
%TO.N,/PA20*%
G36*
X143298089Y-86728671D02*
G01*
X143298435Y-86729421D01*
X143407515Y-86990489D01*
X143407542Y-86999444D01*
X143407515Y-86999511D01*
X143298435Y-87260577D01*
X143292083Y-87266889D01*
X143283128Y-87266862D01*
X143282378Y-87266516D01*
X143216595Y-87233396D01*
X143175456Y-87212684D01*
X143174821Y-87212312D01*
X143093603Y-87157553D01*
X143022793Y-87112195D01*
X142936474Y-87081370D01*
X142936471Y-87081369D01*
X142936470Y-87081369D01*
X142914016Y-87079375D01*
X142819065Y-87070946D01*
X142811128Y-87066801D01*
X142808400Y-87059292D01*
X142808400Y-86930707D01*
X142811827Y-86922434D01*
X142819064Y-86919053D01*
X142936470Y-86908630D01*
X143022794Y-86877803D01*
X143093603Y-86832445D01*
X143174828Y-86777681D01*
X143175444Y-86777320D01*
X143282381Y-86723481D01*
X143291308Y-86722822D01*
X143298089Y-86728671D01*
G37*
%TD.AperFunction*%
%TD*%
%TA.AperFunction,Conductor*%
%TO.N,/G2*%
G36*
X139393002Y-86322074D02*
G01*
X139483925Y-86412997D01*
X139487352Y-86421270D01*
X139484624Y-86428779D01*
X139408979Y-86519163D01*
X139408977Y-86519166D01*
X139408976Y-86519168D01*
X139393790Y-86551223D01*
X139369732Y-86602006D01*
X139351737Y-86684147D01*
X139333027Y-86780295D01*
X139332839Y-86781013D01*
X139295301Y-86894681D01*
X139289452Y-86901462D01*
X139280522Y-86902122D01*
X139279747Y-86901835D01*
X139018015Y-86794363D01*
X139011663Y-86788051D01*
X139011636Y-86787984D01*
X138935270Y-86602006D01*
X138904164Y-86526250D01*
X138904191Y-86517297D01*
X138910543Y-86510985D01*
X138911311Y-86510700D01*
X139024992Y-86473155D01*
X139025693Y-86472972D01*
X139121851Y-86454261D01*
X139203993Y-86436265D01*
X139286831Y-86397023D01*
X139377220Y-86321375D01*
X139385764Y-86318693D01*
X139393002Y-86322074D01*
G37*
%TD.AperFunction*%
%TD*%
%TA.AperFunction,Conductor*%
%TO.N,/PA09*%
G36*
X127344034Y-80128557D02*
G01*
X127545276Y-80211190D01*
X127605784Y-80236036D01*
X127612136Y-80242348D01*
X127612163Y-80242415D01*
X127719635Y-80504147D01*
X127719608Y-80513102D01*
X127713256Y-80519414D01*
X127712481Y-80519701D01*
X127598813Y-80557239D01*
X127598095Y-80557427D01*
X127501947Y-80576137D01*
X127419806Y-80594132D01*
X127370687Y-80617402D01*
X127336968Y-80633376D01*
X127336966Y-80633377D01*
X127336963Y-80633379D01*
X127246579Y-80709024D01*
X127238035Y-80711706D01*
X127230797Y-80708325D01*
X127139874Y-80617402D01*
X127136447Y-80609129D01*
X127139175Y-80601620D01*
X127214820Y-80511235D01*
X127214821Y-80511233D01*
X127214820Y-80511233D01*
X127214823Y-80511231D01*
X127254065Y-80428393D01*
X127272061Y-80346251D01*
X127290772Y-80250093D01*
X127290955Y-80249392D01*
X127328498Y-80135717D01*
X127334347Y-80128937D01*
X127343277Y-80128277D01*
X127344034Y-80128557D01*
G37*
%TD.AperFunction*%
%TD*%
%TA.AperFunction,Conductor*%
%TO.N,/PA19*%
G36*
X143954389Y-88051694D02*
G01*
X143957816Y-88059967D01*
X143957802Y-88060536D01*
X143951394Y-88192092D01*
X143951164Y-88193899D01*
X143930619Y-88292975D01*
X143929996Y-88295019D01*
X143895936Y-88378492D01*
X143895751Y-88378899D01*
X143848008Y-88474366D01*
X143791826Y-88598133D01*
X143785286Y-88604250D01*
X143776728Y-88604120D01*
X143514510Y-88496452D01*
X143508160Y-88490142D01*
X143400433Y-88229127D01*
X143400444Y-88220173D01*
X143406784Y-88213849D01*
X143408551Y-88213279D01*
X143516126Y-88187858D01*
X143518505Y-88187549D01*
X143629668Y-88184604D01*
X143722302Y-88179239D01*
X143785210Y-88143215D01*
X143806220Y-88057190D01*
X143811512Y-88049967D01*
X143817586Y-88048267D01*
X143946116Y-88048267D01*
X143954389Y-88051694D01*
G37*
%TD.AperFunction*%
%TD*%
%TA.AperFunction,Conductor*%
%TO.N,/PA09*%
G36*
X112670766Y-83807627D02*
G01*
X112674147Y-83814865D01*
X112684569Y-83932268D01*
X112684570Y-83932274D01*
X112715395Y-84018592D01*
X112715395Y-84018593D01*
X112760753Y-84089403D01*
X112815512Y-84170621D01*
X112815887Y-84171261D01*
X112869716Y-84278178D01*
X112870376Y-84287108D01*
X112864527Y-84293889D01*
X112863777Y-84294235D01*
X112602711Y-84403315D01*
X112593756Y-84403342D01*
X112593689Y-84403315D01*
X112332621Y-84294235D01*
X112326309Y-84287883D01*
X112326336Y-84278928D01*
X112326667Y-84278210D01*
X112380520Y-84171244D01*
X112380881Y-84170628D01*
X112435645Y-84089403D01*
X112481003Y-84018594D01*
X112511830Y-83932270D01*
X112522253Y-83814864D01*
X112526398Y-83806928D01*
X112533907Y-83804200D01*
X112662493Y-83804200D01*
X112670766Y-83807627D01*
G37*
%TD.AperFunction*%
%TD*%
%TA.AperFunction,Conductor*%
%TO.N,/PA18*%
G36*
X117361370Y-92097208D02*
G01*
X117452791Y-92188629D01*
X117456218Y-92196902D01*
X117453735Y-92204109D01*
X117229596Y-92490741D01*
X117143669Y-92745392D01*
X117126019Y-93000084D01*
X117100432Y-93293831D01*
X117100003Y-93296108D01*
X116993960Y-93657790D01*
X116988344Y-93664765D01*
X116979441Y-93665725D01*
X116978267Y-93665312D01*
X116208785Y-93347562D01*
X116202447Y-93341238D01*
X115884687Y-92571732D01*
X115884696Y-92562777D01*
X115891035Y-92556452D01*
X115892193Y-92556044D01*
X116253893Y-92449993D01*
X116256164Y-92449565D01*
X116549914Y-92423980D01*
X116804605Y-92406329D01*
X117059258Y-92320402D01*
X117345892Y-92096263D01*
X117354518Y-92093868D01*
X117361370Y-92097208D01*
G37*
%TD.AperFunction*%
%TD*%
%TA.AperFunction,Conductor*%
%TO.N,/PA21*%
G36*
X112281370Y-92097208D02*
G01*
X112372791Y-92188629D01*
X112376218Y-92196902D01*
X112373735Y-92204109D01*
X112149596Y-92490741D01*
X112063669Y-92745392D01*
X112046019Y-93000084D01*
X112020432Y-93293831D01*
X112020003Y-93296108D01*
X111913960Y-93657790D01*
X111908344Y-93664765D01*
X111899441Y-93665725D01*
X111898267Y-93665312D01*
X111128785Y-93347562D01*
X111122447Y-93341238D01*
X110804687Y-92571732D01*
X110804696Y-92562777D01*
X110811035Y-92556452D01*
X110812193Y-92556044D01*
X111173893Y-92449993D01*
X111176164Y-92449565D01*
X111469914Y-92423980D01*
X111724605Y-92406329D01*
X111979258Y-92320402D01*
X112265892Y-92096263D01*
X112274518Y-92093868D01*
X112281370Y-92097208D01*
G37*
%TD.AperFunction*%
%TD*%
%TA.AperFunction,Conductor*%
%TO.N,/R2*%
G36*
X133236370Y-83207208D02*
G01*
X133327791Y-83298629D01*
X133331218Y-83306902D01*
X133328735Y-83314109D01*
X133104596Y-83600741D01*
X133018669Y-83855392D01*
X133001019Y-84110084D01*
X132975432Y-84403831D01*
X132975003Y-84406108D01*
X132868960Y-84767790D01*
X132863344Y-84774765D01*
X132854441Y-84775725D01*
X132853267Y-84775312D01*
X132083785Y-84457562D01*
X132077447Y-84451238D01*
X131759687Y-83681732D01*
X131759696Y-83672777D01*
X131766035Y-83666452D01*
X131767193Y-83666044D01*
X132128893Y-83559993D01*
X132131164Y-83559565D01*
X132424914Y-83533980D01*
X132679605Y-83516329D01*
X132934258Y-83430402D01*
X133220892Y-83206263D01*
X133229518Y-83203868D01*
X133236370Y-83207208D01*
G37*
%TD.AperFunction*%
%TD*%
%TA.AperFunction,Conductor*%
%TO.N,/PA02*%
G36*
X111335541Y-79468657D02*
G01*
X111536783Y-79551290D01*
X111597291Y-79576136D01*
X111603643Y-79582448D01*
X111603670Y-79582515D01*
X111711142Y-79844247D01*
X111711115Y-79853202D01*
X111704763Y-79859514D01*
X111703988Y-79859801D01*
X111590320Y-79897339D01*
X111589602Y-79897527D01*
X111493454Y-79916237D01*
X111411313Y-79934232D01*
X111362194Y-79957502D01*
X111328475Y-79973476D01*
X111328473Y-79973477D01*
X111328470Y-79973479D01*
X111238086Y-80049124D01*
X111229542Y-80051806D01*
X111222304Y-80048425D01*
X111131381Y-79957502D01*
X111127954Y-79949229D01*
X111130682Y-79941720D01*
X111206327Y-79851335D01*
X111206328Y-79851333D01*
X111206327Y-79851333D01*
X111206330Y-79851331D01*
X111245572Y-79768493D01*
X111263568Y-79686351D01*
X111282279Y-79590193D01*
X111282462Y-79589492D01*
X111320005Y-79475817D01*
X111325854Y-79469037D01*
X111334784Y-79468377D01*
X111335541Y-79468657D01*
G37*
%TD.AperFunction*%
%TD*%
%TA.AperFunction,Conductor*%
%TO.N,/PA11*%
G36*
X117946034Y-81144557D02*
G01*
X118147276Y-81227190D01*
X118207784Y-81252036D01*
X118214136Y-81258348D01*
X118214163Y-81258415D01*
X118321635Y-81520147D01*
X118321608Y-81529102D01*
X118315256Y-81535414D01*
X118314481Y-81535701D01*
X118200813Y-81573239D01*
X118200095Y-81573427D01*
X118103947Y-81592137D01*
X118021806Y-81610132D01*
X117972687Y-81633402D01*
X117938968Y-81649376D01*
X117938966Y-81649377D01*
X117938963Y-81649379D01*
X117848579Y-81725024D01*
X117840035Y-81727706D01*
X117832797Y-81724325D01*
X117741874Y-81633402D01*
X117738447Y-81625129D01*
X117741175Y-81617620D01*
X117816820Y-81527235D01*
X117816821Y-81527233D01*
X117816820Y-81527233D01*
X117816823Y-81527231D01*
X117856065Y-81444393D01*
X117874061Y-81362251D01*
X117892772Y-81266093D01*
X117892955Y-81265392D01*
X117930498Y-81151717D01*
X117936347Y-81144937D01*
X117945277Y-81144277D01*
X117946034Y-81144557D01*
G37*
%TD.AperFunction*%
%TD*%
%TA.AperFunction,Conductor*%
%TO.N,/B*%
G36*
X139663758Y-88358480D02*
G01*
X139925094Y-88466340D01*
X139931433Y-88472663D01*
X139931452Y-88472710D01*
X140038979Y-88734586D01*
X140038952Y-88743541D01*
X140032646Y-88749834D01*
X139906688Y-88802180D01*
X139807362Y-88839251D01*
X139806712Y-88839450D01*
X139778672Y-88846244D01*
X139718766Y-88860759D01*
X139717120Y-88861035D01*
X139613132Y-88870937D01*
X139612678Y-88870962D01*
X139550086Y-88871998D01*
X139477267Y-88873203D01*
X139468938Y-88869914D01*
X139465375Y-88861699D01*
X139465373Y-88861505D01*
X139465373Y-88732802D01*
X139468800Y-88724529D01*
X139474554Y-88721376D01*
X139556633Y-88703285D01*
X139597501Y-88648256D01*
X139611345Y-88566283D01*
X139621440Y-88466268D01*
X139621774Y-88464437D01*
X139647995Y-88366276D01*
X139653440Y-88359169D01*
X139662317Y-88357993D01*
X139663758Y-88358480D01*
G37*
%TD.AperFunction*%
%TD*%
%TA.AperFunction,Conductor*%
%TO.N,/CLK*%
G36*
X120779107Y-83206263D02*
G01*
X121065740Y-83430402D01*
X121320393Y-83516329D01*
X121575084Y-83533980D01*
X121868832Y-83559565D01*
X121871107Y-83559993D01*
X122232791Y-83666039D01*
X122239765Y-83671655D01*
X122240725Y-83680558D01*
X122240312Y-83681732D01*
X121922562Y-84451214D01*
X121916237Y-84457553D01*
X121916214Y-84457562D01*
X121146732Y-84775312D01*
X121137777Y-84775303D01*
X121131452Y-84768964D01*
X121131042Y-84767800D01*
X121024993Y-84406107D01*
X121024565Y-84403831D01*
X120998980Y-84110084D01*
X120981329Y-83855393D01*
X120895402Y-83600740D01*
X120671263Y-83314107D01*
X120668868Y-83305481D01*
X120672207Y-83298630D01*
X120763630Y-83207207D01*
X120771902Y-83203781D01*
X120779107Y-83206263D01*
G37*
%TD.AperFunction*%
%TD*%
%TA.AperFunction,Conductor*%
%TO.N,/PA17*%
G36*
X112621402Y-79616474D02*
G01*
X112712325Y-79707397D01*
X112715752Y-79715670D01*
X112713024Y-79723179D01*
X112637379Y-79813563D01*
X112637377Y-79813566D01*
X112637376Y-79813568D01*
X112622190Y-79845623D01*
X112598132Y-79896406D01*
X112580137Y-79978547D01*
X112561427Y-80074695D01*
X112561239Y-80075413D01*
X112523701Y-80189081D01*
X112517852Y-80195862D01*
X112508922Y-80196522D01*
X112508147Y-80196235D01*
X112246415Y-80088763D01*
X112240063Y-80082451D01*
X112240036Y-80082384D01*
X112163670Y-79896406D01*
X112132564Y-79820650D01*
X112132591Y-79811697D01*
X112138943Y-79805385D01*
X112139711Y-79805100D01*
X112253392Y-79767555D01*
X112254093Y-79767372D01*
X112350251Y-79748661D01*
X112432393Y-79730665D01*
X112515231Y-79691423D01*
X112605620Y-79615775D01*
X112614164Y-79613093D01*
X112621402Y-79616474D01*
G37*
%TD.AperFunction*%
%TD*%
%TA.AperFunction,Conductor*%
%TO.N,/PA19*%
G36*
X143081598Y-83543014D02*
G01*
X143281152Y-83743509D01*
X143284559Y-83751789D01*
X143281113Y-83760055D01*
X143280188Y-83760882D01*
X143199002Y-83826119D01*
X143197506Y-83827141D01*
X143150274Y-83854305D01*
X143116301Y-83873843D01*
X143050330Y-83917314D01*
X143006361Y-83980221D01*
X142991885Y-84075732D01*
X142987257Y-84083399D01*
X142980317Y-84085679D01*
X142851533Y-84085679D01*
X142843260Y-84082252D01*
X142839846Y-84074536D01*
X142839360Y-84064359D01*
X142833910Y-83949990D01*
X142818490Y-83854310D01*
X142800120Y-83772121D01*
X142800059Y-83771799D01*
X142795499Y-83743508D01*
X142784717Y-83676604D01*
X142784650Y-83675961D01*
X142778782Y-83552816D01*
X142781811Y-83544389D01*
X142789912Y-83540572D01*
X142790419Y-83540559D01*
X143073314Y-83539616D01*
X143081598Y-83543014D01*
G37*
%TD.AperFunction*%
%TD*%
%TA.AperFunction,Conductor*%
%TO.N,/B*%
G36*
X127782222Y-86674696D02*
G01*
X127788547Y-86681035D01*
X127788960Y-86682209D01*
X127895003Y-87043890D01*
X127895432Y-87046167D01*
X127921019Y-87339914D01*
X127938669Y-87594605D01*
X128024597Y-87849258D01*
X128248735Y-88135890D01*
X128251131Y-88144518D01*
X128247791Y-88151370D01*
X128156370Y-88242791D01*
X128148097Y-88246218D01*
X128140890Y-88243735D01*
X128014009Y-88144518D01*
X127854258Y-88019597D01*
X127599605Y-87933669D01*
X127344914Y-87916019D01*
X127051167Y-87890432D01*
X127048890Y-87890003D01*
X126687209Y-87783960D01*
X126680234Y-87778344D01*
X126679274Y-87769441D01*
X126679687Y-87768267D01*
X126751399Y-87594605D01*
X126997438Y-86998783D01*
X127003759Y-86992448D01*
X127773267Y-86674687D01*
X127782222Y-86674696D01*
G37*
%TD.AperFunction*%
%TD*%
%TA.AperFunction,Conductor*%
%TO.N,/G2*%
G36*
X133302803Y-85780573D02*
G01*
X133306546Y-85788708D01*
X133306555Y-85789159D01*
X133306555Y-85918016D01*
X133303128Y-85926289D01*
X133297876Y-85929319D01*
X133006905Y-86007088D01*
X133006903Y-86007089D01*
X132916087Y-86223000D01*
X132930972Y-86538194D01*
X132948352Y-86914673D01*
X132948124Y-86917570D01*
X132868149Y-87306415D01*
X132863126Y-87313828D01*
X132854332Y-87315518D01*
X132852216Y-87314869D01*
X132083487Y-86996856D01*
X132077153Y-86990527D01*
X132077146Y-86990511D01*
X132045829Y-86914673D01*
X131759077Y-86220255D01*
X131759086Y-86211301D01*
X131765162Y-86205088D01*
X132124553Y-86046329D01*
X132390234Y-85924332D01*
X132390713Y-85924137D01*
X132625721Y-85840862D01*
X132627627Y-85840365D01*
X132906920Y-85792471D01*
X132907676Y-85792393D01*
X133294406Y-85777468D01*
X133302803Y-85780573D01*
G37*
%TD.AperFunction*%
%TD*%
%TA.AperFunction,Conductor*%
%TO.N,/G1*%
G36*
X138723234Y-85939457D02*
G01*
X138924476Y-86022090D01*
X138984984Y-86046936D01*
X138991336Y-86053248D01*
X138991363Y-86053315D01*
X139098835Y-86315047D01*
X139098808Y-86324002D01*
X139092456Y-86330314D01*
X139091681Y-86330601D01*
X138978013Y-86368139D01*
X138977295Y-86368327D01*
X138881147Y-86387037D01*
X138799006Y-86405032D01*
X138749887Y-86428302D01*
X138716168Y-86444276D01*
X138716166Y-86444277D01*
X138716163Y-86444279D01*
X138625779Y-86519924D01*
X138617235Y-86522606D01*
X138609997Y-86519225D01*
X138519074Y-86428302D01*
X138515647Y-86420029D01*
X138518375Y-86412520D01*
X138594020Y-86322135D01*
X138594021Y-86322133D01*
X138594020Y-86322133D01*
X138594023Y-86322131D01*
X138633265Y-86239293D01*
X138651261Y-86157151D01*
X138669972Y-86060993D01*
X138670155Y-86060292D01*
X138707698Y-85946617D01*
X138713547Y-85939837D01*
X138722477Y-85939177D01*
X138723234Y-85939457D01*
G37*
%TD.AperFunction*%
%TD*%
%TA.AperFunction,Conductor*%
%TO.N,/PA07*%
G36*
X142990434Y-87596157D02*
G01*
X143191676Y-87678790D01*
X143252184Y-87703636D01*
X143258536Y-87709948D01*
X143258563Y-87710015D01*
X143366035Y-87971747D01*
X143366008Y-87980702D01*
X143359656Y-87987014D01*
X143358881Y-87987301D01*
X143245213Y-88024839D01*
X143244495Y-88025027D01*
X143148347Y-88043737D01*
X143066206Y-88061732D01*
X143017087Y-88085002D01*
X142983368Y-88100976D01*
X142983366Y-88100977D01*
X142983363Y-88100979D01*
X142892979Y-88176624D01*
X142884435Y-88179306D01*
X142877197Y-88175925D01*
X142786274Y-88085002D01*
X142782847Y-88076729D01*
X142785575Y-88069220D01*
X142861220Y-87978835D01*
X142861221Y-87978833D01*
X142861220Y-87978833D01*
X142861223Y-87978831D01*
X142900465Y-87895993D01*
X142918461Y-87813851D01*
X142937172Y-87717693D01*
X142937355Y-87716992D01*
X142974898Y-87603317D01*
X142980747Y-87596537D01*
X142989677Y-87595877D01*
X142990434Y-87596157D01*
G37*
%TD.AperFunction*%
%TD*%
%TA.AperFunction,Conductor*%
%TO.N,/C*%
G36*
X123319107Y-83206263D02*
G01*
X123605740Y-83430402D01*
X123860393Y-83516329D01*
X124115084Y-83533980D01*
X124408832Y-83559565D01*
X124411107Y-83559993D01*
X124772791Y-83666039D01*
X124779765Y-83671655D01*
X124780725Y-83680558D01*
X124780312Y-83681732D01*
X124462562Y-84451214D01*
X124456237Y-84457553D01*
X124456214Y-84457562D01*
X123686732Y-84775312D01*
X123677777Y-84775303D01*
X123671452Y-84768964D01*
X123671042Y-84767800D01*
X123564993Y-84406107D01*
X123564565Y-84403831D01*
X123538980Y-84110084D01*
X123521329Y-83855393D01*
X123435402Y-83600740D01*
X123211263Y-83314107D01*
X123208868Y-83305481D01*
X123212207Y-83298630D01*
X123303630Y-83207207D01*
X123311902Y-83203781D01*
X123319107Y-83206263D01*
G37*
%TD.AperFunction*%
%TD*%
%TA.AperFunction,Conductor*%
%TO.N,/A*%
G36*
X125859107Y-83206263D02*
G01*
X126145740Y-83430402D01*
X126400393Y-83516329D01*
X126655084Y-83533980D01*
X126948832Y-83559565D01*
X126951107Y-83559993D01*
X127312791Y-83666039D01*
X127319765Y-83671655D01*
X127320725Y-83680558D01*
X127320312Y-83681732D01*
X127002562Y-84451214D01*
X126996237Y-84457553D01*
X126996214Y-84457562D01*
X126226732Y-84775312D01*
X126217777Y-84775303D01*
X126211452Y-84768964D01*
X126211042Y-84767800D01*
X126104993Y-84406107D01*
X126104565Y-84403831D01*
X126078980Y-84110084D01*
X126061329Y-83855393D01*
X125975402Y-83600740D01*
X125751263Y-83314107D01*
X125748868Y-83305481D01*
X125752207Y-83298630D01*
X125843630Y-83207207D01*
X125851902Y-83203781D01*
X125859107Y-83206263D01*
G37*
%TD.AperFunction*%
%TD*%
M02*
