M48
; DRILL file {KiCad 7.0.8} date Thu Nov 16 14:29:37 2023
; FORMAT={-:-/ absolute / inch / decimal}
; #@! TF.CreationDate,2023-11-16T14:29:37+01:00
; #@! TF.GenerationSoftware,Kicad,Pcbnew,7.0.8
; #@! TF.FileFunction,MixedPlating,1,4
FMAT,2
INCH
; #@! TA.AperFunction,Plated,PTH,ViaDrill
T1C0.0118
; #@! TA.AperFunction,Plated,PTH,ViaDrill
T2C0.0157
; #@! TA.AperFunction,Plated,PTH,ComponentDrill
T3C0.0394
%
G90
G05
T1
X4.374Y-3.133
X4.382Y-3.16
X4.408Y-3.342
X4.422Y-3.396
X4.427Y-3.472
X4.433Y-3.323
X4.4384Y-3.4259
X4.456Y-3.303
X4.46Y-3.443
X4.466Y-3.269
X4.521Y-3.584
X4.546Y-3.57
X4.568Y-3.543
X4.578Y-3.2746
X4.6Y-3.515
X4.612Y-3.28
X4.62Y-3.43
X4.6208Y-3.1978
X4.6293Y-3.3341
X4.652Y-3.275
X4.654Y-3.199
X4.701Y-3.5763
X4.764Y-3.1573
X4.807Y-3.555
X5.019Y-3.587
X5.024Y-3.159
X5.097Y-3.587
X5.472Y-3.315
X5.472Y-3.3878
X5.472Y-3.475
X5.473Y-3.287
X5.473Y-3.345
X5.473Y-3.417
X5.509Y-3.483
X5.53Y-3.2746
X5.596Y-3.278
X5.6202Y-3.4992
X5.633Y-3.289
X5.64Y-3.453
X5.6453Y-3.3473
X5.646Y-3.425
X5.652Y-3.319
X5.673Y-3.247
X5.683Y-3.499
X5.699Y-3.404
T2
X4.222Y-3.368
X4.281Y-3.263
X4.285Y-3.2
X4.383Y-3.366
X4.393Y-3.549
X4.6181Y-3.3814
X4.746Y-3.2
X5.4306Y-3.2
X5.5577Y-3.1423
X5.559Y-3.496
X5.673Y-3.38
T3
X4.174Y-3.075
X4.175Y-3.675
X4.274Y-3.075
X4.275Y-3.675
X4.294Y-3.3396
X4.294Y-3.438
X4.374Y-3.075
X4.375Y-3.675
X4.474Y-3.075
X4.475Y-3.675
X4.574Y-3.075
X4.575Y-3.675
X4.674Y-3.075
X4.675Y-3.675
X4.7Y-3.325
X4.7Y-3.425
X4.774Y-3.075
X4.775Y-3.675
X4.8Y-3.325
X4.8Y-3.425
X4.874Y-3.075
X4.875Y-3.675
X4.9Y-3.325
X4.9Y-3.425
X4.974Y-3.075
X4.975Y-3.675
X5.0Y-3.325
X5.0Y-3.425
X5.074Y-3.075
X5.075Y-3.675
X5.1Y-3.325
X5.1Y-3.425
X5.174Y-3.075
X5.175Y-3.675
X5.2Y-3.325
X5.2Y-3.425
X5.274Y-3.075
X5.275Y-3.675
X5.3Y-3.325
X5.3Y-3.425
X5.374Y-3.075
X5.375Y-3.675
X5.4Y-3.325
X5.4Y-3.425
X5.474Y-3.075
X5.475Y-3.675
X5.574Y-3.075
X5.575Y-3.675
T0
M30
