%TF.GenerationSoftware,KiCad,Pcbnew,7.0.8*%
%TF.CreationDate,2023-10-16T17:27:27+02:00*%
%TF.ProjectId,LvL_shifter_shield,4c764c5f-7368-4696-9674-65725f736869,rev?*%
%TF.SameCoordinates,Original*%
%TF.FileFunction,Legend,Top*%
%TF.FilePolarity,Positive*%
%FSLAX46Y46*%
G04 Gerber Fmt 4.6, Leading zero omitted, Abs format (unit mm)*
G04 Created by KiCad (PCBNEW 7.0.8) date 2023-10-16 17:27:27*
%MOMM*%
%LPD*%
G01*
G04 APERTURE LIST*
%ADD10C,0.150000*%
%ADD11C,0.120000*%
G04 APERTURE END LIST*
D10*
X140473095Y-88679819D02*
X140473095Y-89489342D01*
X140473095Y-89489342D02*
X140520714Y-89584580D01*
X140520714Y-89584580D02*
X140568333Y-89632200D01*
X140568333Y-89632200D02*
X140663571Y-89679819D01*
X140663571Y-89679819D02*
X140854047Y-89679819D01*
X140854047Y-89679819D02*
X140949285Y-89632200D01*
X140949285Y-89632200D02*
X140996904Y-89584580D01*
X140996904Y-89584580D02*
X141044523Y-89489342D01*
X141044523Y-89489342D02*
X141044523Y-88679819D01*
X142044523Y-89679819D02*
X141473095Y-89679819D01*
X141758809Y-89679819D02*
X141758809Y-88679819D01*
X141758809Y-88679819D02*
X141663571Y-88822676D01*
X141663571Y-88822676D02*
X141568333Y-88917914D01*
X141568333Y-88917914D02*
X141473095Y-88965533D01*
X102705819Y-91697133D02*
X103420104Y-91697133D01*
X103420104Y-91697133D02*
X103562961Y-91744752D01*
X103562961Y-91744752D02*
X103658200Y-91839990D01*
X103658200Y-91839990D02*
X103705819Y-91982847D01*
X103705819Y-91982847D02*
X103705819Y-92078085D01*
X103039152Y-90792371D02*
X103705819Y-90792371D01*
X102658200Y-91030466D02*
X103372485Y-91268561D01*
X103372485Y-91268561D02*
X103372485Y-90649514D01*
X137249819Y-89868333D02*
X137964104Y-89868333D01*
X137964104Y-89868333D02*
X138106961Y-89915952D01*
X138106961Y-89915952D02*
X138202200Y-90011190D01*
X138202200Y-90011190D02*
X138249819Y-90154047D01*
X138249819Y-90154047D02*
X138249819Y-90249285D01*
X138249819Y-88868333D02*
X138249819Y-89439761D01*
X138249819Y-89154047D02*
X137249819Y-89154047D01*
X137249819Y-89154047D02*
X137392676Y-89249285D01*
X137392676Y-89249285D02*
X137487914Y-89344523D01*
X137487914Y-89344523D02*
X137535533Y-89439761D01*
X114593095Y-88837419D02*
X114593095Y-89646942D01*
X114593095Y-89646942D02*
X114640714Y-89742180D01*
X114640714Y-89742180D02*
X114688333Y-89789800D01*
X114688333Y-89789800D02*
X114783571Y-89837419D01*
X114783571Y-89837419D02*
X114974047Y-89837419D01*
X114974047Y-89837419D02*
X115069285Y-89789800D01*
X115069285Y-89789800D02*
X115116904Y-89742180D01*
X115116904Y-89742180D02*
X115164523Y-89646942D01*
X115164523Y-89646942D02*
X115164523Y-88837419D01*
X115593095Y-88932657D02*
X115640714Y-88885038D01*
X115640714Y-88885038D02*
X115735952Y-88837419D01*
X115735952Y-88837419D02*
X115974047Y-88837419D01*
X115974047Y-88837419D02*
X116069285Y-88885038D01*
X116069285Y-88885038D02*
X116116904Y-88932657D01*
X116116904Y-88932657D02*
X116164523Y-89027895D01*
X116164523Y-89027895D02*
X116164523Y-89123133D01*
X116164523Y-89123133D02*
X116116904Y-89265990D01*
X116116904Y-89265990D02*
X115545476Y-89837419D01*
X115545476Y-89837419D02*
X116164523Y-89837419D01*
D11*
%TO.C,U1*%
X140235000Y-87825000D02*
X142735000Y-87825000D01*
X140235000Y-83625000D02*
X142235000Y-83625000D01*
%TO.C,J4*%
X102257600Y-89935200D02*
X102257600Y-82215200D01*
X103477600Y-89935200D02*
X103477600Y-88715200D01*
X110677600Y-89935200D02*
X102257600Y-89935200D01*
X103477600Y-88715200D02*
X108477600Y-88715200D01*
X107477600Y-88715200D02*
X107477600Y-83435200D01*
X108477600Y-88715200D02*
X108477600Y-89935200D01*
X108477600Y-88715200D02*
X110677600Y-88715200D01*
X110677600Y-88715200D02*
X110677600Y-89935200D01*
X104057600Y-87645200D02*
X103977600Y-87325200D01*
X107477600Y-87645200D02*
X104057600Y-87645200D01*
X111167600Y-87625200D02*
X111167600Y-87025200D01*
X103977600Y-87325200D02*
X104057600Y-87005200D01*
X107477600Y-87325200D02*
X107477600Y-87645200D01*
X110567600Y-87325200D02*
X111167600Y-87625200D01*
X111167600Y-87025200D02*
X110567600Y-87325200D01*
X104057600Y-87005200D02*
X107477600Y-87005200D01*
X107477600Y-87005200D02*
X107477600Y-87325200D01*
X108477600Y-86155200D02*
X108477600Y-85995200D01*
X104057600Y-85145200D02*
X103977600Y-84825200D01*
X107477600Y-85145200D02*
X104057600Y-85145200D01*
X103977600Y-84825200D02*
X104057600Y-84505200D01*
X107477600Y-84825200D02*
X107477600Y-85145200D01*
X104057600Y-84505200D02*
X107477600Y-84505200D01*
X107477600Y-84505200D02*
X107477600Y-84825200D01*
X103477600Y-83435200D02*
X108477600Y-83435200D01*
X108477600Y-83435200D02*
X108477600Y-82215200D01*
X110677600Y-83435200D02*
X108477600Y-83435200D01*
X102257600Y-82215200D02*
X110677600Y-82215200D01*
X103477600Y-82215200D02*
X103477600Y-83435200D01*
X110677600Y-82215200D02*
X110677600Y-83435200D01*
%TO.C,J1*%
X138490000Y-83125000D02*
X118050000Y-83125000D01*
X138490000Y-83125000D02*
X138490000Y-85725000D01*
X118050000Y-83125000D02*
X118050000Y-88325000D01*
X138490000Y-85725000D02*
X135890000Y-85725000D01*
X135890000Y-85725000D02*
X135890000Y-88325000D01*
X138490000Y-86995000D02*
X138490000Y-88325000D01*
X138490000Y-88325000D02*
X137160000Y-88325000D01*
X135890000Y-88325000D02*
X118050000Y-88325000D01*
%TO.C,U2*%
X116355000Y-83660000D02*
X113855000Y-83660000D01*
X116355000Y-87860000D02*
X114355000Y-87860000D01*
%TD*%
M02*
