%TF.GenerationSoftware,KiCad,Pcbnew,7.0.8*%
%TF.CreationDate,2023-11-16T14:29:34+01:00*%
%TF.ProjectId,LvL_shifter_shield,4c764c5f-7368-4696-9674-65725f736869,rev?*%
%TF.SameCoordinates,Original*%
%TF.FileFunction,Legend,Top*%
%TF.FilePolarity,Positive*%
%FSLAX46Y46*%
G04 Gerber Fmt 4.6, Leading zero omitted, Abs format (unit mm)*
G04 Created by KiCad (PCBNEW 7.0.8) date 2023-11-16 14:29:34*
%MOMM*%
%LPD*%
G01*
G04 APERTURE LIST*
%ADD10C,0.150000*%
%ADD11C,0.120000*%
G04 APERTURE END LIST*
D10*
X143718562Y-88519000D02*
G75*
G03*
X143718562Y-88519000I-183162J0D01*
G01*
X114586515Y-83007200D02*
G75*
G03*
X114586515Y-83007200I-184915J0D01*
G01*
X124050419Y-82442207D02*
X124002800Y-82394588D01*
X124002800Y-82394588D02*
X123955180Y-82251731D01*
X123955180Y-82251731D02*
X123955180Y-82156493D01*
X123955180Y-82156493D02*
X124002800Y-82013636D01*
X124002800Y-82013636D02*
X124098038Y-81918398D01*
X124098038Y-81918398D02*
X124193276Y-81870779D01*
X124193276Y-81870779D02*
X124383752Y-81823160D01*
X124383752Y-81823160D02*
X124526609Y-81823160D01*
X124526609Y-81823160D02*
X124717085Y-81870779D01*
X124717085Y-81870779D02*
X124812323Y-81918398D01*
X124812323Y-81918398D02*
X124907561Y-82013636D01*
X124907561Y-82013636D02*
X124955180Y-82156493D01*
X124955180Y-82156493D02*
X124955180Y-82251731D01*
X124955180Y-82251731D02*
X124907561Y-82394588D01*
X124907561Y-82394588D02*
X124859942Y-82442207D01*
X119827561Y-89506588D02*
X119875180Y-89411350D01*
X119875180Y-89411350D02*
X119875180Y-89268493D01*
X119875180Y-89268493D02*
X119827561Y-89125636D01*
X119827561Y-89125636D02*
X119732323Y-89030398D01*
X119732323Y-89030398D02*
X119637085Y-88982779D01*
X119637085Y-88982779D02*
X119446609Y-88935160D01*
X119446609Y-88935160D02*
X119303752Y-88935160D01*
X119303752Y-88935160D02*
X119113276Y-88982779D01*
X119113276Y-88982779D02*
X119018038Y-89030398D01*
X119018038Y-89030398D02*
X118922800Y-89125636D01*
X118922800Y-89125636D02*
X118875180Y-89268493D01*
X118875180Y-89268493D02*
X118875180Y-89363731D01*
X118875180Y-89363731D02*
X118922800Y-89506588D01*
X118922800Y-89506588D02*
X118970419Y-89554207D01*
X118970419Y-89554207D02*
X119303752Y-89554207D01*
X119303752Y-89554207D02*
X119303752Y-89363731D01*
X118875180Y-89982779D02*
X119875180Y-89982779D01*
X119875180Y-89982779D02*
X118875180Y-90554207D01*
X118875180Y-90554207D02*
X119875180Y-90554207D01*
X118875180Y-91030398D02*
X119875180Y-91030398D01*
X119875180Y-91030398D02*
X119875180Y-91268493D01*
X119875180Y-91268493D02*
X119827561Y-91411350D01*
X119827561Y-91411350D02*
X119732323Y-91506588D01*
X119732323Y-91506588D02*
X119637085Y-91554207D01*
X119637085Y-91554207D02*
X119446609Y-91601826D01*
X119446609Y-91601826D02*
X119303752Y-91601826D01*
X119303752Y-91601826D02*
X119113276Y-91554207D01*
X119113276Y-91554207D02*
X119018038Y-91506588D01*
X119018038Y-91506588D02*
X118922800Y-91411350D01*
X118922800Y-91411350D02*
X118875180Y-91268493D01*
X118875180Y-91268493D02*
X118875180Y-91030398D01*
X131829180Y-81553207D02*
X132305371Y-81219874D01*
X131829180Y-80981779D02*
X132829180Y-80981779D01*
X132829180Y-80981779D02*
X132829180Y-81362731D01*
X132829180Y-81362731D02*
X132781561Y-81457969D01*
X132781561Y-81457969D02*
X132733942Y-81505588D01*
X132733942Y-81505588D02*
X132638704Y-81553207D01*
X132638704Y-81553207D02*
X132495847Y-81553207D01*
X132495847Y-81553207D02*
X132400609Y-81505588D01*
X132400609Y-81505588D02*
X132352990Y-81457969D01*
X132352990Y-81457969D02*
X132305371Y-81362731D01*
X132305371Y-81362731D02*
X132305371Y-80981779D01*
X132733942Y-81934160D02*
X132781561Y-81981779D01*
X132781561Y-81981779D02*
X132829180Y-82077017D01*
X132829180Y-82077017D02*
X132829180Y-82315112D01*
X132829180Y-82315112D02*
X132781561Y-82410350D01*
X132781561Y-82410350D02*
X132733942Y-82457969D01*
X132733942Y-82457969D02*
X132638704Y-82505588D01*
X132638704Y-82505588D02*
X132543466Y-82505588D01*
X132543466Y-82505588D02*
X132400609Y-82457969D01*
X132400609Y-82457969D02*
X131829180Y-81886541D01*
X131829180Y-81886541D02*
X131829180Y-82505588D01*
X126907895Y-81823160D02*
X126907895Y-82299350D01*
X126622180Y-81727922D02*
X127622180Y-82061255D01*
X127622180Y-82061255D02*
X126622180Y-82394588D01*
X119875180Y-81172255D02*
X119875180Y-81362731D01*
X119875180Y-81362731D02*
X119827561Y-81457969D01*
X119827561Y-81457969D02*
X119732323Y-81553207D01*
X119732323Y-81553207D02*
X119541847Y-81600826D01*
X119541847Y-81600826D02*
X119208514Y-81600826D01*
X119208514Y-81600826D02*
X119018038Y-81553207D01*
X119018038Y-81553207D02*
X118922800Y-81457969D01*
X118922800Y-81457969D02*
X118875180Y-81362731D01*
X118875180Y-81362731D02*
X118875180Y-81172255D01*
X118875180Y-81172255D02*
X118922800Y-81077017D01*
X118922800Y-81077017D02*
X119018038Y-80981779D01*
X119018038Y-80981779D02*
X119208514Y-80934160D01*
X119208514Y-80934160D02*
X119541847Y-80934160D01*
X119541847Y-80934160D02*
X119732323Y-80981779D01*
X119732323Y-80981779D02*
X119827561Y-81077017D01*
X119827561Y-81077017D02*
X119875180Y-81172255D01*
X119398990Y-82029398D02*
X119398990Y-82362731D01*
X118875180Y-82505588D02*
X118875180Y-82029398D01*
X118875180Y-82029398D02*
X119875180Y-82029398D01*
X119875180Y-82029398D02*
X119875180Y-82505588D01*
X132527561Y-89506588D02*
X132575180Y-89411350D01*
X132575180Y-89411350D02*
X132575180Y-89268493D01*
X132575180Y-89268493D02*
X132527561Y-89125636D01*
X132527561Y-89125636D02*
X132432323Y-89030398D01*
X132432323Y-89030398D02*
X132337085Y-88982779D01*
X132337085Y-88982779D02*
X132146609Y-88935160D01*
X132146609Y-88935160D02*
X132003752Y-88935160D01*
X132003752Y-88935160D02*
X131813276Y-88982779D01*
X131813276Y-88982779D02*
X131718038Y-89030398D01*
X131718038Y-89030398D02*
X131622800Y-89125636D01*
X131622800Y-89125636D02*
X131575180Y-89268493D01*
X131575180Y-89268493D02*
X131575180Y-89363731D01*
X131575180Y-89363731D02*
X131622800Y-89506588D01*
X131622800Y-89506588D02*
X131670419Y-89554207D01*
X131670419Y-89554207D02*
X132003752Y-89554207D01*
X132003752Y-89554207D02*
X132003752Y-89363731D01*
X132479942Y-89935160D02*
X132527561Y-89982779D01*
X132527561Y-89982779D02*
X132575180Y-90078017D01*
X132575180Y-90078017D02*
X132575180Y-90316112D01*
X132575180Y-90316112D02*
X132527561Y-90411350D01*
X132527561Y-90411350D02*
X132479942Y-90458969D01*
X132479942Y-90458969D02*
X132384704Y-90506588D01*
X132384704Y-90506588D02*
X132289466Y-90506588D01*
X132289466Y-90506588D02*
X132146609Y-90458969D01*
X132146609Y-90458969D02*
X131575180Y-89887541D01*
X131575180Y-89887541D02*
X131575180Y-90506588D01*
X121510419Y-80664207D02*
X121462800Y-80616588D01*
X121462800Y-80616588D02*
X121415180Y-80473731D01*
X121415180Y-80473731D02*
X121415180Y-80378493D01*
X121415180Y-80378493D02*
X121462800Y-80235636D01*
X121462800Y-80235636D02*
X121558038Y-80140398D01*
X121558038Y-80140398D02*
X121653276Y-80092779D01*
X121653276Y-80092779D02*
X121843752Y-80045160D01*
X121843752Y-80045160D02*
X121986609Y-80045160D01*
X121986609Y-80045160D02*
X122177085Y-80092779D01*
X122177085Y-80092779D02*
X122272323Y-80140398D01*
X122272323Y-80140398D02*
X122367561Y-80235636D01*
X122367561Y-80235636D02*
X122415180Y-80378493D01*
X122415180Y-80378493D02*
X122415180Y-80473731D01*
X122415180Y-80473731D02*
X122367561Y-80616588D01*
X122367561Y-80616588D02*
X122319942Y-80664207D01*
X121415180Y-81568969D02*
X121415180Y-81092779D01*
X121415180Y-81092779D02*
X122415180Y-81092779D01*
X121415180Y-81902303D02*
X122415180Y-81902303D01*
X121415180Y-82473731D02*
X121986609Y-82045160D01*
X122415180Y-82473731D02*
X121843752Y-81902303D01*
X129558990Y-88982779D02*
X129558990Y-89316112D01*
X129035180Y-89458969D02*
X129035180Y-88982779D01*
X129035180Y-88982779D02*
X130035180Y-88982779D01*
X130035180Y-88982779D02*
X130035180Y-89458969D01*
X127018990Y-89316112D02*
X126971371Y-89458969D01*
X126971371Y-89458969D02*
X126923752Y-89506588D01*
X126923752Y-89506588D02*
X126828514Y-89554207D01*
X126828514Y-89554207D02*
X126685657Y-89554207D01*
X126685657Y-89554207D02*
X126590419Y-89506588D01*
X126590419Y-89506588D02*
X126542800Y-89458969D01*
X126542800Y-89458969D02*
X126495180Y-89363731D01*
X126495180Y-89363731D02*
X126495180Y-88982779D01*
X126495180Y-88982779D02*
X127495180Y-88982779D01*
X127495180Y-88982779D02*
X127495180Y-89316112D01*
X127495180Y-89316112D02*
X127447561Y-89411350D01*
X127447561Y-89411350D02*
X127399942Y-89458969D01*
X127399942Y-89458969D02*
X127304704Y-89506588D01*
X127304704Y-89506588D02*
X127209466Y-89506588D01*
X127209466Y-89506588D02*
X127114228Y-89458969D01*
X127114228Y-89458969D02*
X127066609Y-89411350D01*
X127066609Y-89411350D02*
X127018990Y-89316112D01*
X127018990Y-89316112D02*
X127018990Y-88982779D01*
X136578980Y-81553207D02*
X137055171Y-81219874D01*
X136578980Y-80981779D02*
X137578980Y-80981779D01*
X137578980Y-80981779D02*
X137578980Y-81362731D01*
X137578980Y-81362731D02*
X137531361Y-81457969D01*
X137531361Y-81457969D02*
X137483742Y-81505588D01*
X137483742Y-81505588D02*
X137388504Y-81553207D01*
X137388504Y-81553207D02*
X137245647Y-81553207D01*
X137245647Y-81553207D02*
X137150409Y-81505588D01*
X137150409Y-81505588D02*
X137102790Y-81457969D01*
X137102790Y-81457969D02*
X137055171Y-81362731D01*
X137055171Y-81362731D02*
X137055171Y-80981779D01*
X136578980Y-82505588D02*
X136578980Y-81934160D01*
X136578980Y-82219874D02*
X137578980Y-82219874D01*
X137578980Y-82219874D02*
X137436123Y-82124636D01*
X137436123Y-82124636D02*
X137340885Y-82029398D01*
X137340885Y-82029398D02*
X137293266Y-81934160D01*
X121415180Y-89458969D02*
X121415180Y-88982779D01*
X121415180Y-88982779D02*
X122415180Y-88982779D01*
X121700895Y-89744684D02*
X121700895Y-90220874D01*
X121415180Y-89649446D02*
X122415180Y-89982779D01*
X122415180Y-89982779D02*
X121415180Y-90316112D01*
X122415180Y-90506589D02*
X122415180Y-91078017D01*
X121415180Y-90792303D02*
X122415180Y-90792303D01*
X134842190Y-81315112D02*
X134794571Y-81457969D01*
X134794571Y-81457969D02*
X134746952Y-81505588D01*
X134746952Y-81505588D02*
X134651714Y-81553207D01*
X134651714Y-81553207D02*
X134508857Y-81553207D01*
X134508857Y-81553207D02*
X134413619Y-81505588D01*
X134413619Y-81505588D02*
X134366000Y-81457969D01*
X134366000Y-81457969D02*
X134318380Y-81362731D01*
X134318380Y-81362731D02*
X134318380Y-80981779D01*
X134318380Y-80981779D02*
X135318380Y-80981779D01*
X135318380Y-80981779D02*
X135318380Y-81315112D01*
X135318380Y-81315112D02*
X135270761Y-81410350D01*
X135270761Y-81410350D02*
X135223142Y-81457969D01*
X135223142Y-81457969D02*
X135127904Y-81505588D01*
X135127904Y-81505588D02*
X135032666Y-81505588D01*
X135032666Y-81505588D02*
X134937428Y-81457969D01*
X134937428Y-81457969D02*
X134889809Y-81410350D01*
X134889809Y-81410350D02*
X134842190Y-81315112D01*
X134842190Y-81315112D02*
X134842190Y-80981779D01*
X134318380Y-82505588D02*
X134318380Y-81934160D01*
X134318380Y-82219874D02*
X135318380Y-82219874D01*
X135318380Y-82219874D02*
X135175523Y-82124636D01*
X135175523Y-82124636D02*
X135080285Y-82029398D01*
X135080285Y-82029398D02*
X135032666Y-81934160D01*
X137607561Y-89506588D02*
X137655180Y-89411350D01*
X137655180Y-89411350D02*
X137655180Y-89268493D01*
X137655180Y-89268493D02*
X137607561Y-89125636D01*
X137607561Y-89125636D02*
X137512323Y-89030398D01*
X137512323Y-89030398D02*
X137417085Y-88982779D01*
X137417085Y-88982779D02*
X137226609Y-88935160D01*
X137226609Y-88935160D02*
X137083752Y-88935160D01*
X137083752Y-88935160D02*
X136893276Y-88982779D01*
X136893276Y-88982779D02*
X136798038Y-89030398D01*
X136798038Y-89030398D02*
X136702800Y-89125636D01*
X136702800Y-89125636D02*
X136655180Y-89268493D01*
X136655180Y-89268493D02*
X136655180Y-89363731D01*
X136655180Y-89363731D02*
X136702800Y-89506588D01*
X136702800Y-89506588D02*
X136750419Y-89554207D01*
X136750419Y-89554207D02*
X137083752Y-89554207D01*
X137083752Y-89554207D02*
X137083752Y-89363731D01*
X136655180Y-90506588D02*
X136655180Y-89935160D01*
X136655180Y-90220874D02*
X137655180Y-90220874D01*
X137655180Y-90220874D02*
X137512323Y-90125636D01*
X137512323Y-90125636D02*
X137417085Y-90030398D01*
X137417085Y-90030398D02*
X137369466Y-89935160D01*
X135067561Y-89506588D02*
X135115180Y-89411350D01*
X135115180Y-89411350D02*
X135115180Y-89268493D01*
X135115180Y-89268493D02*
X135067561Y-89125636D01*
X135067561Y-89125636D02*
X134972323Y-89030398D01*
X134972323Y-89030398D02*
X134877085Y-88982779D01*
X134877085Y-88982779D02*
X134686609Y-88935160D01*
X134686609Y-88935160D02*
X134543752Y-88935160D01*
X134543752Y-88935160D02*
X134353276Y-88982779D01*
X134353276Y-88982779D02*
X134258038Y-89030398D01*
X134258038Y-89030398D02*
X134162800Y-89125636D01*
X134162800Y-89125636D02*
X134115180Y-89268493D01*
X134115180Y-89268493D02*
X134115180Y-89363731D01*
X134115180Y-89363731D02*
X134162800Y-89506588D01*
X134162800Y-89506588D02*
X134210419Y-89554207D01*
X134210419Y-89554207D02*
X134543752Y-89554207D01*
X134543752Y-89554207D02*
X134543752Y-89363731D01*
X134115180Y-89982779D02*
X135115180Y-89982779D01*
X135115180Y-89982779D02*
X134115180Y-90554207D01*
X134115180Y-90554207D02*
X135115180Y-90554207D01*
X134115180Y-91030398D02*
X135115180Y-91030398D01*
X135115180Y-91030398D02*
X135115180Y-91268493D01*
X135115180Y-91268493D02*
X135067561Y-91411350D01*
X135067561Y-91411350D02*
X134972323Y-91506588D01*
X134972323Y-91506588D02*
X134877085Y-91554207D01*
X134877085Y-91554207D02*
X134686609Y-91601826D01*
X134686609Y-91601826D02*
X134543752Y-91601826D01*
X134543752Y-91601826D02*
X134353276Y-91554207D01*
X134353276Y-91554207D02*
X134258038Y-91506588D01*
X134258038Y-91506588D02*
X134162800Y-91411350D01*
X134162800Y-91411350D02*
X134115180Y-91268493D01*
X134115180Y-91268493D02*
X134115180Y-91030398D01*
X123955180Y-88982779D02*
X124955180Y-88982779D01*
X124955180Y-88982779D02*
X124955180Y-89220874D01*
X124955180Y-89220874D02*
X124907561Y-89363731D01*
X124907561Y-89363731D02*
X124812323Y-89458969D01*
X124812323Y-89458969D02*
X124717085Y-89506588D01*
X124717085Y-89506588D02*
X124526609Y-89554207D01*
X124526609Y-89554207D02*
X124383752Y-89554207D01*
X124383752Y-89554207D02*
X124193276Y-89506588D01*
X124193276Y-89506588D02*
X124098038Y-89458969D01*
X124098038Y-89458969D02*
X124002800Y-89363731D01*
X124002800Y-89363731D02*
X123955180Y-89220874D01*
X123955180Y-89220874D02*
X123955180Y-88982779D01*
X129558990Y-81315112D02*
X129511371Y-81457969D01*
X129511371Y-81457969D02*
X129463752Y-81505588D01*
X129463752Y-81505588D02*
X129368514Y-81553207D01*
X129368514Y-81553207D02*
X129225657Y-81553207D01*
X129225657Y-81553207D02*
X129130419Y-81505588D01*
X129130419Y-81505588D02*
X129082800Y-81457969D01*
X129082800Y-81457969D02*
X129035180Y-81362731D01*
X129035180Y-81362731D02*
X129035180Y-80981779D01*
X129035180Y-80981779D02*
X130035180Y-80981779D01*
X130035180Y-80981779D02*
X130035180Y-81315112D01*
X130035180Y-81315112D02*
X129987561Y-81410350D01*
X129987561Y-81410350D02*
X129939942Y-81457969D01*
X129939942Y-81457969D02*
X129844704Y-81505588D01*
X129844704Y-81505588D02*
X129749466Y-81505588D01*
X129749466Y-81505588D02*
X129654228Y-81457969D01*
X129654228Y-81457969D02*
X129606609Y-81410350D01*
X129606609Y-81410350D02*
X129558990Y-81315112D01*
X129558990Y-81315112D02*
X129558990Y-80981779D01*
X129939942Y-81934160D02*
X129987561Y-81981779D01*
X129987561Y-81981779D02*
X130035180Y-82077017D01*
X130035180Y-82077017D02*
X130035180Y-82315112D01*
X130035180Y-82315112D02*
X129987561Y-82410350D01*
X129987561Y-82410350D02*
X129939942Y-82457969D01*
X129939942Y-82457969D02*
X129844704Y-82505588D01*
X129844704Y-82505588D02*
X129749466Y-82505588D01*
X129749466Y-82505588D02*
X129606609Y-82457969D01*
X129606609Y-82457969D02*
X129035180Y-81886541D01*
X129035180Y-81886541D02*
X129035180Y-82505588D01*
X140473095Y-88679819D02*
X140473095Y-89489342D01*
X140473095Y-89489342D02*
X140520714Y-89584580D01*
X140520714Y-89584580D02*
X140568333Y-89632200D01*
X140568333Y-89632200D02*
X140663571Y-89679819D01*
X140663571Y-89679819D02*
X140854047Y-89679819D01*
X140854047Y-89679819D02*
X140949285Y-89632200D01*
X140949285Y-89632200D02*
X140996904Y-89584580D01*
X140996904Y-89584580D02*
X141044523Y-89489342D01*
X141044523Y-89489342D02*
X141044523Y-88679819D01*
X142044523Y-89679819D02*
X141473095Y-89679819D01*
X141758809Y-89679819D02*
X141758809Y-88679819D01*
X141758809Y-88679819D02*
X141663571Y-88822676D01*
X141663571Y-88822676D02*
X141568333Y-88917914D01*
X141568333Y-88917914D02*
X141473095Y-88965533D01*
X102705819Y-91697133D02*
X103420104Y-91697133D01*
X103420104Y-91697133D02*
X103562961Y-91744752D01*
X103562961Y-91744752D02*
X103658200Y-91839990D01*
X103658200Y-91839990D02*
X103705819Y-91982847D01*
X103705819Y-91982847D02*
X103705819Y-92078085D01*
X103039152Y-90792371D02*
X103705819Y-90792371D01*
X102658200Y-91030466D02*
X103372485Y-91268561D01*
X103372485Y-91268561D02*
X103372485Y-90649514D01*
X138392819Y-89792133D02*
X139107104Y-89792133D01*
X139107104Y-89792133D02*
X139249961Y-89839752D01*
X139249961Y-89839752D02*
X139345200Y-89934990D01*
X139345200Y-89934990D02*
X139392819Y-90077847D01*
X139392819Y-90077847D02*
X139392819Y-90173085D01*
X139392819Y-88792133D02*
X139392819Y-89363561D01*
X139392819Y-89077847D02*
X138392819Y-89077847D01*
X138392819Y-89077847D02*
X138535676Y-89173085D01*
X138535676Y-89173085D02*
X138630914Y-89268323D01*
X138630914Y-89268323D02*
X138678533Y-89363561D01*
X114593095Y-88837419D02*
X114593095Y-89646942D01*
X114593095Y-89646942D02*
X114640714Y-89742180D01*
X114640714Y-89742180D02*
X114688333Y-89789800D01*
X114688333Y-89789800D02*
X114783571Y-89837419D01*
X114783571Y-89837419D02*
X114974047Y-89837419D01*
X114974047Y-89837419D02*
X115069285Y-89789800D01*
X115069285Y-89789800D02*
X115116904Y-89742180D01*
X115116904Y-89742180D02*
X115164523Y-89646942D01*
X115164523Y-89646942D02*
X115164523Y-88837419D01*
X115593095Y-88932657D02*
X115640714Y-88885038D01*
X115640714Y-88885038D02*
X115735952Y-88837419D01*
X115735952Y-88837419D02*
X115974047Y-88837419D01*
X115974047Y-88837419D02*
X116069285Y-88885038D01*
X116069285Y-88885038D02*
X116116904Y-88932657D01*
X116116904Y-88932657D02*
X116164523Y-89027895D01*
X116164523Y-89027895D02*
X116164523Y-89123133D01*
X116164523Y-89123133D02*
X116116904Y-89265990D01*
X116116904Y-89265990D02*
X115545476Y-89837419D01*
X115545476Y-89837419D02*
X116164523Y-89837419D01*
D11*
%TO.C,U1*%
X140235000Y-87825000D02*
X142735000Y-87825000D01*
X140235000Y-83625000D02*
X142235000Y-83625000D01*
%TO.C,J4*%
X102257600Y-89935200D02*
X102257600Y-82215200D01*
X103477600Y-89935200D02*
X103477600Y-88715200D01*
X110677600Y-89935200D02*
X102257600Y-89935200D01*
X103477600Y-88715200D02*
X108477600Y-88715200D01*
X107477600Y-88715200D02*
X107477600Y-83435200D01*
X108477600Y-88715200D02*
X108477600Y-89935200D01*
X108477600Y-88715200D02*
X110677600Y-88715200D01*
X110677600Y-88715200D02*
X110677600Y-89935200D01*
X104057600Y-87645200D02*
X103977600Y-87325200D01*
X107477600Y-87645200D02*
X104057600Y-87645200D01*
X111167600Y-87625200D02*
X111167600Y-87025200D01*
X103977600Y-87325200D02*
X104057600Y-87005200D01*
X107477600Y-87325200D02*
X107477600Y-87645200D01*
X110567600Y-87325200D02*
X111167600Y-87625200D01*
X111167600Y-87025200D02*
X110567600Y-87325200D01*
X104057600Y-87005200D02*
X107477600Y-87005200D01*
X107477600Y-87005200D02*
X107477600Y-87325200D01*
X108477600Y-86155200D02*
X108477600Y-85995200D01*
X104057600Y-85145200D02*
X103977600Y-84825200D01*
X107477600Y-85145200D02*
X104057600Y-85145200D01*
X103977600Y-84825200D02*
X104057600Y-84505200D01*
X107477600Y-84825200D02*
X107477600Y-85145200D01*
X104057600Y-84505200D02*
X107477600Y-84505200D01*
X107477600Y-84505200D02*
X107477600Y-84825200D01*
X103477600Y-83435200D02*
X108477600Y-83435200D01*
X108477600Y-83435200D02*
X108477600Y-82215200D01*
X110677600Y-83435200D02*
X108477600Y-83435200D01*
X102257600Y-82215200D02*
X110677600Y-82215200D01*
X103477600Y-82215200D02*
X103477600Y-83435200D01*
X110677600Y-82215200D02*
X110677600Y-83435200D01*
%TO.C,J1*%
X138490000Y-83125000D02*
X118050000Y-83125000D01*
X138490000Y-83125000D02*
X138490000Y-85725000D01*
X118050000Y-83125000D02*
X118050000Y-88325000D01*
X138490000Y-85725000D02*
X135890000Y-85725000D01*
X135890000Y-85725000D02*
X135890000Y-88325000D01*
X138490000Y-86995000D02*
X138490000Y-88325000D01*
X138490000Y-88325000D02*
X137160000Y-88325000D01*
X135890000Y-88325000D02*
X118050000Y-88325000D01*
%TO.C,U2*%
X116355000Y-83660000D02*
X113855000Y-83660000D01*
X116355000Y-87860000D02*
X114355000Y-87860000D01*
%TD*%
M02*
