%TF.GenerationSoftware,KiCad,Pcbnew,7.0.8*%
%TF.CreationDate,2023-11-16T14:29:34+01:00*%
%TF.ProjectId,LvL_shifter_shield,4c764c5f-7368-4696-9674-65725f736869,rev?*%
%TF.SameCoordinates,Original*%
%TF.FileFunction,Soldermask,Top*%
%TF.FilePolarity,Negative*%
%FSLAX46Y46*%
G04 Gerber Fmt 4.6, Leading zero omitted, Abs format (unit mm)*
G04 Created by KiCad (PCBNEW 7.0.8) date 2023-11-16 14:29:34*
%MOMM*%
%LPD*%
G01*
G04 APERTURE LIST*
G04 Aperture macros list*
%AMRoundRect*
0 Rectangle with rounded corners*
0 $1 Rounding radius*
0 $2 $3 $4 $5 $6 $7 $8 $9 X,Y pos of 4 corners*
0 Add a 4 corners polygon primitive as box body*
4,1,4,$2,$3,$4,$5,$6,$7,$8,$9,$2,$3,0*
0 Add four circle primitives for the rounded corners*
1,1,$1+$1,$2,$3*
1,1,$1+$1,$4,$5*
1,1,$1+$1,$6,$7*
1,1,$1+$1,$8,$9*
0 Add four rect primitives between the rounded corners*
20,1,$1+$1,$2,$3,$4,$5,0*
20,1,$1+$1,$4,$5,$6,$7,0*
20,1,$1+$1,$6,$7,$8,$9,0*
20,1,$1+$1,$8,$9,$2,$3,0*%
G04 Aperture macros list end*
%ADD10R,1.100000X0.200000*%
%ADD11R,1.000000X0.200000*%
%ADD12RoundRect,0.250000X0.750000X-0.600000X0.750000X0.600000X-0.750000X0.600000X-0.750000X-0.600000X0*%
%ADD13O,2.000000X1.700000*%
%ADD14R,1.700000X1.700000*%
%ADD15O,1.700000X1.700000*%
G04 APERTURE END LIST*
D10*
%TO.C,U1*%
X142085000Y-87525000D03*
D11*
X142135000Y-87125000D03*
X142135000Y-86725000D03*
X142135000Y-86325000D03*
X142135000Y-85925000D03*
X142135000Y-85525000D03*
X142135000Y-85125000D03*
X142135000Y-84725000D03*
X142135000Y-84325000D03*
X142135000Y-83925000D03*
X140335000Y-83925000D03*
X140335000Y-84325000D03*
X140335000Y-84725000D03*
X140335000Y-85125000D03*
X140335000Y-85525000D03*
X140335000Y-85925000D03*
X140335000Y-86325000D03*
X140335000Y-86725000D03*
X140335000Y-87125000D03*
X140335000Y-87525000D03*
%TD*%
D12*
%TO.C,J4*%
X109067600Y-87325200D03*
D13*
X109067600Y-84825200D03*
%TD*%
D14*
%TO.C,J1*%
X137160000Y-86995000D03*
D15*
X137160000Y-84455000D03*
X134620000Y-86995000D03*
X134620000Y-84455000D03*
X132080000Y-86995000D03*
X132080000Y-84455000D03*
X129540000Y-86995000D03*
X129540000Y-84455000D03*
X127000000Y-86995000D03*
X127000000Y-84455000D03*
X124460000Y-86995000D03*
X124460000Y-84455000D03*
X121920000Y-86995000D03*
X121920000Y-84455000D03*
X119380000Y-86995000D03*
X119380000Y-84455000D03*
%TD*%
D10*
%TO.C,U2*%
X114505000Y-83960000D03*
D11*
X114455000Y-84360000D03*
X114455000Y-84760000D03*
X114455000Y-85160000D03*
X114455000Y-85560000D03*
X114455000Y-85960000D03*
X114455000Y-86360000D03*
X114455000Y-86760000D03*
X114455000Y-87160000D03*
X114455000Y-87560000D03*
X116255000Y-87560000D03*
X116255000Y-87160000D03*
X116255000Y-86760000D03*
X116255000Y-86360000D03*
X116255000Y-85960000D03*
X116255000Y-85560000D03*
X116255000Y-85160000D03*
X116255000Y-84760000D03*
X116255000Y-84360000D03*
X116255000Y-83960000D03*
%TD*%
D14*
%TO.C,J3*%
X141605000Y-93345000D03*
D15*
X139065000Y-93345000D03*
X136525000Y-93345000D03*
X133985000Y-93345000D03*
X131445000Y-93345000D03*
X128905000Y-93345000D03*
X126365000Y-93345000D03*
X123825000Y-93345000D03*
X121285000Y-93345000D03*
X118745000Y-93345000D03*
X116205000Y-93345000D03*
X113665000Y-93345000D03*
X111125000Y-93345000D03*
X108585000Y-93345000D03*
X106045000Y-93345000D03*
%TD*%
D14*
%TO.C,J2*%
X106019600Y-78105000D03*
D15*
X108559600Y-78105000D03*
X111099600Y-78105000D03*
X113639600Y-78105000D03*
X116179600Y-78105000D03*
X118719600Y-78105000D03*
X121259600Y-78105000D03*
X123799600Y-78105000D03*
X126339600Y-78105000D03*
X128879600Y-78105000D03*
X131419600Y-78105000D03*
X133959600Y-78105000D03*
X136499600Y-78105000D03*
X139039600Y-78105000D03*
X141579600Y-78105000D03*
%TD*%
M02*
