%TF.GenerationSoftware,KiCad,Pcbnew,7.0.8*%
%TF.CreationDate,2023-11-27T23:45:21+01:00*%
%TF.ProjectId,LvL_shifter_shield,4c764c5f-7368-4696-9674-65725f736869,rev?*%
%TF.SameCoordinates,Original*%
%TF.FileFunction,Plated,1,4,PTH,Drill*%
%TF.FilePolarity,Positive*%
%FSLAX46Y46*%
G04 Gerber Fmt 4.6, Leading zero omitted, Abs format (unit mm)*
G04 Created by KiCad (PCBNEW 7.0.8) date 2023-11-27 23:45:21*
%MOMM*%
%LPD*%
G01*
G04 APERTURE LIST*
%TA.AperFunction,ViaDrill*%
%ADD10C,0.300000*%
%TD*%
%TA.AperFunction,ViaDrill*%
%ADD11C,0.400000*%
%TD*%
%TA.AperFunction,ComponentDrill*%
%ADD12C,1.000000*%
%TD*%
G04 APERTURE END LIST*
D10*
X111601107Y-79578700D03*
X111963200Y-84886800D03*
X112242600Y-80086200D03*
X112445800Y-86461600D03*
X112598200Y-84404200D03*
X113021900Y-87096600D03*
X113182400Y-83896200D03*
X113389665Y-86364065D03*
X113436400Y-83032600D03*
X114833400Y-91033600D03*
X115468400Y-90678000D03*
X116027200Y-89992200D03*
X116281200Y-83176100D03*
X116840000Y-89281000D03*
X117144800Y-83312000D03*
X117348000Y-87122000D03*
X117584700Y-84685500D03*
X118160800Y-83185000D03*
X118211600Y-81254600D03*
X119405400Y-90838500D03*
X119913400Y-80195900D03*
X122097800Y-90297000D03*
X127609600Y-80238600D03*
X127939800Y-90830400D03*
X129870200Y-90830400D03*
X138988800Y-84201000D03*
X138988800Y-86049500D03*
X138988800Y-88265000D03*
X139014200Y-83489800D03*
X139014200Y-84963000D03*
X139014200Y-86791800D03*
X139928600Y-88468200D03*
X140462000Y-83176100D03*
X142138400Y-83261200D03*
X142753323Y-88879923D03*
X143078200Y-83540600D03*
X143256000Y-87706200D03*
X143390377Y-85021177D03*
X143408400Y-86995000D03*
X143510000Y-88493600D03*
X143560800Y-84302600D03*
X144094200Y-82473800D03*
X144754600Y-86461600D03*
D11*
X106502200Y-80213200D03*
X108839000Y-81280000D03*
X109448600Y-82931000D03*
X111658400Y-85699600D03*
X115976400Y-81305400D03*
X117300798Y-85887100D03*
X118541800Y-89789000D03*
X129336800Y-81000600D03*
X133477000Y-81026000D03*
X133985000Y-90855800D03*
X137936900Y-81280000D03*
X138607800Y-90703400D03*
X140919200Y-81686400D03*
X141198600Y-88798400D03*
X144094200Y-85852000D03*
D12*
%TO.C,J3*%
X106019600Y-78105000D03*
%TO.C,J4*%
X106045000Y-93345000D03*
%TO.C,J3*%
X108559600Y-78105000D03*
%TO.C,J4*%
X108585000Y-93345000D03*
%TO.C,J1*%
X109296200Y-84810600D03*
X109296200Y-87310600D03*
%TO.C,J3*%
X111099600Y-78105000D03*
%TO.C,J4*%
X111125000Y-93345000D03*
%TO.C,J3*%
X113639600Y-78105000D03*
%TO.C,J4*%
X113665000Y-93345000D03*
%TO.C,J3*%
X116179600Y-78105000D03*
%TO.C,J4*%
X116205000Y-93345000D03*
%TO.C,J3*%
X118719600Y-78105000D03*
%TO.C,J4*%
X118745000Y-93345000D03*
%TO.C,J2*%
X119380000Y-84455000D03*
X119380000Y-86995000D03*
%TO.C,J3*%
X121259600Y-78105000D03*
%TO.C,J4*%
X121285000Y-93345000D03*
%TO.C,J2*%
X121920000Y-84455000D03*
X121920000Y-86995000D03*
%TO.C,J3*%
X123799600Y-78105000D03*
%TO.C,J4*%
X123825000Y-93345000D03*
%TO.C,J2*%
X124460000Y-84455000D03*
X124460000Y-86995000D03*
%TO.C,J3*%
X126339600Y-78105000D03*
%TO.C,J4*%
X126365000Y-93345000D03*
%TO.C,J2*%
X127000000Y-84455000D03*
X127000000Y-86995000D03*
%TO.C,J3*%
X128879600Y-78105000D03*
%TO.C,J4*%
X128905000Y-93345000D03*
%TO.C,J2*%
X129540000Y-84455000D03*
X129540000Y-86995000D03*
%TO.C,J3*%
X131419600Y-78105000D03*
%TO.C,J4*%
X131445000Y-93345000D03*
%TO.C,J2*%
X132080000Y-84455000D03*
X132080000Y-86995000D03*
%TO.C,J3*%
X133959600Y-78105000D03*
%TO.C,J4*%
X133985000Y-93345000D03*
%TO.C,J2*%
X134620000Y-84455000D03*
X134620000Y-86995000D03*
%TO.C,J3*%
X136499600Y-78105000D03*
%TO.C,J4*%
X136525000Y-93345000D03*
%TO.C,J2*%
X137160000Y-84455000D03*
X137160000Y-86995000D03*
%TO.C,J3*%
X139039600Y-78105000D03*
%TO.C,J4*%
X139065000Y-93345000D03*
%TO.C,J3*%
X141579600Y-78105000D03*
%TO.C,J4*%
X141605000Y-93345000D03*
M02*
