%TF.GenerationSoftware,KiCad,Pcbnew,7.0.8*%
%TF.CreationDate,2023-10-16T17:27:27+02:00*%
%TF.ProjectId,LvL_shifter_shield,4c764c5f-7368-4696-9674-65725f736869,rev?*%
%TF.SameCoordinates,Original*%
%TF.FileFunction,Legend,Bot*%
%TF.FilePolarity,Positive*%
%FSLAX46Y46*%
G04 Gerber Fmt 4.6, Leading zero omitted, Abs format (unit mm)*
G04 Created by KiCad (PCBNEW 7.0.8) date 2023-10-16 17:27:27*
%MOMM*%
%LPD*%
G01*
G04 APERTURE LIST*
%ADD10C,0.300000*%
%ADD11C,0.150000*%
%ADD12C,0.120000*%
G04 APERTURE END LIST*
D10*
X143294309Y-90088428D02*
X143294309Y-91088428D01*
X143294309Y-90231285D02*
X143222880Y-90159857D01*
X143222880Y-90159857D02*
X143080023Y-90088428D01*
X143080023Y-90088428D02*
X142865737Y-90088428D01*
X142865737Y-90088428D02*
X142722880Y-90159857D01*
X142722880Y-90159857D02*
X142651452Y-90302714D01*
X142651452Y-90302714D02*
X142651452Y-91088428D01*
X141294309Y-91088428D02*
X141294309Y-90302714D01*
X141294309Y-90302714D02*
X141365737Y-90159857D01*
X141365737Y-90159857D02*
X141508594Y-90088428D01*
X141508594Y-90088428D02*
X141794309Y-90088428D01*
X141794309Y-90088428D02*
X141937166Y-90159857D01*
X141294309Y-91017000D02*
X141437166Y-91088428D01*
X141437166Y-91088428D02*
X141794309Y-91088428D01*
X141794309Y-91088428D02*
X141937166Y-91017000D01*
X141937166Y-91017000D02*
X142008594Y-90874142D01*
X142008594Y-90874142D02*
X142008594Y-90731285D01*
X142008594Y-90731285D02*
X141937166Y-90588428D01*
X141937166Y-90588428D02*
X141794309Y-90517000D01*
X141794309Y-90517000D02*
X141437166Y-90517000D01*
X141437166Y-90517000D02*
X141294309Y-90445571D01*
X140580023Y-90088428D02*
X140580023Y-91088428D01*
X140580023Y-90231285D02*
X140508594Y-90159857D01*
X140508594Y-90159857D02*
X140365737Y-90088428D01*
X140365737Y-90088428D02*
X140151451Y-90088428D01*
X140151451Y-90088428D02*
X140008594Y-90159857D01*
X140008594Y-90159857D02*
X139937166Y-90302714D01*
X139937166Y-90302714D02*
X139937166Y-91088428D01*
X139008594Y-91088428D02*
X139151451Y-91017000D01*
X139151451Y-91017000D02*
X139222880Y-90945571D01*
X139222880Y-90945571D02*
X139294308Y-90802714D01*
X139294308Y-90802714D02*
X139294308Y-90374142D01*
X139294308Y-90374142D02*
X139222880Y-90231285D01*
X139222880Y-90231285D02*
X139151451Y-90159857D01*
X139151451Y-90159857D02*
X139008594Y-90088428D01*
X139008594Y-90088428D02*
X138794308Y-90088428D01*
X138794308Y-90088428D02*
X138651451Y-90159857D01*
X138651451Y-90159857D02*
X138580023Y-90231285D01*
X138580023Y-90231285D02*
X138508594Y-90374142D01*
X138508594Y-90374142D02*
X138508594Y-90802714D01*
X138508594Y-90802714D02*
X138580023Y-90945571D01*
X138580023Y-90945571D02*
X138651451Y-91017000D01*
X138651451Y-91017000D02*
X138794308Y-91088428D01*
X138794308Y-91088428D02*
X139008594Y-91088428D01*
X138008594Y-89588428D02*
X137080022Y-89588428D01*
X137080022Y-89588428D02*
X137580022Y-90159857D01*
X137580022Y-90159857D02*
X137365737Y-90159857D01*
X137365737Y-90159857D02*
X137222880Y-90231285D01*
X137222880Y-90231285D02*
X137151451Y-90302714D01*
X137151451Y-90302714D02*
X137080022Y-90445571D01*
X137080022Y-90445571D02*
X137080022Y-90802714D01*
X137080022Y-90802714D02*
X137151451Y-90945571D01*
X137151451Y-90945571D02*
X137222880Y-91017000D01*
X137222880Y-91017000D02*
X137365737Y-91088428D01*
X137365737Y-91088428D02*
X137794308Y-91088428D01*
X137794308Y-91088428D02*
X137937165Y-91017000D01*
X137937165Y-91017000D02*
X138008594Y-90945571D01*
X136580023Y-89588428D02*
X135651451Y-89588428D01*
X135651451Y-89588428D02*
X136151451Y-90159857D01*
X136151451Y-90159857D02*
X135937166Y-90159857D01*
X135937166Y-90159857D02*
X135794309Y-90231285D01*
X135794309Y-90231285D02*
X135722880Y-90302714D01*
X135722880Y-90302714D02*
X135651451Y-90445571D01*
X135651451Y-90445571D02*
X135651451Y-90802714D01*
X135651451Y-90802714D02*
X135722880Y-90945571D01*
X135722880Y-90945571D02*
X135794309Y-91017000D01*
X135794309Y-91017000D02*
X135937166Y-91088428D01*
X135937166Y-91088428D02*
X136365737Y-91088428D01*
X136365737Y-91088428D02*
X136508594Y-91017000D01*
X136508594Y-91017000D02*
X136580023Y-90945571D01*
X135365738Y-91231285D02*
X134222880Y-91231285D01*
X133865738Y-91088428D02*
X133865738Y-89588428D01*
X133222881Y-91088428D02*
X133222881Y-90302714D01*
X133222881Y-90302714D02*
X133294309Y-90159857D01*
X133294309Y-90159857D02*
X133437166Y-90088428D01*
X133437166Y-90088428D02*
X133651452Y-90088428D01*
X133651452Y-90088428D02*
X133794309Y-90159857D01*
X133794309Y-90159857D02*
X133865738Y-90231285D01*
X131865738Y-90088428D02*
X131865738Y-91088428D01*
X132508595Y-90088428D02*
X132508595Y-90874142D01*
X132508595Y-90874142D02*
X132437166Y-91017000D01*
X132437166Y-91017000D02*
X132294309Y-91088428D01*
X132294309Y-91088428D02*
X132080023Y-91088428D01*
X132080023Y-91088428D02*
X131937166Y-91017000D01*
X131937166Y-91017000D02*
X131865738Y-90945571D01*
X131151452Y-91088428D02*
X131151452Y-89588428D01*
X131151452Y-90159857D02*
X131008595Y-90088428D01*
X131008595Y-90088428D02*
X130722880Y-90088428D01*
X130722880Y-90088428D02*
X130580023Y-90159857D01*
X130580023Y-90159857D02*
X130508595Y-90231285D01*
X130508595Y-90231285D02*
X130437166Y-90374142D01*
X130437166Y-90374142D02*
X130437166Y-90802714D01*
X130437166Y-90802714D02*
X130508595Y-90945571D01*
X130508595Y-90945571D02*
X130580023Y-91017000D01*
X130580023Y-91017000D02*
X130722880Y-91088428D01*
X130722880Y-91088428D02*
X131008595Y-91088428D01*
X131008595Y-91088428D02*
X131151452Y-91017000D01*
X129937166Y-89588428D02*
X128937166Y-89588428D01*
X128937166Y-89588428D02*
X129580023Y-91088428D01*
X127651452Y-89588428D02*
X128365738Y-89588428D01*
X128365738Y-89588428D02*
X128437166Y-90302714D01*
X128437166Y-90302714D02*
X128365738Y-90231285D01*
X128365738Y-90231285D02*
X128222881Y-90159857D01*
X128222881Y-90159857D02*
X127865738Y-90159857D01*
X127865738Y-90159857D02*
X127722881Y-90231285D01*
X127722881Y-90231285D02*
X127651452Y-90302714D01*
X127651452Y-90302714D02*
X127580023Y-90445571D01*
X127580023Y-90445571D02*
X127580023Y-90802714D01*
X127580023Y-90802714D02*
X127651452Y-90945571D01*
X127651452Y-90945571D02*
X127722881Y-91017000D01*
X127722881Y-91017000D02*
X127865738Y-91088428D01*
X127865738Y-91088428D02*
X128222881Y-91088428D01*
X128222881Y-91088428D02*
X128365738Y-91017000D01*
X128365738Y-91017000D02*
X128437166Y-90945571D01*
X126365738Y-91017000D02*
X126508595Y-91088428D01*
X126508595Y-91088428D02*
X126794310Y-91088428D01*
X126794310Y-91088428D02*
X126937167Y-91017000D01*
X126937167Y-91017000D02*
X127008595Y-90874142D01*
X127008595Y-90874142D02*
X127008595Y-90302714D01*
X127008595Y-90302714D02*
X126937167Y-90159857D01*
X126937167Y-90159857D02*
X126794310Y-90088428D01*
X126794310Y-90088428D02*
X126508595Y-90088428D01*
X126508595Y-90088428D02*
X126365738Y-90159857D01*
X126365738Y-90159857D02*
X126294310Y-90302714D01*
X126294310Y-90302714D02*
X126294310Y-90445571D01*
X126294310Y-90445571D02*
X127008595Y-90588428D01*
X126008596Y-91231285D02*
X124865738Y-91231285D01*
X124508596Y-91088428D02*
X124508596Y-89588428D01*
X123865739Y-91088428D02*
X123865739Y-90302714D01*
X123865739Y-90302714D02*
X123937167Y-90159857D01*
X123937167Y-90159857D02*
X124080024Y-90088428D01*
X124080024Y-90088428D02*
X124294310Y-90088428D01*
X124294310Y-90088428D02*
X124437167Y-90159857D01*
X124437167Y-90159857D02*
X124508596Y-90231285D01*
X122508596Y-91088428D02*
X122508596Y-90302714D01*
X122508596Y-90302714D02*
X122580024Y-90159857D01*
X122580024Y-90159857D02*
X122722881Y-90088428D01*
X122722881Y-90088428D02*
X123008596Y-90088428D01*
X123008596Y-90088428D02*
X123151453Y-90159857D01*
X122508596Y-91017000D02*
X122651453Y-91088428D01*
X122651453Y-91088428D02*
X123008596Y-91088428D01*
X123008596Y-91088428D02*
X123151453Y-91017000D01*
X123151453Y-91017000D02*
X123222881Y-90874142D01*
X123222881Y-90874142D02*
X123222881Y-90731285D01*
X123222881Y-90731285D02*
X123151453Y-90588428D01*
X123151453Y-90588428D02*
X123008596Y-90517000D01*
X123008596Y-90517000D02*
X122651453Y-90517000D01*
X122651453Y-90517000D02*
X122508596Y-90445571D01*
X122008595Y-90088428D02*
X121437167Y-90088428D01*
X121794310Y-89588428D02*
X121794310Y-90874142D01*
X121794310Y-90874142D02*
X121722881Y-91017000D01*
X121722881Y-91017000D02*
X121580024Y-91088428D01*
X121580024Y-91088428D02*
X121437167Y-91088428D01*
X121294310Y-91231285D02*
X120151452Y-91231285D01*
X119937167Y-90088428D02*
X119580024Y-91088428D01*
X119580024Y-91088428D02*
X119222881Y-90088428D01*
X117865738Y-91088428D02*
X118722881Y-91088428D01*
X118294310Y-91088428D02*
X118294310Y-89588428D01*
X118294310Y-89588428D02*
X118437167Y-89802714D01*
X118437167Y-89802714D02*
X118580024Y-89945571D01*
X118580024Y-89945571D02*
X118722881Y-90017000D01*
X117222882Y-90945571D02*
X117151453Y-91017000D01*
X117151453Y-91017000D02*
X117222882Y-91088428D01*
X117222882Y-91088428D02*
X117294310Y-91017000D01*
X117294310Y-91017000D02*
X117222882Y-90945571D01*
X117222882Y-90945571D02*
X117222882Y-91088428D01*
X116580024Y-89731285D02*
X116508596Y-89659857D01*
X116508596Y-89659857D02*
X116365739Y-89588428D01*
X116365739Y-89588428D02*
X116008596Y-89588428D01*
X116008596Y-89588428D02*
X115865739Y-89659857D01*
X115865739Y-89659857D02*
X115794310Y-89731285D01*
X115794310Y-89731285D02*
X115722881Y-89874142D01*
X115722881Y-89874142D02*
X115722881Y-90017000D01*
X115722881Y-90017000D02*
X115794310Y-90231285D01*
X115794310Y-90231285D02*
X116651453Y-91088428D01*
X116651453Y-91088428D02*
X115722881Y-91088428D01*
D11*
X117996666Y-83639819D02*
X118329999Y-83163628D01*
X118568094Y-83639819D02*
X118568094Y-82639819D01*
X118568094Y-82639819D02*
X118187142Y-82639819D01*
X118187142Y-82639819D02*
X118091904Y-82687438D01*
X118091904Y-82687438D02*
X118044285Y-82735057D01*
X118044285Y-82735057D02*
X117996666Y-82830295D01*
X117996666Y-82830295D02*
X117996666Y-82973152D01*
X117996666Y-82973152D02*
X118044285Y-83068390D01*
X118044285Y-83068390D02*
X118091904Y-83116009D01*
X118091904Y-83116009D02*
X118187142Y-83163628D01*
X118187142Y-83163628D02*
X118568094Y-83163628D01*
X117615713Y-82735057D02*
X117568094Y-82687438D01*
X117568094Y-82687438D02*
X117472856Y-82639819D01*
X117472856Y-82639819D02*
X117234761Y-82639819D01*
X117234761Y-82639819D02*
X117139523Y-82687438D01*
X117139523Y-82687438D02*
X117091904Y-82735057D01*
X117091904Y-82735057D02*
X117044285Y-82830295D01*
X117044285Y-82830295D02*
X117044285Y-82925533D01*
X117044285Y-82925533D02*
X117091904Y-83068390D01*
X117091904Y-83068390D02*
X117663332Y-83639819D01*
X117663332Y-83639819D02*
X117044285Y-83639819D01*
X104229819Y-90471666D02*
X104944104Y-90471666D01*
X104944104Y-90471666D02*
X105086961Y-90424047D01*
X105086961Y-90424047D02*
X105182200Y-90328809D01*
X105182200Y-90328809D02*
X105229819Y-90185952D01*
X105229819Y-90185952D02*
X105229819Y-90090714D01*
X104229819Y-90852619D02*
X104229819Y-91471666D01*
X104229819Y-91471666D02*
X104610771Y-91138333D01*
X104610771Y-91138333D02*
X104610771Y-91281190D01*
X104610771Y-91281190D02*
X104658390Y-91376428D01*
X104658390Y-91376428D02*
X104706009Y-91424047D01*
X104706009Y-91424047D02*
X104801247Y-91471666D01*
X104801247Y-91471666D02*
X105039342Y-91471666D01*
X105039342Y-91471666D02*
X105134580Y-91424047D01*
X105134580Y-91424047D02*
X105182200Y-91376428D01*
X105182200Y-91376428D02*
X105229819Y-91281190D01*
X105229819Y-91281190D02*
X105229819Y-90995476D01*
X105229819Y-90995476D02*
X105182200Y-90900238D01*
X105182200Y-90900238D02*
X105134580Y-90852619D01*
X141136666Y-83554819D02*
X141469999Y-83078628D01*
X141708094Y-83554819D02*
X141708094Y-82554819D01*
X141708094Y-82554819D02*
X141327142Y-82554819D01*
X141327142Y-82554819D02*
X141231904Y-82602438D01*
X141231904Y-82602438D02*
X141184285Y-82650057D01*
X141184285Y-82650057D02*
X141136666Y-82745295D01*
X141136666Y-82745295D02*
X141136666Y-82888152D01*
X141136666Y-82888152D02*
X141184285Y-82983390D01*
X141184285Y-82983390D02*
X141231904Y-83031009D01*
X141231904Y-83031009D02*
X141327142Y-83078628D01*
X141327142Y-83078628D02*
X141708094Y-83078628D01*
X140184285Y-83554819D02*
X140755713Y-83554819D01*
X140469999Y-83554819D02*
X140469999Y-82554819D01*
X140469999Y-82554819D02*
X140565237Y-82697676D01*
X140565237Y-82697676D02*
X140660475Y-82792914D01*
X140660475Y-82792914D02*
X140755713Y-82840533D01*
X111926666Y-88624580D02*
X111974285Y-88672200D01*
X111974285Y-88672200D02*
X112117142Y-88719819D01*
X112117142Y-88719819D02*
X112212380Y-88719819D01*
X112212380Y-88719819D02*
X112355237Y-88672200D01*
X112355237Y-88672200D02*
X112450475Y-88576961D01*
X112450475Y-88576961D02*
X112498094Y-88481723D01*
X112498094Y-88481723D02*
X112545713Y-88291247D01*
X112545713Y-88291247D02*
X112545713Y-88148390D01*
X112545713Y-88148390D02*
X112498094Y-87957914D01*
X112498094Y-87957914D02*
X112450475Y-87862676D01*
X112450475Y-87862676D02*
X112355237Y-87767438D01*
X112355237Y-87767438D02*
X112212380Y-87719819D01*
X112212380Y-87719819D02*
X112117142Y-87719819D01*
X112117142Y-87719819D02*
X111974285Y-87767438D01*
X111974285Y-87767438D02*
X111926666Y-87815057D01*
X110974285Y-88719819D02*
X111545713Y-88719819D01*
X111259999Y-88719819D02*
X111259999Y-87719819D01*
X111259999Y-87719819D02*
X111355237Y-87862676D01*
X111355237Y-87862676D02*
X111450475Y-87957914D01*
X111450475Y-87957914D02*
X111545713Y-88005533D01*
X111926666Y-83544580D02*
X111974285Y-83592200D01*
X111974285Y-83592200D02*
X112117142Y-83639819D01*
X112117142Y-83639819D02*
X112212380Y-83639819D01*
X112212380Y-83639819D02*
X112355237Y-83592200D01*
X112355237Y-83592200D02*
X112450475Y-83496961D01*
X112450475Y-83496961D02*
X112498094Y-83401723D01*
X112498094Y-83401723D02*
X112545713Y-83211247D01*
X112545713Y-83211247D02*
X112545713Y-83068390D01*
X112545713Y-83068390D02*
X112498094Y-82877914D01*
X112498094Y-82877914D02*
X112450475Y-82782676D01*
X112450475Y-82782676D02*
X112355237Y-82687438D01*
X112355237Y-82687438D02*
X112212380Y-82639819D01*
X112212380Y-82639819D02*
X112117142Y-82639819D01*
X112117142Y-82639819D02*
X111974285Y-82687438D01*
X111974285Y-82687438D02*
X111926666Y-82735057D01*
X111545713Y-82735057D02*
X111498094Y-82687438D01*
X111498094Y-82687438D02*
X111402856Y-82639819D01*
X111402856Y-82639819D02*
X111164761Y-82639819D01*
X111164761Y-82639819D02*
X111069523Y-82687438D01*
X111069523Y-82687438D02*
X111021904Y-82735057D01*
X111021904Y-82735057D02*
X110974285Y-82830295D01*
X110974285Y-82830295D02*
X110974285Y-82925533D01*
X110974285Y-82925533D02*
X111021904Y-83068390D01*
X111021904Y-83068390D02*
X111593332Y-83639819D01*
X111593332Y-83639819D02*
X110974285Y-83639819D01*
X142274419Y-74596666D02*
X142988704Y-74596666D01*
X142988704Y-74596666D02*
X143131561Y-74549047D01*
X143131561Y-74549047D02*
X143226800Y-74453809D01*
X143226800Y-74453809D02*
X143274419Y-74310952D01*
X143274419Y-74310952D02*
X143274419Y-74215714D01*
X142369657Y-75025238D02*
X142322038Y-75072857D01*
X142322038Y-75072857D02*
X142274419Y-75168095D01*
X142274419Y-75168095D02*
X142274419Y-75406190D01*
X142274419Y-75406190D02*
X142322038Y-75501428D01*
X142322038Y-75501428D02*
X142369657Y-75549047D01*
X142369657Y-75549047D02*
X142464895Y-75596666D01*
X142464895Y-75596666D02*
X142560133Y-75596666D01*
X142560133Y-75596666D02*
X142702990Y-75549047D01*
X142702990Y-75549047D02*
X143274419Y-74977619D01*
X143274419Y-74977619D02*
X143274419Y-75596666D01*
D12*
%TO.C,R2*%
X118557064Y-82190000D02*
X117102936Y-82190000D01*
X118557064Y-80370000D02*
X117102936Y-80370000D01*
%TO.C,J3*%
X104715000Y-94675000D02*
X104715000Y-92015000D01*
X140335000Y-94675000D02*
X104715000Y-94675000D01*
X140335000Y-94675000D02*
X140335000Y-92015000D01*
X142935000Y-93345000D02*
X142935000Y-92015000D01*
X140335000Y-92015000D02*
X104715000Y-92015000D01*
X142935000Y-92015000D02*
X141605000Y-92015000D01*
%TO.C,R1*%
X140242936Y-80370000D02*
X141697064Y-80370000D01*
X140242936Y-82190000D02*
X141697064Y-82190000D01*
%TO.C,C1*%
X111048748Y-89260000D02*
X112471252Y-89260000D01*
X111048748Y-91080000D02*
X112471252Y-91080000D01*
%TO.C,C2*%
X111048748Y-80370000D02*
X112471252Y-80370000D01*
X111048748Y-82190000D02*
X112471252Y-82190000D01*
%TO.C,J2*%
X142909600Y-76775000D02*
X142909600Y-79435000D01*
X107289600Y-76775000D02*
X142909600Y-76775000D01*
X107289600Y-76775000D02*
X107289600Y-79435000D01*
X104689600Y-78105000D02*
X104689600Y-79435000D01*
X107289600Y-79435000D02*
X142909600Y-79435000D01*
X104689600Y-79435000D02*
X106019600Y-79435000D01*
%TD*%
M02*
