%TF.GenerationSoftware,KiCad,Pcbnew,7.0.8*%
%TF.CreationDate,2023-11-16T14:29:34+01:00*%
%TF.ProjectId,LvL_shifter_shield,4c764c5f-7368-4696-9674-65725f736869,rev?*%
%TF.SameCoordinates,Original*%
%TF.FileFunction,Legend,Bot*%
%TF.FilePolarity,Positive*%
%FSLAX46Y46*%
G04 Gerber Fmt 4.6, Leading zero omitted, Abs format (unit mm)*
G04 Created by KiCad (PCBNEW 7.0.8) date 2023-11-16 14:29:34*
%MOMM*%
%LPD*%
G01*
G04 APERTURE LIST*
%ADD10C,0.150000*%
%ADD11C,0.300000*%
%ADD12C,0.120000*%
G04 APERTURE END LIST*
D10*
X134862649Y-79802266D02*
X134329316Y-79802266D01*
X134595982Y-80068933D02*
X134595982Y-79535600D01*
X133662649Y-79368933D02*
X133995982Y-79368933D01*
X133995982Y-79368933D02*
X134029315Y-79702266D01*
X134029315Y-79702266D02*
X133995982Y-79668933D01*
X133995982Y-79668933D02*
X133929315Y-79635600D01*
X133929315Y-79635600D02*
X133762649Y-79635600D01*
X133762649Y-79635600D02*
X133695982Y-79668933D01*
X133695982Y-79668933D02*
X133662649Y-79702266D01*
X133662649Y-79702266D02*
X133629315Y-79768933D01*
X133629315Y-79768933D02*
X133629315Y-79935600D01*
X133629315Y-79935600D02*
X133662649Y-80002266D01*
X133662649Y-80002266D02*
X133695982Y-80035600D01*
X133695982Y-80035600D02*
X133762649Y-80068933D01*
X133762649Y-80068933D02*
X133929315Y-80068933D01*
X133929315Y-80068933D02*
X133995982Y-80035600D01*
X133995982Y-80035600D02*
X134029315Y-80002266D01*
X133429315Y-79368933D02*
X133195982Y-80068933D01*
X133195982Y-80068933D02*
X132962648Y-79368933D01*
X109996049Y-79802266D02*
X109462716Y-79802266D01*
X109729382Y-80068933D02*
X109729382Y-79535600D01*
X109196049Y-79368933D02*
X108762715Y-79368933D01*
X108762715Y-79368933D02*
X108996049Y-79635600D01*
X108996049Y-79635600D02*
X108896049Y-79635600D01*
X108896049Y-79635600D02*
X108829382Y-79668933D01*
X108829382Y-79668933D02*
X108796049Y-79702266D01*
X108796049Y-79702266D02*
X108762715Y-79768933D01*
X108762715Y-79768933D02*
X108762715Y-79935600D01*
X108762715Y-79935600D02*
X108796049Y-80002266D01*
X108796049Y-80002266D02*
X108829382Y-80035600D01*
X108829382Y-80035600D02*
X108896049Y-80068933D01*
X108896049Y-80068933D02*
X109096049Y-80068933D01*
X109096049Y-80068933D02*
X109162715Y-80035600D01*
X109162715Y-80035600D02*
X109196049Y-80002266D01*
X108462715Y-80002266D02*
X108429382Y-80035600D01*
X108429382Y-80035600D02*
X108462715Y-80068933D01*
X108462715Y-80068933D02*
X108496048Y-80035600D01*
X108496048Y-80035600D02*
X108462715Y-80002266D01*
X108462715Y-80002266D02*
X108462715Y-80068933D01*
X108196049Y-79368933D02*
X107762715Y-79368933D01*
X107762715Y-79368933D02*
X107996049Y-79635600D01*
X107996049Y-79635600D02*
X107896049Y-79635600D01*
X107896049Y-79635600D02*
X107829382Y-79668933D01*
X107829382Y-79668933D02*
X107796049Y-79702266D01*
X107796049Y-79702266D02*
X107762715Y-79768933D01*
X107762715Y-79768933D02*
X107762715Y-79935600D01*
X107762715Y-79935600D02*
X107796049Y-80002266D01*
X107796049Y-80002266D02*
X107829382Y-80035600D01*
X107829382Y-80035600D02*
X107896049Y-80068933D01*
X107896049Y-80068933D02*
X108096049Y-80068933D01*
X108096049Y-80068933D02*
X108162715Y-80035600D01*
X108162715Y-80035600D02*
X108196049Y-80002266D01*
X107562715Y-79368933D02*
X107329382Y-80068933D01*
X107329382Y-80068933D02*
X107096048Y-79368933D01*
X134445182Y-91543466D02*
X134511849Y-91510133D01*
X134511849Y-91510133D02*
X134611849Y-91510133D01*
X134611849Y-91510133D02*
X134711849Y-91543466D01*
X134711849Y-91543466D02*
X134778516Y-91610133D01*
X134778516Y-91610133D02*
X134811849Y-91676800D01*
X134811849Y-91676800D02*
X134845182Y-91810133D01*
X134845182Y-91810133D02*
X134845182Y-91910133D01*
X134845182Y-91910133D02*
X134811849Y-92043466D01*
X134811849Y-92043466D02*
X134778516Y-92110133D01*
X134778516Y-92110133D02*
X134711849Y-92176800D01*
X134711849Y-92176800D02*
X134611849Y-92210133D01*
X134611849Y-92210133D02*
X134545182Y-92210133D01*
X134545182Y-92210133D02*
X134445182Y-92176800D01*
X134445182Y-92176800D02*
X134411849Y-92143466D01*
X134411849Y-92143466D02*
X134411849Y-91910133D01*
X134411849Y-91910133D02*
X134545182Y-91910133D01*
X134111849Y-92210133D02*
X134111849Y-91510133D01*
X134111849Y-91510133D02*
X133711849Y-92210133D01*
X133711849Y-92210133D02*
X133711849Y-91510133D01*
X133378516Y-92210133D02*
X133378516Y-91510133D01*
X133378516Y-91510133D02*
X133211849Y-91510133D01*
X133211849Y-91510133D02*
X133111849Y-91543466D01*
X133111849Y-91543466D02*
X133045183Y-91610133D01*
X133045183Y-91610133D02*
X133011849Y-91676800D01*
X133011849Y-91676800D02*
X132978516Y-91810133D01*
X132978516Y-91810133D02*
X132978516Y-91910133D01*
X132978516Y-91910133D02*
X133011849Y-92043466D01*
X133011849Y-92043466D02*
X133045183Y-92110133D01*
X133045183Y-92110133D02*
X133111849Y-92176800D01*
X133111849Y-92176800D02*
X133211849Y-92210133D01*
X133211849Y-92210133D02*
X133378516Y-92210133D01*
D11*
X143294309Y-90088428D02*
X143294309Y-91088428D01*
X143294309Y-90231285D02*
X143222880Y-90159857D01*
X143222880Y-90159857D02*
X143080023Y-90088428D01*
X143080023Y-90088428D02*
X142865737Y-90088428D01*
X142865737Y-90088428D02*
X142722880Y-90159857D01*
X142722880Y-90159857D02*
X142651452Y-90302714D01*
X142651452Y-90302714D02*
X142651452Y-91088428D01*
X141294309Y-91088428D02*
X141294309Y-90302714D01*
X141294309Y-90302714D02*
X141365737Y-90159857D01*
X141365737Y-90159857D02*
X141508594Y-90088428D01*
X141508594Y-90088428D02*
X141794309Y-90088428D01*
X141794309Y-90088428D02*
X141937166Y-90159857D01*
X141294309Y-91017000D02*
X141437166Y-91088428D01*
X141437166Y-91088428D02*
X141794309Y-91088428D01*
X141794309Y-91088428D02*
X141937166Y-91017000D01*
X141937166Y-91017000D02*
X142008594Y-90874142D01*
X142008594Y-90874142D02*
X142008594Y-90731285D01*
X142008594Y-90731285D02*
X141937166Y-90588428D01*
X141937166Y-90588428D02*
X141794309Y-90517000D01*
X141794309Y-90517000D02*
X141437166Y-90517000D01*
X141437166Y-90517000D02*
X141294309Y-90445571D01*
X140580023Y-90088428D02*
X140580023Y-91088428D01*
X140580023Y-90231285D02*
X140508594Y-90159857D01*
X140508594Y-90159857D02*
X140365737Y-90088428D01*
X140365737Y-90088428D02*
X140151451Y-90088428D01*
X140151451Y-90088428D02*
X140008594Y-90159857D01*
X140008594Y-90159857D02*
X139937166Y-90302714D01*
X139937166Y-90302714D02*
X139937166Y-91088428D01*
X139008594Y-91088428D02*
X139151451Y-91017000D01*
X139151451Y-91017000D02*
X139222880Y-90945571D01*
X139222880Y-90945571D02*
X139294308Y-90802714D01*
X139294308Y-90802714D02*
X139294308Y-90374142D01*
X139294308Y-90374142D02*
X139222880Y-90231285D01*
X139222880Y-90231285D02*
X139151451Y-90159857D01*
X139151451Y-90159857D02*
X139008594Y-90088428D01*
X139008594Y-90088428D02*
X138794308Y-90088428D01*
X138794308Y-90088428D02*
X138651451Y-90159857D01*
X138651451Y-90159857D02*
X138580023Y-90231285D01*
X138580023Y-90231285D02*
X138508594Y-90374142D01*
X138508594Y-90374142D02*
X138508594Y-90802714D01*
X138508594Y-90802714D02*
X138580023Y-90945571D01*
X138580023Y-90945571D02*
X138651451Y-91017000D01*
X138651451Y-91017000D02*
X138794308Y-91088428D01*
X138794308Y-91088428D02*
X139008594Y-91088428D01*
X138008594Y-89588428D02*
X137080022Y-89588428D01*
X137080022Y-89588428D02*
X137580022Y-90159857D01*
X137580022Y-90159857D02*
X137365737Y-90159857D01*
X137365737Y-90159857D02*
X137222880Y-90231285D01*
X137222880Y-90231285D02*
X137151451Y-90302714D01*
X137151451Y-90302714D02*
X137080022Y-90445571D01*
X137080022Y-90445571D02*
X137080022Y-90802714D01*
X137080022Y-90802714D02*
X137151451Y-90945571D01*
X137151451Y-90945571D02*
X137222880Y-91017000D01*
X137222880Y-91017000D02*
X137365737Y-91088428D01*
X137365737Y-91088428D02*
X137794308Y-91088428D01*
X137794308Y-91088428D02*
X137937165Y-91017000D01*
X137937165Y-91017000D02*
X138008594Y-90945571D01*
X136580023Y-89588428D02*
X135651451Y-89588428D01*
X135651451Y-89588428D02*
X136151451Y-90159857D01*
X136151451Y-90159857D02*
X135937166Y-90159857D01*
X135937166Y-90159857D02*
X135794309Y-90231285D01*
X135794309Y-90231285D02*
X135722880Y-90302714D01*
X135722880Y-90302714D02*
X135651451Y-90445571D01*
X135651451Y-90445571D02*
X135651451Y-90802714D01*
X135651451Y-90802714D02*
X135722880Y-90945571D01*
X135722880Y-90945571D02*
X135794309Y-91017000D01*
X135794309Y-91017000D02*
X135937166Y-91088428D01*
X135937166Y-91088428D02*
X136365737Y-91088428D01*
X136365737Y-91088428D02*
X136508594Y-91017000D01*
X136508594Y-91017000D02*
X136580023Y-90945571D01*
X135365738Y-91231285D02*
X134222880Y-91231285D01*
X133865738Y-91088428D02*
X133865738Y-89588428D01*
X133222881Y-91088428D02*
X133222881Y-90302714D01*
X133222881Y-90302714D02*
X133294309Y-90159857D01*
X133294309Y-90159857D02*
X133437166Y-90088428D01*
X133437166Y-90088428D02*
X133651452Y-90088428D01*
X133651452Y-90088428D02*
X133794309Y-90159857D01*
X133794309Y-90159857D02*
X133865738Y-90231285D01*
X131865738Y-90088428D02*
X131865738Y-91088428D01*
X132508595Y-90088428D02*
X132508595Y-90874142D01*
X132508595Y-90874142D02*
X132437166Y-91017000D01*
X132437166Y-91017000D02*
X132294309Y-91088428D01*
X132294309Y-91088428D02*
X132080023Y-91088428D01*
X132080023Y-91088428D02*
X131937166Y-91017000D01*
X131937166Y-91017000D02*
X131865738Y-90945571D01*
X131151452Y-91088428D02*
X131151452Y-89588428D01*
X131151452Y-90159857D02*
X131008595Y-90088428D01*
X131008595Y-90088428D02*
X130722880Y-90088428D01*
X130722880Y-90088428D02*
X130580023Y-90159857D01*
X130580023Y-90159857D02*
X130508595Y-90231285D01*
X130508595Y-90231285D02*
X130437166Y-90374142D01*
X130437166Y-90374142D02*
X130437166Y-90802714D01*
X130437166Y-90802714D02*
X130508595Y-90945571D01*
X130508595Y-90945571D02*
X130580023Y-91017000D01*
X130580023Y-91017000D02*
X130722880Y-91088428D01*
X130722880Y-91088428D02*
X131008595Y-91088428D01*
X131008595Y-91088428D02*
X131151452Y-91017000D01*
X129937166Y-89588428D02*
X128937166Y-89588428D01*
X128937166Y-89588428D02*
X129580023Y-91088428D01*
X127651452Y-89588428D02*
X128365738Y-89588428D01*
X128365738Y-89588428D02*
X128437166Y-90302714D01*
X128437166Y-90302714D02*
X128365738Y-90231285D01*
X128365738Y-90231285D02*
X128222881Y-90159857D01*
X128222881Y-90159857D02*
X127865738Y-90159857D01*
X127865738Y-90159857D02*
X127722881Y-90231285D01*
X127722881Y-90231285D02*
X127651452Y-90302714D01*
X127651452Y-90302714D02*
X127580023Y-90445571D01*
X127580023Y-90445571D02*
X127580023Y-90802714D01*
X127580023Y-90802714D02*
X127651452Y-90945571D01*
X127651452Y-90945571D02*
X127722881Y-91017000D01*
X127722881Y-91017000D02*
X127865738Y-91088428D01*
X127865738Y-91088428D02*
X128222881Y-91088428D01*
X128222881Y-91088428D02*
X128365738Y-91017000D01*
X128365738Y-91017000D02*
X128437166Y-90945571D01*
X126365738Y-91017000D02*
X126508595Y-91088428D01*
X126508595Y-91088428D02*
X126794310Y-91088428D01*
X126794310Y-91088428D02*
X126937167Y-91017000D01*
X126937167Y-91017000D02*
X127008595Y-90874142D01*
X127008595Y-90874142D02*
X127008595Y-90302714D01*
X127008595Y-90302714D02*
X126937167Y-90159857D01*
X126937167Y-90159857D02*
X126794310Y-90088428D01*
X126794310Y-90088428D02*
X126508595Y-90088428D01*
X126508595Y-90088428D02*
X126365738Y-90159857D01*
X126365738Y-90159857D02*
X126294310Y-90302714D01*
X126294310Y-90302714D02*
X126294310Y-90445571D01*
X126294310Y-90445571D02*
X127008595Y-90588428D01*
X126008596Y-91231285D02*
X124865738Y-91231285D01*
X124508596Y-91088428D02*
X124508596Y-89588428D01*
X123865739Y-91088428D02*
X123865739Y-90302714D01*
X123865739Y-90302714D02*
X123937167Y-90159857D01*
X123937167Y-90159857D02*
X124080024Y-90088428D01*
X124080024Y-90088428D02*
X124294310Y-90088428D01*
X124294310Y-90088428D02*
X124437167Y-90159857D01*
X124437167Y-90159857D02*
X124508596Y-90231285D01*
X122508596Y-91088428D02*
X122508596Y-90302714D01*
X122508596Y-90302714D02*
X122580024Y-90159857D01*
X122580024Y-90159857D02*
X122722881Y-90088428D01*
X122722881Y-90088428D02*
X123008596Y-90088428D01*
X123008596Y-90088428D02*
X123151453Y-90159857D01*
X122508596Y-91017000D02*
X122651453Y-91088428D01*
X122651453Y-91088428D02*
X123008596Y-91088428D01*
X123008596Y-91088428D02*
X123151453Y-91017000D01*
X123151453Y-91017000D02*
X123222881Y-90874142D01*
X123222881Y-90874142D02*
X123222881Y-90731285D01*
X123222881Y-90731285D02*
X123151453Y-90588428D01*
X123151453Y-90588428D02*
X123008596Y-90517000D01*
X123008596Y-90517000D02*
X122651453Y-90517000D01*
X122651453Y-90517000D02*
X122508596Y-90445571D01*
X122008595Y-90088428D02*
X121437167Y-90088428D01*
X121794310Y-89588428D02*
X121794310Y-90874142D01*
X121794310Y-90874142D02*
X121722881Y-91017000D01*
X121722881Y-91017000D02*
X121580024Y-91088428D01*
X121580024Y-91088428D02*
X121437167Y-91088428D01*
X121294310Y-91231285D02*
X120151452Y-91231285D01*
X119937167Y-90088428D02*
X119580024Y-91088428D01*
X119580024Y-91088428D02*
X119222881Y-90088428D01*
X117865738Y-91088428D02*
X118722881Y-91088428D01*
X118294310Y-91088428D02*
X118294310Y-89588428D01*
X118294310Y-89588428D02*
X118437167Y-89802714D01*
X118437167Y-89802714D02*
X118580024Y-89945571D01*
X118580024Y-89945571D02*
X118722881Y-90017000D01*
X117222882Y-90945571D02*
X117151453Y-91017000D01*
X117151453Y-91017000D02*
X117222882Y-91088428D01*
X117222882Y-91088428D02*
X117294310Y-91017000D01*
X117294310Y-91017000D02*
X117222882Y-90945571D01*
X117222882Y-90945571D02*
X117222882Y-91088428D01*
X116580024Y-89731285D02*
X116508596Y-89659857D01*
X116508596Y-89659857D02*
X116365739Y-89588428D01*
X116365739Y-89588428D02*
X116008596Y-89588428D01*
X116008596Y-89588428D02*
X115865739Y-89659857D01*
X115865739Y-89659857D02*
X115794310Y-89731285D01*
X115794310Y-89731285D02*
X115722881Y-89874142D01*
X115722881Y-89874142D02*
X115722881Y-90017000D01*
X115722881Y-90017000D02*
X115794310Y-90231285D01*
X115794310Y-90231285D02*
X116651453Y-91088428D01*
X116651453Y-91088428D02*
X115722881Y-91088428D01*
D10*
X139575982Y-79351466D02*
X139642649Y-79318133D01*
X139642649Y-79318133D02*
X139742649Y-79318133D01*
X139742649Y-79318133D02*
X139842649Y-79351466D01*
X139842649Y-79351466D02*
X139909316Y-79418133D01*
X139909316Y-79418133D02*
X139942649Y-79484800D01*
X139942649Y-79484800D02*
X139975982Y-79618133D01*
X139975982Y-79618133D02*
X139975982Y-79718133D01*
X139975982Y-79718133D02*
X139942649Y-79851466D01*
X139942649Y-79851466D02*
X139909316Y-79918133D01*
X139909316Y-79918133D02*
X139842649Y-79984800D01*
X139842649Y-79984800D02*
X139742649Y-80018133D01*
X139742649Y-80018133D02*
X139675982Y-80018133D01*
X139675982Y-80018133D02*
X139575982Y-79984800D01*
X139575982Y-79984800D02*
X139542649Y-79951466D01*
X139542649Y-79951466D02*
X139542649Y-79718133D01*
X139542649Y-79718133D02*
X139675982Y-79718133D01*
X139242649Y-80018133D02*
X139242649Y-79318133D01*
X139242649Y-79318133D02*
X138842649Y-80018133D01*
X138842649Y-80018133D02*
X138842649Y-79318133D01*
X138509316Y-80018133D02*
X138509316Y-79318133D01*
X138509316Y-79318133D02*
X138342649Y-79318133D01*
X138342649Y-79318133D02*
X138242649Y-79351466D01*
X138242649Y-79351466D02*
X138175983Y-79418133D01*
X138175983Y-79418133D02*
X138142649Y-79484800D01*
X138142649Y-79484800D02*
X138109316Y-79618133D01*
X138109316Y-79618133D02*
X138109316Y-79718133D01*
X138109316Y-79718133D02*
X138142649Y-79851466D01*
X138142649Y-79851466D02*
X138175983Y-79918133D01*
X138175983Y-79918133D02*
X138242649Y-79984800D01*
X138242649Y-79984800D02*
X138342649Y-80018133D01*
X138342649Y-80018133D02*
X138509316Y-80018133D01*
X121832666Y-81988819D02*
X122165999Y-81512628D01*
X122404094Y-81988819D02*
X122404094Y-80988819D01*
X122404094Y-80988819D02*
X122023142Y-80988819D01*
X122023142Y-80988819D02*
X121927904Y-81036438D01*
X121927904Y-81036438D02*
X121880285Y-81084057D01*
X121880285Y-81084057D02*
X121832666Y-81179295D01*
X121832666Y-81179295D02*
X121832666Y-81322152D01*
X121832666Y-81322152D02*
X121880285Y-81417390D01*
X121880285Y-81417390D02*
X121927904Y-81465009D01*
X121927904Y-81465009D02*
X122023142Y-81512628D01*
X122023142Y-81512628D02*
X122404094Y-81512628D01*
X121451713Y-81084057D02*
X121404094Y-81036438D01*
X121404094Y-81036438D02*
X121308856Y-80988819D01*
X121308856Y-80988819D02*
X121070761Y-80988819D01*
X121070761Y-80988819D02*
X120975523Y-81036438D01*
X120975523Y-81036438D02*
X120927904Y-81084057D01*
X120927904Y-81084057D02*
X120880285Y-81179295D01*
X120880285Y-81179295D02*
X120880285Y-81274533D01*
X120880285Y-81274533D02*
X120927904Y-81417390D01*
X120927904Y-81417390D02*
X121499332Y-81988819D01*
X121499332Y-81988819D02*
X120880285Y-81988819D01*
X104229819Y-90471666D02*
X104944104Y-90471666D01*
X104944104Y-90471666D02*
X105086961Y-90424047D01*
X105086961Y-90424047D02*
X105182200Y-90328809D01*
X105182200Y-90328809D02*
X105229819Y-90185952D01*
X105229819Y-90185952D02*
X105229819Y-90090714D01*
X104229819Y-90852619D02*
X104229819Y-91471666D01*
X104229819Y-91471666D02*
X104610771Y-91138333D01*
X104610771Y-91138333D02*
X104610771Y-91281190D01*
X104610771Y-91281190D02*
X104658390Y-91376428D01*
X104658390Y-91376428D02*
X104706009Y-91424047D01*
X104706009Y-91424047D02*
X104801247Y-91471666D01*
X104801247Y-91471666D02*
X105039342Y-91471666D01*
X105039342Y-91471666D02*
X105134580Y-91424047D01*
X105134580Y-91424047D02*
X105182200Y-91376428D01*
X105182200Y-91376428D02*
X105229819Y-91281190D01*
X105229819Y-91281190D02*
X105229819Y-90995476D01*
X105229819Y-90995476D02*
X105182200Y-90900238D01*
X105182200Y-90900238D02*
X105134580Y-90852619D01*
X131484666Y-81480819D02*
X131817999Y-81004628D01*
X132056094Y-81480819D02*
X132056094Y-80480819D01*
X132056094Y-80480819D02*
X131675142Y-80480819D01*
X131675142Y-80480819D02*
X131579904Y-80528438D01*
X131579904Y-80528438D02*
X131532285Y-80576057D01*
X131532285Y-80576057D02*
X131484666Y-80671295D01*
X131484666Y-80671295D02*
X131484666Y-80814152D01*
X131484666Y-80814152D02*
X131532285Y-80909390D01*
X131532285Y-80909390D02*
X131579904Y-80957009D01*
X131579904Y-80957009D02*
X131675142Y-81004628D01*
X131675142Y-81004628D02*
X132056094Y-81004628D01*
X131151332Y-80480819D02*
X130532285Y-80480819D01*
X130532285Y-80480819D02*
X130865618Y-80861771D01*
X130865618Y-80861771D02*
X130722761Y-80861771D01*
X130722761Y-80861771D02*
X130627523Y-80909390D01*
X130627523Y-80909390D02*
X130579904Y-80957009D01*
X130579904Y-80957009D02*
X130532285Y-81052247D01*
X130532285Y-81052247D02*
X130532285Y-81290342D01*
X130532285Y-81290342D02*
X130579904Y-81385580D01*
X130579904Y-81385580D02*
X130627523Y-81433200D01*
X130627523Y-81433200D02*
X130722761Y-81480819D01*
X130722761Y-81480819D02*
X131008475Y-81480819D01*
X131008475Y-81480819D02*
X131103713Y-81433200D01*
X131103713Y-81433200D02*
X131151332Y-81385580D01*
X144438666Y-81734819D02*
X144771999Y-81258628D01*
X145010094Y-81734819D02*
X145010094Y-80734819D01*
X145010094Y-80734819D02*
X144629142Y-80734819D01*
X144629142Y-80734819D02*
X144533904Y-80782438D01*
X144533904Y-80782438D02*
X144486285Y-80830057D01*
X144486285Y-80830057D02*
X144438666Y-80925295D01*
X144438666Y-80925295D02*
X144438666Y-81068152D01*
X144438666Y-81068152D02*
X144486285Y-81163390D01*
X144486285Y-81163390D02*
X144533904Y-81211009D01*
X144533904Y-81211009D02*
X144629142Y-81258628D01*
X144629142Y-81258628D02*
X145010094Y-81258628D01*
X143486285Y-81734819D02*
X144057713Y-81734819D01*
X143771999Y-81734819D02*
X143771999Y-80734819D01*
X143771999Y-80734819D02*
X143867237Y-80877676D01*
X143867237Y-80877676D02*
X143962475Y-80972914D01*
X143962475Y-80972914D02*
X144057713Y-81020533D01*
X108624666Y-90529580D02*
X108672285Y-90577200D01*
X108672285Y-90577200D02*
X108815142Y-90624819D01*
X108815142Y-90624819D02*
X108910380Y-90624819D01*
X108910380Y-90624819D02*
X109053237Y-90577200D01*
X109053237Y-90577200D02*
X109148475Y-90481961D01*
X109148475Y-90481961D02*
X109196094Y-90386723D01*
X109196094Y-90386723D02*
X109243713Y-90196247D01*
X109243713Y-90196247D02*
X109243713Y-90053390D01*
X109243713Y-90053390D02*
X109196094Y-89862914D01*
X109196094Y-89862914D02*
X109148475Y-89767676D01*
X109148475Y-89767676D02*
X109053237Y-89672438D01*
X109053237Y-89672438D02*
X108910380Y-89624819D01*
X108910380Y-89624819D02*
X108815142Y-89624819D01*
X108815142Y-89624819D02*
X108672285Y-89672438D01*
X108672285Y-89672438D02*
X108624666Y-89720057D01*
X107672285Y-90624819D02*
X108243713Y-90624819D01*
X107957999Y-90624819D02*
X107957999Y-89624819D01*
X107957999Y-89624819D02*
X108053237Y-89767676D01*
X108053237Y-89767676D02*
X108148475Y-89862914D01*
X108148475Y-89862914D02*
X108243713Y-89910533D01*
X108116666Y-81639580D02*
X108164285Y-81687200D01*
X108164285Y-81687200D02*
X108307142Y-81734819D01*
X108307142Y-81734819D02*
X108402380Y-81734819D01*
X108402380Y-81734819D02*
X108545237Y-81687200D01*
X108545237Y-81687200D02*
X108640475Y-81591961D01*
X108640475Y-81591961D02*
X108688094Y-81496723D01*
X108688094Y-81496723D02*
X108735713Y-81306247D01*
X108735713Y-81306247D02*
X108735713Y-81163390D01*
X108735713Y-81163390D02*
X108688094Y-80972914D01*
X108688094Y-80972914D02*
X108640475Y-80877676D01*
X108640475Y-80877676D02*
X108545237Y-80782438D01*
X108545237Y-80782438D02*
X108402380Y-80734819D01*
X108402380Y-80734819D02*
X108307142Y-80734819D01*
X108307142Y-80734819D02*
X108164285Y-80782438D01*
X108164285Y-80782438D02*
X108116666Y-80830057D01*
X107735713Y-80830057D02*
X107688094Y-80782438D01*
X107688094Y-80782438D02*
X107592856Y-80734819D01*
X107592856Y-80734819D02*
X107354761Y-80734819D01*
X107354761Y-80734819D02*
X107259523Y-80782438D01*
X107259523Y-80782438D02*
X107211904Y-80830057D01*
X107211904Y-80830057D02*
X107164285Y-80925295D01*
X107164285Y-80925295D02*
X107164285Y-81020533D01*
X107164285Y-81020533D02*
X107211904Y-81163390D01*
X107211904Y-81163390D02*
X107783332Y-81734819D01*
X107783332Y-81734819D02*
X107164285Y-81734819D01*
X103340819Y-79930666D02*
X104055104Y-79930666D01*
X104055104Y-79930666D02*
X104197961Y-79883047D01*
X104197961Y-79883047D02*
X104293200Y-79787809D01*
X104293200Y-79787809D02*
X104340819Y-79644952D01*
X104340819Y-79644952D02*
X104340819Y-79549714D01*
X103436057Y-80359238D02*
X103388438Y-80406857D01*
X103388438Y-80406857D02*
X103340819Y-80502095D01*
X103340819Y-80502095D02*
X103340819Y-80740190D01*
X103340819Y-80740190D02*
X103388438Y-80835428D01*
X103388438Y-80835428D02*
X103436057Y-80883047D01*
X103436057Y-80883047D02*
X103531295Y-80930666D01*
X103531295Y-80930666D02*
X103626533Y-80930666D01*
X103626533Y-80930666D02*
X103769390Y-80883047D01*
X103769390Y-80883047D02*
X104340819Y-80311619D01*
X104340819Y-80311619D02*
X104340819Y-80930666D01*
D12*
%TO.C,R2*%
X118557064Y-82190000D02*
X117102936Y-82190000D01*
X118557064Y-80370000D02*
X117102936Y-80370000D01*
%TO.C,J3*%
X104715000Y-94675000D02*
X104715000Y-92015000D01*
X140335000Y-94675000D02*
X104715000Y-94675000D01*
X140335000Y-94675000D02*
X140335000Y-92015000D01*
X142935000Y-93345000D02*
X142935000Y-92015000D01*
X140335000Y-92015000D02*
X104715000Y-92015000D01*
X142935000Y-92015000D02*
X141605000Y-92015000D01*
%TO.C,R3*%
X133706776Y-80503500D02*
X134216224Y-80503500D01*
X133706776Y-81548500D02*
X134216224Y-81548500D01*
%TO.C,R1*%
X140242936Y-80370000D02*
X141697064Y-80370000D01*
X140242936Y-82190000D02*
X141697064Y-82190000D01*
%TO.C,C1*%
X111048748Y-89260000D02*
X112471252Y-89260000D01*
X111048748Y-91080000D02*
X112471252Y-91080000D01*
%TO.C,C2*%
X111048748Y-80370000D02*
X112471252Y-80370000D01*
X111048748Y-82190000D02*
X112471252Y-82190000D01*
%TO.C,J2*%
X142909600Y-76775000D02*
X142909600Y-79435000D01*
X107289600Y-76775000D02*
X142909600Y-76775000D01*
X107289600Y-76775000D02*
X107289600Y-79435000D01*
X104689600Y-78105000D02*
X104689600Y-79435000D01*
X107289600Y-79435000D02*
X142909600Y-79435000D01*
X104689600Y-79435000D02*
X106019600Y-79435000D01*
%TD*%
M02*
